G04 #@! TF.GenerationSoftware,KiCad,Pcbnew,(5.1.8)-1*
G04 #@! TF.CreationDate,2020-12-20T23:41:31-05:00*
G04 #@! TF.ProjectId,uBMS-2,75424d53-2d32-42e6-9b69-6361645f7063,rev?*
G04 #@! TF.SameCoordinates,Original*
G04 #@! TF.FileFunction,Legend,Bot*
G04 #@! TF.FilePolarity,Positive*
%FSLAX46Y46*%
G04 Gerber Fmt 4.6, Leading zero omitted, Abs format (unit mm)*
G04 Created by KiCad (PCBNEW (5.1.8)-1) date 2020-12-20 23:41:31*
%MOMM*%
%LPD*%
G01*
G04 APERTURE LIST*
%ADD10C,0.100000*%
%ADD11C,0.300000*%
%ADD12C,0.150000*%
%ADD13C,0.120000*%
%ADD14C,0.127000*%
%ADD15C,0.200000*%
%ADD16C,0.015000*%
G04 APERTURE END LIST*
D10*
X55690476Y-26602380D02*
X55690476Y-25602380D01*
X55452380Y-25602380D01*
X55309523Y-25650000D01*
X55214285Y-25745238D01*
X55166666Y-25840476D01*
X55119047Y-26030952D01*
X55119047Y-26173809D01*
X55166666Y-26364285D01*
X55214285Y-26459523D01*
X55309523Y-26554761D01*
X55452380Y-26602380D01*
X55690476Y-26602380D01*
X54309523Y-26554761D02*
X54404761Y-26602380D01*
X54595238Y-26602380D01*
X54690476Y-26554761D01*
X54738095Y-26459523D01*
X54738095Y-26078571D01*
X54690476Y-25983333D01*
X54595238Y-25935714D01*
X54404761Y-25935714D01*
X54309523Y-25983333D01*
X54261904Y-26078571D01*
X54261904Y-26173809D01*
X54738095Y-26269047D01*
X53404761Y-26554761D02*
X53500000Y-26602380D01*
X53690476Y-26602380D01*
X53785714Y-26554761D01*
X53833333Y-26507142D01*
X53880952Y-26411904D01*
X53880952Y-26126190D01*
X53833333Y-26030952D01*
X53785714Y-25983333D01*
X53690476Y-25935714D01*
X53500000Y-25935714D01*
X53404761Y-25983333D01*
X52595238Y-26554761D02*
X52690476Y-26602380D01*
X52880952Y-26602380D01*
X52976190Y-26554761D01*
X53023809Y-26459523D01*
X53023809Y-26078571D01*
X52976190Y-25983333D01*
X52880952Y-25935714D01*
X52690476Y-25935714D01*
X52595238Y-25983333D01*
X52547619Y-26078571D01*
X52547619Y-26173809D01*
X53023809Y-26269047D01*
X52119047Y-26602380D02*
X52119047Y-25935714D01*
X52119047Y-26030952D02*
X52071428Y-25983333D01*
X51976190Y-25935714D01*
X51833333Y-25935714D01*
X51738095Y-25983333D01*
X51690476Y-26078571D01*
X51690476Y-26602380D01*
X51690476Y-26078571D02*
X51642857Y-25983333D01*
X51547619Y-25935714D01*
X51404761Y-25935714D01*
X51309523Y-25983333D01*
X51261904Y-26078571D01*
X51261904Y-26602380D01*
X50785714Y-26602380D02*
X50785714Y-25602380D01*
X50785714Y-25983333D02*
X50690476Y-25935714D01*
X50500000Y-25935714D01*
X50404761Y-25983333D01*
X50357142Y-26030952D01*
X50309523Y-26126190D01*
X50309523Y-26411904D01*
X50357142Y-26507142D01*
X50404761Y-26554761D01*
X50500000Y-26602380D01*
X50690476Y-26602380D01*
X50785714Y-26554761D01*
X49500000Y-26554761D02*
X49595238Y-26602380D01*
X49785714Y-26602380D01*
X49880952Y-26554761D01*
X49928571Y-26459523D01*
X49928571Y-26078571D01*
X49880952Y-25983333D01*
X49785714Y-25935714D01*
X49595238Y-25935714D01*
X49500000Y-25983333D01*
X49452380Y-26078571D01*
X49452380Y-26173809D01*
X49928571Y-26269047D01*
X49023809Y-26602380D02*
X49023809Y-25935714D01*
X49023809Y-26126190D02*
X48976190Y-26030952D01*
X48928571Y-25983333D01*
X48833333Y-25935714D01*
X48738095Y-25935714D01*
X47690476Y-25697619D02*
X47642857Y-25650000D01*
X47547619Y-25602380D01*
X47309523Y-25602380D01*
X47214285Y-25650000D01*
X47166666Y-25697619D01*
X47119047Y-25792857D01*
X47119047Y-25888095D01*
X47166666Y-26030952D01*
X47738095Y-26602380D01*
X47119047Y-26602380D01*
X46500000Y-25602380D02*
X46404761Y-25602380D01*
X46309523Y-25650000D01*
X46261904Y-25697619D01*
X46214285Y-25792857D01*
X46166666Y-25983333D01*
X46166666Y-26221428D01*
X46214285Y-26411904D01*
X46261904Y-26507142D01*
X46309523Y-26554761D01*
X46404761Y-26602380D01*
X46500000Y-26602380D01*
X46595238Y-26554761D01*
X46642857Y-26507142D01*
X46690476Y-26411904D01*
X46738095Y-26221428D01*
X46738095Y-25983333D01*
X46690476Y-25792857D01*
X46642857Y-25697619D01*
X46595238Y-25650000D01*
X46500000Y-25602380D01*
X45785714Y-25697619D02*
X45738095Y-25650000D01*
X45642857Y-25602380D01*
X45404761Y-25602380D01*
X45309523Y-25650000D01*
X45261904Y-25697619D01*
X45214285Y-25792857D01*
X45214285Y-25888095D01*
X45261904Y-26030952D01*
X45833333Y-26602380D01*
X45214285Y-26602380D01*
X44595238Y-25602380D02*
X44500000Y-25602380D01*
X44404761Y-25650000D01*
X44357142Y-25697619D01*
X44309523Y-25792857D01*
X44261904Y-25983333D01*
X44261904Y-26221428D01*
X44309523Y-26411904D01*
X44357142Y-26507142D01*
X44404761Y-26554761D01*
X44500000Y-26602380D01*
X44595238Y-26602380D01*
X44690476Y-26554761D01*
X44738095Y-26507142D01*
X44785714Y-26411904D01*
X44833333Y-26221428D01*
X44833333Y-25983333D01*
X44785714Y-25792857D01*
X44738095Y-25697619D01*
X44690476Y-25650000D01*
X44595238Y-25602380D01*
D11*
X61857142Y-24828571D02*
X61857142Y-23328571D01*
X61857142Y-23900000D02*
X61714285Y-23828571D01*
X61428571Y-23828571D01*
X61285714Y-23900000D01*
X61214285Y-23971428D01*
X61142857Y-24114285D01*
X61142857Y-24542857D01*
X61214285Y-24685714D01*
X61285714Y-24757142D01*
X61428571Y-24828571D01*
X61714285Y-24828571D01*
X61857142Y-24757142D01*
X60642857Y-23828571D02*
X60285714Y-24828571D01*
X59928571Y-23828571D02*
X60285714Y-24828571D01*
X60428571Y-25185714D01*
X60499999Y-25257142D01*
X60642857Y-25328571D01*
X57357142Y-24685714D02*
X57428571Y-24757142D01*
X57642857Y-24828571D01*
X57785714Y-24828571D01*
X58000000Y-24757142D01*
X58142857Y-24614285D01*
X58214285Y-24471428D01*
X58285714Y-24185714D01*
X58285714Y-23971428D01*
X58214285Y-23685714D01*
X58142857Y-23542857D01*
X58000000Y-23400000D01*
X57785714Y-23328571D01*
X57642857Y-23328571D01*
X57428571Y-23400000D01*
X57357142Y-23471428D01*
X56500000Y-24828571D02*
X56642857Y-24757142D01*
X56714285Y-24614285D01*
X56714285Y-23328571D01*
X55357142Y-24757142D02*
X55499999Y-24828571D01*
X55785714Y-24828571D01*
X55928571Y-24757142D01*
X55999999Y-24614285D01*
X55999999Y-24042857D01*
X55928571Y-23900000D01*
X55785714Y-23828571D01*
X55499999Y-23828571D01*
X55357142Y-23900000D01*
X55285714Y-24042857D01*
X55285714Y-24185714D01*
X55999999Y-24328571D01*
X54642857Y-24828571D02*
X54642857Y-23828571D01*
X54642857Y-23971428D02*
X54571428Y-23900000D01*
X54428571Y-23828571D01*
X54214285Y-23828571D01*
X54071428Y-23900000D01*
X53999999Y-24042857D01*
X53999999Y-24828571D01*
X53999999Y-24042857D02*
X53928571Y-23900000D01*
X53785714Y-23828571D01*
X53571428Y-23828571D01*
X53428571Y-23900000D01*
X53357142Y-24042857D01*
X53357142Y-24828571D01*
X52071428Y-24757142D02*
X52214285Y-24828571D01*
X52499999Y-24828571D01*
X52642857Y-24757142D01*
X52714285Y-24614285D01*
X52714285Y-24042857D01*
X52642857Y-23900000D01*
X52499999Y-23828571D01*
X52214285Y-23828571D01*
X52071428Y-23900000D01*
X51999999Y-24042857D01*
X51999999Y-24185714D01*
X52714285Y-24328571D01*
X51357142Y-23828571D02*
X51357142Y-24828571D01*
X51357142Y-23971428D02*
X51285714Y-23900000D01*
X51142857Y-23828571D01*
X50928571Y-23828571D01*
X50785714Y-23900000D01*
X50714285Y-24042857D01*
X50714285Y-24828571D01*
X50214285Y-23828571D02*
X49642857Y-23828571D01*
X49999999Y-23328571D02*
X49999999Y-24614285D01*
X49928571Y-24757142D01*
X49785714Y-24828571D01*
X49642857Y-24828571D01*
X47999999Y-24828571D02*
X47999999Y-23328571D01*
X47999999Y-24042857D02*
X47142857Y-24042857D01*
X47142857Y-24828571D02*
X47142857Y-23328571D01*
X45785714Y-24828571D02*
X45785714Y-24042857D01*
X45857142Y-23900000D01*
X45999999Y-23828571D01*
X46285714Y-23828571D01*
X46428571Y-23900000D01*
X45785714Y-24757142D02*
X45928571Y-24828571D01*
X46285714Y-24828571D01*
X46428571Y-24757142D01*
X46499999Y-24614285D01*
X46499999Y-24471428D01*
X46428571Y-24328571D01*
X46285714Y-24257142D01*
X45928571Y-24257142D01*
X45785714Y-24185714D01*
X45285714Y-23828571D02*
X44714285Y-23828571D01*
X45071428Y-23328571D02*
X45071428Y-24614285D01*
X44999999Y-24757142D01*
X44857142Y-24828571D01*
X44714285Y-24828571D01*
X44214285Y-24828571D02*
X44214285Y-23328571D01*
X43571428Y-24828571D02*
X43571428Y-24042857D01*
X43642857Y-23900000D01*
X43785714Y-23828571D01*
X43999999Y-23828571D01*
X44142857Y-23900000D01*
X44214285Y-23971428D01*
X42214285Y-24828571D02*
X42214285Y-24042857D01*
X42285714Y-23900000D01*
X42428571Y-23828571D01*
X42714285Y-23828571D01*
X42857142Y-23900000D01*
X42214285Y-24757142D02*
X42357142Y-24828571D01*
X42714285Y-24828571D01*
X42857142Y-24757142D01*
X42928571Y-24614285D01*
X42928571Y-24471428D01*
X42857142Y-24328571D01*
X42714285Y-24257142D01*
X42357142Y-24257142D01*
X42214285Y-24185714D01*
X41642857Y-23828571D02*
X41357142Y-24828571D01*
X41071428Y-24114285D01*
X40785714Y-24828571D01*
X40499999Y-23828571D01*
X39285714Y-24828571D02*
X39285714Y-24042857D01*
X39357142Y-23900000D01*
X39499999Y-23828571D01*
X39785714Y-23828571D01*
X39928571Y-23900000D01*
X39285714Y-24757142D02*
X39428571Y-24828571D01*
X39785714Y-24828571D01*
X39928571Y-24757142D01*
X39999999Y-24614285D01*
X39999999Y-24471428D01*
X39928571Y-24328571D01*
X39785714Y-24257142D01*
X39428571Y-24257142D01*
X39285714Y-24185714D01*
X38714285Y-23828571D02*
X38357142Y-24828571D01*
X37999999Y-23828571D02*
X38357142Y-24828571D01*
X38499999Y-25185714D01*
X38571428Y-25257142D01*
X38714285Y-25328571D01*
D12*
X61252369Y-90327919D02*
X60309560Y-90799324D01*
X60780965Y-89856514D01*
X59737140Y-90226904D02*
X59838156Y-90260575D01*
X59905499Y-90260575D01*
X60006514Y-90226904D01*
X60208545Y-90024873D01*
X60242217Y-89923858D01*
X60242217Y-89856514D01*
X60208545Y-89755499D01*
X60107530Y-89654484D01*
X60006514Y-89620812D01*
X59939171Y-89620812D01*
X59838156Y-89654484D01*
X59636125Y-89856514D01*
X59602453Y-89957530D01*
X59602453Y-90024873D01*
X59636125Y-90125888D01*
X59737140Y-90226904D01*
X59097377Y-89587140D02*
X59198392Y-89620812D01*
X59299408Y-89587140D01*
X59905499Y-88981049D01*
X59400423Y-88947377D02*
X59131049Y-88678003D01*
X59535110Y-88610660D02*
X58929018Y-89216751D01*
X58828003Y-89250423D01*
X58726988Y-89216751D01*
X58659644Y-89149408D01*
X58120896Y-88610660D02*
X58491286Y-88240270D01*
X58592301Y-88206599D01*
X58693316Y-88240270D01*
X58828003Y-88374957D01*
X58861675Y-88475973D01*
X58154568Y-88576988D02*
X58188240Y-88678003D01*
X58356599Y-88846362D01*
X58457614Y-88880034D01*
X58558629Y-88846362D01*
X58625973Y-88779018D01*
X58659644Y-88678003D01*
X58625973Y-88576988D01*
X58457614Y-88408629D01*
X58423942Y-88307614D01*
X57952538Y-87499492D02*
X57380118Y-88071912D01*
X57346446Y-88172927D01*
X57346446Y-88240270D01*
X57380118Y-88341286D01*
X57481133Y-88442301D01*
X57582148Y-88475973D01*
X57514805Y-87937225D02*
X57548477Y-88038240D01*
X57683164Y-88172927D01*
X57784179Y-88206599D01*
X57851522Y-88206599D01*
X57952538Y-88172927D01*
X58154568Y-87970896D01*
X58188240Y-87869881D01*
X58188240Y-87802538D01*
X58154568Y-87701522D01*
X58019881Y-87566835D01*
X57918866Y-87533164D01*
X56908713Y-87331133D02*
X56942385Y-87432148D01*
X57077072Y-87566835D01*
X57178087Y-87600507D01*
X57279103Y-87566835D01*
X57548477Y-87297461D01*
X57582148Y-87196446D01*
X57548477Y-87095431D01*
X57413790Y-86960744D01*
X57312774Y-86927072D01*
X57211759Y-86960744D01*
X57144416Y-87028087D01*
X57413790Y-87432148D01*
X55999576Y-86489339D02*
X56706683Y-85782233D01*
X55965904Y-86051607D01*
X56235278Y-85310828D01*
X55528172Y-86017935D01*
X55359813Y-84906767D02*
X54888408Y-85378172D01*
X55662859Y-85209813D02*
X55292469Y-85580202D01*
X55191454Y-85613874D01*
X55090439Y-85580202D01*
X54989424Y-85479187D01*
X54955752Y-85378172D01*
X54955752Y-85310828D01*
X54619034Y-85108798D02*
X54720049Y-84267004D01*
X55090439Y-84637393D02*
X54248645Y-84738408D01*
X77242857Y-94252380D02*
X76671428Y-94252380D01*
X76957142Y-95252380D02*
X76957142Y-94252380D01*
X75957142Y-95204761D02*
X76052380Y-95252380D01*
X76242857Y-95252380D01*
X76338095Y-95204761D01*
X76385714Y-95109523D01*
X76385714Y-94728571D01*
X76338095Y-94633333D01*
X76242857Y-94585714D01*
X76052380Y-94585714D01*
X75957142Y-94633333D01*
X75909523Y-94728571D01*
X75909523Y-94823809D01*
X76385714Y-94919047D01*
X75480952Y-95252380D02*
X75480952Y-94585714D01*
X75480952Y-94680952D02*
X75433333Y-94633333D01*
X75338095Y-94585714D01*
X75195238Y-94585714D01*
X75100000Y-94633333D01*
X75052380Y-94728571D01*
X75052380Y-95252380D01*
X75052380Y-94728571D02*
X75004761Y-94633333D01*
X74909523Y-94585714D01*
X74766666Y-94585714D01*
X74671428Y-94633333D01*
X74623809Y-94728571D01*
X74623809Y-95252380D01*
X74147619Y-94585714D02*
X74147619Y-95585714D01*
X74147619Y-94633333D02*
X74052380Y-94585714D01*
X73861904Y-94585714D01*
X73766666Y-94633333D01*
X73719047Y-94680952D01*
X73671428Y-94776190D01*
X73671428Y-95061904D01*
X73719047Y-95157142D01*
X73766666Y-95204761D01*
X73861904Y-95252380D01*
X74052380Y-95252380D01*
X74147619Y-95204761D01*
X72480952Y-95252380D02*
X72480952Y-94252380D01*
X72147619Y-94966666D01*
X71814285Y-94252380D01*
X71814285Y-95252380D01*
X70909523Y-94585714D02*
X70909523Y-95252380D01*
X71338095Y-94585714D02*
X71338095Y-95109523D01*
X71290476Y-95204761D01*
X71195238Y-95252380D01*
X71052380Y-95252380D01*
X70957142Y-95204761D01*
X70909523Y-95157142D01*
X70528571Y-95252380D02*
X70004761Y-94585714D01*
X70528571Y-94585714D02*
X70004761Y-95252380D01*
X53828571Y-49132142D02*
X53876190Y-49179761D01*
X54019047Y-49227380D01*
X54114285Y-49227380D01*
X54257142Y-49179761D01*
X54352380Y-49084523D01*
X54400000Y-48989285D01*
X54447619Y-48798809D01*
X54447619Y-48655952D01*
X54400000Y-48465476D01*
X54352380Y-48370238D01*
X54257142Y-48275000D01*
X54114285Y-48227380D01*
X54019047Y-48227380D01*
X53876190Y-48275000D01*
X53828571Y-48322619D01*
X52971428Y-48560714D02*
X52971428Y-49227380D01*
X53400000Y-48560714D02*
X53400000Y-49084523D01*
X53352380Y-49179761D01*
X53257142Y-49227380D01*
X53114285Y-49227380D01*
X53019047Y-49179761D01*
X52971428Y-49132142D01*
X52495238Y-49227380D02*
X52495238Y-48560714D01*
X52495238Y-48751190D02*
X52447619Y-48655952D01*
X52400000Y-48608333D01*
X52304761Y-48560714D01*
X52209523Y-48560714D01*
X51876190Y-49227380D02*
X51876190Y-48560714D01*
X51876190Y-48751190D02*
X51828571Y-48655952D01*
X51780952Y-48608333D01*
X51685714Y-48560714D01*
X51590476Y-48560714D01*
X50876190Y-49179761D02*
X50971428Y-49227380D01*
X51161904Y-49227380D01*
X51257142Y-49179761D01*
X51304761Y-49084523D01*
X51304761Y-48703571D01*
X51257142Y-48608333D01*
X51161904Y-48560714D01*
X50971428Y-48560714D01*
X50876190Y-48608333D01*
X50828571Y-48703571D01*
X50828571Y-48798809D01*
X51304761Y-48894047D01*
X50400000Y-48560714D02*
X50400000Y-49227380D01*
X50400000Y-48655952D02*
X50352380Y-48608333D01*
X50257142Y-48560714D01*
X50114285Y-48560714D01*
X50019047Y-48608333D01*
X49971428Y-48703571D01*
X49971428Y-49227380D01*
X49638095Y-48560714D02*
X49257142Y-48560714D01*
X49495238Y-48227380D02*
X49495238Y-49084523D01*
X49447619Y-49179761D01*
X49352380Y-49227380D01*
X49257142Y-49227380D01*
X53900000Y-50829761D02*
X53757142Y-50877380D01*
X53519047Y-50877380D01*
X53423809Y-50829761D01*
X53376190Y-50782142D01*
X53328571Y-50686904D01*
X53328571Y-50591666D01*
X53376190Y-50496428D01*
X53423809Y-50448809D01*
X53519047Y-50401190D01*
X53709523Y-50353571D01*
X53804761Y-50305952D01*
X53852380Y-50258333D01*
X53900000Y-50163095D01*
X53900000Y-50067857D01*
X53852380Y-49972619D01*
X53804761Y-49925000D01*
X53709523Y-49877380D01*
X53471428Y-49877380D01*
X53328571Y-49925000D01*
X52519047Y-50829761D02*
X52614285Y-50877380D01*
X52804761Y-50877380D01*
X52900000Y-50829761D01*
X52947619Y-50734523D01*
X52947619Y-50353571D01*
X52900000Y-50258333D01*
X52804761Y-50210714D01*
X52614285Y-50210714D01*
X52519047Y-50258333D01*
X52471428Y-50353571D01*
X52471428Y-50448809D01*
X52947619Y-50544047D01*
X52042857Y-50210714D02*
X52042857Y-50877380D01*
X52042857Y-50305952D02*
X51995238Y-50258333D01*
X51899999Y-50210714D01*
X51757142Y-50210714D01*
X51661904Y-50258333D01*
X51614285Y-50353571D01*
X51614285Y-50877380D01*
X51185714Y-50829761D02*
X51090476Y-50877380D01*
X50899999Y-50877380D01*
X50804761Y-50829761D01*
X50757142Y-50734523D01*
X50757142Y-50686904D01*
X50804761Y-50591666D01*
X50899999Y-50544047D01*
X51042857Y-50544047D01*
X51138095Y-50496428D01*
X51185714Y-50401190D01*
X51185714Y-50353571D01*
X51138095Y-50258333D01*
X51042857Y-50210714D01*
X50899999Y-50210714D01*
X50804761Y-50258333D01*
X49947619Y-50829761D02*
X50042857Y-50877380D01*
X50233333Y-50877380D01*
X50328571Y-50829761D01*
X50376190Y-50734523D01*
X50376190Y-50353571D01*
X50328571Y-50258333D01*
X50233333Y-50210714D01*
X50042857Y-50210714D01*
X49947619Y-50258333D01*
X49899999Y-50353571D01*
X49899999Y-50448809D01*
X50376190Y-50544047D01*
X73138095Y-80966666D02*
X72661904Y-80966666D01*
X73233333Y-81252380D02*
X72900000Y-80252380D01*
X72566666Y-81252380D01*
X72233333Y-81252380D02*
X72233333Y-80252380D01*
X71995238Y-80252380D01*
X71852380Y-80300000D01*
X71757142Y-80395238D01*
X71709523Y-80490476D01*
X71661904Y-80680952D01*
X71661904Y-80823809D01*
X71709523Y-81014285D01*
X71757142Y-81109523D01*
X71852380Y-81204761D01*
X71995238Y-81252380D01*
X72233333Y-81252380D01*
X70661904Y-81157142D02*
X70709523Y-81204761D01*
X70852380Y-81252380D01*
X70947619Y-81252380D01*
X71090476Y-81204761D01*
X71185714Y-81109523D01*
X71233333Y-81014285D01*
X71280952Y-80823809D01*
X71280952Y-80680952D01*
X71233333Y-80490476D01*
X71185714Y-80395238D01*
X71090476Y-80300000D01*
X70947619Y-80252380D01*
X70852380Y-80252380D01*
X70709523Y-80300000D01*
X70661904Y-80347619D01*
X41785714Y-65607142D02*
X41119047Y-65607142D01*
X40833333Y-66654761D02*
X41785714Y-66654761D01*
X41785714Y-64654761D01*
X40833333Y-64654761D01*
X40071428Y-66559523D02*
X39785714Y-66654761D01*
X39309523Y-66654761D01*
X39119047Y-66559523D01*
X39023809Y-66464285D01*
X38928571Y-66273809D01*
X38928571Y-66083333D01*
X39023809Y-65892857D01*
X39119047Y-65797619D01*
X39309523Y-65702380D01*
X39690476Y-65607142D01*
X39880952Y-65511904D01*
X39976190Y-65416666D01*
X40071428Y-65226190D01*
X40071428Y-65035714D01*
X39976190Y-64845238D01*
X39880952Y-64750000D01*
X39690476Y-64654761D01*
X39214285Y-64654761D01*
X38928571Y-64750000D01*
X38071428Y-66654761D02*
X38071428Y-64654761D01*
X37309523Y-64654761D01*
X37119047Y-64750000D01*
X37023809Y-64845238D01*
X36928571Y-65035714D01*
X36928571Y-65321428D01*
X37023809Y-65511904D01*
X37119047Y-65607142D01*
X37309523Y-65702380D01*
X38071428Y-65702380D01*
X36261904Y-64654761D02*
X35023809Y-64654761D01*
X35690476Y-65416666D01*
X35404761Y-65416666D01*
X35214285Y-65511904D01*
X35119047Y-65607142D01*
X35023809Y-65797619D01*
X35023809Y-66273809D01*
X35119047Y-66464285D01*
X35214285Y-66559523D01*
X35404761Y-66654761D01*
X35976190Y-66654761D01*
X36166666Y-66559523D01*
X36261904Y-66464285D01*
X34261904Y-64845238D02*
X34166666Y-64750000D01*
X33976190Y-64654761D01*
X33500000Y-64654761D01*
X33309523Y-64750000D01*
X33214285Y-64845238D01*
X33119047Y-65035714D01*
X33119047Y-65226190D01*
X33214285Y-65511904D01*
X34357142Y-66654761D01*
X33119047Y-66654761D01*
X69400000Y-97625000D02*
X69400000Y-96025000D01*
X77825000Y-97625000D02*
X77825000Y-103375000D01*
X69175000Y-97625000D02*
X69175000Y-103375000D01*
X77825000Y-97625000D02*
X77525000Y-97625000D01*
X77825000Y-103375000D02*
X77525000Y-103375000D01*
X69175000Y-103375000D02*
X69475000Y-103375000D01*
X69175000Y-97625000D02*
X69400000Y-97625000D01*
D13*
X50740000Y-69700000D02*
X50740000Y-67800000D01*
X53060000Y-68300000D02*
X53060000Y-69700000D01*
X58350000Y-77490000D02*
X60250000Y-77490000D01*
X59750000Y-79810000D02*
X58350000Y-79810000D01*
X51300000Y-73590000D02*
X53200000Y-73590000D01*
X52700000Y-75910000D02*
X51300000Y-75910000D01*
X73850000Y-63440000D02*
X75750000Y-63440000D01*
X75250000Y-65760000D02*
X73850000Y-65760000D01*
X34800000Y-41290000D02*
X36700000Y-41290000D01*
X36200000Y-43610000D02*
X34800000Y-43610000D01*
D14*
X71980000Y-89080000D02*
X71600000Y-89080000D01*
X69420000Y-89080000D02*
X69800000Y-89080000D01*
X71980000Y-86520000D02*
X71600000Y-86520000D01*
X69420000Y-86520000D02*
X69800000Y-86520000D01*
X71980000Y-89080000D02*
X71980000Y-88700000D01*
X69420000Y-89080000D02*
X69420000Y-88700000D01*
X71980000Y-86520000D02*
X71980000Y-86900000D01*
X69420000Y-86520000D02*
X69420000Y-86900000D01*
D15*
X71570000Y-89790000D02*
G75*
G03*
X71570000Y-89790000I-50000J0D01*
G01*
D14*
X72420000Y-30920000D02*
X72800000Y-30920000D01*
X74980000Y-30920000D02*
X74600000Y-30920000D01*
X72420000Y-33480000D02*
X72800000Y-33480000D01*
X74980000Y-33480000D02*
X74600000Y-33480000D01*
X72420000Y-30920000D02*
X72420000Y-31300000D01*
X74980000Y-30920000D02*
X74980000Y-31300000D01*
X72420000Y-33480000D02*
X72420000Y-33100000D01*
X74980000Y-33480000D02*
X74980000Y-33100000D01*
D15*
X72930000Y-30210000D02*
G75*
G03*
X72930000Y-30210000I-50000J0D01*
G01*
D13*
X49177500Y-68745276D02*
X49177500Y-69254724D01*
X50222500Y-68745276D02*
X50222500Y-69254724D01*
X59254724Y-80277500D02*
X58745276Y-80277500D01*
X59254724Y-81322500D02*
X58745276Y-81322500D01*
X56077500Y-78445276D02*
X56077500Y-78954724D01*
X57122500Y-78445276D02*
X57122500Y-78954724D01*
X52254724Y-76377500D02*
X51745276Y-76377500D01*
X52254724Y-77422500D02*
X51745276Y-77422500D01*
X49077500Y-74445276D02*
X49077500Y-74954724D01*
X50122500Y-74445276D02*
X50122500Y-74954724D01*
X74754724Y-66277500D02*
X74245276Y-66277500D01*
X74754724Y-67322500D02*
X74245276Y-67322500D01*
X71577500Y-64445276D02*
X71577500Y-64954724D01*
X72622500Y-64445276D02*
X72622500Y-64954724D01*
X51445276Y-67122500D02*
X51954724Y-67122500D01*
X51445276Y-66077500D02*
X51954724Y-66077500D01*
X59254724Y-75977500D02*
X58745276Y-75977500D01*
X59254724Y-77022500D02*
X58745276Y-77022500D01*
X60877500Y-78145276D02*
X60877500Y-78654724D01*
X61922500Y-78145276D02*
X61922500Y-78654724D01*
X52254724Y-72077500D02*
X51745276Y-72077500D01*
X52254724Y-73122500D02*
X51745276Y-73122500D01*
X53877500Y-74445276D02*
X53877500Y-74954724D01*
X54922500Y-74445276D02*
X54922500Y-74954724D01*
X74838748Y-89135000D02*
X75361252Y-89135000D01*
X74838748Y-87665000D02*
X75361252Y-87665000D01*
X74754724Y-62922500D02*
X74245276Y-62922500D01*
X74754724Y-61877500D02*
X74245276Y-61877500D01*
X77422500Y-64445276D02*
X77422500Y-64954724D01*
X76377500Y-64445276D02*
X76377500Y-64954724D01*
X66022500Y-95945276D02*
X66022500Y-96454724D01*
X64977500Y-95945276D02*
X64977500Y-96454724D01*
X64522500Y-95945276D02*
X64522500Y-96454724D01*
X63477500Y-95945276D02*
X63477500Y-96454724D01*
X67522500Y-95945276D02*
X67522500Y-96454724D01*
X66477500Y-95945276D02*
X66477500Y-96454724D01*
X69022500Y-95932776D02*
X69022500Y-96442224D01*
X67977500Y-95932776D02*
X67977500Y-96442224D01*
X67272500Y-102245276D02*
X67272500Y-102754724D01*
X66227500Y-102245276D02*
X66227500Y-102754724D01*
X66227500Y-107254724D02*
X66227500Y-106745276D01*
X67272500Y-107254724D02*
X67272500Y-106745276D01*
X65272500Y-102245276D02*
X65272500Y-102754724D01*
X64227500Y-102245276D02*
X64227500Y-102754724D01*
X64227500Y-107254724D02*
X64227500Y-106745276D01*
X65272500Y-107254724D02*
X65272500Y-106745276D01*
X63272500Y-102245276D02*
X63272500Y-102754724D01*
X62227500Y-102245276D02*
X62227500Y-102754724D01*
X62227500Y-107254724D02*
X62227500Y-106745276D01*
X63272500Y-107254724D02*
X63272500Y-106745276D01*
X61272500Y-102245276D02*
X61272500Y-102754724D01*
X60227500Y-102245276D02*
X60227500Y-102754724D01*
X60227500Y-107254724D02*
X60227500Y-106745276D01*
X61272500Y-107254724D02*
X61272500Y-106745276D01*
X59272500Y-102245276D02*
X59272500Y-102754724D01*
X58227500Y-102245276D02*
X58227500Y-102754724D01*
X58227500Y-107254724D02*
X58227500Y-106745276D01*
X59272500Y-107254724D02*
X59272500Y-106745276D01*
X57272500Y-102245276D02*
X57272500Y-102754724D01*
X56227500Y-102245276D02*
X56227500Y-102754724D01*
X56227500Y-107254724D02*
X56227500Y-106745276D01*
X57272500Y-107254724D02*
X57272500Y-106745276D01*
X40697500Y-92759724D02*
X40697500Y-92250276D01*
X41742500Y-92759724D02*
X41742500Y-92250276D01*
X44232500Y-99994724D02*
X44232500Y-99485276D01*
X45277500Y-99994724D02*
X45277500Y-99485276D01*
X45942500Y-99994724D02*
X45942500Y-99485276D01*
X46987500Y-99994724D02*
X46987500Y-99485276D01*
X38707500Y-92744724D02*
X38707500Y-92235276D01*
X39752500Y-92744724D02*
X39752500Y-92235276D01*
X47707500Y-99989724D02*
X47707500Y-99480276D01*
X48752500Y-99989724D02*
X48752500Y-99480276D01*
X44232500Y-103294724D02*
X44232500Y-102785276D01*
X45277500Y-103294724D02*
X45277500Y-102785276D01*
X45942500Y-103299724D02*
X45942500Y-102790276D01*
X46987500Y-103299724D02*
X46987500Y-102790276D01*
X38707500Y-96049724D02*
X38707500Y-95540276D01*
X39752500Y-96049724D02*
X39752500Y-95540276D01*
X47707500Y-103294724D02*
X47707500Y-102785276D01*
X48752500Y-103294724D02*
X48752500Y-102785276D01*
X40697500Y-96059724D02*
X40697500Y-95550276D01*
X41742500Y-96059724D02*
X41742500Y-95550276D01*
X44232500Y-106594724D02*
X44232500Y-106085276D01*
X45277500Y-106594724D02*
X45277500Y-106085276D01*
X40697500Y-99359724D02*
X40697500Y-98850276D01*
X41742500Y-99359724D02*
X41742500Y-98850276D01*
X45942500Y-106599724D02*
X45942500Y-106090276D01*
X46987500Y-106599724D02*
X46987500Y-106090276D01*
X38707500Y-99349724D02*
X38707500Y-98840276D01*
X39752500Y-99349724D02*
X39752500Y-98840276D01*
X47707500Y-106599724D02*
X47707500Y-106090276D01*
X48752500Y-106599724D02*
X48752500Y-106090276D01*
X36707500Y-92754724D02*
X36707500Y-92245276D01*
X37752500Y-92754724D02*
X37752500Y-92245276D01*
X34717500Y-92754724D02*
X34717500Y-92245276D01*
X35762500Y-92754724D02*
X35762500Y-92245276D01*
X36707500Y-96052224D02*
X36707500Y-95542776D01*
X37752500Y-96052224D02*
X37752500Y-95542776D01*
X25467500Y-103299724D02*
X25467500Y-102790276D01*
X26512500Y-103299724D02*
X26512500Y-102790276D01*
X34717500Y-96054724D02*
X34717500Y-95545276D01*
X35762500Y-96054724D02*
X35762500Y-95545276D01*
X27267500Y-103304724D02*
X27267500Y-102795276D01*
X28312500Y-103304724D02*
X28312500Y-102795276D01*
X32707500Y-96054724D02*
X32707500Y-95545276D01*
X33752500Y-96054724D02*
X33752500Y-95545276D01*
X29027500Y-103304724D02*
X29027500Y-102795276D01*
X30072500Y-103304724D02*
X30072500Y-102795276D01*
X36707500Y-99354724D02*
X36707500Y-98845276D01*
X37752500Y-99354724D02*
X37752500Y-98845276D01*
X25467500Y-106604724D02*
X25467500Y-106095276D01*
X26512500Y-106604724D02*
X26512500Y-106095276D01*
X34712500Y-99359724D02*
X34712500Y-98850276D01*
X35757500Y-99359724D02*
X35757500Y-98850276D01*
X27262500Y-106604724D02*
X27262500Y-106095276D01*
X28307500Y-106604724D02*
X28307500Y-106095276D01*
X32707500Y-99354724D02*
X32707500Y-98845276D01*
X33752500Y-99354724D02*
X33752500Y-98845276D01*
X29027500Y-106604724D02*
X29027500Y-106095276D01*
X30072500Y-106604724D02*
X30072500Y-106095276D01*
X32454724Y-42222500D02*
X31945276Y-42222500D01*
X32454724Y-41177500D02*
X31945276Y-41177500D01*
X61254724Y-44272500D02*
X60745276Y-44272500D01*
X61254724Y-43227500D02*
X60745276Y-43227500D01*
X38545276Y-42677500D02*
X39054724Y-42677500D01*
X38545276Y-43722500D02*
X39054724Y-43722500D01*
X39054724Y-42222500D02*
X38545276Y-42222500D01*
X39054724Y-41177500D02*
X38545276Y-41177500D01*
X32454724Y-43722500D02*
X31945276Y-43722500D01*
X32454724Y-42677500D02*
X31945276Y-42677500D01*
X21665000Y-58361252D02*
X21665000Y-57838748D01*
X23135000Y-58361252D02*
X23135000Y-57838748D01*
X25865000Y-58361252D02*
X25865000Y-57838748D01*
X27335000Y-58361252D02*
X27335000Y-57838748D01*
X55535000Y-103338748D02*
X55535000Y-103861252D01*
X54065000Y-103338748D02*
X54065000Y-103861252D01*
X53534990Y-98095543D02*
X53904457Y-98465010D01*
X52495543Y-99134990D02*
X52865010Y-99504457D01*
X69761252Y-31935000D02*
X69238748Y-31935000D01*
X69761252Y-30465000D02*
X69238748Y-30465000D01*
X71165000Y-71361252D02*
X71165000Y-70838748D01*
X72635000Y-71361252D02*
X72635000Y-70838748D01*
X56738748Y-48015000D02*
X57261252Y-48015000D01*
X56738748Y-49485000D02*
X57261252Y-49485000D01*
X28361252Y-64710000D02*
X27838748Y-64710000D01*
X28361252Y-63240000D02*
X27838748Y-63240000D01*
X28361252Y-67035000D02*
X27838748Y-67035000D01*
X28361252Y-65565000D02*
X27838748Y-65565000D01*
D12*
X73525000Y-78425000D02*
X73350000Y-78425000D01*
X73525000Y-75175000D02*
X73250000Y-75175000D01*
X70275000Y-75175000D02*
X70550000Y-75175000D01*
X70275000Y-78425000D02*
X70550000Y-78425000D01*
X73525000Y-78425000D02*
X73525000Y-75175000D01*
X70275000Y-78425000D02*
X70275000Y-75175000D01*
X73350000Y-78425000D02*
X73350000Y-79500000D01*
D13*
X61760000Y-44920000D02*
X60300000Y-44920000D01*
X61760000Y-48080000D02*
X59600000Y-48080000D01*
X61760000Y-48080000D02*
X61760000Y-47150000D01*
X61760000Y-44920000D02*
X61760000Y-45850000D01*
D12*
X48817930Y-92366206D02*
X47686559Y-91234835D01*
X54775305Y-86408831D02*
X58841169Y-90474695D01*
X48658831Y-92525305D02*
X52724695Y-96591169D01*
X54775305Y-86408831D02*
X54563173Y-86620963D01*
X58841169Y-90474695D02*
X58629037Y-90686827D01*
X52724695Y-96591169D02*
X52936827Y-96379037D01*
X48658831Y-92525305D02*
X48817930Y-92366206D01*
D13*
X55250000Y-42440000D02*
X58700000Y-42440000D01*
X55250000Y-42440000D02*
X53300000Y-42440000D01*
X55250000Y-47560000D02*
X57200000Y-47560000D01*
X55250000Y-47560000D02*
X53300000Y-47560000D01*
X26555000Y-68380000D02*
X26555000Y-68000000D01*
X20135000Y-68380000D02*
X26555000Y-68380000D01*
X20135000Y-86620000D02*
X26555000Y-86620000D01*
X20135000Y-68380000D02*
X20135000Y-86620000D01*
X45880000Y-86620000D02*
X45880000Y-85620000D01*
X45100000Y-86620000D02*
X45880000Y-86620000D01*
X45880000Y-68380000D02*
X45880000Y-69380000D01*
X45100000Y-68380000D02*
X45880000Y-68380000D01*
D12*
X56562706Y-40737294D02*
X54562706Y-40737294D01*
X56562706Y-37137294D02*
X54562706Y-37137294D01*
D16*
X72539285Y-87121428D02*
X73146428Y-87121428D01*
X73217857Y-87157142D01*
X73253571Y-87192857D01*
X73289285Y-87264285D01*
X73289285Y-87407142D01*
X73253571Y-87478571D01*
X73217857Y-87514285D01*
X73146428Y-87550000D01*
X72539285Y-87550000D01*
X73289285Y-88300000D02*
X73289285Y-87871428D01*
X73289285Y-88085714D02*
X72539285Y-88085714D01*
X72646428Y-88014285D01*
X72717857Y-87942857D01*
X72753571Y-87871428D01*
X72539285Y-88550000D02*
X72539285Y-89014285D01*
X72825000Y-88764285D01*
X72825000Y-88871428D01*
X72860714Y-88942857D01*
X72896428Y-88978571D01*
X72967857Y-89014285D01*
X73146428Y-89014285D01*
X73217857Y-88978571D01*
X73253571Y-88942857D01*
X73289285Y-88871428D01*
X73289285Y-88657142D01*
X73253571Y-88585714D01*
X73217857Y-88550000D01*
X71039285Y-31378571D02*
X71646428Y-31378571D01*
X71717857Y-31414285D01*
X71753571Y-31450000D01*
X71789285Y-31521428D01*
X71789285Y-31664285D01*
X71753571Y-31735714D01*
X71717857Y-31771428D01*
X71646428Y-31807142D01*
X71039285Y-31807142D01*
X71360714Y-32271428D02*
X71325000Y-32200000D01*
X71289285Y-32164285D01*
X71217857Y-32128571D01*
X71182142Y-32128571D01*
X71110714Y-32164285D01*
X71075000Y-32200000D01*
X71039285Y-32271428D01*
X71039285Y-32414285D01*
X71075000Y-32485714D01*
X71110714Y-32521428D01*
X71182142Y-32557142D01*
X71217857Y-32557142D01*
X71289285Y-32521428D01*
X71325000Y-32485714D01*
X71360714Y-32414285D01*
X71360714Y-32271428D01*
X71396428Y-32200000D01*
X71432142Y-32164285D01*
X71503571Y-32128571D01*
X71646428Y-32128571D01*
X71717857Y-32164285D01*
X71753571Y-32200000D01*
X71789285Y-32271428D01*
X71789285Y-32414285D01*
X71753571Y-32485714D01*
X71717857Y-32521428D01*
X71646428Y-32557142D01*
X71503571Y-32557142D01*
X71432142Y-32521428D01*
X71396428Y-32485714D01*
X71360714Y-32414285D01*
M02*
