M48
; DRILL file {KiCad (5.1.8)-1} date 12/20/20 23:48:22
; FORMAT={-:-/ absolute / inch / decimal}
; #@! TF.CreationDate,2020-12-20T23:48:22-05:00
; #@! TF.GenerationSoftware,Kicad,Pcbnew,(5.1.8)-1
FMAT,2
INCH
T1C0.0079
T2C0.0118
T3C0.0157
T4C0.0256
T5C0.1083
T6C0.0248
T7C0.0354
T8C0.0394
T9C0.0787
%
G90
G05
T1
X0.878Y-2.5197
X0.878Y-2.5472
X0.8819Y-2.3819
X0.8858Y-4.0787
X0.8858Y-4.1063
X0.8976Y-3.4961
X0.9055Y-2.5197
X0.9055Y-2.5472
X0.9134Y-4.0787
X0.9134Y-4.1063
X0.9291Y-2.7717
X0.9331Y-2.5197
X0.9331Y-2.5472
X0.9409Y-4.0787
X0.9409Y-4.1063
X0.9449Y-1.2559
X0.9449Y-1.2835
X0.9449Y-1.311
X0.9449Y-1.3386
X0.9449Y-1.3661
X0.9449Y-1.3976
X0.9449Y-1.4252
X0.9449Y-1.4528
X0.9449Y-1.4803
X0.9449Y-1.5079
X0.9606Y-2.5197
X0.9606Y-2.5472
X0.9606Y-2.7717
X0.9685Y-4.0787
X0.9685Y-4.1063
X0.9882Y-2.5197
X0.9882Y-2.5472
X0.9921Y-2.7717
X1.0108Y-2.6378
X1.0157Y-2.5197
X1.0157Y-2.5472
X1.0394Y-2.689
X1.0394Y-2.7165
X1.0394Y-2.7441
X1.0394Y-3.8583
X1.0472Y-2.3819
X1.0906Y-3.4488
X1.0906Y-3.9724
X1.1339Y-3.7323
X1.1417Y-3.2559
X1.1417Y-3.3274
X1.1758Y-2.3504
X1.1811Y-2.126
X1.1811Y-2.1535
X1.1811Y-2.1811
X1.189Y-1.4291
X1.189Y-1.8307
X1.189Y-1.8622
X1.1909Y-2.8839
X1.1909Y-2.9134
X1.1929Y-1.2047
X1.1929Y-2.4685
X1.1935Y-2.3116
X1.1969Y-1.7283
X1.2047Y-2.7795
X1.2047Y-2.8268
X1.2087Y-2.126
X1.2087Y-2.1535
X1.2087Y-2.1811
X1.2126Y-2.0827
X1.2193Y-2.0264
X1.2205Y-1.8307
X1.2205Y-1.8622
X1.2303Y-3.9764
X1.2311Y-2.5394
X1.2441Y-2.0748
X1.248Y-2.1102
X1.2598Y-1.0433
X1.2598Y-3.9449
X1.2638Y-1.2047
X1.2913Y-1.0433
X1.3071Y-1.5
X1.3071Y-3.0709
X1.3071Y-3.0984
X1.3091Y-3.9764
X1.3091Y-4.2717
X1.3307Y-1.0433
X1.3324Y-1.8403
X1.3346Y-3.0709
X1.3346Y-3.0984
X1.3504Y-1.1969
X1.3622Y-1.0433
X1.3622Y-3.0709
X1.3622Y-3.0984
X1.3661Y-1.7677
X1.3878Y-3.9764
X1.3878Y-4.2717
X1.3898Y-3.0709
X1.3898Y-3.0984
X1.3976Y-1.7717
X1.4173Y-3.0709
X1.4173Y-3.0984
X1.437Y-1.7638
X1.4449Y-3.0709
X1.4449Y-3.0984
X1.4469Y-2.5984
X1.4544Y-3.9712
X1.4646Y-1.8828
X1.4665Y-4.2717
X1.4724Y-3.0709
X1.4724Y-3.0984
X1.4764Y-1.8189
X1.4764Y-2.5984
X1.4994Y-1.8431
X1.5002Y-2.1378
X1.5039Y-1.2717
X1.5039Y-1.2992
X1.5039Y-1.3268
X1.5116Y-1.9016
X1.5315Y-1.2717
X1.5315Y-1.2992
X1.5315Y-1.3268
X1.5394Y-3.2441
X1.5433Y-3.3268
X1.5453Y-3.9764
X1.5453Y-4.2717
X1.5557Y-2.1378
X1.5591Y-1.2717
X1.5591Y-1.2992
X1.5591Y-1.3268
X1.563Y-2.7992
X1.563Y-3.2677
X1.5669Y-2.0827
X1.5866Y-1.2717
X1.5866Y-1.2992
X1.5866Y-1.3268
X1.6142Y-1.2717
X1.6142Y-1.2992
X1.6142Y-1.3268
X1.6142Y-1.7008
X1.6235Y-2.4311
X1.624Y-2.375
X1.624Y-3.2667
X1.624Y-3.3199
X1.624Y-3.9764
X1.624Y-4.2717
X1.626Y-2.5945
X1.6339Y-2.8219
X1.6339Y-2.875
X1.6831Y-3.7179
X1.6831Y-3.7624
X1.6929Y-3.4622
X1.7028Y-4.2717
X1.7126Y-3.501
X1.7323Y-1.7283
X1.7677Y-2.6417
X1.8307Y-3.3661
X1.8325Y-3.6337
X1.8406Y-2.4705
X1.8461Y-3.6848
X1.8465Y-2.7205
X1.8504Y-2.8031
X1.8504Y-3.2953
X1.8583Y-2.9213
X1.8701Y-2.4173
X1.8701Y-3.0906
X1.874Y-2.5
X1.874Y-2.8661
X1.874Y-2.8937
X1.878Y-2.9567
X1.878Y-3.2089
X1.8786Y-2.7874
X1.8819Y-3.3642
X1.8858Y-2.9291
X1.8937Y-3.6417
X1.8971Y-2.7525
X1.8976Y-3.0591
X1.9016Y-3.0301
X1.9055Y-3.2087
X1.937Y-4.2165
X1.937Y-4.2441
X1.9409Y-2.622
X1.9488Y-3.1417
X1.9488Y-3.4154
X1.9646Y-4.2165
X1.9646Y-4.2441
X1.9705Y-3.1181
X1.9862Y-1.9882
X1.9921Y-4.2165
X1.9921Y-4.2441
X2.0Y-1.8071
X2.002Y-1.9646
X2.0197Y-4.1181
X2.0197Y-4.2165
X2.0197Y-4.2441
X2.0276Y-3.122
X2.0276Y-3.9094
X2.0315Y-1.9213
X2.0315Y-2.0276
X2.0433Y-1.9488
X2.0472Y-4.1181
X2.0472Y-4.2165
X2.0472Y-4.2441
X2.0644Y-3.5801
X2.0748Y-4.1181
X2.0748Y-4.2165
X2.0748Y-4.2441
X2.0866Y-2.1299
X2.1024Y-4.1181
X2.1024Y-4.2165
X2.1024Y-4.2441
X2.1063Y-4.0394
X2.115Y-3.0997
X2.122Y-1.8661
X2.1299Y-1.9409
X2.1299Y-2.25
X2.1299Y-3.1299
X2.1299Y-4.2165
X2.1299Y-4.2441
X2.1339Y-1.3858
X2.1339Y-3.0787
X2.1347Y-2.0149
X2.1417Y-3.4748
X2.1457Y-2.6437
X2.1575Y-4.2165
X2.1575Y-4.2441
X2.1591Y-3.1299
X2.1654Y-2.1299
X2.185Y-2.0354
X2.1929Y-3.4748
X2.1984Y-2.4528
X2.2008Y-2.1299
X2.2047Y-2.8937
X2.2067Y-2.0787
X2.2106Y-1.6732
X2.2126Y-1.7402
X2.2126Y-2.4882
X2.2126Y-2.8189
X2.2126Y-3.3976
X2.2283Y-1.3858
X2.2343Y-3.9577
X2.2343Y-4.2815
X2.2362Y-2.7953
X2.248Y-2.0512
X2.248Y-3.7677
X2.2598Y-3.4803
X2.2756Y-2.1417
X2.2756Y-3.7677
X2.2933Y-2.3789
X2.2933Y-2.4321
X2.2933Y-2.8238
X2.2933Y-2.877
X2.2992Y-3.2687
X2.2992Y-3.3238
X2.3031Y-3.7126
X2.3071Y-2.1417
X2.313Y-3.9567
X2.313Y-4.2815
X2.315Y-3.4736
X2.3297Y-3.7008
X2.3307Y-1.6732
X2.3327Y-3.7667
X2.3346Y-1.9173
X2.3346Y-1.9449
X2.3827Y-3.5219
X2.3858Y-2.6535
X2.3917Y-3.9567
X2.3917Y-4.2815
X2.4166Y-3.5558
X2.4252Y-3.5866
X2.4377Y-3.5347
X2.4409Y-2.5984
X2.4606Y-3.0748
X2.4606Y-3.4177
X2.4606Y-3.4744
X2.4705Y-3.9567
X2.4705Y-4.2815
X2.4764Y-2.9764
X2.4843Y-1.8307
X2.4862Y-1.7224
X2.4941Y-3.5768
X2.4961Y-3.4094
X2.497Y-2.4705
X2.5Y-2.9134
X2.5039Y-3.3459
X2.5039Y-3.3819
X2.5197Y-2.3858
X2.5197Y-2.5818
X2.5207Y-3.6132
X2.5217Y-2.3504
X2.5236Y-1.0748
X2.5276Y-2.937
X2.5285Y-3.2579
X2.5394Y-3.0472
X2.5472Y-2.5818
X2.5492Y-3.9567
X2.5492Y-4.2815
X2.5669Y-3.4409
X2.57Y-2.9812
X2.5787Y-3.4154
X2.5906Y-1.0748
X2.6083Y-2.5295
X2.6142Y-3.563
X2.6201Y-2.9638
X2.628Y-3.9567
X2.628Y-4.2815
X2.6299Y-2.5669
X2.6339Y-3.437
X2.6378Y-3.8559
X2.6575Y-1.0748
X2.6693Y-3.0236
X2.6693Y-3.4646
X2.6772Y-3.8701
X2.6892Y-3.0028
X2.6965Y-3.8433
X2.6969Y-3.4409
X2.7008Y-2.5669
X2.7126Y-3.122
X2.7203Y-3.5628
X2.7244Y-1.0748
X2.7315Y-3.8693
X2.7362Y-1.2283
X2.7441Y-3.5394
X2.75Y-1.3071
X2.752Y-4.0276
X2.7521Y-3.1262
X2.7555Y-4.2417
X2.7571Y-3.5718
X2.7597Y-1.5057
X2.7618Y-1.4744
X2.7638Y-3.9449
X2.7673Y-1.3543
X2.7677Y-2.6575
X2.7756Y-3.5512
X2.7835Y-3.4567
X2.7913Y-1.0748
X2.7953Y-3.9449
X2.7953Y-4.2421
X2.7992Y-3.0
X2.8031Y-1.2874
X2.8169Y-1.2067
X2.8189Y-1.2598
X2.8228Y-3.7283
X2.826Y-3.7575
X2.8268Y-3.0
X2.8307Y-3.3307
X2.8346Y-3.937
X2.8386Y-3.3622
X2.8409Y-3.6709
X2.8492Y-1.4677
X2.8543Y-3.0
X2.8583Y-1.0748
X2.8622Y-3.1496
X2.8622Y-3.9213
X2.8661Y-2.8031
X2.8661Y-3.2323
X2.8661Y-3.3031
X2.8701Y-1.4921
X2.8701Y-3.4331
X2.8701Y-3.6709
X2.8898Y-3.6992
X2.8937Y-1.4331
X2.9035Y-1.2677
X2.9035Y-1.4764
X2.9094Y-3.4331
X2.9094Y-3.7402
X2.9252Y-1.0748
X2.9291Y-4.1535
X2.9291Y-4.1811
X2.9291Y-4.2087
X2.9409Y-3.7323
X2.9425Y-3.5276
X2.9425Y-3.5591
X2.9429Y-3.7632
X2.9528Y-2.8346
X2.9567Y-4.1535
X2.9567Y-4.1811
X2.9567Y-4.2087
X2.9646Y-3.7047
X2.9764Y-2.4094
X2.9764Y-2.8583
X2.9803Y-3.874
X2.9843Y-2.6811
X2.9843Y-3.5276
X2.9843Y-4.1535
X2.9843Y-4.1811
X3.0079Y-3.874
X3.0354Y-3.4567
X3.0354Y-3.874
X3.0394Y-3.0394
X3.063Y-3.9685
X3.0669Y-2.6811
X3.0709Y-2.5276
X3.0807Y-3.5728
X3.0807Y-3.7402
X3.0906Y-3.0394
T2
X1.2146Y-1.2835
X1.2146Y-1.3228
X1.2441Y-1.3031
X1.2736Y-1.2835
X1.2736Y-1.3228
T3
X0.9365Y-3.4946
X0.9537Y-3.3705
T5
X1.5591Y-1.4528
X1.8425Y-1.4528
X2.4843Y-1.252
X2.4843Y-1.5354
T6
X1.0197Y-1.8858
X1.0197Y-2.122
T8
X1.0154Y-2.8622
X1.0154Y-3.2559
X1.2677Y-4.1264
X1.6614Y-4.1264
X2.2795Y-4.1264
X2.6732Y-4.1264
T9
X3.0709Y-4.252
X0.8661Y-0.8661
X3.0709Y-0.8661
X0.8661Y-4.252
T4
G00X0.9232Y-1.8339
M15
G01X0.872Y-1.8339
M16
G05
G00X0.9232Y-2.174
M15
G01X0.872Y-2.174
M16
G05
G00X1.0679Y-1.8339
M15
G01X1.0285Y-1.8339
M16
G05
G00X1.0679Y-2.174
M15
G01X1.0285Y-2.174
M16
G05
T7
G00X1.435Y-1.2343
M15
G01X1.435Y-1.1988
M16
G05
G00X1.9665Y-1.2343
M15
G01X1.9665Y-1.1988
M16
G05
G00X2.7028Y-1.128
M15
G01X2.7382Y-1.128
M16
G05
G00X2.7028Y-1.6594
M15
G01X2.7382Y-1.6594
M16
G05
T0
M30
