G04 #@! TF.GenerationSoftware,KiCad,Pcbnew,(5.1.4)-1*
G04 #@! TF.CreationDate,2020-08-09T13:17:19-04:00*
G04 #@! TF.ProjectId,uBMS-2,75424d53-2d32-42e6-9b69-6361645f7063,rev?*
G04 #@! TF.SameCoordinates,Original*
G04 #@! TF.FileFunction,Legend,Bot*
G04 #@! TF.FilePolarity,Positive*
%FSLAX46Y46*%
G04 Gerber Fmt 4.6, Leading zero omitted, Abs format (unit mm)*
G04 Created by KiCad (PCBNEW (5.1.4)-1) date 2020-08-09 13:17:19*
%MOMM*%
%LPD*%
G04 APERTURE LIST*
%ADD10C,0.150000*%
%ADD11C,0.010000*%
%ADD12C,0.120000*%
%ADD13C,0.152400*%
G04 APERTURE END LIST*
D10*
X46226190Y-102202380D02*
X45892857Y-103202380D01*
X45559523Y-102202380D01*
X45083333Y-103202380D02*
X45178571Y-103154761D01*
X45226190Y-103107142D01*
X45273809Y-103011904D01*
X45273809Y-102726190D01*
X45226190Y-102630952D01*
X45178571Y-102583333D01*
X45083333Y-102535714D01*
X44940476Y-102535714D01*
X44845238Y-102583333D01*
X44797619Y-102630952D01*
X44750000Y-102726190D01*
X44750000Y-103011904D01*
X44797619Y-103107142D01*
X44845238Y-103154761D01*
X44940476Y-103202380D01*
X45083333Y-103202380D01*
X44178571Y-103202380D02*
X44273809Y-103154761D01*
X44321428Y-103059523D01*
X44321428Y-102202380D01*
X43940476Y-102535714D02*
X43559523Y-102535714D01*
X43797619Y-102202380D02*
X43797619Y-103059523D01*
X43750000Y-103154761D01*
X43654761Y-103202380D01*
X43559523Y-103202380D01*
X42797619Y-103202380D02*
X42797619Y-102678571D01*
X42845238Y-102583333D01*
X42940476Y-102535714D01*
X43130952Y-102535714D01*
X43226190Y-102583333D01*
X42797619Y-103154761D02*
X42892857Y-103202380D01*
X43130952Y-103202380D01*
X43226190Y-103154761D01*
X43273809Y-103059523D01*
X43273809Y-102964285D01*
X43226190Y-102869047D01*
X43130952Y-102821428D01*
X42892857Y-102821428D01*
X42797619Y-102773809D01*
X41892857Y-102535714D02*
X41892857Y-103345238D01*
X41940476Y-103440476D01*
X41988095Y-103488095D01*
X42083333Y-103535714D01*
X42226190Y-103535714D01*
X42321428Y-103488095D01*
X41892857Y-103154761D02*
X41988095Y-103202380D01*
X42178571Y-103202380D01*
X42273809Y-103154761D01*
X42321428Y-103107142D01*
X42369047Y-103011904D01*
X42369047Y-102726190D01*
X42321428Y-102630952D01*
X42273809Y-102583333D01*
X42178571Y-102535714D01*
X41988095Y-102535714D01*
X41892857Y-102583333D01*
X41035714Y-103154761D02*
X41130952Y-103202380D01*
X41321428Y-103202380D01*
X41416666Y-103154761D01*
X41464285Y-103059523D01*
X41464285Y-102678571D01*
X41416666Y-102583333D01*
X41321428Y-102535714D01*
X41130952Y-102535714D01*
X41035714Y-102583333D01*
X40988095Y-102678571D01*
X40988095Y-102773809D01*
X41464285Y-102869047D01*
X39797619Y-103202380D02*
X39797619Y-102202380D01*
X39464285Y-102916666D01*
X39130952Y-102202380D01*
X39130952Y-103202380D01*
X38226190Y-102535714D02*
X38226190Y-103202380D01*
X38654761Y-102535714D02*
X38654761Y-103059523D01*
X38607142Y-103154761D01*
X38511904Y-103202380D01*
X38369047Y-103202380D01*
X38273809Y-103154761D01*
X38226190Y-103107142D01*
X37845238Y-103202380D02*
X37321428Y-102535714D01*
X37845238Y-102535714D02*
X37321428Y-103202380D01*
X68392857Y-84202380D02*
X67821428Y-84202380D01*
X68107142Y-85202380D02*
X68107142Y-84202380D01*
X67107142Y-85154761D02*
X67202380Y-85202380D01*
X67392857Y-85202380D01*
X67488095Y-85154761D01*
X67535714Y-85059523D01*
X67535714Y-84678571D01*
X67488095Y-84583333D01*
X67392857Y-84535714D01*
X67202380Y-84535714D01*
X67107142Y-84583333D01*
X67059523Y-84678571D01*
X67059523Y-84773809D01*
X67535714Y-84869047D01*
X66630952Y-85202380D02*
X66630952Y-84535714D01*
X66630952Y-84630952D02*
X66583333Y-84583333D01*
X66488095Y-84535714D01*
X66345238Y-84535714D01*
X66250000Y-84583333D01*
X66202380Y-84678571D01*
X66202380Y-85202380D01*
X66202380Y-84678571D02*
X66154761Y-84583333D01*
X66059523Y-84535714D01*
X65916666Y-84535714D01*
X65821428Y-84583333D01*
X65773809Y-84678571D01*
X65773809Y-85202380D01*
X65297619Y-84535714D02*
X65297619Y-85535714D01*
X65297619Y-84583333D02*
X65202380Y-84535714D01*
X65011904Y-84535714D01*
X64916666Y-84583333D01*
X64869047Y-84630952D01*
X64821428Y-84726190D01*
X64821428Y-85011904D01*
X64869047Y-85107142D01*
X64916666Y-85154761D01*
X65011904Y-85202380D01*
X65202380Y-85202380D01*
X65297619Y-85154761D01*
X63630952Y-85202380D02*
X63630952Y-84202380D01*
X63297619Y-84916666D01*
X62964285Y-84202380D01*
X62964285Y-85202380D01*
X62059523Y-84535714D02*
X62059523Y-85202380D01*
X62488095Y-84535714D02*
X62488095Y-85059523D01*
X62440476Y-85154761D01*
X62345238Y-85202380D01*
X62202380Y-85202380D01*
X62107142Y-85154761D01*
X62059523Y-85107142D01*
X61678571Y-85202380D02*
X61154761Y-84535714D01*
X61678571Y-84535714D02*
X61154761Y-85202380D01*
X50032881Y-40555469D02*
X50100224Y-40555469D01*
X50234911Y-40488125D01*
X50302255Y-40420782D01*
X50369598Y-40286095D01*
X50369598Y-40151408D01*
X50335926Y-40050392D01*
X50234911Y-39882034D01*
X50133896Y-39781018D01*
X49965537Y-39680003D01*
X49864522Y-39646331D01*
X49729835Y-39646331D01*
X49595148Y-39713675D01*
X49527804Y-39781018D01*
X49460461Y-39915705D01*
X49460461Y-39983049D01*
X49022728Y-40757499D02*
X49494133Y-41228904D01*
X49325774Y-40454453D02*
X49696163Y-40824843D01*
X49729835Y-40925858D01*
X49696163Y-41026873D01*
X49595148Y-41127888D01*
X49494133Y-41161560D01*
X49426789Y-41161560D01*
X49157415Y-41565621D02*
X48686011Y-41094217D01*
X48820698Y-41228904D02*
X48719682Y-41195232D01*
X48652339Y-41195232D01*
X48551324Y-41228904D01*
X48483980Y-41296247D01*
X48719682Y-42003354D02*
X48248278Y-41531949D01*
X48382965Y-41666637D02*
X48281949Y-41632965D01*
X48214606Y-41632965D01*
X48113591Y-41666637D01*
X48046247Y-41733980D01*
X47978904Y-42676789D02*
X48079919Y-42643117D01*
X48214606Y-42508430D01*
X48248278Y-42407415D01*
X48214606Y-42306400D01*
X47945232Y-42037026D01*
X47844217Y-42003354D01*
X47743201Y-42037026D01*
X47608514Y-42171713D01*
X47574843Y-42272728D01*
X47608514Y-42373743D01*
X47675858Y-42441087D01*
X48079919Y-42171713D01*
X47204453Y-42575774D02*
X47675858Y-43047178D01*
X47271797Y-42643117D02*
X47204453Y-42643117D01*
X47103438Y-42676789D01*
X47002423Y-42777804D01*
X46968751Y-42878820D01*
X47002423Y-42979835D01*
X47372812Y-43350224D01*
X46665705Y-43114522D02*
X46396331Y-43383896D01*
X46328988Y-42979835D02*
X46935079Y-43585926D01*
X46968751Y-43686942D01*
X46935079Y-43787957D01*
X46867736Y-43855300D01*
X51283786Y-41705359D02*
X51216442Y-41840046D01*
X51048084Y-42008405D01*
X50947068Y-42042076D01*
X50879725Y-42042076D01*
X50778710Y-42008405D01*
X50711366Y-41941061D01*
X50677694Y-41840046D01*
X50677694Y-41772702D01*
X50711366Y-41671687D01*
X50812381Y-41503328D01*
X50846053Y-41402313D01*
X50846053Y-41334970D01*
X50812381Y-41233954D01*
X50745038Y-41166611D01*
X50644023Y-41132939D01*
X50576679Y-41132939D01*
X50475664Y-41166611D01*
X50307305Y-41334970D01*
X50239962Y-41469657D01*
X50307305Y-42681840D02*
X50408320Y-42648168D01*
X50543007Y-42513481D01*
X50576679Y-42412466D01*
X50543007Y-42311450D01*
X50273633Y-42042076D01*
X50172618Y-42008405D01*
X50071603Y-42042076D01*
X49936916Y-42176763D01*
X49903244Y-42277779D01*
X49936916Y-42378794D01*
X50004259Y-42446137D01*
X50408320Y-42176763D01*
X49532855Y-42580824D02*
X50004259Y-43052229D01*
X49600198Y-42648168D02*
X49532855Y-42648168D01*
X49431840Y-42681840D01*
X49330824Y-42782855D01*
X49297153Y-42883870D01*
X49330824Y-42984885D01*
X49701214Y-43355275D01*
X49364496Y-43624649D02*
X49330824Y-43725664D01*
X49196137Y-43860351D01*
X49095122Y-43894023D01*
X48994107Y-43860351D01*
X48960435Y-43826679D01*
X48926763Y-43725664D01*
X48960435Y-43624649D01*
X49061450Y-43523633D01*
X49095122Y-43422618D01*
X49061450Y-43321603D01*
X49027779Y-43287931D01*
X48926763Y-43254259D01*
X48825748Y-43287931D01*
X48724733Y-43388946D01*
X48691061Y-43489962D01*
X48489031Y-44500114D02*
X48590046Y-44466442D01*
X48724733Y-44331755D01*
X48758405Y-44230740D01*
X48724733Y-44129725D01*
X48455359Y-43860351D01*
X48354344Y-43826679D01*
X48253328Y-43860351D01*
X48118641Y-43995038D01*
X48084970Y-44096053D01*
X48118641Y-44197068D01*
X48185985Y-44264412D01*
X48590046Y-43995038D01*
X75238095Y-39166666D02*
X74761904Y-39166666D01*
X75333333Y-39452380D02*
X75000000Y-38452380D01*
X74666666Y-39452380D01*
X74333333Y-39452380D02*
X74333333Y-38452380D01*
X74095238Y-38452380D01*
X73952380Y-38500000D01*
X73857142Y-38595238D01*
X73809523Y-38690476D01*
X73761904Y-38880952D01*
X73761904Y-39023809D01*
X73809523Y-39214285D01*
X73857142Y-39309523D01*
X73952380Y-39404761D01*
X74095238Y-39452380D01*
X74333333Y-39452380D01*
X72761904Y-39357142D02*
X72809523Y-39404761D01*
X72952380Y-39452380D01*
X73047619Y-39452380D01*
X73190476Y-39404761D01*
X73285714Y-39309523D01*
X73333333Y-39214285D01*
X73380952Y-39023809D01*
X73380952Y-38880952D01*
X73333333Y-38690476D01*
X73285714Y-38595238D01*
X73190476Y-38500000D01*
X73047619Y-38452380D01*
X72952380Y-38452380D01*
X72809523Y-38500000D01*
X72761904Y-38547619D01*
X43285714Y-64357142D02*
X42619047Y-64357142D01*
X42333333Y-65404761D02*
X43285714Y-65404761D01*
X43285714Y-63404761D01*
X42333333Y-63404761D01*
X41571428Y-65309523D02*
X41285714Y-65404761D01*
X40809523Y-65404761D01*
X40619047Y-65309523D01*
X40523809Y-65214285D01*
X40428571Y-65023809D01*
X40428571Y-64833333D01*
X40523809Y-64642857D01*
X40619047Y-64547619D01*
X40809523Y-64452380D01*
X41190476Y-64357142D01*
X41380952Y-64261904D01*
X41476190Y-64166666D01*
X41571428Y-63976190D01*
X41571428Y-63785714D01*
X41476190Y-63595238D01*
X41380952Y-63500000D01*
X41190476Y-63404761D01*
X40714285Y-63404761D01*
X40428571Y-63500000D01*
X39571428Y-65404761D02*
X39571428Y-63404761D01*
X38809523Y-63404761D01*
X38619047Y-63500000D01*
X38523809Y-63595238D01*
X38428571Y-63785714D01*
X38428571Y-64071428D01*
X38523809Y-64261904D01*
X38619047Y-64357142D01*
X38809523Y-64452380D01*
X39571428Y-64452380D01*
X37761904Y-63404761D02*
X36523809Y-63404761D01*
X37190476Y-64166666D01*
X36904761Y-64166666D01*
X36714285Y-64261904D01*
X36619047Y-64357142D01*
X36523809Y-64547619D01*
X36523809Y-65023809D01*
X36619047Y-65214285D01*
X36714285Y-65309523D01*
X36904761Y-65404761D01*
X37476190Y-65404761D01*
X37666666Y-65309523D01*
X37761904Y-65214285D01*
X35761904Y-63595238D02*
X35666666Y-63500000D01*
X35476190Y-63404761D01*
X35000000Y-63404761D01*
X34809523Y-63500000D01*
X34714285Y-63595238D01*
X34619047Y-63785714D01*
X34619047Y-63976190D01*
X34714285Y-64261904D01*
X35857142Y-65404761D01*
X34619047Y-65404761D01*
D11*
G36*
X42833943Y-54433139D02*
G01*
X42778944Y-54434899D01*
X42738519Y-54437540D01*
X42717132Y-54440823D01*
X42714900Y-54442353D01*
X42725355Y-54453105D01*
X42751845Y-54469084D01*
X42768263Y-54477278D01*
X42807218Y-54500623D01*
X42839645Y-54528456D01*
X42846607Y-54536826D01*
X42856818Y-54556144D01*
X42875115Y-54596291D01*
X42900315Y-54654449D01*
X42931230Y-54727800D01*
X42966676Y-54813527D01*
X43005466Y-54908812D01*
X43046415Y-55010837D01*
X43052363Y-55025776D01*
X43099902Y-55144798D01*
X43139267Y-55242107D01*
X43171362Y-55319712D01*
X43197094Y-55379622D01*
X43217365Y-55423846D01*
X43233082Y-55454393D01*
X43245147Y-55473272D01*
X43254468Y-55482492D01*
X43258783Y-55484179D01*
X43266432Y-55483315D01*
X43274491Y-55476789D01*
X43283894Y-55462260D01*
X43295573Y-55437389D01*
X43310461Y-55399835D01*
X43329491Y-55347260D01*
X43353594Y-55277322D01*
X43383704Y-55187683D01*
X43417197Y-55086755D01*
X43449033Y-54990812D01*
X43478428Y-54902789D01*
X43504418Y-54825533D01*
X43526036Y-54761893D01*
X43542318Y-54714714D01*
X43552297Y-54686846D01*
X43555006Y-54680361D01*
X43560629Y-54690539D01*
X43574329Y-54721741D01*
X43595019Y-54771301D01*
X43621609Y-54836553D01*
X43653012Y-54914833D01*
X43688140Y-55003476D01*
X43718499Y-55080841D01*
X43763773Y-55195942D01*
X43801092Y-55288985D01*
X43831247Y-55361758D01*
X43855033Y-55416048D01*
X43873242Y-55453643D01*
X43886667Y-55476330D01*
X43896101Y-55485898D01*
X43898426Y-55486481D01*
X43919873Y-55481703D01*
X43925199Y-55477075D01*
X43930290Y-55463247D01*
X43942469Y-55428046D01*
X43960811Y-55374203D01*
X43984395Y-55304448D01*
X44012296Y-55221512D01*
X44043592Y-55128125D01*
X44077359Y-55027018D01*
X44078951Y-55022242D01*
X44113624Y-54919145D01*
X44146789Y-54822240D01*
X44177377Y-54734527D01*
X44204319Y-54659003D01*
X44226545Y-54598668D01*
X44242985Y-54556520D01*
X44252482Y-54535703D01*
X44281972Y-54502199D01*
X44319389Y-54477034D01*
X44321729Y-54476015D01*
X44350249Y-54462606D01*
X44362988Y-54452151D01*
X44358390Y-54444315D01*
X44334897Y-54438767D01*
X44290950Y-54435172D01*
X44224992Y-54433198D01*
X44135466Y-54432512D01*
X44118250Y-54432500D01*
X44042075Y-54433044D01*
X43975394Y-54434563D01*
X43922057Y-54436882D01*
X43885915Y-54439826D01*
X43870817Y-54443223D01*
X43870600Y-54443692D01*
X43881736Y-54453135D01*
X43909947Y-54464250D01*
X43927347Y-54469173D01*
X43973184Y-54487073D01*
X43999434Y-54515308D01*
X44008956Y-54558422D01*
X44007523Y-54596635D01*
X44002556Y-54623070D01*
X43991593Y-54667169D01*
X43975850Y-54724957D01*
X43956546Y-54792458D01*
X43934895Y-54865697D01*
X43912115Y-54940700D01*
X43889423Y-55013490D01*
X43868034Y-55080094D01*
X43849166Y-55136535D01*
X43834035Y-55178840D01*
X43823858Y-55203031D01*
X43820657Y-55207200D01*
X43813252Y-55195801D01*
X43799119Y-55164151D01*
X43779636Y-55116071D01*
X43756185Y-55055379D01*
X43730146Y-54985897D01*
X43702898Y-54911444D01*
X43675823Y-54835839D01*
X43650300Y-54762903D01*
X43627709Y-54696456D01*
X43609431Y-54640317D01*
X43596847Y-54598307D01*
X43591335Y-54574246D01*
X43591200Y-54572148D01*
X43598561Y-54522722D01*
X43623059Y-54489911D01*
X43667608Y-54469037D01*
X43698960Y-54457328D01*
X43716708Y-54446211D01*
X43718200Y-54443189D01*
X43706151Y-54439861D01*
X43672604Y-54436955D01*
X43621458Y-54434644D01*
X43556615Y-54433102D01*
X43481975Y-54432502D01*
X43476900Y-54432500D01*
X43401761Y-54433037D01*
X43336166Y-54434535D01*
X43284016Y-54436819D01*
X43249212Y-54439714D01*
X43235653Y-54443046D01*
X43235600Y-54443273D01*
X43246301Y-54454076D01*
X43273190Y-54468444D01*
X43286313Y-54473967D01*
X43331611Y-54502552D01*
X43355059Y-54543128D01*
X43355550Y-54593742D01*
X43355218Y-54595306D01*
X43344592Y-54639672D01*
X43329333Y-54697533D01*
X43310577Y-54765125D01*
X43289463Y-54838688D01*
X43267128Y-54914459D01*
X43244710Y-54988676D01*
X43223347Y-55057579D01*
X43204175Y-55117403D01*
X43188332Y-55164389D01*
X43176957Y-55194773D01*
X43171186Y-55204795D01*
X43170982Y-55204572D01*
X43157672Y-55176206D01*
X43138335Y-55129349D01*
X43114593Y-55068489D01*
X43088067Y-54998117D01*
X43060380Y-54922722D01*
X43033151Y-54846791D01*
X43008004Y-54774816D01*
X42986559Y-54711284D01*
X42970438Y-54660685D01*
X42961262Y-54627508D01*
X42959911Y-54620223D01*
X42961667Y-54559968D01*
X42983859Y-54514259D01*
X43027479Y-54481305D01*
X43039738Y-54475718D01*
X43070027Y-54461115D01*
X43081277Y-54449977D01*
X43072259Y-54441926D01*
X43041743Y-54436583D01*
X42988498Y-54433572D01*
X42911293Y-54432513D01*
X42899050Y-54432500D01*
X42833943Y-54433139D01*
X42833943Y-54433139D01*
G37*
X42833943Y-54433139D02*
X42778944Y-54434899D01*
X42738519Y-54437540D01*
X42717132Y-54440823D01*
X42714900Y-54442353D01*
X42725355Y-54453105D01*
X42751845Y-54469084D01*
X42768263Y-54477278D01*
X42807218Y-54500623D01*
X42839645Y-54528456D01*
X42846607Y-54536826D01*
X42856818Y-54556144D01*
X42875115Y-54596291D01*
X42900315Y-54654449D01*
X42931230Y-54727800D01*
X42966676Y-54813527D01*
X43005466Y-54908812D01*
X43046415Y-55010837D01*
X43052363Y-55025776D01*
X43099902Y-55144798D01*
X43139267Y-55242107D01*
X43171362Y-55319712D01*
X43197094Y-55379622D01*
X43217365Y-55423846D01*
X43233082Y-55454393D01*
X43245147Y-55473272D01*
X43254468Y-55482492D01*
X43258783Y-55484179D01*
X43266432Y-55483315D01*
X43274491Y-55476789D01*
X43283894Y-55462260D01*
X43295573Y-55437389D01*
X43310461Y-55399835D01*
X43329491Y-55347260D01*
X43353594Y-55277322D01*
X43383704Y-55187683D01*
X43417197Y-55086755D01*
X43449033Y-54990812D01*
X43478428Y-54902789D01*
X43504418Y-54825533D01*
X43526036Y-54761893D01*
X43542318Y-54714714D01*
X43552297Y-54686846D01*
X43555006Y-54680361D01*
X43560629Y-54690539D01*
X43574329Y-54721741D01*
X43595019Y-54771301D01*
X43621609Y-54836553D01*
X43653012Y-54914833D01*
X43688140Y-55003476D01*
X43718499Y-55080841D01*
X43763773Y-55195942D01*
X43801092Y-55288985D01*
X43831247Y-55361758D01*
X43855033Y-55416048D01*
X43873242Y-55453643D01*
X43886667Y-55476330D01*
X43896101Y-55485898D01*
X43898426Y-55486481D01*
X43919873Y-55481703D01*
X43925199Y-55477075D01*
X43930290Y-55463247D01*
X43942469Y-55428046D01*
X43960811Y-55374203D01*
X43984395Y-55304448D01*
X44012296Y-55221512D01*
X44043592Y-55128125D01*
X44077359Y-55027018D01*
X44078951Y-55022242D01*
X44113624Y-54919145D01*
X44146789Y-54822240D01*
X44177377Y-54734527D01*
X44204319Y-54659003D01*
X44226545Y-54598668D01*
X44242985Y-54556520D01*
X44252482Y-54535703D01*
X44281972Y-54502199D01*
X44319389Y-54477034D01*
X44321729Y-54476015D01*
X44350249Y-54462606D01*
X44362988Y-54452151D01*
X44358390Y-54444315D01*
X44334897Y-54438767D01*
X44290950Y-54435172D01*
X44224992Y-54433198D01*
X44135466Y-54432512D01*
X44118250Y-54432500D01*
X44042075Y-54433044D01*
X43975394Y-54434563D01*
X43922057Y-54436882D01*
X43885915Y-54439826D01*
X43870817Y-54443223D01*
X43870600Y-54443692D01*
X43881736Y-54453135D01*
X43909947Y-54464250D01*
X43927347Y-54469173D01*
X43973184Y-54487073D01*
X43999434Y-54515308D01*
X44008956Y-54558422D01*
X44007523Y-54596635D01*
X44002556Y-54623070D01*
X43991593Y-54667169D01*
X43975850Y-54724957D01*
X43956546Y-54792458D01*
X43934895Y-54865697D01*
X43912115Y-54940700D01*
X43889423Y-55013490D01*
X43868034Y-55080094D01*
X43849166Y-55136535D01*
X43834035Y-55178840D01*
X43823858Y-55203031D01*
X43820657Y-55207200D01*
X43813252Y-55195801D01*
X43799119Y-55164151D01*
X43779636Y-55116071D01*
X43756185Y-55055379D01*
X43730146Y-54985897D01*
X43702898Y-54911444D01*
X43675823Y-54835839D01*
X43650300Y-54762903D01*
X43627709Y-54696456D01*
X43609431Y-54640317D01*
X43596847Y-54598307D01*
X43591335Y-54574246D01*
X43591200Y-54572148D01*
X43598561Y-54522722D01*
X43623059Y-54489911D01*
X43667608Y-54469037D01*
X43698960Y-54457328D01*
X43716708Y-54446211D01*
X43718200Y-54443189D01*
X43706151Y-54439861D01*
X43672604Y-54436955D01*
X43621458Y-54434644D01*
X43556615Y-54433102D01*
X43481975Y-54432502D01*
X43476900Y-54432500D01*
X43401761Y-54433037D01*
X43336166Y-54434535D01*
X43284016Y-54436819D01*
X43249212Y-54439714D01*
X43235653Y-54443046D01*
X43235600Y-54443273D01*
X43246301Y-54454076D01*
X43273190Y-54468444D01*
X43286313Y-54473967D01*
X43331611Y-54502552D01*
X43355059Y-54543128D01*
X43355550Y-54593742D01*
X43355218Y-54595306D01*
X43344592Y-54639672D01*
X43329333Y-54697533D01*
X43310577Y-54765125D01*
X43289463Y-54838688D01*
X43267128Y-54914459D01*
X43244710Y-54988676D01*
X43223347Y-55057579D01*
X43204175Y-55117403D01*
X43188332Y-55164389D01*
X43176957Y-55194773D01*
X43171186Y-55204795D01*
X43170982Y-55204572D01*
X43157672Y-55176206D01*
X43138335Y-55129349D01*
X43114593Y-55068489D01*
X43088067Y-54998117D01*
X43060380Y-54922722D01*
X43033151Y-54846791D01*
X43008004Y-54774816D01*
X42986559Y-54711284D01*
X42970438Y-54660685D01*
X42961262Y-54627508D01*
X42959911Y-54620223D01*
X42961667Y-54559968D01*
X42983859Y-54514259D01*
X43027479Y-54481305D01*
X43039738Y-54475718D01*
X43070027Y-54461115D01*
X43081277Y-54449977D01*
X43072259Y-54441926D01*
X43041743Y-54436583D01*
X42988498Y-54433572D01*
X42911293Y-54432513D01*
X42899050Y-54432500D01*
X42833943Y-54433139D01*
G36*
X46485469Y-53752228D02*
G01*
X46481840Y-53769498D01*
X46479011Y-53800864D01*
X46476905Y-53848392D01*
X46475444Y-53914145D01*
X46474549Y-54000187D01*
X46474144Y-54108582D01*
X46474100Y-54168444D01*
X46474100Y-54590188D01*
X46420125Y-54537351D01*
X46350793Y-54482155D01*
X46272779Y-54445813D01*
X46180843Y-54426203D01*
X46136390Y-54422422D01*
X46030216Y-54425041D01*
X45939500Y-54444940D01*
X45865988Y-54481665D01*
X45844858Y-54498223D01*
X45820909Y-54519730D01*
X45801747Y-54539685D01*
X45786781Y-54561141D01*
X45775422Y-54587153D01*
X45767079Y-54620776D01*
X45761162Y-54665065D01*
X45757081Y-54723074D01*
X45754245Y-54797858D01*
X45752064Y-54892470D01*
X45750344Y-54987314D01*
X45743850Y-55357979D01*
X45708294Y-55395068D01*
X45671343Y-55423891D01*
X45627859Y-55445466D01*
X45622569Y-55447188D01*
X45589613Y-55458493D01*
X45574817Y-55467578D01*
X45579315Y-55474638D01*
X45604247Y-55479868D01*
X45650747Y-55483465D01*
X45719953Y-55485622D01*
X45813002Y-55486537D01*
X45851800Y-55486600D01*
X45932965Y-55486147D01*
X46004861Y-55484879D01*
X46063863Y-55482931D01*
X46106346Y-55480439D01*
X46128685Y-55477540D01*
X46131200Y-55476139D01*
X46120173Y-55466715D01*
X46092074Y-55454359D01*
X46071876Y-55447564D01*
X46027126Y-55428040D01*
X45993346Y-55402512D01*
X45988345Y-55396531D01*
X45971359Y-55361316D01*
X45958356Y-55306591D01*
X45949226Y-55231174D01*
X45943862Y-55133884D01*
X45942157Y-55013540D01*
X45943310Y-54902267D01*
X45945171Y-54813163D01*
X45947251Y-54745395D01*
X45949980Y-54694903D01*
X45953785Y-54657625D01*
X45959096Y-54629499D01*
X45966341Y-54606463D01*
X45975948Y-54584456D01*
X45977096Y-54582071D01*
X46018808Y-54522139D01*
X46075078Y-54482218D01*
X46143740Y-54463200D01*
X46222629Y-54465976D01*
X46246824Y-54470917D01*
X46317201Y-54499462D01*
X46373626Y-54548378D01*
X46416826Y-54618428D01*
X46436376Y-54669886D01*
X46447549Y-54710537D01*
X46455935Y-54755012D01*
X46462131Y-54808591D01*
X46466735Y-54876554D01*
X46470344Y-54964181D01*
X46470626Y-54972788D01*
X46473426Y-55092377D01*
X46472852Y-55189332D01*
X46468223Y-55266277D01*
X46458861Y-55325837D01*
X46444085Y-55370634D01*
X46423217Y-55403292D01*
X46395577Y-55426434D01*
X46360484Y-55442685D01*
X46347853Y-55446774D01*
X46314442Y-55458188D01*
X46299105Y-55467357D01*
X46302987Y-55474481D01*
X46327233Y-55479760D01*
X46372986Y-55483394D01*
X46441392Y-55485582D01*
X46533594Y-55486526D01*
X46575700Y-55486600D01*
X46658095Y-55486108D01*
X46730521Y-55484727D01*
X46789480Y-55482599D01*
X46831473Y-55479867D01*
X46853001Y-55476671D01*
X46855100Y-55475258D01*
X46843876Y-55461019D01*
X46816095Y-55451015D01*
X46790762Y-55448500D01*
X46766283Y-55440392D01*
X46735535Y-55420251D01*
X46727642Y-55413575D01*
X46714125Y-55399682D01*
X46702620Y-55382800D01*
X46692983Y-55360936D01*
X46685071Y-55332099D01*
X46678742Y-55294298D01*
X46673853Y-55245540D01*
X46670261Y-55183835D01*
X46667823Y-55107191D01*
X46666396Y-55013616D01*
X46665838Y-54901118D01*
X46666005Y-54767707D01*
X46666755Y-54611390D01*
X46667018Y-54568324D01*
X46667948Y-54426052D01*
X46668858Y-54306935D01*
X46669849Y-54208731D01*
X46671020Y-54129195D01*
X46672473Y-54066082D01*
X46674307Y-54017150D01*
X46676623Y-53980155D01*
X46679521Y-53952852D01*
X46683101Y-53932998D01*
X46687463Y-53918349D01*
X46692708Y-53906660D01*
X46696923Y-53899100D01*
X46726384Y-53863259D01*
X46768987Y-53840478D01*
X46779473Y-53836980D01*
X46819068Y-53824043D01*
X46838786Y-53815396D01*
X46843199Y-53808444D01*
X46839410Y-53802976D01*
X46825463Y-53799029D01*
X46792013Y-53792417D01*
X46744705Y-53784047D01*
X46689185Y-53774822D01*
X46631098Y-53765647D01*
X46576089Y-53757426D01*
X46529804Y-53751064D01*
X46497888Y-53747464D01*
X46489975Y-53746991D01*
X46485469Y-53752228D01*
X46485469Y-53752228D01*
G37*
X46485469Y-53752228D02*
X46481840Y-53769498D01*
X46479011Y-53800864D01*
X46476905Y-53848392D01*
X46475444Y-53914145D01*
X46474549Y-54000187D01*
X46474144Y-54108582D01*
X46474100Y-54168444D01*
X46474100Y-54590188D01*
X46420125Y-54537351D01*
X46350793Y-54482155D01*
X46272779Y-54445813D01*
X46180843Y-54426203D01*
X46136390Y-54422422D01*
X46030216Y-54425041D01*
X45939500Y-54444940D01*
X45865988Y-54481665D01*
X45844858Y-54498223D01*
X45820909Y-54519730D01*
X45801747Y-54539685D01*
X45786781Y-54561141D01*
X45775422Y-54587153D01*
X45767079Y-54620776D01*
X45761162Y-54665065D01*
X45757081Y-54723074D01*
X45754245Y-54797858D01*
X45752064Y-54892470D01*
X45750344Y-54987314D01*
X45743850Y-55357979D01*
X45708294Y-55395068D01*
X45671343Y-55423891D01*
X45627859Y-55445466D01*
X45622569Y-55447188D01*
X45589613Y-55458493D01*
X45574817Y-55467578D01*
X45579315Y-55474638D01*
X45604247Y-55479868D01*
X45650747Y-55483465D01*
X45719953Y-55485622D01*
X45813002Y-55486537D01*
X45851800Y-55486600D01*
X45932965Y-55486147D01*
X46004861Y-55484879D01*
X46063863Y-55482931D01*
X46106346Y-55480439D01*
X46128685Y-55477540D01*
X46131200Y-55476139D01*
X46120173Y-55466715D01*
X46092074Y-55454359D01*
X46071876Y-55447564D01*
X46027126Y-55428040D01*
X45993346Y-55402512D01*
X45988345Y-55396531D01*
X45971359Y-55361316D01*
X45958356Y-55306591D01*
X45949226Y-55231174D01*
X45943862Y-55133884D01*
X45942157Y-55013540D01*
X45943310Y-54902267D01*
X45945171Y-54813163D01*
X45947251Y-54745395D01*
X45949980Y-54694903D01*
X45953785Y-54657625D01*
X45959096Y-54629499D01*
X45966341Y-54606463D01*
X45975948Y-54584456D01*
X45977096Y-54582071D01*
X46018808Y-54522139D01*
X46075078Y-54482218D01*
X46143740Y-54463200D01*
X46222629Y-54465976D01*
X46246824Y-54470917D01*
X46317201Y-54499462D01*
X46373626Y-54548378D01*
X46416826Y-54618428D01*
X46436376Y-54669886D01*
X46447549Y-54710537D01*
X46455935Y-54755012D01*
X46462131Y-54808591D01*
X46466735Y-54876554D01*
X46470344Y-54964181D01*
X46470626Y-54972788D01*
X46473426Y-55092377D01*
X46472852Y-55189332D01*
X46468223Y-55266277D01*
X46458861Y-55325837D01*
X46444085Y-55370634D01*
X46423217Y-55403292D01*
X46395577Y-55426434D01*
X46360484Y-55442685D01*
X46347853Y-55446774D01*
X46314442Y-55458188D01*
X46299105Y-55467357D01*
X46302987Y-55474481D01*
X46327233Y-55479760D01*
X46372986Y-55483394D01*
X46441392Y-55485582D01*
X46533594Y-55486526D01*
X46575700Y-55486600D01*
X46658095Y-55486108D01*
X46730521Y-55484727D01*
X46789480Y-55482599D01*
X46831473Y-55479867D01*
X46853001Y-55476671D01*
X46855100Y-55475258D01*
X46843876Y-55461019D01*
X46816095Y-55451015D01*
X46790762Y-55448500D01*
X46766283Y-55440392D01*
X46735535Y-55420251D01*
X46727642Y-55413575D01*
X46714125Y-55399682D01*
X46702620Y-55382800D01*
X46692983Y-55360936D01*
X46685071Y-55332099D01*
X46678742Y-55294298D01*
X46673853Y-55245540D01*
X46670261Y-55183835D01*
X46667823Y-55107191D01*
X46666396Y-55013616D01*
X46665838Y-54901118D01*
X46666005Y-54767707D01*
X46666755Y-54611390D01*
X46667018Y-54568324D01*
X46667948Y-54426052D01*
X46668858Y-54306935D01*
X46669849Y-54208731D01*
X46671020Y-54129195D01*
X46672473Y-54066082D01*
X46674307Y-54017150D01*
X46676623Y-53980155D01*
X46679521Y-53952852D01*
X46683101Y-53932998D01*
X46687463Y-53918349D01*
X46692708Y-53906660D01*
X46696923Y-53899100D01*
X46726384Y-53863259D01*
X46768987Y-53840478D01*
X46779473Y-53836980D01*
X46819068Y-53824043D01*
X46838786Y-53815396D01*
X46843199Y-53808444D01*
X46839410Y-53802976D01*
X46825463Y-53799029D01*
X46792013Y-53792417D01*
X46744705Y-53784047D01*
X46689185Y-53774822D01*
X46631098Y-53765647D01*
X46576089Y-53757426D01*
X46529804Y-53751064D01*
X46497888Y-53747464D01*
X46489975Y-53746991D01*
X46485469Y-53752228D01*
G36*
X49176556Y-53797825D02*
G01*
X49087336Y-53798748D01*
X49009818Y-53800187D01*
X48947033Y-53802061D01*
X48902010Y-53804290D01*
X48877779Y-53806793D01*
X48874400Y-53808179D01*
X48885702Y-53816508D01*
X48914905Y-53826922D01*
X48944398Y-53834522D01*
X49015992Y-53859686D01*
X49068765Y-53900186D01*
X49105875Y-53958629D01*
X49111613Y-53972486D01*
X49116976Y-53988004D01*
X49121446Y-54005860D01*
X49125103Y-54028379D01*
X49128028Y-54057889D01*
X49130301Y-54096716D01*
X49132002Y-54147187D01*
X49133212Y-54211628D01*
X49134012Y-54292367D01*
X49134481Y-54391729D01*
X49134700Y-54512042D01*
X49134750Y-54642050D01*
X49134689Y-54783505D01*
X49134451Y-54901888D01*
X49133956Y-54999524D01*
X49133124Y-55078740D01*
X49131874Y-55141863D01*
X49130125Y-55191220D01*
X49127798Y-55229137D01*
X49124813Y-55257940D01*
X49121087Y-55279958D01*
X49116543Y-55297515D01*
X49111613Y-55311613D01*
X49077216Y-55373899D01*
X49027780Y-55417728D01*
X48960144Y-55445708D01*
X48944398Y-55449577D01*
X48906378Y-55459809D01*
X48880957Y-55469954D01*
X48874400Y-55475920D01*
X48886595Y-55478534D01*
X48921160Y-55480915D01*
X48975066Y-55482985D01*
X49045283Y-55484661D01*
X49128783Y-55485862D01*
X49222534Y-55486509D01*
X49274450Y-55486600D01*
X49403033Y-55486130D01*
X49506549Y-55484700D01*
X49585313Y-55482283D01*
X49639640Y-55478848D01*
X49669847Y-55474366D01*
X49676248Y-55468808D01*
X49659161Y-55462145D01*
X49620525Y-55454612D01*
X49543872Y-55431427D01*
X49482497Y-55390414D01*
X49444223Y-55342227D01*
X49435044Y-55325326D01*
X49427899Y-55308307D01*
X49422483Y-55287797D01*
X49418492Y-55260421D01*
X49415622Y-55222803D01*
X49413569Y-55171570D01*
X49412029Y-55103346D01*
X49410697Y-55014757D01*
X49410027Y-54962725D01*
X49405903Y-54635700D01*
X50284100Y-54635700D01*
X50284030Y-54943675D01*
X50283392Y-55046909D01*
X50281606Y-55137128D01*
X50278791Y-55211334D01*
X50275064Y-55266534D01*
X50270544Y-55299731D01*
X50269897Y-55302301D01*
X50240553Y-55362511D01*
X50191349Y-55410053D01*
X50125987Y-55441739D01*
X50100015Y-55448486D01*
X50061964Y-55458299D01*
X50036572Y-55468513D01*
X50030100Y-55474800D01*
X50042430Y-55478037D01*
X50077945Y-55480853D01*
X50134432Y-55483183D01*
X50209678Y-55484961D01*
X50301471Y-55486119D01*
X50407598Y-55486592D01*
X50423800Y-55486600D01*
X50529392Y-55486236D01*
X50622176Y-55485192D01*
X50699736Y-55483540D01*
X50759658Y-55481350D01*
X50799526Y-55478695D01*
X50816927Y-55475646D01*
X50817500Y-55474952D01*
X50806224Y-55465944D01*
X50777338Y-55455527D01*
X50753640Y-55449609D01*
X50689076Y-55430247D01*
X50641944Y-55401396D01*
X50604695Y-55358144D01*
X50598649Y-55348760D01*
X50569850Y-55302450D01*
X50569850Y-53981650D01*
X50598649Y-53935339D01*
X50634949Y-53889071D01*
X50679813Y-53858063D01*
X50740793Y-53837399D01*
X50753640Y-53834490D01*
X50789766Y-53824686D01*
X50812916Y-53814453D01*
X50817500Y-53809147D01*
X50805204Y-53806023D01*
X50769924Y-53803278D01*
X50714076Y-53800984D01*
X50640075Y-53799211D01*
X50550336Y-53798031D01*
X50447273Y-53797516D01*
X50423800Y-53797500D01*
X50315807Y-53797869D01*
X50221831Y-53798933D01*
X50144085Y-53800626D01*
X50084783Y-53802882D01*
X50046136Y-53805633D01*
X50030359Y-53808813D01*
X50030100Y-53809299D01*
X50041432Y-53818107D01*
X50070669Y-53828463D01*
X50099179Y-53835439D01*
X50168519Y-53857681D01*
X50219123Y-53893374D01*
X50255594Y-53945947D01*
X50260017Y-53955251D01*
X50267833Y-53975133D01*
X50273738Y-53998235D01*
X50277995Y-54028266D01*
X50280867Y-54068935D01*
X50282620Y-54123953D01*
X50283518Y-54197027D01*
X50283822Y-54289625D01*
X50284100Y-54572200D01*
X49406084Y-54572200D01*
X49410117Y-54283275D01*
X49411602Y-54188976D01*
X49413304Y-54116417D01*
X49415554Y-54061938D01*
X49418681Y-54021880D01*
X49423014Y-53992581D01*
X49428881Y-53970383D01*
X49436612Y-53951625D01*
X49440673Y-53943550D01*
X49481491Y-53891686D01*
X49540734Y-53852976D01*
X49613490Y-53830551D01*
X49619352Y-53829613D01*
X49652680Y-53822176D01*
X49672297Y-53813082D01*
X49674500Y-53809421D01*
X49662138Y-53806115D01*
X49626398Y-53803256D01*
X49569298Y-53800906D01*
X49492857Y-53799124D01*
X49399095Y-53797971D01*
X49290029Y-53797506D01*
X49274450Y-53797500D01*
X49176556Y-53797825D01*
X49176556Y-53797825D01*
G37*
X49176556Y-53797825D02*
X49087336Y-53798748D01*
X49009818Y-53800187D01*
X48947033Y-53802061D01*
X48902010Y-53804290D01*
X48877779Y-53806793D01*
X48874400Y-53808179D01*
X48885702Y-53816508D01*
X48914905Y-53826922D01*
X48944398Y-53834522D01*
X49015992Y-53859686D01*
X49068765Y-53900186D01*
X49105875Y-53958629D01*
X49111613Y-53972486D01*
X49116976Y-53988004D01*
X49121446Y-54005860D01*
X49125103Y-54028379D01*
X49128028Y-54057889D01*
X49130301Y-54096716D01*
X49132002Y-54147187D01*
X49133212Y-54211628D01*
X49134012Y-54292367D01*
X49134481Y-54391729D01*
X49134700Y-54512042D01*
X49134750Y-54642050D01*
X49134689Y-54783505D01*
X49134451Y-54901888D01*
X49133956Y-54999524D01*
X49133124Y-55078740D01*
X49131874Y-55141863D01*
X49130125Y-55191220D01*
X49127798Y-55229137D01*
X49124813Y-55257940D01*
X49121087Y-55279958D01*
X49116543Y-55297515D01*
X49111613Y-55311613D01*
X49077216Y-55373899D01*
X49027780Y-55417728D01*
X48960144Y-55445708D01*
X48944398Y-55449577D01*
X48906378Y-55459809D01*
X48880957Y-55469954D01*
X48874400Y-55475920D01*
X48886595Y-55478534D01*
X48921160Y-55480915D01*
X48975066Y-55482985D01*
X49045283Y-55484661D01*
X49128783Y-55485862D01*
X49222534Y-55486509D01*
X49274450Y-55486600D01*
X49403033Y-55486130D01*
X49506549Y-55484700D01*
X49585313Y-55482283D01*
X49639640Y-55478848D01*
X49669847Y-55474366D01*
X49676248Y-55468808D01*
X49659161Y-55462145D01*
X49620525Y-55454612D01*
X49543872Y-55431427D01*
X49482497Y-55390414D01*
X49444223Y-55342227D01*
X49435044Y-55325326D01*
X49427899Y-55308307D01*
X49422483Y-55287797D01*
X49418492Y-55260421D01*
X49415622Y-55222803D01*
X49413569Y-55171570D01*
X49412029Y-55103346D01*
X49410697Y-55014757D01*
X49410027Y-54962725D01*
X49405903Y-54635700D01*
X50284100Y-54635700D01*
X50284030Y-54943675D01*
X50283392Y-55046909D01*
X50281606Y-55137128D01*
X50278791Y-55211334D01*
X50275064Y-55266534D01*
X50270544Y-55299731D01*
X50269897Y-55302301D01*
X50240553Y-55362511D01*
X50191349Y-55410053D01*
X50125987Y-55441739D01*
X50100015Y-55448486D01*
X50061964Y-55458299D01*
X50036572Y-55468513D01*
X50030100Y-55474800D01*
X50042430Y-55478037D01*
X50077945Y-55480853D01*
X50134432Y-55483183D01*
X50209678Y-55484961D01*
X50301471Y-55486119D01*
X50407598Y-55486592D01*
X50423800Y-55486600D01*
X50529392Y-55486236D01*
X50622176Y-55485192D01*
X50699736Y-55483540D01*
X50759658Y-55481350D01*
X50799526Y-55478695D01*
X50816927Y-55475646D01*
X50817500Y-55474952D01*
X50806224Y-55465944D01*
X50777338Y-55455527D01*
X50753640Y-55449609D01*
X50689076Y-55430247D01*
X50641944Y-55401396D01*
X50604695Y-55358144D01*
X50598649Y-55348760D01*
X50569850Y-55302450D01*
X50569850Y-53981650D01*
X50598649Y-53935339D01*
X50634949Y-53889071D01*
X50679813Y-53858063D01*
X50740793Y-53837399D01*
X50753640Y-53834490D01*
X50789766Y-53824686D01*
X50812916Y-53814453D01*
X50817500Y-53809147D01*
X50805204Y-53806023D01*
X50769924Y-53803278D01*
X50714076Y-53800984D01*
X50640075Y-53799211D01*
X50550336Y-53798031D01*
X50447273Y-53797516D01*
X50423800Y-53797500D01*
X50315807Y-53797869D01*
X50221831Y-53798933D01*
X50144085Y-53800626D01*
X50084783Y-53802882D01*
X50046136Y-53805633D01*
X50030359Y-53808813D01*
X50030100Y-53809299D01*
X50041432Y-53818107D01*
X50070669Y-53828463D01*
X50099179Y-53835439D01*
X50168519Y-53857681D01*
X50219123Y-53893374D01*
X50255594Y-53945947D01*
X50260017Y-53955251D01*
X50267833Y-53975133D01*
X50273738Y-53998235D01*
X50277995Y-54028266D01*
X50280867Y-54068935D01*
X50282620Y-54123953D01*
X50283518Y-54197027D01*
X50283822Y-54289625D01*
X50284100Y-54572200D01*
X49406084Y-54572200D01*
X49410117Y-54283275D01*
X49411602Y-54188976D01*
X49413304Y-54116417D01*
X49415554Y-54061938D01*
X49418681Y-54021880D01*
X49423014Y-53992581D01*
X49428881Y-53970383D01*
X49436612Y-53951625D01*
X49440673Y-53943550D01*
X49481491Y-53891686D01*
X49540734Y-53852976D01*
X49613490Y-53830551D01*
X49619352Y-53829613D01*
X49652680Y-53822176D01*
X49672297Y-53813082D01*
X49674500Y-53809421D01*
X49662138Y-53806115D01*
X49626398Y-53803256D01*
X49569298Y-53800906D01*
X49492857Y-53799124D01*
X49399095Y-53797971D01*
X49290029Y-53797506D01*
X49274450Y-53797500D01*
X49176556Y-53797825D01*
G36*
X53297033Y-54425234D02*
G01*
X53292024Y-54440999D01*
X53286871Y-54473839D01*
X53283952Y-54502303D01*
X53278165Y-54572078D01*
X53232687Y-54532148D01*
X53194581Y-54503764D01*
X53146304Y-54474377D01*
X53116780Y-54459184D01*
X53080879Y-54443782D01*
X53047547Y-54434017D01*
X53009172Y-54428654D01*
X52958142Y-54426461D01*
X52913000Y-54426150D01*
X52849476Y-54426892D01*
X52804362Y-54429852D01*
X52770695Y-54436127D01*
X52741511Y-54446818D01*
X52722500Y-54456204D01*
X52670395Y-54486321D01*
X52634558Y-54515417D01*
X52607235Y-54550725D01*
X52591361Y-54578550D01*
X52583562Y-54594721D01*
X52577336Y-54612494D01*
X52572436Y-54634974D01*
X52568614Y-54665267D01*
X52565623Y-54706481D01*
X52563217Y-54761722D01*
X52561147Y-54834096D01*
X52559167Y-54926709D01*
X52557787Y-55000505D01*
X52555770Y-55107530D01*
X52553884Y-55192069D01*
X52551886Y-55257034D01*
X52549532Y-55305335D01*
X52546579Y-55339883D01*
X52542782Y-55363591D01*
X52537898Y-55379369D01*
X52531683Y-55390129D01*
X52524496Y-55398182D01*
X52494645Y-55419926D01*
X52455548Y-55439122D01*
X52448740Y-55441618D01*
X52414365Y-55454709D01*
X52396648Y-55465110D01*
X52396917Y-55473096D01*
X52416500Y-55478947D01*
X52456726Y-55482937D01*
X52518921Y-55485346D01*
X52604414Y-55486449D01*
X52664292Y-55486600D01*
X52766181Y-55486010D01*
X52843582Y-55484141D01*
X52897383Y-55480842D01*
X52928470Y-55475963D01*
X52937731Y-55469353D01*
X52926053Y-55460862D01*
X52894323Y-55450340D01*
X52888172Y-55448653D01*
X52836170Y-55427615D01*
X52799204Y-55393355D01*
X52782866Y-55368134D01*
X52777449Y-55346049D01*
X52772716Y-55302851D01*
X52768733Y-55242820D01*
X52765564Y-55170236D01*
X52763276Y-55089377D01*
X52761932Y-55004525D01*
X52761598Y-54919958D01*
X52762338Y-54839956D01*
X52764219Y-54768799D01*
X52767304Y-54710767D01*
X52771659Y-54670139D01*
X52772213Y-54666946D01*
X52794745Y-54590244D01*
X52831250Y-54534370D01*
X52883272Y-54498049D01*
X52952359Y-54480007D01*
X53001900Y-54477419D01*
X53088316Y-54487973D01*
X53158873Y-54518338D01*
X53213180Y-54568178D01*
X53250844Y-54637157D01*
X53268859Y-54706677D01*
X53273160Y-54746831D01*
X53276488Y-54805474D01*
X53278839Y-54877533D01*
X53280211Y-54957936D01*
X53280598Y-55041609D01*
X53279997Y-55123480D01*
X53278403Y-55198477D01*
X53275813Y-55261526D01*
X53272221Y-55307555D01*
X53269358Y-55325902D01*
X53244610Y-55384440D01*
X53202747Y-55425573D01*
X53157130Y-55444621D01*
X53125927Y-55455600D01*
X53107709Y-55468765D01*
X53106594Y-55470970D01*
X53110523Y-55476297D01*
X53127902Y-55480356D01*
X53161109Y-55483280D01*
X53212522Y-55485206D01*
X53284518Y-55486267D01*
X53379478Y-55486599D01*
X53381842Y-55486600D01*
X53463168Y-55486117D01*
X53535232Y-55484765D01*
X53594415Y-55482688D01*
X53637101Y-55480031D01*
X53659670Y-55476937D01*
X53662300Y-55475407D01*
X53651188Y-55465855D01*
X53623156Y-55454812D01*
X53607825Y-55450498D01*
X53571911Y-55438658D01*
X53542599Y-55421393D01*
X53519305Y-55396311D01*
X53501444Y-55361020D01*
X53488432Y-55313130D01*
X53479683Y-55250249D01*
X53474613Y-55169985D01*
X53472638Y-55069949D01*
X53473172Y-54947748D01*
X53473796Y-54902400D01*
X53475341Y-54809630D01*
X53476989Y-54738620D01*
X53479111Y-54685730D01*
X53482079Y-54647323D01*
X53486265Y-54619758D01*
X53492040Y-54599397D01*
X53499775Y-54582602D01*
X53507845Y-54568932D01*
X53536265Y-54533508D01*
X53572548Y-54513291D01*
X53593543Y-54507099D01*
X53633089Y-54494360D01*
X53648003Y-54482482D01*
X53638015Y-54471866D01*
X53621025Y-54466522D01*
X53586098Y-54459503D01*
X53538093Y-54451593D01*
X53482766Y-54443524D01*
X53425877Y-54436031D01*
X53373182Y-54429847D01*
X53330439Y-54425706D01*
X53303404Y-54424341D01*
X53297033Y-54425234D01*
X53297033Y-54425234D01*
G37*
X53297033Y-54425234D02*
X53292024Y-54440999D01*
X53286871Y-54473839D01*
X53283952Y-54502303D01*
X53278165Y-54572078D01*
X53232687Y-54532148D01*
X53194581Y-54503764D01*
X53146304Y-54474377D01*
X53116780Y-54459184D01*
X53080879Y-54443782D01*
X53047547Y-54434017D01*
X53009172Y-54428654D01*
X52958142Y-54426461D01*
X52913000Y-54426150D01*
X52849476Y-54426892D01*
X52804362Y-54429852D01*
X52770695Y-54436127D01*
X52741511Y-54446818D01*
X52722500Y-54456204D01*
X52670395Y-54486321D01*
X52634558Y-54515417D01*
X52607235Y-54550725D01*
X52591361Y-54578550D01*
X52583562Y-54594721D01*
X52577336Y-54612494D01*
X52572436Y-54634974D01*
X52568614Y-54665267D01*
X52565623Y-54706481D01*
X52563217Y-54761722D01*
X52561147Y-54834096D01*
X52559167Y-54926709D01*
X52557787Y-55000505D01*
X52555770Y-55107530D01*
X52553884Y-55192069D01*
X52551886Y-55257034D01*
X52549532Y-55305335D01*
X52546579Y-55339883D01*
X52542782Y-55363591D01*
X52537898Y-55379369D01*
X52531683Y-55390129D01*
X52524496Y-55398182D01*
X52494645Y-55419926D01*
X52455548Y-55439122D01*
X52448740Y-55441618D01*
X52414365Y-55454709D01*
X52396648Y-55465110D01*
X52396917Y-55473096D01*
X52416500Y-55478947D01*
X52456726Y-55482937D01*
X52518921Y-55485346D01*
X52604414Y-55486449D01*
X52664292Y-55486600D01*
X52766181Y-55486010D01*
X52843582Y-55484141D01*
X52897383Y-55480842D01*
X52928470Y-55475963D01*
X52937731Y-55469353D01*
X52926053Y-55460862D01*
X52894323Y-55450340D01*
X52888172Y-55448653D01*
X52836170Y-55427615D01*
X52799204Y-55393355D01*
X52782866Y-55368134D01*
X52777449Y-55346049D01*
X52772716Y-55302851D01*
X52768733Y-55242820D01*
X52765564Y-55170236D01*
X52763276Y-55089377D01*
X52761932Y-55004525D01*
X52761598Y-54919958D01*
X52762338Y-54839956D01*
X52764219Y-54768799D01*
X52767304Y-54710767D01*
X52771659Y-54670139D01*
X52772213Y-54666946D01*
X52794745Y-54590244D01*
X52831250Y-54534370D01*
X52883272Y-54498049D01*
X52952359Y-54480007D01*
X53001900Y-54477419D01*
X53088316Y-54487973D01*
X53158873Y-54518338D01*
X53213180Y-54568178D01*
X53250844Y-54637157D01*
X53268859Y-54706677D01*
X53273160Y-54746831D01*
X53276488Y-54805474D01*
X53278839Y-54877533D01*
X53280211Y-54957936D01*
X53280598Y-55041609D01*
X53279997Y-55123480D01*
X53278403Y-55198477D01*
X53275813Y-55261526D01*
X53272221Y-55307555D01*
X53269358Y-55325902D01*
X53244610Y-55384440D01*
X53202747Y-55425573D01*
X53157130Y-55444621D01*
X53125927Y-55455600D01*
X53107709Y-55468765D01*
X53106594Y-55470970D01*
X53110523Y-55476297D01*
X53127902Y-55480356D01*
X53161109Y-55483280D01*
X53212522Y-55485206D01*
X53284518Y-55486267D01*
X53379478Y-55486599D01*
X53381842Y-55486600D01*
X53463168Y-55486117D01*
X53535232Y-55484765D01*
X53594415Y-55482688D01*
X53637101Y-55480031D01*
X53659670Y-55476937D01*
X53662300Y-55475407D01*
X53651188Y-55465855D01*
X53623156Y-55454812D01*
X53607825Y-55450498D01*
X53571911Y-55438658D01*
X53542599Y-55421393D01*
X53519305Y-55396311D01*
X53501444Y-55361020D01*
X53488432Y-55313130D01*
X53479683Y-55250249D01*
X53474613Y-55169985D01*
X53472638Y-55069949D01*
X53473172Y-54947748D01*
X53473796Y-54902400D01*
X53475341Y-54809630D01*
X53476989Y-54738620D01*
X53479111Y-54685730D01*
X53482079Y-54647323D01*
X53486265Y-54619758D01*
X53492040Y-54599397D01*
X53499775Y-54582602D01*
X53507845Y-54568932D01*
X53536265Y-54533508D01*
X53572548Y-54513291D01*
X53593543Y-54507099D01*
X53633089Y-54494360D01*
X53648003Y-54482482D01*
X53638015Y-54471866D01*
X53621025Y-54466522D01*
X53586098Y-54459503D01*
X53538093Y-54451593D01*
X53482766Y-54443524D01*
X53425877Y-54436031D01*
X53373182Y-54429847D01*
X53330439Y-54425706D01*
X53303404Y-54424341D01*
X53297033Y-54425234D01*
G36*
X56081650Y-54433758D02*
G01*
X56035419Y-54455481D01*
X55982293Y-54498080D01*
X55959616Y-54520278D01*
X55888382Y-54592982D01*
X55826266Y-54542679D01*
X55778185Y-54507972D01*
X55723490Y-54474493D01*
X55694300Y-54459262D01*
X55657556Y-54443416D01*
X55623332Y-54433542D01*
X55583623Y-54428294D01*
X55530427Y-54426325D01*
X55497450Y-54426150D01*
X55416299Y-54429287D01*
X55353600Y-54440162D01*
X55303021Y-54460963D01*
X55258227Y-54493881D01*
X55234599Y-54517061D01*
X55212767Y-54541675D01*
X55195702Y-54566362D01*
X55182814Y-54594564D01*
X55173508Y-54629720D01*
X55167195Y-54675269D01*
X55163280Y-54734653D01*
X55161173Y-54811312D01*
X55160281Y-54908684D01*
X55160143Y-54949617D01*
X55159509Y-55038561D01*
X55158144Y-55122449D01*
X55156182Y-55196796D01*
X55153755Y-55257122D01*
X55150995Y-55298944D01*
X55149418Y-55312229D01*
X55128959Y-55375069D01*
X55091652Y-55419330D01*
X55038113Y-55444288D01*
X55036730Y-55444621D01*
X55005527Y-55455600D01*
X54987309Y-55468765D01*
X54986194Y-55470970D01*
X54990123Y-55476297D01*
X55007502Y-55480356D01*
X55040709Y-55483280D01*
X55092122Y-55485206D01*
X55164118Y-55486267D01*
X55259078Y-55486599D01*
X55261442Y-55486600D01*
X55363153Y-55486058D01*
X55440764Y-55484333D01*
X55495558Y-55481276D01*
X55528813Y-55476738D01*
X55541810Y-55470568D01*
X55535829Y-55462617D01*
X55521812Y-55456208D01*
X55491379Y-55449420D01*
X55477562Y-55448500D01*
X55453084Y-55440385D01*
X55422357Y-55420231D01*
X55414500Y-55413575D01*
X55395251Y-55391671D01*
X55380190Y-55362557D01*
X55368866Y-55323231D01*
X55360827Y-55270696D01*
X55355623Y-55201951D01*
X55352802Y-55113998D01*
X55351913Y-55003837D01*
X55351911Y-54997650D01*
X55353575Y-54868517D01*
X55359155Y-54762348D01*
X55369534Y-54676887D01*
X55385594Y-54609880D01*
X55408218Y-54559071D01*
X55438289Y-54522206D01*
X55476690Y-54497030D01*
X55524303Y-54481288D01*
X55556258Y-54475623D01*
X55637333Y-54476126D01*
X55709859Y-54499736D01*
X55771235Y-54544863D01*
X55818859Y-54609920D01*
X55835389Y-54645991D01*
X55845339Y-54674229D01*
X55852870Y-54703571D01*
X55858445Y-54738423D01*
X55862523Y-54783189D01*
X55865569Y-54842275D01*
X55868042Y-54920085D01*
X55869245Y-54968940D01*
X55870630Y-55051538D01*
X55870978Y-55130304D01*
X55870340Y-55199851D01*
X55868765Y-55254790D01*
X55866302Y-55289733D01*
X55866300Y-55289746D01*
X55848354Y-55358811D01*
X55814545Y-55409049D01*
X55765627Y-55439463D01*
X55749168Y-55444328D01*
X55717525Y-55455318D01*
X55698764Y-55468414D01*
X55697394Y-55470970D01*
X55701323Y-55476297D01*
X55718702Y-55480356D01*
X55751909Y-55483280D01*
X55803322Y-55485206D01*
X55875318Y-55486267D01*
X55970278Y-55486599D01*
X55972642Y-55486600D01*
X56069046Y-55486049D01*
X56147041Y-55484447D01*
X56204880Y-55481874D01*
X56240815Y-55478405D01*
X56253100Y-55474141D01*
X56242188Y-55462884D01*
X56218175Y-55454542D01*
X56156359Y-55433338D01*
X56112250Y-55397177D01*
X56096237Y-55374051D01*
X56087366Y-55356109D01*
X56080628Y-55334163D01*
X56075598Y-55304261D01*
X56071850Y-55262453D01*
X56068959Y-55204788D01*
X56066501Y-55127313D01*
X56065508Y-55088431D01*
X56064164Y-54952102D01*
X56067103Y-54833362D01*
X56074185Y-54733946D01*
X56085268Y-54655592D01*
X56100211Y-54600035D01*
X56106241Y-54586466D01*
X56143281Y-54540858D01*
X56197303Y-54508043D01*
X56262251Y-54490114D01*
X56332069Y-54489165D01*
X56367934Y-54495982D01*
X56419629Y-54519899D01*
X56472115Y-54560906D01*
X56518210Y-54611978D01*
X56550733Y-54666089D01*
X56556201Y-54680150D01*
X56562273Y-54710523D01*
X56567880Y-54761311D01*
X56572847Y-54827528D01*
X56576999Y-54904191D01*
X56580163Y-54986316D01*
X56582164Y-55068917D01*
X56582828Y-55147011D01*
X56581980Y-55215613D01*
X56579445Y-55269740D01*
X56577520Y-55289592D01*
X56559577Y-55358743D01*
X56525791Y-55409012D01*
X56476889Y-55439442D01*
X56460368Y-55444328D01*
X56428725Y-55455318D01*
X56409964Y-55468414D01*
X56408594Y-55470970D01*
X56412523Y-55476297D01*
X56429902Y-55480356D01*
X56463109Y-55483280D01*
X56514522Y-55485206D01*
X56586518Y-55486267D01*
X56681478Y-55486599D01*
X56683842Y-55486600D01*
X56780246Y-55486049D01*
X56858241Y-55484447D01*
X56916080Y-55481874D01*
X56952015Y-55478405D01*
X56964300Y-55474141D01*
X56953388Y-55462884D01*
X56929375Y-55454542D01*
X56868055Y-55433579D01*
X56823902Y-55397561D01*
X56806186Y-55372169D01*
X56798323Y-55357435D01*
X56792221Y-55341088D01*
X56787658Y-55319882D01*
X56784412Y-55290572D01*
X56782260Y-55249910D01*
X56780983Y-55194653D01*
X56780356Y-55121552D01*
X56780159Y-55027364D01*
X56780150Y-54991300D01*
X56780516Y-54898778D01*
X56781547Y-54812416D01*
X56783140Y-54736150D01*
X56785196Y-54673914D01*
X56787613Y-54629643D01*
X56789984Y-54608548D01*
X56813074Y-54554737D01*
X56853611Y-54513470D01*
X56905571Y-54490800D01*
X56907542Y-54490414D01*
X56936690Y-54482148D01*
X56951230Y-54472543D01*
X56951600Y-54471033D01*
X56947656Y-54464147D01*
X56933644Y-54457993D01*
X56906295Y-54451953D01*
X56862340Y-54445410D01*
X56798512Y-54437747D01*
X56743668Y-54431750D01*
X56679244Y-54425095D01*
X56635603Y-54423012D01*
X56608223Y-54427851D01*
X56592583Y-54441962D01*
X56584165Y-54467694D01*
X56578446Y-54507398D01*
X56577089Y-54518341D01*
X56568438Y-54587580D01*
X56534594Y-54556533D01*
X56448176Y-54492390D01*
X56352127Y-54447642D01*
X56251183Y-54423570D01*
X56150076Y-54421458D01*
X56081650Y-54433758D01*
X56081650Y-54433758D01*
G37*
X56081650Y-54433758D02*
X56035419Y-54455481D01*
X55982293Y-54498080D01*
X55959616Y-54520278D01*
X55888382Y-54592982D01*
X55826266Y-54542679D01*
X55778185Y-54507972D01*
X55723490Y-54474493D01*
X55694300Y-54459262D01*
X55657556Y-54443416D01*
X55623332Y-54433542D01*
X55583623Y-54428294D01*
X55530427Y-54426325D01*
X55497450Y-54426150D01*
X55416299Y-54429287D01*
X55353600Y-54440162D01*
X55303021Y-54460963D01*
X55258227Y-54493881D01*
X55234599Y-54517061D01*
X55212767Y-54541675D01*
X55195702Y-54566362D01*
X55182814Y-54594564D01*
X55173508Y-54629720D01*
X55167195Y-54675269D01*
X55163280Y-54734653D01*
X55161173Y-54811312D01*
X55160281Y-54908684D01*
X55160143Y-54949617D01*
X55159509Y-55038561D01*
X55158144Y-55122449D01*
X55156182Y-55196796D01*
X55153755Y-55257122D01*
X55150995Y-55298944D01*
X55149418Y-55312229D01*
X55128959Y-55375069D01*
X55091652Y-55419330D01*
X55038113Y-55444288D01*
X55036730Y-55444621D01*
X55005527Y-55455600D01*
X54987309Y-55468765D01*
X54986194Y-55470970D01*
X54990123Y-55476297D01*
X55007502Y-55480356D01*
X55040709Y-55483280D01*
X55092122Y-55485206D01*
X55164118Y-55486267D01*
X55259078Y-55486599D01*
X55261442Y-55486600D01*
X55363153Y-55486058D01*
X55440764Y-55484333D01*
X55495558Y-55481276D01*
X55528813Y-55476738D01*
X55541810Y-55470568D01*
X55535829Y-55462617D01*
X55521812Y-55456208D01*
X55491379Y-55449420D01*
X55477562Y-55448500D01*
X55453084Y-55440385D01*
X55422357Y-55420231D01*
X55414500Y-55413575D01*
X55395251Y-55391671D01*
X55380190Y-55362557D01*
X55368866Y-55323231D01*
X55360827Y-55270696D01*
X55355623Y-55201951D01*
X55352802Y-55113998D01*
X55351913Y-55003837D01*
X55351911Y-54997650D01*
X55353575Y-54868517D01*
X55359155Y-54762348D01*
X55369534Y-54676887D01*
X55385594Y-54609880D01*
X55408218Y-54559071D01*
X55438289Y-54522206D01*
X55476690Y-54497030D01*
X55524303Y-54481288D01*
X55556258Y-54475623D01*
X55637333Y-54476126D01*
X55709859Y-54499736D01*
X55771235Y-54544863D01*
X55818859Y-54609920D01*
X55835389Y-54645991D01*
X55845339Y-54674229D01*
X55852870Y-54703571D01*
X55858445Y-54738423D01*
X55862523Y-54783189D01*
X55865569Y-54842275D01*
X55868042Y-54920085D01*
X55869245Y-54968940D01*
X55870630Y-55051538D01*
X55870978Y-55130304D01*
X55870340Y-55199851D01*
X55868765Y-55254790D01*
X55866302Y-55289733D01*
X55866300Y-55289746D01*
X55848354Y-55358811D01*
X55814545Y-55409049D01*
X55765627Y-55439463D01*
X55749168Y-55444328D01*
X55717525Y-55455318D01*
X55698764Y-55468414D01*
X55697394Y-55470970D01*
X55701323Y-55476297D01*
X55718702Y-55480356D01*
X55751909Y-55483280D01*
X55803322Y-55485206D01*
X55875318Y-55486267D01*
X55970278Y-55486599D01*
X55972642Y-55486600D01*
X56069046Y-55486049D01*
X56147041Y-55484447D01*
X56204880Y-55481874D01*
X56240815Y-55478405D01*
X56253100Y-55474141D01*
X56242188Y-55462884D01*
X56218175Y-55454542D01*
X56156359Y-55433338D01*
X56112250Y-55397177D01*
X56096237Y-55374051D01*
X56087366Y-55356109D01*
X56080628Y-55334163D01*
X56075598Y-55304261D01*
X56071850Y-55262453D01*
X56068959Y-55204788D01*
X56066501Y-55127313D01*
X56065508Y-55088431D01*
X56064164Y-54952102D01*
X56067103Y-54833362D01*
X56074185Y-54733946D01*
X56085268Y-54655592D01*
X56100211Y-54600035D01*
X56106241Y-54586466D01*
X56143281Y-54540858D01*
X56197303Y-54508043D01*
X56262251Y-54490114D01*
X56332069Y-54489165D01*
X56367934Y-54495982D01*
X56419629Y-54519899D01*
X56472115Y-54560906D01*
X56518210Y-54611978D01*
X56550733Y-54666089D01*
X56556201Y-54680150D01*
X56562273Y-54710523D01*
X56567880Y-54761311D01*
X56572847Y-54827528D01*
X56576999Y-54904191D01*
X56580163Y-54986316D01*
X56582164Y-55068917D01*
X56582828Y-55147011D01*
X56581980Y-55215613D01*
X56579445Y-55269740D01*
X56577520Y-55289592D01*
X56559577Y-55358743D01*
X56525791Y-55409012D01*
X56476889Y-55439442D01*
X56460368Y-55444328D01*
X56428725Y-55455318D01*
X56409964Y-55468414D01*
X56408594Y-55470970D01*
X56412523Y-55476297D01*
X56429902Y-55480356D01*
X56463109Y-55483280D01*
X56514522Y-55485206D01*
X56586518Y-55486267D01*
X56681478Y-55486599D01*
X56683842Y-55486600D01*
X56780246Y-55486049D01*
X56858241Y-55484447D01*
X56916080Y-55481874D01*
X56952015Y-55478405D01*
X56964300Y-55474141D01*
X56953388Y-55462884D01*
X56929375Y-55454542D01*
X56868055Y-55433579D01*
X56823902Y-55397561D01*
X56806186Y-55372169D01*
X56798323Y-55357435D01*
X56792221Y-55341088D01*
X56787658Y-55319882D01*
X56784412Y-55290572D01*
X56782260Y-55249910D01*
X56780983Y-55194653D01*
X56780356Y-55121552D01*
X56780159Y-55027364D01*
X56780150Y-54991300D01*
X56780516Y-54898778D01*
X56781547Y-54812416D01*
X56783140Y-54736150D01*
X56785196Y-54673914D01*
X56787613Y-54629643D01*
X56789984Y-54608548D01*
X56813074Y-54554737D01*
X56853611Y-54513470D01*
X56905571Y-54490800D01*
X56907542Y-54490414D01*
X56936690Y-54482148D01*
X56951230Y-54472543D01*
X56951600Y-54471033D01*
X56947656Y-54464147D01*
X56933644Y-54457993D01*
X56906295Y-54451953D01*
X56862340Y-54445410D01*
X56798512Y-54437747D01*
X56743668Y-54431750D01*
X56679244Y-54425095D01*
X56635603Y-54423012D01*
X56608223Y-54427851D01*
X56592583Y-54441962D01*
X56584165Y-54467694D01*
X56578446Y-54507398D01*
X56577089Y-54518341D01*
X56568438Y-54587580D01*
X56534594Y-54556533D01*
X56448176Y-54492390D01*
X56352127Y-54447642D01*
X56251183Y-54423570D01*
X56150076Y-54421458D01*
X56081650Y-54433758D01*
G36*
X58472495Y-53759263D02*
G01*
X58470086Y-53796414D01*
X58468002Y-53857338D01*
X58466255Y-53941226D01*
X58464860Y-54047265D01*
X58463828Y-54174643D01*
X58463172Y-54322548D01*
X58462906Y-54490169D01*
X58462900Y-54519812D01*
X58462773Y-54658746D01*
X58462406Y-54790954D01*
X58461821Y-54914104D01*
X58461042Y-55025868D01*
X58460090Y-55123915D01*
X58458990Y-55205915D01*
X58457763Y-55269537D01*
X58456431Y-55312452D01*
X58455019Y-55332330D01*
X58454999Y-55332432D01*
X58432594Y-55382489D01*
X58389578Y-55422535D01*
X58336298Y-55446880D01*
X58302820Y-55458349D01*
X58287700Y-55467551D01*
X58292053Y-55474686D01*
X58316998Y-55479954D01*
X58363650Y-55483555D01*
X58433126Y-55485690D01*
X58526543Y-55486557D01*
X58558150Y-55486600D01*
X58650007Y-55486048D01*
X58725478Y-55484462D01*
X58782326Y-55481940D01*
X58818310Y-55478583D01*
X58831194Y-55474491D01*
X58831200Y-55474389D01*
X58820183Y-55463692D01*
X58792744Y-55452086D01*
X58782748Y-55449132D01*
X58732508Y-55427942D01*
X58697611Y-55393375D01*
X58674933Y-55341312D01*
X58664869Y-55293623D01*
X58661975Y-55261170D01*
X58659563Y-55205271D01*
X58657656Y-55127874D01*
X58656279Y-55030931D01*
X58655456Y-54916389D01*
X58655212Y-54786200D01*
X58655572Y-54642312D01*
X58655913Y-54577497D01*
X58656814Y-54434110D01*
X58657698Y-54313897D01*
X58658662Y-54214633D01*
X58659804Y-54134093D01*
X58661222Y-54070051D01*
X58663013Y-54020282D01*
X58665276Y-53982562D01*
X58668108Y-53954663D01*
X58671607Y-53934362D01*
X58675871Y-53919433D01*
X58680997Y-53907650D01*
X58685723Y-53899100D01*
X58718590Y-53860581D01*
X58765098Y-53837569D01*
X58803036Y-53822149D01*
X58817036Y-53808283D01*
X58806634Y-53796824D01*
X58789925Y-53791765D01*
X58765935Y-53787467D01*
X58724850Y-53780980D01*
X58673010Y-53773213D01*
X58616754Y-53765072D01*
X58562422Y-53757466D01*
X58516352Y-53751302D01*
X58484885Y-53747488D01*
X58475216Y-53746700D01*
X58472495Y-53759263D01*
X58472495Y-53759263D01*
G37*
X58472495Y-53759263D02*
X58470086Y-53796414D01*
X58468002Y-53857338D01*
X58466255Y-53941226D01*
X58464860Y-54047265D01*
X58463828Y-54174643D01*
X58463172Y-54322548D01*
X58462906Y-54490169D01*
X58462900Y-54519812D01*
X58462773Y-54658746D01*
X58462406Y-54790954D01*
X58461821Y-54914104D01*
X58461042Y-55025868D01*
X58460090Y-55123915D01*
X58458990Y-55205915D01*
X58457763Y-55269537D01*
X58456431Y-55312452D01*
X58455019Y-55332330D01*
X58454999Y-55332432D01*
X58432594Y-55382489D01*
X58389578Y-55422535D01*
X58336298Y-55446880D01*
X58302820Y-55458349D01*
X58287700Y-55467551D01*
X58292053Y-55474686D01*
X58316998Y-55479954D01*
X58363650Y-55483555D01*
X58433126Y-55485690D01*
X58526543Y-55486557D01*
X58558150Y-55486600D01*
X58650007Y-55486048D01*
X58725478Y-55484462D01*
X58782326Y-55481940D01*
X58818310Y-55478583D01*
X58831194Y-55474491D01*
X58831200Y-55474389D01*
X58820183Y-55463692D01*
X58792744Y-55452086D01*
X58782748Y-55449132D01*
X58732508Y-55427942D01*
X58697611Y-55393375D01*
X58674933Y-55341312D01*
X58664869Y-55293623D01*
X58661975Y-55261170D01*
X58659563Y-55205271D01*
X58657656Y-55127874D01*
X58656279Y-55030931D01*
X58655456Y-54916389D01*
X58655212Y-54786200D01*
X58655572Y-54642312D01*
X58655913Y-54577497D01*
X58656814Y-54434110D01*
X58657698Y-54313897D01*
X58658662Y-54214633D01*
X58659804Y-54134093D01*
X58661222Y-54070051D01*
X58663013Y-54020282D01*
X58665276Y-53982562D01*
X58668108Y-53954663D01*
X58671607Y-53934362D01*
X58675871Y-53919433D01*
X58680997Y-53907650D01*
X58685723Y-53899100D01*
X58718590Y-53860581D01*
X58765098Y-53837569D01*
X58803036Y-53822149D01*
X58817036Y-53808283D01*
X58806634Y-53796824D01*
X58789925Y-53791765D01*
X58765935Y-53787467D01*
X58724850Y-53780980D01*
X58673010Y-53773213D01*
X58616754Y-53765072D01*
X58562422Y-53757466D01*
X58516352Y-53751302D01*
X58484885Y-53747488D01*
X58475216Y-53746700D01*
X58472495Y-53759263D01*
G36*
X42181070Y-54427947D02*
G01*
X42129202Y-54430769D01*
X42088789Y-54436576D01*
X42052872Y-54446268D01*
X42024885Y-54456555D01*
X41948699Y-54494768D01*
X41892098Y-54540483D01*
X41857543Y-54591544D01*
X41851680Y-54608169D01*
X41848061Y-54633854D01*
X41844853Y-54681178D01*
X41842184Y-54746379D01*
X41840182Y-54825699D01*
X41838976Y-54915375D01*
X41838671Y-54988532D01*
X41838290Y-55102003D01*
X41836909Y-55192849D01*
X41834095Y-55263841D01*
X41829415Y-55317747D01*
X41822433Y-55357338D01*
X41812717Y-55385381D01*
X41799833Y-55404648D01*
X41783347Y-55417907D01*
X41770347Y-55424683D01*
X41724393Y-55432656D01*
X41677314Y-55419146D01*
X41647777Y-55397376D01*
X41623407Y-55378290D01*
X41604317Y-55372074D01*
X41597300Y-55379865D01*
X41603112Y-55394912D01*
X41617322Y-55421711D01*
X41619525Y-55425524D01*
X41658191Y-55468002D01*
X41714219Y-55497559D01*
X41781657Y-55511348D01*
X41800402Y-55512000D01*
X41874183Y-55504016D01*
X41934328Y-55477978D01*
X41987754Y-55430756D01*
X41992867Y-55424895D01*
X42037642Y-55372586D01*
X42065771Y-55402528D01*
X42092894Y-55425484D01*
X42132298Y-55452240D01*
X42159768Y-55468320D01*
X42201681Y-55488326D01*
X42242763Y-55500144D01*
X42293360Y-55506219D01*
X42327393Y-55507941D01*
X42410468Y-55506570D01*
X42471418Y-55495358D01*
X42479572Y-55492502D01*
X42549296Y-55453789D01*
X42600182Y-55399179D01*
X42630468Y-55331184D01*
X42636174Y-55285712D01*
X42413143Y-55285712D01*
X42404335Y-55350357D01*
X42381067Y-55404556D01*
X42368051Y-55421313D01*
X42323361Y-55457798D01*
X42275653Y-55471460D01*
X42220507Y-55462993D01*
X42186852Y-55449816D01*
X42137944Y-55420759D01*
X42100396Y-55381562D01*
X42073106Y-55329310D01*
X42054977Y-55261087D01*
X42044908Y-55173977D01*
X42041800Y-55065194D01*
X42042842Y-54989821D01*
X42046159Y-54938377D01*
X42052044Y-54909471D01*
X42060787Y-54901710D01*
X42072680Y-54913702D01*
X42073259Y-54914628D01*
X42086765Y-54925790D01*
X42117372Y-54946403D01*
X42160161Y-54973260D01*
X42197834Y-54995892D01*
X42265305Y-55037396D01*
X42314168Y-55072114D01*
X42348894Y-55103874D01*
X42373953Y-55136500D01*
X42385337Y-55156400D01*
X42406981Y-55218450D01*
X42413143Y-55285712D01*
X42636174Y-55285712D01*
X42638700Y-55265584D01*
X42630776Y-55194162D01*
X42605152Y-55135826D01*
X42577568Y-55101261D01*
X42547662Y-55073882D01*
X42511501Y-55050210D01*
X42464483Y-55028095D01*
X42402002Y-55005389D01*
X42319455Y-54979944D01*
X42314638Y-54978538D01*
X42240565Y-54956333D01*
X42186293Y-54938102D01*
X42146990Y-54921628D01*
X42117824Y-54904693D01*
X42093962Y-54885079D01*
X42079900Y-54870802D01*
X42065089Y-54852959D01*
X42055760Y-54833809D01*
X42050663Y-54807171D01*
X42048544Y-54766863D01*
X42048150Y-54714020D01*
X42049187Y-54651448D01*
X42052976Y-54607566D01*
X42060535Y-54575723D01*
X42072883Y-54549268D01*
X42073550Y-54548127D01*
X42117760Y-54493239D01*
X42171367Y-54459506D01*
X42230746Y-54448243D01*
X42292269Y-54460764D01*
X42302328Y-54465185D01*
X42332484Y-54483614D01*
X42356103Y-54510106D01*
X42379124Y-54551868D01*
X42386030Y-54566746D01*
X42413707Y-54622989D01*
X42437958Y-54658944D01*
X42462742Y-54678627D01*
X42492016Y-54686053D01*
X42504044Y-54686500D01*
X42548556Y-54675820D01*
X42580577Y-54647786D01*
X42597586Y-54608405D01*
X42597065Y-54563681D01*
X42576493Y-54519621D01*
X42574911Y-54517567D01*
X42549013Y-54495028D01*
X42509030Y-54471008D01*
X42476486Y-54456057D01*
X42439749Y-54443071D01*
X42403242Y-54434583D01*
X42360055Y-54429708D01*
X42303278Y-54427561D01*
X42251350Y-54427207D01*
X42181070Y-54427947D01*
X42181070Y-54427947D01*
G37*
X42181070Y-54427947D02*
X42129202Y-54430769D01*
X42088789Y-54436576D01*
X42052872Y-54446268D01*
X42024885Y-54456555D01*
X41948699Y-54494768D01*
X41892098Y-54540483D01*
X41857543Y-54591544D01*
X41851680Y-54608169D01*
X41848061Y-54633854D01*
X41844853Y-54681178D01*
X41842184Y-54746379D01*
X41840182Y-54825699D01*
X41838976Y-54915375D01*
X41838671Y-54988532D01*
X41838290Y-55102003D01*
X41836909Y-55192849D01*
X41834095Y-55263841D01*
X41829415Y-55317747D01*
X41822433Y-55357338D01*
X41812717Y-55385381D01*
X41799833Y-55404648D01*
X41783347Y-55417907D01*
X41770347Y-55424683D01*
X41724393Y-55432656D01*
X41677314Y-55419146D01*
X41647777Y-55397376D01*
X41623407Y-55378290D01*
X41604317Y-55372074D01*
X41597300Y-55379865D01*
X41603112Y-55394912D01*
X41617322Y-55421711D01*
X41619525Y-55425524D01*
X41658191Y-55468002D01*
X41714219Y-55497559D01*
X41781657Y-55511348D01*
X41800402Y-55512000D01*
X41874183Y-55504016D01*
X41934328Y-55477978D01*
X41987754Y-55430756D01*
X41992867Y-55424895D01*
X42037642Y-55372586D01*
X42065771Y-55402528D01*
X42092894Y-55425484D01*
X42132298Y-55452240D01*
X42159768Y-55468320D01*
X42201681Y-55488326D01*
X42242763Y-55500144D01*
X42293360Y-55506219D01*
X42327393Y-55507941D01*
X42410468Y-55506570D01*
X42471418Y-55495358D01*
X42479572Y-55492502D01*
X42549296Y-55453789D01*
X42600182Y-55399179D01*
X42630468Y-55331184D01*
X42636174Y-55285712D01*
X42413143Y-55285712D01*
X42404335Y-55350357D01*
X42381067Y-55404556D01*
X42368051Y-55421313D01*
X42323361Y-55457798D01*
X42275653Y-55471460D01*
X42220507Y-55462993D01*
X42186852Y-55449816D01*
X42137944Y-55420759D01*
X42100396Y-55381562D01*
X42073106Y-55329310D01*
X42054977Y-55261087D01*
X42044908Y-55173977D01*
X42041800Y-55065194D01*
X42042842Y-54989821D01*
X42046159Y-54938377D01*
X42052044Y-54909471D01*
X42060787Y-54901710D01*
X42072680Y-54913702D01*
X42073259Y-54914628D01*
X42086765Y-54925790D01*
X42117372Y-54946403D01*
X42160161Y-54973260D01*
X42197834Y-54995892D01*
X42265305Y-55037396D01*
X42314168Y-55072114D01*
X42348894Y-55103874D01*
X42373953Y-55136500D01*
X42385337Y-55156400D01*
X42406981Y-55218450D01*
X42413143Y-55285712D01*
X42636174Y-55285712D01*
X42638700Y-55265584D01*
X42630776Y-55194162D01*
X42605152Y-55135826D01*
X42577568Y-55101261D01*
X42547662Y-55073882D01*
X42511501Y-55050210D01*
X42464483Y-55028095D01*
X42402002Y-55005389D01*
X42319455Y-54979944D01*
X42314638Y-54978538D01*
X42240565Y-54956333D01*
X42186293Y-54938102D01*
X42146990Y-54921628D01*
X42117824Y-54904693D01*
X42093962Y-54885079D01*
X42079900Y-54870802D01*
X42065089Y-54852959D01*
X42055760Y-54833809D01*
X42050663Y-54807171D01*
X42048544Y-54766863D01*
X42048150Y-54714020D01*
X42049187Y-54651448D01*
X42052976Y-54607566D01*
X42060535Y-54575723D01*
X42072883Y-54549268D01*
X42073550Y-54548127D01*
X42117760Y-54493239D01*
X42171367Y-54459506D01*
X42230746Y-54448243D01*
X42292269Y-54460764D01*
X42302328Y-54465185D01*
X42332484Y-54483614D01*
X42356103Y-54510106D01*
X42379124Y-54551868D01*
X42386030Y-54566746D01*
X42413707Y-54622989D01*
X42437958Y-54658944D01*
X42462742Y-54678627D01*
X42492016Y-54686053D01*
X42504044Y-54686500D01*
X42548556Y-54675820D01*
X42580577Y-54647786D01*
X42597586Y-54608405D01*
X42597065Y-54563681D01*
X42576493Y-54519621D01*
X42574911Y-54517567D01*
X42549013Y-54495028D01*
X42509030Y-54471008D01*
X42476486Y-54456057D01*
X42439749Y-54443071D01*
X42403242Y-54434583D01*
X42360055Y-54429708D01*
X42303278Y-54427561D01*
X42251350Y-54427207D01*
X42181070Y-54427947D01*
G36*
X44949670Y-54427947D02*
G01*
X44897802Y-54430769D01*
X44857389Y-54436576D01*
X44821472Y-54446268D01*
X44793485Y-54456555D01*
X44717299Y-54494768D01*
X44660698Y-54540483D01*
X44626143Y-54591544D01*
X44620280Y-54608169D01*
X44616661Y-54633854D01*
X44613453Y-54681178D01*
X44610784Y-54746379D01*
X44608782Y-54825699D01*
X44607576Y-54915375D01*
X44607271Y-54988532D01*
X44606890Y-55102003D01*
X44605509Y-55192849D01*
X44602695Y-55263841D01*
X44598015Y-55317747D01*
X44591033Y-55357338D01*
X44581317Y-55385381D01*
X44568433Y-55404648D01*
X44551947Y-55417907D01*
X44538947Y-55424683D01*
X44492993Y-55432656D01*
X44445914Y-55419146D01*
X44416377Y-55397376D01*
X44392007Y-55378290D01*
X44372917Y-55372074D01*
X44365900Y-55379865D01*
X44371712Y-55394912D01*
X44385922Y-55421711D01*
X44388125Y-55425524D01*
X44426791Y-55468002D01*
X44482819Y-55497559D01*
X44550257Y-55511348D01*
X44569002Y-55512000D01*
X44642783Y-55504016D01*
X44702928Y-55477978D01*
X44756354Y-55430756D01*
X44761467Y-55424895D01*
X44806242Y-55372586D01*
X44834371Y-55402528D01*
X44861494Y-55425484D01*
X44900898Y-55452240D01*
X44928368Y-55468320D01*
X44970281Y-55488326D01*
X45011363Y-55500144D01*
X45061960Y-55506219D01*
X45095993Y-55507941D01*
X45179068Y-55506570D01*
X45240018Y-55495358D01*
X45248172Y-55492502D01*
X45317896Y-55453789D01*
X45368782Y-55399179D01*
X45399068Y-55331184D01*
X45404774Y-55285712D01*
X45181743Y-55285712D01*
X45172935Y-55350357D01*
X45149667Y-55404556D01*
X45136651Y-55421313D01*
X45091961Y-55457798D01*
X45044253Y-55471460D01*
X44989107Y-55462993D01*
X44955452Y-55449816D01*
X44906544Y-55420759D01*
X44868996Y-55381562D01*
X44841706Y-55329310D01*
X44823577Y-55261087D01*
X44813508Y-55173977D01*
X44810400Y-55065194D01*
X44811442Y-54989821D01*
X44814759Y-54938377D01*
X44820644Y-54909471D01*
X44829387Y-54901710D01*
X44841280Y-54913702D01*
X44841859Y-54914628D01*
X44855365Y-54925790D01*
X44885972Y-54946403D01*
X44928761Y-54973260D01*
X44966434Y-54995892D01*
X45033905Y-55037396D01*
X45082768Y-55072114D01*
X45117494Y-55103874D01*
X45142553Y-55136500D01*
X45153937Y-55156400D01*
X45175581Y-55218450D01*
X45181743Y-55285712D01*
X45404774Y-55285712D01*
X45407300Y-55265584D01*
X45399376Y-55194162D01*
X45373752Y-55135826D01*
X45346168Y-55101261D01*
X45316262Y-55073882D01*
X45280101Y-55050210D01*
X45233083Y-55028095D01*
X45170602Y-55005389D01*
X45088055Y-54979944D01*
X45083238Y-54978538D01*
X45009165Y-54956333D01*
X44954893Y-54938102D01*
X44915590Y-54921628D01*
X44886424Y-54904693D01*
X44862562Y-54885079D01*
X44848500Y-54870802D01*
X44833689Y-54852959D01*
X44824360Y-54833809D01*
X44819263Y-54807171D01*
X44817144Y-54766863D01*
X44816750Y-54714020D01*
X44817787Y-54651448D01*
X44821576Y-54607566D01*
X44829135Y-54575723D01*
X44841483Y-54549268D01*
X44842150Y-54548127D01*
X44886360Y-54493239D01*
X44939967Y-54459506D01*
X44999346Y-54448243D01*
X45060869Y-54460764D01*
X45070928Y-54465185D01*
X45101084Y-54483614D01*
X45124703Y-54510106D01*
X45147724Y-54551868D01*
X45154630Y-54566746D01*
X45182307Y-54622989D01*
X45206558Y-54658944D01*
X45231342Y-54678627D01*
X45260616Y-54686053D01*
X45272644Y-54686500D01*
X45317156Y-54675820D01*
X45349177Y-54647786D01*
X45366186Y-54608405D01*
X45365665Y-54563681D01*
X45345093Y-54519621D01*
X45343511Y-54517567D01*
X45317613Y-54495028D01*
X45277630Y-54471008D01*
X45245086Y-54456057D01*
X45208349Y-54443071D01*
X45171842Y-54434583D01*
X45128655Y-54429708D01*
X45071878Y-54427561D01*
X45019950Y-54427207D01*
X44949670Y-54427947D01*
X44949670Y-54427947D01*
G37*
X44949670Y-54427947D02*
X44897802Y-54430769D01*
X44857389Y-54436576D01*
X44821472Y-54446268D01*
X44793485Y-54456555D01*
X44717299Y-54494768D01*
X44660698Y-54540483D01*
X44626143Y-54591544D01*
X44620280Y-54608169D01*
X44616661Y-54633854D01*
X44613453Y-54681178D01*
X44610784Y-54746379D01*
X44608782Y-54825699D01*
X44607576Y-54915375D01*
X44607271Y-54988532D01*
X44606890Y-55102003D01*
X44605509Y-55192849D01*
X44602695Y-55263841D01*
X44598015Y-55317747D01*
X44591033Y-55357338D01*
X44581317Y-55385381D01*
X44568433Y-55404648D01*
X44551947Y-55417907D01*
X44538947Y-55424683D01*
X44492993Y-55432656D01*
X44445914Y-55419146D01*
X44416377Y-55397376D01*
X44392007Y-55378290D01*
X44372917Y-55372074D01*
X44365900Y-55379865D01*
X44371712Y-55394912D01*
X44385922Y-55421711D01*
X44388125Y-55425524D01*
X44426791Y-55468002D01*
X44482819Y-55497559D01*
X44550257Y-55511348D01*
X44569002Y-55512000D01*
X44642783Y-55504016D01*
X44702928Y-55477978D01*
X44756354Y-55430756D01*
X44761467Y-55424895D01*
X44806242Y-55372586D01*
X44834371Y-55402528D01*
X44861494Y-55425484D01*
X44900898Y-55452240D01*
X44928368Y-55468320D01*
X44970281Y-55488326D01*
X45011363Y-55500144D01*
X45061960Y-55506219D01*
X45095993Y-55507941D01*
X45179068Y-55506570D01*
X45240018Y-55495358D01*
X45248172Y-55492502D01*
X45317896Y-55453789D01*
X45368782Y-55399179D01*
X45399068Y-55331184D01*
X45404774Y-55285712D01*
X45181743Y-55285712D01*
X45172935Y-55350357D01*
X45149667Y-55404556D01*
X45136651Y-55421313D01*
X45091961Y-55457798D01*
X45044253Y-55471460D01*
X44989107Y-55462993D01*
X44955452Y-55449816D01*
X44906544Y-55420759D01*
X44868996Y-55381562D01*
X44841706Y-55329310D01*
X44823577Y-55261087D01*
X44813508Y-55173977D01*
X44810400Y-55065194D01*
X44811442Y-54989821D01*
X44814759Y-54938377D01*
X44820644Y-54909471D01*
X44829387Y-54901710D01*
X44841280Y-54913702D01*
X44841859Y-54914628D01*
X44855365Y-54925790D01*
X44885972Y-54946403D01*
X44928761Y-54973260D01*
X44966434Y-54995892D01*
X45033905Y-55037396D01*
X45082768Y-55072114D01*
X45117494Y-55103874D01*
X45142553Y-55136500D01*
X45153937Y-55156400D01*
X45175581Y-55218450D01*
X45181743Y-55285712D01*
X45404774Y-55285712D01*
X45407300Y-55265584D01*
X45399376Y-55194162D01*
X45373752Y-55135826D01*
X45346168Y-55101261D01*
X45316262Y-55073882D01*
X45280101Y-55050210D01*
X45233083Y-55028095D01*
X45170602Y-55005389D01*
X45088055Y-54979944D01*
X45083238Y-54978538D01*
X45009165Y-54956333D01*
X44954893Y-54938102D01*
X44915590Y-54921628D01*
X44886424Y-54904693D01*
X44862562Y-54885079D01*
X44848500Y-54870802D01*
X44833689Y-54852959D01*
X44824360Y-54833809D01*
X44819263Y-54807171D01*
X44817144Y-54766863D01*
X44816750Y-54714020D01*
X44817787Y-54651448D01*
X44821576Y-54607566D01*
X44829135Y-54575723D01*
X44841483Y-54549268D01*
X44842150Y-54548127D01*
X44886360Y-54493239D01*
X44939967Y-54459506D01*
X44999346Y-54448243D01*
X45060869Y-54460764D01*
X45070928Y-54465185D01*
X45101084Y-54483614D01*
X45124703Y-54510106D01*
X45147724Y-54551868D01*
X45154630Y-54566746D01*
X45182307Y-54622989D01*
X45206558Y-54658944D01*
X45231342Y-54678627D01*
X45260616Y-54686053D01*
X45272644Y-54686500D01*
X45317156Y-54675820D01*
X45349177Y-54647786D01*
X45366186Y-54608405D01*
X45365665Y-54563681D01*
X45345093Y-54519621D01*
X45343511Y-54517567D01*
X45317613Y-54495028D01*
X45277630Y-54471008D01*
X45245086Y-54456057D01*
X45208349Y-54443071D01*
X45171842Y-54434583D01*
X45128655Y-54429708D01*
X45071878Y-54427561D01*
X45019950Y-54427207D01*
X44949670Y-54427947D01*
G36*
X47261290Y-54105262D02*
G01*
X47255354Y-54113929D01*
X47251641Y-54134374D01*
X47249651Y-54170430D01*
X47248883Y-54225927D01*
X47248800Y-54266468D01*
X47248800Y-54432500D01*
X47090050Y-54432500D01*
X47022803Y-54432949D01*
X46977124Y-54434604D01*
X46949194Y-54437922D01*
X46935193Y-54443361D01*
X46931301Y-54451381D01*
X46931300Y-54451550D01*
X46935038Y-54459599D01*
X46948790Y-54465074D01*
X46976367Y-54468430D01*
X47021582Y-54470120D01*
X47088243Y-54470599D01*
X47090962Y-54470600D01*
X47250624Y-54470599D01*
X47246537Y-54892875D01*
X47245348Y-55008154D01*
X47244124Y-55100898D01*
X47242679Y-55173974D01*
X47240828Y-55230246D01*
X47238385Y-55272579D01*
X47235163Y-55303838D01*
X47230977Y-55326889D01*
X47225640Y-55344597D01*
X47218968Y-55359827D01*
X47215840Y-55365950D01*
X47186728Y-55406792D01*
X47145286Y-55434626D01*
X47131671Y-55440680D01*
X47066549Y-55457991D01*
X47008755Y-55451503D01*
X46955405Y-55420574D01*
X46929530Y-55395781D01*
X46899002Y-55367604D01*
X46879528Y-55358109D01*
X46874025Y-55365849D01*
X46885412Y-55389380D01*
X46901063Y-55409881D01*
X46946995Y-55453618D01*
X47001599Y-55483189D01*
X47070068Y-55500606D01*
X47153550Y-55507757D01*
X47220680Y-55507769D01*
X47274099Y-55503382D01*
X47305950Y-55495882D01*
X47338721Y-55482302D01*
X47365630Y-55469343D01*
X47387255Y-55454496D01*
X47404173Y-55435251D01*
X47416963Y-55409099D01*
X47426200Y-55373530D01*
X47432462Y-55326035D01*
X47436326Y-55264104D01*
X47438370Y-55185229D01*
X47439170Y-55086899D01*
X47439304Y-54966605D01*
X47439300Y-54916141D01*
X47439300Y-54471867D01*
X47512325Y-54468058D01*
X47585350Y-54464250D01*
X47511764Y-54422549D01*
X47445266Y-54374993D01*
X47390151Y-54312597D01*
X47343013Y-54231108D01*
X47323924Y-54188114D01*
X47303134Y-54144572D01*
X47283302Y-54114800D01*
X47269949Y-54104543D01*
X47261290Y-54105262D01*
X47261290Y-54105262D01*
G37*
X47261290Y-54105262D02*
X47255354Y-54113929D01*
X47251641Y-54134374D01*
X47249651Y-54170430D01*
X47248883Y-54225927D01*
X47248800Y-54266468D01*
X47248800Y-54432500D01*
X47090050Y-54432500D01*
X47022803Y-54432949D01*
X46977124Y-54434604D01*
X46949194Y-54437922D01*
X46935193Y-54443361D01*
X46931301Y-54451381D01*
X46931300Y-54451550D01*
X46935038Y-54459599D01*
X46948790Y-54465074D01*
X46976367Y-54468430D01*
X47021582Y-54470120D01*
X47088243Y-54470599D01*
X47090962Y-54470600D01*
X47250624Y-54470599D01*
X47246537Y-54892875D01*
X47245348Y-55008154D01*
X47244124Y-55100898D01*
X47242679Y-55173974D01*
X47240828Y-55230246D01*
X47238385Y-55272579D01*
X47235163Y-55303838D01*
X47230977Y-55326889D01*
X47225640Y-55344597D01*
X47218968Y-55359827D01*
X47215840Y-55365950D01*
X47186728Y-55406792D01*
X47145286Y-55434626D01*
X47131671Y-55440680D01*
X47066549Y-55457991D01*
X47008755Y-55451503D01*
X46955405Y-55420574D01*
X46929530Y-55395781D01*
X46899002Y-55367604D01*
X46879528Y-55358109D01*
X46874025Y-55365849D01*
X46885412Y-55389380D01*
X46901063Y-55409881D01*
X46946995Y-55453618D01*
X47001599Y-55483189D01*
X47070068Y-55500606D01*
X47153550Y-55507757D01*
X47220680Y-55507769D01*
X47274099Y-55503382D01*
X47305950Y-55495882D01*
X47338721Y-55482302D01*
X47365630Y-55469343D01*
X47387255Y-55454496D01*
X47404173Y-55435251D01*
X47416963Y-55409099D01*
X47426200Y-55373530D01*
X47432462Y-55326035D01*
X47436326Y-55264104D01*
X47438370Y-55185229D01*
X47439170Y-55086899D01*
X47439304Y-54966605D01*
X47439300Y-54916141D01*
X47439300Y-54471867D01*
X47512325Y-54468058D01*
X47585350Y-54464250D01*
X47511764Y-54422549D01*
X47445266Y-54374993D01*
X47390151Y-54312597D01*
X47343013Y-54231108D01*
X47323924Y-54188114D01*
X47303134Y-54144572D01*
X47283302Y-54114800D01*
X47269949Y-54104543D01*
X47261290Y-54105262D01*
G36*
X48213570Y-54427947D02*
G01*
X48161702Y-54430769D01*
X48121289Y-54436576D01*
X48085372Y-54446268D01*
X48057385Y-54456555D01*
X47981199Y-54494768D01*
X47924598Y-54540483D01*
X47890043Y-54591544D01*
X47884180Y-54608169D01*
X47880561Y-54633854D01*
X47877353Y-54681178D01*
X47874684Y-54746379D01*
X47872682Y-54825699D01*
X47871476Y-54915375D01*
X47871171Y-54988532D01*
X47870790Y-55102003D01*
X47869409Y-55192849D01*
X47866595Y-55263841D01*
X47861915Y-55317747D01*
X47854933Y-55357338D01*
X47845217Y-55385381D01*
X47832333Y-55404648D01*
X47815847Y-55417907D01*
X47802847Y-55424683D01*
X47756893Y-55432656D01*
X47709814Y-55419146D01*
X47680277Y-55397376D01*
X47655907Y-55378290D01*
X47636817Y-55372074D01*
X47629800Y-55379865D01*
X47635612Y-55394912D01*
X47649822Y-55421711D01*
X47652025Y-55425524D01*
X47690691Y-55468002D01*
X47746719Y-55497559D01*
X47814157Y-55511348D01*
X47832902Y-55512000D01*
X47906683Y-55504016D01*
X47966828Y-55477978D01*
X48020254Y-55430756D01*
X48025367Y-55424895D01*
X48070142Y-55372586D01*
X48098271Y-55402528D01*
X48125394Y-55425484D01*
X48164798Y-55452240D01*
X48192268Y-55468320D01*
X48234181Y-55488326D01*
X48275263Y-55500144D01*
X48325860Y-55506219D01*
X48359893Y-55507941D01*
X48442968Y-55506570D01*
X48503918Y-55495358D01*
X48512072Y-55492502D01*
X48581796Y-55453789D01*
X48632682Y-55399179D01*
X48662968Y-55331184D01*
X48668674Y-55285712D01*
X48445643Y-55285712D01*
X48436835Y-55350357D01*
X48413567Y-55404556D01*
X48400551Y-55421313D01*
X48355861Y-55457798D01*
X48308153Y-55471460D01*
X48253007Y-55462993D01*
X48219352Y-55449816D01*
X48170444Y-55420759D01*
X48132896Y-55381562D01*
X48105606Y-55329310D01*
X48087477Y-55261087D01*
X48077408Y-55173977D01*
X48074300Y-55065194D01*
X48075342Y-54989821D01*
X48078659Y-54938377D01*
X48084544Y-54909471D01*
X48093287Y-54901710D01*
X48105180Y-54913702D01*
X48105759Y-54914628D01*
X48119265Y-54925790D01*
X48149872Y-54946403D01*
X48192661Y-54973260D01*
X48230334Y-54995892D01*
X48297805Y-55037396D01*
X48346668Y-55072114D01*
X48381394Y-55103874D01*
X48406453Y-55136500D01*
X48417837Y-55156400D01*
X48439481Y-55218450D01*
X48445643Y-55285712D01*
X48668674Y-55285712D01*
X48671200Y-55265584D01*
X48663276Y-55194162D01*
X48637652Y-55135826D01*
X48610068Y-55101261D01*
X48580162Y-55073882D01*
X48544001Y-55050210D01*
X48496983Y-55028095D01*
X48434502Y-55005389D01*
X48351955Y-54979944D01*
X48347138Y-54978538D01*
X48273065Y-54956333D01*
X48218793Y-54938102D01*
X48179490Y-54921628D01*
X48150324Y-54904693D01*
X48126462Y-54885079D01*
X48112400Y-54870802D01*
X48097589Y-54852959D01*
X48088260Y-54833809D01*
X48083163Y-54807171D01*
X48081044Y-54766863D01*
X48080650Y-54714020D01*
X48081687Y-54651448D01*
X48085476Y-54607566D01*
X48093035Y-54575723D01*
X48105383Y-54549268D01*
X48106050Y-54548127D01*
X48150260Y-54493239D01*
X48203867Y-54459506D01*
X48263246Y-54448243D01*
X48324769Y-54460764D01*
X48334828Y-54465185D01*
X48364984Y-54483614D01*
X48388603Y-54510106D01*
X48411624Y-54551868D01*
X48418530Y-54566746D01*
X48446207Y-54622989D01*
X48470458Y-54658944D01*
X48495242Y-54678627D01*
X48524516Y-54686053D01*
X48536544Y-54686500D01*
X48581056Y-54675820D01*
X48613077Y-54647786D01*
X48630086Y-54608405D01*
X48629565Y-54563681D01*
X48608993Y-54519621D01*
X48607411Y-54517567D01*
X48581513Y-54495028D01*
X48541530Y-54471008D01*
X48508986Y-54456057D01*
X48472249Y-54443071D01*
X48435742Y-54434583D01*
X48392555Y-54429708D01*
X48335778Y-54427561D01*
X48283850Y-54427207D01*
X48213570Y-54427947D01*
X48213570Y-54427947D01*
G37*
X48213570Y-54427947D02*
X48161702Y-54430769D01*
X48121289Y-54436576D01*
X48085372Y-54446268D01*
X48057385Y-54456555D01*
X47981199Y-54494768D01*
X47924598Y-54540483D01*
X47890043Y-54591544D01*
X47884180Y-54608169D01*
X47880561Y-54633854D01*
X47877353Y-54681178D01*
X47874684Y-54746379D01*
X47872682Y-54825699D01*
X47871476Y-54915375D01*
X47871171Y-54988532D01*
X47870790Y-55102003D01*
X47869409Y-55192849D01*
X47866595Y-55263841D01*
X47861915Y-55317747D01*
X47854933Y-55357338D01*
X47845217Y-55385381D01*
X47832333Y-55404648D01*
X47815847Y-55417907D01*
X47802847Y-55424683D01*
X47756893Y-55432656D01*
X47709814Y-55419146D01*
X47680277Y-55397376D01*
X47655907Y-55378290D01*
X47636817Y-55372074D01*
X47629800Y-55379865D01*
X47635612Y-55394912D01*
X47649822Y-55421711D01*
X47652025Y-55425524D01*
X47690691Y-55468002D01*
X47746719Y-55497559D01*
X47814157Y-55511348D01*
X47832902Y-55512000D01*
X47906683Y-55504016D01*
X47966828Y-55477978D01*
X48020254Y-55430756D01*
X48025367Y-55424895D01*
X48070142Y-55372586D01*
X48098271Y-55402528D01*
X48125394Y-55425484D01*
X48164798Y-55452240D01*
X48192268Y-55468320D01*
X48234181Y-55488326D01*
X48275263Y-55500144D01*
X48325860Y-55506219D01*
X48359893Y-55507941D01*
X48442968Y-55506570D01*
X48503918Y-55495358D01*
X48512072Y-55492502D01*
X48581796Y-55453789D01*
X48632682Y-55399179D01*
X48662968Y-55331184D01*
X48668674Y-55285712D01*
X48445643Y-55285712D01*
X48436835Y-55350357D01*
X48413567Y-55404556D01*
X48400551Y-55421313D01*
X48355861Y-55457798D01*
X48308153Y-55471460D01*
X48253007Y-55462993D01*
X48219352Y-55449816D01*
X48170444Y-55420759D01*
X48132896Y-55381562D01*
X48105606Y-55329310D01*
X48087477Y-55261087D01*
X48077408Y-55173977D01*
X48074300Y-55065194D01*
X48075342Y-54989821D01*
X48078659Y-54938377D01*
X48084544Y-54909471D01*
X48093287Y-54901710D01*
X48105180Y-54913702D01*
X48105759Y-54914628D01*
X48119265Y-54925790D01*
X48149872Y-54946403D01*
X48192661Y-54973260D01*
X48230334Y-54995892D01*
X48297805Y-55037396D01*
X48346668Y-55072114D01*
X48381394Y-55103874D01*
X48406453Y-55136500D01*
X48417837Y-55156400D01*
X48439481Y-55218450D01*
X48445643Y-55285712D01*
X48668674Y-55285712D01*
X48671200Y-55265584D01*
X48663276Y-55194162D01*
X48637652Y-55135826D01*
X48610068Y-55101261D01*
X48580162Y-55073882D01*
X48544001Y-55050210D01*
X48496983Y-55028095D01*
X48434502Y-55005389D01*
X48351955Y-54979944D01*
X48347138Y-54978538D01*
X48273065Y-54956333D01*
X48218793Y-54938102D01*
X48179490Y-54921628D01*
X48150324Y-54904693D01*
X48126462Y-54885079D01*
X48112400Y-54870802D01*
X48097589Y-54852959D01*
X48088260Y-54833809D01*
X48083163Y-54807171D01*
X48081044Y-54766863D01*
X48080650Y-54714020D01*
X48081687Y-54651448D01*
X48085476Y-54607566D01*
X48093035Y-54575723D01*
X48105383Y-54549268D01*
X48106050Y-54548127D01*
X48150260Y-54493239D01*
X48203867Y-54459506D01*
X48263246Y-54448243D01*
X48324769Y-54460764D01*
X48334828Y-54465185D01*
X48364984Y-54483614D01*
X48388603Y-54510106D01*
X48411624Y-54551868D01*
X48418530Y-54566746D01*
X48446207Y-54622989D01*
X48470458Y-54658944D01*
X48495242Y-54678627D01*
X48524516Y-54686053D01*
X48536544Y-54686500D01*
X48581056Y-54675820D01*
X48613077Y-54647786D01*
X48630086Y-54608405D01*
X48629565Y-54563681D01*
X48608993Y-54519621D01*
X48607411Y-54517567D01*
X48581513Y-54495028D01*
X48541530Y-54471008D01*
X48508986Y-54456057D01*
X48472249Y-54443071D01*
X48435742Y-54434583D01*
X48392555Y-54429708D01*
X48335778Y-54427561D01*
X48283850Y-54427207D01*
X48213570Y-54427947D01*
G36*
X51947590Y-54105262D02*
G01*
X51941654Y-54113929D01*
X51937941Y-54134374D01*
X51935951Y-54170430D01*
X51935183Y-54225927D01*
X51935100Y-54266468D01*
X51935100Y-54432500D01*
X51776350Y-54432500D01*
X51709103Y-54432949D01*
X51663424Y-54434604D01*
X51635494Y-54437922D01*
X51621493Y-54443361D01*
X51617601Y-54451381D01*
X51617600Y-54451550D01*
X51621338Y-54459599D01*
X51635090Y-54465074D01*
X51662667Y-54468430D01*
X51707882Y-54470120D01*
X51774543Y-54470599D01*
X51777262Y-54470600D01*
X51936924Y-54470599D01*
X51932837Y-54892875D01*
X51931648Y-55008154D01*
X51930424Y-55100898D01*
X51928979Y-55173974D01*
X51927128Y-55230246D01*
X51924685Y-55272579D01*
X51921463Y-55303838D01*
X51917277Y-55326889D01*
X51911940Y-55344597D01*
X51905268Y-55359827D01*
X51902140Y-55365950D01*
X51873028Y-55406792D01*
X51831586Y-55434626D01*
X51817971Y-55440680D01*
X51752849Y-55457991D01*
X51695055Y-55451503D01*
X51641705Y-55420574D01*
X51615830Y-55395781D01*
X51585302Y-55367604D01*
X51565828Y-55358109D01*
X51560325Y-55365849D01*
X51571712Y-55389380D01*
X51587363Y-55409881D01*
X51633295Y-55453618D01*
X51687899Y-55483189D01*
X51756368Y-55500606D01*
X51839850Y-55507757D01*
X51906980Y-55507769D01*
X51960399Y-55503382D01*
X51992250Y-55495882D01*
X52025021Y-55482302D01*
X52051930Y-55469343D01*
X52073555Y-55454496D01*
X52090473Y-55435251D01*
X52103263Y-55409099D01*
X52112500Y-55373530D01*
X52118762Y-55326035D01*
X52122626Y-55264104D01*
X52124670Y-55185229D01*
X52125470Y-55086899D01*
X52125604Y-54966605D01*
X52125600Y-54916141D01*
X52125600Y-54471867D01*
X52198625Y-54468058D01*
X52271650Y-54464250D01*
X52198064Y-54422549D01*
X52131566Y-54374993D01*
X52076451Y-54312597D01*
X52029313Y-54231108D01*
X52010224Y-54188114D01*
X51989434Y-54144572D01*
X51969602Y-54114800D01*
X51956249Y-54104543D01*
X51947590Y-54105262D01*
X51947590Y-54105262D01*
G37*
X51947590Y-54105262D02*
X51941654Y-54113929D01*
X51937941Y-54134374D01*
X51935951Y-54170430D01*
X51935183Y-54225927D01*
X51935100Y-54266468D01*
X51935100Y-54432500D01*
X51776350Y-54432500D01*
X51709103Y-54432949D01*
X51663424Y-54434604D01*
X51635494Y-54437922D01*
X51621493Y-54443361D01*
X51617601Y-54451381D01*
X51617600Y-54451550D01*
X51621338Y-54459599D01*
X51635090Y-54465074D01*
X51662667Y-54468430D01*
X51707882Y-54470120D01*
X51774543Y-54470599D01*
X51777262Y-54470600D01*
X51936924Y-54470599D01*
X51932837Y-54892875D01*
X51931648Y-55008154D01*
X51930424Y-55100898D01*
X51928979Y-55173974D01*
X51927128Y-55230246D01*
X51924685Y-55272579D01*
X51921463Y-55303838D01*
X51917277Y-55326889D01*
X51911940Y-55344597D01*
X51905268Y-55359827D01*
X51902140Y-55365950D01*
X51873028Y-55406792D01*
X51831586Y-55434626D01*
X51817971Y-55440680D01*
X51752849Y-55457991D01*
X51695055Y-55451503D01*
X51641705Y-55420574D01*
X51615830Y-55395781D01*
X51585302Y-55367604D01*
X51565828Y-55358109D01*
X51560325Y-55365849D01*
X51571712Y-55389380D01*
X51587363Y-55409881D01*
X51633295Y-55453618D01*
X51687899Y-55483189D01*
X51756368Y-55500606D01*
X51839850Y-55507757D01*
X51906980Y-55507769D01*
X51960399Y-55503382D01*
X51992250Y-55495882D01*
X52025021Y-55482302D01*
X52051930Y-55469343D01*
X52073555Y-55454496D01*
X52090473Y-55435251D01*
X52103263Y-55409099D01*
X52112500Y-55373530D01*
X52118762Y-55326035D01*
X52122626Y-55264104D01*
X52124670Y-55185229D01*
X52125470Y-55086899D01*
X52125604Y-54966605D01*
X52125600Y-54916141D01*
X52125600Y-54471867D01*
X52198625Y-54468058D01*
X52271650Y-54464250D01*
X52198064Y-54422549D01*
X52131566Y-54374993D01*
X52076451Y-54312597D01*
X52029313Y-54231108D01*
X52010224Y-54188114D01*
X51989434Y-54144572D01*
X51969602Y-54114800D01*
X51956249Y-54104543D01*
X51947590Y-54105262D01*
G36*
X54176115Y-54431099D02*
G01*
X54097735Y-54453270D01*
X54092793Y-54455362D01*
X54011740Y-54503525D01*
X53945582Y-54569127D01*
X53897600Y-54647925D01*
X53871074Y-54735674D01*
X53869871Y-54743728D01*
X53862048Y-54800800D01*
X54587168Y-54800800D01*
X54595126Y-54848425D01*
X54598303Y-54919634D01*
X54588396Y-55003176D01*
X54567516Y-55091028D01*
X54537771Y-55175169D01*
X54501272Y-55247576D01*
X54483137Y-55274285D01*
X54420244Y-55340433D01*
X54347874Y-55388805D01*
X54269746Y-55419386D01*
X54189579Y-55432159D01*
X54111091Y-55427111D01*
X54038002Y-55404226D01*
X53974029Y-55363489D01*
X53922893Y-55304883D01*
X53906970Y-55276648D01*
X53884559Y-55237286D01*
X53864827Y-55213327D01*
X53850578Y-55206405D01*
X53844619Y-55218156D01*
X53847711Y-55242125D01*
X53877650Y-55318319D01*
X53928317Y-55387744D01*
X53995084Y-55445048D01*
X54049650Y-55475412D01*
X54104540Y-55492299D01*
X54176105Y-55503693D01*
X54256140Y-55509228D01*
X54336442Y-55508537D01*
X54408809Y-55501254D01*
X54446517Y-55493149D01*
X54554648Y-55450763D01*
X54645968Y-55389695D01*
X54719432Y-55311177D01*
X54773994Y-55216440D01*
X54808611Y-55106716D01*
X54816957Y-55056413D01*
X54821525Y-54932325D01*
X54804036Y-54816669D01*
X54784386Y-54762700D01*
X54586701Y-54762700D01*
X54068700Y-54762700D01*
X54068700Y-54730223D01*
X54078983Y-54653317D01*
X54107527Y-54583814D01*
X54150873Y-54525228D01*
X54205563Y-54481070D01*
X54268140Y-54454852D01*
X54335145Y-54450085D01*
X54343511Y-54451150D01*
X54409015Y-54473243D01*
X54468839Y-54516828D01*
X54519575Y-54578098D01*
X54557812Y-54653248D01*
X54574684Y-54709219D01*
X54586701Y-54762700D01*
X54784386Y-54762700D01*
X54765763Y-54711554D01*
X54707981Y-54619090D01*
X54631965Y-54541386D01*
X54538988Y-54480552D01*
X54446657Y-54443403D01*
X54359869Y-54425852D01*
X54266591Y-54421855D01*
X54176115Y-54431099D01*
X54176115Y-54431099D01*
G37*
X54176115Y-54431099D02*
X54097735Y-54453270D01*
X54092793Y-54455362D01*
X54011740Y-54503525D01*
X53945582Y-54569127D01*
X53897600Y-54647925D01*
X53871074Y-54735674D01*
X53869871Y-54743728D01*
X53862048Y-54800800D01*
X54587168Y-54800800D01*
X54595126Y-54848425D01*
X54598303Y-54919634D01*
X54588396Y-55003176D01*
X54567516Y-55091028D01*
X54537771Y-55175169D01*
X54501272Y-55247576D01*
X54483137Y-55274285D01*
X54420244Y-55340433D01*
X54347874Y-55388805D01*
X54269746Y-55419386D01*
X54189579Y-55432159D01*
X54111091Y-55427111D01*
X54038002Y-55404226D01*
X53974029Y-55363489D01*
X53922893Y-55304883D01*
X53906970Y-55276648D01*
X53884559Y-55237286D01*
X53864827Y-55213327D01*
X53850578Y-55206405D01*
X53844619Y-55218156D01*
X53847711Y-55242125D01*
X53877650Y-55318319D01*
X53928317Y-55387744D01*
X53995084Y-55445048D01*
X54049650Y-55475412D01*
X54104540Y-55492299D01*
X54176105Y-55503693D01*
X54256140Y-55509228D01*
X54336442Y-55508537D01*
X54408809Y-55501254D01*
X54446517Y-55493149D01*
X54554648Y-55450763D01*
X54645968Y-55389695D01*
X54719432Y-55311177D01*
X54773994Y-55216440D01*
X54808611Y-55106716D01*
X54816957Y-55056413D01*
X54821525Y-54932325D01*
X54804036Y-54816669D01*
X54784386Y-54762700D01*
X54586701Y-54762700D01*
X54068700Y-54762700D01*
X54068700Y-54730223D01*
X54078983Y-54653317D01*
X54107527Y-54583814D01*
X54150873Y-54525228D01*
X54205563Y-54481070D01*
X54268140Y-54454852D01*
X54335145Y-54450085D01*
X54343511Y-54451150D01*
X54409015Y-54473243D01*
X54468839Y-54516828D01*
X54519575Y-54578098D01*
X54557812Y-54653248D01*
X54574684Y-54709219D01*
X54586701Y-54762700D01*
X54784386Y-54762700D01*
X54765763Y-54711554D01*
X54707981Y-54619090D01*
X54631965Y-54541386D01*
X54538988Y-54480552D01*
X54446657Y-54443403D01*
X54359869Y-54425852D01*
X54266591Y-54421855D01*
X54176115Y-54431099D01*
G36*
X57478115Y-54431099D02*
G01*
X57399735Y-54453270D01*
X57394793Y-54455362D01*
X57313740Y-54503525D01*
X57247582Y-54569127D01*
X57199600Y-54647925D01*
X57173074Y-54735674D01*
X57171871Y-54743728D01*
X57164048Y-54800800D01*
X57889168Y-54800800D01*
X57897126Y-54848425D01*
X57900303Y-54919634D01*
X57890396Y-55003176D01*
X57869516Y-55091028D01*
X57839771Y-55175169D01*
X57803272Y-55247576D01*
X57785137Y-55274285D01*
X57722244Y-55340433D01*
X57649874Y-55388805D01*
X57571746Y-55419386D01*
X57491579Y-55432159D01*
X57413091Y-55427111D01*
X57340002Y-55404226D01*
X57276029Y-55363489D01*
X57224893Y-55304883D01*
X57208970Y-55276648D01*
X57186559Y-55237286D01*
X57166827Y-55213327D01*
X57152578Y-55206405D01*
X57146619Y-55218156D01*
X57149711Y-55242125D01*
X57179650Y-55318319D01*
X57230317Y-55387744D01*
X57297084Y-55445048D01*
X57351650Y-55475412D01*
X57406540Y-55492299D01*
X57478105Y-55503693D01*
X57558140Y-55509228D01*
X57638442Y-55508537D01*
X57710809Y-55501254D01*
X57748517Y-55493149D01*
X57856648Y-55450763D01*
X57947968Y-55389695D01*
X58021432Y-55311177D01*
X58075994Y-55216440D01*
X58110611Y-55106716D01*
X58118957Y-55056413D01*
X58123525Y-54932325D01*
X58106036Y-54816669D01*
X58086386Y-54762700D01*
X57888701Y-54762700D01*
X57370700Y-54762700D01*
X57370700Y-54730223D01*
X57380983Y-54653317D01*
X57409527Y-54583814D01*
X57452873Y-54525228D01*
X57507563Y-54481070D01*
X57570140Y-54454852D01*
X57637145Y-54450085D01*
X57645511Y-54451150D01*
X57711015Y-54473243D01*
X57770839Y-54516828D01*
X57821575Y-54578098D01*
X57859812Y-54653248D01*
X57876684Y-54709219D01*
X57888701Y-54762700D01*
X58086386Y-54762700D01*
X58067763Y-54711554D01*
X58009981Y-54619090D01*
X57933965Y-54541386D01*
X57840988Y-54480552D01*
X57748657Y-54443403D01*
X57661869Y-54425852D01*
X57568591Y-54421855D01*
X57478115Y-54431099D01*
X57478115Y-54431099D01*
G37*
X57478115Y-54431099D02*
X57399735Y-54453270D01*
X57394793Y-54455362D01*
X57313740Y-54503525D01*
X57247582Y-54569127D01*
X57199600Y-54647925D01*
X57173074Y-54735674D01*
X57171871Y-54743728D01*
X57164048Y-54800800D01*
X57889168Y-54800800D01*
X57897126Y-54848425D01*
X57900303Y-54919634D01*
X57890396Y-55003176D01*
X57869516Y-55091028D01*
X57839771Y-55175169D01*
X57803272Y-55247576D01*
X57785137Y-55274285D01*
X57722244Y-55340433D01*
X57649874Y-55388805D01*
X57571746Y-55419386D01*
X57491579Y-55432159D01*
X57413091Y-55427111D01*
X57340002Y-55404226D01*
X57276029Y-55363489D01*
X57224893Y-55304883D01*
X57208970Y-55276648D01*
X57186559Y-55237286D01*
X57166827Y-55213327D01*
X57152578Y-55206405D01*
X57146619Y-55218156D01*
X57149711Y-55242125D01*
X57179650Y-55318319D01*
X57230317Y-55387744D01*
X57297084Y-55445048D01*
X57351650Y-55475412D01*
X57406540Y-55492299D01*
X57478105Y-55503693D01*
X57558140Y-55509228D01*
X57638442Y-55508537D01*
X57710809Y-55501254D01*
X57748517Y-55493149D01*
X57856648Y-55450763D01*
X57947968Y-55389695D01*
X58021432Y-55311177D01*
X58075994Y-55216440D01*
X58110611Y-55106716D01*
X58118957Y-55056413D01*
X58123525Y-54932325D01*
X58106036Y-54816669D01*
X58086386Y-54762700D01*
X57888701Y-54762700D01*
X57370700Y-54762700D01*
X57370700Y-54730223D01*
X57380983Y-54653317D01*
X57409527Y-54583814D01*
X57452873Y-54525228D01*
X57507563Y-54481070D01*
X57570140Y-54454852D01*
X57637145Y-54450085D01*
X57645511Y-54451150D01*
X57711015Y-54473243D01*
X57770839Y-54516828D01*
X57821575Y-54578098D01*
X57859812Y-54653248D01*
X57876684Y-54709219D01*
X57888701Y-54762700D01*
X58086386Y-54762700D01*
X58067763Y-54711554D01*
X58009981Y-54619090D01*
X57933965Y-54541386D01*
X57840988Y-54480552D01*
X57748657Y-54443403D01*
X57661869Y-54425852D01*
X57568591Y-54421855D01*
X57478115Y-54431099D01*
G36*
X59552782Y-53767289D02*
G01*
X59498668Y-53768913D01*
X59455268Y-53772987D01*
X59415237Y-53780592D01*
X59371235Y-53792808D01*
X59315916Y-53810717D01*
X59306243Y-53813943D01*
X59248810Y-53832571D01*
X59198978Y-53847715D01*
X59162372Y-53857730D01*
X59145240Y-53861000D01*
X59123765Y-53851711D01*
X59100261Y-53829366D01*
X59100169Y-53829250D01*
X59079279Y-53807088D01*
X59063396Y-53797509D01*
X59063088Y-53797500D01*
X59057334Y-53809570D01*
X59051710Y-53843268D01*
X59046472Y-53894818D01*
X59041876Y-53960447D01*
X59038176Y-54036382D01*
X59035630Y-54118850D01*
X59034494Y-54204077D01*
X59034458Y-54219775D01*
X59035930Y-54289667D01*
X59040607Y-54334562D01*
X59048776Y-54354695D01*
X59060723Y-54350302D01*
X59076737Y-54321617D01*
X59096509Y-54270575D01*
X59151894Y-54137581D01*
X59217002Y-54025280D01*
X59291035Y-53934722D01*
X59373197Y-53866959D01*
X59424177Y-53838553D01*
X59465333Y-53821125D01*
X59502751Y-53810769D01*
X59545738Y-53805804D01*
X59603601Y-53804548D01*
X59612250Y-53804567D01*
X59673876Y-53806092D01*
X59719592Y-53811248D01*
X59758817Y-53821746D01*
X59799391Y-53838567D01*
X59875112Y-53878504D01*
X59936432Y-53924043D01*
X59992465Y-53982578D01*
X60020704Y-54018183D01*
X60097046Y-54136271D01*
X60153399Y-54263839D01*
X60190814Y-54403980D01*
X60210343Y-54559789D01*
X60211527Y-54579544D01*
X60211158Y-54739938D01*
X60192651Y-54887334D01*
X60156644Y-55020479D01*
X60103774Y-55138121D01*
X60034682Y-55239007D01*
X59950004Y-55321885D01*
X59850381Y-55385502D01*
X59786661Y-55412844D01*
X59724114Y-55428603D01*
X59646470Y-55438090D01*
X59562240Y-55441203D01*
X59479935Y-55437839D01*
X59408068Y-55427896D01*
X59370950Y-55417844D01*
X59269621Y-55370206D01*
X59187230Y-55305746D01*
X59123354Y-55223994D01*
X59077567Y-55124484D01*
X59064221Y-55079597D01*
X59050232Y-55033602D01*
X59036420Y-55002468D01*
X59025238Y-54991300D01*
X59014710Y-54993176D01*
X59010238Y-55002279D01*
X59011697Y-55023822D01*
X59018961Y-55063017D01*
X59023035Y-55082749D01*
X59056325Y-55188640D01*
X59108548Y-55284821D01*
X59176636Y-55367054D01*
X59257521Y-55431103D01*
X59287624Y-55448104D01*
X59378478Y-55483843D01*
X59485822Y-55508639D01*
X59602933Y-55521857D01*
X59723087Y-55522864D01*
X59839561Y-55511027D01*
X59878180Y-55503740D01*
X60019306Y-55461814D01*
X60144578Y-55400317D01*
X60253206Y-55319996D01*
X60344401Y-55221598D01*
X60417375Y-55105871D01*
X60471339Y-54973560D01*
X60483964Y-54929757D01*
X60500987Y-54838291D01*
X60509544Y-54732171D01*
X60509649Y-54620687D01*
X60501315Y-54513127D01*
X60484556Y-54418780D01*
X60483207Y-54413450D01*
X60434683Y-54267895D01*
X60368869Y-54140857D01*
X60285219Y-54031756D01*
X60183190Y-53940008D01*
X60062236Y-53865033D01*
X59921812Y-53806249D01*
X59910700Y-53802549D01*
X59863853Y-53788001D01*
X59823308Y-53778055D01*
X59782129Y-53771849D01*
X59733381Y-53768521D01*
X59670128Y-53767210D01*
X59624950Y-53767035D01*
X59552782Y-53767289D01*
X59552782Y-53767289D01*
G37*
X59552782Y-53767289D02*
X59498668Y-53768913D01*
X59455268Y-53772987D01*
X59415237Y-53780592D01*
X59371235Y-53792808D01*
X59315916Y-53810717D01*
X59306243Y-53813943D01*
X59248810Y-53832571D01*
X59198978Y-53847715D01*
X59162372Y-53857730D01*
X59145240Y-53861000D01*
X59123765Y-53851711D01*
X59100261Y-53829366D01*
X59100169Y-53829250D01*
X59079279Y-53807088D01*
X59063396Y-53797509D01*
X59063088Y-53797500D01*
X59057334Y-53809570D01*
X59051710Y-53843268D01*
X59046472Y-53894818D01*
X59041876Y-53960447D01*
X59038176Y-54036382D01*
X59035630Y-54118850D01*
X59034494Y-54204077D01*
X59034458Y-54219775D01*
X59035930Y-54289667D01*
X59040607Y-54334562D01*
X59048776Y-54354695D01*
X59060723Y-54350302D01*
X59076737Y-54321617D01*
X59096509Y-54270575D01*
X59151894Y-54137581D01*
X59217002Y-54025280D01*
X59291035Y-53934722D01*
X59373197Y-53866959D01*
X59424177Y-53838553D01*
X59465333Y-53821125D01*
X59502751Y-53810769D01*
X59545738Y-53805804D01*
X59603601Y-53804548D01*
X59612250Y-53804567D01*
X59673876Y-53806092D01*
X59719592Y-53811248D01*
X59758817Y-53821746D01*
X59799391Y-53838567D01*
X59875112Y-53878504D01*
X59936432Y-53924043D01*
X59992465Y-53982578D01*
X60020704Y-54018183D01*
X60097046Y-54136271D01*
X60153399Y-54263839D01*
X60190814Y-54403980D01*
X60210343Y-54559789D01*
X60211527Y-54579544D01*
X60211158Y-54739938D01*
X60192651Y-54887334D01*
X60156644Y-55020479D01*
X60103774Y-55138121D01*
X60034682Y-55239007D01*
X59950004Y-55321885D01*
X59850381Y-55385502D01*
X59786661Y-55412844D01*
X59724114Y-55428603D01*
X59646470Y-55438090D01*
X59562240Y-55441203D01*
X59479935Y-55437839D01*
X59408068Y-55427896D01*
X59370950Y-55417844D01*
X59269621Y-55370206D01*
X59187230Y-55305746D01*
X59123354Y-55223994D01*
X59077567Y-55124484D01*
X59064221Y-55079597D01*
X59050232Y-55033602D01*
X59036420Y-55002468D01*
X59025238Y-54991300D01*
X59014710Y-54993176D01*
X59010238Y-55002279D01*
X59011697Y-55023822D01*
X59018961Y-55063017D01*
X59023035Y-55082749D01*
X59056325Y-55188640D01*
X59108548Y-55284821D01*
X59176636Y-55367054D01*
X59257521Y-55431103D01*
X59287624Y-55448104D01*
X59378478Y-55483843D01*
X59485822Y-55508639D01*
X59602933Y-55521857D01*
X59723087Y-55522864D01*
X59839561Y-55511027D01*
X59878180Y-55503740D01*
X60019306Y-55461814D01*
X60144578Y-55400317D01*
X60253206Y-55319996D01*
X60344401Y-55221598D01*
X60417375Y-55105871D01*
X60471339Y-54973560D01*
X60483964Y-54929757D01*
X60500987Y-54838291D01*
X60509544Y-54732171D01*
X60509649Y-54620687D01*
X60501315Y-54513127D01*
X60484556Y-54418780D01*
X60483207Y-54413450D01*
X60434683Y-54267895D01*
X60368869Y-54140857D01*
X60285219Y-54031756D01*
X60183190Y-53940008D01*
X60062236Y-53865033D01*
X59921812Y-53806249D01*
X59910700Y-53802549D01*
X59863853Y-53788001D01*
X59823308Y-53778055D01*
X59782129Y-53771849D01*
X59733381Y-53768521D01*
X59670128Y-53767210D01*
X59624950Y-53767035D01*
X59552782Y-53767289D01*
G36*
X41242761Y-54432992D02*
G01*
X41177166Y-54434362D01*
X41125016Y-54436450D01*
X41090212Y-54439098D01*
X41076653Y-54442146D01*
X41076600Y-54442353D01*
X41087079Y-54453037D01*
X41113657Y-54468921D01*
X41130575Y-54477278D01*
X41164840Y-54495891D01*
X41181815Y-54515256D01*
X41188462Y-54543685D01*
X41188775Y-54546800D01*
X41187765Y-54589272D01*
X41179776Y-54635582D01*
X41177993Y-54642050D01*
X41169054Y-54668956D01*
X41153355Y-54712798D01*
X41132341Y-54769811D01*
X41107457Y-54836231D01*
X41080149Y-54908294D01*
X41051863Y-54982235D01*
X41024043Y-55054290D01*
X40998135Y-55120696D01*
X40975584Y-55177687D01*
X40957837Y-55221499D01*
X40946338Y-55248368D01*
X40942584Y-55255117D01*
X40935073Y-55240412D01*
X40920296Y-55205892D01*
X40899795Y-55155568D01*
X40875113Y-55093449D01*
X40847792Y-55023543D01*
X40819376Y-54949859D01*
X40791407Y-54876408D01*
X40765428Y-54807199D01*
X40742982Y-54746240D01*
X40725612Y-54697540D01*
X40714861Y-54665110D01*
X40712979Y-54658467D01*
X40701541Y-54590514D01*
X40707407Y-54539079D01*
X40731524Y-54501245D01*
X40772598Y-54475072D01*
X40803202Y-54459410D01*
X40820873Y-54446186D01*
X40822600Y-54442755D01*
X40810659Y-54439070D01*
X40777863Y-54435971D01*
X40728756Y-54433723D01*
X40667883Y-54432586D01*
X40644800Y-54432500D01*
X40564082Y-54433537D01*
X40507926Y-54436790D01*
X40475574Y-54442466D01*
X40466267Y-54450773D01*
X40479249Y-54461921D01*
X40501902Y-54471798D01*
X40520625Y-54479465D01*
X40537549Y-54488561D01*
X40553650Y-54500981D01*
X40569902Y-54518618D01*
X40587280Y-54543366D01*
X40606757Y-54577120D01*
X40629308Y-54621773D01*
X40655907Y-54679219D01*
X40687529Y-54751352D01*
X40725148Y-54840066D01*
X40769738Y-54947255D01*
X40822274Y-55074813D01*
X40862274Y-55172300D01*
X40920115Y-55313239D01*
X40969267Y-55432618D01*
X41010610Y-55532402D01*
X41045026Y-55614560D01*
X41073394Y-55681059D01*
X41096596Y-55733866D01*
X41115512Y-55774947D01*
X41131023Y-55806271D01*
X41144010Y-55829805D01*
X41155353Y-55847515D01*
X41165933Y-55861370D01*
X41175648Y-55872294D01*
X41229990Y-55914253D01*
X41293736Y-55938399D01*
X41360141Y-55943560D01*
X41422462Y-55928562D01*
X41441725Y-55918539D01*
X41471563Y-55894388D01*
X41482506Y-55866222D01*
X41483000Y-55855993D01*
X41473710Y-55813225D01*
X41446481Y-55787757D01*
X41402281Y-55779926D01*
X41342076Y-55790068D01*
X41316750Y-55798155D01*
X41267688Y-55810731D01*
X41226877Y-55808910D01*
X41191738Y-55790574D01*
X41159692Y-55753605D01*
X41128161Y-55695884D01*
X41094769Y-55615823D01*
X41084026Y-55587816D01*
X41075759Y-55563466D01*
X41070637Y-55540186D01*
X41069331Y-55515390D01*
X41072510Y-55486491D01*
X41080846Y-55450902D01*
X41095007Y-55406036D01*
X41115665Y-55349306D01*
X41143488Y-55278125D01*
X41179149Y-55189906D01*
X41223315Y-55082062D01*
X41249670Y-55017848D01*
X41300616Y-54893772D01*
X41342989Y-54791076D01*
X41377835Y-54707630D01*
X41406202Y-54641306D01*
X41429136Y-54589975D01*
X41447683Y-54551509D01*
X41462890Y-54523777D01*
X41475803Y-54504652D01*
X41487468Y-54492005D01*
X41498933Y-54483707D01*
X41511243Y-54477629D01*
X41516282Y-54475491D01*
X41544545Y-54462122D01*
X41556696Y-54451717D01*
X41551201Y-54443943D01*
X41526525Y-54438466D01*
X41481132Y-54434956D01*
X41413487Y-54433078D01*
X41322057Y-54432500D01*
X41317900Y-54432500D01*
X41242761Y-54432992D01*
X41242761Y-54432992D01*
G37*
X41242761Y-54432992D02*
X41177166Y-54434362D01*
X41125016Y-54436450D01*
X41090212Y-54439098D01*
X41076653Y-54442146D01*
X41076600Y-54442353D01*
X41087079Y-54453037D01*
X41113657Y-54468921D01*
X41130575Y-54477278D01*
X41164840Y-54495891D01*
X41181815Y-54515256D01*
X41188462Y-54543685D01*
X41188775Y-54546800D01*
X41187765Y-54589272D01*
X41179776Y-54635582D01*
X41177993Y-54642050D01*
X41169054Y-54668956D01*
X41153355Y-54712798D01*
X41132341Y-54769811D01*
X41107457Y-54836231D01*
X41080149Y-54908294D01*
X41051863Y-54982235D01*
X41024043Y-55054290D01*
X40998135Y-55120696D01*
X40975584Y-55177687D01*
X40957837Y-55221499D01*
X40946338Y-55248368D01*
X40942584Y-55255117D01*
X40935073Y-55240412D01*
X40920296Y-55205892D01*
X40899795Y-55155568D01*
X40875113Y-55093449D01*
X40847792Y-55023543D01*
X40819376Y-54949859D01*
X40791407Y-54876408D01*
X40765428Y-54807199D01*
X40742982Y-54746240D01*
X40725612Y-54697540D01*
X40714861Y-54665110D01*
X40712979Y-54658467D01*
X40701541Y-54590514D01*
X40707407Y-54539079D01*
X40731524Y-54501245D01*
X40772598Y-54475072D01*
X40803202Y-54459410D01*
X40820873Y-54446186D01*
X40822600Y-54442755D01*
X40810659Y-54439070D01*
X40777863Y-54435971D01*
X40728756Y-54433723D01*
X40667883Y-54432586D01*
X40644800Y-54432500D01*
X40564082Y-54433537D01*
X40507926Y-54436790D01*
X40475574Y-54442466D01*
X40466267Y-54450773D01*
X40479249Y-54461921D01*
X40501902Y-54471798D01*
X40520625Y-54479465D01*
X40537549Y-54488561D01*
X40553650Y-54500981D01*
X40569902Y-54518618D01*
X40587280Y-54543366D01*
X40606757Y-54577120D01*
X40629308Y-54621773D01*
X40655907Y-54679219D01*
X40687529Y-54751352D01*
X40725148Y-54840066D01*
X40769738Y-54947255D01*
X40822274Y-55074813D01*
X40862274Y-55172300D01*
X40920115Y-55313239D01*
X40969267Y-55432618D01*
X41010610Y-55532402D01*
X41045026Y-55614560D01*
X41073394Y-55681059D01*
X41096596Y-55733866D01*
X41115512Y-55774947D01*
X41131023Y-55806271D01*
X41144010Y-55829805D01*
X41155353Y-55847515D01*
X41165933Y-55861370D01*
X41175648Y-55872294D01*
X41229990Y-55914253D01*
X41293736Y-55938399D01*
X41360141Y-55943560D01*
X41422462Y-55928562D01*
X41441725Y-55918539D01*
X41471563Y-55894388D01*
X41482506Y-55866222D01*
X41483000Y-55855993D01*
X41473710Y-55813225D01*
X41446481Y-55787757D01*
X41402281Y-55779926D01*
X41342076Y-55790068D01*
X41316750Y-55798155D01*
X41267688Y-55810731D01*
X41226877Y-55808910D01*
X41191738Y-55790574D01*
X41159692Y-55753605D01*
X41128161Y-55695884D01*
X41094769Y-55615823D01*
X41084026Y-55587816D01*
X41075759Y-55563466D01*
X41070637Y-55540186D01*
X41069331Y-55515390D01*
X41072510Y-55486491D01*
X41080846Y-55450902D01*
X41095007Y-55406036D01*
X41115665Y-55349306D01*
X41143488Y-55278125D01*
X41179149Y-55189906D01*
X41223315Y-55082062D01*
X41249670Y-55017848D01*
X41300616Y-54893772D01*
X41342989Y-54791076D01*
X41377835Y-54707630D01*
X41406202Y-54641306D01*
X41429136Y-54589975D01*
X41447683Y-54551509D01*
X41462890Y-54523777D01*
X41475803Y-54504652D01*
X41487468Y-54492005D01*
X41498933Y-54483707D01*
X41511243Y-54477629D01*
X41516282Y-54475491D01*
X41544545Y-54462122D01*
X41556696Y-54451717D01*
X41551201Y-54443943D01*
X41526525Y-54438466D01*
X41481132Y-54434956D01*
X41413487Y-54433078D01*
X41322057Y-54432500D01*
X41317900Y-54432500D01*
X41242761Y-54432992D01*
D10*
X75425000Y-34900000D02*
X76500000Y-34900000D01*
X75425000Y-37975000D02*
X72175000Y-37975000D01*
X75425000Y-34725000D02*
X72175000Y-34725000D01*
X75425000Y-37975000D02*
X75425000Y-37700000D01*
X72175000Y-37975000D02*
X72175000Y-37700000D01*
X72175000Y-34725000D02*
X72175000Y-35000000D01*
X75425000Y-34725000D02*
X75425000Y-34900000D01*
D12*
X41979828Y-44254630D02*
X43012203Y-43222254D01*
X39745370Y-42020172D02*
X41272721Y-40492822D01*
X39745370Y-42020172D02*
X40402979Y-42677782D01*
X41979828Y-44254630D02*
X41322218Y-43597021D01*
D10*
X67500000Y-93075000D02*
X67500000Y-94675000D01*
X59075000Y-93075000D02*
X59075000Y-87325000D01*
X67725000Y-93075000D02*
X67725000Y-87325000D01*
X59075000Y-93075000D02*
X59375000Y-93075000D01*
X59075000Y-87325000D02*
X59375000Y-87325000D01*
X67725000Y-87325000D02*
X67425000Y-87325000D01*
X67725000Y-93075000D02*
X67500000Y-93075000D01*
X35075000Y-94700000D02*
X36675000Y-94700000D01*
X35075000Y-103125000D02*
X29325000Y-103125000D01*
X35075000Y-94475000D02*
X29325000Y-94475000D01*
X35075000Y-103125000D02*
X35075000Y-102825000D01*
X29325000Y-103125000D02*
X29325000Y-102825000D01*
X29325000Y-94475000D02*
X29325000Y-94775000D01*
X35075000Y-94475000D02*
X35075000Y-94700000D01*
D12*
X58360000Y-69065000D02*
X58360000Y-67250000D01*
X58115000Y-69065000D02*
X58360000Y-69065000D01*
X58115000Y-72925000D02*
X58115000Y-69065000D01*
X58115000Y-76785000D02*
X58360000Y-76785000D01*
X58115000Y-72925000D02*
X58115000Y-76785000D01*
X69885000Y-69065000D02*
X69640000Y-69065000D01*
X69885000Y-72925000D02*
X69885000Y-69065000D01*
X69885000Y-76785000D02*
X69640000Y-76785000D01*
X69885000Y-72925000D02*
X69885000Y-76785000D01*
D10*
X26850000Y-50750000D02*
X25250000Y-50750000D01*
X26850000Y-40675000D02*
X32600000Y-40675000D01*
X26850000Y-51325000D02*
X32600000Y-51325000D01*
X26850000Y-40675000D02*
X26850000Y-41325000D01*
X32600000Y-40675000D02*
X32600000Y-41325000D01*
X32600000Y-51325000D02*
X32600000Y-50675000D01*
X26850000Y-51325000D02*
X26850000Y-50750000D01*
D12*
X47060193Y-36689807D02*
X49499712Y-39129325D01*
X47060193Y-36689807D02*
X45681335Y-35310948D01*
X43439807Y-40310193D02*
X44818665Y-41689052D01*
X43439807Y-40310193D02*
X42060948Y-38931335D01*
X26580000Y-66480000D02*
X26580000Y-66100000D01*
X20160000Y-66480000D02*
X26580000Y-66480000D01*
X20160000Y-84720000D02*
X26580000Y-84720000D01*
X20160000Y-66480000D02*
X20160000Y-84720000D01*
X45905000Y-84720000D02*
X45905000Y-83720000D01*
X45125000Y-84720000D02*
X45905000Y-84720000D01*
X45905000Y-66480000D02*
X45905000Y-67480000D01*
X45125000Y-66480000D02*
X45905000Y-66480000D01*
X26600000Y-35310000D02*
X32610000Y-35310000D01*
X28850000Y-28490000D02*
X32610000Y-28490000D01*
X32610000Y-35310000D02*
X32610000Y-34050000D01*
X32610000Y-28490000D02*
X32610000Y-29750000D01*
X30896267Y-25160000D02*
X30553733Y-25160000D01*
X30896267Y-24140000D02*
X30553733Y-24140000D01*
X28146267Y-39535000D02*
X27803733Y-39535000D01*
X28146267Y-38515000D02*
X27803733Y-38515000D01*
X58410000Y-87503733D02*
X58410000Y-87846267D01*
X57390000Y-87503733D02*
X57390000Y-87846267D01*
X39290000Y-30546267D02*
X39290000Y-30203733D01*
X40310000Y-30546267D02*
X40310000Y-30203733D01*
X70960000Y-102928733D02*
X70960000Y-103271267D01*
X69940000Y-102928733D02*
X69940000Y-103271267D01*
X71310000Y-107628733D02*
X71310000Y-107971267D01*
X70290000Y-107628733D02*
X70290000Y-107971267D01*
X68960000Y-102928733D02*
X68960000Y-103271267D01*
X67940000Y-102928733D02*
X67940000Y-103271267D01*
X69310000Y-107628733D02*
X69310000Y-107971267D01*
X68290000Y-107628733D02*
X68290000Y-107971267D01*
X66960000Y-102928733D02*
X66960000Y-103271267D01*
X65940000Y-102928733D02*
X65940000Y-103271267D01*
X67310000Y-107628733D02*
X67310000Y-107971267D01*
X66290000Y-107628733D02*
X66290000Y-107971267D01*
X64960000Y-102928733D02*
X64960000Y-103271267D01*
X63940000Y-102928733D02*
X63940000Y-103271267D01*
X65310000Y-107628733D02*
X65310000Y-107971267D01*
X64290000Y-107628733D02*
X64290000Y-107971267D01*
X62960000Y-102928733D02*
X62960000Y-103271267D01*
X61940000Y-102928733D02*
X61940000Y-103271267D01*
X63310000Y-107628733D02*
X63310000Y-107971267D01*
X62290000Y-107628733D02*
X62290000Y-107971267D01*
X60960000Y-102928733D02*
X60960000Y-103271267D01*
X59940000Y-102928733D02*
X59940000Y-103271267D01*
X61310000Y-107628733D02*
X61310000Y-107971267D01*
X60290000Y-107628733D02*
X60290000Y-107971267D01*
X24310000Y-97276267D02*
X24310000Y-96933733D01*
X25330000Y-97276267D02*
X25330000Y-96933733D01*
X25770000Y-100576267D02*
X25770000Y-100233733D01*
X26790000Y-100576267D02*
X26790000Y-100233733D01*
X22410000Y-96933733D02*
X22410000Y-97276267D01*
X21390000Y-96933733D02*
X21390000Y-97276267D01*
X29121267Y-92160000D02*
X28778733Y-92160000D01*
X29121267Y-91140000D02*
X28778733Y-91140000D01*
X29116267Y-93620000D02*
X28773733Y-93620000D01*
X29116267Y-92600000D02*
X28773733Y-92600000D01*
X25770000Y-103876267D02*
X25770000Y-103533733D01*
X26790000Y-103876267D02*
X26790000Y-103533733D01*
X22850000Y-97276267D02*
X22850000Y-96933733D01*
X23870000Y-97276267D02*
X23870000Y-96933733D01*
X32426267Y-92160000D02*
X32083733Y-92160000D01*
X32426267Y-91140000D02*
X32083733Y-91140000D01*
X32421267Y-93620000D02*
X32078733Y-93620000D01*
X32421267Y-92600000D02*
X32078733Y-92600000D01*
X24310000Y-100576267D02*
X24310000Y-100233733D01*
X25330000Y-100576267D02*
X25330000Y-100233733D01*
X25770000Y-107176267D02*
X25770000Y-106833733D01*
X26790000Y-107176267D02*
X26790000Y-106833733D01*
X24310000Y-103876267D02*
X24310000Y-103533733D01*
X25330000Y-103876267D02*
X25330000Y-103533733D01*
X22850000Y-100576267D02*
X22850000Y-100233733D01*
X23870000Y-100576267D02*
X23870000Y-100233733D01*
X35726267Y-92160000D02*
X35383733Y-92160000D01*
X35726267Y-91140000D02*
X35383733Y-91140000D01*
X35726267Y-93620000D02*
X35383733Y-93620000D01*
X35726267Y-92600000D02*
X35383733Y-92600000D01*
X40558733Y-95810000D02*
X40901267Y-95810000D01*
X40558733Y-96830000D02*
X40901267Y-96830000D01*
X42721267Y-99185000D02*
X42378733Y-99185000D01*
X42721267Y-98165000D02*
X42378733Y-98165000D01*
X38860000Y-95433733D02*
X38860000Y-95776267D01*
X37840000Y-95433733D02*
X37840000Y-95776267D01*
X44196267Y-96830000D02*
X43853733Y-96830000D01*
X44196267Y-95810000D02*
X43853733Y-95810000D01*
X44420000Y-99571267D02*
X44420000Y-99228733D01*
X45440000Y-99571267D02*
X45440000Y-99228733D01*
X39078733Y-98165000D02*
X39421267Y-98165000D01*
X39078733Y-99185000D02*
X39421267Y-99185000D01*
X30328733Y-105240000D02*
X30671267Y-105240000D01*
X30328733Y-106260000D02*
X30671267Y-106260000D01*
X33971267Y-106260000D02*
X33628733Y-106260000D01*
X33971267Y-105240000D02*
X33628733Y-105240000D01*
X40901267Y-95370000D02*
X40558733Y-95370000D01*
X40901267Y-94350000D02*
X40558733Y-94350000D01*
X43853733Y-94350000D02*
X44196267Y-94350000D01*
X43853733Y-95370000D02*
X44196267Y-95370000D01*
X42373733Y-99625000D02*
X42716267Y-99625000D01*
X42373733Y-100645000D02*
X42716267Y-100645000D01*
X39421267Y-100645000D02*
X39078733Y-100645000D01*
X39421267Y-99625000D02*
X39078733Y-99625000D01*
X30671267Y-104800000D02*
X30328733Y-104800000D01*
X30671267Y-103780000D02*
X30328733Y-103780000D01*
X33628733Y-103780000D02*
X33971267Y-103780000D01*
X33628733Y-104800000D02*
X33971267Y-104800000D01*
X70815000Y-25646267D02*
X70815000Y-25303733D01*
X71835000Y-25646267D02*
X71835000Y-25303733D01*
X52478733Y-98715000D02*
X52821267Y-98715000D01*
X52478733Y-99735000D02*
X52821267Y-99735000D01*
X61610000Y-23678733D02*
X61610000Y-24021267D01*
X60590000Y-23678733D02*
X60590000Y-24021267D01*
X53515000Y-106321267D02*
X53515000Y-105978733D01*
X54535000Y-106321267D02*
X54535000Y-105978733D01*
X68003733Y-65490000D02*
X68346267Y-65490000D01*
X68003733Y-66510000D02*
X68346267Y-66510000D01*
X37778733Y-45240000D02*
X38121267Y-45240000D01*
X37778733Y-46260000D02*
X38121267Y-46260000D01*
X37778733Y-46740000D02*
X38121267Y-46740000D01*
X37778733Y-47760000D02*
X38121267Y-47760000D01*
X37653733Y-48240000D02*
X37996267Y-48240000D01*
X37653733Y-49260000D02*
X37996267Y-49260000D01*
X37653733Y-49740000D02*
X37996267Y-49740000D01*
X37653733Y-50760000D02*
X37996267Y-50760000D01*
X37653733Y-51240000D02*
X37996267Y-51240000D01*
X37653733Y-52260000D02*
X37996267Y-52260000D01*
X37653733Y-52740000D02*
X37996267Y-52740000D01*
X37653733Y-53760000D02*
X37996267Y-53760000D01*
X37653733Y-54240000D02*
X37996267Y-54240000D01*
X37653733Y-55260000D02*
X37996267Y-55260000D01*
X37653733Y-55740000D02*
X37996267Y-55740000D01*
X37653733Y-56760000D02*
X37996267Y-56760000D01*
X58060000Y-23453733D02*
X58060000Y-23796267D01*
X57040000Y-23453733D02*
X57040000Y-23796267D01*
X35953733Y-43240000D02*
X36296267Y-43240000D01*
X35953733Y-44260000D02*
X36296267Y-44260000D01*
X38768271Y-40260480D02*
X39010480Y-40018271D01*
X39489520Y-40981729D02*
X39731729Y-40739520D01*
D10*
X48684315Y-36479899D02*
X47270101Y-35065685D01*
X51229899Y-33934315D02*
X49815685Y-32520101D01*
D12*
X50371267Y-73085000D02*
X50028733Y-73085000D01*
X50371267Y-72065000D02*
X50028733Y-72065000D01*
X49496267Y-77960000D02*
X49153733Y-77960000D01*
X49496267Y-76940000D02*
X49153733Y-76940000D01*
X47596267Y-86710000D02*
X47253733Y-86710000D01*
X47596267Y-85690000D02*
X47253733Y-85690000D01*
X29603733Y-59365000D02*
X29946267Y-59365000D01*
X29603733Y-60385000D02*
X29946267Y-60385000D01*
X55521267Y-73135000D02*
X55178733Y-73135000D01*
X55521267Y-72115000D02*
X55178733Y-72115000D01*
X54671267Y-78060000D02*
X54328733Y-78060000D01*
X54671267Y-77040000D02*
X54328733Y-77040000D01*
X47745000Y-74265000D02*
X47745000Y-75725000D01*
X50905000Y-74265000D02*
X50905000Y-76425000D01*
X50905000Y-74265000D02*
X49975000Y-74265000D01*
X47745000Y-74265000D02*
X48675000Y-74265000D01*
X52895000Y-74315000D02*
X52895000Y-75775000D01*
X56055000Y-74315000D02*
X56055000Y-76475000D01*
X56055000Y-74315000D02*
X55125000Y-74315000D01*
X52895000Y-74315000D02*
X53825000Y-74315000D01*
X49085000Y-88435000D02*
X46625000Y-88435000D01*
X49085000Y-86965000D02*
X49085000Y-88435000D01*
X46625000Y-86965000D02*
X49085000Y-86965000D01*
X33760000Y-65735000D02*
X31300000Y-65735000D01*
X33760000Y-64265000D02*
X33760000Y-65735000D01*
X31300000Y-64265000D02*
X33760000Y-64265000D01*
X69860000Y-89022936D02*
X69860000Y-90227064D01*
X68040000Y-89022936D02*
X68040000Y-90227064D01*
X25402064Y-95110000D02*
X24197936Y-95110000D01*
X25402064Y-93290000D02*
X24197936Y-93290000D01*
X70310000Y-25497936D02*
X70310000Y-26702064D01*
X68490000Y-25497936D02*
X68490000Y-26702064D01*
X52627064Y-102035000D02*
X51422936Y-102035000D01*
X52627064Y-100215000D02*
X51422936Y-100215000D01*
X71947936Y-67215000D02*
X73152064Y-67215000D01*
X71947936Y-69035000D02*
X73152064Y-69035000D01*
X22715000Y-39652064D02*
X22715000Y-38447936D01*
X24535000Y-39652064D02*
X24535000Y-38447936D01*
X40282256Y-35569191D02*
X39430809Y-34717744D01*
X41569191Y-34282256D02*
X40717744Y-33430809D01*
X29202064Y-37710000D02*
X27997936Y-37710000D01*
X29202064Y-35890000D02*
X27997936Y-35890000D01*
X27847936Y-25990000D02*
X29052064Y-25990000D01*
X27847936Y-27810000D02*
X29052064Y-27810000D01*
X48272936Y-83290000D02*
X49477064Y-83290000D01*
X48272936Y-85110000D02*
X49477064Y-85110000D01*
X31647936Y-60915000D02*
X32852064Y-60915000D01*
X31647936Y-62735000D02*
X32852064Y-62735000D01*
X28202064Y-63135000D02*
X26997936Y-63135000D01*
X28202064Y-61315000D02*
X26997936Y-61315000D01*
X28202064Y-65460000D02*
X26997936Y-65460000D01*
X28202064Y-63640000D02*
X26997936Y-63640000D01*
X73122936Y-32490000D02*
X74327064Y-32490000D01*
X73122936Y-34310000D02*
X74327064Y-34310000D01*
D13*
X62381000Y-24786900D02*
G75*
G03X62381000Y-24786900I-381000J0D01*
G01*
M02*
