%TF.GenerationSoftware,KiCad,Pcbnew,(6.0.9-0)*%
%TF.CreationDate,2022-11-28T01:24:07-05:00*%
%TF.ProjectId,uBMS-2,75424d53-2d32-42e6-9b69-6361645f7063,rev?*%
%TF.SameCoordinates,Original*%
%TF.FileFunction,Drillmap*%
%TF.FilePolarity,Positive*%
%FSLAX45Y45*%
G04 Gerber Fmt 4.5, Leading zero omitted, Abs format (unit mm)*
G04 Created by KiCad (PCBNEW (6.0.9-0)) date 2022-11-28 01:24:07*
%MOMM*%
%LPD*%
G01*
G04 APERTURE LIST*
%ADD10C,0.050000*%
%ADD11C,0.200000*%
%ADD12C,0.020000*%
%ADD13C,0.025000*%
%ADD14C,0.030000*%
%ADD15C,0.040000*%
%ADD16C,0.065000*%
%ADD17C,0.250000*%
%ADD18C,0.275000*%
G04 APERTURE END LIST*
D10*
X1750000Y-2200000D02*
X1750000Y-11800000D01*
X1950000Y-12000000D02*
X8050000Y-12000000D01*
X8050000Y-2000000D02*
X1950000Y-2000000D01*
X8250000Y-11800000D02*
X8250000Y-2200000D01*
X8050000Y-12000000D02*
G75*
G03*
X8250000Y-11800000I0J200000D01*
G01*
X1950000Y-2000000D02*
G75*
G03*
X1750000Y-2200000I0J-200000D01*
G01*
X8250000Y-2200000D02*
G75*
G03*
X8050000Y-2000000I-200000J0D01*
G01*
X1750000Y-11800000D02*
G75*
G03*
X1950000Y-12000000I200000J0D01*
G01*
D11*
D12*
X2170000Y-2970000D02*
X2190000Y-2990000D01*
X2190000Y-2970000D02*
X2170000Y-2990000D01*
X2170000Y-3200000D02*
X2190000Y-3220000D01*
X2190000Y-3200000D02*
X2170000Y-3220000D01*
X2350000Y-3260000D02*
X2370000Y-3280000D01*
X2370000Y-3260000D02*
X2350000Y-3280000D01*
X2350000Y-3360000D02*
X2370000Y-3380000D01*
X2370000Y-3360000D02*
X2350000Y-3380000D01*
X2350000Y-3460000D02*
X2370000Y-3480000D01*
X2370000Y-3460000D02*
X2350000Y-3480000D01*
X2370000Y-3030000D02*
X2390000Y-3050000D01*
X2390000Y-3030000D02*
X2370000Y-3050000D01*
X2370000Y-3080000D02*
X2390000Y-3100000D01*
X2390000Y-3080000D02*
X2370000Y-3100000D01*
X2370000Y-3130000D02*
X2390000Y-3150000D01*
X2390000Y-3130000D02*
X2370000Y-3150000D01*
X2380000Y-3760000D02*
X2400000Y-3780000D01*
X2400000Y-3760000D02*
X2380000Y-3780000D01*
X2530000Y-3840000D02*
X2550000Y-3860000D01*
X2550000Y-3840000D02*
X2530000Y-3860000D01*
X2530000Y-4230000D02*
X2550000Y-4250000D01*
X2550000Y-4230000D02*
X2530000Y-4250000D01*
X2620000Y-5335000D02*
X2640000Y-5355000D01*
X2640000Y-5335000D02*
X2620000Y-5355000D01*
X2730000Y-3470000D02*
X2750000Y-3490000D01*
X2750000Y-3470000D02*
X2730000Y-3490000D01*
X2740000Y-3050000D02*
X2760000Y-3070000D01*
X2760000Y-3050000D02*
X2740000Y-3070000D01*
X2770000Y-5265000D02*
X2790000Y-5285000D01*
X2790000Y-5265000D02*
X2770000Y-5285000D01*
X2790000Y-4625000D02*
X2810000Y-4645000D01*
X2810000Y-4625000D02*
X2790000Y-4645000D01*
X2800000Y-3050000D02*
X2820000Y-3070000D01*
X2820000Y-3050000D02*
X2800000Y-3070000D01*
X2800000Y-4965000D02*
X2820000Y-4985000D01*
X2820000Y-4965000D02*
X2800000Y-4985000D01*
X2810000Y-3470000D02*
X2830000Y-3490000D01*
X2830000Y-3470000D02*
X2810000Y-3490000D01*
X2920000Y-3120000D02*
X2940000Y-3140000D01*
X2940000Y-3120000D02*
X2920000Y-3140000D01*
X2970000Y-4780000D02*
X2990000Y-4800000D01*
X2990000Y-4780000D02*
X2970000Y-4800000D01*
X2980000Y-3160000D02*
X3000000Y-3180000D01*
X3000000Y-3160000D02*
X2980000Y-3180000D01*
X3020000Y-3260000D02*
X3040000Y-3280000D01*
X3040000Y-3260000D02*
X3020000Y-3280000D01*
X3020000Y-3340000D02*
X3040000Y-3360000D01*
X3040000Y-3340000D02*
X3020000Y-3360000D01*
X3070000Y-2840000D02*
X3090000Y-2860000D01*
X3090000Y-2840000D02*
X3070000Y-2860000D01*
X3080000Y-3580000D02*
X3100000Y-3600000D01*
X3100000Y-3580000D02*
X3080000Y-3600000D01*
X3100000Y-2900000D02*
X3120000Y-2920000D01*
X3120000Y-2900000D02*
X3100000Y-2920000D01*
X3130000Y-2840000D02*
X3150000Y-2860000D01*
X3150000Y-2840000D02*
X3130000Y-2860000D01*
X3160000Y-2900000D02*
X3180000Y-2920000D01*
X3180000Y-2900000D02*
X3160000Y-2920000D01*
X3190000Y-2840000D02*
X3210000Y-2860000D01*
X3210000Y-2840000D02*
X3190000Y-2860000D01*
X3220000Y-2900000D02*
X3240000Y-2920000D01*
X3240000Y-2900000D02*
X3220000Y-2920000D01*
X3320000Y-3100000D02*
X3340000Y-3120000D01*
X3340000Y-3100000D02*
X3320000Y-3120000D01*
X3380000Y-2380000D02*
X3400000Y-2400000D01*
X3400000Y-2380000D02*
X3380000Y-2400000D01*
X3380000Y-2450000D02*
X3400000Y-2470000D01*
X3400000Y-2450000D02*
X3380000Y-2470000D01*
X3380000Y-2520000D02*
X3400000Y-2540000D01*
X3400000Y-2520000D02*
X3380000Y-2540000D01*
X3380000Y-2590000D02*
X3400000Y-2610000D01*
X3400000Y-2590000D02*
X3380000Y-2610000D01*
X3380000Y-2660000D02*
X3400000Y-2680000D01*
X3400000Y-2660000D02*
X3380000Y-2680000D01*
X3390000Y-2980000D02*
X3410000Y-3000000D01*
X3410000Y-2980000D02*
X3390000Y-3000000D01*
X3390000Y-3220000D02*
X3410000Y-3240000D01*
X3410000Y-3220000D02*
X3390000Y-3240000D01*
X3410000Y-2160000D02*
X3430000Y-2180000D01*
X3430000Y-2160000D02*
X3410000Y-2180000D01*
X3410000Y-2900000D02*
X3430000Y-2920000D01*
X3430000Y-2900000D02*
X3410000Y-2920000D01*
X3440000Y-2410000D02*
X3460000Y-2430000D01*
X3460000Y-2410000D02*
X3440000Y-2430000D01*
X3440000Y-2480000D02*
X3460000Y-2500000D01*
X3460000Y-2480000D02*
X3440000Y-2500000D01*
X3440000Y-2550000D02*
X3460000Y-2570000D01*
X3460000Y-2550000D02*
X3440000Y-2570000D01*
X3440000Y-2620000D02*
X3460000Y-2640000D01*
X3460000Y-2620000D02*
X3440000Y-2640000D01*
X3480000Y-3100000D02*
X3500000Y-3120000D01*
X3500000Y-3100000D02*
X3480000Y-3120000D01*
X3600000Y-4300000D02*
X3620000Y-4320000D01*
X3620000Y-4300000D02*
X3600000Y-4320000D01*
X4150000Y-4030000D02*
X4170000Y-4050000D01*
X4170000Y-4030000D02*
X4150000Y-4050000D01*
X4150000Y-4080000D02*
X4170000Y-4100000D01*
X4170000Y-4080000D02*
X4150000Y-4100000D01*
X4150000Y-4130000D02*
X4170000Y-4150000D01*
X4170000Y-4130000D02*
X4150000Y-4150000D01*
X4150000Y-4180000D02*
X4170000Y-4200000D01*
X4170000Y-4180000D02*
X4150000Y-4200000D01*
X4200000Y-4050000D02*
X4220000Y-4070000D01*
X4220000Y-4050000D02*
X4200000Y-4070000D01*
X4200000Y-4100000D02*
X4220000Y-4120000D01*
X4220000Y-4100000D02*
X4200000Y-4120000D01*
X4200000Y-4150000D02*
X4220000Y-4170000D01*
X4220000Y-4150000D02*
X4200000Y-4170000D01*
X4250000Y-4030000D02*
X4270000Y-4050000D01*
X4270000Y-4030000D02*
X4250000Y-4050000D01*
X4250000Y-4080000D02*
X4270000Y-4100000D01*
X4270000Y-4080000D02*
X4250000Y-4100000D01*
X4250000Y-4130000D02*
X4270000Y-4150000D01*
X4270000Y-4130000D02*
X4250000Y-4150000D01*
X4250000Y-4180000D02*
X4270000Y-4200000D01*
X4270000Y-4180000D02*
X4250000Y-4200000D01*
X5460000Y-3520000D02*
X5480000Y-3540000D01*
X5480000Y-3520000D02*
X5460000Y-3540000D01*
X5680000Y-3520000D02*
X5700000Y-3540000D01*
X5700000Y-3520000D02*
X5680000Y-3540000D01*
D13*
X1882500Y-6140000D02*
G75*
G03*
X1882500Y-6140000I-12500J0D01*
G01*
X1932500Y-4940000D02*
G75*
G03*
X1932500Y-4940000I-12500J0D01*
G01*
X1932500Y-5220000D02*
G75*
G03*
X1932500Y-5220000I-12500J0D01*
G01*
X1942500Y-3410000D02*
G75*
G03*
X1942500Y-3410000I-12500J0D01*
G01*
X1962500Y-3230000D02*
G75*
G03*
X1962500Y-3230000I-12500J0D01*
G01*
X1962500Y-6730000D02*
G75*
G03*
X1962500Y-6730000I-12500J0D01*
G01*
X2062500Y-3990000D02*
G75*
G03*
X2062500Y-3990000I-12500J0D01*
G01*
X2062500Y-4110000D02*
G75*
G03*
X2062500Y-4110000I-12500J0D01*
G01*
X2062500Y-4220000D02*
G75*
G03*
X2062500Y-4220000I-12500J0D01*
G01*
X2072500Y-10340000D02*
G75*
G03*
X2072500Y-10340000I-12500J0D01*
G01*
X2072500Y-10570000D02*
G75*
G03*
X2072500Y-10570000I-12500J0D01*
G01*
X2102500Y-4050000D02*
G75*
G03*
X2102500Y-4050000I-12500J0D01*
G01*
X2102500Y-4170000D02*
G75*
G03*
X2102500Y-4170000I-12500J0D01*
G01*
X2112500Y-6140000D02*
G75*
G03*
X2112500Y-6140000I-12500J0D01*
G01*
X2132500Y-3990000D02*
G75*
G03*
X2132500Y-3990000I-12500J0D01*
G01*
X2132500Y-4110000D02*
G75*
G03*
X2132500Y-4110000I-12500J0D01*
G01*
X2132500Y-4220000D02*
G75*
G03*
X2132500Y-4220000I-12500J0D01*
G01*
X2152500Y-10340000D02*
G75*
G03*
X2152500Y-10340000I-12500J0D01*
G01*
X2162500Y-6730000D02*
G75*
G03*
X2162500Y-6730000I-12500J0D01*
G01*
X2172500Y-4050000D02*
G75*
G03*
X2172500Y-4050000I-12500J0D01*
G01*
X2172500Y-4170000D02*
G75*
G03*
X2172500Y-4170000I-12500J0D01*
G01*
X2172500Y-6630000D02*
G75*
G03*
X2172500Y-6630000I-12500J0D01*
G01*
X2182500Y-4480000D02*
G75*
G03*
X2182500Y-4480000I-12500J0D01*
G01*
X2192500Y-3410000D02*
G75*
G03*
X2192500Y-3410000I-12500J0D01*
G01*
X2192500Y-10570000D02*
G75*
G03*
X2192500Y-10570000I-12500J0D01*
G01*
X2192500Y-11090000D02*
G75*
G03*
X2192500Y-11090000I-12500J0D01*
G01*
X2202500Y-3990000D02*
G75*
G03*
X2202500Y-3990000I-12500J0D01*
G01*
X2202500Y-4110000D02*
G75*
G03*
X2202500Y-4110000I-12500J0D01*
G01*
X2202500Y-4220000D02*
G75*
G03*
X2202500Y-4220000I-12500J0D01*
G01*
X2242500Y-4050000D02*
G75*
G03*
X2242500Y-4050000I-12500J0D01*
G01*
X2242500Y-4170000D02*
G75*
G03*
X2242500Y-4170000I-12500J0D01*
G01*
X2252500Y-4380000D02*
G75*
G03*
X2252500Y-4380000I-12500J0D01*
G01*
X2272500Y-3990000D02*
G75*
G03*
X2272500Y-3990000I-12500J0D01*
G01*
X2272500Y-4110000D02*
G75*
G03*
X2272500Y-4110000I-12500J0D01*
G01*
X2272500Y-4220000D02*
G75*
G03*
X2272500Y-4220000I-12500J0D01*
G01*
X2312500Y-4050000D02*
G75*
G03*
X2312500Y-4050000I-12500J0D01*
G01*
X2312500Y-4170000D02*
G75*
G03*
X2312500Y-4170000I-12500J0D01*
G01*
X2342500Y-4110000D02*
G75*
G03*
X2342500Y-4110000I-12500J0D01*
G01*
X2342500Y-4220000D02*
G75*
G03*
X2342500Y-4220000I-12500J0D01*
G01*
X2352500Y-6630000D02*
G75*
G03*
X2352500Y-6630000I-12500J0D01*
G01*
X2382500Y-4170000D02*
G75*
G03*
X2382500Y-4170000I-12500J0D01*
G01*
X2412500Y-8830000D02*
G75*
G03*
X2412500Y-8830000I-12500J0D01*
G01*
X2412500Y-8910000D02*
G75*
G03*
X2412500Y-8910000I-12500J0D01*
G01*
X2412500Y-9000000D02*
G75*
G03*
X2412500Y-9000000I-12500J0D01*
G01*
X2412500Y-9080000D02*
G75*
G03*
X2412500Y-9080000I-12500J0D01*
G01*
X2412500Y-9170000D02*
G75*
G03*
X2412500Y-9170000I-12500J0D01*
G01*
X2412500Y-9250000D02*
G75*
G03*
X2412500Y-9250000I-12500J0D01*
G01*
X2412500Y-9340000D02*
G75*
G03*
X2412500Y-9340000I-12500J0D01*
G01*
X2412500Y-9420000D02*
G75*
G03*
X2412500Y-9420000I-12500J0D01*
G01*
X2412500Y-9510000D02*
G75*
G03*
X2412500Y-9510000I-12500J0D01*
G01*
X2412500Y-9590000D02*
G75*
G03*
X2412500Y-9590000I-12500J0D01*
G01*
X2412500Y-9680000D02*
G75*
G03*
X2412500Y-9680000I-12500J0D01*
G01*
X2412500Y-9760000D02*
G75*
G03*
X2412500Y-9760000I-12500J0D01*
G01*
X2412500Y-9850000D02*
G75*
G03*
X2412500Y-9850000I-12500J0D01*
G01*
X2412500Y-9930000D02*
G75*
G03*
X2412500Y-9930000I-12500J0D01*
G01*
X2412500Y-10020000D02*
G75*
G03*
X2412500Y-10020000I-12500J0D01*
G01*
X2422500Y-4220000D02*
G75*
G03*
X2422500Y-4220000I-12500J0D01*
G01*
X2422500Y-6140000D02*
G75*
G03*
X2422500Y-6140000I-12500J0D01*
G01*
X2422500Y-10570000D02*
G75*
G03*
X2422500Y-10570000I-12500J0D01*
G01*
X2442500Y-8470000D02*
G75*
G03*
X2442500Y-8470000I-12500J0D01*
G01*
X2442500Y-8570000D02*
G75*
G03*
X2442500Y-8570000I-12500J0D01*
G01*
X2482500Y-6720000D02*
G75*
G03*
X2482500Y-6720000I-12500J0D01*
G01*
X2512500Y-10000000D02*
G75*
G03*
X2512500Y-10000000I-12500J0D01*
G01*
X2602500Y-5690000D02*
G75*
G03*
X2602500Y-5690000I-12500J0D01*
G01*
X2602500Y-8860000D02*
G75*
G03*
X2602500Y-8860000I-12500J0D01*
G01*
X2612500Y-10340000D02*
G75*
G03*
X2612500Y-10340000I-12500J0D01*
G01*
X2642500Y-6140000D02*
G75*
G03*
X2642500Y-6140000I-12500J0D01*
G01*
X2682500Y-8900000D02*
G75*
G03*
X2682500Y-8900000I-12500J0D01*
G01*
X2762500Y-10590000D02*
G75*
G03*
X2762500Y-10590000I-12500J0D01*
G01*
X2772500Y-8450000D02*
G75*
G03*
X2772500Y-8450000I-12500J0D01*
G01*
X2772500Y-10050000D02*
G75*
G03*
X2772500Y-10050000I-12500J0D01*
G01*
X2882500Y-10390000D02*
G75*
G03*
X2882500Y-10390000I-12500J0D01*
G01*
X2892500Y-11520000D02*
G75*
G03*
X2892500Y-11520000I-12500J0D01*
G01*
X2902500Y-10290000D02*
G75*
G03*
X2902500Y-10290000I-12500J0D01*
G01*
X2962500Y-11770000D02*
G75*
G03*
X2962500Y-11770000I-12500J0D01*
G01*
X2992500Y-3690000D02*
G75*
G03*
X2992500Y-3690000I-12500J0D01*
G01*
X3032500Y-10040000D02*
G75*
G03*
X3032500Y-10040000I-12500J0D01*
G01*
X3037500Y-4445000D02*
G75*
G03*
X3037500Y-4445000I-12500J0D01*
G01*
X3062500Y-10290000D02*
G75*
G03*
X3062500Y-10290000I-12500J0D01*
G01*
X3082500Y-4270000D02*
G75*
G03*
X3082500Y-4270000I-12500J0D01*
G01*
X3082500Y-4340000D02*
G75*
G03*
X3082500Y-4340000I-12500J0D01*
G01*
X3082500Y-10390000D02*
G75*
G03*
X3082500Y-10390000I-12500J0D01*
G01*
X3092500Y-11520000D02*
G75*
G03*
X3092500Y-11520000I-12500J0D01*
G01*
X3112500Y-10040000D02*
G75*
G03*
X3112500Y-10040000I-12500J0D01*
G01*
X3162500Y-11770000D02*
G75*
G03*
X3162500Y-11770000I-12500J0D01*
G01*
X3167500Y-3865000D02*
G75*
G03*
X3167500Y-3865000I-12500J0D01*
G01*
X3179240Y-5010000D02*
G75*
G03*
X3179240Y-5010000I-12500J0D01*
G01*
X3179240Y-5080000D02*
G75*
G03*
X3179240Y-5080000I-12500J0D01*
G01*
X3179240Y-5170000D02*
G75*
G03*
X3179240Y-5170000I-12500J0D01*
G01*
X3179240Y-5240000D02*
G75*
G03*
X3179240Y-5240000I-12500J0D01*
G01*
X3212500Y-3820000D02*
G75*
G03*
X3212500Y-3820000I-12500J0D01*
G01*
X3262500Y-10290000D02*
G75*
G03*
X3262500Y-10290000I-12500J0D01*
G01*
X3282500Y-10040000D02*
G75*
G03*
X3282500Y-10040000I-12500J0D01*
G01*
X3292500Y-8860000D02*
G75*
G03*
X3292500Y-8860000I-12500J0D01*
G01*
X3292500Y-10390000D02*
G75*
G03*
X3292500Y-10390000I-12500J0D01*
G01*
X3292500Y-11520000D02*
G75*
G03*
X3292500Y-11520000I-12500J0D01*
G01*
X3362500Y-4380000D02*
G75*
G03*
X3362500Y-4380000I-12500J0D01*
G01*
X3362500Y-8860000D02*
G75*
G03*
X3362500Y-8860000I-12500J0D01*
G01*
X3362500Y-11770000D02*
G75*
G03*
X3362500Y-11770000I-12500J0D01*
G01*
X3372500Y-10040000D02*
G75*
G03*
X3372500Y-10040000I-12500J0D01*
G01*
X3442500Y-4750000D02*
G75*
G03*
X3442500Y-4750000I-12500J0D01*
G01*
X3452500Y-8860000D02*
G75*
G03*
X3452500Y-8860000I-12500J0D01*
G01*
X3452500Y-10040000D02*
G75*
G03*
X3452500Y-10040000I-12500J0D01*
G01*
X3492500Y-10390000D02*
G75*
G03*
X3492500Y-10390000I-12500J0D01*
G01*
X3492500Y-11520000D02*
G75*
G03*
X3492500Y-11520000I-12500J0D01*
G01*
X3502500Y-4280000D02*
G75*
G03*
X3502500Y-4280000I-12500J0D01*
G01*
X3542500Y-3950000D02*
G75*
G03*
X3542500Y-3950000I-12500J0D01*
G01*
X3542500Y-10040000D02*
G75*
G03*
X3542500Y-10040000I-12500J0D01*
G01*
X3552500Y-4830000D02*
G75*
G03*
X3552500Y-4830000I-12500J0D01*
G01*
X3562500Y-8860000D02*
G75*
G03*
X3562500Y-8860000I-12500J0D01*
G01*
X3572500Y-4600000D02*
G75*
G03*
X3572500Y-4600000I-12500J0D01*
G01*
X3602500Y-4890000D02*
G75*
G03*
X3602500Y-4890000I-12500J0D01*
G01*
X3622500Y-10040000D02*
G75*
G03*
X3622500Y-10040000I-12500J0D01*
G01*
X3652500Y-4950000D02*
G75*
G03*
X3652500Y-4950000I-12500J0D01*
G01*
X3662500Y-10280000D02*
G75*
G03*
X3662500Y-10280000I-12500J0D01*
G01*
X3692500Y-11520000D02*
G75*
G03*
X3692500Y-11520000I-12500J0D01*
G01*
X3702500Y-5020000D02*
G75*
G03*
X3702500Y-5020000I-12500J0D01*
G01*
X3762500Y-5080000D02*
G75*
G03*
X3762500Y-5080000I-12500J0D01*
G01*
X3792500Y-10020000D02*
G75*
G03*
X3792500Y-10020000I-12500J0D01*
G01*
X3792500Y-10120000D02*
G75*
G03*
X3792500Y-10120000I-12500J0D01*
G01*
X3822500Y-9300000D02*
G75*
G03*
X3822500Y-9300000I-12500J0D01*
G01*
X3832500Y-10290000D02*
G75*
G03*
X3832500Y-10290000I-12500J0D01*
G01*
X3862500Y-5360000D02*
G75*
G03*
X3862500Y-5360000I-12500J0D01*
G01*
X3872500Y-11800000D02*
G75*
G03*
X3872500Y-11800000I-12500J0D01*
G01*
X3882500Y-9610000D02*
G75*
G03*
X3882500Y-9610000I-12500J0D01*
G01*
X3892500Y-11520000D02*
G75*
G03*
X3892500Y-11520000I-12500J0D01*
G01*
X3902500Y-4370000D02*
G75*
G03*
X3902500Y-4370000I-12500J0D01*
G01*
X3922500Y-9994950D02*
G75*
G03*
X3922500Y-9994950I-12500J0D01*
G01*
X3982500Y-4330000D02*
G75*
G03*
X3982500Y-4330000I-12500J0D01*
G01*
X3982500Y-9330000D02*
G75*
G03*
X3982500Y-9330000I-12500J0D01*
G01*
X3997500Y-9994950D02*
G75*
G03*
X3997500Y-9994950I-12500J0D01*
G01*
X4012500Y-4760000D02*
G75*
G03*
X4012500Y-4760000I-12500J0D01*
G01*
X4032500Y-5260000D02*
G75*
G03*
X4032500Y-5260000I-12500J0D01*
G01*
X4062500Y-11720000D02*
G75*
G03*
X4062500Y-11720000I-12500J0D01*
G01*
X4087500Y-9994950D02*
G75*
G03*
X4087500Y-9994950I-12500J0D01*
G01*
X4152500Y-11620000D02*
G75*
G03*
X4152500Y-11620000I-12500J0D01*
G01*
X4162500Y-9994950D02*
G75*
G03*
X4162500Y-9994950I-12500J0D01*
G01*
X4252500Y-11620000D02*
G75*
G03*
X4252500Y-11620000I-12500J0D01*
G01*
X4332500Y-9010000D02*
G75*
G03*
X4332500Y-9010000I-12500J0D01*
G01*
X4352500Y-5140000D02*
G75*
G03*
X4352500Y-5140000I-12500J0D01*
G01*
X4362500Y-10000000D02*
G75*
G03*
X4362500Y-10000000I-12500J0D01*
G01*
X4382500Y-7480000D02*
G75*
G03*
X4382500Y-7480000I-12500J0D01*
G01*
X4382500Y-8600000D02*
G75*
G03*
X4382500Y-8600000I-12500J0D01*
G01*
X4382500Y-9730000D02*
G75*
G03*
X4382500Y-9730000I-12500J0D01*
G01*
X4392500Y-6350000D02*
G75*
G03*
X4392500Y-6350000I-12500J0D01*
G01*
X4442500Y-10000000D02*
G75*
G03*
X4442500Y-10000000I-12500J0D01*
G01*
X4502500Y-6350000D02*
G75*
G03*
X4502500Y-6350000I-12500J0D01*
G01*
X4552500Y-5140000D02*
G75*
G03*
X4552500Y-5140000I-12500J0D01*
G01*
X4572500Y-11710000D02*
G75*
G03*
X4572500Y-11710000I-12500J0D01*
G01*
X4622500Y-4540000D02*
G75*
G03*
X4622500Y-4540000I-12500J0D01*
G01*
X4662500Y-5260000D02*
G75*
G03*
X4662500Y-5260000I-12500J0D01*
G01*
X4672500Y-5530000D02*
G75*
G03*
X4672500Y-5530000I-12500J0D01*
G01*
X4692500Y-4540000D02*
G75*
G03*
X4692500Y-4540000I-12500J0D01*
G01*
X4722500Y-4870000D02*
G75*
G03*
X4722500Y-4870000I-12500J0D01*
G01*
X4722500Y-4986850D02*
G75*
G03*
X4722500Y-4986850I-12500J0D01*
G01*
X4722500Y-5450000D02*
G75*
G03*
X4722500Y-5450000I-12500J0D01*
G01*
X4742500Y-4700000D02*
G75*
G03*
X4742500Y-4700000I-12500J0D01*
G01*
X4742500Y-11540000D02*
G75*
G03*
X4742500Y-11540000I-12500J0D01*
G01*
X4792500Y-7760000D02*
G75*
G03*
X4792500Y-7760000I-12500J0D01*
G01*
X4792500Y-10000000D02*
G75*
G03*
X4792500Y-10000000I-12500J0D01*
G01*
X4852500Y-4910000D02*
G75*
G03*
X4852500Y-4910000I-12500J0D01*
G01*
X4872500Y-7760000D02*
G75*
G03*
X4872500Y-7760000I-12500J0D01*
G01*
X4872500Y-10540000D02*
G75*
G03*
X4872500Y-10540000I-12500J0D01*
G01*
X4872500Y-10770000D02*
G75*
G03*
X4872500Y-10770000I-12500J0D01*
G01*
X4882500Y-11220000D02*
G75*
G03*
X4882500Y-11220000I-12500J0D01*
G01*
X4952500Y-4390000D02*
G75*
G03*
X4952500Y-4390000I-12500J0D01*
G01*
X4952500Y-4910000D02*
G75*
G03*
X4952500Y-4910000I-12500J0D01*
G01*
X4982500Y-7760000D02*
G75*
G03*
X4982500Y-7760000I-12500J0D01*
G01*
X4992500Y-10060000D02*
G75*
G03*
X4992500Y-10060000I-12500J0D01*
G01*
X5021082Y-4891157D02*
G75*
G03*
X5021082Y-4891157I-12500J0D01*
G01*
X5052500Y-4390000D02*
G75*
G03*
X5052500Y-4390000I-12500J0D01*
G01*
X5062500Y-11600000D02*
G75*
G03*
X5062500Y-11600000I-12500J0D01*
G01*
X5092500Y-4890000D02*
G75*
G03*
X5092500Y-4890000I-12500J0D01*
G01*
X5102500Y-4350000D02*
G75*
G03*
X5102500Y-4350000I-12500J0D01*
G01*
X5102500Y-10790000D02*
G75*
G03*
X5102500Y-10790000I-12500J0D01*
G01*
X5112500Y-4580000D02*
G75*
G03*
X5112500Y-4580000I-12500J0D01*
G01*
X5112500Y-11720000D02*
G75*
G03*
X5112500Y-11720000I-12500J0D01*
G01*
X5122500Y-10470000D02*
G75*
G03*
X5122500Y-10470000I-12500J0D01*
G01*
X5142500Y-5280220D02*
G75*
G03*
X5142500Y-5280220I-12500J0D01*
G01*
X5142500Y-10370000D02*
G75*
G03*
X5142500Y-10370000I-12500J0D01*
G01*
X5170174Y-4913223D02*
G75*
G03*
X5170174Y-4913223I-12500J0D01*
G01*
X5172500Y-4510000D02*
G75*
G03*
X5172500Y-4510000I-12500J0D01*
G01*
X5202500Y-11230000D02*
G75*
G03*
X5202500Y-11230000I-12500J0D01*
G01*
X5212038Y-5230730D02*
G75*
G03*
X5212038Y-5230730I-12500J0D01*
G01*
X5212500Y-11730000D02*
G75*
G03*
X5212500Y-11730000I-12500J0D01*
G01*
X5222500Y-4960000D02*
G75*
G03*
X5222500Y-4960000I-12500J0D01*
G01*
X5232500Y-7760000D02*
G75*
G03*
X5232500Y-7760000I-12500J0D01*
G01*
X5232500Y-10210000D02*
G75*
G03*
X5232500Y-10210000I-12500J0D01*
G01*
X5262500Y-5040000D02*
G75*
G03*
X5262500Y-5040000I-12500J0D01*
G01*
X5272500Y-11190000D02*
G75*
G03*
X5272500Y-11190000I-12500J0D01*
G01*
X5312500Y-11730000D02*
G75*
G03*
X5312500Y-11730000I-12500J0D01*
G01*
X5332500Y-4080000D02*
G75*
G03*
X5332500Y-4080000I-12500J0D01*
G01*
X5332500Y-4800000D02*
G75*
G03*
X5332500Y-4800000I-12500J0D01*
G01*
X5332500Y-5130000D02*
G75*
G03*
X5332500Y-5130000I-12500J0D01*
G01*
X5332500Y-5230000D02*
G75*
G03*
X5332500Y-5230000I-12500J0D01*
G01*
X5372500Y-7740000D02*
G75*
G03*
X5372500Y-7740000I-12500J0D01*
G01*
X5382500Y-5300000D02*
G75*
G03*
X5382500Y-5300000I-12500J0D01*
G01*
X5382500Y-10370000D02*
G75*
G03*
X5382500Y-10370000I-12500J0D01*
G01*
X5382500Y-10470000D02*
G75*
G03*
X5382500Y-10470000I-12500J0D01*
G01*
X5392500Y-10150000D02*
G75*
G03*
X5392500Y-10150000I-12500J0D01*
G01*
X5422500Y-4930000D02*
G75*
G03*
X5422500Y-4930000I-12500J0D01*
G01*
X5482500Y-5230000D02*
G75*
G03*
X5482500Y-5230000I-12500J0D01*
G01*
X5582500Y-5230000D02*
G75*
G03*
X5582500Y-5230000I-12500J0D01*
G01*
X5672500Y-4940000D02*
G75*
G03*
X5672500Y-4940000I-12500J0D01*
G01*
X5692500Y-4330000D02*
G75*
G03*
X5692500Y-4330000I-12500J0D01*
G01*
X5722500Y-4580000D02*
G75*
G03*
X5722500Y-4580000I-12500J0D01*
G01*
X5732500Y-11540000D02*
G75*
G03*
X5732500Y-11540000I-12500J0D01*
G01*
X5832500Y-4910000D02*
G75*
G03*
X5832500Y-4910000I-12500J0D01*
G01*
X5852500Y-4080000D02*
G75*
G03*
X5852500Y-4080000I-12500J0D01*
G01*
X5862500Y-10540000D02*
G75*
G03*
X5862500Y-10540000I-12500J0D01*
G01*
X5992500Y-2320000D02*
G75*
G03*
X5992500Y-2320000I-12500J0D01*
G01*
X5992500Y-10560000D02*
G75*
G03*
X5992500Y-10560000I-12500J0D01*
G01*
X5992500Y-11440000D02*
G75*
G03*
X5992500Y-11440000I-12500J0D01*
G01*
X6062500Y-10390000D02*
G75*
G03*
X6062500Y-10390000I-12500J0D01*
G01*
X6062500Y-11610000D02*
G75*
G03*
X6062500Y-11610000I-12500J0D01*
G01*
X6082500Y-6350000D02*
G75*
G03*
X6082500Y-6350000I-12500J0D01*
G01*
X6082500Y-7480000D02*
G75*
G03*
X6082500Y-7480000I-12500J0D01*
G01*
X6082500Y-8600000D02*
G75*
G03*
X6082500Y-8600000I-12500J0D01*
G01*
X6082500Y-9730000D02*
G75*
G03*
X6082500Y-9730000I-12500J0D01*
G01*
X6192500Y-10560000D02*
G75*
G03*
X6192500Y-10560000I-12500J0D01*
G01*
X6192500Y-11440000D02*
G75*
G03*
X6192500Y-11440000I-12500J0D01*
G01*
X6262500Y-4920000D02*
G75*
G03*
X6262500Y-4920000I-12500J0D01*
G01*
X6262500Y-10390000D02*
G75*
G03*
X6262500Y-10390000I-12500J0D01*
G01*
X6262500Y-11610000D02*
G75*
G03*
X6262500Y-11610000I-12500J0D01*
G01*
X6332500Y-2050000D02*
G75*
G03*
X6332500Y-2050000I-12500J0D01*
G01*
X6332500Y-2560000D02*
G75*
G03*
X6332500Y-2560000I-12500J0D01*
G01*
X6392500Y-10560000D02*
G75*
G03*
X6392500Y-10560000I-12500J0D01*
G01*
X6392500Y-11440000D02*
G75*
G03*
X6392500Y-11440000I-12500J0D01*
G01*
X6432500Y-4920000D02*
G75*
G03*
X6432500Y-4920000I-12500J0D01*
G01*
X6462500Y-10390000D02*
G75*
G03*
X6462500Y-10390000I-12500J0D01*
G01*
X6462500Y-11610000D02*
G75*
G03*
X6462500Y-11610000I-12500J0D01*
G01*
X6502500Y-2050000D02*
G75*
G03*
X6502500Y-2050000I-12500J0D01*
G01*
X6502500Y-2560000D02*
G75*
G03*
X6502500Y-2560000I-12500J0D01*
G01*
X6592500Y-10560000D02*
G75*
G03*
X6592500Y-10560000I-12500J0D01*
G01*
X6592500Y-11440000D02*
G75*
G03*
X6592500Y-11440000I-12500J0D01*
G01*
X6662500Y-10390000D02*
G75*
G03*
X6662500Y-10390000I-12500J0D01*
G01*
X6662500Y-11610000D02*
G75*
G03*
X6662500Y-11610000I-12500J0D01*
G01*
X6672500Y-2050000D02*
G75*
G03*
X6672500Y-2050000I-12500J0D01*
G01*
X6672500Y-2560000D02*
G75*
G03*
X6672500Y-2560000I-12500J0D01*
G01*
X6792500Y-10560000D02*
G75*
G03*
X6792500Y-10560000I-12500J0D01*
G01*
X6792500Y-11440000D02*
G75*
G03*
X6792500Y-11440000I-12500J0D01*
G01*
X6842500Y-2050000D02*
G75*
G03*
X6842500Y-2050000I-12500J0D01*
G01*
X6842500Y-2560000D02*
G75*
G03*
X6842500Y-2560000I-12500J0D01*
G01*
X6862500Y-10390000D02*
G75*
G03*
X6862500Y-10390000I-12500J0D01*
G01*
X6862500Y-11610000D02*
G75*
G03*
X6862500Y-11610000I-12500J0D01*
G01*
X6992500Y-10560000D02*
G75*
G03*
X6992500Y-10560000I-12500J0D01*
G01*
X6992500Y-11440000D02*
G75*
G03*
X6992500Y-11440000I-12500J0D01*
G01*
X7012500Y-2050000D02*
G75*
G03*
X7012500Y-2050000I-12500J0D01*
G01*
X7012500Y-2560000D02*
G75*
G03*
X7012500Y-2560000I-12500J0D01*
G01*
X7062500Y-10390000D02*
G75*
G03*
X7062500Y-10390000I-12500J0D01*
G01*
X7062500Y-11610000D02*
G75*
G03*
X7062500Y-11610000I-12500J0D01*
G01*
X7182500Y-2050000D02*
G75*
G03*
X7182500Y-2050000I-12500J0D01*
G01*
X7182500Y-2560000D02*
G75*
G03*
X7182500Y-2560000I-12500J0D01*
G01*
X7262500Y-10610000D02*
G75*
G03*
X7262500Y-10610000I-12500J0D01*
G01*
X7262500Y-11400000D02*
G75*
G03*
X7262500Y-11400000I-12500J0D01*
G01*
X7352500Y-2050000D02*
G75*
G03*
X7352500Y-2050000I-12500J0D01*
G01*
X7352500Y-2560000D02*
G75*
G03*
X7352500Y-2560000I-12500J0D01*
G01*
X7352500Y-3270000D02*
G75*
G03*
X7352500Y-3270000I-12500J0D01*
G01*
X7382500Y-4930000D02*
G75*
G03*
X7382500Y-4930000I-12500J0D01*
G01*
X7392500Y-9890000D02*
G75*
G03*
X7392500Y-9890000I-12500J0D01*
G01*
X7452500Y-3270000D02*
G75*
G03*
X7452500Y-3270000I-12500J0D01*
G01*
X7482500Y-9920000D02*
G75*
G03*
X7482500Y-9920000I-12500J0D01*
G01*
X7522500Y-2960000D02*
G75*
G03*
X7522500Y-2960000I-12500J0D01*
G01*
X7552500Y-9950000D02*
G75*
G03*
X7552500Y-9950000I-12500J0D01*
G01*
X7622500Y-2820000D02*
G75*
G03*
X7622500Y-2820000I-12500J0D01*
G01*
X7692500Y-9950000D02*
G75*
G03*
X7692500Y-9950000I-12500J0D01*
G01*
X7772500Y-6350000D02*
G75*
G03*
X7772500Y-6350000I-12500J0D01*
G01*
X7772500Y-7480000D02*
G75*
G03*
X7772500Y-7480000I-12500J0D01*
G01*
X7772500Y-8600000D02*
G75*
G03*
X7772500Y-8600000I-12500J0D01*
G01*
X7772500Y-9730000D02*
G75*
G03*
X7772500Y-9730000I-12500J0D01*
G01*
X7772500Y-9950000D02*
G75*
G03*
X7772500Y-9950000I-12500J0D01*
G01*
X7832500Y-4190000D02*
G75*
G03*
X7832500Y-4190000I-12500J0D01*
G01*
X7842500Y-9980000D02*
G75*
G03*
X7842500Y-9980000I-12500J0D01*
G01*
X7902500Y-4190000D02*
G75*
G03*
X7902500Y-4190000I-12500J0D01*
G01*
X7972500Y-4190000D02*
G75*
G03*
X7972500Y-4190000I-12500J0D01*
G01*
X8042500Y-4190000D02*
G75*
G03*
X8042500Y-4190000I-12500J0D01*
G01*
X8112500Y-4190000D02*
G75*
G03*
X8112500Y-4190000I-12500J0D01*
G01*
D14*
X2730000Y-3180000D02*
X2730000Y-3210000D01*
X2715000Y-3195000D02*
X2745000Y-3195000D01*
X2730000Y-3330000D02*
X2730000Y-3360000D01*
X2715000Y-3345000D02*
X2745000Y-3345000D01*
X2780000Y-3255000D02*
X2780000Y-3285000D01*
X2765000Y-3270000D02*
X2795000Y-3270000D01*
X2830000Y-3180000D02*
X2830000Y-3210000D01*
X2815000Y-3195000D02*
X2845000Y-3195000D01*
X2830000Y-3330000D02*
X2830000Y-3360000D01*
X2815000Y-3345000D02*
X2845000Y-3345000D01*
D15*
X1864142Y-7164142D02*
X1864142Y-7135858D01*
X1835858Y-7135858D01*
X1835858Y-7164142D01*
X1864142Y-7164142D01*
X1864142Y-7364142D02*
X1864142Y-7335858D01*
X1835858Y-7335858D01*
X1835858Y-7364142D01*
X1864142Y-7364142D01*
X1864142Y-7564142D02*
X1864142Y-7535858D01*
X1835858Y-7535858D01*
X1835858Y-7564142D01*
X1864142Y-7564142D01*
X1864142Y-7764142D02*
X1864142Y-7735858D01*
X1835858Y-7735858D01*
X1835858Y-7764142D01*
X1864142Y-7764142D01*
X1864142Y-7964142D02*
X1864142Y-7935858D01*
X1835858Y-7935858D01*
X1835858Y-7964142D01*
X1864142Y-7964142D01*
X1864142Y-8164142D02*
X1864142Y-8135858D01*
X1835858Y-8135858D01*
X1835858Y-8164142D01*
X1864142Y-8164142D01*
X1864142Y-8364142D02*
X1864142Y-8335858D01*
X1835858Y-8335858D01*
X1835858Y-8364142D01*
X1864142Y-8364142D01*
X2014142Y-3814142D02*
X2014142Y-3785858D01*
X1985858Y-3785858D01*
X1985858Y-3814142D01*
X2014142Y-3814142D01*
X2014142Y-11264142D02*
X2014142Y-11235858D01*
X1985858Y-11235858D01*
X1985858Y-11264142D01*
X2014142Y-11264142D01*
X2064142Y-2814142D02*
X2064142Y-2785858D01*
X2035858Y-2785858D01*
X2035858Y-2814142D01*
X2064142Y-2814142D01*
X2214142Y-3814142D02*
X2214142Y-3785858D01*
X2185858Y-3785858D01*
X2185858Y-3814142D01*
X2214142Y-3814142D01*
X2264142Y-11264142D02*
X2264142Y-11235858D01*
X2235858Y-11235858D01*
X2235858Y-11264142D01*
X2264142Y-11264142D01*
X2514142Y-11264142D02*
X2514142Y-11235858D01*
X2485858Y-11235858D01*
X2485858Y-11264142D01*
X2514142Y-11264142D01*
X2514142Y-11514142D02*
X2514142Y-11485858D01*
X2485858Y-11485858D01*
X2485858Y-11514142D01*
X2514142Y-11514142D01*
X2514142Y-11764142D02*
X2514142Y-11735858D01*
X2485858Y-11735858D01*
X2485858Y-11764142D01*
X2514142Y-11764142D01*
X2764142Y-5764142D02*
X2764142Y-5735858D01*
X2735858Y-5735858D01*
X2735858Y-5764142D01*
X2764142Y-5764142D01*
X2764142Y-11514142D02*
X2764142Y-11485858D01*
X2735858Y-11485858D01*
X2735858Y-11514142D01*
X2764142Y-11514142D01*
X2764142Y-11764142D02*
X2764142Y-11735858D01*
X2735858Y-11735858D01*
X2735858Y-11764142D01*
X2764142Y-11764142D01*
X2914142Y-2314142D02*
X2914142Y-2285858D01*
X2885858Y-2285858D01*
X2885858Y-2314142D01*
X2914142Y-2314142D01*
X2914142Y-2514142D02*
X2914142Y-2485858D01*
X2885858Y-2485858D01*
X2885858Y-2514142D01*
X2914142Y-2514142D01*
X2914142Y-2714142D02*
X2914142Y-2685858D01*
X2885858Y-2685858D01*
X2885858Y-2714142D01*
X2914142Y-2714142D01*
X2914142Y-2914142D02*
X2914142Y-2885858D01*
X2885858Y-2885858D01*
X2885858Y-2914142D01*
X2914142Y-2914142D01*
X3264142Y-5514142D02*
X3264142Y-5485858D01*
X3235858Y-5485858D01*
X3235858Y-5514142D01*
X3264142Y-5514142D01*
X3264142Y-6764142D02*
X3264142Y-6735858D01*
X3235858Y-6735858D01*
X3235858Y-6764142D01*
X3264142Y-6764142D01*
X3264142Y-7764142D02*
X3264142Y-7735858D01*
X3235858Y-7735858D01*
X3235858Y-7764142D01*
X3264142Y-7764142D01*
X3764142Y-2264142D02*
X3764142Y-2235858D01*
X3735858Y-2235858D01*
X3735858Y-2264142D01*
X3764142Y-2264142D01*
X3764142Y-2514142D02*
X3764142Y-2485858D01*
X3735858Y-2485858D01*
X3735858Y-2514142D01*
X3764142Y-2514142D01*
X3764142Y-2764142D02*
X3764142Y-2735858D01*
X3735858Y-2735858D01*
X3735858Y-2764142D01*
X3764142Y-2764142D01*
X4014142Y-2264142D02*
X4014142Y-2235858D01*
X3985858Y-2235858D01*
X3985858Y-2264142D01*
X4014142Y-2264142D01*
X4014142Y-2514142D02*
X4014142Y-2485858D01*
X3985858Y-2485858D01*
X3985858Y-2514142D01*
X4014142Y-2514142D01*
X4014142Y-2764142D02*
X4014142Y-2735858D01*
X3985858Y-2735858D01*
X3985858Y-2764142D01*
X4014142Y-2764142D01*
X4014142Y-3014142D02*
X4014142Y-2985858D01*
X3985858Y-2985858D01*
X3985858Y-3014142D01*
X4014142Y-3014142D01*
X4014142Y-3264142D02*
X4014142Y-3235858D01*
X3985858Y-3235858D01*
X3985858Y-3264142D01*
X4014142Y-3264142D01*
X4014142Y-5514142D02*
X4014142Y-5485858D01*
X3985858Y-5485858D01*
X3985858Y-5514142D01*
X4014142Y-5514142D01*
X4014142Y-6764142D02*
X4014142Y-6735858D01*
X3985858Y-6735858D01*
X3985858Y-6764142D01*
X4014142Y-6764142D01*
X4014142Y-10264142D02*
X4014142Y-10235858D01*
X3985858Y-10235858D01*
X3985858Y-10264142D01*
X4014142Y-10264142D01*
X4014142Y-10514142D02*
X4014142Y-10485858D01*
X3985858Y-10485858D01*
X3985858Y-10514142D01*
X4014142Y-10514142D01*
X4264142Y-2264142D02*
X4264142Y-2235858D01*
X4235858Y-2235858D01*
X4235858Y-2264142D01*
X4264142Y-2264142D01*
X4264142Y-2514142D02*
X4264142Y-2485858D01*
X4235858Y-2485858D01*
X4235858Y-2514142D01*
X4264142Y-2514142D01*
X4264142Y-2764142D02*
X4264142Y-2735858D01*
X4235858Y-2735858D01*
X4235858Y-2764142D01*
X4264142Y-2764142D01*
X4264142Y-3014142D02*
X4264142Y-2985858D01*
X4235858Y-2985858D01*
X4235858Y-3014142D01*
X4264142Y-3014142D01*
X4264142Y-3264142D02*
X4264142Y-3235858D01*
X4235858Y-3235858D01*
X4235858Y-3264142D01*
X4264142Y-3264142D01*
X4264142Y-5514142D02*
X4264142Y-5485858D01*
X4235858Y-5485858D01*
X4235858Y-5514142D01*
X4264142Y-5514142D01*
X4264142Y-10264142D02*
X4264142Y-10235858D01*
X4235858Y-10235858D01*
X4235858Y-10264142D01*
X4264142Y-10264142D01*
X4514142Y-2264142D02*
X4514142Y-2235858D01*
X4485858Y-2235858D01*
X4485858Y-2264142D01*
X4514142Y-2264142D01*
X4514142Y-2514142D02*
X4514142Y-2485858D01*
X4485858Y-2485858D01*
X4485858Y-2514142D01*
X4514142Y-2514142D01*
X4514142Y-2764142D02*
X4514142Y-2735858D01*
X4485858Y-2735858D01*
X4485858Y-2764142D01*
X4514142Y-2764142D01*
X4514142Y-3014142D02*
X4514142Y-2985858D01*
X4485858Y-2985858D01*
X4485858Y-3014142D01*
X4514142Y-3014142D01*
X4514142Y-3264142D02*
X4514142Y-3235858D01*
X4485858Y-3235858D01*
X4485858Y-3264142D01*
X4514142Y-3264142D01*
X4514142Y-6764142D02*
X4514142Y-6735858D01*
X4485858Y-6735858D01*
X4485858Y-6764142D01*
X4514142Y-6764142D01*
X4514142Y-7764142D02*
X4514142Y-7735858D01*
X4485858Y-7735858D01*
X4485858Y-7764142D01*
X4514142Y-7764142D01*
X4514142Y-8014142D02*
X4514142Y-7985858D01*
X4485858Y-7985858D01*
X4485858Y-8014142D01*
X4514142Y-8014142D01*
X4514142Y-9014142D02*
X4514142Y-8985858D01*
X4485858Y-8985858D01*
X4485858Y-9014142D01*
X4514142Y-9014142D01*
X4764142Y-2264142D02*
X4764142Y-2235858D01*
X4735858Y-2235858D01*
X4735858Y-2264142D01*
X4764142Y-2264142D01*
X4764142Y-2514142D02*
X4764142Y-2485858D01*
X4735858Y-2485858D01*
X4735858Y-2514142D01*
X4764142Y-2514142D01*
X4764142Y-2764142D02*
X4764142Y-2735858D01*
X4735858Y-2735858D01*
X4735858Y-2764142D01*
X4764142Y-2764142D01*
X4764142Y-3014142D02*
X4764142Y-2985858D01*
X4735858Y-2985858D01*
X4735858Y-3014142D01*
X4764142Y-3014142D01*
X4764142Y-3264142D02*
X4764142Y-3235858D01*
X4735858Y-3235858D01*
X4735858Y-3264142D01*
X4764142Y-3264142D01*
X5014142Y-2264142D02*
X5014142Y-2235858D01*
X4985858Y-2235858D01*
X4985858Y-2264142D01*
X5014142Y-2264142D01*
X5014142Y-2514142D02*
X5014142Y-2485858D01*
X4985858Y-2485858D01*
X4985858Y-2514142D01*
X5014142Y-2514142D01*
X5014142Y-2764142D02*
X5014142Y-2735858D01*
X4985858Y-2735858D01*
X4985858Y-2764142D01*
X5014142Y-2764142D01*
X5764142Y-6764142D02*
X5764142Y-6735858D01*
X5735858Y-6735858D01*
X5735858Y-6764142D01*
X5764142Y-6764142D01*
X5764142Y-7764142D02*
X5764142Y-7735858D01*
X5735858Y-7735858D01*
X5735858Y-7764142D01*
X5764142Y-7764142D01*
X5764142Y-10264142D02*
X5764142Y-10235858D01*
X5735858Y-10235858D01*
X5735858Y-10264142D01*
X5764142Y-10264142D01*
X6014142Y-5764142D02*
X6014142Y-5735858D01*
X5985858Y-5735858D01*
X5985858Y-5764142D01*
X6014142Y-5764142D01*
X6014142Y-6764142D02*
X6014142Y-6735858D01*
X5985858Y-6735858D01*
X5985858Y-6764142D01*
X6014142Y-6764142D01*
X6014142Y-7764142D02*
X6014142Y-7735858D01*
X5985858Y-7735858D01*
X5985858Y-7764142D01*
X6014142Y-7764142D01*
X6014142Y-8014142D02*
X6014142Y-7985858D01*
X5985858Y-7985858D01*
X5985858Y-8014142D01*
X6014142Y-8014142D01*
X6014142Y-9014142D02*
X6014142Y-8985858D01*
X5985858Y-8985858D01*
X5985858Y-9014142D01*
X6014142Y-9014142D01*
X6014142Y-10264142D02*
X6014142Y-10235858D01*
X5985858Y-10235858D01*
X5985858Y-10264142D01*
X6014142Y-10264142D01*
X6014142Y-11764142D02*
X6014142Y-11735858D01*
X5985858Y-11735858D01*
X5985858Y-11764142D01*
X6014142Y-11764142D01*
X6264142Y-5764142D02*
X6264142Y-5735858D01*
X6235858Y-5735858D01*
X6235858Y-5764142D01*
X6264142Y-5764142D01*
X6264142Y-7764142D02*
X6264142Y-7735858D01*
X6235858Y-7735858D01*
X6235858Y-7764142D01*
X6264142Y-7764142D01*
X6264142Y-8014142D02*
X6264142Y-7985858D01*
X6235858Y-7985858D01*
X6235858Y-8014142D01*
X6264142Y-8014142D01*
X6264142Y-9014142D02*
X6264142Y-8985858D01*
X6235858Y-8985858D01*
X6235858Y-9014142D01*
X6264142Y-9014142D01*
X6264142Y-10264142D02*
X6264142Y-10235858D01*
X6235858Y-10235858D01*
X6235858Y-10264142D01*
X6264142Y-10264142D01*
X6264142Y-11764142D02*
X6264142Y-11735858D01*
X6235858Y-11735858D01*
X6235858Y-11764142D01*
X6264142Y-11764142D01*
X6514142Y-10264142D02*
X6514142Y-10235858D01*
X6485858Y-10235858D01*
X6485858Y-10264142D01*
X6514142Y-10264142D01*
X6514142Y-11764142D02*
X6514142Y-11735858D01*
X6485858Y-11735858D01*
X6485858Y-11764142D01*
X6514142Y-11764142D01*
X6764142Y-3264142D02*
X6764142Y-3235858D01*
X6735858Y-3235858D01*
X6735858Y-3264142D01*
X6764142Y-3264142D01*
X6764142Y-3514142D02*
X6764142Y-3485858D01*
X6735858Y-3485858D01*
X6735858Y-3514142D01*
X6764142Y-3514142D01*
X6764142Y-3764142D02*
X6764142Y-3735858D01*
X6735858Y-3735858D01*
X6735858Y-3764142D01*
X6764142Y-3764142D01*
X6764142Y-4014142D02*
X6764142Y-3985858D01*
X6735858Y-3985858D01*
X6735858Y-4014142D01*
X6764142Y-4014142D01*
X6764142Y-4764142D02*
X6764142Y-4735858D01*
X6735858Y-4735858D01*
X6735858Y-4764142D01*
X6764142Y-4764142D01*
X6764142Y-5014142D02*
X6764142Y-4985858D01*
X6735858Y-4985858D01*
X6735858Y-5014142D01*
X6764142Y-5014142D01*
X6764142Y-5264142D02*
X6764142Y-5235858D01*
X6735858Y-5235858D01*
X6735858Y-5264142D01*
X6764142Y-5264142D01*
X6764142Y-10264142D02*
X6764142Y-10235858D01*
X6735858Y-10235858D01*
X6735858Y-10264142D01*
X6764142Y-10264142D01*
X6764142Y-11764142D02*
X6764142Y-11735858D01*
X6735858Y-11735858D01*
X6735858Y-11764142D01*
X6764142Y-11764142D01*
X7014142Y-3264142D02*
X7014142Y-3235858D01*
X6985858Y-3235858D01*
X6985858Y-3264142D01*
X7014142Y-3264142D01*
X7014142Y-3514142D02*
X7014142Y-3485858D01*
X6985858Y-3485858D01*
X6985858Y-3514142D01*
X7014142Y-3514142D01*
X7014142Y-3764142D02*
X7014142Y-3735858D01*
X6985858Y-3735858D01*
X6985858Y-3764142D01*
X7014142Y-3764142D01*
X7014142Y-4014142D02*
X7014142Y-3985858D01*
X6985858Y-3985858D01*
X6985858Y-4014142D01*
X7014142Y-4014142D01*
X7014142Y-4764142D02*
X7014142Y-4735858D01*
X6985858Y-4735858D01*
X6985858Y-4764142D01*
X7014142Y-4764142D01*
X7014142Y-5014142D02*
X7014142Y-4985858D01*
X6985858Y-4985858D01*
X6985858Y-5014142D01*
X7014142Y-5014142D01*
X7014142Y-5264142D02*
X7014142Y-5235858D01*
X6985858Y-5235858D01*
X6985858Y-5264142D01*
X7014142Y-5264142D01*
X7014142Y-10264142D02*
X7014142Y-10235858D01*
X6985858Y-10235858D01*
X6985858Y-10264142D01*
X7014142Y-10264142D01*
X7014142Y-11764142D02*
X7014142Y-11735858D01*
X6985858Y-11735858D01*
X6985858Y-11764142D01*
X7014142Y-11764142D01*
X7264142Y-3514142D02*
X7264142Y-3485858D01*
X7235858Y-3485858D01*
X7235858Y-3514142D01*
X7264142Y-3514142D01*
X7264142Y-3764142D02*
X7264142Y-3735858D01*
X7235858Y-3735858D01*
X7235858Y-3764142D01*
X7264142Y-3764142D01*
X7264142Y-4014142D02*
X7264142Y-3985858D01*
X7235858Y-3985858D01*
X7235858Y-4014142D01*
X7264142Y-4014142D01*
X7264142Y-4764142D02*
X7264142Y-4735858D01*
X7235858Y-4735858D01*
X7235858Y-4764142D01*
X7264142Y-4764142D01*
X7264142Y-5014142D02*
X7264142Y-4985858D01*
X7235858Y-4985858D01*
X7235858Y-5014142D01*
X7264142Y-5014142D01*
X7264142Y-5264142D02*
X7264142Y-5235858D01*
X7235858Y-5235858D01*
X7235858Y-5264142D01*
X7264142Y-5264142D01*
X7264142Y-10264142D02*
X7264142Y-10235858D01*
X7235858Y-10235858D01*
X7235858Y-10264142D01*
X7264142Y-10264142D01*
X7264142Y-11764142D02*
X7264142Y-11735858D01*
X7235858Y-11735858D01*
X7235858Y-11764142D01*
X7264142Y-11764142D01*
X7514142Y-2514142D02*
X7514142Y-2485858D01*
X7485858Y-2485858D01*
X7485858Y-2514142D01*
X7514142Y-2514142D01*
X7514142Y-3514142D02*
X7514142Y-3485858D01*
X7485858Y-3485858D01*
X7485858Y-3514142D01*
X7514142Y-3514142D01*
X7514142Y-3764142D02*
X7514142Y-3735858D01*
X7485858Y-3735858D01*
X7485858Y-3764142D01*
X7514142Y-3764142D01*
X7514142Y-4014142D02*
X7514142Y-3985858D01*
X7485858Y-3985858D01*
X7485858Y-4014142D01*
X7514142Y-4014142D01*
X7514142Y-6764142D02*
X7514142Y-6735858D01*
X7485858Y-6735858D01*
X7485858Y-6764142D01*
X7514142Y-6764142D01*
X7514142Y-7764142D02*
X7514142Y-7735858D01*
X7485858Y-7735858D01*
X7485858Y-7764142D01*
X7514142Y-7764142D01*
X7514142Y-8764142D02*
X7514142Y-8735858D01*
X7485858Y-8735858D01*
X7485858Y-8764142D01*
X7514142Y-8764142D01*
X7514142Y-9014142D02*
X7514142Y-8985858D01*
X7485858Y-8985858D01*
X7485858Y-9014142D01*
X7514142Y-9014142D01*
X7514142Y-10264142D02*
X7514142Y-10235858D01*
X7485858Y-10235858D01*
X7485858Y-10264142D01*
X7514142Y-10264142D01*
X7514142Y-10514142D02*
X7514142Y-10485858D01*
X7485858Y-10485858D01*
X7485858Y-10514142D01*
X7514142Y-10514142D01*
X7514142Y-10764142D02*
X7514142Y-10735858D01*
X7485858Y-10735858D01*
X7485858Y-10764142D01*
X7514142Y-10764142D01*
X7514142Y-11014142D02*
X7514142Y-10985858D01*
X7485858Y-10985858D01*
X7485858Y-11014142D01*
X7514142Y-11014142D01*
X7514142Y-11264142D02*
X7514142Y-11235858D01*
X7485858Y-11235858D01*
X7485858Y-11264142D01*
X7514142Y-11264142D01*
X7514142Y-11514142D02*
X7514142Y-11485858D01*
X7485858Y-11485858D01*
X7485858Y-11514142D01*
X7514142Y-11514142D01*
X7514142Y-11764142D02*
X7514142Y-11735858D01*
X7485858Y-11735858D01*
X7485858Y-11764142D01*
X7514142Y-11764142D01*
X7764142Y-3264142D02*
X7764142Y-3235858D01*
X7735858Y-3235858D01*
X7735858Y-3264142D01*
X7764142Y-3264142D01*
X7764142Y-3514142D02*
X7764142Y-3485858D01*
X7735858Y-3485858D01*
X7735858Y-3514142D01*
X7764142Y-3514142D01*
X7764142Y-3764142D02*
X7764142Y-3735858D01*
X7735858Y-3735858D01*
X7735858Y-3764142D01*
X7764142Y-3764142D01*
X7764142Y-4014142D02*
X7764142Y-3985858D01*
X7735858Y-3985858D01*
X7735858Y-4014142D01*
X7764142Y-4014142D01*
X7764142Y-6514142D02*
X7764142Y-6485858D01*
X7735858Y-6485858D01*
X7735858Y-6514142D01*
X7764142Y-6514142D01*
X7764142Y-6764142D02*
X7764142Y-6735858D01*
X7735858Y-6735858D01*
X7735858Y-6764142D01*
X7764142Y-6764142D01*
X7764142Y-7764142D02*
X7764142Y-7735858D01*
X7735858Y-7735858D01*
X7735858Y-7764142D01*
X7764142Y-7764142D01*
X7764142Y-8014142D02*
X7764142Y-7985858D01*
X7735858Y-7985858D01*
X7735858Y-8014142D01*
X7764142Y-8014142D01*
X7764142Y-8764142D02*
X7764142Y-8735858D01*
X7735858Y-8735858D01*
X7735858Y-8764142D01*
X7764142Y-8764142D01*
X7764142Y-9014142D02*
X7764142Y-8985858D01*
X7735858Y-8985858D01*
X7735858Y-9014142D01*
X7764142Y-9014142D01*
X7764142Y-10264142D02*
X7764142Y-10235858D01*
X7735858Y-10235858D01*
X7735858Y-10264142D01*
X7764142Y-10264142D01*
X7764142Y-10514142D02*
X7764142Y-10485858D01*
X7735858Y-10485858D01*
X7735858Y-10514142D01*
X7764142Y-10514142D01*
X7764142Y-10764142D02*
X7764142Y-10735858D01*
X7735858Y-10735858D01*
X7735858Y-10764142D01*
X7764142Y-10764142D01*
X7764142Y-11014142D02*
X7764142Y-10985858D01*
X7735858Y-10985858D01*
X7735858Y-11014142D01*
X7764142Y-11014142D01*
X7764142Y-11264142D02*
X7764142Y-11235858D01*
X7735858Y-11235858D01*
X7735858Y-11264142D01*
X7764142Y-11264142D01*
X8014142Y-10264142D02*
X8014142Y-10235858D01*
X7985858Y-10235858D01*
X7985858Y-10264142D01*
X8014142Y-10264142D01*
X8014142Y-10514142D02*
X8014142Y-10485858D01*
X7985858Y-10485858D01*
X7985858Y-10514142D01*
X8014142Y-10514142D01*
X8014142Y-10764142D02*
X8014142Y-10735858D01*
X7985858Y-10735858D01*
X7985858Y-10764142D01*
X8014142Y-10764142D01*
X8014142Y-11014142D02*
X8014142Y-10985858D01*
X7985858Y-10985858D01*
X7985858Y-11014142D01*
X8014142Y-11014142D01*
X8014142Y-11264142D02*
X8014142Y-11235858D01*
X7985858Y-11235858D01*
X7985858Y-11264142D01*
X8014142Y-11264142D01*
D16*
X2050000Y-4675500D02*
X2082500Y-4643000D01*
X2050000Y-4610500D01*
X2017500Y-4643000D01*
X2050000Y-4675500D01*
D11*
X2115000Y-4610500D02*
X1985000Y-4610500D01*
X2115000Y-4675500D02*
X1985000Y-4675500D01*
X1985000Y-4610500D02*
G75*
G03*
X1985000Y-4675500I0J-32500D01*
G01*
X2115000Y-4675500D02*
G75*
G03*
X2115000Y-4610500I0J32500D01*
G01*
D16*
X2050000Y-5539500D02*
X2082500Y-5507000D01*
X2050000Y-5474500D01*
X2017500Y-5507000D01*
X2050000Y-5539500D01*
D11*
X2115000Y-5474500D02*
X1985000Y-5474500D01*
X2115000Y-5539500D02*
X1985000Y-5539500D01*
X1985000Y-5474500D02*
G75*
G03*
X1985000Y-5539500I0J-32500D01*
G01*
X2115000Y-5539500D02*
G75*
G03*
X2115000Y-5474500I0J32500D01*
G01*
D16*
X2432500Y-4675500D02*
X2465000Y-4643000D01*
X2432500Y-4610500D01*
X2400000Y-4643000D01*
X2432500Y-4675500D01*
D11*
X2482500Y-4610500D02*
X2382500Y-4610500D01*
X2482500Y-4675500D02*
X2382500Y-4675500D01*
X2382500Y-4610500D02*
G75*
G03*
X2382500Y-4675500I0J-32500D01*
G01*
X2482500Y-4675500D02*
G75*
G03*
X2482500Y-4610500I0J32500D01*
G01*
D16*
X2432500Y-5539500D02*
X2465000Y-5507000D01*
X2432500Y-5474500D01*
X2400000Y-5507000D01*
X2432500Y-5539500D01*
D11*
X2482500Y-5474500D02*
X2382500Y-5474500D01*
X2482500Y-5539500D02*
X2382500Y-5539500D01*
X2382500Y-5474500D02*
G75*
G03*
X2382500Y-5539500I0J-32500D01*
G01*
X2482500Y-5539500D02*
G75*
G03*
X2482500Y-5474500I0J32500D01*
G01*
D17*
X1965000Y-2215000D02*
X2215000Y-2465000D01*
X2215000Y-2215000D02*
X1965000Y-2465000D01*
X2215000Y-2340000D02*
G75*
G03*
X2215000Y-2340000I-125000J0D01*
G01*
X1965000Y-11535000D02*
X2215000Y-11785000D01*
X2215000Y-11535000D02*
X1965000Y-11785000D01*
X2215000Y-11660000D02*
G75*
G03*
X2215000Y-11660000I-125000J0D01*
G01*
X7785000Y-2215000D02*
X8035000Y-2465000D01*
X8035000Y-2215000D02*
X7785000Y-2465000D01*
X8035000Y-2340000D02*
G75*
G03*
X8035000Y-2340000I-125000J0D01*
G01*
X7785000Y-11535000D02*
X8035000Y-11785000D01*
X8035000Y-11535000D02*
X7785000Y-11785000D01*
X8035000Y-11660000D02*
G75*
G03*
X8035000Y-11660000I-125000J0D01*
G01*
D18*
X3822500Y-3552500D02*
X4097500Y-3827500D01*
X4097500Y-3552500D02*
X3822500Y-3827500D01*
X3960000Y-3552500D02*
X3960000Y-3827500D01*
X3822500Y-3690000D02*
X4097500Y-3690000D01*
X4542500Y-3552500D02*
X4817500Y-3827500D01*
X4817500Y-3552500D02*
X4542500Y-3827500D01*
X4680000Y-3552500D02*
X4680000Y-3827500D01*
X4542500Y-3690000D02*
X4817500Y-3690000D01*
X6172500Y-3042500D02*
X6447500Y-3317500D01*
X6447500Y-3042500D02*
X6172500Y-3317500D01*
X6310000Y-3042500D02*
X6310000Y-3317500D01*
X6172500Y-3180000D02*
X6447500Y-3180000D01*
X6172500Y-3762500D02*
X6447500Y-4037500D01*
X6447500Y-3762500D02*
X6172500Y-4037500D01*
X6310000Y-3762500D02*
X6310000Y-4037500D01*
X6172500Y-3900000D02*
X6447500Y-3900000D01*
D11*
X2005119Y-12312976D02*
X2005119Y-12112976D01*
X2052738Y-12112976D01*
X2081309Y-12122500D01*
X2100357Y-12141548D01*
X2109881Y-12160595D01*
X2119405Y-12198690D01*
X2119405Y-12227262D01*
X2109881Y-12265357D01*
X2100357Y-12284405D01*
X2081309Y-12303452D01*
X2052738Y-12312976D01*
X2005119Y-12312976D01*
X2205119Y-12312976D02*
X2205119Y-12179643D01*
X2205119Y-12217738D02*
X2214643Y-12198690D01*
X2224167Y-12189167D01*
X2243214Y-12179643D01*
X2262262Y-12179643D01*
X2328929Y-12312976D02*
X2328929Y-12179643D01*
X2328929Y-12112976D02*
X2319405Y-12122500D01*
X2328929Y-12132024D01*
X2338452Y-12122500D01*
X2328929Y-12112976D01*
X2328929Y-12132024D01*
X2452738Y-12312976D02*
X2433690Y-12303452D01*
X2424167Y-12284405D01*
X2424167Y-12112976D01*
X2557500Y-12312976D02*
X2538452Y-12303452D01*
X2528929Y-12284405D01*
X2528929Y-12112976D01*
X2786071Y-12312976D02*
X2786071Y-12112976D01*
X2852738Y-12255833D01*
X2919405Y-12112976D01*
X2919405Y-12312976D01*
X3100357Y-12312976D02*
X3100357Y-12208214D01*
X3090833Y-12189167D01*
X3071786Y-12179643D01*
X3033690Y-12179643D01*
X3014643Y-12189167D01*
X3100357Y-12303452D02*
X3081309Y-12312976D01*
X3033690Y-12312976D01*
X3014643Y-12303452D01*
X3005119Y-12284405D01*
X3005119Y-12265357D01*
X3014643Y-12246309D01*
X3033690Y-12236786D01*
X3081309Y-12236786D01*
X3100357Y-12227262D01*
X3195595Y-12179643D02*
X3195595Y-12379643D01*
X3195595Y-12189167D02*
X3214643Y-12179643D01*
X3252738Y-12179643D01*
X3271786Y-12189167D01*
X3281309Y-12198690D01*
X3290833Y-12217738D01*
X3290833Y-12274881D01*
X3281309Y-12293928D01*
X3271786Y-12303452D01*
X3252738Y-12312976D01*
X3214643Y-12312976D01*
X3195595Y-12303452D01*
X3376548Y-12293928D02*
X3386071Y-12303452D01*
X3376548Y-12312976D01*
X3367024Y-12303452D01*
X3376548Y-12293928D01*
X3376548Y-12312976D01*
X3376548Y-12189167D02*
X3386071Y-12198690D01*
X3376548Y-12208214D01*
X3367024Y-12198690D01*
X3376548Y-12189167D01*
X3376548Y-12208214D01*
D12*
X1727500Y-12632500D02*
X1747500Y-12652500D01*
X1747500Y-12632500D02*
X1727500Y-12652500D01*
D11*
X2043214Y-12532976D02*
X2062262Y-12532976D01*
X2081309Y-12542500D01*
X2090833Y-12552024D01*
X2100357Y-12571071D01*
X2109881Y-12609167D01*
X2109881Y-12656786D01*
X2100357Y-12694881D01*
X2090833Y-12713928D01*
X2081309Y-12723452D01*
X2062262Y-12732976D01*
X2043214Y-12732976D01*
X2024167Y-12723452D01*
X2014643Y-12713928D01*
X2005119Y-12694881D01*
X1995595Y-12656786D01*
X1995595Y-12609167D01*
X2005119Y-12571071D01*
X2014643Y-12552024D01*
X2024167Y-12542500D01*
X2043214Y-12532976D01*
X2195595Y-12713928D02*
X2205119Y-12723452D01*
X2195595Y-12732976D01*
X2186071Y-12723452D01*
X2195595Y-12713928D01*
X2195595Y-12732976D01*
X2281310Y-12552024D02*
X2290833Y-12542500D01*
X2309881Y-12532976D01*
X2357500Y-12532976D01*
X2376548Y-12542500D01*
X2386071Y-12552024D01*
X2395595Y-12571071D01*
X2395595Y-12590119D01*
X2386071Y-12618690D01*
X2271786Y-12732976D01*
X2395595Y-12732976D01*
X2519405Y-12532976D02*
X2538452Y-12532976D01*
X2557500Y-12542500D01*
X2567024Y-12552024D01*
X2576548Y-12571071D01*
X2586071Y-12609167D01*
X2586071Y-12656786D01*
X2576548Y-12694881D01*
X2567024Y-12713928D01*
X2557500Y-12723452D01*
X2538452Y-12732976D01*
X2519405Y-12732976D01*
X2500357Y-12723452D01*
X2490833Y-12713928D01*
X2481310Y-12694881D01*
X2471786Y-12656786D01*
X2471786Y-12609167D01*
X2481310Y-12571071D01*
X2490833Y-12552024D01*
X2500357Y-12542500D01*
X2519405Y-12532976D01*
X2709881Y-12532976D02*
X2728929Y-12532976D01*
X2747976Y-12542500D01*
X2757500Y-12552024D01*
X2767024Y-12571071D01*
X2776548Y-12609167D01*
X2776548Y-12656786D01*
X2767024Y-12694881D01*
X2757500Y-12713928D01*
X2747976Y-12723452D01*
X2728929Y-12732976D01*
X2709881Y-12732976D01*
X2690833Y-12723452D01*
X2681310Y-12713928D01*
X2671786Y-12694881D01*
X2662262Y-12656786D01*
X2662262Y-12609167D01*
X2671786Y-12571071D01*
X2681310Y-12552024D01*
X2690833Y-12542500D01*
X2709881Y-12532976D01*
X2862262Y-12732976D02*
X2862262Y-12599643D01*
X2862262Y-12618690D02*
X2871786Y-12609167D01*
X2890833Y-12599643D01*
X2919405Y-12599643D01*
X2938452Y-12609167D01*
X2947976Y-12628214D01*
X2947976Y-12732976D01*
X2947976Y-12628214D02*
X2957500Y-12609167D01*
X2976548Y-12599643D01*
X3005119Y-12599643D01*
X3024167Y-12609167D01*
X3033690Y-12628214D01*
X3033690Y-12732976D01*
X3128928Y-12732976D02*
X3128928Y-12599643D01*
X3128928Y-12618690D02*
X3138452Y-12609167D01*
X3157500Y-12599643D01*
X3186071Y-12599643D01*
X3205119Y-12609167D01*
X3214643Y-12628214D01*
X3214643Y-12732976D01*
X3214643Y-12628214D02*
X3224167Y-12609167D01*
X3243214Y-12599643D01*
X3271786Y-12599643D01*
X3290833Y-12609167D01*
X3300357Y-12628214D01*
X3300357Y-12732976D01*
X3690833Y-12523452D02*
X3519405Y-12780595D01*
X3947976Y-12532976D02*
X3967024Y-12532976D01*
X3986071Y-12542500D01*
X3995595Y-12552024D01*
X4005119Y-12571071D01*
X4014643Y-12609167D01*
X4014643Y-12656786D01*
X4005119Y-12694881D01*
X3995595Y-12713928D01*
X3986071Y-12723452D01*
X3967024Y-12732976D01*
X3947976Y-12732976D01*
X3928928Y-12723452D01*
X3919405Y-12713928D01*
X3909881Y-12694881D01*
X3900357Y-12656786D01*
X3900357Y-12609167D01*
X3909881Y-12571071D01*
X3919405Y-12552024D01*
X3928928Y-12542500D01*
X3947976Y-12532976D01*
X4100357Y-12713928D02*
X4109881Y-12723452D01*
X4100357Y-12732976D01*
X4090833Y-12723452D01*
X4100357Y-12713928D01*
X4100357Y-12732976D01*
X4233690Y-12532976D02*
X4252738Y-12532976D01*
X4271786Y-12542500D01*
X4281310Y-12552024D01*
X4290833Y-12571071D01*
X4300357Y-12609167D01*
X4300357Y-12656786D01*
X4290833Y-12694881D01*
X4281310Y-12713928D01*
X4271786Y-12723452D01*
X4252738Y-12732976D01*
X4233690Y-12732976D01*
X4214643Y-12723452D01*
X4205119Y-12713928D01*
X4195595Y-12694881D01*
X4186071Y-12656786D01*
X4186071Y-12609167D01*
X4195595Y-12571071D01*
X4205119Y-12552024D01*
X4214643Y-12542500D01*
X4233690Y-12532976D01*
X4424167Y-12532976D02*
X4443214Y-12532976D01*
X4462262Y-12542500D01*
X4471786Y-12552024D01*
X4481310Y-12571071D01*
X4490833Y-12609167D01*
X4490833Y-12656786D01*
X4481310Y-12694881D01*
X4471786Y-12713928D01*
X4462262Y-12723452D01*
X4443214Y-12732976D01*
X4424167Y-12732976D01*
X4405119Y-12723452D01*
X4395595Y-12713928D01*
X4386071Y-12694881D01*
X4376548Y-12656786D01*
X4376548Y-12609167D01*
X4386071Y-12571071D01*
X4395595Y-12552024D01*
X4405119Y-12542500D01*
X4424167Y-12532976D01*
X4557500Y-12532976D02*
X4690833Y-12532976D01*
X4605119Y-12732976D01*
X4776548Y-12732976D02*
X4814643Y-12732976D01*
X4833690Y-12723452D01*
X4843214Y-12713928D01*
X4862262Y-12685357D01*
X4871786Y-12647262D01*
X4871786Y-12571071D01*
X4862262Y-12552024D01*
X4852738Y-12542500D01*
X4833690Y-12532976D01*
X4795595Y-12532976D01*
X4776548Y-12542500D01*
X4767024Y-12552024D01*
X4757500Y-12571071D01*
X4757500Y-12618690D01*
X4767024Y-12637738D01*
X4776548Y-12647262D01*
X4795595Y-12656786D01*
X4833690Y-12656786D01*
X4852738Y-12647262D01*
X4862262Y-12637738D01*
X4871786Y-12618690D01*
X4947976Y-12532976D02*
X4947976Y-12571071D01*
X5024167Y-12532976D02*
X5024167Y-12571071D01*
X5319405Y-12809167D02*
X5309881Y-12799643D01*
X5290833Y-12771071D01*
X5281310Y-12752024D01*
X5271786Y-12723452D01*
X5262262Y-12675833D01*
X5262262Y-12637738D01*
X5271786Y-12590119D01*
X5281310Y-12561548D01*
X5290833Y-12542500D01*
X5309881Y-12513928D01*
X5319405Y-12504405D01*
X5481310Y-12532976D02*
X5443214Y-12532976D01*
X5424167Y-12542500D01*
X5414643Y-12552024D01*
X5395595Y-12580595D01*
X5386071Y-12618690D01*
X5386071Y-12694881D01*
X5395595Y-12713928D01*
X5405119Y-12723452D01*
X5424167Y-12732976D01*
X5462262Y-12732976D01*
X5481310Y-12723452D01*
X5490833Y-12713928D01*
X5500357Y-12694881D01*
X5500357Y-12647262D01*
X5490833Y-12628214D01*
X5481310Y-12618690D01*
X5462262Y-12609167D01*
X5424167Y-12609167D01*
X5405119Y-12618690D01*
X5395595Y-12628214D01*
X5386071Y-12647262D01*
X5624167Y-12532976D02*
X5643214Y-12532976D01*
X5662262Y-12542500D01*
X5671786Y-12552024D01*
X5681309Y-12571071D01*
X5690833Y-12609167D01*
X5690833Y-12656786D01*
X5681309Y-12694881D01*
X5671786Y-12713928D01*
X5662262Y-12723452D01*
X5643214Y-12732976D01*
X5624167Y-12732976D01*
X5605119Y-12723452D01*
X5595595Y-12713928D01*
X5586071Y-12694881D01*
X5576548Y-12656786D01*
X5576548Y-12609167D01*
X5586071Y-12571071D01*
X5595595Y-12552024D01*
X5605119Y-12542500D01*
X5624167Y-12532976D01*
X5928928Y-12732976D02*
X5928928Y-12532976D01*
X6014643Y-12732976D02*
X6014643Y-12628214D01*
X6005119Y-12609167D01*
X5986071Y-12599643D01*
X5957500Y-12599643D01*
X5938452Y-12609167D01*
X5928928Y-12618690D01*
X6138452Y-12732976D02*
X6119405Y-12723452D01*
X6109881Y-12713928D01*
X6100357Y-12694881D01*
X6100357Y-12637738D01*
X6109881Y-12618690D01*
X6119405Y-12609167D01*
X6138452Y-12599643D01*
X6167024Y-12599643D01*
X6186071Y-12609167D01*
X6195595Y-12618690D01*
X6205119Y-12637738D01*
X6205119Y-12694881D01*
X6195595Y-12713928D01*
X6186071Y-12723452D01*
X6167024Y-12732976D01*
X6138452Y-12732976D01*
X6319405Y-12732976D02*
X6300357Y-12723452D01*
X6290833Y-12704405D01*
X6290833Y-12532976D01*
X6471786Y-12723452D02*
X6452738Y-12732976D01*
X6414643Y-12732976D01*
X6395595Y-12723452D01*
X6386071Y-12704405D01*
X6386071Y-12628214D01*
X6395595Y-12609167D01*
X6414643Y-12599643D01*
X6452738Y-12599643D01*
X6471786Y-12609167D01*
X6481309Y-12628214D01*
X6481309Y-12647262D01*
X6386071Y-12666309D01*
X6557500Y-12723452D02*
X6576548Y-12732976D01*
X6614643Y-12732976D01*
X6633690Y-12723452D01*
X6643214Y-12704405D01*
X6643214Y-12694881D01*
X6633690Y-12675833D01*
X6614643Y-12666309D01*
X6586071Y-12666309D01*
X6567024Y-12656786D01*
X6557500Y-12637738D01*
X6557500Y-12628214D01*
X6567024Y-12609167D01*
X6586071Y-12599643D01*
X6614643Y-12599643D01*
X6633690Y-12609167D01*
X6709881Y-12809167D02*
X6719405Y-12799643D01*
X6738452Y-12771071D01*
X6747976Y-12752024D01*
X6757500Y-12723452D01*
X6767024Y-12675833D01*
X6767024Y-12637738D01*
X6757500Y-12590119D01*
X6747976Y-12561548D01*
X6738452Y-12542500D01*
X6719405Y-12513928D01*
X6709881Y-12504405D01*
D13*
X1747500Y-12906500D02*
G75*
G03*
X1747500Y-12906500I-12500J0D01*
G01*
D11*
X2043214Y-12796976D02*
X2062262Y-12796976D01*
X2081309Y-12806500D01*
X2090833Y-12816024D01*
X2100357Y-12835071D01*
X2109881Y-12873167D01*
X2109881Y-12920786D01*
X2100357Y-12958881D01*
X2090833Y-12977928D01*
X2081309Y-12987452D01*
X2062262Y-12996976D01*
X2043214Y-12996976D01*
X2024167Y-12987452D01*
X2014643Y-12977928D01*
X2005119Y-12958881D01*
X1995595Y-12920786D01*
X1995595Y-12873167D01*
X2005119Y-12835071D01*
X2014643Y-12816024D01*
X2024167Y-12806500D01*
X2043214Y-12796976D01*
X2195595Y-12977928D02*
X2205119Y-12987452D01*
X2195595Y-12996976D01*
X2186071Y-12987452D01*
X2195595Y-12977928D01*
X2195595Y-12996976D01*
X2281310Y-12816024D02*
X2290833Y-12806500D01*
X2309881Y-12796976D01*
X2357500Y-12796976D01*
X2376548Y-12806500D01*
X2386071Y-12816024D01*
X2395595Y-12835071D01*
X2395595Y-12854119D01*
X2386071Y-12882690D01*
X2271786Y-12996976D01*
X2395595Y-12996976D01*
X2576548Y-12796976D02*
X2481310Y-12796976D01*
X2471786Y-12892214D01*
X2481310Y-12882690D01*
X2500357Y-12873167D01*
X2547976Y-12873167D01*
X2567024Y-12882690D01*
X2576548Y-12892214D01*
X2586071Y-12911262D01*
X2586071Y-12958881D01*
X2576548Y-12977928D01*
X2567024Y-12987452D01*
X2547976Y-12996976D01*
X2500357Y-12996976D01*
X2481310Y-12987452D01*
X2471786Y-12977928D01*
X2709881Y-12796976D02*
X2728929Y-12796976D01*
X2747976Y-12806500D01*
X2757500Y-12816024D01*
X2767024Y-12835071D01*
X2776548Y-12873167D01*
X2776548Y-12920786D01*
X2767024Y-12958881D01*
X2757500Y-12977928D01*
X2747976Y-12987452D01*
X2728929Y-12996976D01*
X2709881Y-12996976D01*
X2690833Y-12987452D01*
X2681310Y-12977928D01*
X2671786Y-12958881D01*
X2662262Y-12920786D01*
X2662262Y-12873167D01*
X2671786Y-12835071D01*
X2681310Y-12816024D01*
X2690833Y-12806500D01*
X2709881Y-12796976D01*
X2862262Y-12996976D02*
X2862262Y-12863643D01*
X2862262Y-12882690D02*
X2871786Y-12873167D01*
X2890833Y-12863643D01*
X2919405Y-12863643D01*
X2938452Y-12873167D01*
X2947976Y-12892214D01*
X2947976Y-12996976D01*
X2947976Y-12892214D02*
X2957500Y-12873167D01*
X2976548Y-12863643D01*
X3005119Y-12863643D01*
X3024167Y-12873167D01*
X3033690Y-12892214D01*
X3033690Y-12996976D01*
X3128928Y-12996976D02*
X3128928Y-12863643D01*
X3128928Y-12882690D02*
X3138452Y-12873167D01*
X3157500Y-12863643D01*
X3186071Y-12863643D01*
X3205119Y-12873167D01*
X3214643Y-12892214D01*
X3214643Y-12996976D01*
X3214643Y-12892214D02*
X3224167Y-12873167D01*
X3243214Y-12863643D01*
X3271786Y-12863643D01*
X3290833Y-12873167D01*
X3300357Y-12892214D01*
X3300357Y-12996976D01*
X3690833Y-12787452D02*
X3519405Y-13044595D01*
X3947976Y-12796976D02*
X3967024Y-12796976D01*
X3986071Y-12806500D01*
X3995595Y-12816024D01*
X4005119Y-12835071D01*
X4014643Y-12873167D01*
X4014643Y-12920786D01*
X4005119Y-12958881D01*
X3995595Y-12977928D01*
X3986071Y-12987452D01*
X3967024Y-12996976D01*
X3947976Y-12996976D01*
X3928928Y-12987452D01*
X3919405Y-12977928D01*
X3909881Y-12958881D01*
X3900357Y-12920786D01*
X3900357Y-12873167D01*
X3909881Y-12835071D01*
X3919405Y-12816024D01*
X3928928Y-12806500D01*
X3947976Y-12796976D01*
X4100357Y-12977928D02*
X4109881Y-12987452D01*
X4100357Y-12996976D01*
X4090833Y-12987452D01*
X4100357Y-12977928D01*
X4100357Y-12996976D01*
X4233690Y-12796976D02*
X4252738Y-12796976D01*
X4271786Y-12806500D01*
X4281310Y-12816024D01*
X4290833Y-12835071D01*
X4300357Y-12873167D01*
X4300357Y-12920786D01*
X4290833Y-12958881D01*
X4281310Y-12977928D01*
X4271786Y-12987452D01*
X4252738Y-12996976D01*
X4233690Y-12996976D01*
X4214643Y-12987452D01*
X4205119Y-12977928D01*
X4195595Y-12958881D01*
X4186071Y-12920786D01*
X4186071Y-12873167D01*
X4195595Y-12835071D01*
X4205119Y-12816024D01*
X4214643Y-12806500D01*
X4233690Y-12796976D01*
X4424167Y-12796976D02*
X4443214Y-12796976D01*
X4462262Y-12806500D01*
X4471786Y-12816024D01*
X4481310Y-12835071D01*
X4490833Y-12873167D01*
X4490833Y-12920786D01*
X4481310Y-12958881D01*
X4471786Y-12977928D01*
X4462262Y-12987452D01*
X4443214Y-12996976D01*
X4424167Y-12996976D01*
X4405119Y-12987452D01*
X4395595Y-12977928D01*
X4386071Y-12958881D01*
X4376548Y-12920786D01*
X4376548Y-12873167D01*
X4386071Y-12835071D01*
X4395595Y-12816024D01*
X4405119Y-12806500D01*
X4424167Y-12796976D01*
X4586071Y-12996976D02*
X4624167Y-12996976D01*
X4643214Y-12987452D01*
X4652738Y-12977928D01*
X4671786Y-12949357D01*
X4681310Y-12911262D01*
X4681310Y-12835071D01*
X4671786Y-12816024D01*
X4662262Y-12806500D01*
X4643214Y-12796976D01*
X4605119Y-12796976D01*
X4586071Y-12806500D01*
X4576548Y-12816024D01*
X4567024Y-12835071D01*
X4567024Y-12882690D01*
X4576548Y-12901738D01*
X4586071Y-12911262D01*
X4605119Y-12920786D01*
X4643214Y-12920786D01*
X4662262Y-12911262D01*
X4671786Y-12901738D01*
X4681310Y-12882690D01*
X4795595Y-12882690D02*
X4776548Y-12873167D01*
X4767024Y-12863643D01*
X4757500Y-12844595D01*
X4757500Y-12835071D01*
X4767024Y-12816024D01*
X4776548Y-12806500D01*
X4795595Y-12796976D01*
X4833690Y-12796976D01*
X4852738Y-12806500D01*
X4862262Y-12816024D01*
X4871786Y-12835071D01*
X4871786Y-12844595D01*
X4862262Y-12863643D01*
X4852738Y-12873167D01*
X4833690Y-12882690D01*
X4795595Y-12882690D01*
X4776548Y-12892214D01*
X4767024Y-12901738D01*
X4757500Y-12920786D01*
X4757500Y-12958881D01*
X4767024Y-12977928D01*
X4776548Y-12987452D01*
X4795595Y-12996976D01*
X4833690Y-12996976D01*
X4852738Y-12987452D01*
X4862262Y-12977928D01*
X4871786Y-12958881D01*
X4871786Y-12920786D01*
X4862262Y-12901738D01*
X4852738Y-12892214D01*
X4833690Y-12882690D01*
X4947976Y-12796976D02*
X4947976Y-12835071D01*
X5024167Y-12796976D02*
X5024167Y-12835071D01*
X5319405Y-13073167D02*
X5309881Y-13063643D01*
X5290833Y-13035071D01*
X5281310Y-13016024D01*
X5271786Y-12987452D01*
X5262262Y-12939833D01*
X5262262Y-12901738D01*
X5271786Y-12854119D01*
X5281310Y-12825548D01*
X5290833Y-12806500D01*
X5309881Y-12777928D01*
X5319405Y-12768405D01*
X5386071Y-12816024D02*
X5395595Y-12806500D01*
X5414643Y-12796976D01*
X5462262Y-12796976D01*
X5481310Y-12806500D01*
X5490833Y-12816024D01*
X5500357Y-12835071D01*
X5500357Y-12854119D01*
X5490833Y-12882690D01*
X5376548Y-12996976D01*
X5500357Y-12996976D01*
X5567024Y-12796976D02*
X5700357Y-12796976D01*
X5614643Y-12996976D01*
X5757500Y-12796976D02*
X5890833Y-12796976D01*
X5805119Y-12996976D01*
X6119405Y-12996976D02*
X6119405Y-12796976D01*
X6205119Y-12996976D02*
X6205119Y-12892214D01*
X6195595Y-12873167D01*
X6176548Y-12863643D01*
X6147976Y-12863643D01*
X6128928Y-12873167D01*
X6119405Y-12882690D01*
X6328928Y-12996976D02*
X6309881Y-12987452D01*
X6300357Y-12977928D01*
X6290833Y-12958881D01*
X6290833Y-12901738D01*
X6300357Y-12882690D01*
X6309881Y-12873167D01*
X6328928Y-12863643D01*
X6357500Y-12863643D01*
X6376548Y-12873167D01*
X6386071Y-12882690D01*
X6395595Y-12901738D01*
X6395595Y-12958881D01*
X6386071Y-12977928D01*
X6376548Y-12987452D01*
X6357500Y-12996976D01*
X6328928Y-12996976D01*
X6509881Y-12996976D02*
X6490833Y-12987452D01*
X6481309Y-12968405D01*
X6481309Y-12796976D01*
X6662262Y-12987452D02*
X6643214Y-12996976D01*
X6605119Y-12996976D01*
X6586071Y-12987452D01*
X6576548Y-12968405D01*
X6576548Y-12892214D01*
X6586071Y-12873167D01*
X6605119Y-12863643D01*
X6643214Y-12863643D01*
X6662262Y-12873167D01*
X6671786Y-12892214D01*
X6671786Y-12911262D01*
X6576548Y-12930309D01*
X6747976Y-12987452D02*
X6767024Y-12996976D01*
X6805119Y-12996976D01*
X6824167Y-12987452D01*
X6833690Y-12968405D01*
X6833690Y-12958881D01*
X6824167Y-12939833D01*
X6805119Y-12930309D01*
X6776548Y-12930309D01*
X6757500Y-12920786D01*
X6747976Y-12901738D01*
X6747976Y-12892214D01*
X6757500Y-12873167D01*
X6776548Y-12863643D01*
X6805119Y-12863643D01*
X6824167Y-12873167D01*
X6900357Y-13073167D02*
X6909881Y-13063643D01*
X6928928Y-13035071D01*
X6938452Y-13016024D01*
X6947976Y-12987452D01*
X6957500Y-12939833D01*
X6957500Y-12901738D01*
X6947976Y-12854119D01*
X6938452Y-12825548D01*
X6928928Y-12806500D01*
X6909881Y-12777928D01*
X6900357Y-12768405D01*
D14*
X1732500Y-13155500D02*
X1732500Y-13185500D01*
X1717500Y-13170500D02*
X1747500Y-13170500D01*
D11*
X2043214Y-13060976D02*
X2062262Y-13060976D01*
X2081309Y-13070500D01*
X2090833Y-13080024D01*
X2100357Y-13099071D01*
X2109881Y-13137167D01*
X2109881Y-13184786D01*
X2100357Y-13222881D01*
X2090833Y-13241928D01*
X2081309Y-13251452D01*
X2062262Y-13260976D01*
X2043214Y-13260976D01*
X2024167Y-13251452D01*
X2014643Y-13241928D01*
X2005119Y-13222881D01*
X1995595Y-13184786D01*
X1995595Y-13137167D01*
X2005119Y-13099071D01*
X2014643Y-13080024D01*
X2024167Y-13070500D01*
X2043214Y-13060976D01*
X2195595Y-13241928D02*
X2205119Y-13251452D01*
X2195595Y-13260976D01*
X2186071Y-13251452D01*
X2195595Y-13241928D01*
X2195595Y-13260976D01*
X2271786Y-13060976D02*
X2395595Y-13060976D01*
X2328929Y-13137167D01*
X2357500Y-13137167D01*
X2376548Y-13146690D01*
X2386071Y-13156214D01*
X2395595Y-13175262D01*
X2395595Y-13222881D01*
X2386071Y-13241928D01*
X2376548Y-13251452D01*
X2357500Y-13260976D01*
X2300357Y-13260976D01*
X2281310Y-13251452D01*
X2271786Y-13241928D01*
X2519405Y-13060976D02*
X2538452Y-13060976D01*
X2557500Y-13070500D01*
X2567024Y-13080024D01*
X2576548Y-13099071D01*
X2586071Y-13137167D01*
X2586071Y-13184786D01*
X2576548Y-13222881D01*
X2567024Y-13241928D01*
X2557500Y-13251452D01*
X2538452Y-13260976D01*
X2519405Y-13260976D01*
X2500357Y-13251452D01*
X2490833Y-13241928D01*
X2481310Y-13222881D01*
X2471786Y-13184786D01*
X2471786Y-13137167D01*
X2481310Y-13099071D01*
X2490833Y-13080024D01*
X2500357Y-13070500D01*
X2519405Y-13060976D01*
X2709881Y-13060976D02*
X2728929Y-13060976D01*
X2747976Y-13070500D01*
X2757500Y-13080024D01*
X2767024Y-13099071D01*
X2776548Y-13137167D01*
X2776548Y-13184786D01*
X2767024Y-13222881D01*
X2757500Y-13241928D01*
X2747976Y-13251452D01*
X2728929Y-13260976D01*
X2709881Y-13260976D01*
X2690833Y-13251452D01*
X2681310Y-13241928D01*
X2671786Y-13222881D01*
X2662262Y-13184786D01*
X2662262Y-13137167D01*
X2671786Y-13099071D01*
X2681310Y-13080024D01*
X2690833Y-13070500D01*
X2709881Y-13060976D01*
X2862262Y-13260976D02*
X2862262Y-13127643D01*
X2862262Y-13146690D02*
X2871786Y-13137167D01*
X2890833Y-13127643D01*
X2919405Y-13127643D01*
X2938452Y-13137167D01*
X2947976Y-13156214D01*
X2947976Y-13260976D01*
X2947976Y-13156214D02*
X2957500Y-13137167D01*
X2976548Y-13127643D01*
X3005119Y-13127643D01*
X3024167Y-13137167D01*
X3033690Y-13156214D01*
X3033690Y-13260976D01*
X3128928Y-13260976D02*
X3128928Y-13127643D01*
X3128928Y-13146690D02*
X3138452Y-13137167D01*
X3157500Y-13127643D01*
X3186071Y-13127643D01*
X3205119Y-13137167D01*
X3214643Y-13156214D01*
X3214643Y-13260976D01*
X3214643Y-13156214D02*
X3224167Y-13137167D01*
X3243214Y-13127643D01*
X3271786Y-13127643D01*
X3290833Y-13137167D01*
X3300357Y-13156214D01*
X3300357Y-13260976D01*
X3690833Y-13051452D02*
X3519405Y-13308595D01*
X3947976Y-13060976D02*
X3967024Y-13060976D01*
X3986071Y-13070500D01*
X3995595Y-13080024D01*
X4005119Y-13099071D01*
X4014643Y-13137167D01*
X4014643Y-13184786D01*
X4005119Y-13222881D01*
X3995595Y-13241928D01*
X3986071Y-13251452D01*
X3967024Y-13260976D01*
X3947976Y-13260976D01*
X3928928Y-13251452D01*
X3919405Y-13241928D01*
X3909881Y-13222881D01*
X3900357Y-13184786D01*
X3900357Y-13137167D01*
X3909881Y-13099071D01*
X3919405Y-13080024D01*
X3928928Y-13070500D01*
X3947976Y-13060976D01*
X4100357Y-13241928D02*
X4109881Y-13251452D01*
X4100357Y-13260976D01*
X4090833Y-13251452D01*
X4100357Y-13241928D01*
X4100357Y-13260976D01*
X4233690Y-13060976D02*
X4252738Y-13060976D01*
X4271786Y-13070500D01*
X4281310Y-13080024D01*
X4290833Y-13099071D01*
X4300357Y-13137167D01*
X4300357Y-13184786D01*
X4290833Y-13222881D01*
X4281310Y-13241928D01*
X4271786Y-13251452D01*
X4252738Y-13260976D01*
X4233690Y-13260976D01*
X4214643Y-13251452D01*
X4205119Y-13241928D01*
X4195595Y-13222881D01*
X4186071Y-13184786D01*
X4186071Y-13137167D01*
X4195595Y-13099071D01*
X4205119Y-13080024D01*
X4214643Y-13070500D01*
X4233690Y-13060976D01*
X4490833Y-13260976D02*
X4376548Y-13260976D01*
X4433690Y-13260976D02*
X4433690Y-13060976D01*
X4414643Y-13089548D01*
X4395595Y-13108595D01*
X4376548Y-13118119D01*
X4681310Y-13260976D02*
X4567024Y-13260976D01*
X4624167Y-13260976D02*
X4624167Y-13060976D01*
X4605119Y-13089548D01*
X4586071Y-13108595D01*
X4567024Y-13118119D01*
X4795595Y-13146690D02*
X4776548Y-13137167D01*
X4767024Y-13127643D01*
X4757500Y-13108595D01*
X4757500Y-13099071D01*
X4767024Y-13080024D01*
X4776548Y-13070500D01*
X4795595Y-13060976D01*
X4833690Y-13060976D01*
X4852738Y-13070500D01*
X4862262Y-13080024D01*
X4871786Y-13099071D01*
X4871786Y-13108595D01*
X4862262Y-13127643D01*
X4852738Y-13137167D01*
X4833690Y-13146690D01*
X4795595Y-13146690D01*
X4776548Y-13156214D01*
X4767024Y-13165738D01*
X4757500Y-13184786D01*
X4757500Y-13222881D01*
X4767024Y-13241928D01*
X4776548Y-13251452D01*
X4795595Y-13260976D01*
X4833690Y-13260976D01*
X4852738Y-13251452D01*
X4862262Y-13241928D01*
X4871786Y-13222881D01*
X4871786Y-13184786D01*
X4862262Y-13165738D01*
X4852738Y-13156214D01*
X4833690Y-13146690D01*
X4947976Y-13060976D02*
X4947976Y-13099071D01*
X5024167Y-13060976D02*
X5024167Y-13099071D01*
X5319405Y-13337167D02*
X5309881Y-13327643D01*
X5290833Y-13299071D01*
X5281310Y-13280024D01*
X5271786Y-13251452D01*
X5262262Y-13203833D01*
X5262262Y-13165738D01*
X5271786Y-13118119D01*
X5281310Y-13089548D01*
X5290833Y-13070500D01*
X5309881Y-13041928D01*
X5319405Y-13032405D01*
X5490833Y-13060976D02*
X5395595Y-13060976D01*
X5386071Y-13156214D01*
X5395595Y-13146690D01*
X5414643Y-13137167D01*
X5462262Y-13137167D01*
X5481310Y-13146690D01*
X5490833Y-13156214D01*
X5500357Y-13175262D01*
X5500357Y-13222881D01*
X5490833Y-13241928D01*
X5481310Y-13251452D01*
X5462262Y-13260976D01*
X5414643Y-13260976D01*
X5395595Y-13251452D01*
X5386071Y-13241928D01*
X5738452Y-13260976D02*
X5738452Y-13060976D01*
X5824167Y-13260976D02*
X5824167Y-13156214D01*
X5814643Y-13137167D01*
X5795595Y-13127643D01*
X5767024Y-13127643D01*
X5747976Y-13137167D01*
X5738452Y-13146690D01*
X5947976Y-13260976D02*
X5928928Y-13251452D01*
X5919405Y-13241928D01*
X5909881Y-13222881D01*
X5909881Y-13165738D01*
X5919405Y-13146690D01*
X5928928Y-13137167D01*
X5947976Y-13127643D01*
X5976548Y-13127643D01*
X5995595Y-13137167D01*
X6005119Y-13146690D01*
X6014643Y-13165738D01*
X6014643Y-13222881D01*
X6005119Y-13241928D01*
X5995595Y-13251452D01*
X5976548Y-13260976D01*
X5947976Y-13260976D01*
X6128928Y-13260976D02*
X6109881Y-13251452D01*
X6100357Y-13232405D01*
X6100357Y-13060976D01*
X6281309Y-13251452D02*
X6262262Y-13260976D01*
X6224167Y-13260976D01*
X6205119Y-13251452D01*
X6195595Y-13232405D01*
X6195595Y-13156214D01*
X6205119Y-13137167D01*
X6224167Y-13127643D01*
X6262262Y-13127643D01*
X6281309Y-13137167D01*
X6290833Y-13156214D01*
X6290833Y-13175262D01*
X6195595Y-13194309D01*
X6367024Y-13251452D02*
X6386071Y-13260976D01*
X6424167Y-13260976D01*
X6443214Y-13251452D01*
X6452738Y-13232405D01*
X6452738Y-13222881D01*
X6443214Y-13203833D01*
X6424167Y-13194309D01*
X6395595Y-13194309D01*
X6376548Y-13184786D01*
X6367024Y-13165738D01*
X6367024Y-13156214D01*
X6376548Y-13137167D01*
X6395595Y-13127643D01*
X6424167Y-13127643D01*
X6443214Y-13137167D01*
X6519405Y-13337167D02*
X6528928Y-13327643D01*
X6547976Y-13299071D01*
X6557500Y-13280024D01*
X6567024Y-13251452D01*
X6576548Y-13203833D01*
X6576548Y-13165738D01*
X6567024Y-13118119D01*
X6557500Y-13089548D01*
X6547976Y-13070500D01*
X6528928Y-13041928D01*
X6519405Y-13032405D01*
D15*
X1741642Y-13448642D02*
X1741642Y-13420358D01*
X1713358Y-13420358D01*
X1713358Y-13448642D01*
X1741642Y-13448642D01*
D11*
X2043214Y-13324976D02*
X2062262Y-13324976D01*
X2081309Y-13334500D01*
X2090833Y-13344024D01*
X2100357Y-13363071D01*
X2109881Y-13401167D01*
X2109881Y-13448786D01*
X2100357Y-13486881D01*
X2090833Y-13505928D01*
X2081309Y-13515452D01*
X2062262Y-13524976D01*
X2043214Y-13524976D01*
X2024167Y-13515452D01*
X2014643Y-13505928D01*
X2005119Y-13486881D01*
X1995595Y-13448786D01*
X1995595Y-13401167D01*
X2005119Y-13363071D01*
X2014643Y-13344024D01*
X2024167Y-13334500D01*
X2043214Y-13324976D01*
X2195595Y-13505928D02*
X2205119Y-13515452D01*
X2195595Y-13524976D01*
X2186071Y-13515452D01*
X2195595Y-13505928D01*
X2195595Y-13524976D01*
X2376548Y-13391643D02*
X2376548Y-13524976D01*
X2328929Y-13315452D02*
X2281310Y-13458309D01*
X2405119Y-13458309D01*
X2519405Y-13324976D02*
X2538452Y-13324976D01*
X2557500Y-13334500D01*
X2567024Y-13344024D01*
X2576548Y-13363071D01*
X2586071Y-13401167D01*
X2586071Y-13448786D01*
X2576548Y-13486881D01*
X2567024Y-13505928D01*
X2557500Y-13515452D01*
X2538452Y-13524976D01*
X2519405Y-13524976D01*
X2500357Y-13515452D01*
X2490833Y-13505928D01*
X2481310Y-13486881D01*
X2471786Y-13448786D01*
X2471786Y-13401167D01*
X2481310Y-13363071D01*
X2490833Y-13344024D01*
X2500357Y-13334500D01*
X2519405Y-13324976D01*
X2709881Y-13324976D02*
X2728929Y-13324976D01*
X2747976Y-13334500D01*
X2757500Y-13344024D01*
X2767024Y-13363071D01*
X2776548Y-13401167D01*
X2776548Y-13448786D01*
X2767024Y-13486881D01*
X2757500Y-13505928D01*
X2747976Y-13515452D01*
X2728929Y-13524976D01*
X2709881Y-13524976D01*
X2690833Y-13515452D01*
X2681310Y-13505928D01*
X2671786Y-13486881D01*
X2662262Y-13448786D01*
X2662262Y-13401167D01*
X2671786Y-13363071D01*
X2681310Y-13344024D01*
X2690833Y-13334500D01*
X2709881Y-13324976D01*
X2862262Y-13524976D02*
X2862262Y-13391643D01*
X2862262Y-13410690D02*
X2871786Y-13401167D01*
X2890833Y-13391643D01*
X2919405Y-13391643D01*
X2938452Y-13401167D01*
X2947976Y-13420214D01*
X2947976Y-13524976D01*
X2947976Y-13420214D02*
X2957500Y-13401167D01*
X2976548Y-13391643D01*
X3005119Y-13391643D01*
X3024167Y-13401167D01*
X3033690Y-13420214D01*
X3033690Y-13524976D01*
X3128928Y-13524976D02*
X3128928Y-13391643D01*
X3128928Y-13410690D02*
X3138452Y-13401167D01*
X3157500Y-13391643D01*
X3186071Y-13391643D01*
X3205119Y-13401167D01*
X3214643Y-13420214D01*
X3214643Y-13524976D01*
X3214643Y-13420214D02*
X3224167Y-13401167D01*
X3243214Y-13391643D01*
X3271786Y-13391643D01*
X3290833Y-13401167D01*
X3300357Y-13420214D01*
X3300357Y-13524976D01*
X3690833Y-13315452D02*
X3519405Y-13572595D01*
X3947976Y-13324976D02*
X3967024Y-13324976D01*
X3986071Y-13334500D01*
X3995595Y-13344024D01*
X4005119Y-13363071D01*
X4014643Y-13401167D01*
X4014643Y-13448786D01*
X4005119Y-13486881D01*
X3995595Y-13505928D01*
X3986071Y-13515452D01*
X3967024Y-13524976D01*
X3947976Y-13524976D01*
X3928928Y-13515452D01*
X3919405Y-13505928D01*
X3909881Y-13486881D01*
X3900357Y-13448786D01*
X3900357Y-13401167D01*
X3909881Y-13363071D01*
X3919405Y-13344024D01*
X3928928Y-13334500D01*
X3947976Y-13324976D01*
X4100357Y-13505928D02*
X4109881Y-13515452D01*
X4100357Y-13524976D01*
X4090833Y-13515452D01*
X4100357Y-13505928D01*
X4100357Y-13524976D01*
X4233690Y-13324976D02*
X4252738Y-13324976D01*
X4271786Y-13334500D01*
X4281310Y-13344024D01*
X4290833Y-13363071D01*
X4300357Y-13401167D01*
X4300357Y-13448786D01*
X4290833Y-13486881D01*
X4281310Y-13505928D01*
X4271786Y-13515452D01*
X4252738Y-13524976D01*
X4233690Y-13524976D01*
X4214643Y-13515452D01*
X4205119Y-13505928D01*
X4195595Y-13486881D01*
X4186071Y-13448786D01*
X4186071Y-13401167D01*
X4195595Y-13363071D01*
X4205119Y-13344024D01*
X4214643Y-13334500D01*
X4233690Y-13324976D01*
X4490833Y-13524976D02*
X4376548Y-13524976D01*
X4433690Y-13524976D02*
X4433690Y-13324976D01*
X4414643Y-13353548D01*
X4395595Y-13372595D01*
X4376548Y-13382119D01*
X4671786Y-13324976D02*
X4576548Y-13324976D01*
X4567024Y-13420214D01*
X4576548Y-13410690D01*
X4595595Y-13401167D01*
X4643214Y-13401167D01*
X4662262Y-13410690D01*
X4671786Y-13420214D01*
X4681310Y-13439262D01*
X4681310Y-13486881D01*
X4671786Y-13505928D01*
X4662262Y-13515452D01*
X4643214Y-13524976D01*
X4595595Y-13524976D01*
X4576548Y-13515452D01*
X4567024Y-13505928D01*
X4747976Y-13324976D02*
X4881310Y-13324976D01*
X4795595Y-13524976D01*
X4947976Y-13324976D02*
X4947976Y-13363071D01*
X5024167Y-13324976D02*
X5024167Y-13363071D01*
X5319405Y-13601167D02*
X5309881Y-13591643D01*
X5290833Y-13563071D01*
X5281310Y-13544024D01*
X5271786Y-13515452D01*
X5262262Y-13467833D01*
X5262262Y-13429738D01*
X5271786Y-13382119D01*
X5281310Y-13353548D01*
X5290833Y-13334500D01*
X5309881Y-13305928D01*
X5319405Y-13296405D01*
X5500357Y-13524976D02*
X5386071Y-13524976D01*
X5443214Y-13524976D02*
X5443214Y-13324976D01*
X5424167Y-13353548D01*
X5405119Y-13372595D01*
X5386071Y-13382119D01*
X5671786Y-13391643D02*
X5671786Y-13524976D01*
X5624167Y-13315452D02*
X5576548Y-13458309D01*
X5700357Y-13458309D01*
X5814643Y-13324976D02*
X5833690Y-13324976D01*
X5852738Y-13334500D01*
X5862262Y-13344024D01*
X5871786Y-13363071D01*
X5881309Y-13401167D01*
X5881309Y-13448786D01*
X5871786Y-13486881D01*
X5862262Y-13505928D01*
X5852738Y-13515452D01*
X5833690Y-13524976D01*
X5814643Y-13524976D01*
X5795595Y-13515452D01*
X5786071Y-13505928D01*
X5776548Y-13486881D01*
X5767024Y-13448786D01*
X5767024Y-13401167D01*
X5776548Y-13363071D01*
X5786071Y-13344024D01*
X5795595Y-13334500D01*
X5814643Y-13324976D01*
X6119405Y-13524976D02*
X6119405Y-13324976D01*
X6205119Y-13524976D02*
X6205119Y-13420214D01*
X6195595Y-13401167D01*
X6176548Y-13391643D01*
X6147976Y-13391643D01*
X6128928Y-13401167D01*
X6119405Y-13410690D01*
X6328928Y-13524976D02*
X6309881Y-13515452D01*
X6300357Y-13505928D01*
X6290833Y-13486881D01*
X6290833Y-13429738D01*
X6300357Y-13410690D01*
X6309881Y-13401167D01*
X6328928Y-13391643D01*
X6357500Y-13391643D01*
X6376548Y-13401167D01*
X6386071Y-13410690D01*
X6395595Y-13429738D01*
X6395595Y-13486881D01*
X6386071Y-13505928D01*
X6376548Y-13515452D01*
X6357500Y-13524976D01*
X6328928Y-13524976D01*
X6509881Y-13524976D02*
X6490833Y-13515452D01*
X6481309Y-13496405D01*
X6481309Y-13324976D01*
X6662262Y-13515452D02*
X6643214Y-13524976D01*
X6605119Y-13524976D01*
X6586071Y-13515452D01*
X6576548Y-13496405D01*
X6576548Y-13420214D01*
X6586071Y-13401167D01*
X6605119Y-13391643D01*
X6643214Y-13391643D01*
X6662262Y-13401167D01*
X6671786Y-13420214D01*
X6671786Y-13439262D01*
X6576548Y-13458309D01*
X6747976Y-13515452D02*
X6767024Y-13524976D01*
X6805119Y-13524976D01*
X6824167Y-13515452D01*
X6833690Y-13496405D01*
X6833690Y-13486881D01*
X6824167Y-13467833D01*
X6805119Y-13458309D01*
X6776548Y-13458309D01*
X6757500Y-13448786D01*
X6747976Y-13429738D01*
X6747976Y-13420214D01*
X6757500Y-13401167D01*
X6776548Y-13391643D01*
X6805119Y-13391643D01*
X6824167Y-13401167D01*
X6900357Y-13601167D02*
X6909881Y-13591643D01*
X6928928Y-13563071D01*
X6938452Y-13544024D01*
X6947976Y-13515452D01*
X6957500Y-13467833D01*
X6957500Y-13429738D01*
X6947976Y-13382119D01*
X6938452Y-13353548D01*
X6928928Y-13334500D01*
X6909881Y-13305928D01*
X6900357Y-13296405D01*
D16*
X1715000Y-13731000D02*
X1747500Y-13698500D01*
X1715000Y-13666000D01*
X1682500Y-13698500D01*
X1715000Y-13731000D01*
D11*
X2043214Y-13588976D02*
X2062262Y-13588976D01*
X2081309Y-13598500D01*
X2090833Y-13608024D01*
X2100357Y-13627071D01*
X2109881Y-13665167D01*
X2109881Y-13712786D01*
X2100357Y-13750881D01*
X2090833Y-13769928D01*
X2081309Y-13779452D01*
X2062262Y-13788976D01*
X2043214Y-13788976D01*
X2024167Y-13779452D01*
X2014643Y-13769928D01*
X2005119Y-13750881D01*
X1995595Y-13712786D01*
X1995595Y-13665167D01*
X2005119Y-13627071D01*
X2014643Y-13608024D01*
X2024167Y-13598500D01*
X2043214Y-13588976D01*
X2195595Y-13769928D02*
X2205119Y-13779452D01*
X2195595Y-13788976D01*
X2186071Y-13779452D01*
X2195595Y-13769928D01*
X2195595Y-13788976D01*
X2376548Y-13588976D02*
X2338452Y-13588976D01*
X2319405Y-13598500D01*
X2309881Y-13608024D01*
X2290833Y-13636595D01*
X2281310Y-13674690D01*
X2281310Y-13750881D01*
X2290833Y-13769928D01*
X2300357Y-13779452D01*
X2319405Y-13788976D01*
X2357500Y-13788976D01*
X2376548Y-13779452D01*
X2386071Y-13769928D01*
X2395595Y-13750881D01*
X2395595Y-13703262D01*
X2386071Y-13684214D01*
X2376548Y-13674690D01*
X2357500Y-13665167D01*
X2319405Y-13665167D01*
X2300357Y-13674690D01*
X2290833Y-13684214D01*
X2281310Y-13703262D01*
X2576548Y-13588976D02*
X2481310Y-13588976D01*
X2471786Y-13684214D01*
X2481310Y-13674690D01*
X2500357Y-13665167D01*
X2547976Y-13665167D01*
X2567024Y-13674690D01*
X2576548Y-13684214D01*
X2586071Y-13703262D01*
X2586071Y-13750881D01*
X2576548Y-13769928D01*
X2567024Y-13779452D01*
X2547976Y-13788976D01*
X2500357Y-13788976D01*
X2481310Y-13779452D01*
X2471786Y-13769928D01*
X2709881Y-13588976D02*
X2728929Y-13588976D01*
X2747976Y-13598500D01*
X2757500Y-13608024D01*
X2767024Y-13627071D01*
X2776548Y-13665167D01*
X2776548Y-13712786D01*
X2767024Y-13750881D01*
X2757500Y-13769928D01*
X2747976Y-13779452D01*
X2728929Y-13788976D01*
X2709881Y-13788976D01*
X2690833Y-13779452D01*
X2681310Y-13769928D01*
X2671786Y-13750881D01*
X2662262Y-13712786D01*
X2662262Y-13665167D01*
X2671786Y-13627071D01*
X2681310Y-13608024D01*
X2690833Y-13598500D01*
X2709881Y-13588976D01*
X2862262Y-13788976D02*
X2862262Y-13655643D01*
X2862262Y-13674690D02*
X2871786Y-13665167D01*
X2890833Y-13655643D01*
X2919405Y-13655643D01*
X2938452Y-13665167D01*
X2947976Y-13684214D01*
X2947976Y-13788976D01*
X2947976Y-13684214D02*
X2957500Y-13665167D01*
X2976548Y-13655643D01*
X3005119Y-13655643D01*
X3024167Y-13665167D01*
X3033690Y-13684214D01*
X3033690Y-13788976D01*
X3128928Y-13788976D02*
X3128928Y-13655643D01*
X3128928Y-13674690D02*
X3138452Y-13665167D01*
X3157500Y-13655643D01*
X3186071Y-13655643D01*
X3205119Y-13665167D01*
X3214643Y-13684214D01*
X3214643Y-13788976D01*
X3214643Y-13684214D02*
X3224167Y-13665167D01*
X3243214Y-13655643D01*
X3271786Y-13655643D01*
X3290833Y-13665167D01*
X3300357Y-13684214D01*
X3300357Y-13788976D01*
X3690833Y-13579452D02*
X3519405Y-13836595D01*
X3947976Y-13588976D02*
X3967024Y-13588976D01*
X3986071Y-13598500D01*
X3995595Y-13608024D01*
X4005119Y-13627071D01*
X4014643Y-13665167D01*
X4014643Y-13712786D01*
X4005119Y-13750881D01*
X3995595Y-13769928D01*
X3986071Y-13779452D01*
X3967024Y-13788976D01*
X3947976Y-13788976D01*
X3928928Y-13779452D01*
X3919405Y-13769928D01*
X3909881Y-13750881D01*
X3900357Y-13712786D01*
X3900357Y-13665167D01*
X3909881Y-13627071D01*
X3919405Y-13608024D01*
X3928928Y-13598500D01*
X3947976Y-13588976D01*
X4100357Y-13769928D02*
X4109881Y-13779452D01*
X4100357Y-13788976D01*
X4090833Y-13779452D01*
X4100357Y-13769928D01*
X4100357Y-13788976D01*
X4233690Y-13588976D02*
X4252738Y-13588976D01*
X4271786Y-13598500D01*
X4281310Y-13608024D01*
X4290833Y-13627071D01*
X4300357Y-13665167D01*
X4300357Y-13712786D01*
X4290833Y-13750881D01*
X4281310Y-13769928D01*
X4271786Y-13779452D01*
X4252738Y-13788976D01*
X4233690Y-13788976D01*
X4214643Y-13779452D01*
X4205119Y-13769928D01*
X4195595Y-13750881D01*
X4186071Y-13712786D01*
X4186071Y-13665167D01*
X4195595Y-13627071D01*
X4205119Y-13608024D01*
X4214643Y-13598500D01*
X4233690Y-13588976D01*
X4376548Y-13608024D02*
X4386071Y-13598500D01*
X4405119Y-13588976D01*
X4452738Y-13588976D01*
X4471786Y-13598500D01*
X4481310Y-13608024D01*
X4490833Y-13627071D01*
X4490833Y-13646119D01*
X4481310Y-13674690D01*
X4367024Y-13788976D01*
X4490833Y-13788976D01*
X4671786Y-13588976D02*
X4576548Y-13588976D01*
X4567024Y-13684214D01*
X4576548Y-13674690D01*
X4595595Y-13665167D01*
X4643214Y-13665167D01*
X4662262Y-13674690D01*
X4671786Y-13684214D01*
X4681310Y-13703262D01*
X4681310Y-13750881D01*
X4671786Y-13769928D01*
X4662262Y-13779452D01*
X4643214Y-13788976D01*
X4595595Y-13788976D01*
X4576548Y-13779452D01*
X4567024Y-13769928D01*
X4852738Y-13588976D02*
X4814643Y-13588976D01*
X4795595Y-13598500D01*
X4786071Y-13608024D01*
X4767024Y-13636595D01*
X4757500Y-13674690D01*
X4757500Y-13750881D01*
X4767024Y-13769928D01*
X4776548Y-13779452D01*
X4795595Y-13788976D01*
X4833690Y-13788976D01*
X4852738Y-13779452D01*
X4862262Y-13769928D01*
X4871786Y-13750881D01*
X4871786Y-13703262D01*
X4862262Y-13684214D01*
X4852738Y-13674690D01*
X4833690Y-13665167D01*
X4795595Y-13665167D01*
X4776548Y-13674690D01*
X4767024Y-13684214D01*
X4757500Y-13703262D01*
X4947976Y-13588976D02*
X4947976Y-13627071D01*
X5024167Y-13588976D02*
X5024167Y-13627071D01*
X5319405Y-13865167D02*
X5309881Y-13855643D01*
X5290833Y-13827071D01*
X5281310Y-13808024D01*
X5271786Y-13779452D01*
X5262262Y-13731833D01*
X5262262Y-13693738D01*
X5271786Y-13646119D01*
X5281310Y-13617548D01*
X5290833Y-13598500D01*
X5309881Y-13569928D01*
X5319405Y-13560405D01*
X5433690Y-13588976D02*
X5452738Y-13588976D01*
X5471786Y-13598500D01*
X5481310Y-13608024D01*
X5490833Y-13627071D01*
X5500357Y-13665167D01*
X5500357Y-13712786D01*
X5490833Y-13750881D01*
X5481310Y-13769928D01*
X5471786Y-13779452D01*
X5452738Y-13788976D01*
X5433690Y-13788976D01*
X5414643Y-13779452D01*
X5405119Y-13769928D01*
X5395595Y-13750881D01*
X5386071Y-13712786D01*
X5386071Y-13665167D01*
X5395595Y-13627071D01*
X5405119Y-13608024D01*
X5414643Y-13598500D01*
X5433690Y-13588976D01*
X5738452Y-13788976D02*
X5738452Y-13588976D01*
X5824167Y-13788976D02*
X5824167Y-13684214D01*
X5814643Y-13665167D01*
X5795595Y-13655643D01*
X5767024Y-13655643D01*
X5747976Y-13665167D01*
X5738452Y-13674690D01*
X5947976Y-13788976D02*
X5928928Y-13779452D01*
X5919405Y-13769928D01*
X5909881Y-13750881D01*
X5909881Y-13693738D01*
X5919405Y-13674690D01*
X5928928Y-13665167D01*
X5947976Y-13655643D01*
X5976548Y-13655643D01*
X5995595Y-13665167D01*
X6005119Y-13674690D01*
X6014643Y-13693738D01*
X6014643Y-13750881D01*
X6005119Y-13769928D01*
X5995595Y-13779452D01*
X5976548Y-13788976D01*
X5947976Y-13788976D01*
X6128928Y-13788976D02*
X6109881Y-13779452D01*
X6100357Y-13760405D01*
X6100357Y-13588976D01*
X6281309Y-13779452D02*
X6262262Y-13788976D01*
X6224167Y-13788976D01*
X6205119Y-13779452D01*
X6195595Y-13760405D01*
X6195595Y-13684214D01*
X6205119Y-13665167D01*
X6224167Y-13655643D01*
X6262262Y-13655643D01*
X6281309Y-13665167D01*
X6290833Y-13684214D01*
X6290833Y-13703262D01*
X6195595Y-13722309D01*
X6367024Y-13779452D02*
X6386071Y-13788976D01*
X6424167Y-13788976D01*
X6443214Y-13779452D01*
X6452738Y-13760405D01*
X6452738Y-13750881D01*
X6443214Y-13731833D01*
X6424167Y-13722309D01*
X6395595Y-13722309D01*
X6376548Y-13712786D01*
X6367024Y-13693738D01*
X6367024Y-13684214D01*
X6376548Y-13665167D01*
X6395595Y-13655643D01*
X6424167Y-13655643D01*
X6443214Y-13665167D01*
X6690833Y-13712786D02*
X6843214Y-13712786D01*
X6767024Y-13788976D02*
X6767024Y-13636595D01*
X7176548Y-13655643D02*
X7176548Y-13788976D01*
X7128928Y-13579452D02*
X7081309Y-13722309D01*
X7205119Y-13722309D01*
X7424167Y-13779452D02*
X7443214Y-13788976D01*
X7481309Y-13788976D01*
X7500357Y-13779452D01*
X7509881Y-13760405D01*
X7509881Y-13750881D01*
X7500357Y-13731833D01*
X7481309Y-13722309D01*
X7452738Y-13722309D01*
X7433690Y-13712786D01*
X7424167Y-13693738D01*
X7424167Y-13684214D01*
X7433690Y-13665167D01*
X7452738Y-13655643D01*
X7481309Y-13655643D01*
X7500357Y-13665167D01*
X7624167Y-13788976D02*
X7605119Y-13779452D01*
X7595595Y-13760405D01*
X7595595Y-13588976D01*
X7728928Y-13788976D02*
X7709881Y-13779452D01*
X7700357Y-13769928D01*
X7690833Y-13750881D01*
X7690833Y-13693738D01*
X7700357Y-13674690D01*
X7709881Y-13665167D01*
X7728928Y-13655643D01*
X7757500Y-13655643D01*
X7776548Y-13665167D01*
X7786071Y-13674690D01*
X7795595Y-13693738D01*
X7795595Y-13750881D01*
X7786071Y-13769928D01*
X7776548Y-13779452D01*
X7757500Y-13788976D01*
X7728928Y-13788976D01*
X7852738Y-13655643D02*
X7928928Y-13655643D01*
X7881309Y-13588976D02*
X7881309Y-13760405D01*
X7890833Y-13779452D01*
X7909881Y-13788976D01*
X7928928Y-13788976D01*
X7986071Y-13779452D02*
X8005119Y-13788976D01*
X8043214Y-13788976D01*
X8062262Y-13779452D01*
X8071786Y-13760405D01*
X8071786Y-13750881D01*
X8062262Y-13731833D01*
X8043214Y-13722309D01*
X8014643Y-13722309D01*
X7995595Y-13712786D01*
X7986071Y-13693738D01*
X7986071Y-13684214D01*
X7995595Y-13665167D01*
X8014643Y-13655643D01*
X8043214Y-13655643D01*
X8062262Y-13665167D01*
X8138452Y-13865167D02*
X8147976Y-13855643D01*
X8167024Y-13827071D01*
X8176548Y-13808024D01*
X8186071Y-13779452D01*
X8195595Y-13731833D01*
X8195595Y-13693738D01*
X8186071Y-13646119D01*
X8176548Y-13617548D01*
X8167024Y-13598500D01*
X8147976Y-13569928D01*
X8138452Y-13560405D01*
X1547500Y-13862500D02*
X1747500Y-14062500D01*
X1747500Y-13862500D02*
X1547500Y-14062500D01*
X1747500Y-13962500D02*
G75*
G03*
X1747500Y-13962500I-100000J0D01*
G01*
X1995595Y-13872024D02*
X2005119Y-13862500D01*
X2024167Y-13852976D01*
X2071786Y-13852976D01*
X2090833Y-13862500D01*
X2100357Y-13872024D01*
X2109881Y-13891071D01*
X2109881Y-13910119D01*
X2100357Y-13938690D01*
X1986071Y-14052976D01*
X2109881Y-14052976D01*
X2195595Y-14033928D02*
X2205119Y-14043452D01*
X2195595Y-14052976D01*
X2186071Y-14043452D01*
X2195595Y-14033928D01*
X2195595Y-14052976D01*
X2386071Y-13852976D02*
X2290833Y-13852976D01*
X2281310Y-13948214D01*
X2290833Y-13938690D01*
X2309881Y-13929167D01*
X2357500Y-13929167D01*
X2376548Y-13938690D01*
X2386071Y-13948214D01*
X2395595Y-13967262D01*
X2395595Y-14014881D01*
X2386071Y-14033928D01*
X2376548Y-14043452D01*
X2357500Y-14052976D01*
X2309881Y-14052976D01*
X2290833Y-14043452D01*
X2281310Y-14033928D01*
X2519405Y-13852976D02*
X2538452Y-13852976D01*
X2557500Y-13862500D01*
X2567024Y-13872024D01*
X2576548Y-13891071D01*
X2586071Y-13929167D01*
X2586071Y-13976786D01*
X2576548Y-14014881D01*
X2567024Y-14033928D01*
X2557500Y-14043452D01*
X2538452Y-14052976D01*
X2519405Y-14052976D01*
X2500357Y-14043452D01*
X2490833Y-14033928D01*
X2481310Y-14014881D01*
X2471786Y-13976786D01*
X2471786Y-13929167D01*
X2481310Y-13891071D01*
X2490833Y-13872024D01*
X2500357Y-13862500D01*
X2519405Y-13852976D01*
X2709881Y-13852976D02*
X2728929Y-13852976D01*
X2747976Y-13862500D01*
X2757500Y-13872024D01*
X2767024Y-13891071D01*
X2776548Y-13929167D01*
X2776548Y-13976786D01*
X2767024Y-14014881D01*
X2757500Y-14033928D01*
X2747976Y-14043452D01*
X2728929Y-14052976D01*
X2709881Y-14052976D01*
X2690833Y-14043452D01*
X2681310Y-14033928D01*
X2671786Y-14014881D01*
X2662262Y-13976786D01*
X2662262Y-13929167D01*
X2671786Y-13891071D01*
X2681310Y-13872024D01*
X2690833Y-13862500D01*
X2709881Y-13852976D01*
X2862262Y-14052976D02*
X2862262Y-13919643D01*
X2862262Y-13938690D02*
X2871786Y-13929167D01*
X2890833Y-13919643D01*
X2919405Y-13919643D01*
X2938452Y-13929167D01*
X2947976Y-13948214D01*
X2947976Y-14052976D01*
X2947976Y-13948214D02*
X2957500Y-13929167D01*
X2976548Y-13919643D01*
X3005119Y-13919643D01*
X3024167Y-13929167D01*
X3033690Y-13948214D01*
X3033690Y-14052976D01*
X3128928Y-14052976D02*
X3128928Y-13919643D01*
X3128928Y-13938690D02*
X3138452Y-13929167D01*
X3157500Y-13919643D01*
X3186071Y-13919643D01*
X3205119Y-13929167D01*
X3214643Y-13948214D01*
X3214643Y-14052976D01*
X3214643Y-13948214D02*
X3224167Y-13929167D01*
X3243214Y-13919643D01*
X3271786Y-13919643D01*
X3290833Y-13929167D01*
X3300357Y-13948214D01*
X3300357Y-14052976D01*
X3690833Y-13843452D02*
X3519405Y-14100595D01*
X3947976Y-13852976D02*
X3967024Y-13852976D01*
X3986071Y-13862500D01*
X3995595Y-13872024D01*
X4005119Y-13891071D01*
X4014643Y-13929167D01*
X4014643Y-13976786D01*
X4005119Y-14014881D01*
X3995595Y-14033928D01*
X3986071Y-14043452D01*
X3967024Y-14052976D01*
X3947976Y-14052976D01*
X3928928Y-14043452D01*
X3919405Y-14033928D01*
X3909881Y-14014881D01*
X3900357Y-13976786D01*
X3900357Y-13929167D01*
X3909881Y-13891071D01*
X3919405Y-13872024D01*
X3928928Y-13862500D01*
X3947976Y-13852976D01*
X4100357Y-14033928D02*
X4109881Y-14043452D01*
X4100357Y-14052976D01*
X4090833Y-14043452D01*
X4100357Y-14033928D01*
X4100357Y-14052976D01*
X4233690Y-13852976D02*
X4252738Y-13852976D01*
X4271786Y-13862500D01*
X4281310Y-13872024D01*
X4290833Y-13891071D01*
X4300357Y-13929167D01*
X4300357Y-13976786D01*
X4290833Y-14014881D01*
X4281310Y-14033928D01*
X4271786Y-14043452D01*
X4252738Y-14052976D01*
X4233690Y-14052976D01*
X4214643Y-14043452D01*
X4205119Y-14033928D01*
X4195595Y-14014881D01*
X4186071Y-13976786D01*
X4186071Y-13929167D01*
X4195595Y-13891071D01*
X4205119Y-13872024D01*
X4214643Y-13862500D01*
X4233690Y-13852976D01*
X4395595Y-14052976D02*
X4433690Y-14052976D01*
X4452738Y-14043452D01*
X4462262Y-14033928D01*
X4481310Y-14005357D01*
X4490833Y-13967262D01*
X4490833Y-13891071D01*
X4481310Y-13872024D01*
X4471786Y-13862500D01*
X4452738Y-13852976D01*
X4414643Y-13852976D01*
X4395595Y-13862500D01*
X4386071Y-13872024D01*
X4376548Y-13891071D01*
X4376548Y-13938690D01*
X4386071Y-13957738D01*
X4395595Y-13967262D01*
X4414643Y-13976786D01*
X4452738Y-13976786D01*
X4471786Y-13967262D01*
X4481310Y-13957738D01*
X4490833Y-13938690D01*
X4605119Y-13938690D02*
X4586071Y-13929167D01*
X4576548Y-13919643D01*
X4567024Y-13900595D01*
X4567024Y-13891071D01*
X4576548Y-13872024D01*
X4586071Y-13862500D01*
X4605119Y-13852976D01*
X4643214Y-13852976D01*
X4662262Y-13862500D01*
X4671786Y-13872024D01*
X4681310Y-13891071D01*
X4681310Y-13900595D01*
X4671786Y-13919643D01*
X4662262Y-13929167D01*
X4643214Y-13938690D01*
X4605119Y-13938690D01*
X4586071Y-13948214D01*
X4576548Y-13957738D01*
X4567024Y-13976786D01*
X4567024Y-14014881D01*
X4576548Y-14033928D01*
X4586071Y-14043452D01*
X4605119Y-14052976D01*
X4643214Y-14052976D01*
X4662262Y-14043452D01*
X4671786Y-14033928D01*
X4681310Y-14014881D01*
X4681310Y-13976786D01*
X4671786Y-13957738D01*
X4662262Y-13948214D01*
X4643214Y-13938690D01*
X4852738Y-13919643D02*
X4852738Y-14052976D01*
X4805119Y-13843452D02*
X4757500Y-13986309D01*
X4881310Y-13986309D01*
X4947976Y-13852976D02*
X4947976Y-13891071D01*
X5024167Y-13852976D02*
X5024167Y-13891071D01*
X5319405Y-14129167D02*
X5309881Y-14119643D01*
X5290833Y-14091071D01*
X5281310Y-14072024D01*
X5271786Y-14043452D01*
X5262262Y-13995833D01*
X5262262Y-13957738D01*
X5271786Y-13910119D01*
X5281310Y-13881548D01*
X5290833Y-13862500D01*
X5309881Y-13833928D01*
X5319405Y-13824405D01*
X5481310Y-13919643D02*
X5481310Y-14052976D01*
X5433690Y-13843452D02*
X5386071Y-13986309D01*
X5509881Y-13986309D01*
X5738452Y-14052976D02*
X5738452Y-13852976D01*
X5824167Y-14052976D02*
X5824167Y-13948214D01*
X5814643Y-13929167D01*
X5795595Y-13919643D01*
X5767024Y-13919643D01*
X5747976Y-13929167D01*
X5738452Y-13938690D01*
X5947976Y-14052976D02*
X5928928Y-14043452D01*
X5919405Y-14033928D01*
X5909881Y-14014881D01*
X5909881Y-13957738D01*
X5919405Y-13938690D01*
X5928928Y-13929167D01*
X5947976Y-13919643D01*
X5976548Y-13919643D01*
X5995595Y-13929167D01*
X6005119Y-13938690D01*
X6014643Y-13957738D01*
X6014643Y-14014881D01*
X6005119Y-14033928D01*
X5995595Y-14043452D01*
X5976548Y-14052976D01*
X5947976Y-14052976D01*
X6128928Y-14052976D02*
X6109881Y-14043452D01*
X6100357Y-14024405D01*
X6100357Y-13852976D01*
X6281309Y-14043452D02*
X6262262Y-14052976D01*
X6224167Y-14052976D01*
X6205119Y-14043452D01*
X6195595Y-14024405D01*
X6195595Y-13948214D01*
X6205119Y-13929167D01*
X6224167Y-13919643D01*
X6262262Y-13919643D01*
X6281309Y-13929167D01*
X6290833Y-13948214D01*
X6290833Y-13967262D01*
X6195595Y-13986309D01*
X6367024Y-14043452D02*
X6386071Y-14052976D01*
X6424167Y-14052976D01*
X6443214Y-14043452D01*
X6452738Y-14024405D01*
X6452738Y-14014881D01*
X6443214Y-13995833D01*
X6424167Y-13986309D01*
X6395595Y-13986309D01*
X6376548Y-13976786D01*
X6367024Y-13957738D01*
X6367024Y-13948214D01*
X6376548Y-13929167D01*
X6395595Y-13919643D01*
X6424167Y-13919643D01*
X6443214Y-13929167D01*
X6519405Y-14129167D02*
X6528928Y-14119643D01*
X6547976Y-14091071D01*
X6557500Y-14072024D01*
X6567024Y-14043452D01*
X6576548Y-13995833D01*
X6576548Y-13957738D01*
X6567024Y-13910119D01*
X6557500Y-13881548D01*
X6547976Y-13862500D01*
X6528928Y-13833928D01*
X6519405Y-13824405D01*
X1547500Y-14182500D02*
X1747500Y-14382500D01*
X1747500Y-14182500D02*
X1547500Y-14382500D01*
X1647500Y-14182500D02*
X1647500Y-14382500D01*
X1547500Y-14282500D02*
X1747500Y-14282500D01*
X1995595Y-14192024D02*
X2005119Y-14182500D01*
X2024167Y-14172976D01*
X2071786Y-14172976D01*
X2090833Y-14182500D01*
X2100357Y-14192024D01*
X2109881Y-14211071D01*
X2109881Y-14230119D01*
X2100357Y-14258690D01*
X1986071Y-14372976D01*
X2109881Y-14372976D01*
X2195595Y-14353928D02*
X2205119Y-14363452D01*
X2195595Y-14372976D01*
X2186071Y-14363452D01*
X2195595Y-14353928D01*
X2195595Y-14372976D01*
X2271786Y-14172976D02*
X2405119Y-14172976D01*
X2319405Y-14372976D01*
X2576548Y-14172976D02*
X2481310Y-14172976D01*
X2471786Y-14268214D01*
X2481310Y-14258690D01*
X2500357Y-14249167D01*
X2547976Y-14249167D01*
X2567024Y-14258690D01*
X2576548Y-14268214D01*
X2586071Y-14287262D01*
X2586071Y-14334881D01*
X2576548Y-14353928D01*
X2567024Y-14363452D01*
X2547976Y-14372976D01*
X2500357Y-14372976D01*
X2481310Y-14363452D01*
X2471786Y-14353928D01*
X2709881Y-14172976D02*
X2728929Y-14172976D01*
X2747976Y-14182500D01*
X2757500Y-14192024D01*
X2767024Y-14211071D01*
X2776548Y-14249167D01*
X2776548Y-14296786D01*
X2767024Y-14334881D01*
X2757500Y-14353928D01*
X2747976Y-14363452D01*
X2728929Y-14372976D01*
X2709881Y-14372976D01*
X2690833Y-14363452D01*
X2681310Y-14353928D01*
X2671786Y-14334881D01*
X2662262Y-14296786D01*
X2662262Y-14249167D01*
X2671786Y-14211071D01*
X2681310Y-14192024D01*
X2690833Y-14182500D01*
X2709881Y-14172976D01*
X2862262Y-14372976D02*
X2862262Y-14239643D01*
X2862262Y-14258690D02*
X2871786Y-14249167D01*
X2890833Y-14239643D01*
X2919405Y-14239643D01*
X2938452Y-14249167D01*
X2947976Y-14268214D01*
X2947976Y-14372976D01*
X2947976Y-14268214D02*
X2957500Y-14249167D01*
X2976548Y-14239643D01*
X3005119Y-14239643D01*
X3024167Y-14249167D01*
X3033690Y-14268214D01*
X3033690Y-14372976D01*
X3128928Y-14372976D02*
X3128928Y-14239643D01*
X3128928Y-14258690D02*
X3138452Y-14249167D01*
X3157500Y-14239643D01*
X3186071Y-14239643D01*
X3205119Y-14249167D01*
X3214643Y-14268214D01*
X3214643Y-14372976D01*
X3214643Y-14268214D02*
X3224167Y-14249167D01*
X3243214Y-14239643D01*
X3271786Y-14239643D01*
X3290833Y-14249167D01*
X3300357Y-14268214D01*
X3300357Y-14372976D01*
X3690833Y-14163452D02*
X3519405Y-14420595D01*
X3947976Y-14172976D02*
X3967024Y-14172976D01*
X3986071Y-14182500D01*
X3995595Y-14192024D01*
X4005119Y-14211071D01*
X4014643Y-14249167D01*
X4014643Y-14296786D01*
X4005119Y-14334881D01*
X3995595Y-14353928D01*
X3986071Y-14363452D01*
X3967024Y-14372976D01*
X3947976Y-14372976D01*
X3928928Y-14363452D01*
X3919405Y-14353928D01*
X3909881Y-14334881D01*
X3900357Y-14296786D01*
X3900357Y-14249167D01*
X3909881Y-14211071D01*
X3919405Y-14192024D01*
X3928928Y-14182500D01*
X3947976Y-14172976D01*
X4100357Y-14353928D02*
X4109881Y-14363452D01*
X4100357Y-14372976D01*
X4090833Y-14363452D01*
X4100357Y-14353928D01*
X4100357Y-14372976D01*
X4300357Y-14372976D02*
X4186071Y-14372976D01*
X4243214Y-14372976D02*
X4243214Y-14172976D01*
X4224167Y-14201548D01*
X4205119Y-14220595D01*
X4186071Y-14230119D01*
X4424167Y-14172976D02*
X4443214Y-14172976D01*
X4462262Y-14182500D01*
X4471786Y-14192024D01*
X4481310Y-14211071D01*
X4490833Y-14249167D01*
X4490833Y-14296786D01*
X4481310Y-14334881D01*
X4471786Y-14353928D01*
X4462262Y-14363452D01*
X4443214Y-14372976D01*
X4424167Y-14372976D01*
X4405119Y-14363452D01*
X4395595Y-14353928D01*
X4386071Y-14334881D01*
X4376548Y-14296786D01*
X4376548Y-14249167D01*
X4386071Y-14211071D01*
X4395595Y-14192024D01*
X4405119Y-14182500D01*
X4424167Y-14172976D01*
X4605119Y-14258690D02*
X4586071Y-14249167D01*
X4576548Y-14239643D01*
X4567024Y-14220595D01*
X4567024Y-14211071D01*
X4576548Y-14192024D01*
X4586071Y-14182500D01*
X4605119Y-14172976D01*
X4643214Y-14172976D01*
X4662262Y-14182500D01*
X4671786Y-14192024D01*
X4681310Y-14211071D01*
X4681310Y-14220595D01*
X4671786Y-14239643D01*
X4662262Y-14249167D01*
X4643214Y-14258690D01*
X4605119Y-14258690D01*
X4586071Y-14268214D01*
X4576548Y-14277738D01*
X4567024Y-14296786D01*
X4567024Y-14334881D01*
X4576548Y-14353928D01*
X4586071Y-14363452D01*
X4605119Y-14372976D01*
X4643214Y-14372976D01*
X4662262Y-14363452D01*
X4671786Y-14353928D01*
X4681310Y-14334881D01*
X4681310Y-14296786D01*
X4671786Y-14277738D01*
X4662262Y-14268214D01*
X4643214Y-14258690D01*
X4747976Y-14172976D02*
X4871786Y-14172976D01*
X4805119Y-14249167D01*
X4833690Y-14249167D01*
X4852738Y-14258690D01*
X4862262Y-14268214D01*
X4871786Y-14287262D01*
X4871786Y-14334881D01*
X4862262Y-14353928D01*
X4852738Y-14363452D01*
X4833690Y-14372976D01*
X4776548Y-14372976D01*
X4757500Y-14363452D01*
X4747976Y-14353928D01*
X4947976Y-14172976D02*
X4947976Y-14211071D01*
X5024167Y-14172976D02*
X5024167Y-14211071D01*
X5319405Y-14449167D02*
X5309881Y-14439643D01*
X5290833Y-14411071D01*
X5281310Y-14392024D01*
X5271786Y-14363452D01*
X5262262Y-14315833D01*
X5262262Y-14277738D01*
X5271786Y-14230119D01*
X5281310Y-14201548D01*
X5290833Y-14182500D01*
X5309881Y-14153928D01*
X5319405Y-14144405D01*
X5481310Y-14239643D02*
X5481310Y-14372976D01*
X5433690Y-14163452D02*
X5386071Y-14306309D01*
X5509881Y-14306309D01*
X5738452Y-14372976D02*
X5738452Y-14172976D01*
X5824167Y-14372976D02*
X5824167Y-14268214D01*
X5814643Y-14249167D01*
X5795595Y-14239643D01*
X5767024Y-14239643D01*
X5747976Y-14249167D01*
X5738452Y-14258690D01*
X5947976Y-14372976D02*
X5928928Y-14363452D01*
X5919405Y-14353928D01*
X5909881Y-14334881D01*
X5909881Y-14277738D01*
X5919405Y-14258690D01*
X5928928Y-14249167D01*
X5947976Y-14239643D01*
X5976548Y-14239643D01*
X5995595Y-14249167D01*
X6005119Y-14258690D01*
X6014643Y-14277738D01*
X6014643Y-14334881D01*
X6005119Y-14353928D01*
X5995595Y-14363452D01*
X5976548Y-14372976D01*
X5947976Y-14372976D01*
X6128928Y-14372976D02*
X6109881Y-14363452D01*
X6100357Y-14344405D01*
X6100357Y-14172976D01*
X6281309Y-14363452D02*
X6262262Y-14372976D01*
X6224167Y-14372976D01*
X6205119Y-14363452D01*
X6195595Y-14344405D01*
X6195595Y-14268214D01*
X6205119Y-14249167D01*
X6224167Y-14239643D01*
X6262262Y-14239643D01*
X6281309Y-14249167D01*
X6290833Y-14268214D01*
X6290833Y-14287262D01*
X6195595Y-14306309D01*
X6367024Y-14363452D02*
X6386071Y-14372976D01*
X6424167Y-14372976D01*
X6443214Y-14363452D01*
X6452738Y-14344405D01*
X6452738Y-14334881D01*
X6443214Y-14315833D01*
X6424167Y-14306309D01*
X6395595Y-14306309D01*
X6376548Y-14296786D01*
X6367024Y-14277738D01*
X6367024Y-14268214D01*
X6376548Y-14249167D01*
X6395595Y-14239643D01*
X6424167Y-14239643D01*
X6443214Y-14249167D01*
X6519405Y-14449167D02*
X6528928Y-14439643D01*
X6547976Y-14411071D01*
X6557500Y-14392024D01*
X6567024Y-14363452D01*
X6576548Y-14315833D01*
X6576548Y-14277738D01*
X6567024Y-14230119D01*
X6557500Y-14201548D01*
X6547976Y-14182500D01*
X6528928Y-14153928D01*
X6519405Y-14144405D01*
M02*
