M48
; DRILL file {KiCad (5.1.4)-1} date 09/08/2020 13:17:39
; FORMAT={-:-/ absolute / inch / decimal}
; #@! TF.CreationDate,2020-08-09T13:17:39-04:00
; #@! TF.GenerationSoftware,Kicad,Pcbnew,(5.1.4)-1
; #@! TF.FileFunction,Plated,1,4,PTH
FMAT,2
INCH
T1C0.0157
T2C0.0197
T3C0.0394
T4C0.1181
%
G90
G05
T1
X0.8268Y-3.7402
X0.8307Y-3.6801
X0.8559Y-3.9164
X0.8661Y-1.6535
X0.8661Y-1.6929
X0.8661Y-1.748
X0.8661Y-1.7874
X0.8661Y-1.8268
X0.8976Y-1.2087
X0.8976Y-1.2638
X0.8976Y-1.3268
X0.8976Y-1.378
X0.9055Y-2.3622
X0.9211Y-3.3778
X0.9213Y-4.1496
X0.9291Y-1.1496
X0.9606Y-3.5079
X1.0098Y-2.3703
X1.0108Y-2.8652
X1.0108Y-2.748
X1.0118Y-2.9045
X1.0128Y-3.0197
X1.0285Y-2.3356
X1.0315Y-3.6378
X1.0394Y-3.7874
X1.0472Y-3.5906
X1.0731Y-2.3329
X1.0797Y-3.1594
X1.0925Y-2.4902
X1.0933Y-3.3366
X1.0945Y-1.7165
X1.0945Y-4.1535
X1.122Y-1.4469
X1.1496Y-1.6299
X1.1663Y-3.2382
X1.187Y-2.7539
X1.1959Y-3.2018
X1.1981Y-3.9226
X1.202Y-2.7139
X1.2047Y-4.2047
X1.2205Y-3.4606
X1.2205Y-3.7795
X1.2224Y-3.8868
X1.2234Y-3.2372
X1.2234Y-3.9793
X1.2254Y-0.9075
X1.2362Y-4.2362
X1.2402Y-2.5079
X1.2441Y-2.9606
X1.2441Y-3.1181
X1.2451Y-3.2037
X1.2598Y-3.7795
X1.2653Y-3.2375
X1.2717Y-1.6732
X1.2835Y-2.4921
X1.2926Y-4.0406
X1.31Y-2.0128
X1.312Y-1.6703
X1.3213Y-1.5364
X1.3228Y-1.5827
X1.3278Y-3.8031
X1.3356Y-2.1624
X1.3366Y-2.0443
X1.3366Y-2.0837
X1.3366Y-2.123
X1.3369Y-2.2048
X1.3386Y-2.2441
X1.3386Y-2.2835
X1.3937Y-3.4134
X1.4173Y-1.7638
X1.4222Y-1.253
X1.4222Y-1.3071
X1.4222Y-1.4252
X1.4734Y-3.9793
X1.4882Y-4.1496
X1.4961Y-1.3386
X1.5039Y-1.4252
X1.5123Y-3.9856
X1.5197Y-1.4724
X1.5472Y-3.4134
X1.5512Y-4.1496
X1.5522Y-3.9843
X1.5748Y-1.6437
X1.5768Y-2.2146
X1.5827Y-1.5039
X1.5906Y-4.1496
X1.5935Y-1.4557
X1.5935Y-3.4154
X1.5984Y-3.1575
X1.5984Y-3.5512
X1.6063Y-2.3701
X1.6063Y-2.7638
X1.6063Y-3.6772
X1.622Y-1.2244
X1.6339Y-3.4163
X1.6407Y-3.8819
X1.6417Y-2.4161
X1.6526Y-3.0157
X1.6693Y-4.1496
X1.6772Y-2.4567
X1.6772Y-2.8504
X1.6772Y-3.6378
X1.685Y-3.2441
X1.7067Y-3.2087
X1.7165Y-4.1496
X1.7293Y-3.8203
X1.7638Y-4.1496
X1.7992Y-1.5394
X1.8071Y-3.3543
X1.8071Y-3.5128
X1.812Y-2.561
X1.8396Y-1.9547
X1.8474Y-3.8819
X1.8474Y-3.9843
X1.8763Y-3.1211
X1.8927Y-2.8543
X1.8996Y-3.2008
X1.9026Y-2.7913
X1.9114Y-1.8848
X1.9232Y-4.0374
X1.9291Y-4.1949
X1.937Y-3.9803
X1.9518Y-2.6516
X1.9852Y-1.875
X1.9877Y-1.2003
X1.9954Y-3.4987
X2.001Y-3.4173
X2.0325Y-2.9902
X2.0413Y-1.877
X2.0531Y-3.0246
X2.0531Y-3.0974
X2.0561Y-3.4183
X2.0699Y-4.2136
X2.0758Y-4.1447
X2.1024Y-3.4173
X2.1102Y-3.4852
X2.1348Y-1.7451
X2.1358Y-1.873
X2.1457Y-3.1024
X2.1506Y-3.4183
X2.1604Y-3.9872
X2.1959Y-3.3857
X2.2018Y-0.9646
X2.2096Y-1.7717
X2.2126Y-3.4852
X2.2244Y-2.563
X2.2283Y-3.5945
X2.2323Y-2.9242
X2.2323Y-4.0945
X2.2362Y-2.7638
X2.2362Y-3.0246
X2.2362Y-3.1575
X2.2362Y-3.5512
X2.249Y-3.2185
X2.2638Y-2.9921
X2.2726Y-2.2156
X2.2854Y-3.937
X2.2943Y-3.2116
X2.2972Y-3.8396
X2.3061Y-3.6772
X2.3071Y-2.3169
X2.3071Y-2.4567
X2.3071Y-3.252
X2.313Y-3.7992
X2.313Y-4.1516
X2.3158Y-2.8211
X2.3199Y-2.6339
X2.3228Y-0.8976
X2.3268Y-1.9311
X2.3449Y-3.241
X2.3504Y-3.622
X2.3553Y-3.4852
X2.3661Y-4.1516
X2.3691Y-2.6348
X2.3691Y-3.7864
X2.378Y-3.9764
X2.3829Y-2.5561
X2.3839Y-3.3465
X2.4055Y-0.8406
X2.4055Y-1.0443
X2.4075Y-2.2343
X2.4193Y-3.1043
X2.4341Y-3.4852
X2.4567Y-3.9764
X2.4665Y-2.2352
X2.4724Y-4.1496
X2.5128Y-1.7667
X2.5138Y-4.1496
X2.5177Y-1.9262
X2.5197Y-2.9882
X2.5354Y-3.9764
X2.5591Y-3.4744
X2.5748Y-4.1496
X2.5866Y-2.2244
X2.6142Y-3.9764
X2.627Y-3.7825
X2.6299Y-4.1496
X2.6309Y-3.4764
X2.6427Y-1.8622
X2.6732Y-4.1496
X2.6929Y-3.9764
X2.6939Y-1.4124
X2.7244Y-2.2244
X2.7244Y-4.1496
X2.7303Y-0.8484
X2.7333Y-1.4006
X2.752Y-1.622
X2.7717Y-3.9764
X2.7756Y-4.1496
X2.7805Y-1.8632
X2.7835Y-1.2283
X2.8071Y-3.8366
X2.8209Y-2.5374
X2.8268Y-2.3701
X2.8268Y-2.7638
X2.8268Y-3.5433
X2.8287Y-3.2106
X2.8327Y-3.9469
X2.8526Y-3.8555
X2.8583Y-3.2756
X2.8661Y-3.9744
X2.872Y-1.8543
X2.878Y-2.8543
X2.9035Y-2.2244
X2.9291Y-4.063
X2.9291Y-4.2283
X2.9291Y-4.2913
X2.939Y-3.0148
X2.9429Y-2.2244
X2.9449Y-3.8839
X2.9459Y-3.9252
X2.9518Y-3.4104
X2.9587Y-2.622
X2.9636Y-3.7953
X2.9823Y-2.2244
X3.0226Y-2.0571
X3.0236Y-2.2244
X3.0394Y-1.563
T2
X1.7913Y-0.9744
X1.8173Y-0.9118
X1.8173Y-1.037
X1.8799Y-0.8858
X1.8799Y-1.063
X1.9426Y-0.9118
X1.9426Y-1.037
X1.9685Y-0.9744
X1.4764Y-0.9744
X1.5023Y-0.9118
X1.5023Y-1.037
X1.565Y-0.8858
X1.565Y-1.063
X1.6276Y-0.9118
X1.6276Y-1.037
X1.6535Y-0.9744
T4
X1.8799Y-0.9744
X1.565Y-0.9744
T3
G00X2.5236Y-1.2799
M15
G01X2.3583Y-1.2799
M16
G05
G00X2.5236Y-1.5748
M15
G01X2.3583Y-1.5748
M16
G05
T0
M30
