G04 #@! TF.GenerationSoftware,KiCad,Pcbnew,(5.1.4)-1*
G04 #@! TF.CreationDate,2020-08-09T13:17:19-04:00*
G04 #@! TF.ProjectId,uBMS-2,75424d53-2d32-42e6-9b69-6361645f7063,rev?*
G04 #@! TF.SameCoordinates,Original*
G04 #@! TF.FileFunction,Soldermask,Top*
G04 #@! TF.FilePolarity,Negative*
%FSLAX46Y46*%
G04 Gerber Fmt 4.6, Leading zero omitted, Abs format (unit mm)*
G04 Created by KiCad (PCBNEW (5.1.4)-1) date 2020-08-09 13:17:19*
%MOMM*%
%LPD*%
G04 APERTURE LIST*
%ADD10C,0.100000*%
G04 APERTURE END LIST*
D10*
G36*
X78306564Y-106989389D02*
G01*
X78497833Y-107068615D01*
X78497835Y-107068616D01*
X78669973Y-107183635D01*
X78816365Y-107330027D01*
X78931385Y-107502167D01*
X79010611Y-107693436D01*
X79051000Y-107896484D01*
X79051000Y-108103516D01*
X79010611Y-108306564D01*
X78931385Y-108497833D01*
X78931384Y-108497835D01*
X78816365Y-108669973D01*
X78669973Y-108816365D01*
X78497835Y-108931384D01*
X78497834Y-108931385D01*
X78497833Y-108931385D01*
X78306564Y-109010611D01*
X78103516Y-109051000D01*
X77896484Y-109051000D01*
X77693436Y-109010611D01*
X77502167Y-108931385D01*
X77502166Y-108931385D01*
X77502165Y-108931384D01*
X77330027Y-108816365D01*
X77183635Y-108669973D01*
X77068616Y-108497835D01*
X77068615Y-108497833D01*
X76989389Y-108306564D01*
X76949000Y-108103516D01*
X76949000Y-107896484D01*
X76989389Y-107693436D01*
X77068615Y-107502167D01*
X77183635Y-107330027D01*
X77330027Y-107183635D01*
X77502165Y-107068616D01*
X77502167Y-107068615D01*
X77693436Y-106989389D01*
X77896484Y-106949000D01*
X78103516Y-106949000D01*
X78306564Y-106989389D01*
X78306564Y-106989389D01*
G37*
G36*
X22306564Y-106989389D02*
G01*
X22497833Y-107068615D01*
X22497835Y-107068616D01*
X22669973Y-107183635D01*
X22816365Y-107330027D01*
X22931385Y-107502167D01*
X23010611Y-107693436D01*
X23051000Y-107896484D01*
X23051000Y-108103516D01*
X23010611Y-108306564D01*
X22931385Y-108497833D01*
X22931384Y-108497835D01*
X22816365Y-108669973D01*
X22669973Y-108816365D01*
X22497835Y-108931384D01*
X22497834Y-108931385D01*
X22497833Y-108931385D01*
X22306564Y-109010611D01*
X22103516Y-109051000D01*
X21896484Y-109051000D01*
X21693436Y-109010611D01*
X21502167Y-108931385D01*
X21502166Y-108931385D01*
X21502165Y-108931384D01*
X21330027Y-108816365D01*
X21183635Y-108669973D01*
X21068616Y-108497835D01*
X21068615Y-108497833D01*
X20989389Y-108306564D01*
X20949000Y-108103516D01*
X20949000Y-107896484D01*
X20989389Y-107693436D01*
X21068615Y-107502167D01*
X21183635Y-107330027D01*
X21330027Y-107183635D01*
X21502165Y-107068616D01*
X21502167Y-107068615D01*
X21693436Y-106989389D01*
X21896484Y-106949000D01*
X22103516Y-106949000D01*
X22306564Y-106989389D01*
X22306564Y-106989389D01*
G37*
G36*
X71151000Y-108966000D02*
G01*
X70049000Y-108966000D01*
X70049000Y-106114000D01*
X71151000Y-106114000D01*
X71151000Y-108966000D01*
X71151000Y-108966000D01*
G37*
G36*
X63151000Y-108966000D02*
G01*
X62049000Y-108966000D01*
X62049000Y-106114000D01*
X63151000Y-106114000D01*
X63151000Y-108966000D01*
X63151000Y-108966000D01*
G37*
G36*
X61151000Y-108966000D02*
G01*
X60049000Y-108966000D01*
X60049000Y-106114000D01*
X61151000Y-106114000D01*
X61151000Y-108966000D01*
X61151000Y-108966000D01*
G37*
G36*
X67151000Y-108966000D02*
G01*
X66049000Y-108966000D01*
X66049000Y-106114000D01*
X67151000Y-106114000D01*
X67151000Y-108966000D01*
X67151000Y-108966000D01*
G37*
G36*
X47951000Y-108966000D02*
G01*
X46849000Y-108966000D01*
X46849000Y-106114000D01*
X47951000Y-106114000D01*
X47951000Y-108966000D01*
X47951000Y-108966000D01*
G37*
G36*
X39951000Y-108966000D02*
G01*
X38849000Y-108966000D01*
X38849000Y-106114000D01*
X39951000Y-106114000D01*
X39951000Y-108966000D01*
X39951000Y-108966000D01*
G37*
G36*
X43951000Y-108966000D02*
G01*
X42849000Y-108966000D01*
X42849000Y-106114000D01*
X43951000Y-106114000D01*
X43951000Y-108966000D01*
X43951000Y-108966000D01*
G37*
G36*
X37951000Y-108966000D02*
G01*
X36849000Y-108966000D01*
X36849000Y-106114000D01*
X37951000Y-106114000D01*
X37951000Y-108966000D01*
X37951000Y-108966000D01*
G37*
G36*
X41951000Y-108966000D02*
G01*
X40849000Y-108966000D01*
X40849000Y-106114000D01*
X41951000Y-106114000D01*
X41951000Y-108966000D01*
X41951000Y-108966000D01*
G37*
G36*
X45951000Y-108966000D02*
G01*
X44849000Y-108966000D01*
X44849000Y-106114000D01*
X45951000Y-106114000D01*
X45951000Y-108966000D01*
X45951000Y-108966000D01*
G37*
G36*
X69151000Y-108966000D02*
G01*
X68049000Y-108966000D01*
X68049000Y-106114000D01*
X69151000Y-106114000D01*
X69151000Y-108966000D01*
X69151000Y-108966000D01*
G37*
G36*
X65151000Y-108966000D02*
G01*
X64049000Y-108966000D01*
X64049000Y-106114000D01*
X65151000Y-106114000D01*
X65151000Y-108966000D01*
X65151000Y-108966000D01*
G37*
G36*
X35951000Y-108966000D02*
G01*
X34849000Y-108966000D01*
X34849000Y-106114000D01*
X35951000Y-106114000D01*
X35951000Y-108966000D01*
X35951000Y-108966000D01*
G37*
G36*
X73151000Y-108966000D02*
G01*
X72049000Y-108966000D01*
X72049000Y-106114000D01*
X73151000Y-106114000D01*
X73151000Y-108966000D01*
X73151000Y-108966000D01*
G37*
G36*
X54801000Y-108151000D02*
G01*
X53199000Y-108151000D01*
X53199000Y-106049000D01*
X54801000Y-106049000D01*
X54801000Y-108151000D01*
X54801000Y-108151000D01*
G37*
G36*
X46560721Y-104880174D02*
G01*
X46668146Y-104924671D01*
X46668536Y-104924880D01*
X46680785Y-104934931D01*
X46751237Y-104982006D01*
X46751239Y-104982008D01*
X46751242Y-104982010D01*
X46827990Y-105058758D01*
X46827991Y-105058760D01*
X46888291Y-105149005D01*
X46929826Y-105249279D01*
X46951000Y-105355730D01*
X46951000Y-105464270D01*
X46929826Y-105570721D01*
X46888291Y-105670995D01*
X46888290Y-105670996D01*
X46827990Y-105761242D01*
X46751242Y-105837990D01*
X46751239Y-105837992D01*
X46751237Y-105837994D01*
X46680785Y-105885069D01*
X46668536Y-105895121D01*
X46668152Y-105895327D01*
X46560721Y-105939826D01*
X46454270Y-105961000D01*
X46345730Y-105961000D01*
X46239279Y-105939826D01*
X46131854Y-105895329D01*
X46131464Y-105895120D01*
X46119215Y-105885069D01*
X46048763Y-105837994D01*
X46048761Y-105837992D01*
X46048758Y-105837990D01*
X45972010Y-105761242D01*
X45911710Y-105670996D01*
X45911709Y-105670995D01*
X45870174Y-105570721D01*
X45849000Y-105464270D01*
X45849000Y-105355730D01*
X45870174Y-105249279D01*
X45911709Y-105149005D01*
X45972009Y-105058760D01*
X45972010Y-105058758D01*
X46048758Y-104982010D01*
X46048761Y-104982008D01*
X46048763Y-104982006D01*
X46119215Y-104934931D01*
X46131464Y-104924879D01*
X46131848Y-104924673D01*
X46239279Y-104880174D01*
X46345730Y-104859000D01*
X46454270Y-104859000D01*
X46560721Y-104880174D01*
X46560721Y-104880174D01*
G37*
G36*
X71760721Y-104880174D02*
G01*
X71868146Y-104924671D01*
X71868536Y-104924880D01*
X71880785Y-104934931D01*
X71951237Y-104982006D01*
X71951239Y-104982008D01*
X71951242Y-104982010D01*
X72027990Y-105058758D01*
X72027991Y-105058760D01*
X72088291Y-105149005D01*
X72129826Y-105249279D01*
X72151000Y-105355730D01*
X72151000Y-105464270D01*
X72129826Y-105570721D01*
X72088291Y-105670995D01*
X72088290Y-105670996D01*
X72027990Y-105761242D01*
X71951242Y-105837990D01*
X71951239Y-105837992D01*
X71951237Y-105837994D01*
X71880785Y-105885069D01*
X71868536Y-105895121D01*
X71868152Y-105895327D01*
X71760721Y-105939826D01*
X71654270Y-105961000D01*
X71545730Y-105961000D01*
X71439279Y-105939826D01*
X71331854Y-105895329D01*
X71331464Y-105895120D01*
X71319215Y-105885069D01*
X71248763Y-105837994D01*
X71248761Y-105837992D01*
X71248758Y-105837990D01*
X71172010Y-105761242D01*
X71111710Y-105670996D01*
X71111709Y-105670995D01*
X71070174Y-105570721D01*
X71049000Y-105464270D01*
X71049000Y-105355730D01*
X71070174Y-105249279D01*
X71111709Y-105149005D01*
X71172009Y-105058760D01*
X71172010Y-105058758D01*
X71248758Y-104982010D01*
X71248761Y-104982008D01*
X71248763Y-104982006D01*
X71319215Y-104934931D01*
X71331464Y-104924879D01*
X71331848Y-104924673D01*
X71439279Y-104880174D01*
X71545730Y-104859000D01*
X71654270Y-104859000D01*
X71760721Y-104880174D01*
X71760721Y-104880174D01*
G37*
G36*
X61760721Y-104880174D02*
G01*
X61868146Y-104924671D01*
X61868536Y-104924880D01*
X61880785Y-104934931D01*
X61951237Y-104982006D01*
X61951239Y-104982008D01*
X61951242Y-104982010D01*
X62027990Y-105058758D01*
X62027991Y-105058760D01*
X62088291Y-105149005D01*
X62129826Y-105249279D01*
X62151000Y-105355730D01*
X62151000Y-105464270D01*
X62129826Y-105570721D01*
X62088291Y-105670995D01*
X62088290Y-105670996D01*
X62027990Y-105761242D01*
X61951242Y-105837990D01*
X61951239Y-105837992D01*
X61951237Y-105837994D01*
X61880785Y-105885069D01*
X61868536Y-105895121D01*
X61868152Y-105895327D01*
X61760721Y-105939826D01*
X61654270Y-105961000D01*
X61545730Y-105961000D01*
X61439279Y-105939826D01*
X61331854Y-105895329D01*
X61331464Y-105895120D01*
X61319215Y-105885069D01*
X61248763Y-105837994D01*
X61248761Y-105837992D01*
X61248758Y-105837990D01*
X61172010Y-105761242D01*
X61111710Y-105670996D01*
X61111709Y-105670995D01*
X61070174Y-105570721D01*
X61049000Y-105464270D01*
X61049000Y-105355730D01*
X61070174Y-105249279D01*
X61111709Y-105149005D01*
X61172009Y-105058760D01*
X61172010Y-105058758D01*
X61248758Y-104982010D01*
X61248761Y-104982008D01*
X61248763Y-104982006D01*
X61319215Y-104934931D01*
X61331464Y-104924879D01*
X61331848Y-104924673D01*
X61439279Y-104880174D01*
X61545730Y-104859000D01*
X61654270Y-104859000D01*
X61760721Y-104880174D01*
X61760721Y-104880174D01*
G37*
G36*
X36560721Y-104880174D02*
G01*
X36668146Y-104924671D01*
X36668536Y-104924880D01*
X36680785Y-104934931D01*
X36751237Y-104982006D01*
X36751239Y-104982008D01*
X36751242Y-104982010D01*
X36827990Y-105058758D01*
X36827991Y-105058760D01*
X36888291Y-105149005D01*
X36929826Y-105249279D01*
X36951000Y-105355730D01*
X36951000Y-105464270D01*
X36929826Y-105570721D01*
X36888291Y-105670995D01*
X36888290Y-105670996D01*
X36827990Y-105761242D01*
X36751242Y-105837990D01*
X36751239Y-105837992D01*
X36751237Y-105837994D01*
X36680785Y-105885069D01*
X36668536Y-105895121D01*
X36668152Y-105895327D01*
X36560721Y-105939826D01*
X36454270Y-105961000D01*
X36345730Y-105961000D01*
X36239279Y-105939826D01*
X36131854Y-105895329D01*
X36131464Y-105895120D01*
X36119215Y-105885069D01*
X36048763Y-105837994D01*
X36048761Y-105837992D01*
X36048758Y-105837990D01*
X35972010Y-105761242D01*
X35911710Y-105670996D01*
X35911709Y-105670995D01*
X35870174Y-105570721D01*
X35849000Y-105464270D01*
X35849000Y-105355730D01*
X35870174Y-105249279D01*
X35911709Y-105149005D01*
X35972009Y-105058760D01*
X35972010Y-105058758D01*
X36048758Y-104982010D01*
X36048761Y-104982008D01*
X36048763Y-104982006D01*
X36119215Y-104934931D01*
X36131464Y-104924879D01*
X36131848Y-104924673D01*
X36239279Y-104880174D01*
X36345730Y-104859000D01*
X36454270Y-104859000D01*
X36560721Y-104880174D01*
X36560721Y-104880174D01*
G37*
G36*
X73151000Y-104706000D02*
G01*
X72049000Y-104706000D01*
X72049000Y-101854000D01*
X73151000Y-101854000D01*
X73151000Y-104706000D01*
X73151000Y-104706000D01*
G37*
G36*
X39951000Y-104706000D02*
G01*
X38849000Y-104706000D01*
X38849000Y-101854000D01*
X39951000Y-101854000D01*
X39951000Y-104706000D01*
X39951000Y-104706000D01*
G37*
G36*
X47951000Y-104706000D02*
G01*
X46849000Y-104706000D01*
X46849000Y-101854000D01*
X47951000Y-101854000D01*
X47951000Y-104706000D01*
X47951000Y-104706000D01*
G37*
G36*
X37951000Y-104706000D02*
G01*
X36849000Y-104706000D01*
X36849000Y-101854000D01*
X37951000Y-101854000D01*
X37951000Y-104706000D01*
X37951000Y-104706000D01*
G37*
G36*
X43951000Y-104706000D02*
G01*
X42849000Y-104706000D01*
X42849000Y-101854000D01*
X43951000Y-101854000D01*
X43951000Y-104706000D01*
X43951000Y-104706000D01*
G37*
G36*
X67151000Y-104706000D02*
G01*
X66049000Y-104706000D01*
X66049000Y-101854000D01*
X67151000Y-101854000D01*
X67151000Y-104706000D01*
X67151000Y-104706000D01*
G37*
G36*
X71151000Y-104706000D02*
G01*
X70049000Y-104706000D01*
X70049000Y-101854000D01*
X71151000Y-101854000D01*
X71151000Y-104706000D01*
X71151000Y-104706000D01*
G37*
G36*
X61151000Y-104706000D02*
G01*
X60049000Y-104706000D01*
X60049000Y-101854000D01*
X61151000Y-101854000D01*
X61151000Y-104706000D01*
X61151000Y-104706000D01*
G37*
G36*
X69151000Y-104706000D02*
G01*
X68049000Y-104706000D01*
X68049000Y-101854000D01*
X69151000Y-101854000D01*
X69151000Y-104706000D01*
X69151000Y-104706000D01*
G37*
G36*
X45951000Y-104706000D02*
G01*
X44849000Y-104706000D01*
X44849000Y-101854000D01*
X45951000Y-101854000D01*
X45951000Y-104706000D01*
X45951000Y-104706000D01*
G37*
G36*
X41951000Y-104706000D02*
G01*
X40849000Y-104706000D01*
X40849000Y-101854000D01*
X41951000Y-101854000D01*
X41951000Y-104706000D01*
X41951000Y-104706000D01*
G37*
G36*
X65151000Y-104706000D02*
G01*
X64049000Y-104706000D01*
X64049000Y-101854000D01*
X65151000Y-101854000D01*
X65151000Y-104706000D01*
X65151000Y-104706000D01*
G37*
G36*
X63151000Y-104706000D02*
G01*
X62049000Y-104706000D01*
X62049000Y-101854000D01*
X63151000Y-101854000D01*
X63151000Y-104706000D01*
X63151000Y-104706000D01*
G37*
G36*
X35951000Y-104706000D02*
G01*
X34849000Y-104706000D01*
X34849000Y-101854000D01*
X35951000Y-101854000D01*
X35951000Y-104706000D01*
X35951000Y-104706000D01*
G37*
G36*
X23151000Y-103601000D02*
G01*
X21049000Y-103601000D01*
X21049000Y-101999000D01*
X23151000Y-101999000D01*
X23151000Y-103601000D01*
X23151000Y-103601000D01*
G37*
G36*
X31351000Y-103601000D02*
G01*
X29249000Y-103601000D01*
X29249000Y-101999000D01*
X31351000Y-101999000D01*
X31351000Y-103601000D01*
X31351000Y-103601000D01*
G37*
G36*
X54801000Y-99951000D02*
G01*
X53199000Y-99951000D01*
X53199000Y-97849000D01*
X54801000Y-97849000D01*
X54801000Y-99951000D01*
X54801000Y-99951000D01*
G37*
G36*
X30401000Y-99091000D02*
G01*
X27149000Y-99091000D01*
X27149000Y-97989000D01*
X30401000Y-97989000D01*
X30401000Y-99091000D01*
X30401000Y-99091000D01*
G37*
G36*
X25351000Y-99091000D02*
G01*
X22099000Y-99091000D01*
X22099000Y-97989000D01*
X25351000Y-97989000D01*
X25351000Y-99091000D01*
X25351000Y-99091000D01*
G37*
G36*
X62768604Y-95928347D02*
G01*
X62805144Y-95939432D01*
X62838821Y-95957433D01*
X62868341Y-95981659D01*
X62892567Y-96011179D01*
X62910568Y-96044856D01*
X62921653Y-96081396D01*
X62926000Y-96125538D01*
X62926000Y-97074462D01*
X62921653Y-97118604D01*
X62910568Y-97155144D01*
X62892567Y-97188821D01*
X62868341Y-97218341D01*
X62838821Y-97242567D01*
X62805144Y-97260568D01*
X62768604Y-97271653D01*
X62724462Y-97276000D01*
X61275538Y-97276000D01*
X61231396Y-97271653D01*
X61194856Y-97260568D01*
X61161179Y-97242567D01*
X61131659Y-97218341D01*
X61107433Y-97188821D01*
X61089432Y-97155144D01*
X61078347Y-97118604D01*
X61074000Y-97074462D01*
X61074000Y-96125538D01*
X61078347Y-96081396D01*
X61089432Y-96044856D01*
X61107433Y-96011179D01*
X61131659Y-95981659D01*
X61161179Y-95957433D01*
X61194856Y-95939432D01*
X61231396Y-95928347D01*
X61275538Y-95924000D01*
X62724462Y-95924000D01*
X62768604Y-95928347D01*
X62768604Y-95928347D01*
G37*
G36*
X46768604Y-95928347D02*
G01*
X46805144Y-95939432D01*
X46838821Y-95957433D01*
X46868341Y-95981659D01*
X46892567Y-96011179D01*
X46910568Y-96044856D01*
X46921653Y-96081396D01*
X46926000Y-96125538D01*
X46926000Y-97074462D01*
X46921653Y-97118604D01*
X46910568Y-97155144D01*
X46892567Y-97188821D01*
X46868341Y-97218341D01*
X46838821Y-97242567D01*
X46805144Y-97260568D01*
X46768604Y-97271653D01*
X46724462Y-97276000D01*
X45275538Y-97276000D01*
X45231396Y-97271653D01*
X45194856Y-97260568D01*
X45161179Y-97242567D01*
X45131659Y-97218341D01*
X45107433Y-97188821D01*
X45089432Y-97155144D01*
X45078347Y-97118604D01*
X45074000Y-97074462D01*
X45074000Y-96125538D01*
X45078347Y-96081396D01*
X45089432Y-96044856D01*
X45107433Y-96011179D01*
X45131659Y-95981659D01*
X45161179Y-95957433D01*
X45194856Y-95939432D01*
X45231396Y-95928347D01*
X45275538Y-95924000D01*
X46724462Y-95924000D01*
X46768604Y-95928347D01*
X46768604Y-95928347D01*
G37*
G36*
X77968604Y-95728347D02*
G01*
X78005144Y-95739432D01*
X78038821Y-95757433D01*
X78068341Y-95781659D01*
X78092567Y-95811179D01*
X78110568Y-95844856D01*
X78121653Y-95881396D01*
X78126000Y-95925538D01*
X78126000Y-96874462D01*
X78121653Y-96918604D01*
X78110568Y-96955144D01*
X78092567Y-96988821D01*
X78068341Y-97018341D01*
X78038821Y-97042567D01*
X78005144Y-97060568D01*
X77968604Y-97071653D01*
X77924462Y-97076000D01*
X76475538Y-97076000D01*
X76431396Y-97071653D01*
X76394856Y-97060568D01*
X76361179Y-97042567D01*
X76331659Y-97018341D01*
X76307433Y-96988821D01*
X76289432Y-96955144D01*
X76278347Y-96918604D01*
X76274000Y-96874462D01*
X76274000Y-95925538D01*
X76278347Y-95881396D01*
X76289432Y-95844856D01*
X76307433Y-95811179D01*
X76331659Y-95781659D01*
X76361179Y-95757433D01*
X76394856Y-95739432D01*
X76431396Y-95728347D01*
X76475538Y-95724000D01*
X77924462Y-95724000D01*
X77968604Y-95728347D01*
X77968604Y-95728347D01*
G37*
G36*
X30401000Y-96551000D02*
G01*
X27149000Y-96551000D01*
X27149000Y-95449000D01*
X30401000Y-95449000D01*
X30401000Y-96551000D01*
X30401000Y-96551000D01*
G37*
G36*
X25351000Y-96551000D02*
G01*
X22099000Y-96551000D01*
X22099000Y-95449000D01*
X25351000Y-95449000D01*
X25351000Y-96551000D01*
X25351000Y-96551000D01*
G37*
G36*
X55751000Y-95401000D02*
G01*
X49249000Y-95401000D01*
X49249000Y-89499000D01*
X55751000Y-89499000D01*
X55751000Y-95401000D01*
X55751000Y-95401000D01*
G37*
G36*
X39701000Y-95401000D02*
G01*
X33199000Y-95401000D01*
X33199000Y-89499000D01*
X39701000Y-89499000D01*
X39701000Y-95401000D01*
X39701000Y-95401000D01*
G37*
G36*
X59951000Y-95381000D02*
G01*
X57649000Y-95381000D01*
X57649000Y-94079000D01*
X59951000Y-94079000D01*
X59951000Y-95381000D01*
X59951000Y-95381000D01*
G37*
G36*
X43901000Y-95381000D02*
G01*
X41599000Y-95381000D01*
X41599000Y-94079000D01*
X43901000Y-94079000D01*
X43901000Y-95381000D01*
X43901000Y-95381000D01*
G37*
G36*
X70801000Y-95201000D02*
G01*
X64299000Y-95201000D01*
X64299000Y-89299000D01*
X70801000Y-89299000D01*
X70801000Y-95201000D01*
X70801000Y-95201000D01*
G37*
G36*
X75001000Y-95181000D02*
G01*
X72699000Y-95181000D01*
X72699000Y-93879000D01*
X75001000Y-93879000D01*
X75001000Y-95181000D01*
X75001000Y-95181000D01*
G37*
G36*
X62768604Y-93128347D02*
G01*
X62805144Y-93139432D01*
X62838821Y-93157433D01*
X62868341Y-93181659D01*
X62892567Y-93211179D01*
X62910568Y-93244856D01*
X62921653Y-93281396D01*
X62926000Y-93325538D01*
X62926000Y-94274462D01*
X62921653Y-94318604D01*
X62910568Y-94355144D01*
X62892567Y-94388821D01*
X62868341Y-94418341D01*
X62838821Y-94442567D01*
X62805144Y-94460568D01*
X62768604Y-94471653D01*
X62724462Y-94476000D01*
X61275538Y-94476000D01*
X61231396Y-94471653D01*
X61194856Y-94460568D01*
X61161179Y-94442567D01*
X61131659Y-94418341D01*
X61107433Y-94388821D01*
X61089432Y-94355144D01*
X61078347Y-94318604D01*
X61074000Y-94274462D01*
X61074000Y-93325538D01*
X61078347Y-93281396D01*
X61089432Y-93244856D01*
X61107433Y-93211179D01*
X61131659Y-93181659D01*
X61161179Y-93157433D01*
X61194856Y-93139432D01*
X61231396Y-93128347D01*
X61275538Y-93124000D01*
X62724462Y-93124000D01*
X62768604Y-93128347D01*
X62768604Y-93128347D01*
G37*
G36*
X46768604Y-93128347D02*
G01*
X46805144Y-93139432D01*
X46838821Y-93157433D01*
X46868341Y-93181659D01*
X46892567Y-93211179D01*
X46910568Y-93244856D01*
X46921653Y-93281396D01*
X46926000Y-93325538D01*
X46926000Y-94274462D01*
X46921653Y-94318604D01*
X46910568Y-94355144D01*
X46892567Y-94388821D01*
X46868341Y-94418341D01*
X46838821Y-94442567D01*
X46805144Y-94460568D01*
X46768604Y-94471653D01*
X46724462Y-94476000D01*
X45275538Y-94476000D01*
X45231396Y-94471653D01*
X45194856Y-94460568D01*
X45161179Y-94442567D01*
X45131659Y-94418341D01*
X45107433Y-94388821D01*
X45089432Y-94355144D01*
X45078347Y-94318604D01*
X45074000Y-94274462D01*
X45074000Y-93325538D01*
X45078347Y-93281396D01*
X45089432Y-93244856D01*
X45107433Y-93211179D01*
X45131659Y-93181659D01*
X45161179Y-93157433D01*
X45194856Y-93139432D01*
X45231396Y-93128347D01*
X45275538Y-93124000D01*
X46724462Y-93124000D01*
X46768604Y-93128347D01*
X46768604Y-93128347D01*
G37*
G36*
X77968604Y-92928347D02*
G01*
X78005144Y-92939432D01*
X78038821Y-92957433D01*
X78068341Y-92981659D01*
X78092567Y-93011179D01*
X78110568Y-93044856D01*
X78121653Y-93081396D01*
X78126000Y-93125538D01*
X78126000Y-94074462D01*
X78121653Y-94118604D01*
X78110568Y-94155144D01*
X78092567Y-94188821D01*
X78068341Y-94218341D01*
X78038821Y-94242567D01*
X78005144Y-94260568D01*
X77968604Y-94271653D01*
X77924462Y-94276000D01*
X76475538Y-94276000D01*
X76431396Y-94271653D01*
X76394856Y-94260568D01*
X76361179Y-94242567D01*
X76331659Y-94218341D01*
X76307433Y-94188821D01*
X76289432Y-94155144D01*
X76278347Y-94118604D01*
X76274000Y-94074462D01*
X76274000Y-93125538D01*
X76278347Y-93081396D01*
X76289432Y-93044856D01*
X76307433Y-93011179D01*
X76331659Y-92981659D01*
X76361179Y-92957433D01*
X76394856Y-92939432D01*
X76431396Y-92928347D01*
X76475538Y-92924000D01*
X77924462Y-92924000D01*
X77968604Y-92928347D01*
X77968604Y-92928347D01*
G37*
G36*
X25351000Y-94011000D02*
G01*
X22099000Y-94011000D01*
X22099000Y-92909000D01*
X25351000Y-92909000D01*
X25351000Y-94011000D01*
X25351000Y-94011000D01*
G37*
G36*
X30401000Y-94011000D02*
G01*
X27149000Y-94011000D01*
X27149000Y-92909000D01*
X30401000Y-92909000D01*
X30401000Y-94011000D01*
X30401000Y-94011000D01*
G37*
G36*
X45414499Y-91353445D02*
G01*
X45451995Y-91364820D01*
X45486554Y-91383292D01*
X45516847Y-91408153D01*
X45541708Y-91438446D01*
X45560180Y-91473005D01*
X45571555Y-91510501D01*
X45576000Y-91555638D01*
X45576000Y-92294362D01*
X45571555Y-92339499D01*
X45560180Y-92376995D01*
X45541708Y-92411554D01*
X45516847Y-92441847D01*
X45486554Y-92466708D01*
X45451995Y-92485180D01*
X45414499Y-92496555D01*
X45369362Y-92501000D01*
X44730638Y-92501000D01*
X44685501Y-92496555D01*
X44648005Y-92485180D01*
X44613446Y-92466708D01*
X44583153Y-92441847D01*
X44558292Y-92411554D01*
X44539820Y-92376995D01*
X44528445Y-92339499D01*
X44524000Y-92294362D01*
X44524000Y-91555638D01*
X44528445Y-91510501D01*
X44539820Y-91473005D01*
X44558292Y-91438446D01*
X44583153Y-91408153D01*
X44613446Y-91383292D01*
X44648005Y-91364820D01*
X44685501Y-91353445D01*
X44730638Y-91349000D01*
X45369362Y-91349000D01*
X45414499Y-91353445D01*
X45414499Y-91353445D01*
G37*
G36*
X63214499Y-91353445D02*
G01*
X63251995Y-91364820D01*
X63286554Y-91383292D01*
X63316847Y-91408153D01*
X63341708Y-91438446D01*
X63360180Y-91473005D01*
X63371555Y-91510501D01*
X63376000Y-91555638D01*
X63376000Y-92294362D01*
X63371555Y-92339499D01*
X63360180Y-92376995D01*
X63341708Y-92411554D01*
X63316847Y-92441847D01*
X63286554Y-92466708D01*
X63251995Y-92485180D01*
X63214499Y-92496555D01*
X63169362Y-92501000D01*
X62530638Y-92501000D01*
X62485501Y-92496555D01*
X62448005Y-92485180D01*
X62413446Y-92466708D01*
X62383153Y-92441847D01*
X62358292Y-92411554D01*
X62339820Y-92376995D01*
X62328445Y-92339499D01*
X62324000Y-92294362D01*
X62324000Y-91555638D01*
X62328445Y-91510501D01*
X62339820Y-91473005D01*
X62358292Y-91438446D01*
X62383153Y-91408153D01*
X62413446Y-91383292D01*
X62448005Y-91364820D01*
X62485501Y-91353445D01*
X62530638Y-91349000D01*
X63169362Y-91349000D01*
X63214499Y-91353445D01*
X63214499Y-91353445D01*
G37*
G36*
X61464499Y-91353445D02*
G01*
X61501995Y-91364820D01*
X61536554Y-91383292D01*
X61566847Y-91408153D01*
X61591708Y-91438446D01*
X61610180Y-91473005D01*
X61621555Y-91510501D01*
X61626000Y-91555638D01*
X61626000Y-92294362D01*
X61621555Y-92339499D01*
X61610180Y-92376995D01*
X61591708Y-92411554D01*
X61566847Y-92441847D01*
X61536554Y-92466708D01*
X61501995Y-92485180D01*
X61464499Y-92496555D01*
X61419362Y-92501000D01*
X60780638Y-92501000D01*
X60735501Y-92496555D01*
X60698005Y-92485180D01*
X60663446Y-92466708D01*
X60633153Y-92441847D01*
X60608292Y-92411554D01*
X60589820Y-92376995D01*
X60578445Y-92339499D01*
X60574000Y-92294362D01*
X60574000Y-91555638D01*
X60578445Y-91510501D01*
X60589820Y-91473005D01*
X60608292Y-91438446D01*
X60633153Y-91408153D01*
X60663446Y-91383292D01*
X60698005Y-91364820D01*
X60735501Y-91353445D01*
X60780638Y-91349000D01*
X61419362Y-91349000D01*
X61464499Y-91353445D01*
X61464499Y-91353445D01*
G37*
G36*
X47164499Y-91353445D02*
G01*
X47201995Y-91364820D01*
X47236554Y-91383292D01*
X47266847Y-91408153D01*
X47291708Y-91438446D01*
X47310180Y-91473005D01*
X47321555Y-91510501D01*
X47326000Y-91555638D01*
X47326000Y-92294362D01*
X47321555Y-92339499D01*
X47310180Y-92376995D01*
X47291708Y-92411554D01*
X47266847Y-92441847D01*
X47236554Y-92466708D01*
X47201995Y-92485180D01*
X47164499Y-92496555D01*
X47119362Y-92501000D01*
X46480638Y-92501000D01*
X46435501Y-92496555D01*
X46398005Y-92485180D01*
X46363446Y-92466708D01*
X46333153Y-92441847D01*
X46308292Y-92411554D01*
X46289820Y-92376995D01*
X46278445Y-92339499D01*
X46274000Y-92294362D01*
X46274000Y-91555638D01*
X46278445Y-91510501D01*
X46289820Y-91473005D01*
X46308292Y-91438446D01*
X46333153Y-91408153D01*
X46363446Y-91383292D01*
X46398005Y-91364820D01*
X46435501Y-91353445D01*
X46480638Y-91349000D01*
X47119362Y-91349000D01*
X47164499Y-91353445D01*
X47164499Y-91353445D01*
G37*
G36*
X78264499Y-91153445D02*
G01*
X78301995Y-91164820D01*
X78336554Y-91183292D01*
X78366847Y-91208153D01*
X78391708Y-91238446D01*
X78410180Y-91273005D01*
X78421555Y-91310501D01*
X78426000Y-91355638D01*
X78426000Y-92094362D01*
X78421555Y-92139499D01*
X78410180Y-92176995D01*
X78391708Y-92211554D01*
X78366847Y-92241847D01*
X78336554Y-92266708D01*
X78301995Y-92285180D01*
X78264499Y-92296555D01*
X78219362Y-92301000D01*
X77580638Y-92301000D01*
X77535501Y-92296555D01*
X77498005Y-92285180D01*
X77463446Y-92266708D01*
X77433153Y-92241847D01*
X77408292Y-92211554D01*
X77389820Y-92176995D01*
X77378445Y-92139499D01*
X77374000Y-92094362D01*
X77374000Y-91355638D01*
X77378445Y-91310501D01*
X77389820Y-91273005D01*
X77408292Y-91238446D01*
X77433153Y-91208153D01*
X77463446Y-91183292D01*
X77498005Y-91164820D01*
X77535501Y-91153445D01*
X77580638Y-91149000D01*
X78219362Y-91149000D01*
X78264499Y-91153445D01*
X78264499Y-91153445D01*
G37*
G36*
X76514499Y-91153445D02*
G01*
X76551995Y-91164820D01*
X76586554Y-91183292D01*
X76616847Y-91208153D01*
X76641708Y-91238446D01*
X76660180Y-91273005D01*
X76671555Y-91310501D01*
X76676000Y-91355638D01*
X76676000Y-92094362D01*
X76671555Y-92139499D01*
X76660180Y-92176995D01*
X76641708Y-92211554D01*
X76616847Y-92241847D01*
X76586554Y-92266708D01*
X76551995Y-92285180D01*
X76514499Y-92296555D01*
X76469362Y-92301000D01*
X75830638Y-92301000D01*
X75785501Y-92296555D01*
X75748005Y-92285180D01*
X75713446Y-92266708D01*
X75683153Y-92241847D01*
X75658292Y-92211554D01*
X75639820Y-92176995D01*
X75628445Y-92139499D01*
X75624000Y-92094362D01*
X75624000Y-91355638D01*
X75628445Y-91310501D01*
X75639820Y-91273005D01*
X75658292Y-91238446D01*
X75683153Y-91208153D01*
X75713446Y-91183292D01*
X75748005Y-91164820D01*
X75785501Y-91153445D01*
X75830638Y-91149000D01*
X76469362Y-91149000D01*
X76514499Y-91153445D01*
X76514499Y-91153445D01*
G37*
G36*
X59951000Y-90821000D02*
G01*
X57649000Y-90821000D01*
X57649000Y-89519000D01*
X59951000Y-89519000D01*
X59951000Y-90821000D01*
X59951000Y-90821000D01*
G37*
G36*
X43901000Y-90821000D02*
G01*
X41599000Y-90821000D01*
X41599000Y-89519000D01*
X43901000Y-89519000D01*
X43901000Y-90821000D01*
X43901000Y-90821000D01*
G37*
G36*
X61464499Y-89603445D02*
G01*
X61501995Y-89614820D01*
X61536554Y-89633292D01*
X61566847Y-89658153D01*
X61591708Y-89688446D01*
X61610180Y-89723005D01*
X61621555Y-89760501D01*
X61626000Y-89805638D01*
X61626000Y-90544362D01*
X61621555Y-90589499D01*
X61610180Y-90626995D01*
X61591708Y-90661554D01*
X61566847Y-90691847D01*
X61536554Y-90716708D01*
X61501995Y-90735180D01*
X61464499Y-90746555D01*
X61419362Y-90751000D01*
X60780638Y-90751000D01*
X60735501Y-90746555D01*
X60698005Y-90735180D01*
X60663446Y-90716708D01*
X60633153Y-90691847D01*
X60608292Y-90661554D01*
X60589820Y-90626995D01*
X60578445Y-90589499D01*
X60574000Y-90544362D01*
X60574000Y-89805638D01*
X60578445Y-89760501D01*
X60589820Y-89723005D01*
X60608292Y-89688446D01*
X60633153Y-89658153D01*
X60663446Y-89633292D01*
X60698005Y-89614820D01*
X60735501Y-89603445D01*
X60780638Y-89599000D01*
X61419362Y-89599000D01*
X61464499Y-89603445D01*
X61464499Y-89603445D01*
G37*
G36*
X47164499Y-89603445D02*
G01*
X47201995Y-89614820D01*
X47236554Y-89633292D01*
X47266847Y-89658153D01*
X47291708Y-89688446D01*
X47310180Y-89723005D01*
X47321555Y-89760501D01*
X47326000Y-89805638D01*
X47326000Y-90544362D01*
X47321555Y-90589499D01*
X47310180Y-90626995D01*
X47291708Y-90661554D01*
X47266847Y-90691847D01*
X47236554Y-90716708D01*
X47201995Y-90735180D01*
X47164499Y-90746555D01*
X47119362Y-90751000D01*
X46480638Y-90751000D01*
X46435501Y-90746555D01*
X46398005Y-90735180D01*
X46363446Y-90716708D01*
X46333153Y-90691847D01*
X46308292Y-90661554D01*
X46289820Y-90626995D01*
X46278445Y-90589499D01*
X46274000Y-90544362D01*
X46274000Y-89805638D01*
X46278445Y-89760501D01*
X46289820Y-89723005D01*
X46308292Y-89688446D01*
X46333153Y-89658153D01*
X46363446Y-89633292D01*
X46398005Y-89614820D01*
X46435501Y-89603445D01*
X46480638Y-89599000D01*
X47119362Y-89599000D01*
X47164499Y-89603445D01*
X47164499Y-89603445D01*
G37*
G36*
X63214499Y-89603445D02*
G01*
X63251995Y-89614820D01*
X63286554Y-89633292D01*
X63316847Y-89658153D01*
X63341708Y-89688446D01*
X63360180Y-89723005D01*
X63371555Y-89760501D01*
X63376000Y-89805638D01*
X63376000Y-90544362D01*
X63371555Y-90589499D01*
X63360180Y-90626995D01*
X63341708Y-90661554D01*
X63316847Y-90691847D01*
X63286554Y-90716708D01*
X63251995Y-90735180D01*
X63214499Y-90746555D01*
X63169362Y-90751000D01*
X62530638Y-90751000D01*
X62485501Y-90746555D01*
X62448005Y-90735180D01*
X62413446Y-90716708D01*
X62383153Y-90691847D01*
X62358292Y-90661554D01*
X62339820Y-90626995D01*
X62328445Y-90589499D01*
X62324000Y-90544362D01*
X62324000Y-89805638D01*
X62328445Y-89760501D01*
X62339820Y-89723005D01*
X62358292Y-89688446D01*
X62383153Y-89658153D01*
X62413446Y-89633292D01*
X62448005Y-89614820D01*
X62485501Y-89603445D01*
X62530638Y-89599000D01*
X63169362Y-89599000D01*
X63214499Y-89603445D01*
X63214499Y-89603445D01*
G37*
G36*
X45414499Y-89603445D02*
G01*
X45451995Y-89614820D01*
X45486554Y-89633292D01*
X45516847Y-89658153D01*
X45541708Y-89688446D01*
X45560180Y-89723005D01*
X45571555Y-89760501D01*
X45576000Y-89805638D01*
X45576000Y-90544362D01*
X45571555Y-90589499D01*
X45560180Y-90626995D01*
X45541708Y-90661554D01*
X45516847Y-90691847D01*
X45486554Y-90716708D01*
X45451995Y-90735180D01*
X45414499Y-90746555D01*
X45369362Y-90751000D01*
X44730638Y-90751000D01*
X44685501Y-90746555D01*
X44648005Y-90735180D01*
X44613446Y-90716708D01*
X44583153Y-90691847D01*
X44558292Y-90661554D01*
X44539820Y-90626995D01*
X44528445Y-90589499D01*
X44524000Y-90544362D01*
X44524000Y-89805638D01*
X44528445Y-89760501D01*
X44539820Y-89723005D01*
X44558292Y-89688446D01*
X44583153Y-89658153D01*
X44613446Y-89633292D01*
X44648005Y-89614820D01*
X44685501Y-89603445D01*
X44730638Y-89599000D01*
X45369362Y-89599000D01*
X45414499Y-89603445D01*
X45414499Y-89603445D01*
G37*
G36*
X75001000Y-90621000D02*
G01*
X72699000Y-90621000D01*
X72699000Y-89319000D01*
X75001000Y-89319000D01*
X75001000Y-90621000D01*
X75001000Y-90621000D01*
G37*
G36*
X76514499Y-89403445D02*
G01*
X76551995Y-89414820D01*
X76586554Y-89433292D01*
X76616847Y-89458153D01*
X76641708Y-89488446D01*
X76660180Y-89523005D01*
X76671555Y-89560501D01*
X76676000Y-89605638D01*
X76676000Y-90344362D01*
X76671555Y-90389499D01*
X76660180Y-90426995D01*
X76641708Y-90461554D01*
X76616847Y-90491847D01*
X76586554Y-90516708D01*
X76551995Y-90535180D01*
X76514499Y-90546555D01*
X76469362Y-90551000D01*
X75830638Y-90551000D01*
X75785501Y-90546555D01*
X75748005Y-90535180D01*
X75713446Y-90516708D01*
X75683153Y-90491847D01*
X75658292Y-90461554D01*
X75639820Y-90426995D01*
X75628445Y-90389499D01*
X75624000Y-90344362D01*
X75624000Y-89605638D01*
X75628445Y-89560501D01*
X75639820Y-89523005D01*
X75658292Y-89488446D01*
X75683153Y-89458153D01*
X75713446Y-89433292D01*
X75748005Y-89414820D01*
X75785501Y-89403445D01*
X75830638Y-89399000D01*
X76469362Y-89399000D01*
X76514499Y-89403445D01*
X76514499Y-89403445D01*
G37*
G36*
X78264499Y-89403445D02*
G01*
X78301995Y-89414820D01*
X78336554Y-89433292D01*
X78366847Y-89458153D01*
X78391708Y-89488446D01*
X78410180Y-89523005D01*
X78421555Y-89560501D01*
X78426000Y-89605638D01*
X78426000Y-90344362D01*
X78421555Y-90389499D01*
X78410180Y-90426995D01*
X78391708Y-90461554D01*
X78366847Y-90491847D01*
X78336554Y-90516708D01*
X78301995Y-90535180D01*
X78264499Y-90546555D01*
X78219362Y-90551000D01*
X77580638Y-90551000D01*
X77535501Y-90546555D01*
X77498005Y-90535180D01*
X77463446Y-90516708D01*
X77433153Y-90491847D01*
X77408292Y-90461554D01*
X77389820Y-90426995D01*
X77378445Y-90389499D01*
X77374000Y-90344362D01*
X77374000Y-89605638D01*
X77378445Y-89560501D01*
X77389820Y-89523005D01*
X77408292Y-89488446D01*
X77433153Y-89458153D01*
X77463446Y-89433292D01*
X77498005Y-89414820D01*
X77535501Y-89403445D01*
X77580638Y-89399000D01*
X78219362Y-89399000D01*
X78264499Y-89403445D01*
X78264499Y-89403445D01*
G37*
G36*
X23151000Y-90051000D02*
G01*
X21049000Y-90051000D01*
X21049000Y-88449000D01*
X23151000Y-88449000D01*
X23151000Y-90051000D01*
X23151000Y-90051000D01*
G37*
G36*
X31351000Y-90051000D02*
G01*
X29249000Y-90051000D01*
X29249000Y-88449000D01*
X31351000Y-88449000D01*
X31351000Y-90051000D01*
X31351000Y-90051000D01*
G37*
G36*
X77968604Y-85928347D02*
G01*
X78005144Y-85939432D01*
X78038821Y-85957433D01*
X78068341Y-85981659D01*
X78092567Y-86011179D01*
X78110568Y-86044856D01*
X78121653Y-86081396D01*
X78126000Y-86125538D01*
X78126000Y-87074462D01*
X78121653Y-87118604D01*
X78110568Y-87155144D01*
X78092567Y-87188821D01*
X78068341Y-87218341D01*
X78038821Y-87242567D01*
X78005144Y-87260568D01*
X77968604Y-87271653D01*
X77924462Y-87276000D01*
X76475538Y-87276000D01*
X76431396Y-87271653D01*
X76394856Y-87260568D01*
X76361179Y-87242567D01*
X76331659Y-87218341D01*
X76307433Y-87188821D01*
X76289432Y-87155144D01*
X76278347Y-87118604D01*
X76274000Y-87074462D01*
X76274000Y-86125538D01*
X76278347Y-86081396D01*
X76289432Y-86044856D01*
X76307433Y-86011179D01*
X76331659Y-85981659D01*
X76361179Y-85957433D01*
X76394856Y-85939432D01*
X76431396Y-85928347D01*
X76475538Y-85924000D01*
X77924462Y-85924000D01*
X77968604Y-85928347D01*
X77968604Y-85928347D01*
G37*
G36*
X62768604Y-85928347D02*
G01*
X62805144Y-85939432D01*
X62838821Y-85957433D01*
X62868341Y-85981659D01*
X62892567Y-86011179D01*
X62910568Y-86044856D01*
X62921653Y-86081396D01*
X62926000Y-86125538D01*
X62926000Y-87074462D01*
X62921653Y-87118604D01*
X62910568Y-87155144D01*
X62892567Y-87188821D01*
X62868341Y-87218341D01*
X62838821Y-87242567D01*
X62805144Y-87260568D01*
X62768604Y-87271653D01*
X62724462Y-87276000D01*
X61275538Y-87276000D01*
X61231396Y-87271653D01*
X61194856Y-87260568D01*
X61161179Y-87242567D01*
X61131659Y-87218341D01*
X61107433Y-87188821D01*
X61089432Y-87155144D01*
X61078347Y-87118604D01*
X61074000Y-87074462D01*
X61074000Y-86125538D01*
X61078347Y-86081396D01*
X61089432Y-86044856D01*
X61107433Y-86011179D01*
X61131659Y-85981659D01*
X61161179Y-85957433D01*
X61194856Y-85939432D01*
X61231396Y-85928347D01*
X61275538Y-85924000D01*
X62724462Y-85924000D01*
X62768604Y-85928347D01*
X62768604Y-85928347D01*
G37*
G36*
X46768604Y-85928347D02*
G01*
X46805144Y-85939432D01*
X46838821Y-85957433D01*
X46868341Y-85981659D01*
X46892567Y-86011179D01*
X46910568Y-86044856D01*
X46921653Y-86081396D01*
X46926000Y-86125538D01*
X46926000Y-87074462D01*
X46921653Y-87118604D01*
X46910568Y-87155144D01*
X46892567Y-87188821D01*
X46868341Y-87218341D01*
X46838821Y-87242567D01*
X46805144Y-87260568D01*
X46768604Y-87271653D01*
X46724462Y-87276000D01*
X45275538Y-87276000D01*
X45231396Y-87271653D01*
X45194856Y-87260568D01*
X45161179Y-87242567D01*
X45131659Y-87218341D01*
X45107433Y-87188821D01*
X45089432Y-87155144D01*
X45078347Y-87118604D01*
X45074000Y-87074462D01*
X45074000Y-86125538D01*
X45078347Y-86081396D01*
X45089432Y-86044856D01*
X45107433Y-86011179D01*
X45131659Y-85981659D01*
X45161179Y-85957433D01*
X45194856Y-85939432D01*
X45231396Y-85928347D01*
X45275538Y-85924000D01*
X46724462Y-85924000D01*
X46768604Y-85928347D01*
X46768604Y-85928347D01*
G37*
G36*
X55751000Y-85401000D02*
G01*
X49249000Y-85401000D01*
X49249000Y-79499000D01*
X55751000Y-79499000D01*
X55751000Y-85401000D01*
X55751000Y-85401000D01*
G37*
G36*
X39701000Y-85401000D02*
G01*
X33199000Y-85401000D01*
X33199000Y-79499000D01*
X39701000Y-79499000D01*
X39701000Y-85401000D01*
X39701000Y-85401000D01*
G37*
G36*
X70801000Y-85401000D02*
G01*
X64299000Y-85401000D01*
X64299000Y-79499000D01*
X70801000Y-79499000D01*
X70801000Y-85401000D01*
X70801000Y-85401000D01*
G37*
G36*
X59951000Y-85381000D02*
G01*
X57649000Y-85381000D01*
X57649000Y-84079000D01*
X59951000Y-84079000D01*
X59951000Y-85381000D01*
X59951000Y-85381000D01*
G37*
G36*
X43901000Y-85381000D02*
G01*
X41599000Y-85381000D01*
X41599000Y-84079000D01*
X43901000Y-84079000D01*
X43901000Y-85381000D01*
X43901000Y-85381000D01*
G37*
G36*
X75001000Y-85381000D02*
G01*
X72699000Y-85381000D01*
X72699000Y-84079000D01*
X75001000Y-84079000D01*
X75001000Y-85381000D01*
X75001000Y-85381000D01*
G37*
G36*
X46768604Y-83128347D02*
G01*
X46805144Y-83139432D01*
X46838821Y-83157433D01*
X46868341Y-83181659D01*
X46892567Y-83211179D01*
X46910568Y-83244856D01*
X46921653Y-83281396D01*
X46926000Y-83325538D01*
X46926000Y-84274462D01*
X46921653Y-84318604D01*
X46910568Y-84355144D01*
X46892567Y-84388821D01*
X46868341Y-84418341D01*
X46838821Y-84442567D01*
X46805144Y-84460568D01*
X46768604Y-84471653D01*
X46724462Y-84476000D01*
X45275538Y-84476000D01*
X45231396Y-84471653D01*
X45194856Y-84460568D01*
X45161179Y-84442567D01*
X45131659Y-84418341D01*
X45107433Y-84388821D01*
X45089432Y-84355144D01*
X45078347Y-84318604D01*
X45074000Y-84274462D01*
X45074000Y-83325538D01*
X45078347Y-83281396D01*
X45089432Y-83244856D01*
X45107433Y-83211179D01*
X45131659Y-83181659D01*
X45161179Y-83157433D01*
X45194856Y-83139432D01*
X45231396Y-83128347D01*
X45275538Y-83124000D01*
X46724462Y-83124000D01*
X46768604Y-83128347D01*
X46768604Y-83128347D01*
G37*
G36*
X62768604Y-83128347D02*
G01*
X62805144Y-83139432D01*
X62838821Y-83157433D01*
X62868341Y-83181659D01*
X62892567Y-83211179D01*
X62910568Y-83244856D01*
X62921653Y-83281396D01*
X62926000Y-83325538D01*
X62926000Y-84274462D01*
X62921653Y-84318604D01*
X62910568Y-84355144D01*
X62892567Y-84388821D01*
X62868341Y-84418341D01*
X62838821Y-84442567D01*
X62805144Y-84460568D01*
X62768604Y-84471653D01*
X62724462Y-84476000D01*
X61275538Y-84476000D01*
X61231396Y-84471653D01*
X61194856Y-84460568D01*
X61161179Y-84442567D01*
X61131659Y-84418341D01*
X61107433Y-84388821D01*
X61089432Y-84355144D01*
X61078347Y-84318604D01*
X61074000Y-84274462D01*
X61074000Y-83325538D01*
X61078347Y-83281396D01*
X61089432Y-83244856D01*
X61107433Y-83211179D01*
X61131659Y-83181659D01*
X61161179Y-83157433D01*
X61194856Y-83139432D01*
X61231396Y-83128347D01*
X61275538Y-83124000D01*
X62724462Y-83124000D01*
X62768604Y-83128347D01*
X62768604Y-83128347D01*
G37*
G36*
X77968604Y-83128347D02*
G01*
X78005144Y-83139432D01*
X78038821Y-83157433D01*
X78068341Y-83181659D01*
X78092567Y-83211179D01*
X78110568Y-83244856D01*
X78121653Y-83281396D01*
X78126000Y-83325538D01*
X78126000Y-84274462D01*
X78121653Y-84318604D01*
X78110568Y-84355144D01*
X78092567Y-84388821D01*
X78068341Y-84418341D01*
X78038821Y-84442567D01*
X78005144Y-84460568D01*
X77968604Y-84471653D01*
X77924462Y-84476000D01*
X76475538Y-84476000D01*
X76431396Y-84471653D01*
X76394856Y-84460568D01*
X76361179Y-84442567D01*
X76331659Y-84418341D01*
X76307433Y-84388821D01*
X76289432Y-84355144D01*
X76278347Y-84318604D01*
X76274000Y-84274462D01*
X76274000Y-83325538D01*
X76278347Y-83281396D01*
X76289432Y-83244856D01*
X76307433Y-83211179D01*
X76331659Y-83181659D01*
X76361179Y-83157433D01*
X76394856Y-83139432D01*
X76431396Y-83128347D01*
X76475538Y-83124000D01*
X77924462Y-83124000D01*
X77968604Y-83128347D01*
X77968604Y-83128347D01*
G37*
G36*
X61464499Y-81353445D02*
G01*
X61501995Y-81364820D01*
X61536554Y-81383292D01*
X61566847Y-81408153D01*
X61591708Y-81438446D01*
X61610180Y-81473005D01*
X61621555Y-81510501D01*
X61626000Y-81555638D01*
X61626000Y-82294362D01*
X61621555Y-82339499D01*
X61610180Y-82376995D01*
X61591708Y-82411554D01*
X61566847Y-82441847D01*
X61536554Y-82466708D01*
X61501995Y-82485180D01*
X61464499Y-82496555D01*
X61419362Y-82501000D01*
X60780638Y-82501000D01*
X60735501Y-82496555D01*
X60698005Y-82485180D01*
X60663446Y-82466708D01*
X60633153Y-82441847D01*
X60608292Y-82411554D01*
X60589820Y-82376995D01*
X60578445Y-82339499D01*
X60574000Y-82294362D01*
X60574000Y-81555638D01*
X60578445Y-81510501D01*
X60589820Y-81473005D01*
X60608292Y-81438446D01*
X60633153Y-81408153D01*
X60663446Y-81383292D01*
X60698005Y-81364820D01*
X60735501Y-81353445D01*
X60780638Y-81349000D01*
X61419362Y-81349000D01*
X61464499Y-81353445D01*
X61464499Y-81353445D01*
G37*
G36*
X76514499Y-81353445D02*
G01*
X76551995Y-81364820D01*
X76586554Y-81383292D01*
X76616847Y-81408153D01*
X76641708Y-81438446D01*
X76660180Y-81473005D01*
X76671555Y-81510501D01*
X76676000Y-81555638D01*
X76676000Y-82294362D01*
X76671555Y-82339499D01*
X76660180Y-82376995D01*
X76641708Y-82411554D01*
X76616847Y-82441847D01*
X76586554Y-82466708D01*
X76551995Y-82485180D01*
X76514499Y-82496555D01*
X76469362Y-82501000D01*
X75830638Y-82501000D01*
X75785501Y-82496555D01*
X75748005Y-82485180D01*
X75713446Y-82466708D01*
X75683153Y-82441847D01*
X75658292Y-82411554D01*
X75639820Y-82376995D01*
X75628445Y-82339499D01*
X75624000Y-82294362D01*
X75624000Y-81555638D01*
X75628445Y-81510501D01*
X75639820Y-81473005D01*
X75658292Y-81438446D01*
X75683153Y-81408153D01*
X75713446Y-81383292D01*
X75748005Y-81364820D01*
X75785501Y-81353445D01*
X75830638Y-81349000D01*
X76469362Y-81349000D01*
X76514499Y-81353445D01*
X76514499Y-81353445D01*
G37*
G36*
X78264499Y-81353445D02*
G01*
X78301995Y-81364820D01*
X78336554Y-81383292D01*
X78366847Y-81408153D01*
X78391708Y-81438446D01*
X78410180Y-81473005D01*
X78421555Y-81510501D01*
X78426000Y-81555638D01*
X78426000Y-82294362D01*
X78421555Y-82339499D01*
X78410180Y-82376995D01*
X78391708Y-82411554D01*
X78366847Y-82441847D01*
X78336554Y-82466708D01*
X78301995Y-82485180D01*
X78264499Y-82496555D01*
X78219362Y-82501000D01*
X77580638Y-82501000D01*
X77535501Y-82496555D01*
X77498005Y-82485180D01*
X77463446Y-82466708D01*
X77433153Y-82441847D01*
X77408292Y-82411554D01*
X77389820Y-82376995D01*
X77378445Y-82339499D01*
X77374000Y-82294362D01*
X77374000Y-81555638D01*
X77378445Y-81510501D01*
X77389820Y-81473005D01*
X77408292Y-81438446D01*
X77433153Y-81408153D01*
X77463446Y-81383292D01*
X77498005Y-81364820D01*
X77535501Y-81353445D01*
X77580638Y-81349000D01*
X78219362Y-81349000D01*
X78264499Y-81353445D01*
X78264499Y-81353445D01*
G37*
G36*
X63214499Y-81353445D02*
G01*
X63251995Y-81364820D01*
X63286554Y-81383292D01*
X63316847Y-81408153D01*
X63341708Y-81438446D01*
X63360180Y-81473005D01*
X63371555Y-81510501D01*
X63376000Y-81555638D01*
X63376000Y-82294362D01*
X63371555Y-82339499D01*
X63360180Y-82376995D01*
X63341708Y-82411554D01*
X63316847Y-82441847D01*
X63286554Y-82466708D01*
X63251995Y-82485180D01*
X63214499Y-82496555D01*
X63169362Y-82501000D01*
X62530638Y-82501000D01*
X62485501Y-82496555D01*
X62448005Y-82485180D01*
X62413446Y-82466708D01*
X62383153Y-82441847D01*
X62358292Y-82411554D01*
X62339820Y-82376995D01*
X62328445Y-82339499D01*
X62324000Y-82294362D01*
X62324000Y-81555638D01*
X62328445Y-81510501D01*
X62339820Y-81473005D01*
X62358292Y-81438446D01*
X62383153Y-81408153D01*
X62413446Y-81383292D01*
X62448005Y-81364820D01*
X62485501Y-81353445D01*
X62530638Y-81349000D01*
X63169362Y-81349000D01*
X63214499Y-81353445D01*
X63214499Y-81353445D01*
G37*
G36*
X45414499Y-81303445D02*
G01*
X45451995Y-81314820D01*
X45486554Y-81333292D01*
X45516847Y-81358153D01*
X45541708Y-81388446D01*
X45560180Y-81423005D01*
X45571555Y-81460501D01*
X45576000Y-81505638D01*
X45576000Y-82244362D01*
X45571555Y-82289499D01*
X45560180Y-82326995D01*
X45541708Y-82361554D01*
X45516847Y-82391847D01*
X45486554Y-82416708D01*
X45451995Y-82435180D01*
X45414499Y-82446555D01*
X45369362Y-82451000D01*
X44730638Y-82451000D01*
X44685501Y-82446555D01*
X44648005Y-82435180D01*
X44613446Y-82416708D01*
X44583153Y-82391847D01*
X44558292Y-82361554D01*
X44539820Y-82326995D01*
X44528445Y-82289499D01*
X44524000Y-82244362D01*
X44524000Y-81505638D01*
X44528445Y-81460501D01*
X44539820Y-81423005D01*
X44558292Y-81388446D01*
X44583153Y-81358153D01*
X44613446Y-81333292D01*
X44648005Y-81314820D01*
X44685501Y-81303445D01*
X44730638Y-81299000D01*
X45369362Y-81299000D01*
X45414499Y-81303445D01*
X45414499Y-81303445D01*
G37*
G36*
X47164499Y-81303445D02*
G01*
X47201995Y-81314820D01*
X47236554Y-81333292D01*
X47266847Y-81358153D01*
X47291708Y-81388446D01*
X47310180Y-81423005D01*
X47321555Y-81460501D01*
X47326000Y-81505638D01*
X47326000Y-82244362D01*
X47321555Y-82289499D01*
X47310180Y-82326995D01*
X47291708Y-82361554D01*
X47266847Y-82391847D01*
X47236554Y-82416708D01*
X47201995Y-82435180D01*
X47164499Y-82446555D01*
X47119362Y-82451000D01*
X46480638Y-82451000D01*
X46435501Y-82446555D01*
X46398005Y-82435180D01*
X46363446Y-82416708D01*
X46333153Y-82391847D01*
X46308292Y-82361554D01*
X46289820Y-82326995D01*
X46278445Y-82289499D01*
X46274000Y-82244362D01*
X46274000Y-81505638D01*
X46278445Y-81460501D01*
X46289820Y-81423005D01*
X46308292Y-81388446D01*
X46333153Y-81358153D01*
X46363446Y-81333292D01*
X46398005Y-81314820D01*
X46435501Y-81303445D01*
X46480638Y-81299000D01*
X47119362Y-81299000D01*
X47164499Y-81303445D01*
X47164499Y-81303445D01*
G37*
G36*
X75001000Y-80821000D02*
G01*
X72699000Y-80821000D01*
X72699000Y-79519000D01*
X75001000Y-79519000D01*
X75001000Y-80821000D01*
X75001000Y-80821000D01*
G37*
G36*
X43901000Y-80821000D02*
G01*
X41599000Y-80821000D01*
X41599000Y-79519000D01*
X43901000Y-79519000D01*
X43901000Y-80821000D01*
X43901000Y-80821000D01*
G37*
G36*
X59951000Y-80821000D02*
G01*
X57649000Y-80821000D01*
X57649000Y-79519000D01*
X59951000Y-79519000D01*
X59951000Y-80821000D01*
X59951000Y-80821000D01*
G37*
G36*
X78264499Y-79603445D02*
G01*
X78301995Y-79614820D01*
X78336554Y-79633292D01*
X78366847Y-79658153D01*
X78391708Y-79688446D01*
X78410180Y-79723005D01*
X78421555Y-79760501D01*
X78426000Y-79805638D01*
X78426000Y-80544362D01*
X78421555Y-80589499D01*
X78410180Y-80626995D01*
X78391708Y-80661554D01*
X78366847Y-80691847D01*
X78336554Y-80716708D01*
X78301995Y-80735180D01*
X78264499Y-80746555D01*
X78219362Y-80751000D01*
X77580638Y-80751000D01*
X77535501Y-80746555D01*
X77498005Y-80735180D01*
X77463446Y-80716708D01*
X77433153Y-80691847D01*
X77408292Y-80661554D01*
X77389820Y-80626995D01*
X77378445Y-80589499D01*
X77374000Y-80544362D01*
X77374000Y-79805638D01*
X77378445Y-79760501D01*
X77389820Y-79723005D01*
X77408292Y-79688446D01*
X77433153Y-79658153D01*
X77463446Y-79633292D01*
X77498005Y-79614820D01*
X77535501Y-79603445D01*
X77580638Y-79599000D01*
X78219362Y-79599000D01*
X78264499Y-79603445D01*
X78264499Y-79603445D01*
G37*
G36*
X63214499Y-79603445D02*
G01*
X63251995Y-79614820D01*
X63286554Y-79633292D01*
X63316847Y-79658153D01*
X63341708Y-79688446D01*
X63360180Y-79723005D01*
X63371555Y-79760501D01*
X63376000Y-79805638D01*
X63376000Y-80544362D01*
X63371555Y-80589499D01*
X63360180Y-80626995D01*
X63341708Y-80661554D01*
X63316847Y-80691847D01*
X63286554Y-80716708D01*
X63251995Y-80735180D01*
X63214499Y-80746555D01*
X63169362Y-80751000D01*
X62530638Y-80751000D01*
X62485501Y-80746555D01*
X62448005Y-80735180D01*
X62413446Y-80716708D01*
X62383153Y-80691847D01*
X62358292Y-80661554D01*
X62339820Y-80626995D01*
X62328445Y-80589499D01*
X62324000Y-80544362D01*
X62324000Y-79805638D01*
X62328445Y-79760501D01*
X62339820Y-79723005D01*
X62358292Y-79688446D01*
X62383153Y-79658153D01*
X62413446Y-79633292D01*
X62448005Y-79614820D01*
X62485501Y-79603445D01*
X62530638Y-79599000D01*
X63169362Y-79599000D01*
X63214499Y-79603445D01*
X63214499Y-79603445D01*
G37*
G36*
X61464499Y-79603445D02*
G01*
X61501995Y-79614820D01*
X61536554Y-79633292D01*
X61566847Y-79658153D01*
X61591708Y-79688446D01*
X61610180Y-79723005D01*
X61621555Y-79760501D01*
X61626000Y-79805638D01*
X61626000Y-80544362D01*
X61621555Y-80589499D01*
X61610180Y-80626995D01*
X61591708Y-80661554D01*
X61566847Y-80691847D01*
X61536554Y-80716708D01*
X61501995Y-80735180D01*
X61464499Y-80746555D01*
X61419362Y-80751000D01*
X60780638Y-80751000D01*
X60735501Y-80746555D01*
X60698005Y-80735180D01*
X60663446Y-80716708D01*
X60633153Y-80691847D01*
X60608292Y-80661554D01*
X60589820Y-80626995D01*
X60578445Y-80589499D01*
X60574000Y-80544362D01*
X60574000Y-79805638D01*
X60578445Y-79760501D01*
X60589820Y-79723005D01*
X60608292Y-79688446D01*
X60633153Y-79658153D01*
X60663446Y-79633292D01*
X60698005Y-79614820D01*
X60735501Y-79603445D01*
X60780638Y-79599000D01*
X61419362Y-79599000D01*
X61464499Y-79603445D01*
X61464499Y-79603445D01*
G37*
G36*
X76514499Y-79603445D02*
G01*
X76551995Y-79614820D01*
X76586554Y-79633292D01*
X76616847Y-79658153D01*
X76641708Y-79688446D01*
X76660180Y-79723005D01*
X76671555Y-79760501D01*
X76676000Y-79805638D01*
X76676000Y-80544362D01*
X76671555Y-80589499D01*
X76660180Y-80626995D01*
X76641708Y-80661554D01*
X76616847Y-80691847D01*
X76586554Y-80716708D01*
X76551995Y-80735180D01*
X76514499Y-80746555D01*
X76469362Y-80751000D01*
X75830638Y-80751000D01*
X75785501Y-80746555D01*
X75748005Y-80735180D01*
X75713446Y-80716708D01*
X75683153Y-80691847D01*
X75658292Y-80661554D01*
X75639820Y-80626995D01*
X75628445Y-80589499D01*
X75624000Y-80544362D01*
X75624000Y-79805638D01*
X75628445Y-79760501D01*
X75639820Y-79723005D01*
X75658292Y-79688446D01*
X75683153Y-79658153D01*
X75713446Y-79633292D01*
X75748005Y-79614820D01*
X75785501Y-79603445D01*
X75830638Y-79599000D01*
X76469362Y-79599000D01*
X76514499Y-79603445D01*
X76514499Y-79603445D01*
G37*
G36*
X45414499Y-79553445D02*
G01*
X45451995Y-79564820D01*
X45486554Y-79583292D01*
X45516847Y-79608153D01*
X45541708Y-79638446D01*
X45560180Y-79673005D01*
X45571555Y-79710501D01*
X45576000Y-79755638D01*
X45576000Y-80494362D01*
X45571555Y-80539499D01*
X45560180Y-80576995D01*
X45541708Y-80611554D01*
X45516847Y-80641847D01*
X45486554Y-80666708D01*
X45451995Y-80685180D01*
X45414499Y-80696555D01*
X45369362Y-80701000D01*
X44730638Y-80701000D01*
X44685501Y-80696555D01*
X44648005Y-80685180D01*
X44613446Y-80666708D01*
X44583153Y-80641847D01*
X44558292Y-80611554D01*
X44539820Y-80576995D01*
X44528445Y-80539499D01*
X44524000Y-80494362D01*
X44524000Y-79755638D01*
X44528445Y-79710501D01*
X44539820Y-79673005D01*
X44558292Y-79638446D01*
X44583153Y-79608153D01*
X44613446Y-79583292D01*
X44648005Y-79564820D01*
X44685501Y-79553445D01*
X44730638Y-79549000D01*
X45369362Y-79549000D01*
X45414499Y-79553445D01*
X45414499Y-79553445D01*
G37*
G36*
X47164499Y-79553445D02*
G01*
X47201995Y-79564820D01*
X47236554Y-79583292D01*
X47266847Y-79608153D01*
X47291708Y-79638446D01*
X47310180Y-79673005D01*
X47321555Y-79710501D01*
X47326000Y-79755638D01*
X47326000Y-80494362D01*
X47321555Y-80539499D01*
X47310180Y-80576995D01*
X47291708Y-80611554D01*
X47266847Y-80641847D01*
X47236554Y-80666708D01*
X47201995Y-80685180D01*
X47164499Y-80696555D01*
X47119362Y-80701000D01*
X46480638Y-80701000D01*
X46435501Y-80696555D01*
X46398005Y-80685180D01*
X46363446Y-80666708D01*
X46333153Y-80641847D01*
X46308292Y-80611554D01*
X46289820Y-80576995D01*
X46278445Y-80539499D01*
X46274000Y-80494362D01*
X46274000Y-79755638D01*
X46278445Y-79710501D01*
X46289820Y-79673005D01*
X46308292Y-79638446D01*
X46333153Y-79608153D01*
X46363446Y-79583292D01*
X46398005Y-79564820D01*
X46435501Y-79553445D01*
X46480638Y-79549000D01*
X47119362Y-79549000D01*
X47164499Y-79553445D01*
X47164499Y-79553445D01*
G37*
G36*
X29286000Y-79351000D02*
G01*
X26434000Y-79351000D01*
X26434000Y-78249000D01*
X29286000Y-78249000D01*
X29286000Y-79351000D01*
X29286000Y-79351000D01*
G37*
G36*
X25026000Y-79351000D02*
G01*
X22174000Y-79351000D01*
X22174000Y-78249000D01*
X25026000Y-78249000D01*
X25026000Y-79351000D01*
X25026000Y-79351000D01*
G37*
G36*
X25890721Y-77270174D02*
G01*
X25990995Y-77311709D01*
X25990996Y-77311710D01*
X26081242Y-77372010D01*
X26157990Y-77448758D01*
X26157992Y-77448761D01*
X26157994Y-77448763D01*
X26205069Y-77519215D01*
X26215121Y-77531464D01*
X26215327Y-77531848D01*
X26259826Y-77639279D01*
X26281000Y-77745730D01*
X26281000Y-77854270D01*
X26259826Y-77960721D01*
X26215329Y-78068146D01*
X26215120Y-78068536D01*
X26205069Y-78080785D01*
X26157994Y-78151237D01*
X26157992Y-78151239D01*
X26157990Y-78151242D01*
X26081242Y-78227990D01*
X26049798Y-78249000D01*
X25990995Y-78288291D01*
X25890721Y-78329826D01*
X25784270Y-78351000D01*
X25675730Y-78351000D01*
X25569279Y-78329826D01*
X25469005Y-78288291D01*
X25410202Y-78249000D01*
X25378758Y-78227990D01*
X25302010Y-78151242D01*
X25302008Y-78151239D01*
X25302006Y-78151237D01*
X25254931Y-78080785D01*
X25244879Y-78068536D01*
X25244673Y-78068152D01*
X25200174Y-77960721D01*
X25179000Y-77854270D01*
X25179000Y-77745730D01*
X25200174Y-77639279D01*
X25244671Y-77531854D01*
X25244880Y-77531464D01*
X25254931Y-77519215D01*
X25302006Y-77448763D01*
X25302008Y-77448761D01*
X25302010Y-77448758D01*
X25378758Y-77372010D01*
X25469004Y-77311710D01*
X25469005Y-77311709D01*
X25569279Y-77270174D01*
X25675730Y-77249000D01*
X25784270Y-77249000D01*
X25890721Y-77270174D01*
X25890721Y-77270174D01*
G37*
G36*
X25026000Y-77351000D02*
G01*
X22174000Y-77351000D01*
X22174000Y-76249000D01*
X25026000Y-76249000D01*
X25026000Y-77351000D01*
X25026000Y-77351000D01*
G37*
G36*
X29286000Y-77351000D02*
G01*
X26434000Y-77351000D01*
X26434000Y-76249000D01*
X29286000Y-76249000D01*
X29286000Y-77351000D01*
X29286000Y-77351000D01*
G37*
G36*
X62768604Y-75928347D02*
G01*
X62805144Y-75939432D01*
X62838821Y-75957433D01*
X62868341Y-75981659D01*
X62892567Y-76011179D01*
X62910568Y-76044856D01*
X62921653Y-76081396D01*
X62926000Y-76125538D01*
X62926000Y-77074462D01*
X62921653Y-77118604D01*
X62910568Y-77155144D01*
X62892567Y-77188821D01*
X62868341Y-77218341D01*
X62838821Y-77242567D01*
X62805144Y-77260568D01*
X62768604Y-77271653D01*
X62724462Y-77276000D01*
X61275538Y-77276000D01*
X61231396Y-77271653D01*
X61194856Y-77260568D01*
X61161179Y-77242567D01*
X61131659Y-77218341D01*
X61107433Y-77188821D01*
X61089432Y-77155144D01*
X61078347Y-77118604D01*
X61074000Y-77074462D01*
X61074000Y-76125538D01*
X61078347Y-76081396D01*
X61089432Y-76044856D01*
X61107433Y-76011179D01*
X61131659Y-75981659D01*
X61161179Y-75957433D01*
X61194856Y-75939432D01*
X61231396Y-75928347D01*
X61275538Y-75924000D01*
X62724462Y-75924000D01*
X62768604Y-75928347D01*
X62768604Y-75928347D01*
G37*
G36*
X77968604Y-75928347D02*
G01*
X78005144Y-75939432D01*
X78038821Y-75957433D01*
X78068341Y-75981659D01*
X78092567Y-76011179D01*
X78110568Y-76044856D01*
X78121653Y-76081396D01*
X78126000Y-76125538D01*
X78126000Y-77074462D01*
X78121653Y-77118604D01*
X78110568Y-77155144D01*
X78092567Y-77188821D01*
X78068341Y-77218341D01*
X78038821Y-77242567D01*
X78005144Y-77260568D01*
X77968604Y-77271653D01*
X77924462Y-77276000D01*
X76475538Y-77276000D01*
X76431396Y-77271653D01*
X76394856Y-77260568D01*
X76361179Y-77242567D01*
X76331659Y-77218341D01*
X76307433Y-77188821D01*
X76289432Y-77155144D01*
X76278347Y-77118604D01*
X76274000Y-77074462D01*
X76274000Y-76125538D01*
X76278347Y-76081396D01*
X76289432Y-76044856D01*
X76307433Y-76011179D01*
X76331659Y-75981659D01*
X76361179Y-75957433D01*
X76394856Y-75939432D01*
X76431396Y-75928347D01*
X76475538Y-75924000D01*
X77924462Y-75924000D01*
X77968604Y-75928347D01*
X77968604Y-75928347D01*
G37*
G36*
X46768604Y-75928347D02*
G01*
X46805144Y-75939432D01*
X46838821Y-75957433D01*
X46868341Y-75981659D01*
X46892567Y-76011179D01*
X46910568Y-76044856D01*
X46921653Y-76081396D01*
X46926000Y-76125538D01*
X46926000Y-77074462D01*
X46921653Y-77118604D01*
X46910568Y-77155144D01*
X46892567Y-77188821D01*
X46868341Y-77218341D01*
X46838821Y-77242567D01*
X46805144Y-77260568D01*
X46768604Y-77271653D01*
X46724462Y-77276000D01*
X45275538Y-77276000D01*
X45231396Y-77271653D01*
X45194856Y-77260568D01*
X45161179Y-77242567D01*
X45131659Y-77218341D01*
X45107433Y-77188821D01*
X45089432Y-77155144D01*
X45078347Y-77118604D01*
X45074000Y-77074462D01*
X45074000Y-76125538D01*
X45078347Y-76081396D01*
X45089432Y-76044856D01*
X45107433Y-76011179D01*
X45131659Y-75981659D01*
X45161179Y-75957433D01*
X45194856Y-75939432D01*
X45231396Y-75928347D01*
X45275538Y-75924000D01*
X46724462Y-75924000D01*
X46768604Y-75928347D01*
X46768604Y-75928347D01*
G37*
G36*
X53185170Y-76525803D02*
G01*
X53196877Y-76529355D01*
X53216077Y-76539617D01*
X53238716Y-76548994D01*
X53262749Y-76553774D01*
X53287253Y-76553774D01*
X53311286Y-76548993D01*
X53333923Y-76539617D01*
X53353123Y-76529355D01*
X53364830Y-76525803D01*
X53383138Y-76524000D01*
X53806862Y-76524000D01*
X53825170Y-76525803D01*
X53836875Y-76529354D01*
X53847665Y-76535121D01*
X53857119Y-76542881D01*
X53864879Y-76552335D01*
X53870646Y-76563125D01*
X53874197Y-76574830D01*
X53876000Y-76593138D01*
X53876000Y-76956862D01*
X53874197Y-76975170D01*
X53870646Y-76986875D01*
X53864879Y-76997665D01*
X53857119Y-77007119D01*
X53847665Y-77014879D01*
X53836875Y-77020646D01*
X53825170Y-77024197D01*
X53806862Y-77026000D01*
X53383138Y-77026000D01*
X53364830Y-77024197D01*
X53353123Y-77020645D01*
X53333923Y-77010383D01*
X53311284Y-77001006D01*
X53287251Y-76996226D01*
X53262747Y-76996226D01*
X53238714Y-77001007D01*
X53216077Y-77010383D01*
X53196877Y-77020645D01*
X53185170Y-77024197D01*
X53166862Y-77026000D01*
X52743138Y-77026000D01*
X52724830Y-77024197D01*
X52713125Y-77020646D01*
X52702335Y-77014879D01*
X52692881Y-77007119D01*
X52685121Y-76997665D01*
X52679354Y-76986875D01*
X52675803Y-76975170D01*
X52674000Y-76956862D01*
X52674000Y-76593138D01*
X52675803Y-76574830D01*
X52679354Y-76563125D01*
X52685121Y-76552335D01*
X52692881Y-76542881D01*
X52702335Y-76535121D01*
X52713125Y-76529354D01*
X52724830Y-76525803D01*
X52743138Y-76524000D01*
X53166862Y-76524000D01*
X53185170Y-76525803D01*
X53185170Y-76525803D01*
G37*
G36*
X70801000Y-75401000D02*
G01*
X64299000Y-75401000D01*
X64299000Y-69499000D01*
X70801000Y-69499000D01*
X70801000Y-75401000D01*
X70801000Y-75401000D01*
G37*
G36*
X55751000Y-75401000D02*
G01*
X49249000Y-75401000D01*
X49249000Y-69499000D01*
X55751000Y-69499000D01*
X55751000Y-75401000D01*
X55751000Y-75401000D01*
G37*
G36*
X39701000Y-75401000D02*
G01*
X33199000Y-75401000D01*
X33199000Y-69499000D01*
X39701000Y-69499000D01*
X39701000Y-75401000D01*
X39701000Y-75401000D01*
G37*
G36*
X59951000Y-75381000D02*
G01*
X57649000Y-75381000D01*
X57649000Y-74079000D01*
X59951000Y-74079000D01*
X59951000Y-75381000D01*
X59951000Y-75381000D01*
G37*
G36*
X75001000Y-75381000D02*
G01*
X72699000Y-75381000D01*
X72699000Y-74079000D01*
X75001000Y-74079000D01*
X75001000Y-75381000D01*
X75001000Y-75381000D01*
G37*
G36*
X43901000Y-75381000D02*
G01*
X41599000Y-75381000D01*
X41599000Y-74079000D01*
X43901000Y-74079000D01*
X43901000Y-75381000D01*
X43901000Y-75381000D01*
G37*
G36*
X25026000Y-75351000D02*
G01*
X22174000Y-75351000D01*
X22174000Y-74249000D01*
X25026000Y-74249000D01*
X25026000Y-75351000D01*
X25026000Y-75351000D01*
G37*
G36*
X29286000Y-75351000D02*
G01*
X26434000Y-75351000D01*
X26434000Y-74249000D01*
X29286000Y-74249000D01*
X29286000Y-75351000D01*
X29286000Y-75351000D01*
G37*
G36*
X46768604Y-73128347D02*
G01*
X46805144Y-73139432D01*
X46838821Y-73157433D01*
X46868341Y-73181659D01*
X46892567Y-73211179D01*
X46910568Y-73244856D01*
X46921653Y-73281396D01*
X46926000Y-73325538D01*
X46926000Y-74274462D01*
X46921653Y-74318604D01*
X46910568Y-74355144D01*
X46892567Y-74388821D01*
X46868341Y-74418341D01*
X46838821Y-74442567D01*
X46805144Y-74460568D01*
X46768604Y-74471653D01*
X46724462Y-74476000D01*
X45275538Y-74476000D01*
X45231396Y-74471653D01*
X45194856Y-74460568D01*
X45161179Y-74442567D01*
X45131659Y-74418341D01*
X45107433Y-74388821D01*
X45089432Y-74355144D01*
X45078347Y-74318604D01*
X45074000Y-74274462D01*
X45074000Y-73325538D01*
X45078347Y-73281396D01*
X45089432Y-73244856D01*
X45107433Y-73211179D01*
X45131659Y-73181659D01*
X45161179Y-73157433D01*
X45194856Y-73139432D01*
X45231396Y-73128347D01*
X45275538Y-73124000D01*
X46724462Y-73124000D01*
X46768604Y-73128347D01*
X46768604Y-73128347D01*
G37*
G36*
X62768604Y-73128347D02*
G01*
X62805144Y-73139432D01*
X62838821Y-73157433D01*
X62868341Y-73181659D01*
X62892567Y-73211179D01*
X62910568Y-73244856D01*
X62921653Y-73281396D01*
X62926000Y-73325538D01*
X62926000Y-74274462D01*
X62921653Y-74318604D01*
X62910568Y-74355144D01*
X62892567Y-74388821D01*
X62868341Y-74418341D01*
X62838821Y-74442567D01*
X62805144Y-74460568D01*
X62768604Y-74471653D01*
X62724462Y-74476000D01*
X61275538Y-74476000D01*
X61231396Y-74471653D01*
X61194856Y-74460568D01*
X61161179Y-74442567D01*
X61131659Y-74418341D01*
X61107433Y-74388821D01*
X61089432Y-74355144D01*
X61078347Y-74318604D01*
X61074000Y-74274462D01*
X61074000Y-73325538D01*
X61078347Y-73281396D01*
X61089432Y-73244856D01*
X61107433Y-73211179D01*
X61131659Y-73181659D01*
X61161179Y-73157433D01*
X61194856Y-73139432D01*
X61231396Y-73128347D01*
X61275538Y-73124000D01*
X62724462Y-73124000D01*
X62768604Y-73128347D01*
X62768604Y-73128347D01*
G37*
G36*
X77968604Y-73128347D02*
G01*
X78005144Y-73139432D01*
X78038821Y-73157433D01*
X78068341Y-73181659D01*
X78092567Y-73211179D01*
X78110568Y-73244856D01*
X78121653Y-73281396D01*
X78126000Y-73325538D01*
X78126000Y-74274462D01*
X78121653Y-74318604D01*
X78110568Y-74355144D01*
X78092567Y-74388821D01*
X78068341Y-74418341D01*
X78038821Y-74442567D01*
X78005144Y-74460568D01*
X77968604Y-74471653D01*
X77924462Y-74476000D01*
X76475538Y-74476000D01*
X76431396Y-74471653D01*
X76394856Y-74460568D01*
X76361179Y-74442567D01*
X76331659Y-74418341D01*
X76307433Y-74388821D01*
X76289432Y-74355144D01*
X76278347Y-74318604D01*
X76274000Y-74274462D01*
X76274000Y-73325538D01*
X76278347Y-73281396D01*
X76289432Y-73244856D01*
X76307433Y-73211179D01*
X76331659Y-73181659D01*
X76361179Y-73157433D01*
X76394856Y-73139432D01*
X76431396Y-73128347D01*
X76475538Y-73124000D01*
X77924462Y-73124000D01*
X77968604Y-73128347D01*
X77968604Y-73128347D01*
G37*
G36*
X29286000Y-73351000D02*
G01*
X26434000Y-73351000D01*
X26434000Y-72249000D01*
X29286000Y-72249000D01*
X29286000Y-73351000D01*
X29286000Y-73351000D01*
G37*
G36*
X25026000Y-73351000D02*
G01*
X22174000Y-73351000D01*
X22174000Y-72249000D01*
X25026000Y-72249000D01*
X25026000Y-73351000D01*
X25026000Y-73351000D01*
G37*
G36*
X63214499Y-71353445D02*
G01*
X63251995Y-71364820D01*
X63286554Y-71383292D01*
X63316847Y-71408153D01*
X63341708Y-71438446D01*
X63360180Y-71473005D01*
X63371555Y-71510501D01*
X63376000Y-71555638D01*
X63376000Y-72294362D01*
X63371555Y-72339499D01*
X63360180Y-72376995D01*
X63341708Y-72411554D01*
X63316847Y-72441847D01*
X63286554Y-72466708D01*
X63251995Y-72485180D01*
X63214499Y-72496555D01*
X63169362Y-72501000D01*
X62530638Y-72501000D01*
X62485501Y-72496555D01*
X62448005Y-72485180D01*
X62413446Y-72466708D01*
X62383153Y-72441847D01*
X62358292Y-72411554D01*
X62339820Y-72376995D01*
X62328445Y-72339499D01*
X62324000Y-72294362D01*
X62324000Y-71555638D01*
X62328445Y-71510501D01*
X62339820Y-71473005D01*
X62358292Y-71438446D01*
X62383153Y-71408153D01*
X62413446Y-71383292D01*
X62448005Y-71364820D01*
X62485501Y-71353445D01*
X62530638Y-71349000D01*
X63169362Y-71349000D01*
X63214499Y-71353445D01*
X63214499Y-71353445D01*
G37*
G36*
X61464499Y-71353445D02*
G01*
X61501995Y-71364820D01*
X61536554Y-71383292D01*
X61566847Y-71408153D01*
X61591708Y-71438446D01*
X61610180Y-71473005D01*
X61621555Y-71510501D01*
X61626000Y-71555638D01*
X61626000Y-72294362D01*
X61621555Y-72339499D01*
X61610180Y-72376995D01*
X61591708Y-72411554D01*
X61566847Y-72441847D01*
X61536554Y-72466708D01*
X61501995Y-72485180D01*
X61464499Y-72496555D01*
X61419362Y-72501000D01*
X60780638Y-72501000D01*
X60735501Y-72496555D01*
X60698005Y-72485180D01*
X60663446Y-72466708D01*
X60633153Y-72441847D01*
X60608292Y-72411554D01*
X60589820Y-72376995D01*
X60578445Y-72339499D01*
X60574000Y-72294362D01*
X60574000Y-71555638D01*
X60578445Y-71510501D01*
X60589820Y-71473005D01*
X60608292Y-71438446D01*
X60633153Y-71408153D01*
X60663446Y-71383292D01*
X60698005Y-71364820D01*
X60735501Y-71353445D01*
X60780638Y-71349000D01*
X61419362Y-71349000D01*
X61464499Y-71353445D01*
X61464499Y-71353445D01*
G37*
G36*
X78264499Y-71353445D02*
G01*
X78301995Y-71364820D01*
X78336554Y-71383292D01*
X78366847Y-71408153D01*
X78391708Y-71438446D01*
X78410180Y-71473005D01*
X78421555Y-71510501D01*
X78426000Y-71555638D01*
X78426000Y-72294362D01*
X78421555Y-72339499D01*
X78410180Y-72376995D01*
X78391708Y-72411554D01*
X78366847Y-72441847D01*
X78336554Y-72466708D01*
X78301995Y-72485180D01*
X78264499Y-72496555D01*
X78219362Y-72501000D01*
X77580638Y-72501000D01*
X77535501Y-72496555D01*
X77498005Y-72485180D01*
X77463446Y-72466708D01*
X77433153Y-72441847D01*
X77408292Y-72411554D01*
X77389820Y-72376995D01*
X77378445Y-72339499D01*
X77374000Y-72294362D01*
X77374000Y-71555638D01*
X77378445Y-71510501D01*
X77389820Y-71473005D01*
X77408292Y-71438446D01*
X77433153Y-71408153D01*
X77463446Y-71383292D01*
X77498005Y-71364820D01*
X77535501Y-71353445D01*
X77580638Y-71349000D01*
X78219362Y-71349000D01*
X78264499Y-71353445D01*
X78264499Y-71353445D01*
G37*
G36*
X76514499Y-71353445D02*
G01*
X76551995Y-71364820D01*
X76586554Y-71383292D01*
X76616847Y-71408153D01*
X76641708Y-71438446D01*
X76660180Y-71473005D01*
X76671555Y-71510501D01*
X76676000Y-71555638D01*
X76676000Y-72294362D01*
X76671555Y-72339499D01*
X76660180Y-72376995D01*
X76641708Y-72411554D01*
X76616847Y-72441847D01*
X76586554Y-72466708D01*
X76551995Y-72485180D01*
X76514499Y-72496555D01*
X76469362Y-72501000D01*
X75830638Y-72501000D01*
X75785501Y-72496555D01*
X75748005Y-72485180D01*
X75713446Y-72466708D01*
X75683153Y-72441847D01*
X75658292Y-72411554D01*
X75639820Y-72376995D01*
X75628445Y-72339499D01*
X75624000Y-72294362D01*
X75624000Y-71555638D01*
X75628445Y-71510501D01*
X75639820Y-71473005D01*
X75658292Y-71438446D01*
X75683153Y-71408153D01*
X75713446Y-71383292D01*
X75748005Y-71364820D01*
X75785501Y-71353445D01*
X75830638Y-71349000D01*
X76469362Y-71349000D01*
X76514499Y-71353445D01*
X76514499Y-71353445D01*
G37*
G36*
X47164499Y-71303445D02*
G01*
X47201995Y-71314820D01*
X47236554Y-71333292D01*
X47266847Y-71358153D01*
X47291708Y-71388446D01*
X47310180Y-71423005D01*
X47321555Y-71460501D01*
X47326000Y-71505638D01*
X47326000Y-72244362D01*
X47321555Y-72289499D01*
X47310180Y-72326995D01*
X47291708Y-72361554D01*
X47266847Y-72391847D01*
X47236554Y-72416708D01*
X47201995Y-72435180D01*
X47164499Y-72446555D01*
X47119362Y-72451000D01*
X46480638Y-72451000D01*
X46435501Y-72446555D01*
X46398005Y-72435180D01*
X46363446Y-72416708D01*
X46333153Y-72391847D01*
X46308292Y-72361554D01*
X46289820Y-72326995D01*
X46278445Y-72289499D01*
X46274000Y-72244362D01*
X46274000Y-71505638D01*
X46278445Y-71460501D01*
X46289820Y-71423005D01*
X46308292Y-71388446D01*
X46333153Y-71358153D01*
X46363446Y-71333292D01*
X46398005Y-71314820D01*
X46435501Y-71303445D01*
X46480638Y-71299000D01*
X47119362Y-71299000D01*
X47164499Y-71303445D01*
X47164499Y-71303445D01*
G37*
G36*
X45414499Y-71303445D02*
G01*
X45451995Y-71314820D01*
X45486554Y-71333292D01*
X45516847Y-71358153D01*
X45541708Y-71388446D01*
X45560180Y-71423005D01*
X45571555Y-71460501D01*
X45576000Y-71505638D01*
X45576000Y-72244362D01*
X45571555Y-72289499D01*
X45560180Y-72326995D01*
X45541708Y-72361554D01*
X45516847Y-72391847D01*
X45486554Y-72416708D01*
X45451995Y-72435180D01*
X45414499Y-72446555D01*
X45369362Y-72451000D01*
X44730638Y-72451000D01*
X44685501Y-72446555D01*
X44648005Y-72435180D01*
X44613446Y-72416708D01*
X44583153Y-72391847D01*
X44558292Y-72361554D01*
X44539820Y-72326995D01*
X44528445Y-72289499D01*
X44524000Y-72244362D01*
X44524000Y-71505638D01*
X44528445Y-71460501D01*
X44539820Y-71423005D01*
X44558292Y-71388446D01*
X44583153Y-71358153D01*
X44613446Y-71333292D01*
X44648005Y-71314820D01*
X44685501Y-71303445D01*
X44730638Y-71299000D01*
X45369362Y-71299000D01*
X45414499Y-71303445D01*
X45414499Y-71303445D01*
G37*
G36*
X25026000Y-71351000D02*
G01*
X22174000Y-71351000D01*
X22174000Y-70249000D01*
X25026000Y-70249000D01*
X25026000Y-71351000D01*
X25026000Y-71351000D01*
G37*
G36*
X29286000Y-71351000D02*
G01*
X26434000Y-71351000D01*
X26434000Y-70249000D01*
X29286000Y-70249000D01*
X29286000Y-71351000D01*
X29286000Y-71351000D01*
G37*
G36*
X43901000Y-70821000D02*
G01*
X41599000Y-70821000D01*
X41599000Y-69519000D01*
X43901000Y-69519000D01*
X43901000Y-70821000D01*
X43901000Y-70821000D01*
G37*
G36*
X75001000Y-70821000D02*
G01*
X72699000Y-70821000D01*
X72699000Y-69519000D01*
X75001000Y-69519000D01*
X75001000Y-70821000D01*
X75001000Y-70821000D01*
G37*
G36*
X59951000Y-70821000D02*
G01*
X57649000Y-70821000D01*
X57649000Y-69519000D01*
X59951000Y-69519000D01*
X59951000Y-70821000D01*
X59951000Y-70821000D01*
G37*
G36*
X63214499Y-69603445D02*
G01*
X63251995Y-69614820D01*
X63286554Y-69633292D01*
X63316847Y-69658153D01*
X63341708Y-69688446D01*
X63360180Y-69723005D01*
X63371555Y-69760501D01*
X63376000Y-69805638D01*
X63376000Y-70544362D01*
X63371555Y-70589499D01*
X63360180Y-70626995D01*
X63341708Y-70661554D01*
X63316847Y-70691847D01*
X63286554Y-70716708D01*
X63251995Y-70735180D01*
X63214499Y-70746555D01*
X63169362Y-70751000D01*
X62530638Y-70751000D01*
X62485501Y-70746555D01*
X62448005Y-70735180D01*
X62413446Y-70716708D01*
X62383153Y-70691847D01*
X62358292Y-70661554D01*
X62339820Y-70626995D01*
X62328445Y-70589499D01*
X62324000Y-70544362D01*
X62324000Y-69805638D01*
X62328445Y-69760501D01*
X62339820Y-69723005D01*
X62358292Y-69688446D01*
X62383153Y-69658153D01*
X62413446Y-69633292D01*
X62448005Y-69614820D01*
X62485501Y-69603445D01*
X62530638Y-69599000D01*
X63169362Y-69599000D01*
X63214499Y-69603445D01*
X63214499Y-69603445D01*
G37*
G36*
X78264499Y-69603445D02*
G01*
X78301995Y-69614820D01*
X78336554Y-69633292D01*
X78366847Y-69658153D01*
X78391708Y-69688446D01*
X78410180Y-69723005D01*
X78421555Y-69760501D01*
X78426000Y-69805638D01*
X78426000Y-70544362D01*
X78421555Y-70589499D01*
X78410180Y-70626995D01*
X78391708Y-70661554D01*
X78366847Y-70691847D01*
X78336554Y-70716708D01*
X78301995Y-70735180D01*
X78264499Y-70746555D01*
X78219362Y-70751000D01*
X77580638Y-70751000D01*
X77535501Y-70746555D01*
X77498005Y-70735180D01*
X77463446Y-70716708D01*
X77433153Y-70691847D01*
X77408292Y-70661554D01*
X77389820Y-70626995D01*
X77378445Y-70589499D01*
X77374000Y-70544362D01*
X77374000Y-69805638D01*
X77378445Y-69760501D01*
X77389820Y-69723005D01*
X77408292Y-69688446D01*
X77433153Y-69658153D01*
X77463446Y-69633292D01*
X77498005Y-69614820D01*
X77535501Y-69603445D01*
X77580638Y-69599000D01*
X78219362Y-69599000D01*
X78264499Y-69603445D01*
X78264499Y-69603445D01*
G37*
G36*
X76514499Y-69603445D02*
G01*
X76551995Y-69614820D01*
X76586554Y-69633292D01*
X76616847Y-69658153D01*
X76641708Y-69688446D01*
X76660180Y-69723005D01*
X76671555Y-69760501D01*
X76676000Y-69805638D01*
X76676000Y-70544362D01*
X76671555Y-70589499D01*
X76660180Y-70626995D01*
X76641708Y-70661554D01*
X76616847Y-70691847D01*
X76586554Y-70716708D01*
X76551995Y-70735180D01*
X76514499Y-70746555D01*
X76469362Y-70751000D01*
X75830638Y-70751000D01*
X75785501Y-70746555D01*
X75748005Y-70735180D01*
X75713446Y-70716708D01*
X75683153Y-70691847D01*
X75658292Y-70661554D01*
X75639820Y-70626995D01*
X75628445Y-70589499D01*
X75624000Y-70544362D01*
X75624000Y-69805638D01*
X75628445Y-69760501D01*
X75639820Y-69723005D01*
X75658292Y-69688446D01*
X75683153Y-69658153D01*
X75713446Y-69633292D01*
X75748005Y-69614820D01*
X75785501Y-69603445D01*
X75830638Y-69599000D01*
X76469362Y-69599000D01*
X76514499Y-69603445D01*
X76514499Y-69603445D01*
G37*
G36*
X61464499Y-69603445D02*
G01*
X61501995Y-69614820D01*
X61536554Y-69633292D01*
X61566847Y-69658153D01*
X61591708Y-69688446D01*
X61610180Y-69723005D01*
X61621555Y-69760501D01*
X61626000Y-69805638D01*
X61626000Y-70544362D01*
X61621555Y-70589499D01*
X61610180Y-70626995D01*
X61591708Y-70661554D01*
X61566847Y-70691847D01*
X61536554Y-70716708D01*
X61501995Y-70735180D01*
X61464499Y-70746555D01*
X61419362Y-70751000D01*
X60780638Y-70751000D01*
X60735501Y-70746555D01*
X60698005Y-70735180D01*
X60663446Y-70716708D01*
X60633153Y-70691847D01*
X60608292Y-70661554D01*
X60589820Y-70626995D01*
X60578445Y-70589499D01*
X60574000Y-70544362D01*
X60574000Y-69805638D01*
X60578445Y-69760501D01*
X60589820Y-69723005D01*
X60608292Y-69688446D01*
X60633153Y-69658153D01*
X60663446Y-69633292D01*
X60698005Y-69614820D01*
X60735501Y-69603445D01*
X60780638Y-69599000D01*
X61419362Y-69599000D01*
X61464499Y-69603445D01*
X61464499Y-69603445D01*
G37*
G36*
X45414499Y-69553445D02*
G01*
X45451995Y-69564820D01*
X45486554Y-69583292D01*
X45516847Y-69608153D01*
X45541708Y-69638446D01*
X45560180Y-69673005D01*
X45571555Y-69710501D01*
X45576000Y-69755638D01*
X45576000Y-70494362D01*
X45571555Y-70539499D01*
X45560180Y-70576995D01*
X45541708Y-70611554D01*
X45516847Y-70641847D01*
X45486554Y-70666708D01*
X45451995Y-70685180D01*
X45414499Y-70696555D01*
X45369362Y-70701000D01*
X44730638Y-70701000D01*
X44685501Y-70696555D01*
X44648005Y-70685180D01*
X44613446Y-70666708D01*
X44583153Y-70641847D01*
X44558292Y-70611554D01*
X44539820Y-70576995D01*
X44528445Y-70539499D01*
X44524000Y-70494362D01*
X44524000Y-69755638D01*
X44528445Y-69710501D01*
X44539820Y-69673005D01*
X44558292Y-69638446D01*
X44583153Y-69608153D01*
X44613446Y-69583292D01*
X44648005Y-69564820D01*
X44685501Y-69553445D01*
X44730638Y-69549000D01*
X45369362Y-69549000D01*
X45414499Y-69553445D01*
X45414499Y-69553445D01*
G37*
G36*
X47164499Y-69553445D02*
G01*
X47201995Y-69564820D01*
X47236554Y-69583292D01*
X47266847Y-69608153D01*
X47291708Y-69638446D01*
X47310180Y-69673005D01*
X47321555Y-69710501D01*
X47326000Y-69755638D01*
X47326000Y-70494362D01*
X47321555Y-70539499D01*
X47310180Y-70576995D01*
X47291708Y-70611554D01*
X47266847Y-70641847D01*
X47236554Y-70666708D01*
X47201995Y-70685180D01*
X47164499Y-70696555D01*
X47119362Y-70701000D01*
X46480638Y-70701000D01*
X46435501Y-70696555D01*
X46398005Y-70685180D01*
X46363446Y-70666708D01*
X46333153Y-70641847D01*
X46308292Y-70611554D01*
X46289820Y-70576995D01*
X46278445Y-70539499D01*
X46274000Y-70494362D01*
X46274000Y-69755638D01*
X46278445Y-69710501D01*
X46289820Y-69673005D01*
X46308292Y-69638446D01*
X46333153Y-69608153D01*
X46363446Y-69583292D01*
X46398005Y-69564820D01*
X46435501Y-69553445D01*
X46480638Y-69549000D01*
X47119362Y-69549000D01*
X47164499Y-69553445D01*
X47164499Y-69553445D01*
G37*
G36*
X29286000Y-69351000D02*
G01*
X26434000Y-69351000D01*
X26434000Y-68249000D01*
X29286000Y-68249000D01*
X29286000Y-69351000D01*
X29286000Y-69351000D01*
G37*
G36*
X25026000Y-69351000D02*
G01*
X22174000Y-69351000D01*
X22174000Y-68249000D01*
X25026000Y-68249000D01*
X25026000Y-69351000D01*
X25026000Y-69351000D01*
G37*
G36*
X25890721Y-67270174D02*
G01*
X25990995Y-67311709D01*
X25990996Y-67311710D01*
X26081242Y-67372010D01*
X26157990Y-67448758D01*
X26157992Y-67448761D01*
X26157994Y-67448763D01*
X26205069Y-67519215D01*
X26215121Y-67531464D01*
X26215327Y-67531848D01*
X26259826Y-67639279D01*
X26281000Y-67745730D01*
X26281000Y-67854270D01*
X26259826Y-67960721D01*
X26215329Y-68068146D01*
X26215120Y-68068536D01*
X26205069Y-68080785D01*
X26157994Y-68151237D01*
X26157992Y-68151239D01*
X26157990Y-68151242D01*
X26081242Y-68227990D01*
X26049798Y-68249000D01*
X25990995Y-68288291D01*
X25890721Y-68329826D01*
X25784270Y-68351000D01*
X25675730Y-68351000D01*
X25569279Y-68329826D01*
X25469005Y-68288291D01*
X25410202Y-68249000D01*
X25378758Y-68227990D01*
X25302010Y-68151242D01*
X25302008Y-68151239D01*
X25302006Y-68151237D01*
X25254931Y-68080785D01*
X25244879Y-68068536D01*
X25244673Y-68068152D01*
X25200174Y-67960721D01*
X25179000Y-67854270D01*
X25179000Y-67745730D01*
X25200174Y-67639279D01*
X25244671Y-67531854D01*
X25244880Y-67531464D01*
X25254931Y-67519215D01*
X25302006Y-67448763D01*
X25302008Y-67448761D01*
X25302010Y-67448758D01*
X25378758Y-67372010D01*
X25469004Y-67311710D01*
X25469005Y-67311709D01*
X25569279Y-67270174D01*
X25675730Y-67249000D01*
X25784270Y-67249000D01*
X25890721Y-67270174D01*
X25890721Y-67270174D01*
G37*
G36*
X29286000Y-67351000D02*
G01*
X26434000Y-67351000D01*
X26434000Y-66249000D01*
X29286000Y-66249000D01*
X29286000Y-67351000D01*
X29286000Y-67351000D01*
G37*
G36*
X25026000Y-67351000D02*
G01*
X22174000Y-67351000D01*
X22174000Y-66249000D01*
X25026000Y-66249000D01*
X25026000Y-67351000D01*
X25026000Y-67351000D01*
G37*
G36*
X62768604Y-65928347D02*
G01*
X62805144Y-65939432D01*
X62838821Y-65957433D01*
X62868341Y-65981659D01*
X62892567Y-66011179D01*
X62910568Y-66044856D01*
X62921653Y-66081396D01*
X62926000Y-66125538D01*
X62926000Y-67074462D01*
X62921653Y-67118604D01*
X62910568Y-67155144D01*
X62892567Y-67188821D01*
X62868341Y-67218341D01*
X62838821Y-67242567D01*
X62805144Y-67260568D01*
X62768604Y-67271653D01*
X62724462Y-67276000D01*
X61275538Y-67276000D01*
X61231396Y-67271653D01*
X61194856Y-67260568D01*
X61161179Y-67242567D01*
X61131659Y-67218341D01*
X61107433Y-67188821D01*
X61089432Y-67155144D01*
X61078347Y-67118604D01*
X61074000Y-67074462D01*
X61074000Y-66125538D01*
X61078347Y-66081396D01*
X61089432Y-66044856D01*
X61107433Y-66011179D01*
X61131659Y-65981659D01*
X61161179Y-65957433D01*
X61194856Y-65939432D01*
X61231396Y-65928347D01*
X61275538Y-65924000D01*
X62724462Y-65924000D01*
X62768604Y-65928347D01*
X62768604Y-65928347D01*
G37*
G36*
X77768604Y-65928347D02*
G01*
X77805144Y-65939432D01*
X77838821Y-65957433D01*
X77868341Y-65981659D01*
X77892567Y-66011179D01*
X77910568Y-66044856D01*
X77921653Y-66081396D01*
X77926000Y-66125538D01*
X77926000Y-67074462D01*
X77921653Y-67118604D01*
X77910568Y-67155144D01*
X77892567Y-67188821D01*
X77868341Y-67218341D01*
X77838821Y-67242567D01*
X77805144Y-67260568D01*
X77768604Y-67271653D01*
X77724462Y-67276000D01*
X76275538Y-67276000D01*
X76231396Y-67271653D01*
X76194856Y-67260568D01*
X76161179Y-67242567D01*
X76131659Y-67218341D01*
X76107433Y-67188821D01*
X76089432Y-67155144D01*
X76078347Y-67118604D01*
X76074000Y-67074462D01*
X76074000Y-66125538D01*
X76078347Y-66081396D01*
X76089432Y-66044856D01*
X76107433Y-66011179D01*
X76131659Y-65981659D01*
X76161179Y-65957433D01*
X76194856Y-65939432D01*
X76231396Y-65928347D01*
X76275538Y-65924000D01*
X77724462Y-65924000D01*
X77768604Y-65928347D01*
X77768604Y-65928347D01*
G37*
G36*
X46768604Y-65928347D02*
G01*
X46805144Y-65939432D01*
X46838821Y-65957433D01*
X46868341Y-65981659D01*
X46892567Y-66011179D01*
X46910568Y-66044856D01*
X46921653Y-66081396D01*
X46926000Y-66125538D01*
X46926000Y-67074462D01*
X46921653Y-67118604D01*
X46910568Y-67155144D01*
X46892567Y-67188821D01*
X46868341Y-67218341D01*
X46838821Y-67242567D01*
X46805144Y-67260568D01*
X46768604Y-67271653D01*
X46724462Y-67276000D01*
X45275538Y-67276000D01*
X45231396Y-67271653D01*
X45194856Y-67260568D01*
X45161179Y-67242567D01*
X45131659Y-67218341D01*
X45107433Y-67188821D01*
X45089432Y-67155144D01*
X45078347Y-67118604D01*
X45074000Y-67074462D01*
X45074000Y-66125538D01*
X45078347Y-66081396D01*
X45089432Y-66044856D01*
X45107433Y-66011179D01*
X45131659Y-65981659D01*
X45161179Y-65957433D01*
X45194856Y-65939432D01*
X45231396Y-65928347D01*
X45275538Y-65924000D01*
X46724462Y-65924000D01*
X46768604Y-65928347D01*
X46768604Y-65928347D01*
G37*
G36*
X55751000Y-65401000D02*
G01*
X49249000Y-65401000D01*
X49249000Y-59499000D01*
X55751000Y-59499000D01*
X55751000Y-65401000D01*
X55751000Y-65401000D01*
G37*
G36*
X39701000Y-65401000D02*
G01*
X33199000Y-65401000D01*
X33199000Y-59499000D01*
X39701000Y-59499000D01*
X39701000Y-65401000D01*
X39701000Y-65401000D01*
G37*
G36*
X70801000Y-65401000D02*
G01*
X64299000Y-65401000D01*
X64299000Y-59499000D01*
X70801000Y-59499000D01*
X70801000Y-65401000D01*
X70801000Y-65401000D01*
G37*
G36*
X59951000Y-65381000D02*
G01*
X57649000Y-65381000D01*
X57649000Y-64079000D01*
X59951000Y-64079000D01*
X59951000Y-65381000D01*
X59951000Y-65381000D01*
G37*
G36*
X43901000Y-65381000D02*
G01*
X41599000Y-65381000D01*
X41599000Y-64079000D01*
X43901000Y-64079000D01*
X43901000Y-65381000D01*
X43901000Y-65381000D01*
G37*
G36*
X75001000Y-65381000D02*
G01*
X72699000Y-65381000D01*
X72699000Y-64079000D01*
X75001000Y-64079000D01*
X75001000Y-65381000D01*
X75001000Y-65381000D01*
G37*
G36*
X62768604Y-63128347D02*
G01*
X62805144Y-63139432D01*
X62838821Y-63157433D01*
X62868341Y-63181659D01*
X62892567Y-63211179D01*
X62910568Y-63244856D01*
X62921653Y-63281396D01*
X62926000Y-63325538D01*
X62926000Y-64274462D01*
X62921653Y-64318604D01*
X62910568Y-64355144D01*
X62892567Y-64388821D01*
X62868341Y-64418341D01*
X62838821Y-64442567D01*
X62805144Y-64460568D01*
X62768604Y-64471653D01*
X62724462Y-64476000D01*
X61275538Y-64476000D01*
X61231396Y-64471653D01*
X61194856Y-64460568D01*
X61161179Y-64442567D01*
X61131659Y-64418341D01*
X61107433Y-64388821D01*
X61089432Y-64355144D01*
X61078347Y-64318604D01*
X61074000Y-64274462D01*
X61074000Y-63325538D01*
X61078347Y-63281396D01*
X61089432Y-63244856D01*
X61107433Y-63211179D01*
X61131659Y-63181659D01*
X61161179Y-63157433D01*
X61194856Y-63139432D01*
X61231396Y-63128347D01*
X61275538Y-63124000D01*
X62724462Y-63124000D01*
X62768604Y-63128347D01*
X62768604Y-63128347D01*
G37*
G36*
X46768604Y-63128347D02*
G01*
X46805144Y-63139432D01*
X46838821Y-63157433D01*
X46868341Y-63181659D01*
X46892567Y-63211179D01*
X46910568Y-63244856D01*
X46921653Y-63281396D01*
X46926000Y-63325538D01*
X46926000Y-64274462D01*
X46921653Y-64318604D01*
X46910568Y-64355144D01*
X46892567Y-64388821D01*
X46868341Y-64418341D01*
X46838821Y-64442567D01*
X46805144Y-64460568D01*
X46768604Y-64471653D01*
X46724462Y-64476000D01*
X45275538Y-64476000D01*
X45231396Y-64471653D01*
X45194856Y-64460568D01*
X45161179Y-64442567D01*
X45131659Y-64418341D01*
X45107433Y-64388821D01*
X45089432Y-64355144D01*
X45078347Y-64318604D01*
X45074000Y-64274462D01*
X45074000Y-63325538D01*
X45078347Y-63281396D01*
X45089432Y-63244856D01*
X45107433Y-63211179D01*
X45131659Y-63181659D01*
X45161179Y-63157433D01*
X45194856Y-63139432D01*
X45231396Y-63128347D01*
X45275538Y-63124000D01*
X46724462Y-63124000D01*
X46768604Y-63128347D01*
X46768604Y-63128347D01*
G37*
G36*
X77768604Y-63128347D02*
G01*
X77805144Y-63139432D01*
X77838821Y-63157433D01*
X77868341Y-63181659D01*
X77892567Y-63211179D01*
X77910568Y-63244856D01*
X77921653Y-63281396D01*
X77926000Y-63325538D01*
X77926000Y-64274462D01*
X77921653Y-64318604D01*
X77910568Y-64355144D01*
X77892567Y-64388821D01*
X77868341Y-64418341D01*
X77838821Y-64442567D01*
X77805144Y-64460568D01*
X77768604Y-64471653D01*
X77724462Y-64476000D01*
X76275538Y-64476000D01*
X76231396Y-64471653D01*
X76194856Y-64460568D01*
X76161179Y-64442567D01*
X76131659Y-64418341D01*
X76107433Y-64388821D01*
X76089432Y-64355144D01*
X76078347Y-64318604D01*
X76074000Y-64274462D01*
X76074000Y-63325538D01*
X76078347Y-63281396D01*
X76089432Y-63244856D01*
X76107433Y-63211179D01*
X76131659Y-63181659D01*
X76161179Y-63157433D01*
X76194856Y-63139432D01*
X76231396Y-63128347D01*
X76275538Y-63124000D01*
X77724462Y-63124000D01*
X77768604Y-63128347D01*
X77768604Y-63128347D01*
G37*
G36*
X78264499Y-61353445D02*
G01*
X78301995Y-61364820D01*
X78336554Y-61383292D01*
X78366847Y-61408153D01*
X78391708Y-61438446D01*
X78410180Y-61473005D01*
X78421555Y-61510501D01*
X78426000Y-61555638D01*
X78426000Y-62294362D01*
X78421555Y-62339499D01*
X78410180Y-62376995D01*
X78391708Y-62411554D01*
X78366847Y-62441847D01*
X78336554Y-62466708D01*
X78301995Y-62485180D01*
X78264499Y-62496555D01*
X78219362Y-62501000D01*
X77580638Y-62501000D01*
X77535501Y-62496555D01*
X77498005Y-62485180D01*
X77463446Y-62466708D01*
X77433153Y-62441847D01*
X77408292Y-62411554D01*
X77389820Y-62376995D01*
X77378445Y-62339499D01*
X77374000Y-62294362D01*
X77374000Y-61555638D01*
X77378445Y-61510501D01*
X77389820Y-61473005D01*
X77408292Y-61438446D01*
X77433153Y-61408153D01*
X77463446Y-61383292D01*
X77498005Y-61364820D01*
X77535501Y-61353445D01*
X77580638Y-61349000D01*
X78219362Y-61349000D01*
X78264499Y-61353445D01*
X78264499Y-61353445D01*
G37*
G36*
X61464499Y-61353445D02*
G01*
X61501995Y-61364820D01*
X61536554Y-61383292D01*
X61566847Y-61408153D01*
X61591708Y-61438446D01*
X61610180Y-61473005D01*
X61621555Y-61510501D01*
X61626000Y-61555638D01*
X61626000Y-62294362D01*
X61621555Y-62339499D01*
X61610180Y-62376995D01*
X61591708Y-62411554D01*
X61566847Y-62441847D01*
X61536554Y-62466708D01*
X61501995Y-62485180D01*
X61464499Y-62496555D01*
X61419362Y-62501000D01*
X60780638Y-62501000D01*
X60735501Y-62496555D01*
X60698005Y-62485180D01*
X60663446Y-62466708D01*
X60633153Y-62441847D01*
X60608292Y-62411554D01*
X60589820Y-62376995D01*
X60578445Y-62339499D01*
X60574000Y-62294362D01*
X60574000Y-61555638D01*
X60578445Y-61510501D01*
X60589820Y-61473005D01*
X60608292Y-61438446D01*
X60633153Y-61408153D01*
X60663446Y-61383292D01*
X60698005Y-61364820D01*
X60735501Y-61353445D01*
X60780638Y-61349000D01*
X61419362Y-61349000D01*
X61464499Y-61353445D01*
X61464499Y-61353445D01*
G37*
G36*
X63214499Y-61353445D02*
G01*
X63251995Y-61364820D01*
X63286554Y-61383292D01*
X63316847Y-61408153D01*
X63341708Y-61438446D01*
X63360180Y-61473005D01*
X63371555Y-61510501D01*
X63376000Y-61555638D01*
X63376000Y-62294362D01*
X63371555Y-62339499D01*
X63360180Y-62376995D01*
X63341708Y-62411554D01*
X63316847Y-62441847D01*
X63286554Y-62466708D01*
X63251995Y-62485180D01*
X63214499Y-62496555D01*
X63169362Y-62501000D01*
X62530638Y-62501000D01*
X62485501Y-62496555D01*
X62448005Y-62485180D01*
X62413446Y-62466708D01*
X62383153Y-62441847D01*
X62358292Y-62411554D01*
X62339820Y-62376995D01*
X62328445Y-62339499D01*
X62324000Y-62294362D01*
X62324000Y-61555638D01*
X62328445Y-61510501D01*
X62339820Y-61473005D01*
X62358292Y-61438446D01*
X62383153Y-61408153D01*
X62413446Y-61383292D01*
X62448005Y-61364820D01*
X62485501Y-61353445D01*
X62530638Y-61349000D01*
X63169362Y-61349000D01*
X63214499Y-61353445D01*
X63214499Y-61353445D01*
G37*
G36*
X76514499Y-61353445D02*
G01*
X76551995Y-61364820D01*
X76586554Y-61383292D01*
X76616847Y-61408153D01*
X76641708Y-61438446D01*
X76660180Y-61473005D01*
X76671555Y-61510501D01*
X76676000Y-61555638D01*
X76676000Y-62294362D01*
X76671555Y-62339499D01*
X76660180Y-62376995D01*
X76641708Y-62411554D01*
X76616847Y-62441847D01*
X76586554Y-62466708D01*
X76551995Y-62485180D01*
X76514499Y-62496555D01*
X76469362Y-62501000D01*
X75830638Y-62501000D01*
X75785501Y-62496555D01*
X75748005Y-62485180D01*
X75713446Y-62466708D01*
X75683153Y-62441847D01*
X75658292Y-62411554D01*
X75639820Y-62376995D01*
X75628445Y-62339499D01*
X75624000Y-62294362D01*
X75624000Y-61555638D01*
X75628445Y-61510501D01*
X75639820Y-61473005D01*
X75658292Y-61438446D01*
X75683153Y-61408153D01*
X75713446Y-61383292D01*
X75748005Y-61364820D01*
X75785501Y-61353445D01*
X75830638Y-61349000D01*
X76469362Y-61349000D01*
X76514499Y-61353445D01*
X76514499Y-61353445D01*
G37*
G36*
X47414499Y-61253445D02*
G01*
X47451995Y-61264820D01*
X47486554Y-61283292D01*
X47516847Y-61308153D01*
X47541708Y-61338446D01*
X47560180Y-61373005D01*
X47571555Y-61410501D01*
X47576000Y-61455638D01*
X47576000Y-62194362D01*
X47571555Y-62239499D01*
X47560180Y-62276995D01*
X47541708Y-62311554D01*
X47516847Y-62341847D01*
X47486554Y-62366708D01*
X47451995Y-62385180D01*
X47414499Y-62396555D01*
X47369362Y-62401000D01*
X46730638Y-62401000D01*
X46685501Y-62396555D01*
X46648005Y-62385180D01*
X46613446Y-62366708D01*
X46583153Y-62341847D01*
X46558292Y-62311554D01*
X46539820Y-62276995D01*
X46528445Y-62239499D01*
X46524000Y-62194362D01*
X46524000Y-61455638D01*
X46528445Y-61410501D01*
X46539820Y-61373005D01*
X46558292Y-61338446D01*
X46583153Y-61308153D01*
X46613446Y-61283292D01*
X46648005Y-61264820D01*
X46685501Y-61253445D01*
X46730638Y-61249000D01*
X47369362Y-61249000D01*
X47414499Y-61253445D01*
X47414499Y-61253445D01*
G37*
G36*
X45414499Y-61253445D02*
G01*
X45451995Y-61264820D01*
X45486554Y-61283292D01*
X45516847Y-61308153D01*
X45541708Y-61338446D01*
X45560180Y-61373005D01*
X45571555Y-61410501D01*
X45576000Y-61455638D01*
X45576000Y-62194362D01*
X45571555Y-62239499D01*
X45560180Y-62276995D01*
X45541708Y-62311554D01*
X45516847Y-62341847D01*
X45486554Y-62366708D01*
X45451995Y-62385180D01*
X45414499Y-62396555D01*
X45369362Y-62401000D01*
X44730638Y-62401000D01*
X44685501Y-62396555D01*
X44648005Y-62385180D01*
X44613446Y-62366708D01*
X44583153Y-62341847D01*
X44558292Y-62311554D01*
X44539820Y-62276995D01*
X44528445Y-62239499D01*
X44524000Y-62194362D01*
X44524000Y-61455638D01*
X44528445Y-61410501D01*
X44539820Y-61373005D01*
X44558292Y-61338446D01*
X44583153Y-61308153D01*
X44613446Y-61283292D01*
X44648005Y-61264820D01*
X44685501Y-61253445D01*
X44730638Y-61249000D01*
X45369362Y-61249000D01*
X45414499Y-61253445D01*
X45414499Y-61253445D01*
G37*
G36*
X75001000Y-60821000D02*
G01*
X72699000Y-60821000D01*
X72699000Y-59519000D01*
X75001000Y-59519000D01*
X75001000Y-60821000D01*
X75001000Y-60821000D01*
G37*
G36*
X43901000Y-60821000D02*
G01*
X41599000Y-60821000D01*
X41599000Y-59519000D01*
X43901000Y-59519000D01*
X43901000Y-60821000D01*
X43901000Y-60821000D01*
G37*
G36*
X59951000Y-60821000D02*
G01*
X57649000Y-60821000D01*
X57649000Y-59519000D01*
X59951000Y-59519000D01*
X59951000Y-60821000D01*
X59951000Y-60821000D01*
G37*
G36*
X61464499Y-59603445D02*
G01*
X61501995Y-59614820D01*
X61536554Y-59633292D01*
X61566847Y-59658153D01*
X61591708Y-59688446D01*
X61610180Y-59723005D01*
X61621555Y-59760501D01*
X61626000Y-59805638D01*
X61626000Y-60544362D01*
X61621555Y-60589499D01*
X61610180Y-60626995D01*
X61591708Y-60661554D01*
X61566847Y-60691847D01*
X61536554Y-60716708D01*
X61501995Y-60735180D01*
X61464499Y-60746555D01*
X61419362Y-60751000D01*
X60780638Y-60751000D01*
X60735501Y-60746555D01*
X60698005Y-60735180D01*
X60663446Y-60716708D01*
X60633153Y-60691847D01*
X60608292Y-60661554D01*
X60589820Y-60626995D01*
X60578445Y-60589499D01*
X60574000Y-60544362D01*
X60574000Y-59805638D01*
X60578445Y-59760501D01*
X60589820Y-59723005D01*
X60608292Y-59688446D01*
X60633153Y-59658153D01*
X60663446Y-59633292D01*
X60698005Y-59614820D01*
X60735501Y-59603445D01*
X60780638Y-59599000D01*
X61419362Y-59599000D01*
X61464499Y-59603445D01*
X61464499Y-59603445D01*
G37*
G36*
X76514499Y-59603445D02*
G01*
X76551995Y-59614820D01*
X76586554Y-59633292D01*
X76616847Y-59658153D01*
X76641708Y-59688446D01*
X76660180Y-59723005D01*
X76671555Y-59760501D01*
X76676000Y-59805638D01*
X76676000Y-60544362D01*
X76671555Y-60589499D01*
X76660180Y-60626995D01*
X76641708Y-60661554D01*
X76616847Y-60691847D01*
X76586554Y-60716708D01*
X76551995Y-60735180D01*
X76514499Y-60746555D01*
X76469362Y-60751000D01*
X75830638Y-60751000D01*
X75785501Y-60746555D01*
X75748005Y-60735180D01*
X75713446Y-60716708D01*
X75683153Y-60691847D01*
X75658292Y-60661554D01*
X75639820Y-60626995D01*
X75628445Y-60589499D01*
X75624000Y-60544362D01*
X75624000Y-59805638D01*
X75628445Y-59760501D01*
X75639820Y-59723005D01*
X75658292Y-59688446D01*
X75683153Y-59658153D01*
X75713446Y-59633292D01*
X75748005Y-59614820D01*
X75785501Y-59603445D01*
X75830638Y-59599000D01*
X76469362Y-59599000D01*
X76514499Y-59603445D01*
X76514499Y-59603445D01*
G37*
G36*
X63214499Y-59603445D02*
G01*
X63251995Y-59614820D01*
X63286554Y-59633292D01*
X63316847Y-59658153D01*
X63341708Y-59688446D01*
X63360180Y-59723005D01*
X63371555Y-59760501D01*
X63376000Y-59805638D01*
X63376000Y-60544362D01*
X63371555Y-60589499D01*
X63360180Y-60626995D01*
X63341708Y-60661554D01*
X63316847Y-60691847D01*
X63286554Y-60716708D01*
X63251995Y-60735180D01*
X63214499Y-60746555D01*
X63169362Y-60751000D01*
X62530638Y-60751000D01*
X62485501Y-60746555D01*
X62448005Y-60735180D01*
X62413446Y-60716708D01*
X62383153Y-60691847D01*
X62358292Y-60661554D01*
X62339820Y-60626995D01*
X62328445Y-60589499D01*
X62324000Y-60544362D01*
X62324000Y-59805638D01*
X62328445Y-59760501D01*
X62339820Y-59723005D01*
X62358292Y-59688446D01*
X62383153Y-59658153D01*
X62413446Y-59633292D01*
X62448005Y-59614820D01*
X62485501Y-59603445D01*
X62530638Y-59599000D01*
X63169362Y-59599000D01*
X63214499Y-59603445D01*
X63214499Y-59603445D01*
G37*
G36*
X78264499Y-59603445D02*
G01*
X78301995Y-59614820D01*
X78336554Y-59633292D01*
X78366847Y-59658153D01*
X78391708Y-59688446D01*
X78410180Y-59723005D01*
X78421555Y-59760501D01*
X78426000Y-59805638D01*
X78426000Y-60544362D01*
X78421555Y-60589499D01*
X78410180Y-60626995D01*
X78391708Y-60661554D01*
X78366847Y-60691847D01*
X78336554Y-60716708D01*
X78301995Y-60735180D01*
X78264499Y-60746555D01*
X78219362Y-60751000D01*
X77580638Y-60751000D01*
X77535501Y-60746555D01*
X77498005Y-60735180D01*
X77463446Y-60716708D01*
X77433153Y-60691847D01*
X77408292Y-60661554D01*
X77389820Y-60626995D01*
X77378445Y-60589499D01*
X77374000Y-60544362D01*
X77374000Y-59805638D01*
X77378445Y-59760501D01*
X77389820Y-59723005D01*
X77408292Y-59688446D01*
X77433153Y-59658153D01*
X77463446Y-59633292D01*
X77498005Y-59614820D01*
X77535501Y-59603445D01*
X77580638Y-59599000D01*
X78219362Y-59599000D01*
X78264499Y-59603445D01*
X78264499Y-59603445D01*
G37*
G36*
X47414499Y-59503445D02*
G01*
X47451995Y-59514820D01*
X47486554Y-59533292D01*
X47516847Y-59558153D01*
X47541708Y-59588446D01*
X47560180Y-59623005D01*
X47571555Y-59660501D01*
X47576000Y-59705638D01*
X47576000Y-60444362D01*
X47571555Y-60489499D01*
X47560180Y-60526995D01*
X47541708Y-60561554D01*
X47516847Y-60591847D01*
X47486554Y-60616708D01*
X47451995Y-60635180D01*
X47414499Y-60646555D01*
X47369362Y-60651000D01*
X46730638Y-60651000D01*
X46685501Y-60646555D01*
X46648005Y-60635180D01*
X46613446Y-60616708D01*
X46583153Y-60591847D01*
X46558292Y-60561554D01*
X46539820Y-60526995D01*
X46528445Y-60489499D01*
X46524000Y-60444362D01*
X46524000Y-59705638D01*
X46528445Y-59660501D01*
X46539820Y-59623005D01*
X46558292Y-59588446D01*
X46583153Y-59558153D01*
X46613446Y-59533292D01*
X46648005Y-59514820D01*
X46685501Y-59503445D01*
X46730638Y-59499000D01*
X47369362Y-59499000D01*
X47414499Y-59503445D01*
X47414499Y-59503445D01*
G37*
G36*
X45414499Y-59503445D02*
G01*
X45451995Y-59514820D01*
X45486554Y-59533292D01*
X45516847Y-59558153D01*
X45541708Y-59588446D01*
X45560180Y-59623005D01*
X45571555Y-59660501D01*
X45576000Y-59705638D01*
X45576000Y-60444362D01*
X45571555Y-60489499D01*
X45560180Y-60526995D01*
X45541708Y-60561554D01*
X45516847Y-60591847D01*
X45486554Y-60616708D01*
X45451995Y-60635180D01*
X45414499Y-60646555D01*
X45369362Y-60651000D01*
X44730638Y-60651000D01*
X44685501Y-60646555D01*
X44648005Y-60635180D01*
X44613446Y-60616708D01*
X44583153Y-60591847D01*
X44558292Y-60561554D01*
X44539820Y-60526995D01*
X44528445Y-60489499D01*
X44524000Y-60444362D01*
X44524000Y-59705638D01*
X44528445Y-59660501D01*
X44539820Y-59623005D01*
X44558292Y-59588446D01*
X44583153Y-59558153D01*
X44613446Y-59533292D01*
X44648005Y-59514820D01*
X44685501Y-59503445D01*
X44730638Y-59499000D01*
X45369362Y-59499000D01*
X45414499Y-59503445D01*
X45414499Y-59503445D01*
G37*
G36*
X32701000Y-58376000D02*
G01*
X21799000Y-58376000D01*
X21799000Y-48874000D01*
X32701000Y-48874000D01*
X32701000Y-58376000D01*
X32701000Y-58376000D01*
G37*
G36*
X59364499Y-56303445D02*
G01*
X59401995Y-56314820D01*
X59436554Y-56333292D01*
X59466847Y-56358153D01*
X59491708Y-56388446D01*
X59510180Y-56423005D01*
X59521555Y-56460501D01*
X59526000Y-56505638D01*
X59526000Y-57244362D01*
X59521555Y-57289499D01*
X59510180Y-57326995D01*
X59491708Y-57361554D01*
X59466847Y-57391847D01*
X59436554Y-57416708D01*
X59401995Y-57435180D01*
X59364499Y-57446555D01*
X59319362Y-57451000D01*
X58680638Y-57451000D01*
X58635501Y-57446555D01*
X58598005Y-57435180D01*
X58563446Y-57416708D01*
X58533153Y-57391847D01*
X58508292Y-57361554D01*
X58489820Y-57326995D01*
X58478445Y-57289499D01*
X58474000Y-57244362D01*
X58474000Y-56505638D01*
X58478445Y-56460501D01*
X58489820Y-56423005D01*
X58508292Y-56388446D01*
X58533153Y-56358153D01*
X58563446Y-56333292D01*
X58598005Y-56314820D01*
X58635501Y-56303445D01*
X58680638Y-56299000D01*
X59319362Y-56299000D01*
X59364499Y-56303445D01*
X59364499Y-56303445D01*
G37*
G36*
X59364499Y-54553445D02*
G01*
X59401995Y-54564820D01*
X59436554Y-54583292D01*
X59466847Y-54608153D01*
X59491708Y-54638446D01*
X59510180Y-54673005D01*
X59521555Y-54710501D01*
X59526000Y-54755638D01*
X59526000Y-55494362D01*
X59521555Y-55539499D01*
X59510180Y-55576995D01*
X59491708Y-55611554D01*
X59466847Y-55641847D01*
X59436554Y-55666708D01*
X59401995Y-55685180D01*
X59364499Y-55696555D01*
X59319362Y-55701000D01*
X58680638Y-55701000D01*
X58635501Y-55696555D01*
X58598005Y-55685180D01*
X58563446Y-55666708D01*
X58533153Y-55641847D01*
X58508292Y-55611554D01*
X58489820Y-55576995D01*
X58478445Y-55539499D01*
X58474000Y-55494362D01*
X58474000Y-54755638D01*
X58478445Y-54710501D01*
X58489820Y-54673005D01*
X58508292Y-54638446D01*
X58533153Y-54608153D01*
X58563446Y-54583292D01*
X58598005Y-54564820D01*
X58635501Y-54553445D01*
X58680638Y-54549000D01*
X59319362Y-54549000D01*
X59364499Y-54553445D01*
X59364499Y-54553445D01*
G37*
G36*
X63289499Y-54478445D02*
G01*
X63326995Y-54489820D01*
X63361554Y-54508292D01*
X63391847Y-54533153D01*
X63416708Y-54563446D01*
X63435180Y-54598005D01*
X63446555Y-54635501D01*
X63451000Y-54680638D01*
X63451000Y-55319362D01*
X63446555Y-55364499D01*
X63435180Y-55401995D01*
X63416708Y-55436554D01*
X63391847Y-55466847D01*
X63361554Y-55491708D01*
X63326995Y-55510180D01*
X63289499Y-55521555D01*
X63244362Y-55526000D01*
X62505638Y-55526000D01*
X62460501Y-55521555D01*
X62423005Y-55510180D01*
X62388446Y-55491708D01*
X62358153Y-55466847D01*
X62333292Y-55436554D01*
X62314820Y-55401995D01*
X62303445Y-55364499D01*
X62299000Y-55319362D01*
X62299000Y-54680638D01*
X62303445Y-54635501D01*
X62314820Y-54598005D01*
X62333292Y-54563446D01*
X62358153Y-54533153D01*
X62388446Y-54508292D01*
X62423005Y-54489820D01*
X62460501Y-54478445D01*
X62505638Y-54474000D01*
X63244362Y-54474000D01*
X63289499Y-54478445D01*
X63289499Y-54478445D01*
G37*
G36*
X61539499Y-54478445D02*
G01*
X61576995Y-54489820D01*
X61611554Y-54508292D01*
X61641847Y-54533153D01*
X61666708Y-54563446D01*
X61685180Y-54598005D01*
X61696555Y-54635501D01*
X61701000Y-54680638D01*
X61701000Y-55319362D01*
X61696555Y-55364499D01*
X61685180Y-55401995D01*
X61666708Y-55436554D01*
X61641847Y-55466847D01*
X61611554Y-55491708D01*
X61576995Y-55510180D01*
X61539499Y-55521555D01*
X61494362Y-55526000D01*
X60755638Y-55526000D01*
X60710501Y-55521555D01*
X60673005Y-55510180D01*
X60638446Y-55491708D01*
X60608153Y-55466847D01*
X60583292Y-55436554D01*
X60564820Y-55401995D01*
X60553445Y-55364499D01*
X60549000Y-55319362D01*
X60549000Y-54680638D01*
X60553445Y-54635501D01*
X60564820Y-54598005D01*
X60583292Y-54563446D01*
X60608153Y-54533153D01*
X60638446Y-54508292D01*
X60673005Y-54489820D01*
X60710501Y-54478445D01*
X60755638Y-54474000D01*
X61494362Y-54474000D01*
X61539499Y-54478445D01*
X61539499Y-54478445D01*
G37*
G36*
X42751000Y-55201000D02*
G01*
X37249000Y-55201000D01*
X37249000Y-52199000D01*
X42751000Y-52199000D01*
X42751000Y-55201000D01*
X42751000Y-55201000D01*
G37*
G36*
X49226000Y-55151000D02*
G01*
X47824000Y-55151000D01*
X47824000Y-53449000D01*
X49226000Y-53449000D01*
X49226000Y-55151000D01*
X49226000Y-55151000D01*
G37*
G36*
X51126000Y-55151000D02*
G01*
X49724000Y-55151000D01*
X49724000Y-53449000D01*
X51126000Y-53449000D01*
X51126000Y-55151000D01*
X51126000Y-55151000D01*
G37*
G36*
X53026000Y-55151000D02*
G01*
X51624000Y-55151000D01*
X51624000Y-53449000D01*
X53026000Y-53449000D01*
X53026000Y-55151000D01*
X53026000Y-55151000D01*
G37*
G36*
X54926000Y-55151000D02*
G01*
X53524000Y-55151000D01*
X53524000Y-53449000D01*
X54926000Y-53449000D01*
X54926000Y-55151000D01*
X54926000Y-55151000D01*
G37*
G36*
X56826000Y-55151000D02*
G01*
X55424000Y-55151000D01*
X55424000Y-53449000D01*
X56826000Y-53449000D01*
X56826000Y-55151000D01*
X56826000Y-55151000D01*
G37*
G36*
X66525562Y-52978181D02*
G01*
X66560481Y-52988774D01*
X66592663Y-53005976D01*
X66620873Y-53029127D01*
X66644024Y-53057337D01*
X66661226Y-53089519D01*
X66671819Y-53124438D01*
X66676000Y-53166895D01*
X66676000Y-54308105D01*
X66671819Y-54350562D01*
X66661226Y-54385481D01*
X66644024Y-54417663D01*
X66620873Y-54445873D01*
X66592663Y-54469024D01*
X66560481Y-54486226D01*
X66525562Y-54496819D01*
X66483105Y-54501000D01*
X65016895Y-54501000D01*
X64974438Y-54496819D01*
X64939519Y-54486226D01*
X64907337Y-54469024D01*
X64879127Y-54445873D01*
X64855976Y-54417663D01*
X64838774Y-54385481D01*
X64828181Y-54350562D01*
X64824000Y-54308105D01*
X64824000Y-53166895D01*
X64828181Y-53124438D01*
X64838774Y-53089519D01*
X64855976Y-53057337D01*
X64879127Y-53029127D01*
X64907337Y-53005976D01*
X64939519Y-52988774D01*
X64974438Y-52978181D01*
X65016895Y-52974000D01*
X66483105Y-52974000D01*
X66525562Y-52978181D01*
X66525562Y-52978181D01*
G37*
G36*
X70025562Y-52978181D02*
G01*
X70060481Y-52988774D01*
X70092663Y-53005976D01*
X70120873Y-53029127D01*
X70144024Y-53057337D01*
X70161226Y-53089519D01*
X70171819Y-53124438D01*
X70176000Y-53166895D01*
X70176000Y-54308105D01*
X70171819Y-54350562D01*
X70161226Y-54385481D01*
X70144024Y-54417663D01*
X70120873Y-54445873D01*
X70092663Y-54469024D01*
X70060481Y-54486226D01*
X70025562Y-54496819D01*
X69983105Y-54501000D01*
X68516895Y-54501000D01*
X68474438Y-54496819D01*
X68439519Y-54486226D01*
X68407337Y-54469024D01*
X68379127Y-54445873D01*
X68355976Y-54417663D01*
X68338774Y-54385481D01*
X68328181Y-54350562D01*
X68324000Y-54308105D01*
X68324000Y-53166895D01*
X68328181Y-53124438D01*
X68338774Y-53089519D01*
X68355976Y-53057337D01*
X68379127Y-53029127D01*
X68407337Y-53005976D01*
X68439519Y-52988774D01*
X68474438Y-52978181D01*
X68516895Y-52974000D01*
X69983105Y-52974000D01*
X70025562Y-52978181D01*
X70025562Y-52978181D01*
G37*
G36*
X73775562Y-52965681D02*
G01*
X73810481Y-52976274D01*
X73842663Y-52993476D01*
X73870873Y-53016627D01*
X73894024Y-53044837D01*
X73911226Y-53077019D01*
X73921819Y-53111938D01*
X73926000Y-53154395D01*
X73926000Y-54295605D01*
X73921819Y-54338062D01*
X73911226Y-54372981D01*
X73894024Y-54405163D01*
X73870873Y-54433373D01*
X73842663Y-54456524D01*
X73810481Y-54473726D01*
X73775562Y-54484319D01*
X73733105Y-54488500D01*
X72266895Y-54488500D01*
X72224438Y-54484319D01*
X72189519Y-54473726D01*
X72157337Y-54456524D01*
X72129127Y-54433373D01*
X72105976Y-54405163D01*
X72088774Y-54372981D01*
X72078181Y-54338062D01*
X72074000Y-54295605D01*
X72074000Y-53154395D01*
X72078181Y-53111938D01*
X72088774Y-53077019D01*
X72105976Y-53044837D01*
X72129127Y-53016627D01*
X72157337Y-52993476D01*
X72189519Y-52976274D01*
X72224438Y-52965681D01*
X72266895Y-52961500D01*
X73733105Y-52961500D01*
X73775562Y-52965681D01*
X73775562Y-52965681D01*
G37*
G36*
X77525562Y-52965681D02*
G01*
X77560481Y-52976274D01*
X77592663Y-52993476D01*
X77620873Y-53016627D01*
X77644024Y-53044837D01*
X77661226Y-53077019D01*
X77671819Y-53111938D01*
X77676000Y-53154395D01*
X77676000Y-54295605D01*
X77671819Y-54338062D01*
X77661226Y-54372981D01*
X77644024Y-54405163D01*
X77620873Y-54433373D01*
X77592663Y-54456524D01*
X77560481Y-54473726D01*
X77525562Y-54484319D01*
X77483105Y-54488500D01*
X76016895Y-54488500D01*
X75974438Y-54484319D01*
X75939519Y-54473726D01*
X75907337Y-54456524D01*
X75879127Y-54433373D01*
X75855976Y-54405163D01*
X75838774Y-54372981D01*
X75828181Y-54338062D01*
X75824000Y-54295605D01*
X75824000Y-53154395D01*
X75828181Y-53111938D01*
X75838774Y-53077019D01*
X75855976Y-53044837D01*
X75879127Y-53016627D01*
X75907337Y-52993476D01*
X75939519Y-52976274D01*
X75974438Y-52965681D01*
X76016895Y-52961500D01*
X77483105Y-52961500D01*
X77525562Y-52965681D01*
X77525562Y-52965681D01*
G37*
G36*
X60151000Y-53501000D02*
G01*
X58749000Y-53501000D01*
X58749000Y-52699000D01*
X60151000Y-52699000D01*
X60151000Y-53501000D01*
X60151000Y-53501000D01*
G37*
G36*
X63251000Y-53501000D02*
G01*
X61849000Y-53501000D01*
X61849000Y-52699000D01*
X63251000Y-52699000D01*
X63251000Y-53501000D01*
X63251000Y-53501000D01*
G37*
G36*
X63251000Y-52401000D02*
G01*
X61849000Y-52401000D01*
X61849000Y-51599000D01*
X63251000Y-51599000D01*
X63251000Y-52401000D01*
X63251000Y-52401000D01*
G37*
G36*
X60151000Y-52401000D02*
G01*
X58749000Y-52401000D01*
X58749000Y-51599000D01*
X60151000Y-51599000D01*
X60151000Y-52401000D01*
X60151000Y-52401000D01*
G37*
G36*
X70025562Y-50003181D02*
G01*
X70060481Y-50013774D01*
X70092663Y-50030976D01*
X70120873Y-50054127D01*
X70144024Y-50082337D01*
X70161226Y-50114519D01*
X70171819Y-50149438D01*
X70176000Y-50191895D01*
X70176000Y-51333105D01*
X70171819Y-51375562D01*
X70161226Y-51410481D01*
X70144024Y-51442663D01*
X70120873Y-51470873D01*
X70092663Y-51494024D01*
X70060481Y-51511226D01*
X70025562Y-51521819D01*
X69983105Y-51526000D01*
X68516895Y-51526000D01*
X68474438Y-51521819D01*
X68439519Y-51511226D01*
X68407337Y-51494024D01*
X68379127Y-51470873D01*
X68355976Y-51442663D01*
X68338774Y-51410481D01*
X68328181Y-51375562D01*
X68324000Y-51333105D01*
X68324000Y-50191895D01*
X68328181Y-50149438D01*
X68338774Y-50114519D01*
X68355976Y-50082337D01*
X68379127Y-50054127D01*
X68407337Y-50030976D01*
X68439519Y-50013774D01*
X68474438Y-50003181D01*
X68516895Y-49999000D01*
X69983105Y-49999000D01*
X70025562Y-50003181D01*
X70025562Y-50003181D01*
G37*
G36*
X66525562Y-50003181D02*
G01*
X66560481Y-50013774D01*
X66592663Y-50030976D01*
X66620873Y-50054127D01*
X66644024Y-50082337D01*
X66661226Y-50114519D01*
X66671819Y-50149438D01*
X66676000Y-50191895D01*
X66676000Y-51333105D01*
X66671819Y-51375562D01*
X66661226Y-51410481D01*
X66644024Y-51442663D01*
X66620873Y-51470873D01*
X66592663Y-51494024D01*
X66560481Y-51511226D01*
X66525562Y-51521819D01*
X66483105Y-51526000D01*
X65016895Y-51526000D01*
X64974438Y-51521819D01*
X64939519Y-51511226D01*
X64907337Y-51494024D01*
X64879127Y-51470873D01*
X64855976Y-51442663D01*
X64838774Y-51410481D01*
X64828181Y-51375562D01*
X64824000Y-51333105D01*
X64824000Y-50191895D01*
X64828181Y-50149438D01*
X64838774Y-50114519D01*
X64855976Y-50082337D01*
X64879127Y-50054127D01*
X64907337Y-50030976D01*
X64939519Y-50013774D01*
X64974438Y-50003181D01*
X65016895Y-49999000D01*
X66483105Y-49999000D01*
X66525562Y-50003181D01*
X66525562Y-50003181D01*
G37*
G36*
X77525562Y-49990681D02*
G01*
X77560481Y-50001274D01*
X77592663Y-50018476D01*
X77620873Y-50041627D01*
X77644024Y-50069837D01*
X77661226Y-50102019D01*
X77671819Y-50136938D01*
X77676000Y-50179395D01*
X77676000Y-51320605D01*
X77671819Y-51363062D01*
X77661226Y-51397981D01*
X77644024Y-51430163D01*
X77620873Y-51458373D01*
X77592663Y-51481524D01*
X77560481Y-51498726D01*
X77525562Y-51509319D01*
X77483105Y-51513500D01*
X76016895Y-51513500D01*
X75974438Y-51509319D01*
X75939519Y-51498726D01*
X75907337Y-51481524D01*
X75879127Y-51458373D01*
X75855976Y-51430163D01*
X75838774Y-51397981D01*
X75828181Y-51363062D01*
X75824000Y-51320605D01*
X75824000Y-50179395D01*
X75828181Y-50136938D01*
X75838774Y-50102019D01*
X75855976Y-50069837D01*
X75879127Y-50041627D01*
X75907337Y-50018476D01*
X75939519Y-50001274D01*
X75974438Y-49990681D01*
X76016895Y-49986500D01*
X77483105Y-49986500D01*
X77525562Y-49990681D01*
X77525562Y-49990681D01*
G37*
G36*
X73775562Y-49990681D02*
G01*
X73810481Y-50001274D01*
X73842663Y-50018476D01*
X73870873Y-50041627D01*
X73894024Y-50069837D01*
X73911226Y-50102019D01*
X73921819Y-50136938D01*
X73926000Y-50179395D01*
X73926000Y-51320605D01*
X73921819Y-51363062D01*
X73911226Y-51397981D01*
X73894024Y-51430163D01*
X73870873Y-51458373D01*
X73842663Y-51481524D01*
X73810481Y-51498726D01*
X73775562Y-51509319D01*
X73733105Y-51513500D01*
X72266895Y-51513500D01*
X72224438Y-51509319D01*
X72189519Y-51498726D01*
X72157337Y-51481524D01*
X72129127Y-51458373D01*
X72105976Y-51430163D01*
X72088774Y-51397981D01*
X72078181Y-51363062D01*
X72074000Y-51320605D01*
X72074000Y-50179395D01*
X72078181Y-50136938D01*
X72088774Y-50102019D01*
X72105976Y-50069837D01*
X72129127Y-50041627D01*
X72157337Y-50018476D01*
X72189519Y-50001274D01*
X72224438Y-49990681D01*
X72266895Y-49986500D01*
X73733105Y-49986500D01*
X73775562Y-49990681D01*
X73775562Y-49990681D01*
G37*
G36*
X63251000Y-51301000D02*
G01*
X61849000Y-51301000D01*
X61849000Y-50499000D01*
X63251000Y-50499000D01*
X63251000Y-51301000D01*
X63251000Y-51301000D01*
G37*
G36*
X60151000Y-51301000D02*
G01*
X58749000Y-51301000D01*
X58749000Y-50499000D01*
X60151000Y-50499000D01*
X60151000Y-51301000D01*
X60151000Y-51301000D01*
G37*
G36*
X62914499Y-48478445D02*
G01*
X62951995Y-48489820D01*
X62986554Y-48508292D01*
X63016847Y-48533153D01*
X63041708Y-48563446D01*
X63060180Y-48598005D01*
X63071555Y-48635501D01*
X63076000Y-48680638D01*
X63076000Y-49319362D01*
X63071555Y-49364499D01*
X63060180Y-49401995D01*
X63041708Y-49436554D01*
X63016847Y-49466847D01*
X62986554Y-49491708D01*
X62951995Y-49510180D01*
X62914499Y-49521555D01*
X62869362Y-49526000D01*
X62130638Y-49526000D01*
X62085501Y-49521555D01*
X62048005Y-49510180D01*
X62013446Y-49491708D01*
X61983153Y-49466847D01*
X61958292Y-49436554D01*
X61939820Y-49401995D01*
X61928445Y-49364499D01*
X61924000Y-49319362D01*
X61924000Y-48680638D01*
X61928445Y-48635501D01*
X61939820Y-48598005D01*
X61958292Y-48563446D01*
X61983153Y-48533153D01*
X62013446Y-48508292D01*
X62048005Y-48489820D01*
X62085501Y-48478445D01*
X62130638Y-48474000D01*
X62869362Y-48474000D01*
X62914499Y-48478445D01*
X62914499Y-48478445D01*
G37*
G36*
X61164499Y-48478445D02*
G01*
X61201995Y-48489820D01*
X61236554Y-48508292D01*
X61266847Y-48533153D01*
X61291708Y-48563446D01*
X61310180Y-48598005D01*
X61321555Y-48635501D01*
X61326000Y-48680638D01*
X61326000Y-49319362D01*
X61321555Y-49364499D01*
X61310180Y-49401995D01*
X61291708Y-49436554D01*
X61266847Y-49466847D01*
X61236554Y-49491708D01*
X61201995Y-49510180D01*
X61164499Y-49521555D01*
X61119362Y-49526000D01*
X60380638Y-49526000D01*
X60335501Y-49521555D01*
X60298005Y-49510180D01*
X60263446Y-49491708D01*
X60233153Y-49466847D01*
X60208292Y-49436554D01*
X60189820Y-49401995D01*
X60178445Y-49364499D01*
X60174000Y-49319362D01*
X60174000Y-48680638D01*
X60178445Y-48635501D01*
X60189820Y-48598005D01*
X60208292Y-48563446D01*
X60233153Y-48533153D01*
X60263446Y-48508292D01*
X60298005Y-48489820D01*
X60335501Y-48478445D01*
X60380638Y-48474000D01*
X61119362Y-48474000D01*
X61164499Y-48478445D01*
X61164499Y-48478445D01*
G37*
G36*
X65789499Y-48228445D02*
G01*
X65826995Y-48239820D01*
X65861554Y-48258292D01*
X65891847Y-48283153D01*
X65916708Y-48313446D01*
X65935180Y-48348005D01*
X65946555Y-48385501D01*
X65951000Y-48430638D01*
X65951000Y-49069362D01*
X65946555Y-49114499D01*
X65935180Y-49151995D01*
X65916708Y-49186554D01*
X65891847Y-49216847D01*
X65861554Y-49241708D01*
X65826995Y-49260180D01*
X65789499Y-49271555D01*
X65744362Y-49276000D01*
X65005638Y-49276000D01*
X64960501Y-49271555D01*
X64923005Y-49260180D01*
X64888446Y-49241708D01*
X64858153Y-49216847D01*
X64833292Y-49186554D01*
X64814820Y-49151995D01*
X64803445Y-49114499D01*
X64799000Y-49069362D01*
X64799000Y-48430638D01*
X64803445Y-48385501D01*
X64814820Y-48348005D01*
X64833292Y-48313446D01*
X64858153Y-48283153D01*
X64888446Y-48258292D01*
X64923005Y-48239820D01*
X64960501Y-48228445D01*
X65005638Y-48224000D01*
X65744362Y-48224000D01*
X65789499Y-48228445D01*
X65789499Y-48228445D01*
G37*
G36*
X78664499Y-48228445D02*
G01*
X78701995Y-48239820D01*
X78736554Y-48258292D01*
X78766847Y-48283153D01*
X78791708Y-48313446D01*
X78810180Y-48348005D01*
X78821555Y-48385501D01*
X78826000Y-48430638D01*
X78826000Y-49069362D01*
X78821555Y-49114499D01*
X78810180Y-49151995D01*
X78791708Y-49186554D01*
X78766847Y-49216847D01*
X78736554Y-49241708D01*
X78701995Y-49260180D01*
X78664499Y-49271555D01*
X78619362Y-49276000D01*
X77880638Y-49276000D01*
X77835501Y-49271555D01*
X77798005Y-49260180D01*
X77763446Y-49241708D01*
X77733153Y-49216847D01*
X77708292Y-49186554D01*
X77689820Y-49151995D01*
X77678445Y-49114499D01*
X77674000Y-49069362D01*
X77674000Y-48430638D01*
X77678445Y-48385501D01*
X77689820Y-48348005D01*
X77708292Y-48313446D01*
X77733153Y-48283153D01*
X77763446Y-48258292D01*
X77798005Y-48239820D01*
X77835501Y-48228445D01*
X77880638Y-48224000D01*
X78619362Y-48224000D01*
X78664499Y-48228445D01*
X78664499Y-48228445D01*
G37*
G36*
X76914499Y-48228445D02*
G01*
X76951995Y-48239820D01*
X76986554Y-48258292D01*
X77016847Y-48283153D01*
X77041708Y-48313446D01*
X77060180Y-48348005D01*
X77071555Y-48385501D01*
X77076000Y-48430638D01*
X77076000Y-49069362D01*
X77071555Y-49114499D01*
X77060180Y-49151995D01*
X77041708Y-49186554D01*
X77016847Y-49216847D01*
X76986554Y-49241708D01*
X76951995Y-49260180D01*
X76914499Y-49271555D01*
X76869362Y-49276000D01*
X76130638Y-49276000D01*
X76085501Y-49271555D01*
X76048005Y-49260180D01*
X76013446Y-49241708D01*
X75983153Y-49216847D01*
X75958292Y-49186554D01*
X75939820Y-49151995D01*
X75928445Y-49114499D01*
X75924000Y-49069362D01*
X75924000Y-48430638D01*
X75928445Y-48385501D01*
X75939820Y-48348005D01*
X75958292Y-48313446D01*
X75983153Y-48283153D01*
X76013446Y-48258292D01*
X76048005Y-48239820D01*
X76085501Y-48228445D01*
X76130638Y-48224000D01*
X76869362Y-48224000D01*
X76914499Y-48228445D01*
X76914499Y-48228445D01*
G37*
G36*
X74789499Y-48228445D02*
G01*
X74826995Y-48239820D01*
X74861554Y-48258292D01*
X74891847Y-48283153D01*
X74916708Y-48313446D01*
X74935180Y-48348005D01*
X74946555Y-48385501D01*
X74951000Y-48430638D01*
X74951000Y-49069362D01*
X74946555Y-49114499D01*
X74935180Y-49151995D01*
X74916708Y-49186554D01*
X74891847Y-49216847D01*
X74861554Y-49241708D01*
X74826995Y-49260180D01*
X74789499Y-49271555D01*
X74744362Y-49276000D01*
X74005638Y-49276000D01*
X73960501Y-49271555D01*
X73923005Y-49260180D01*
X73888446Y-49241708D01*
X73858153Y-49216847D01*
X73833292Y-49186554D01*
X73814820Y-49151995D01*
X73803445Y-49114499D01*
X73799000Y-49069362D01*
X73799000Y-48430638D01*
X73803445Y-48385501D01*
X73814820Y-48348005D01*
X73833292Y-48313446D01*
X73858153Y-48283153D01*
X73888446Y-48258292D01*
X73923005Y-48239820D01*
X73960501Y-48228445D01*
X74005638Y-48224000D01*
X74744362Y-48224000D01*
X74789499Y-48228445D01*
X74789499Y-48228445D01*
G37*
G36*
X73039499Y-48228445D02*
G01*
X73076995Y-48239820D01*
X73111554Y-48258292D01*
X73141847Y-48283153D01*
X73166708Y-48313446D01*
X73185180Y-48348005D01*
X73196555Y-48385501D01*
X73201000Y-48430638D01*
X73201000Y-49069362D01*
X73196555Y-49114499D01*
X73185180Y-49151995D01*
X73166708Y-49186554D01*
X73141847Y-49216847D01*
X73111554Y-49241708D01*
X73076995Y-49260180D01*
X73039499Y-49271555D01*
X72994362Y-49276000D01*
X72255638Y-49276000D01*
X72210501Y-49271555D01*
X72173005Y-49260180D01*
X72138446Y-49241708D01*
X72108153Y-49216847D01*
X72083292Y-49186554D01*
X72064820Y-49151995D01*
X72053445Y-49114499D01*
X72049000Y-49069362D01*
X72049000Y-48430638D01*
X72053445Y-48385501D01*
X72064820Y-48348005D01*
X72083292Y-48313446D01*
X72108153Y-48283153D01*
X72138446Y-48258292D01*
X72173005Y-48239820D01*
X72210501Y-48228445D01*
X72255638Y-48224000D01*
X72994362Y-48224000D01*
X73039499Y-48228445D01*
X73039499Y-48228445D01*
G37*
G36*
X69289499Y-48228445D02*
G01*
X69326995Y-48239820D01*
X69361554Y-48258292D01*
X69391847Y-48283153D01*
X69416708Y-48313446D01*
X69435180Y-48348005D01*
X69446555Y-48385501D01*
X69451000Y-48430638D01*
X69451000Y-49069362D01*
X69446555Y-49114499D01*
X69435180Y-49151995D01*
X69416708Y-49186554D01*
X69391847Y-49216847D01*
X69361554Y-49241708D01*
X69326995Y-49260180D01*
X69289499Y-49271555D01*
X69244362Y-49276000D01*
X68505638Y-49276000D01*
X68460501Y-49271555D01*
X68423005Y-49260180D01*
X68388446Y-49241708D01*
X68358153Y-49216847D01*
X68333292Y-49186554D01*
X68314820Y-49151995D01*
X68303445Y-49114499D01*
X68299000Y-49069362D01*
X68299000Y-48430638D01*
X68303445Y-48385501D01*
X68314820Y-48348005D01*
X68333292Y-48313446D01*
X68358153Y-48283153D01*
X68388446Y-48258292D01*
X68423005Y-48239820D01*
X68460501Y-48228445D01*
X68505638Y-48224000D01*
X69244362Y-48224000D01*
X69289499Y-48228445D01*
X69289499Y-48228445D01*
G37*
G36*
X67539499Y-48228445D02*
G01*
X67576995Y-48239820D01*
X67611554Y-48258292D01*
X67641847Y-48283153D01*
X67666708Y-48313446D01*
X67685180Y-48348005D01*
X67696555Y-48385501D01*
X67701000Y-48430638D01*
X67701000Y-49069362D01*
X67696555Y-49114499D01*
X67685180Y-49151995D01*
X67666708Y-49186554D01*
X67641847Y-49216847D01*
X67611554Y-49241708D01*
X67576995Y-49260180D01*
X67539499Y-49271555D01*
X67494362Y-49276000D01*
X66755638Y-49276000D01*
X66710501Y-49271555D01*
X66673005Y-49260180D01*
X66638446Y-49241708D01*
X66608153Y-49216847D01*
X66583292Y-49186554D01*
X66564820Y-49151995D01*
X66553445Y-49114499D01*
X66549000Y-49069362D01*
X66549000Y-48430638D01*
X66553445Y-48385501D01*
X66564820Y-48348005D01*
X66583292Y-48313446D01*
X66608153Y-48283153D01*
X66638446Y-48258292D01*
X66673005Y-48239820D01*
X66710501Y-48228445D01*
X66755638Y-48224000D01*
X67494362Y-48224000D01*
X67539499Y-48228445D01*
X67539499Y-48228445D01*
G37*
G36*
X71039499Y-48228445D02*
G01*
X71076995Y-48239820D01*
X71111554Y-48258292D01*
X71141847Y-48283153D01*
X71166708Y-48313446D01*
X71185180Y-48348005D01*
X71196555Y-48385501D01*
X71201000Y-48430638D01*
X71201000Y-49069362D01*
X71196555Y-49114499D01*
X71185180Y-49151995D01*
X71166708Y-49186554D01*
X71141847Y-49216847D01*
X71111554Y-49241708D01*
X71076995Y-49260180D01*
X71039499Y-49271555D01*
X70994362Y-49276000D01*
X70255638Y-49276000D01*
X70210501Y-49271555D01*
X70173005Y-49260180D01*
X70138446Y-49241708D01*
X70108153Y-49216847D01*
X70083292Y-49186554D01*
X70064820Y-49151995D01*
X70053445Y-49114499D01*
X70049000Y-49069362D01*
X70049000Y-48430638D01*
X70053445Y-48385501D01*
X70064820Y-48348005D01*
X70083292Y-48313446D01*
X70108153Y-48283153D01*
X70138446Y-48258292D01*
X70173005Y-48239820D01*
X70210501Y-48228445D01*
X70255638Y-48224000D01*
X70994362Y-48224000D01*
X71039499Y-48228445D01*
X71039499Y-48228445D01*
G37*
G36*
X31251000Y-46826000D02*
G01*
X30049000Y-46826000D01*
X30049000Y-42124000D01*
X31251000Y-42124000D01*
X31251000Y-46826000D01*
X31251000Y-46826000D01*
G37*
G36*
X29551000Y-46826000D02*
G01*
X28349000Y-46826000D01*
X28349000Y-42124000D01*
X29551000Y-42124000D01*
X29551000Y-46826000D01*
X29551000Y-46826000D01*
G37*
G36*
X27851000Y-46826000D02*
G01*
X26649000Y-46826000D01*
X26649000Y-42124000D01*
X27851000Y-42124000D01*
X27851000Y-46826000D01*
X27851000Y-46826000D01*
G37*
G36*
X26151000Y-46826000D02*
G01*
X24949000Y-46826000D01*
X24949000Y-42124000D01*
X26151000Y-42124000D01*
X26151000Y-46826000D01*
X26151000Y-46826000D01*
G37*
G36*
X24451000Y-46826000D02*
G01*
X23249000Y-46826000D01*
X23249000Y-42124000D01*
X24451000Y-42124000D01*
X24451000Y-46826000D01*
X24451000Y-46826000D01*
G37*
G36*
X77066864Y-43031057D02*
G01*
X77241090Y-43065712D01*
X77569324Y-43201671D01*
X77864727Y-43399053D01*
X78115947Y-43650273D01*
X78313329Y-43945676D01*
X78449288Y-44273910D01*
X78518599Y-44622362D01*
X78518599Y-44977640D01*
X78449288Y-45326092D01*
X78313329Y-45654326D01*
X78115947Y-45949729D01*
X77864727Y-46200949D01*
X77569324Y-46398331D01*
X77241090Y-46534290D01*
X77066864Y-46568946D01*
X76892639Y-46603601D01*
X76537359Y-46603601D01*
X76363134Y-46568945D01*
X76188908Y-46534290D01*
X75860674Y-46398331D01*
X75565271Y-46200949D01*
X75314051Y-45949729D01*
X75116669Y-45654326D01*
X74980710Y-45326092D01*
X74911399Y-44977640D01*
X74911399Y-44622362D01*
X74980710Y-44273910D01*
X75116669Y-43945676D01*
X75314051Y-43650273D01*
X75565271Y-43399053D01*
X75860674Y-43201671D01*
X76188908Y-43065712D01*
X76363134Y-43031056D01*
X76537359Y-42996401D01*
X76892639Y-42996401D01*
X77066864Y-43031057D01*
X77066864Y-43031057D01*
G37*
G36*
X42751000Y-45301000D02*
G01*
X37249000Y-45301000D01*
X37249000Y-42299000D01*
X42751000Y-42299000D01*
X42751000Y-45301000D01*
X42751000Y-45301000D01*
G37*
G36*
X53126000Y-41751000D02*
G01*
X51724000Y-41751000D01*
X51724000Y-40049000D01*
X53126000Y-40049000D01*
X53126000Y-41751000D01*
X53126000Y-41751000D01*
G37*
G36*
X56826000Y-41751000D02*
G01*
X55424000Y-41751000D01*
X55424000Y-40049000D01*
X56826000Y-40049000D01*
X56826000Y-41751000D01*
X56826000Y-41751000D01*
G37*
G36*
X54926000Y-41751000D02*
G01*
X53524000Y-41751000D01*
X53524000Y-40049000D01*
X54926000Y-40049000D01*
X54926000Y-41751000D01*
X54926000Y-41751000D01*
G37*
G36*
X49326000Y-41751000D02*
G01*
X47924000Y-41751000D01*
X47924000Y-40049000D01*
X49326000Y-40049000D01*
X49326000Y-41751000D01*
X49326000Y-41751000D01*
G37*
G36*
X51226000Y-41751000D02*
G01*
X49824000Y-41751000D01*
X49824000Y-40049000D01*
X51226000Y-40049000D01*
X51226000Y-41751000D01*
X51226000Y-41751000D01*
G37*
G36*
X39171934Y-37452671D02*
G01*
X39201877Y-37461754D01*
X39229465Y-37476500D01*
X39253651Y-37496349D01*
X39273500Y-37520535D01*
X39288246Y-37548123D01*
X39297329Y-37578066D01*
X39301000Y-37615340D01*
X39301000Y-41384660D01*
X39297329Y-41421934D01*
X39288246Y-41451877D01*
X39273500Y-41479465D01*
X39253651Y-41503651D01*
X39229465Y-41523500D01*
X39201877Y-41538246D01*
X39171934Y-41547329D01*
X39134660Y-41551000D01*
X36865340Y-41551000D01*
X36828066Y-41547329D01*
X36798123Y-41538246D01*
X36770535Y-41523500D01*
X36746349Y-41503651D01*
X36726500Y-41479465D01*
X36711754Y-41451877D01*
X36702671Y-41421934D01*
X36699000Y-41384660D01*
X36699000Y-37615340D01*
X36702671Y-37578066D01*
X36711754Y-37548123D01*
X36726500Y-37520535D01*
X36746349Y-37496349D01*
X36770535Y-37476500D01*
X36798123Y-37461754D01*
X36828066Y-37452671D01*
X36865340Y-37449000D01*
X39134660Y-37449000D01*
X39171934Y-37452671D01*
X39171934Y-37452671D01*
G37*
G36*
X32410170Y-41000803D02*
G01*
X32421877Y-41004355D01*
X32441077Y-41014617D01*
X32463716Y-41023994D01*
X32487749Y-41028774D01*
X32512253Y-41028774D01*
X32536286Y-41023993D01*
X32558923Y-41014617D01*
X32578123Y-41004355D01*
X32589830Y-41000803D01*
X32608138Y-40999000D01*
X33031862Y-40999000D01*
X33050170Y-41000803D01*
X33061875Y-41004354D01*
X33072665Y-41010121D01*
X33082119Y-41017881D01*
X33089879Y-41027335D01*
X33095646Y-41038125D01*
X33099197Y-41049830D01*
X33101000Y-41068138D01*
X33101000Y-41431862D01*
X33099197Y-41450170D01*
X33095646Y-41461875D01*
X33089879Y-41472665D01*
X33082119Y-41482119D01*
X33072665Y-41489879D01*
X33061875Y-41495646D01*
X33050170Y-41499197D01*
X33031862Y-41501000D01*
X32608138Y-41501000D01*
X32589830Y-41499197D01*
X32578123Y-41495645D01*
X32558923Y-41485383D01*
X32536284Y-41476006D01*
X32512251Y-41471226D01*
X32487747Y-41471226D01*
X32463714Y-41476007D01*
X32441077Y-41485383D01*
X32421877Y-41495645D01*
X32410170Y-41499197D01*
X32391862Y-41501000D01*
X31968138Y-41501000D01*
X31949830Y-41499197D01*
X31938125Y-41495646D01*
X31927335Y-41489879D01*
X31917881Y-41482119D01*
X31910121Y-41472665D01*
X31904354Y-41461875D01*
X31900803Y-41450170D01*
X31899000Y-41431862D01*
X31899000Y-41068138D01*
X31900803Y-41049830D01*
X31904354Y-41038125D01*
X31910121Y-41027335D01*
X31917881Y-41017881D01*
X31927335Y-41010121D01*
X31938125Y-41004354D01*
X31949830Y-41000803D01*
X31968138Y-40999000D01*
X32391862Y-40999000D01*
X32410170Y-41000803D01*
X32410170Y-41000803D01*
G37*
G36*
X44864499Y-40303445D02*
G01*
X44901995Y-40314820D01*
X44936554Y-40333292D01*
X44966847Y-40358153D01*
X44991708Y-40388446D01*
X45010180Y-40423005D01*
X45021555Y-40460501D01*
X45026000Y-40505638D01*
X45026000Y-41244362D01*
X45021555Y-41289499D01*
X45010180Y-41326995D01*
X44991708Y-41361554D01*
X44966847Y-41391847D01*
X44936554Y-41416708D01*
X44901995Y-41435180D01*
X44864499Y-41446555D01*
X44819362Y-41451000D01*
X44180638Y-41451000D01*
X44135501Y-41446555D01*
X44098005Y-41435180D01*
X44063446Y-41416708D01*
X44033153Y-41391847D01*
X44008292Y-41361554D01*
X43989820Y-41326995D01*
X43978445Y-41289499D01*
X43974000Y-41244362D01*
X43974000Y-40505638D01*
X43978445Y-40460501D01*
X43989820Y-40423005D01*
X44008292Y-40388446D01*
X44033153Y-40358153D01*
X44063446Y-40333292D01*
X44098005Y-40314820D01*
X44135501Y-40303445D01*
X44180638Y-40299000D01*
X44819362Y-40299000D01*
X44864499Y-40303445D01*
X44864499Y-40303445D01*
G37*
G36*
X28171934Y-37202671D02*
G01*
X28201877Y-37211754D01*
X28229465Y-37226500D01*
X28253651Y-37246349D01*
X28273500Y-37270535D01*
X28288246Y-37298123D01*
X28297329Y-37328066D01*
X28301000Y-37365340D01*
X28301000Y-41134660D01*
X28297329Y-41171934D01*
X28288246Y-41201877D01*
X28273500Y-41229465D01*
X28253651Y-41253651D01*
X28229465Y-41273500D01*
X28201877Y-41288246D01*
X28171934Y-41297329D01*
X28134660Y-41301000D01*
X25865340Y-41301000D01*
X25828066Y-41297329D01*
X25798123Y-41288246D01*
X25770535Y-41273500D01*
X25746349Y-41253651D01*
X25726500Y-41229465D01*
X25711754Y-41201877D01*
X25702671Y-41171934D01*
X25699000Y-41134660D01*
X25699000Y-37365340D01*
X25702671Y-37328066D01*
X25711754Y-37298123D01*
X25726500Y-37270535D01*
X25746349Y-37246349D01*
X25770535Y-37226500D01*
X25798123Y-37211754D01*
X25828066Y-37202671D01*
X25865340Y-37199000D01*
X28134660Y-37199000D01*
X28171934Y-37202671D01*
X28171934Y-37202671D01*
G37*
G36*
X64216823Y-39161312D02*
G01*
X64377242Y-39209975D01*
X64509906Y-39280885D01*
X64525078Y-39288995D01*
X64654659Y-39395340D01*
X64761004Y-39524921D01*
X64761005Y-39524923D01*
X64840024Y-39672757D01*
X64840025Y-39672760D01*
X64849083Y-39702619D01*
X64888687Y-39833176D01*
X64905117Y-39999999D01*
X64888687Y-40166822D01*
X64840024Y-40327241D01*
X64823501Y-40358153D01*
X64761004Y-40475077D01*
X64654659Y-40604658D01*
X64525078Y-40711003D01*
X64525076Y-40711004D01*
X64377242Y-40790023D01*
X64216823Y-40838686D01*
X64091804Y-40850999D01*
X59908196Y-40850999D01*
X59783177Y-40838686D01*
X59622758Y-40790023D01*
X59474924Y-40711004D01*
X59474922Y-40711003D01*
X59345341Y-40604658D01*
X59238996Y-40475077D01*
X59176499Y-40358153D01*
X59159976Y-40327241D01*
X59111313Y-40166822D01*
X59094883Y-39999999D01*
X59111313Y-39833176D01*
X59150917Y-39702619D01*
X59159975Y-39672760D01*
X59159976Y-39672757D01*
X59238995Y-39524923D01*
X59238996Y-39524921D01*
X59345341Y-39395340D01*
X59474922Y-39288995D01*
X59490094Y-39280885D01*
X59622758Y-39209975D01*
X59783177Y-39161312D01*
X59908196Y-39148999D01*
X64091804Y-39148999D01*
X64216823Y-39161312D01*
X64216823Y-39161312D01*
G37*
G36*
X44864499Y-38553445D02*
G01*
X44901995Y-38564820D01*
X44936554Y-38583292D01*
X44966847Y-38608153D01*
X44991708Y-38638446D01*
X45010180Y-38673005D01*
X45021555Y-38710501D01*
X45026000Y-38755638D01*
X45026000Y-39494362D01*
X45021555Y-39539499D01*
X45010180Y-39576995D01*
X44991708Y-39611554D01*
X44966847Y-39641847D01*
X44936554Y-39666708D01*
X44901995Y-39685180D01*
X44864499Y-39696555D01*
X44819362Y-39701000D01*
X44180638Y-39701000D01*
X44135501Y-39696555D01*
X44098005Y-39685180D01*
X44063446Y-39666708D01*
X44033153Y-39641847D01*
X44008292Y-39611554D01*
X43989820Y-39576995D01*
X43978445Y-39539499D01*
X43974000Y-39494362D01*
X43974000Y-38755638D01*
X43978445Y-38710501D01*
X43989820Y-38673005D01*
X44008292Y-38638446D01*
X44033153Y-38608153D01*
X44063446Y-38583292D01*
X44098005Y-38564820D01*
X44135501Y-38553445D01*
X44180638Y-38549000D01*
X44819362Y-38549000D01*
X44864499Y-38553445D01*
X44864499Y-38553445D01*
G37*
G36*
X39171934Y-29452671D02*
G01*
X39201877Y-29461754D01*
X39229465Y-29476500D01*
X39253651Y-29496349D01*
X39273500Y-29520535D01*
X39288246Y-29548123D01*
X39297329Y-29578066D01*
X39301000Y-29615340D01*
X39301000Y-33384660D01*
X39297329Y-33421934D01*
X39288246Y-33451877D01*
X39273500Y-33479465D01*
X39253651Y-33503651D01*
X39229465Y-33523500D01*
X39201877Y-33538246D01*
X39171934Y-33547329D01*
X39134660Y-33551000D01*
X36865340Y-33551000D01*
X36828066Y-33547329D01*
X36798123Y-33538246D01*
X36770535Y-33523500D01*
X36746349Y-33503651D01*
X36726500Y-33479465D01*
X36711754Y-33451877D01*
X36702671Y-33421934D01*
X36699000Y-33384660D01*
X36699000Y-29615340D01*
X36702671Y-29578066D01*
X36711754Y-29548123D01*
X36726500Y-29520535D01*
X36746349Y-29496349D01*
X36770535Y-29476500D01*
X36798123Y-29461754D01*
X36828066Y-29452671D01*
X36865340Y-29449000D01*
X39134660Y-29449000D01*
X39171934Y-29452671D01*
X39171934Y-29452671D01*
G37*
G36*
X64216823Y-31671314D02*
G01*
X64377242Y-31719977D01*
X64509906Y-31790887D01*
X64525078Y-31798997D01*
X64654659Y-31905342D01*
X64761004Y-32034923D01*
X64761005Y-32034925D01*
X64840024Y-32182759D01*
X64888687Y-32343178D01*
X64905117Y-32510001D01*
X64888687Y-32676824D01*
X64840024Y-32837243D01*
X64769114Y-32969907D01*
X64761004Y-32985079D01*
X64654659Y-33114660D01*
X64525078Y-33221005D01*
X64525076Y-33221006D01*
X64377242Y-33300025D01*
X64216823Y-33348688D01*
X64091804Y-33361001D01*
X59908196Y-33361001D01*
X59783177Y-33348688D01*
X59622758Y-33300025D01*
X59474924Y-33221006D01*
X59474922Y-33221005D01*
X59345341Y-33114660D01*
X59238996Y-32985079D01*
X59230886Y-32969907D01*
X59159976Y-32837243D01*
X59111313Y-32676824D01*
X59094883Y-32510001D01*
X59111313Y-32343178D01*
X59159976Y-32182759D01*
X59238995Y-32034925D01*
X59238996Y-32034923D01*
X59345341Y-31905342D01*
X59474922Y-31798997D01*
X59490094Y-31790887D01*
X59622758Y-31719977D01*
X59783177Y-31671314D01*
X59908196Y-31659001D01*
X64091804Y-31659001D01*
X64216823Y-31671314D01*
X64216823Y-31671314D01*
G37*
G36*
X28171934Y-29202671D02*
G01*
X28201877Y-29211754D01*
X28229465Y-29226500D01*
X28253651Y-29246349D01*
X28273500Y-29270535D01*
X28288246Y-29298123D01*
X28297329Y-29328066D01*
X28301000Y-29365340D01*
X28301000Y-33134660D01*
X28297329Y-33171934D01*
X28288246Y-33201877D01*
X28273500Y-33229465D01*
X28253651Y-33253651D01*
X28229465Y-33273500D01*
X28201877Y-33288246D01*
X28171934Y-33297329D01*
X28134660Y-33301000D01*
X25865340Y-33301000D01*
X25828066Y-33297329D01*
X25798123Y-33288246D01*
X25770535Y-33273500D01*
X25746349Y-33253651D01*
X25726500Y-33229465D01*
X25711754Y-33201877D01*
X25702671Y-33171934D01*
X25699000Y-33134660D01*
X25699000Y-29365340D01*
X25702671Y-29328066D01*
X25711754Y-29298123D01*
X25726500Y-29270535D01*
X25746349Y-29246349D01*
X25770535Y-29226500D01*
X25798123Y-29211754D01*
X25828066Y-29202671D01*
X25865340Y-29199000D01*
X28134660Y-29199000D01*
X28171934Y-29202671D01*
X28171934Y-29202671D01*
G37*
G36*
X58201000Y-32351000D02*
G01*
X52299000Y-32351000D01*
X52299000Y-25849000D01*
X58201000Y-25849000D01*
X58201000Y-32351000D01*
X58201000Y-32351000D01*
G37*
G36*
X51450170Y-30970803D02*
G01*
X51461875Y-30974354D01*
X51472665Y-30980121D01*
X51482119Y-30987881D01*
X51489879Y-30997335D01*
X51495646Y-31008125D01*
X51499197Y-31019830D01*
X51501000Y-31038138D01*
X51501000Y-31461862D01*
X51499197Y-31480170D01*
X51495645Y-31491877D01*
X51485383Y-31511077D01*
X51476006Y-31533716D01*
X51471226Y-31557749D01*
X51471226Y-31582253D01*
X51476007Y-31606286D01*
X51485383Y-31628923D01*
X51495645Y-31648123D01*
X51499197Y-31659830D01*
X51501000Y-31678138D01*
X51501000Y-32101862D01*
X51499197Y-32120170D01*
X51495646Y-32131875D01*
X51489879Y-32142665D01*
X51482119Y-32152119D01*
X51472665Y-32159879D01*
X51461875Y-32165646D01*
X51450170Y-32169197D01*
X51431862Y-32171000D01*
X51068138Y-32171000D01*
X51049830Y-32169197D01*
X51038125Y-32165646D01*
X51027335Y-32159879D01*
X51017881Y-32152119D01*
X51010121Y-32142665D01*
X51004354Y-32131875D01*
X51000803Y-32120170D01*
X50999000Y-32101862D01*
X50999000Y-31678138D01*
X51000803Y-31659830D01*
X51004355Y-31648123D01*
X51014617Y-31628923D01*
X51023994Y-31606284D01*
X51028774Y-31582251D01*
X51028774Y-31557747D01*
X51023993Y-31533714D01*
X51014617Y-31511077D01*
X51004355Y-31491877D01*
X51000803Y-31480170D01*
X50999000Y-31461862D01*
X50999000Y-31038138D01*
X51000803Y-31019830D01*
X51004354Y-31008125D01*
X51010121Y-30997335D01*
X51017881Y-30987881D01*
X51027335Y-30980121D01*
X51038125Y-30974354D01*
X51049830Y-30970803D01*
X51068138Y-30969000D01*
X51431862Y-30969000D01*
X51450170Y-30970803D01*
X51450170Y-30970803D01*
G37*
G36*
X77066864Y-25941055D02*
G01*
X77241090Y-25975710D01*
X77569324Y-26111669D01*
X77864727Y-26309051D01*
X78115947Y-26560271D01*
X78313329Y-26855674D01*
X78313330Y-26855676D01*
X78449288Y-27183909D01*
X78514696Y-27512735D01*
X78518599Y-27532360D01*
X78518599Y-27887638D01*
X78449288Y-28236090D01*
X78313329Y-28564324D01*
X78115947Y-28859727D01*
X77864727Y-29110947D01*
X77569324Y-29308329D01*
X77569323Y-29308330D01*
X77569322Y-29308330D01*
X77521675Y-29328066D01*
X77241090Y-29444288D01*
X77117824Y-29468807D01*
X76892639Y-29513599D01*
X76537359Y-29513599D01*
X76312174Y-29468807D01*
X76188908Y-29444288D01*
X75908323Y-29328066D01*
X75860676Y-29308330D01*
X75860675Y-29308330D01*
X75860674Y-29308329D01*
X75565271Y-29110947D01*
X75314051Y-28859727D01*
X75116669Y-28564324D01*
X74980710Y-28236090D01*
X74911399Y-27887638D01*
X74911399Y-27532360D01*
X74915303Y-27512735D01*
X74980710Y-27183909D01*
X75116668Y-26855676D01*
X75116669Y-26855674D01*
X75314051Y-26560271D01*
X75565271Y-26309051D01*
X75860674Y-26111669D01*
X76188908Y-25975710D01*
X76363134Y-25941055D01*
X76537359Y-25906399D01*
X76892639Y-25906399D01*
X77066864Y-25941055D01*
X77066864Y-25941055D01*
G37*
G36*
X48639943Y-21816248D02*
G01*
X49195189Y-22046238D01*
X49402862Y-22185001D01*
X49694899Y-22380134D01*
X50119866Y-22805101D01*
X50257183Y-23010610D01*
X50453762Y-23304811D01*
X50683752Y-23860057D01*
X50801000Y-24449501D01*
X50801000Y-25050499D01*
X50683752Y-25639943D01*
X50453762Y-26195189D01*
X50326660Y-26385410D01*
X50119866Y-26694899D01*
X49694899Y-27119866D01*
X49599053Y-27183908D01*
X49195189Y-27453762D01*
X48639943Y-27683752D01*
X48050499Y-27801000D01*
X47449501Y-27801000D01*
X46860057Y-27683752D01*
X46304811Y-27453762D01*
X45900947Y-27183908D01*
X45805101Y-27119866D01*
X45380134Y-26694899D01*
X45173340Y-26385410D01*
X45046238Y-26195189D01*
X44816248Y-25639943D01*
X44699000Y-25050499D01*
X44699000Y-24449501D01*
X44816248Y-23860057D01*
X45046238Y-23304811D01*
X45242817Y-23010610D01*
X45380134Y-22805101D01*
X45805101Y-22380134D01*
X46097138Y-22185001D01*
X46304811Y-22046238D01*
X46860057Y-21816248D01*
X47449501Y-21699000D01*
X48050499Y-21699000D01*
X48639943Y-21816248D01*
X48639943Y-21816248D01*
G37*
G36*
X40639943Y-21816248D02*
G01*
X41195189Y-22046238D01*
X41402862Y-22185001D01*
X41694899Y-22380134D01*
X42119866Y-22805101D01*
X42257183Y-23010610D01*
X42453762Y-23304811D01*
X42683752Y-23860057D01*
X42801000Y-24449501D01*
X42801000Y-25050499D01*
X42683752Y-25639943D01*
X42453762Y-26195189D01*
X42326660Y-26385410D01*
X42119866Y-26694899D01*
X41694899Y-27119866D01*
X41599053Y-27183908D01*
X41195189Y-27453762D01*
X40639943Y-27683752D01*
X40050499Y-27801000D01*
X39449501Y-27801000D01*
X38860057Y-27683752D01*
X38304811Y-27453762D01*
X37900947Y-27183908D01*
X37805101Y-27119866D01*
X37380134Y-26694899D01*
X37173340Y-26385410D01*
X37046238Y-26195189D01*
X36816248Y-25639943D01*
X36699000Y-25050499D01*
X36699000Y-24449501D01*
X36816248Y-23860057D01*
X37046238Y-23304811D01*
X37242817Y-23010610D01*
X37380134Y-22805101D01*
X37805101Y-22380134D01*
X38097138Y-22185001D01*
X38304811Y-22046238D01*
X38860057Y-21816248D01*
X39449501Y-21699000D01*
X40050499Y-21699000D01*
X40639943Y-21816248D01*
X40639943Y-21816248D01*
G37*
G36*
X34941536Y-21977800D02*
G01*
X34972738Y-21987265D01*
X35001486Y-22002631D01*
X35026687Y-22023313D01*
X35047369Y-22048514D01*
X35062735Y-22077262D01*
X35072200Y-22108464D01*
X35076000Y-22147046D01*
X35076000Y-27352954D01*
X35072200Y-27391536D01*
X35062735Y-27422738D01*
X35047369Y-27451486D01*
X35026687Y-27476687D01*
X35001486Y-27497369D01*
X34972738Y-27512735D01*
X34941536Y-27522200D01*
X34902954Y-27526000D01*
X33047046Y-27526000D01*
X33008464Y-27522200D01*
X32977262Y-27512735D01*
X32948514Y-27497369D01*
X32923313Y-27476687D01*
X32902631Y-27451486D01*
X32887265Y-27422738D01*
X32877800Y-27391536D01*
X32874000Y-27352954D01*
X32874000Y-22147046D01*
X32877800Y-22108464D01*
X32887265Y-22077262D01*
X32902631Y-22048514D01*
X32923313Y-22023313D01*
X32948514Y-22002631D01*
X32977262Y-21987265D01*
X33008464Y-21977800D01*
X33047046Y-21974000D01*
X34902954Y-21974000D01*
X34941536Y-21977800D01*
X34941536Y-21977800D01*
G37*
G36*
X27991536Y-21977800D02*
G01*
X28022738Y-21987265D01*
X28051486Y-22002631D01*
X28076687Y-22023313D01*
X28097369Y-22048514D01*
X28112735Y-22077262D01*
X28122200Y-22108464D01*
X28126000Y-22147046D01*
X28126000Y-27352954D01*
X28122200Y-27391536D01*
X28112735Y-27422738D01*
X28097369Y-27451486D01*
X28076687Y-27476687D01*
X28051486Y-27497369D01*
X28022738Y-27512735D01*
X27991536Y-27522200D01*
X27952954Y-27526000D01*
X26097046Y-27526000D01*
X26058464Y-27522200D01*
X26027262Y-27512735D01*
X25998514Y-27497369D01*
X25973313Y-27476687D01*
X25952631Y-27451486D01*
X25937265Y-27422738D01*
X25927800Y-27391536D01*
X25924000Y-27352954D01*
X25924000Y-22147046D01*
X25927800Y-22108464D01*
X25937265Y-22077262D01*
X25952631Y-22048514D01*
X25973313Y-22023313D01*
X25998514Y-22002631D01*
X26027262Y-21987265D01*
X26058464Y-21977800D01*
X26097046Y-21974000D01*
X27952954Y-21974000D01*
X27991536Y-21977800D01*
X27991536Y-21977800D01*
G37*
G36*
X58181000Y-23951000D02*
G01*
X56879000Y-23951000D01*
X56879000Y-21649000D01*
X58181000Y-21649000D01*
X58181000Y-23951000D01*
X58181000Y-23951000D01*
G37*
G36*
X53621000Y-23951000D02*
G01*
X52319000Y-23951000D01*
X52319000Y-21649000D01*
X53621000Y-21649000D01*
X53621000Y-23951000D01*
X53621000Y-23951000D01*
G37*
G36*
X62201000Y-23801000D02*
G01*
X60099000Y-23801000D01*
X60099000Y-22199000D01*
X62201000Y-22199000D01*
X62201000Y-23801000D01*
X62201000Y-23801000D01*
G37*
G36*
X70401000Y-23801000D02*
G01*
X68299000Y-23801000D01*
X68299000Y-22199000D01*
X70401000Y-22199000D01*
X70401000Y-23801000D01*
X70401000Y-23801000D01*
G37*
G36*
X73533642Y-21754781D02*
G01*
X73679414Y-21815162D01*
X73679416Y-21815163D01*
X73810608Y-21902822D01*
X73922178Y-22014392D01*
X73981727Y-22103514D01*
X74009838Y-22145586D01*
X74070219Y-22291358D01*
X74101000Y-22446107D01*
X74101000Y-22603893D01*
X74070219Y-22758642D01*
X74009838Y-22904414D01*
X74009837Y-22904416D01*
X73922178Y-23035608D01*
X73810608Y-23147178D01*
X73679416Y-23234837D01*
X73679415Y-23234838D01*
X73679414Y-23234838D01*
X73533642Y-23295219D01*
X73378893Y-23326000D01*
X73221107Y-23326000D01*
X73066358Y-23295219D01*
X72920586Y-23234838D01*
X72920585Y-23234838D01*
X72920584Y-23234837D01*
X72789392Y-23147178D01*
X72677822Y-23035608D01*
X72590163Y-22904416D01*
X72590162Y-22904414D01*
X72529781Y-22758642D01*
X72499000Y-22603893D01*
X72499000Y-22446107D01*
X72529781Y-22291358D01*
X72590162Y-22145586D01*
X72618273Y-22103514D01*
X72677822Y-22014392D01*
X72789392Y-21902822D01*
X72920584Y-21815163D01*
X72920586Y-21815162D01*
X73066358Y-21754781D01*
X73221107Y-21724000D01*
X73378893Y-21724000D01*
X73533642Y-21754781D01*
X73533642Y-21754781D01*
G37*
G36*
X22306564Y-20989389D02*
G01*
X22497833Y-21068615D01*
X22497835Y-21068616D01*
X22669973Y-21183635D01*
X22816365Y-21330027D01*
X22931385Y-21502167D01*
X23010611Y-21693436D01*
X23051000Y-21896484D01*
X23051000Y-22103516D01*
X23010611Y-22306564D01*
X22931385Y-22497833D01*
X22931384Y-22497835D01*
X22816365Y-22669973D01*
X22669973Y-22816365D01*
X22497835Y-22931384D01*
X22497834Y-22931385D01*
X22497833Y-22931385D01*
X22306564Y-23010611D01*
X22103516Y-23051000D01*
X21896484Y-23051000D01*
X21693436Y-23010611D01*
X21502167Y-22931385D01*
X21502166Y-22931385D01*
X21502165Y-22931384D01*
X21330027Y-22816365D01*
X21183635Y-22669973D01*
X21068616Y-22497835D01*
X21068615Y-22497833D01*
X20989389Y-22306564D01*
X20949000Y-22103516D01*
X20949000Y-21896484D01*
X20989389Y-21693436D01*
X21068615Y-21502167D01*
X21183635Y-21330027D01*
X21330027Y-21183635D01*
X21502165Y-21068616D01*
X21502167Y-21068615D01*
X21693436Y-20989389D01*
X21896484Y-20949000D01*
X22103516Y-20949000D01*
X22306564Y-20989389D01*
X22306564Y-20989389D01*
G37*
G36*
X78306564Y-20989389D02*
G01*
X78497833Y-21068615D01*
X78497835Y-21068616D01*
X78669973Y-21183635D01*
X78816365Y-21330027D01*
X78931385Y-21502167D01*
X79010611Y-21693436D01*
X79051000Y-21896484D01*
X79051000Y-22103516D01*
X79010611Y-22306564D01*
X78931385Y-22497833D01*
X78931384Y-22497835D01*
X78816365Y-22669973D01*
X78669973Y-22816365D01*
X78497835Y-22931384D01*
X78497834Y-22931385D01*
X78497833Y-22931385D01*
X78306564Y-23010611D01*
X78103516Y-23051000D01*
X77896484Y-23051000D01*
X77693436Y-23010611D01*
X77502167Y-22931385D01*
X77502166Y-22931385D01*
X77502165Y-22931384D01*
X77330027Y-22816365D01*
X77183635Y-22669973D01*
X77068616Y-22497835D01*
X77068615Y-22497833D01*
X76989389Y-22306564D01*
X76949000Y-22103516D01*
X76949000Y-21896484D01*
X76989389Y-21693436D01*
X77068615Y-21502167D01*
X77183635Y-21330027D01*
X77330027Y-21183635D01*
X77502165Y-21068616D01*
X77502167Y-21068615D01*
X77693436Y-20989389D01*
X77896484Y-20949000D01*
X78103516Y-20949000D01*
X78306564Y-20989389D01*
X78306564Y-20989389D01*
G37*
M02*
