G04 #@! TF.GenerationSoftware,KiCad,Pcbnew,(5.1.8)-1*
G04 #@! TF.CreationDate,2020-12-20T23:41:31-05:00*
G04 #@! TF.ProjectId,uBMS-2,75424d53-2d32-42e6-9b69-6361645f7063,rev?*
G04 #@! TF.SameCoordinates,Original*
G04 #@! TF.FileFunction,Legend,Top*
G04 #@! TF.FilePolarity,Positive*
%FSLAX46Y46*%
G04 Gerber Fmt 4.6, Leading zero omitted, Abs format (unit mm)*
G04 Created by KiCad (PCBNEW (5.1.8)-1) date 2020-12-20 23:41:31*
%MOMM*%
%LPD*%
G01*
G04 APERTURE LIST*
%ADD10C,0.100000*%
%ADD11C,0.150000*%
%ADD12C,0.010000*%
%ADD13C,0.120000*%
%ADD14C,0.127000*%
%ADD15C,0.200000*%
%ADD16C,0.152400*%
%ADD17C,0.015000*%
G04 APERTURE END LIST*
D10*
X46158169Y-47339285D02*
X45952812Y-46982142D01*
X45729598Y-47339285D02*
X45823348Y-46589285D01*
X46109062Y-46589285D01*
X46176026Y-46625000D01*
X46207276Y-46660714D01*
X46234062Y-46732142D01*
X46220669Y-46839285D01*
X46176026Y-46910714D01*
X46135848Y-46946428D01*
X46059955Y-46982142D01*
X45774241Y-46982142D01*
X46769776Y-47303571D02*
X46693883Y-47339285D01*
X46551026Y-47339285D01*
X46484062Y-47303571D01*
X46457276Y-47232142D01*
X46492991Y-46946428D01*
X46537633Y-46875000D01*
X46613526Y-46839285D01*
X46756383Y-46839285D01*
X46823348Y-46875000D01*
X46850133Y-46946428D01*
X46841205Y-47017857D01*
X46475133Y-47089285D01*
X47113526Y-46839285D02*
X47229598Y-47339285D01*
X47470669Y-46839285D01*
X48314419Y-46660714D02*
X48354598Y-46625000D01*
X48430491Y-46589285D01*
X48609062Y-46589285D01*
X48676026Y-46625000D01*
X48707276Y-46660714D01*
X48734062Y-46732142D01*
X48725133Y-46803571D01*
X48676026Y-46910714D01*
X48193883Y-47339285D01*
X48658169Y-47339285D01*
D11*
X31357142Y-43678571D02*
X31023809Y-43678571D01*
X31023809Y-44202380D02*
X31023809Y-43202380D01*
X31500000Y-43202380D01*
X32309523Y-43535714D02*
X32309523Y-44202380D01*
X31880952Y-43535714D02*
X31880952Y-44059523D01*
X31928571Y-44154761D01*
X32023809Y-44202380D01*
X32166666Y-44202380D01*
X32261904Y-44154761D01*
X32309523Y-44107142D01*
X32738095Y-44154761D02*
X32833333Y-44202380D01*
X33023809Y-44202380D01*
X33119047Y-44154761D01*
X33166666Y-44059523D01*
X33166666Y-44011904D01*
X33119047Y-43916666D01*
X33023809Y-43869047D01*
X32880952Y-43869047D01*
X32785714Y-43821428D01*
X32738095Y-43726190D01*
X32738095Y-43678571D01*
X32785714Y-43583333D01*
X32880952Y-43535714D01*
X33023809Y-43535714D01*
X33119047Y-43583333D01*
X33976190Y-44154761D02*
X33880952Y-44202380D01*
X33690476Y-44202380D01*
X33595238Y-44154761D01*
X33547619Y-44059523D01*
X33547619Y-43678571D01*
X33595238Y-43583333D01*
X33690476Y-43535714D01*
X33880952Y-43535714D01*
X33976190Y-43583333D01*
X34023809Y-43678571D01*
X34023809Y-43773809D01*
X33547619Y-43869047D01*
X59904761Y-41452380D02*
X59952380Y-41309523D01*
X59952380Y-41071428D01*
X59904761Y-40976190D01*
X59857142Y-40928571D01*
X59761904Y-40880952D01*
X59666666Y-40880952D01*
X59571428Y-40928571D01*
X59523809Y-40976190D01*
X59476190Y-41071428D01*
X59428571Y-41261904D01*
X59380952Y-41357142D01*
X59333333Y-41404761D01*
X59238095Y-41452380D01*
X59142857Y-41452380D01*
X59047619Y-41404761D01*
X59000000Y-41357142D01*
X58952380Y-41261904D01*
X58952380Y-41023809D01*
X59000000Y-40880952D01*
X59285714Y-40547619D02*
X59952380Y-40309523D01*
X59285714Y-40071428D02*
X59952380Y-40309523D01*
X60190476Y-40404761D01*
X60238095Y-40452380D01*
X60285714Y-40547619D01*
X59904761Y-39738095D02*
X59952380Y-39642857D01*
X59952380Y-39452380D01*
X59904761Y-39357142D01*
X59809523Y-39309523D01*
X59761904Y-39309523D01*
X59666666Y-39357142D01*
X59619047Y-39452380D01*
X59619047Y-39595238D01*
X59571428Y-39690476D01*
X59476190Y-39738095D01*
X59428571Y-39738095D01*
X59333333Y-39690476D01*
X59285714Y-39595238D01*
X59285714Y-39452380D01*
X59333333Y-39357142D01*
X59285714Y-39023809D02*
X59285714Y-38642857D01*
X58952380Y-38880952D02*
X59809523Y-38880952D01*
X59904761Y-38833333D01*
X59952380Y-38738095D01*
X59952380Y-38642857D01*
X59904761Y-37928571D02*
X59952380Y-38023809D01*
X59952380Y-38214285D01*
X59904761Y-38309523D01*
X59809523Y-38357142D01*
X59428571Y-38357142D01*
X59333333Y-38309523D01*
X59285714Y-38214285D01*
X59285714Y-38023809D01*
X59333333Y-37928571D01*
X59428571Y-37880952D01*
X59523809Y-37880952D01*
X59619047Y-38357142D01*
X59952380Y-37452380D02*
X59285714Y-37452380D01*
X59380952Y-37452380D02*
X59333333Y-37404761D01*
X59285714Y-37309523D01*
X59285714Y-37166666D01*
X59333333Y-37071428D01*
X59428571Y-37023809D01*
X59952380Y-37023809D01*
X59428571Y-37023809D02*
X59333333Y-36976190D01*
X59285714Y-36880952D01*
X59285714Y-36738095D01*
X59333333Y-36642857D01*
X59428571Y-36595238D01*
X59952380Y-36595238D01*
X46928571Y-40428571D02*
X47071428Y-40476190D01*
X47119047Y-40523809D01*
X47166666Y-40619047D01*
X47166666Y-40761904D01*
X47119047Y-40857142D01*
X47071428Y-40904761D01*
X46976190Y-40952380D01*
X46595238Y-40952380D01*
X46595238Y-39952380D01*
X46928571Y-39952380D01*
X47023809Y-40000000D01*
X47071428Y-40047619D01*
X47119047Y-40142857D01*
X47119047Y-40238095D01*
X47071428Y-40333333D01*
X47023809Y-40380952D01*
X46928571Y-40428571D01*
X46595238Y-40428571D01*
X48023809Y-40952380D02*
X48023809Y-40428571D01*
X47976190Y-40333333D01*
X47880952Y-40285714D01*
X47690476Y-40285714D01*
X47595238Y-40333333D01*
X48023809Y-40904761D02*
X47928571Y-40952380D01*
X47690476Y-40952380D01*
X47595238Y-40904761D01*
X47547619Y-40809523D01*
X47547619Y-40714285D01*
X47595238Y-40619047D01*
X47690476Y-40571428D01*
X47928571Y-40571428D01*
X48023809Y-40523809D01*
X48357142Y-40285714D02*
X48738095Y-40285714D01*
X48500000Y-39952380D02*
X48500000Y-40809523D01*
X48547619Y-40904761D01*
X48642857Y-40952380D01*
X48738095Y-40952380D01*
X48928571Y-40285714D02*
X49309523Y-40285714D01*
X49071428Y-39952380D02*
X49071428Y-40809523D01*
X49119047Y-40904761D01*
X49214285Y-40952380D01*
X49309523Y-40952380D01*
X50023809Y-40904761D02*
X49928571Y-40952380D01*
X49738095Y-40952380D01*
X49642857Y-40904761D01*
X49595238Y-40809523D01*
X49595238Y-40428571D01*
X49642857Y-40333333D01*
X49738095Y-40285714D01*
X49928571Y-40285714D01*
X50023809Y-40333333D01*
X50071428Y-40428571D01*
X50071428Y-40523809D01*
X49595238Y-40619047D01*
X50500000Y-40952380D02*
X50500000Y-40285714D01*
X50500000Y-40476190D02*
X50547619Y-40380952D01*
X50595238Y-40333333D01*
X50690476Y-40285714D01*
X50785714Y-40285714D01*
X51023809Y-40285714D02*
X51261904Y-40952380D01*
X51500000Y-40285714D02*
X51261904Y-40952380D01*
X51166666Y-41190476D01*
X51119047Y-41238095D01*
X51023809Y-41285714D01*
X25380952Y-63178571D02*
X25523809Y-63226190D01*
X25571428Y-63273809D01*
X25619047Y-63369047D01*
X25619047Y-63511904D01*
X25571428Y-63607142D01*
X25523809Y-63654761D01*
X25428571Y-63702380D01*
X25047619Y-63702380D01*
X25047619Y-62702380D01*
X25380952Y-62702380D01*
X25476190Y-62750000D01*
X25523809Y-62797619D01*
X25571428Y-62892857D01*
X25571428Y-62988095D01*
X25523809Y-63083333D01*
X25476190Y-63130952D01*
X25380952Y-63178571D01*
X25047619Y-63178571D01*
X26190476Y-63702380D02*
X26095238Y-63654761D01*
X26047619Y-63607142D01*
X26000000Y-63511904D01*
X26000000Y-63226190D01*
X26047619Y-63130952D01*
X26095238Y-63083333D01*
X26190476Y-63035714D01*
X26333333Y-63035714D01*
X26428571Y-63083333D01*
X26476190Y-63130952D01*
X26523809Y-63226190D01*
X26523809Y-63511904D01*
X26476190Y-63607142D01*
X26428571Y-63654761D01*
X26333333Y-63702380D01*
X26190476Y-63702380D01*
X27095238Y-63702380D02*
X27000000Y-63654761D01*
X26952380Y-63607142D01*
X26904761Y-63511904D01*
X26904761Y-63226190D01*
X26952380Y-63130952D01*
X27000000Y-63083333D01*
X27095238Y-63035714D01*
X27238095Y-63035714D01*
X27333333Y-63083333D01*
X27380952Y-63130952D01*
X27428571Y-63226190D01*
X27428571Y-63511904D01*
X27380952Y-63607142D01*
X27333333Y-63654761D01*
X27238095Y-63702380D01*
X27095238Y-63702380D01*
X27714285Y-63035714D02*
X28095238Y-63035714D01*
X27857142Y-62702380D02*
X27857142Y-63559523D01*
X27904761Y-63654761D01*
X28000000Y-63702380D01*
X28095238Y-63702380D01*
X21761904Y-63178571D02*
X22095238Y-63178571D01*
X22238095Y-63702380D02*
X21761904Y-63702380D01*
X21761904Y-62702380D01*
X22238095Y-62702380D01*
X22666666Y-63702380D02*
X22666666Y-62702380D01*
X23238095Y-63702380D01*
X23238095Y-62702380D01*
X46559523Y-107952380D02*
X45988095Y-107952380D01*
X46273809Y-107952380D02*
X46273809Y-106952380D01*
X46178571Y-107095238D01*
X46083333Y-107190476D01*
X45988095Y-107238095D01*
X46940476Y-107047619D02*
X46988095Y-107000000D01*
X47083333Y-106952380D01*
X47321428Y-106952380D01*
X47416666Y-107000000D01*
X47464285Y-107047619D01*
X47511904Y-107142857D01*
X47511904Y-107238095D01*
X47464285Y-107380952D01*
X46892857Y-107952380D01*
X47511904Y-107952380D01*
X28285714Y-103202380D02*
X27714285Y-103202380D01*
X28000000Y-103202380D02*
X28000000Y-102202380D01*
X27904761Y-102345238D01*
X27809523Y-102440476D01*
X27714285Y-102488095D01*
X26238095Y-106750000D02*
X26142857Y-106702380D01*
X26000000Y-106702380D01*
X25857142Y-106750000D01*
X25761904Y-106845238D01*
X25714285Y-106940476D01*
X25666666Y-107130952D01*
X25666666Y-107273809D01*
X25714285Y-107464285D01*
X25761904Y-107559523D01*
X25857142Y-107654761D01*
X26000000Y-107702380D01*
X26095238Y-107702380D01*
X26238095Y-107654761D01*
X26285714Y-107607142D01*
X26285714Y-107273809D01*
X26095238Y-107273809D01*
X26714285Y-107702380D02*
X26714285Y-106702380D01*
X27285714Y-107702380D01*
X27285714Y-106702380D01*
X27761904Y-107702380D02*
X27761904Y-106702380D01*
X28000000Y-106702380D01*
X28142857Y-106750000D01*
X28238095Y-106845238D01*
X28285714Y-106940476D01*
X28333333Y-107130952D01*
X28333333Y-107273809D01*
X28285714Y-107464285D01*
X28238095Y-107559523D01*
X28142857Y-107654761D01*
X28000000Y-107702380D01*
X27761904Y-107702380D01*
X53464285Y-101297619D02*
X53511904Y-101250000D01*
X53607142Y-101202380D01*
X53845238Y-101202380D01*
X53940476Y-101250000D01*
X53988095Y-101297619D01*
X54035714Y-101392857D01*
X54035714Y-101488095D01*
X53988095Y-101630952D01*
X53416666Y-102202380D01*
X54035714Y-102202380D01*
X54035714Y-106452380D02*
X53464285Y-106452380D01*
X53750000Y-106452380D02*
X53750000Y-105452380D01*
X53654761Y-105595238D01*
X53559523Y-105690476D01*
X53464285Y-105738095D01*
X52583333Y-57154761D02*
X52726190Y-57202380D01*
X52964285Y-57202380D01*
X53059523Y-57154761D01*
X53107142Y-57107142D01*
X53154761Y-57011904D01*
X53154761Y-56916666D01*
X53107142Y-56821428D01*
X53059523Y-56773809D01*
X52964285Y-56726190D01*
X52773809Y-56678571D01*
X52678571Y-56630952D01*
X52630952Y-56583333D01*
X52583333Y-56488095D01*
X52583333Y-56392857D01*
X52630952Y-56297619D01*
X52678571Y-56250000D01*
X52773809Y-56202380D01*
X53011904Y-56202380D01*
X53154761Y-56250000D01*
X53440476Y-56535714D02*
X53821428Y-56535714D01*
X53583333Y-56202380D02*
X53583333Y-57059523D01*
X53630952Y-57154761D01*
X53726190Y-57202380D01*
X53821428Y-57202380D01*
X54583333Y-57202380D02*
X54583333Y-56678571D01*
X54535714Y-56583333D01*
X54440476Y-56535714D01*
X54250000Y-56535714D01*
X54154761Y-56583333D01*
X54583333Y-57154761D02*
X54488095Y-57202380D01*
X54250000Y-57202380D01*
X54154761Y-57154761D01*
X54107142Y-57059523D01*
X54107142Y-56964285D01*
X54154761Y-56869047D01*
X54250000Y-56821428D01*
X54488095Y-56821428D01*
X54583333Y-56773809D01*
X54916666Y-56535714D02*
X55297619Y-56535714D01*
X55059523Y-56202380D02*
X55059523Y-57059523D01*
X55107142Y-57154761D01*
X55202380Y-57202380D01*
X55297619Y-57202380D01*
X56059523Y-56535714D02*
X56059523Y-57202380D01*
X55630952Y-56535714D02*
X55630952Y-57059523D01*
X55678571Y-57154761D01*
X55773809Y-57202380D01*
X55916666Y-57202380D01*
X56011904Y-57154761D01*
X56059523Y-57107142D01*
X56488095Y-57154761D02*
X56583333Y-57202380D01*
X56773809Y-57202380D01*
X56869047Y-57154761D01*
X56916666Y-57059523D01*
X56916666Y-57011904D01*
X56869047Y-56916666D01*
X56773809Y-56869047D01*
X56630952Y-56869047D01*
X56535714Y-56821428D01*
X56488095Y-56726190D01*
X56488095Y-56678571D01*
X56535714Y-56583333D01*
X56630952Y-56535714D01*
X56773809Y-56535714D01*
X56869047Y-56583333D01*
X30428571Y-79904761D02*
X30476190Y-79761904D01*
X30523809Y-79714285D01*
X30619047Y-79666666D01*
X30761904Y-79666666D01*
X30857142Y-79714285D01*
X30904761Y-79761904D01*
X30952380Y-79857142D01*
X30952380Y-80238095D01*
X29952380Y-80238095D01*
X29952380Y-79904761D01*
X30000000Y-79809523D01*
X30047619Y-79761904D01*
X30142857Y-79714285D01*
X30238095Y-79714285D01*
X30333333Y-79761904D01*
X30380952Y-79809523D01*
X30428571Y-79904761D01*
X30428571Y-80238095D01*
X30952380Y-78809523D02*
X30428571Y-78809523D01*
X30333333Y-78857142D01*
X30285714Y-78952380D01*
X30285714Y-79142857D01*
X30333333Y-79238095D01*
X30904761Y-78809523D02*
X30952380Y-78904761D01*
X30952380Y-79142857D01*
X30904761Y-79238095D01*
X30809523Y-79285714D01*
X30714285Y-79285714D01*
X30619047Y-79238095D01*
X30571428Y-79142857D01*
X30571428Y-78904761D01*
X30523809Y-78809523D01*
X30952380Y-78190476D02*
X30904761Y-78285714D01*
X30809523Y-78333333D01*
X29952380Y-78333333D01*
X30952380Y-77380952D02*
X30428571Y-77380952D01*
X30333333Y-77428571D01*
X30285714Y-77523809D01*
X30285714Y-77714285D01*
X30333333Y-77809523D01*
X30904761Y-77380952D02*
X30952380Y-77476190D01*
X30952380Y-77714285D01*
X30904761Y-77809523D01*
X30809523Y-77857142D01*
X30714285Y-77857142D01*
X30619047Y-77809523D01*
X30571428Y-77714285D01*
X30571428Y-77476190D01*
X30523809Y-77380952D01*
X30285714Y-76904761D02*
X30952380Y-76904761D01*
X30380952Y-76904761D02*
X30333333Y-76857142D01*
X30285714Y-76761904D01*
X30285714Y-76619047D01*
X30333333Y-76523809D01*
X30428571Y-76476190D01*
X30952380Y-76476190D01*
X30904761Y-75571428D02*
X30952380Y-75666666D01*
X30952380Y-75857142D01*
X30904761Y-75952380D01*
X30857142Y-76000000D01*
X30761904Y-76047619D01*
X30476190Y-76047619D01*
X30380952Y-76000000D01*
X30333333Y-75952380D01*
X30285714Y-75857142D01*
X30285714Y-75666666D01*
X30333333Y-75571428D01*
X30904761Y-74761904D02*
X30952380Y-74857142D01*
X30952380Y-75047619D01*
X30904761Y-75142857D01*
X30809523Y-75190476D01*
X30428571Y-75190476D01*
X30333333Y-75142857D01*
X30285714Y-75047619D01*
X30285714Y-74857142D01*
X30333333Y-74761904D01*
X30428571Y-74714285D01*
X30523809Y-74714285D01*
X30619047Y-75190476D01*
X71619047Y-102321428D02*
X72380952Y-102321428D01*
X72000000Y-102702380D02*
X72000000Y-101940476D01*
X58595238Y-99702380D02*
X59166666Y-99702380D01*
X58880952Y-100702380D02*
X58880952Y-99702380D01*
X59880952Y-100654761D02*
X59785714Y-100702380D01*
X59595238Y-100702380D01*
X59500000Y-100654761D01*
X59452380Y-100559523D01*
X59452380Y-100178571D01*
X59500000Y-100083333D01*
X59595238Y-100035714D01*
X59785714Y-100035714D01*
X59880952Y-100083333D01*
X59928571Y-100178571D01*
X59928571Y-100273809D01*
X59452380Y-100369047D01*
X60357142Y-100702380D02*
X60357142Y-100035714D01*
X60357142Y-100130952D02*
X60404761Y-100083333D01*
X60500000Y-100035714D01*
X60642857Y-100035714D01*
X60738095Y-100083333D01*
X60785714Y-100178571D01*
X60785714Y-100702380D01*
X60785714Y-100178571D02*
X60833333Y-100083333D01*
X60928571Y-100035714D01*
X61071428Y-100035714D01*
X61166666Y-100083333D01*
X61214285Y-100178571D01*
X61214285Y-100702380D01*
X61690476Y-100035714D02*
X61690476Y-101035714D01*
X61690476Y-100083333D02*
X61785714Y-100035714D01*
X61976190Y-100035714D01*
X62071428Y-100083333D01*
X62119047Y-100130952D01*
X62166666Y-100226190D01*
X62166666Y-100511904D01*
X62119047Y-100607142D01*
X62071428Y-100654761D01*
X61976190Y-100702380D01*
X61785714Y-100702380D01*
X61690476Y-100654761D01*
X63309523Y-100654761D02*
X63452380Y-100702380D01*
X63690476Y-100702380D01*
X63785714Y-100654761D01*
X63833333Y-100607142D01*
X63880952Y-100511904D01*
X63880952Y-100416666D01*
X63833333Y-100321428D01*
X63785714Y-100273809D01*
X63690476Y-100226190D01*
X63500000Y-100178571D01*
X63404761Y-100130952D01*
X63357142Y-100083333D01*
X63309523Y-99988095D01*
X63309523Y-99892857D01*
X63357142Y-99797619D01*
X63404761Y-99750000D01*
X63500000Y-99702380D01*
X63738095Y-99702380D01*
X63880952Y-99750000D01*
X64690476Y-100654761D02*
X64595238Y-100702380D01*
X64404761Y-100702380D01*
X64309523Y-100654761D01*
X64261904Y-100559523D01*
X64261904Y-100178571D01*
X64309523Y-100083333D01*
X64404761Y-100035714D01*
X64595238Y-100035714D01*
X64690476Y-100083333D01*
X64738095Y-100178571D01*
X64738095Y-100273809D01*
X64261904Y-100369047D01*
X65166666Y-100035714D02*
X65166666Y-100702380D01*
X65166666Y-100130952D02*
X65214285Y-100083333D01*
X65309523Y-100035714D01*
X65452380Y-100035714D01*
X65547619Y-100083333D01*
X65595238Y-100178571D01*
X65595238Y-100702380D01*
X66023809Y-100654761D02*
X66119047Y-100702380D01*
X66309523Y-100702380D01*
X66404761Y-100654761D01*
X66452380Y-100559523D01*
X66452380Y-100511904D01*
X66404761Y-100416666D01*
X66309523Y-100369047D01*
X66166666Y-100369047D01*
X66071428Y-100321428D01*
X66023809Y-100226190D01*
X66023809Y-100178571D01*
X66071428Y-100083333D01*
X66166666Y-100035714D01*
X66309523Y-100035714D01*
X66404761Y-100083333D01*
X67261904Y-100654761D02*
X67166666Y-100702380D01*
X66976190Y-100702380D01*
X66880952Y-100654761D01*
X66833333Y-100559523D01*
X66833333Y-100178571D01*
X66880952Y-100083333D01*
X66976190Y-100035714D01*
X67166666Y-100035714D01*
X67261904Y-100083333D01*
X67309523Y-100178571D01*
X67309523Y-100273809D01*
X66833333Y-100369047D01*
X32011904Y-99702380D02*
X32345238Y-100702380D01*
X32678571Y-99702380D01*
X33154761Y-100702380D02*
X33059523Y-100654761D01*
X33011904Y-100607142D01*
X32964285Y-100511904D01*
X32964285Y-100226190D01*
X33011904Y-100130952D01*
X33059523Y-100083333D01*
X33154761Y-100035714D01*
X33297619Y-100035714D01*
X33392857Y-100083333D01*
X33440476Y-100130952D01*
X33488095Y-100226190D01*
X33488095Y-100511904D01*
X33440476Y-100607142D01*
X33392857Y-100654761D01*
X33297619Y-100702380D01*
X33154761Y-100702380D01*
X34059523Y-100702380D02*
X33964285Y-100654761D01*
X33916666Y-100559523D01*
X33916666Y-99702380D01*
X34297619Y-100035714D02*
X34678571Y-100035714D01*
X34440476Y-99702380D02*
X34440476Y-100559523D01*
X34488095Y-100654761D01*
X34583333Y-100702380D01*
X34678571Y-100702380D01*
X35440476Y-100702380D02*
X35440476Y-100178571D01*
X35392857Y-100083333D01*
X35297619Y-100035714D01*
X35107142Y-100035714D01*
X35011904Y-100083333D01*
X35440476Y-100654761D02*
X35345238Y-100702380D01*
X35107142Y-100702380D01*
X35011904Y-100654761D01*
X34964285Y-100559523D01*
X34964285Y-100464285D01*
X35011904Y-100369047D01*
X35107142Y-100321428D01*
X35345238Y-100321428D01*
X35440476Y-100273809D01*
X36345238Y-100035714D02*
X36345238Y-100845238D01*
X36297619Y-100940476D01*
X36250000Y-100988095D01*
X36154761Y-101035714D01*
X36011904Y-101035714D01*
X35916666Y-100988095D01*
X36345238Y-100654761D02*
X36250000Y-100702380D01*
X36059523Y-100702380D01*
X35964285Y-100654761D01*
X35916666Y-100607142D01*
X35869047Y-100511904D01*
X35869047Y-100226190D01*
X35916666Y-100130952D01*
X35964285Y-100083333D01*
X36059523Y-100035714D01*
X36250000Y-100035714D01*
X36345238Y-100083333D01*
X37202380Y-100654761D02*
X37107142Y-100702380D01*
X36916666Y-100702380D01*
X36821428Y-100654761D01*
X36773809Y-100559523D01*
X36773809Y-100178571D01*
X36821428Y-100083333D01*
X36916666Y-100035714D01*
X37107142Y-100035714D01*
X37202380Y-100083333D01*
X37250000Y-100178571D01*
X37250000Y-100273809D01*
X36773809Y-100369047D01*
X38392857Y-100654761D02*
X38535714Y-100702380D01*
X38773809Y-100702380D01*
X38869047Y-100654761D01*
X38916666Y-100607142D01*
X38964285Y-100511904D01*
X38964285Y-100416666D01*
X38916666Y-100321428D01*
X38869047Y-100273809D01*
X38773809Y-100226190D01*
X38583333Y-100178571D01*
X38488095Y-100130952D01*
X38440476Y-100083333D01*
X38392857Y-99988095D01*
X38392857Y-99892857D01*
X38440476Y-99797619D01*
X38488095Y-99750000D01*
X38583333Y-99702380D01*
X38821428Y-99702380D01*
X38964285Y-99750000D01*
X39773809Y-100654761D02*
X39678571Y-100702380D01*
X39488095Y-100702380D01*
X39392857Y-100654761D01*
X39345238Y-100559523D01*
X39345238Y-100178571D01*
X39392857Y-100083333D01*
X39488095Y-100035714D01*
X39678571Y-100035714D01*
X39773809Y-100083333D01*
X39821428Y-100178571D01*
X39821428Y-100273809D01*
X39345238Y-100369047D01*
X40250000Y-100035714D02*
X40250000Y-100702380D01*
X40250000Y-100130952D02*
X40297619Y-100083333D01*
X40392857Y-100035714D01*
X40535714Y-100035714D01*
X40630952Y-100083333D01*
X40678571Y-100178571D01*
X40678571Y-100702380D01*
X41107142Y-100654761D02*
X41202380Y-100702380D01*
X41392857Y-100702380D01*
X41488095Y-100654761D01*
X41535714Y-100559523D01*
X41535714Y-100511904D01*
X41488095Y-100416666D01*
X41392857Y-100369047D01*
X41250000Y-100369047D01*
X41154761Y-100321428D01*
X41107142Y-100226190D01*
X41107142Y-100178571D01*
X41154761Y-100083333D01*
X41250000Y-100035714D01*
X41392857Y-100035714D01*
X41488095Y-100083333D01*
X42345238Y-100654761D02*
X42250000Y-100702380D01*
X42059523Y-100702380D01*
X41964285Y-100654761D01*
X41916666Y-100559523D01*
X41916666Y-100178571D01*
X41964285Y-100083333D01*
X42059523Y-100035714D01*
X42250000Y-100035714D01*
X42345238Y-100083333D01*
X42392857Y-100178571D01*
X42392857Y-100273809D01*
X41916666Y-100369047D01*
X68559523Y-98952380D02*
X67988095Y-98952380D01*
X68273809Y-98952380D02*
X68273809Y-97952380D01*
X68178571Y-98095238D01*
X68083333Y-98190476D01*
X67988095Y-98238095D01*
X68940476Y-98047619D02*
X68988095Y-98000000D01*
X69083333Y-97952380D01*
X69321428Y-97952380D01*
X69416666Y-98000000D01*
X69464285Y-98047619D01*
X69511904Y-98142857D01*
X69511904Y-98238095D01*
X69464285Y-98380952D01*
X68892857Y-98952380D01*
X69511904Y-98952380D01*
X52559523Y-99202380D02*
X51988095Y-99202380D01*
X52273809Y-99202380D02*
X52273809Y-98202380D01*
X52178571Y-98345238D01*
X52083333Y-98440476D01*
X51988095Y-98488095D01*
X53511904Y-99202380D02*
X52940476Y-99202380D01*
X53226190Y-99202380D02*
X53226190Y-98202380D01*
X53130952Y-98345238D01*
X53035714Y-98440476D01*
X52940476Y-98488095D01*
X35309523Y-99202380D02*
X34738095Y-99202380D01*
X35023809Y-99202380D02*
X35023809Y-98202380D01*
X34928571Y-98345238D01*
X34833333Y-98440476D01*
X34738095Y-98488095D01*
X35928571Y-98202380D02*
X36023809Y-98202380D01*
X36119047Y-98250000D01*
X36166666Y-98297619D01*
X36214285Y-98392857D01*
X36261904Y-98583333D01*
X36261904Y-98821428D01*
X36214285Y-99011904D01*
X36166666Y-99107142D01*
X36119047Y-99154761D01*
X36023809Y-99202380D01*
X35928571Y-99202380D01*
X35833333Y-99154761D01*
X35785714Y-99107142D01*
X35738095Y-99011904D01*
X35690476Y-98821428D01*
X35690476Y-98583333D01*
X35738095Y-98392857D01*
X35785714Y-98297619D01*
X35833333Y-98250000D01*
X35928571Y-98202380D01*
X68559523Y-87952380D02*
X68750000Y-87952380D01*
X68845238Y-87904761D01*
X68892857Y-87857142D01*
X68988095Y-87714285D01*
X69035714Y-87523809D01*
X69035714Y-87142857D01*
X68988095Y-87047619D01*
X68940476Y-87000000D01*
X68845238Y-86952380D01*
X68654761Y-86952380D01*
X68559523Y-87000000D01*
X68511904Y-87047619D01*
X68464285Y-87142857D01*
X68464285Y-87380952D01*
X68511904Y-87476190D01*
X68559523Y-87523809D01*
X68654761Y-87571428D01*
X68845238Y-87571428D01*
X68940476Y-87523809D01*
X68988095Y-87476190D01*
X69035714Y-87380952D01*
X52404761Y-87380952D02*
X52309523Y-87333333D01*
X52261904Y-87285714D01*
X52214285Y-87190476D01*
X52214285Y-87142857D01*
X52261904Y-87047619D01*
X52309523Y-87000000D01*
X52404761Y-86952380D01*
X52595238Y-86952380D01*
X52690476Y-87000000D01*
X52738095Y-87047619D01*
X52785714Y-87142857D01*
X52785714Y-87190476D01*
X52738095Y-87285714D01*
X52690476Y-87333333D01*
X52595238Y-87380952D01*
X52404761Y-87380952D01*
X52309523Y-87428571D01*
X52261904Y-87476190D01*
X52214285Y-87571428D01*
X52214285Y-87761904D01*
X52261904Y-87857142D01*
X52309523Y-87904761D01*
X52404761Y-87952380D01*
X52595238Y-87952380D01*
X52690476Y-87904761D01*
X52738095Y-87857142D01*
X52785714Y-87761904D01*
X52785714Y-87571428D01*
X52738095Y-87476190D01*
X52690476Y-87428571D01*
X52595238Y-87380952D01*
X35166666Y-86952380D02*
X35833333Y-86952380D01*
X35404761Y-87952380D01*
X68940476Y-75702380D02*
X68750000Y-75702380D01*
X68654761Y-75750000D01*
X68607142Y-75797619D01*
X68511904Y-75940476D01*
X68464285Y-76130952D01*
X68464285Y-76511904D01*
X68511904Y-76607142D01*
X68559523Y-76654761D01*
X68654761Y-76702380D01*
X68845238Y-76702380D01*
X68940476Y-76654761D01*
X68988095Y-76607142D01*
X69035714Y-76511904D01*
X69035714Y-76273809D01*
X68988095Y-76178571D01*
X68940476Y-76130952D01*
X68845238Y-76083333D01*
X68654761Y-76083333D01*
X68559523Y-76130952D01*
X68511904Y-76178571D01*
X68464285Y-76273809D01*
X52738095Y-75702380D02*
X52261904Y-75702380D01*
X52214285Y-76178571D01*
X52261904Y-76130952D01*
X52357142Y-76083333D01*
X52595238Y-76083333D01*
X52690476Y-76130952D01*
X52738095Y-76178571D01*
X52785714Y-76273809D01*
X52785714Y-76511904D01*
X52738095Y-76607142D01*
X52690476Y-76654761D01*
X52595238Y-76702380D01*
X52357142Y-76702380D01*
X52261904Y-76654761D01*
X52214285Y-76607142D01*
X35690476Y-76035714D02*
X35690476Y-76702380D01*
X35452380Y-75654761D02*
X35214285Y-76369047D01*
X35833333Y-76369047D01*
X68166666Y-64452380D02*
X68785714Y-64452380D01*
X68452380Y-64833333D01*
X68595238Y-64833333D01*
X68690476Y-64880952D01*
X68738095Y-64928571D01*
X68785714Y-65023809D01*
X68785714Y-65261904D01*
X68738095Y-65357142D01*
X68690476Y-65404761D01*
X68595238Y-65452380D01*
X68309523Y-65452380D01*
X68214285Y-65404761D01*
X68166666Y-65357142D01*
X52214285Y-64547619D02*
X52261904Y-64500000D01*
X52357142Y-64452380D01*
X52595238Y-64452380D01*
X52690476Y-64500000D01*
X52738095Y-64547619D01*
X52785714Y-64642857D01*
X52785714Y-64738095D01*
X52738095Y-64880952D01*
X52166666Y-65452380D01*
X52785714Y-65452380D01*
X35785714Y-65452380D02*
X35214285Y-65452380D01*
X35500000Y-65452380D02*
X35500000Y-64452380D01*
X35404761Y-64595238D01*
X35309523Y-64690476D01*
X35214285Y-64738095D01*
D12*
G36*
X41991457Y-44720203D02*
G01*
X41991563Y-44845385D01*
X41991847Y-44963650D01*
X41992298Y-45074030D01*
X41992907Y-45175559D01*
X41993665Y-45267271D01*
X41994561Y-45348200D01*
X41995587Y-45417379D01*
X41996732Y-45473841D01*
X41997987Y-45516621D01*
X41999343Y-45544752D01*
X41999722Y-45549684D01*
X42010776Y-45640060D01*
X42027243Y-45717109D01*
X42049787Y-45782653D01*
X42079069Y-45838510D01*
X42115751Y-45886503D01*
X42126239Y-45897571D01*
X42182908Y-45944033D01*
X42247628Y-45977798D01*
X42318844Y-45998805D01*
X42395002Y-46006995D01*
X42474547Y-46002309D01*
X42555924Y-45984686D01*
X42637579Y-45954069D01*
X42703033Y-45919596D01*
X42748746Y-45887621D01*
X42798681Y-45844711D01*
X42849621Y-45793954D01*
X42898352Y-45738440D01*
X42919614Y-45711535D01*
X42975625Y-45637988D01*
X42975625Y-43984000D01*
X43323991Y-43984000D01*
X43326987Y-44863078D01*
X43327478Y-45001626D01*
X43327962Y-45125212D01*
X43328455Y-45234751D01*
X43328974Y-45331156D01*
X43329535Y-45415341D01*
X43330152Y-45488219D01*
X43330842Y-45550704D01*
X43331621Y-45603710D01*
X43332505Y-45648151D01*
X43333509Y-45684940D01*
X43334649Y-45714990D01*
X43335941Y-45739217D01*
X43337402Y-45758532D01*
X43339046Y-45773850D01*
X43340890Y-45786085D01*
X43342949Y-45796150D01*
X43343186Y-45797149D01*
X43360248Y-45850999D01*
X43383069Y-45890884D01*
X43413235Y-45918153D01*
X43452333Y-45934160D01*
X43501950Y-45940254D01*
X43511406Y-45940402D01*
X43545041Y-45939323D01*
X43570684Y-45934565D01*
X43596119Y-45924205D01*
X43613005Y-45915334D01*
X43659042Y-45890098D01*
X43656661Y-45931017D01*
X43654281Y-45971935D01*
X43455844Y-46081211D01*
X43403089Y-46109876D01*
X43354315Y-46135644D01*
X43311448Y-46157552D01*
X43276413Y-46174640D01*
X43251136Y-46185945D01*
X43237543Y-46190507D01*
X43236846Y-46190556D01*
X43219357Y-46187100D01*
X43193676Y-46177994D01*
X43166808Y-46165901D01*
X43129083Y-46142693D01*
X43097924Y-46113132D01*
X43072287Y-46075314D01*
X43051127Y-46027337D01*
X43033399Y-45967296D01*
X43018479Y-45895643D01*
X43012196Y-45862374D01*
X43006355Y-45834636D01*
X43001829Y-45816439D01*
X43000275Y-45812059D01*
X42992726Y-45813485D01*
X42974989Y-45825551D01*
X42947974Y-45847547D01*
X42912594Y-45878761D01*
X42900155Y-45890121D01*
X42812496Y-45968692D01*
X42732975Y-46035317D01*
X42660174Y-46090728D01*
X42592674Y-46135656D01*
X42529058Y-46170831D01*
X42467907Y-46196986D01*
X42407803Y-46214850D01*
X42347328Y-46225156D01*
X42285064Y-46228634D01*
X42245375Y-46227704D01*
X42150895Y-46216930D01*
X42066631Y-46194296D01*
X41991972Y-46159367D01*
X41926309Y-46111708D01*
X41869030Y-46050882D01*
X41819525Y-45976455D01*
X41780521Y-45896073D01*
X41752634Y-45829469D01*
X41755696Y-46023938D01*
X41756686Y-46080341D01*
X41757899Y-46127591D01*
X41759627Y-46168809D01*
X41762163Y-46207118D01*
X41765799Y-46245638D01*
X41770827Y-46287491D01*
X41777541Y-46335800D01*
X41786233Y-46393686D01*
X41796605Y-46460500D01*
X41811200Y-46556712D01*
X41822518Y-46638892D01*
X41830514Y-46708550D01*
X41835141Y-46767198D01*
X41836353Y-46816345D01*
X41834105Y-46857503D01*
X41828350Y-46892183D01*
X41819042Y-46921894D01*
X41806135Y-46948149D01*
X41789583Y-46972457D01*
X41780631Y-46983520D01*
X41745150Y-47013814D01*
X41701594Y-47032709D01*
X41653852Y-47039237D01*
X41605813Y-47032431D01*
X41596396Y-47029342D01*
X41552781Y-47005222D01*
X41516164Y-46967594D01*
X41493983Y-46931006D01*
X41483708Y-46908722D01*
X41477199Y-46889319D01*
X41473671Y-46868102D01*
X41472340Y-46840377D01*
X41472420Y-46801813D01*
X41474870Y-46752384D01*
X41481128Y-46689347D01*
X41490992Y-46614456D01*
X41501891Y-46543844D01*
X41512889Y-46475618D01*
X41522451Y-46414023D01*
X41530993Y-46355907D01*
X41538929Y-46298116D01*
X41546677Y-46237496D01*
X41554653Y-46170894D01*
X41563271Y-46095158D01*
X41572949Y-46007133D01*
X41574140Y-45996156D01*
X41584205Y-45901767D01*
X41593118Y-45814243D01*
X41600960Y-45731911D01*
X41607809Y-45653095D01*
X41613744Y-45576119D01*
X41618844Y-45499309D01*
X41623188Y-45420988D01*
X41626855Y-45339482D01*
X41629925Y-45253115D01*
X41632475Y-45160212D01*
X41634585Y-45059097D01*
X41636334Y-44948096D01*
X41637802Y-44825533D01*
X41639066Y-44689732D01*
X41639731Y-44605109D01*
X41644359Y-43984000D01*
X41991375Y-43984000D01*
X41991457Y-44720203D01*
G37*
X41991457Y-44720203D02*
X41991563Y-44845385D01*
X41991847Y-44963650D01*
X41992298Y-45074030D01*
X41992907Y-45175559D01*
X41993665Y-45267271D01*
X41994561Y-45348200D01*
X41995587Y-45417379D01*
X41996732Y-45473841D01*
X41997987Y-45516621D01*
X41999343Y-45544752D01*
X41999722Y-45549684D01*
X42010776Y-45640060D01*
X42027243Y-45717109D01*
X42049787Y-45782653D01*
X42079069Y-45838510D01*
X42115751Y-45886503D01*
X42126239Y-45897571D01*
X42182908Y-45944033D01*
X42247628Y-45977798D01*
X42318844Y-45998805D01*
X42395002Y-46006995D01*
X42474547Y-46002309D01*
X42555924Y-45984686D01*
X42637579Y-45954069D01*
X42703033Y-45919596D01*
X42748746Y-45887621D01*
X42798681Y-45844711D01*
X42849621Y-45793954D01*
X42898352Y-45738440D01*
X42919614Y-45711535D01*
X42975625Y-45637988D01*
X42975625Y-43984000D01*
X43323991Y-43984000D01*
X43326987Y-44863078D01*
X43327478Y-45001626D01*
X43327962Y-45125212D01*
X43328455Y-45234751D01*
X43328974Y-45331156D01*
X43329535Y-45415341D01*
X43330152Y-45488219D01*
X43330842Y-45550704D01*
X43331621Y-45603710D01*
X43332505Y-45648151D01*
X43333509Y-45684940D01*
X43334649Y-45714990D01*
X43335941Y-45739217D01*
X43337402Y-45758532D01*
X43339046Y-45773850D01*
X43340890Y-45786085D01*
X43342949Y-45796150D01*
X43343186Y-45797149D01*
X43360248Y-45850999D01*
X43383069Y-45890884D01*
X43413235Y-45918153D01*
X43452333Y-45934160D01*
X43501950Y-45940254D01*
X43511406Y-45940402D01*
X43545041Y-45939323D01*
X43570684Y-45934565D01*
X43596119Y-45924205D01*
X43613005Y-45915334D01*
X43659042Y-45890098D01*
X43656661Y-45931017D01*
X43654281Y-45971935D01*
X43455844Y-46081211D01*
X43403089Y-46109876D01*
X43354315Y-46135644D01*
X43311448Y-46157552D01*
X43276413Y-46174640D01*
X43251136Y-46185945D01*
X43237543Y-46190507D01*
X43236846Y-46190556D01*
X43219357Y-46187100D01*
X43193676Y-46177994D01*
X43166808Y-46165901D01*
X43129083Y-46142693D01*
X43097924Y-46113132D01*
X43072287Y-46075314D01*
X43051127Y-46027337D01*
X43033399Y-45967296D01*
X43018479Y-45895643D01*
X43012196Y-45862374D01*
X43006355Y-45834636D01*
X43001829Y-45816439D01*
X43000275Y-45812059D01*
X42992726Y-45813485D01*
X42974989Y-45825551D01*
X42947974Y-45847547D01*
X42912594Y-45878761D01*
X42900155Y-45890121D01*
X42812496Y-45968692D01*
X42732975Y-46035317D01*
X42660174Y-46090728D01*
X42592674Y-46135656D01*
X42529058Y-46170831D01*
X42467907Y-46196986D01*
X42407803Y-46214850D01*
X42347328Y-46225156D01*
X42285064Y-46228634D01*
X42245375Y-46227704D01*
X42150895Y-46216930D01*
X42066631Y-46194296D01*
X41991972Y-46159367D01*
X41926309Y-46111708D01*
X41869030Y-46050882D01*
X41819525Y-45976455D01*
X41780521Y-45896073D01*
X41752634Y-45829469D01*
X41755696Y-46023938D01*
X41756686Y-46080341D01*
X41757899Y-46127591D01*
X41759627Y-46168809D01*
X41762163Y-46207118D01*
X41765799Y-46245638D01*
X41770827Y-46287491D01*
X41777541Y-46335800D01*
X41786233Y-46393686D01*
X41796605Y-46460500D01*
X41811200Y-46556712D01*
X41822518Y-46638892D01*
X41830514Y-46708550D01*
X41835141Y-46767198D01*
X41836353Y-46816345D01*
X41834105Y-46857503D01*
X41828350Y-46892183D01*
X41819042Y-46921894D01*
X41806135Y-46948149D01*
X41789583Y-46972457D01*
X41780631Y-46983520D01*
X41745150Y-47013814D01*
X41701594Y-47032709D01*
X41653852Y-47039237D01*
X41605813Y-47032431D01*
X41596396Y-47029342D01*
X41552781Y-47005222D01*
X41516164Y-46967594D01*
X41493983Y-46931006D01*
X41483708Y-46908722D01*
X41477199Y-46889319D01*
X41473671Y-46868102D01*
X41472340Y-46840377D01*
X41472420Y-46801813D01*
X41474870Y-46752384D01*
X41481128Y-46689347D01*
X41490992Y-46614456D01*
X41501891Y-46543844D01*
X41512889Y-46475618D01*
X41522451Y-46414023D01*
X41530993Y-46355907D01*
X41538929Y-46298116D01*
X41546677Y-46237496D01*
X41554653Y-46170894D01*
X41563271Y-46095158D01*
X41572949Y-46007133D01*
X41574140Y-45996156D01*
X41584205Y-45901767D01*
X41593118Y-45814243D01*
X41600960Y-45731911D01*
X41607809Y-45653095D01*
X41613744Y-45576119D01*
X41618844Y-45499309D01*
X41623188Y-45420988D01*
X41626855Y-45339482D01*
X41629925Y-45253115D01*
X41632475Y-45160212D01*
X41634585Y-45059097D01*
X41636334Y-44948096D01*
X41637802Y-44825533D01*
X41639066Y-44689732D01*
X41639731Y-44605109D01*
X41644359Y-43984000D01*
X41991375Y-43984000D01*
X41991457Y-44720203D01*
G36*
X47463461Y-42842070D02*
G01*
X47465787Y-42843305D01*
X47468369Y-42845271D01*
X47471487Y-42848497D01*
X47475419Y-42853510D01*
X47480446Y-42860837D01*
X47486847Y-42871006D01*
X47494902Y-42884544D01*
X47504889Y-42901978D01*
X47517089Y-42923836D01*
X47531781Y-42950646D01*
X47549244Y-42982934D01*
X47569759Y-43021227D01*
X47593604Y-43066055D01*
X47621059Y-43117943D01*
X47652404Y-43177419D01*
X47687918Y-43245010D01*
X47727881Y-43321245D01*
X47772572Y-43406650D01*
X47822270Y-43501752D01*
X47877256Y-43607080D01*
X47937808Y-43723160D01*
X48004206Y-43850520D01*
X48076731Y-43989687D01*
X48155660Y-44141188D01*
X48241274Y-44305552D01*
X48333853Y-44483305D01*
X48364152Y-44541482D01*
X48406422Y-44622447D01*
X48446634Y-44699091D01*
X48484181Y-44770278D01*
X48518454Y-44834871D01*
X48548844Y-44891738D01*
X48574745Y-44939741D01*
X48595546Y-44977746D01*
X48610641Y-45004618D01*
X48619420Y-45019221D01*
X48621417Y-45021619D01*
X48625969Y-45014589D01*
X48637823Y-44994498D01*
X48656531Y-44962140D01*
X48681643Y-44918307D01*
X48712711Y-44863792D01*
X48749286Y-44799388D01*
X48790918Y-44725888D01*
X48837160Y-44644086D01*
X48887562Y-44554775D01*
X48941675Y-44458746D01*
X48999050Y-44356795D01*
X49059238Y-44249712D01*
X49121791Y-44138293D01*
X49161632Y-44067262D01*
X49236986Y-43932894D01*
X49304996Y-43811696D01*
X49366062Y-43702980D01*
X49420585Y-43606059D01*
X49468965Y-43520245D01*
X49511603Y-43444849D01*
X49548899Y-43379186D01*
X49581254Y-43322566D01*
X49609069Y-43274302D01*
X49632743Y-43233708D01*
X49652679Y-43200094D01*
X49669276Y-43172773D01*
X49682935Y-43151058D01*
X49694056Y-43134260D01*
X49703041Y-43121694D01*
X49710289Y-43112669D01*
X49716201Y-43106500D01*
X49721178Y-43102498D01*
X49724902Y-43100322D01*
X49758112Y-43091211D01*
X49788648Y-43095904D01*
X49813421Y-43112526D01*
X49829340Y-43139201D01*
X49833625Y-43166315D01*
X49832266Y-43172690D01*
X49827978Y-43183928D01*
X49820439Y-43200615D01*
X49809330Y-43223335D01*
X49794332Y-43252676D01*
X49775125Y-43289223D01*
X49751389Y-43333562D01*
X49722805Y-43386280D01*
X49689052Y-43447961D01*
X49649812Y-43519193D01*
X49604764Y-43600561D01*
X49553589Y-43692650D01*
X49495967Y-43796048D01*
X49431578Y-43911340D01*
X49360103Y-44039111D01*
X49281221Y-44179948D01*
X49257531Y-44222220D01*
X49191140Y-44340609D01*
X49126761Y-44455299D01*
X49064830Y-44565517D01*
X49005783Y-44670489D01*
X48950058Y-44769443D01*
X48898093Y-44861605D01*
X48850322Y-44946203D01*
X48807185Y-45022462D01*
X48769118Y-45089611D01*
X48736557Y-45146875D01*
X48709941Y-45193482D01*
X48689705Y-45228658D01*
X48676287Y-45251630D01*
X48670124Y-45261625D01*
X48669872Y-45261938D01*
X48651810Y-45271076D01*
X48625468Y-45274360D01*
X48597228Y-45272030D01*
X48573467Y-45264327D01*
X48564697Y-45257969D01*
X48559292Y-45249159D01*
X48547007Y-45227065D01*
X48528269Y-45192498D01*
X48503505Y-45146266D01*
X48473140Y-45089180D01*
X48437603Y-45022049D01*
X48397319Y-44945683D01*
X48352715Y-44860893D01*
X48304218Y-44768487D01*
X48252254Y-44669276D01*
X48197251Y-44564070D01*
X48139635Y-44453678D01*
X48079832Y-44338910D01*
X48030679Y-44244445D01*
X47511906Y-43246796D01*
X47507938Y-44687648D01*
X47503969Y-46128501D01*
X47481698Y-46147657D01*
X47464043Y-46160380D01*
X47446695Y-46164921D01*
X47422799Y-46162687D01*
X47415282Y-46161291D01*
X47392312Y-46150150D01*
X47370937Y-46129014D01*
X47356143Y-46103398D01*
X47353068Y-46092501D01*
X47352640Y-46082194D01*
X47352244Y-46056776D01*
X47351883Y-46017013D01*
X47351557Y-45963668D01*
X47351268Y-45897507D01*
X47351017Y-45819294D01*
X47350804Y-45729792D01*
X47350631Y-45629768D01*
X47350498Y-45519986D01*
X47350407Y-45401210D01*
X47350358Y-45274204D01*
X47350354Y-45139734D01*
X47350394Y-44998564D01*
X47350480Y-44851457D01*
X47350612Y-44699180D01*
X47350792Y-44542497D01*
X47350891Y-44469484D01*
X47353156Y-42871375D01*
X47375427Y-42852219D01*
X47405488Y-42836126D01*
X47439605Y-42834647D01*
X47463461Y-42842070D01*
G37*
X47463461Y-42842070D02*
X47465787Y-42843305D01*
X47468369Y-42845271D01*
X47471487Y-42848497D01*
X47475419Y-42853510D01*
X47480446Y-42860837D01*
X47486847Y-42871006D01*
X47494902Y-42884544D01*
X47504889Y-42901978D01*
X47517089Y-42923836D01*
X47531781Y-42950646D01*
X47549244Y-42982934D01*
X47569759Y-43021227D01*
X47593604Y-43066055D01*
X47621059Y-43117943D01*
X47652404Y-43177419D01*
X47687918Y-43245010D01*
X47727881Y-43321245D01*
X47772572Y-43406650D01*
X47822270Y-43501752D01*
X47877256Y-43607080D01*
X47937808Y-43723160D01*
X48004206Y-43850520D01*
X48076731Y-43989687D01*
X48155660Y-44141188D01*
X48241274Y-44305552D01*
X48333853Y-44483305D01*
X48364152Y-44541482D01*
X48406422Y-44622447D01*
X48446634Y-44699091D01*
X48484181Y-44770278D01*
X48518454Y-44834871D01*
X48548844Y-44891738D01*
X48574745Y-44939741D01*
X48595546Y-44977746D01*
X48610641Y-45004618D01*
X48619420Y-45019221D01*
X48621417Y-45021619D01*
X48625969Y-45014589D01*
X48637823Y-44994498D01*
X48656531Y-44962140D01*
X48681643Y-44918307D01*
X48712711Y-44863792D01*
X48749286Y-44799388D01*
X48790918Y-44725888D01*
X48837160Y-44644086D01*
X48887562Y-44554775D01*
X48941675Y-44458746D01*
X48999050Y-44356795D01*
X49059238Y-44249712D01*
X49121791Y-44138293D01*
X49161632Y-44067262D01*
X49236986Y-43932894D01*
X49304996Y-43811696D01*
X49366062Y-43702980D01*
X49420585Y-43606059D01*
X49468965Y-43520245D01*
X49511603Y-43444849D01*
X49548899Y-43379186D01*
X49581254Y-43322566D01*
X49609069Y-43274302D01*
X49632743Y-43233708D01*
X49652679Y-43200094D01*
X49669276Y-43172773D01*
X49682935Y-43151058D01*
X49694056Y-43134260D01*
X49703041Y-43121694D01*
X49710289Y-43112669D01*
X49716201Y-43106500D01*
X49721178Y-43102498D01*
X49724902Y-43100322D01*
X49758112Y-43091211D01*
X49788648Y-43095904D01*
X49813421Y-43112526D01*
X49829340Y-43139201D01*
X49833625Y-43166315D01*
X49832266Y-43172690D01*
X49827978Y-43183928D01*
X49820439Y-43200615D01*
X49809330Y-43223335D01*
X49794332Y-43252676D01*
X49775125Y-43289223D01*
X49751389Y-43333562D01*
X49722805Y-43386280D01*
X49689052Y-43447961D01*
X49649812Y-43519193D01*
X49604764Y-43600561D01*
X49553589Y-43692650D01*
X49495967Y-43796048D01*
X49431578Y-43911340D01*
X49360103Y-44039111D01*
X49281221Y-44179948D01*
X49257531Y-44222220D01*
X49191140Y-44340609D01*
X49126761Y-44455299D01*
X49064830Y-44565517D01*
X49005783Y-44670489D01*
X48950058Y-44769443D01*
X48898093Y-44861605D01*
X48850322Y-44946203D01*
X48807185Y-45022462D01*
X48769118Y-45089611D01*
X48736557Y-45146875D01*
X48709941Y-45193482D01*
X48689705Y-45228658D01*
X48676287Y-45251630D01*
X48670124Y-45261625D01*
X48669872Y-45261938D01*
X48651810Y-45271076D01*
X48625468Y-45274360D01*
X48597228Y-45272030D01*
X48573467Y-45264327D01*
X48564697Y-45257969D01*
X48559292Y-45249159D01*
X48547007Y-45227065D01*
X48528269Y-45192498D01*
X48503505Y-45146266D01*
X48473140Y-45089180D01*
X48437603Y-45022049D01*
X48397319Y-44945683D01*
X48352715Y-44860893D01*
X48304218Y-44768487D01*
X48252254Y-44669276D01*
X48197251Y-44564070D01*
X48139635Y-44453678D01*
X48079832Y-44338910D01*
X48030679Y-44244445D01*
X47511906Y-43246796D01*
X47507938Y-44687648D01*
X47503969Y-46128501D01*
X47481698Y-46147657D01*
X47464043Y-46160380D01*
X47446695Y-46164921D01*
X47422799Y-46162687D01*
X47415282Y-46161291D01*
X47392312Y-46150150D01*
X47370937Y-46129014D01*
X47356143Y-46103398D01*
X47353068Y-46092501D01*
X47352640Y-46082194D01*
X47352244Y-46056776D01*
X47351883Y-46017013D01*
X47351557Y-45963668D01*
X47351268Y-45897507D01*
X47351017Y-45819294D01*
X47350804Y-45729792D01*
X47350631Y-45629768D01*
X47350498Y-45519986D01*
X47350407Y-45401210D01*
X47350358Y-45274204D01*
X47350354Y-45139734D01*
X47350394Y-44998564D01*
X47350480Y-44851457D01*
X47350612Y-44699180D01*
X47350792Y-44542497D01*
X47350891Y-44469484D01*
X47353156Y-42871375D01*
X47375427Y-42852219D01*
X47405488Y-42836126D01*
X47439605Y-42834647D01*
X47463461Y-42842070D01*
G36*
X47871968Y-44523628D02*
G01*
X47899304Y-44535152D01*
X47917830Y-44554474D01*
X47918366Y-44555500D01*
X47920107Y-44562105D01*
X47921651Y-44575155D01*
X47923007Y-44595449D01*
X47924185Y-44623785D01*
X47925197Y-44660963D01*
X47926052Y-44707782D01*
X47926760Y-44765041D01*
X47927333Y-44833539D01*
X47927779Y-44914076D01*
X47928110Y-45007450D01*
X47928335Y-45114461D01*
X47928465Y-45235908D01*
X47928508Y-45344091D01*
X47928625Y-46112838D01*
X47901638Y-46139825D01*
X47873117Y-46161130D01*
X47845196Y-46166694D01*
X47816763Y-46156558D01*
X47799766Y-46143651D01*
X47773844Y-46120490D01*
X47773844Y-45338828D01*
X47773855Y-45209902D01*
X47773899Y-45095911D01*
X47773994Y-44995917D01*
X47774156Y-44908979D01*
X47774401Y-44834158D01*
X47774748Y-44770514D01*
X47775212Y-44717109D01*
X47775810Y-44673002D01*
X47776560Y-44637255D01*
X47777477Y-44608927D01*
X47778580Y-44587079D01*
X47779885Y-44570772D01*
X47781408Y-44559067D01*
X47783166Y-44551023D01*
X47785177Y-44545701D01*
X47787457Y-44542162D01*
X47788140Y-44541369D01*
X47811283Y-44526182D01*
X47840927Y-44520453D01*
X47871968Y-44523628D01*
G37*
X47871968Y-44523628D02*
X47899304Y-44535152D01*
X47917830Y-44554474D01*
X47918366Y-44555500D01*
X47920107Y-44562105D01*
X47921651Y-44575155D01*
X47923007Y-44595449D01*
X47924185Y-44623785D01*
X47925197Y-44660963D01*
X47926052Y-44707782D01*
X47926760Y-44765041D01*
X47927333Y-44833539D01*
X47927779Y-44914076D01*
X47928110Y-45007450D01*
X47928335Y-45114461D01*
X47928465Y-45235908D01*
X47928508Y-45344091D01*
X47928625Y-46112838D01*
X47901638Y-46139825D01*
X47873117Y-46161130D01*
X47845196Y-46166694D01*
X47816763Y-46156558D01*
X47799766Y-46143651D01*
X47773844Y-46120490D01*
X47773844Y-45338828D01*
X47773855Y-45209902D01*
X47773899Y-45095911D01*
X47773994Y-44995917D01*
X47774156Y-44908979D01*
X47774401Y-44834158D01*
X47774748Y-44770514D01*
X47775212Y-44717109D01*
X47775810Y-44673002D01*
X47776560Y-44637255D01*
X47777477Y-44608927D01*
X47778580Y-44587079D01*
X47779885Y-44570772D01*
X47781408Y-44559067D01*
X47783166Y-44551023D01*
X47785177Y-44545701D01*
X47787457Y-44542162D01*
X47788140Y-44541369D01*
X47811283Y-44526182D01*
X47840927Y-44520453D01*
X47871968Y-44523628D01*
G36*
X49958772Y-46002808D02*
G01*
X49991307Y-46015067D01*
X50013559Y-46038591D01*
X50023698Y-46071208D01*
X50024125Y-46080337D01*
X50020159Y-46111562D01*
X50009732Y-46139037D01*
X49995048Y-46157778D01*
X49988051Y-46161882D01*
X49960078Y-46166442D01*
X49927836Y-46163133D01*
X49903178Y-46154387D01*
X49880799Y-46135111D01*
X49864089Y-46107847D01*
X49857438Y-46079784D01*
X49857438Y-46079500D01*
X49864558Y-46047686D01*
X49883895Y-46022570D01*
X49912413Y-46006450D01*
X49947076Y-46001624D01*
X49958772Y-46002808D01*
G37*
X49958772Y-46002808D02*
X49991307Y-46015067D01*
X50013559Y-46038591D01*
X50023698Y-46071208D01*
X50024125Y-46080337D01*
X50020159Y-46111562D01*
X50009732Y-46139037D01*
X49995048Y-46157778D01*
X49988051Y-46161882D01*
X49960078Y-46166442D01*
X49927836Y-46163133D01*
X49903178Y-46154387D01*
X49880799Y-46135111D01*
X49864089Y-46107847D01*
X49857438Y-46079784D01*
X49857438Y-46079500D01*
X49864558Y-46047686D01*
X49883895Y-46022570D01*
X49912413Y-46006450D01*
X49947076Y-46001624D01*
X49958772Y-46002808D01*
G36*
X50386995Y-42836120D02*
G01*
X50403964Y-42840519D01*
X50423555Y-42853721D01*
X50435845Y-42869691D01*
X50436944Y-42879950D01*
X50437976Y-42905148D01*
X50438942Y-42944367D01*
X50439841Y-42996693D01*
X50440674Y-43061208D01*
X50441441Y-43136998D01*
X50442141Y-43223145D01*
X50442775Y-43318734D01*
X50443343Y-43422849D01*
X50443845Y-43534574D01*
X50444281Y-43652992D01*
X50444652Y-43777188D01*
X50444956Y-43906246D01*
X50445195Y-44039249D01*
X50445368Y-44175281D01*
X50445476Y-44313427D01*
X50445518Y-44452771D01*
X50445494Y-44592396D01*
X50445406Y-44731386D01*
X50445252Y-44868825D01*
X50445033Y-45003798D01*
X50444748Y-45135387D01*
X50444399Y-45262678D01*
X50443985Y-45384754D01*
X50443506Y-45500699D01*
X50442962Y-45609597D01*
X50442353Y-45710531D01*
X50441680Y-45802587D01*
X50440942Y-45884847D01*
X50440140Y-45956396D01*
X50439273Y-46016318D01*
X50438342Y-46063697D01*
X50437346Y-46097616D01*
X50436287Y-46117160D01*
X50435578Y-46121694D01*
X50417782Y-46144856D01*
X50393385Y-46156206D01*
X50369406Y-46158370D01*
X50345954Y-46156046D01*
X50328154Y-46150299D01*
X50325750Y-46148701D01*
X50321364Y-46145459D01*
X50317353Y-46142712D01*
X50313698Y-46139773D01*
X50310379Y-46135954D01*
X50307380Y-46130568D01*
X50304682Y-46122928D01*
X50302265Y-46112346D01*
X50300112Y-46098135D01*
X50298204Y-46079607D01*
X50296523Y-46056076D01*
X50295050Y-46026853D01*
X50293767Y-45991251D01*
X50292655Y-45948583D01*
X50291697Y-45898162D01*
X50290872Y-45839300D01*
X50290164Y-45771310D01*
X50289553Y-45693504D01*
X50289022Y-45605195D01*
X50288551Y-45505696D01*
X50288122Y-45394319D01*
X50287717Y-45270377D01*
X50287318Y-45133182D01*
X50286905Y-44982047D01*
X50286461Y-44816285D01*
X50286063Y-44669900D01*
X50282094Y-43230989D01*
X49825951Y-44065885D01*
X49726230Y-44248421D01*
X49633844Y-44417542D01*
X49548508Y-44573762D01*
X49469936Y-44717591D01*
X49397841Y-44849541D01*
X49331939Y-44970125D01*
X49271942Y-45079853D01*
X49217565Y-45179238D01*
X49168522Y-45268792D01*
X49124526Y-45349025D01*
X49085292Y-45420450D01*
X49050534Y-45483579D01*
X49019965Y-45538923D01*
X48993299Y-45586994D01*
X48970252Y-45628304D01*
X48950535Y-45663364D01*
X48933864Y-45692687D01*
X48919953Y-45716783D01*
X48908515Y-45736166D01*
X48899264Y-45751345D01*
X48891914Y-45762834D01*
X48886180Y-45771144D01*
X48881775Y-45776787D01*
X48878413Y-45780274D01*
X48875809Y-45782117D01*
X48873675Y-45782827D01*
X48871727Y-45782918D01*
X48869678Y-45782900D01*
X48867242Y-45783285D01*
X48865731Y-45783813D01*
X48847027Y-45790297D01*
X48831853Y-45790164D01*
X48812637Y-45782860D01*
X48805345Y-45779378D01*
X48776446Y-45758955D01*
X48759512Y-45733052D01*
X48756093Y-45704633D01*
X48759471Y-45691565D01*
X48764273Y-45681995D01*
X48776228Y-45659391D01*
X48794897Y-45624555D01*
X48819841Y-45578289D01*
X48850622Y-45521394D01*
X48886801Y-45454674D01*
X48927939Y-45378930D01*
X48973598Y-45294965D01*
X49023340Y-45203580D01*
X49076725Y-45105578D01*
X49133315Y-45001761D01*
X49192672Y-44892931D01*
X49254356Y-44779891D01*
X49317930Y-44663442D01*
X49382955Y-44544387D01*
X49448991Y-44423527D01*
X49515601Y-44301665D01*
X49582346Y-44179604D01*
X49648787Y-44058144D01*
X49714486Y-43938089D01*
X49779004Y-43820241D01*
X49841903Y-43705401D01*
X49902743Y-43594372D01*
X49961086Y-43487957D01*
X50016495Y-43386956D01*
X50068529Y-43292173D01*
X50116751Y-43204409D01*
X50160722Y-43124467D01*
X50200003Y-43053148D01*
X50234156Y-42991256D01*
X50262741Y-42939592D01*
X50285322Y-42898958D01*
X50301458Y-42870156D01*
X50310711Y-42853989D01*
X50312807Y-42850656D01*
X50331556Y-42840511D01*
X50358613Y-42835407D01*
X50386995Y-42836120D01*
G37*
X50386995Y-42836120D02*
X50403964Y-42840519D01*
X50423555Y-42853721D01*
X50435845Y-42869691D01*
X50436944Y-42879950D01*
X50437976Y-42905148D01*
X50438942Y-42944367D01*
X50439841Y-42996693D01*
X50440674Y-43061208D01*
X50441441Y-43136998D01*
X50442141Y-43223145D01*
X50442775Y-43318734D01*
X50443343Y-43422849D01*
X50443845Y-43534574D01*
X50444281Y-43652992D01*
X50444652Y-43777188D01*
X50444956Y-43906246D01*
X50445195Y-44039249D01*
X50445368Y-44175281D01*
X50445476Y-44313427D01*
X50445518Y-44452771D01*
X50445494Y-44592396D01*
X50445406Y-44731386D01*
X50445252Y-44868825D01*
X50445033Y-45003798D01*
X50444748Y-45135387D01*
X50444399Y-45262678D01*
X50443985Y-45384754D01*
X50443506Y-45500699D01*
X50442962Y-45609597D01*
X50442353Y-45710531D01*
X50441680Y-45802587D01*
X50440942Y-45884847D01*
X50440140Y-45956396D01*
X50439273Y-46016318D01*
X50438342Y-46063697D01*
X50437346Y-46097616D01*
X50436287Y-46117160D01*
X50435578Y-46121694D01*
X50417782Y-46144856D01*
X50393385Y-46156206D01*
X50369406Y-46158370D01*
X50345954Y-46156046D01*
X50328154Y-46150299D01*
X50325750Y-46148701D01*
X50321364Y-46145459D01*
X50317353Y-46142712D01*
X50313698Y-46139773D01*
X50310379Y-46135954D01*
X50307380Y-46130568D01*
X50304682Y-46122928D01*
X50302265Y-46112346D01*
X50300112Y-46098135D01*
X50298204Y-46079607D01*
X50296523Y-46056076D01*
X50295050Y-46026853D01*
X50293767Y-45991251D01*
X50292655Y-45948583D01*
X50291697Y-45898162D01*
X50290872Y-45839300D01*
X50290164Y-45771310D01*
X50289553Y-45693504D01*
X50289022Y-45605195D01*
X50288551Y-45505696D01*
X50288122Y-45394319D01*
X50287717Y-45270377D01*
X50287318Y-45133182D01*
X50286905Y-44982047D01*
X50286461Y-44816285D01*
X50286063Y-44669900D01*
X50282094Y-43230989D01*
X49825951Y-44065885D01*
X49726230Y-44248421D01*
X49633844Y-44417542D01*
X49548508Y-44573762D01*
X49469936Y-44717591D01*
X49397841Y-44849541D01*
X49331939Y-44970125D01*
X49271942Y-45079853D01*
X49217565Y-45179238D01*
X49168522Y-45268792D01*
X49124526Y-45349025D01*
X49085292Y-45420450D01*
X49050534Y-45483579D01*
X49019965Y-45538923D01*
X48993299Y-45586994D01*
X48970252Y-45628304D01*
X48950535Y-45663364D01*
X48933864Y-45692687D01*
X48919953Y-45716783D01*
X48908515Y-45736166D01*
X48899264Y-45751345D01*
X48891914Y-45762834D01*
X48886180Y-45771144D01*
X48881775Y-45776787D01*
X48878413Y-45780274D01*
X48875809Y-45782117D01*
X48873675Y-45782827D01*
X48871727Y-45782918D01*
X48869678Y-45782900D01*
X48867242Y-45783285D01*
X48865731Y-45783813D01*
X48847027Y-45790297D01*
X48831853Y-45790164D01*
X48812637Y-45782860D01*
X48805345Y-45779378D01*
X48776446Y-45758955D01*
X48759512Y-45733052D01*
X48756093Y-45704633D01*
X48759471Y-45691565D01*
X48764273Y-45681995D01*
X48776228Y-45659391D01*
X48794897Y-45624555D01*
X48819841Y-45578289D01*
X48850622Y-45521394D01*
X48886801Y-45454674D01*
X48927939Y-45378930D01*
X48973598Y-45294965D01*
X49023340Y-45203580D01*
X49076725Y-45105578D01*
X49133315Y-45001761D01*
X49192672Y-44892931D01*
X49254356Y-44779891D01*
X49317930Y-44663442D01*
X49382955Y-44544387D01*
X49448991Y-44423527D01*
X49515601Y-44301665D01*
X49582346Y-44179604D01*
X49648787Y-44058144D01*
X49714486Y-43938089D01*
X49779004Y-43820241D01*
X49841903Y-43705401D01*
X49902743Y-43594372D01*
X49961086Y-43487957D01*
X50016495Y-43386956D01*
X50068529Y-43292173D01*
X50116751Y-43204409D01*
X50160722Y-43124467D01*
X50200003Y-43053148D01*
X50234156Y-42991256D01*
X50262741Y-42939592D01*
X50285322Y-42898958D01*
X50301458Y-42870156D01*
X50310711Y-42853989D01*
X50312807Y-42850656D01*
X50331556Y-42840511D01*
X50358613Y-42835407D01*
X50386995Y-42836120D01*
G36*
X51375071Y-44970629D02*
G01*
X51395616Y-44974209D01*
X51410671Y-44980152D01*
X51421227Y-44990767D01*
X51428271Y-45008365D01*
X51432792Y-45035253D01*
X51435779Y-45073742D01*
X51437849Y-45117299D01*
X51443420Y-45200213D01*
X51453257Y-45272056D01*
X51468461Y-45337310D01*
X51490133Y-45400459D01*
X51519374Y-45465989D01*
X51527410Y-45482113D01*
X51585439Y-45579331D01*
X51656485Y-45668786D01*
X51739253Y-45749582D01*
X51832446Y-45820820D01*
X51934767Y-45881602D01*
X52044919Y-45931029D01*
X52161606Y-45968203D01*
X52258295Y-45988436D01*
X52295016Y-45993776D01*
X52330123Y-45997832D01*
X52357603Y-45999939D01*
X52363958Y-46000093D01*
X52407543Y-46004961D01*
X52439320Y-46018996D01*
X52458564Y-46041484D01*
X52464551Y-46071711D01*
X52460844Y-46095723D01*
X52451412Y-46120833D01*
X52437335Y-46139032D01*
X52416739Y-46150777D01*
X52387751Y-46156523D01*
X52348500Y-46156725D01*
X52297112Y-46151839D01*
X52254563Y-46145884D01*
X52117611Y-46118186D01*
X51988274Y-46078042D01*
X51867339Y-46025972D01*
X51755595Y-45962496D01*
X51653832Y-45888133D01*
X51562839Y-45803403D01*
X51483403Y-45708826D01*
X51416315Y-45604921D01*
X51406731Y-45587375D01*
X51352356Y-45468694D01*
X51312828Y-45344941D01*
X51288500Y-45217397D01*
X51280893Y-45130746D01*
X51279507Y-45073822D01*
X51282035Y-45030924D01*
X51289397Y-45000492D01*
X51302512Y-44980962D01*
X51322299Y-44970774D01*
X51349676Y-44968363D01*
X51375071Y-44970629D01*
G37*
X51375071Y-44970629D02*
X51395616Y-44974209D01*
X51410671Y-44980152D01*
X51421227Y-44990767D01*
X51428271Y-45008365D01*
X51432792Y-45035253D01*
X51435779Y-45073742D01*
X51437849Y-45117299D01*
X51443420Y-45200213D01*
X51453257Y-45272056D01*
X51468461Y-45337310D01*
X51490133Y-45400459D01*
X51519374Y-45465989D01*
X51527410Y-45482113D01*
X51585439Y-45579331D01*
X51656485Y-45668786D01*
X51739253Y-45749582D01*
X51832446Y-45820820D01*
X51934767Y-45881602D01*
X52044919Y-45931029D01*
X52161606Y-45968203D01*
X52258295Y-45988436D01*
X52295016Y-45993776D01*
X52330123Y-45997832D01*
X52357603Y-45999939D01*
X52363958Y-46000093D01*
X52407543Y-46004961D01*
X52439320Y-46018996D01*
X52458564Y-46041484D01*
X52464551Y-46071711D01*
X52460844Y-46095723D01*
X52451412Y-46120833D01*
X52437335Y-46139032D01*
X52416739Y-46150777D01*
X52387751Y-46156523D01*
X52348500Y-46156725D01*
X52297112Y-46151839D01*
X52254563Y-46145884D01*
X52117611Y-46118186D01*
X51988274Y-46078042D01*
X51867339Y-46025972D01*
X51755595Y-45962496D01*
X51653832Y-45888133D01*
X51562839Y-45803403D01*
X51483403Y-45708826D01*
X51416315Y-45604921D01*
X51406731Y-45587375D01*
X51352356Y-45468694D01*
X51312828Y-45344941D01*
X51288500Y-45217397D01*
X51280893Y-45130746D01*
X51279507Y-45073822D01*
X51282035Y-45030924D01*
X51289397Y-45000492D01*
X51302512Y-44980962D01*
X51322299Y-44970774D01*
X51349676Y-44968363D01*
X51375071Y-44970629D01*
G36*
X44827597Y-42829134D02*
G01*
X44920562Y-42829275D01*
X45000374Y-42829547D01*
X45068393Y-42829982D01*
X45125980Y-42830609D01*
X45174496Y-42831460D01*
X45215301Y-42832564D01*
X45249757Y-42833953D01*
X45279224Y-42835657D01*
X45305063Y-42837707D01*
X45328634Y-42840134D01*
X45351298Y-42842968D01*
X45354247Y-42843367D01*
X45492951Y-42867469D01*
X45618428Y-42900153D01*
X45730884Y-42941542D01*
X45830526Y-42991759D01*
X45917561Y-43050926D01*
X45992196Y-43119168D01*
X46054637Y-43196606D01*
X46105090Y-43283365D01*
X46109903Y-43293453D01*
X46143565Y-43380356D01*
X46168423Y-43476049D01*
X46183702Y-43575630D01*
X46188627Y-43674192D01*
X46183476Y-43758712D01*
X46176591Y-43805885D01*
X46168508Y-43839791D01*
X46157923Y-43863038D01*
X46143535Y-43878235D01*
X46124041Y-43887990D01*
X46117935Y-43889969D01*
X46085476Y-43894253D01*
X46058182Y-43884866D01*
X46033302Y-43860773D01*
X46030462Y-43857000D01*
X46022964Y-43844818D01*
X46019776Y-43831701D01*
X46020552Y-43812826D01*
X46024944Y-43783368D01*
X46025108Y-43782390D01*
X46029217Y-43749077D01*
X46030310Y-43712924D01*
X46028389Y-43669219D01*
X46025221Y-43631262D01*
X46008750Y-43520147D01*
X45981213Y-43420326D01*
X45942391Y-43331557D01*
X45892064Y-43253599D01*
X45830013Y-43186211D01*
X45756018Y-43129151D01*
X45669859Y-43082179D01*
X45571317Y-43045053D01*
X45468000Y-43019076D01*
X45430662Y-43011904D01*
X45394422Y-43005757D01*
X45357732Y-43000559D01*
X45319043Y-42996235D01*
X45276808Y-42992707D01*
X45229477Y-42989898D01*
X45175504Y-42987733D01*
X45113340Y-42986135D01*
X45041436Y-42985026D01*
X44958245Y-42984331D01*
X44862219Y-42983973D01*
X44756215Y-42983875D01*
X44309125Y-42983875D01*
X44309125Y-44539252D01*
X44309096Y-44740719D01*
X44309009Y-44926689D01*
X44308860Y-45097536D01*
X44308648Y-45253638D01*
X44308372Y-45395370D01*
X44308028Y-45523109D01*
X44307614Y-45637231D01*
X44307129Y-45738113D01*
X44306570Y-45826132D01*
X44305936Y-45901662D01*
X44305224Y-45965082D01*
X44304432Y-46016766D01*
X44303558Y-46057093D01*
X44302600Y-46086437D01*
X44301555Y-46105175D01*
X44300422Y-46113685D01*
X44300312Y-46113970D01*
X44282252Y-46136544D01*
X44256047Y-46148514D01*
X44225770Y-46149411D01*
X44195495Y-46138768D01*
X44180266Y-46127776D01*
X44154344Y-46104615D01*
X44154344Y-42865253D01*
X44172431Y-42847174D01*
X44190518Y-42829094D01*
X44720118Y-42829094D01*
X44827597Y-42829134D01*
G37*
X44827597Y-42829134D02*
X44920562Y-42829275D01*
X45000374Y-42829547D01*
X45068393Y-42829982D01*
X45125980Y-42830609D01*
X45174496Y-42831460D01*
X45215301Y-42832564D01*
X45249757Y-42833953D01*
X45279224Y-42835657D01*
X45305063Y-42837707D01*
X45328634Y-42840134D01*
X45351298Y-42842968D01*
X45354247Y-42843367D01*
X45492951Y-42867469D01*
X45618428Y-42900153D01*
X45730884Y-42941542D01*
X45830526Y-42991759D01*
X45917561Y-43050926D01*
X45992196Y-43119168D01*
X46054637Y-43196606D01*
X46105090Y-43283365D01*
X46109903Y-43293453D01*
X46143565Y-43380356D01*
X46168423Y-43476049D01*
X46183702Y-43575630D01*
X46188627Y-43674192D01*
X46183476Y-43758712D01*
X46176591Y-43805885D01*
X46168508Y-43839791D01*
X46157923Y-43863038D01*
X46143535Y-43878235D01*
X46124041Y-43887990D01*
X46117935Y-43889969D01*
X46085476Y-43894253D01*
X46058182Y-43884866D01*
X46033302Y-43860773D01*
X46030462Y-43857000D01*
X46022964Y-43844818D01*
X46019776Y-43831701D01*
X46020552Y-43812826D01*
X46024944Y-43783368D01*
X46025108Y-43782390D01*
X46029217Y-43749077D01*
X46030310Y-43712924D01*
X46028389Y-43669219D01*
X46025221Y-43631262D01*
X46008750Y-43520147D01*
X45981213Y-43420326D01*
X45942391Y-43331557D01*
X45892064Y-43253599D01*
X45830013Y-43186211D01*
X45756018Y-43129151D01*
X45669859Y-43082179D01*
X45571317Y-43045053D01*
X45468000Y-43019076D01*
X45430662Y-43011904D01*
X45394422Y-43005757D01*
X45357732Y-43000559D01*
X45319043Y-42996235D01*
X45276808Y-42992707D01*
X45229477Y-42989898D01*
X45175504Y-42987733D01*
X45113340Y-42986135D01*
X45041436Y-42985026D01*
X44958245Y-42984331D01*
X44862219Y-42983973D01*
X44756215Y-42983875D01*
X44309125Y-42983875D01*
X44309125Y-44539252D01*
X44309096Y-44740719D01*
X44309009Y-44926689D01*
X44308860Y-45097536D01*
X44308648Y-45253638D01*
X44308372Y-45395370D01*
X44308028Y-45523109D01*
X44307614Y-45637231D01*
X44307129Y-45738113D01*
X44306570Y-45826132D01*
X44305936Y-45901662D01*
X44305224Y-45965082D01*
X44304432Y-46016766D01*
X44303558Y-46057093D01*
X44302600Y-46086437D01*
X44301555Y-46105175D01*
X44300422Y-46113685D01*
X44300312Y-46113970D01*
X44282252Y-46136544D01*
X44256047Y-46148514D01*
X44225770Y-46149411D01*
X44195495Y-46138768D01*
X44180266Y-46127776D01*
X44154344Y-46104615D01*
X44154344Y-42865253D01*
X44172431Y-42847174D01*
X44190518Y-42829094D01*
X44720118Y-42829094D01*
X44827597Y-42829134D01*
G36*
X45252809Y-44192881D02*
G01*
X45343927Y-44194879D01*
X45421514Y-44197752D01*
X45487904Y-44201843D01*
X45545433Y-44207497D01*
X45596435Y-44215055D01*
X45643245Y-44224861D01*
X45688197Y-44237259D01*
X45733628Y-44252592D01*
X45779723Y-44270337D01*
X45867343Y-44312546D01*
X45951157Y-44366276D01*
X46027786Y-44428916D01*
X46093851Y-44497858D01*
X46122929Y-44535361D01*
X46178121Y-44625034D01*
X46222226Y-44724081D01*
X46255432Y-44833146D01*
X46277928Y-44952875D01*
X46289902Y-45083915D01*
X46291037Y-45111125D01*
X46289571Y-45249487D01*
X46275627Y-45380189D01*
X46249394Y-45502636D01*
X46211060Y-45616234D01*
X46160813Y-45720389D01*
X46098843Y-45814506D01*
X46049494Y-45873123D01*
X45979456Y-45940990D01*
X45904781Y-45997980D01*
X45823154Y-46045349D01*
X45732261Y-46084349D01*
X45629789Y-46116235D01*
X45577357Y-46129034D01*
X45560514Y-46132660D01*
X45543707Y-46135739D01*
X45525476Y-46138328D01*
X45504360Y-46140483D01*
X45478901Y-46142261D01*
X45447638Y-46143719D01*
X45409111Y-46144914D01*
X45361861Y-46145901D01*
X45304427Y-46146737D01*
X45235351Y-46147480D01*
X45153171Y-46148186D01*
X45066919Y-46148835D01*
X44972654Y-46149510D01*
X44892967Y-46150031D01*
X44826561Y-46150358D01*
X44772140Y-46150453D01*
X44728407Y-46150276D01*
X44694066Y-46149788D01*
X44667819Y-46148951D01*
X44648372Y-46147724D01*
X44634426Y-46146070D01*
X44624685Y-46143948D01*
X44617853Y-46141320D01*
X44612633Y-46138147D01*
X44608529Y-46135019D01*
X44594647Y-46121167D01*
X44588332Y-46104363D01*
X44586938Y-46080690D01*
X44591741Y-46043620D01*
X44606826Y-46017667D01*
X44632262Y-46001428D01*
X44645763Y-45999104D01*
X44674102Y-45997017D01*
X44717444Y-45995164D01*
X44775952Y-45993540D01*
X44849792Y-45992142D01*
X44939126Y-45990963D01*
X45044121Y-45990002D01*
X45079063Y-45989752D01*
X45177677Y-45989055D01*
X45261944Y-45988302D01*
X45333391Y-45987356D01*
X45393545Y-45986083D01*
X45443933Y-45984345D01*
X45486084Y-45982008D01*
X45521523Y-45978936D01*
X45551780Y-45974991D01*
X45578380Y-45970039D01*
X45602851Y-45963944D01*
X45626721Y-45956569D01*
X45651517Y-45947779D01*
X45678765Y-45937438D01*
X45682313Y-45936071D01*
X45775929Y-45891779D01*
X45860166Y-45835082D01*
X45934093Y-45766878D01*
X45996777Y-45688066D01*
X46047288Y-45599544D01*
X46059420Y-45572435D01*
X46090987Y-45485455D01*
X46113587Y-45394318D01*
X46127756Y-45296008D01*
X46134031Y-45187507D01*
X46134458Y-45150813D01*
X46129091Y-45023125D01*
X46112468Y-44906613D01*
X46084543Y-44801213D01*
X46045272Y-44706864D01*
X45994612Y-44623502D01*
X45932517Y-44551065D01*
X45858943Y-44489490D01*
X45773846Y-44438714D01*
X45677181Y-44398675D01*
X45583094Y-44372403D01*
X45559054Y-44367306D01*
X45535439Y-44363177D01*
X45510052Y-44359867D01*
X45480696Y-44357229D01*
X45445176Y-44355116D01*
X45401295Y-44353380D01*
X45346855Y-44351873D01*
X45279661Y-44350448D01*
X45247069Y-44349838D01*
X44990419Y-44345156D01*
X44966410Y-44318270D01*
X44951160Y-44298567D01*
X44945672Y-44281593D01*
X44946956Y-44262707D01*
X44959511Y-44231309D01*
X44976705Y-44211327D01*
X45001898Y-44188623D01*
X45252809Y-44192881D01*
G37*
X45252809Y-44192881D02*
X45343927Y-44194879D01*
X45421514Y-44197752D01*
X45487904Y-44201843D01*
X45545433Y-44207497D01*
X45596435Y-44215055D01*
X45643245Y-44224861D01*
X45688197Y-44237259D01*
X45733628Y-44252592D01*
X45779723Y-44270337D01*
X45867343Y-44312546D01*
X45951157Y-44366276D01*
X46027786Y-44428916D01*
X46093851Y-44497858D01*
X46122929Y-44535361D01*
X46178121Y-44625034D01*
X46222226Y-44724081D01*
X46255432Y-44833146D01*
X46277928Y-44952875D01*
X46289902Y-45083915D01*
X46291037Y-45111125D01*
X46289571Y-45249487D01*
X46275627Y-45380189D01*
X46249394Y-45502636D01*
X46211060Y-45616234D01*
X46160813Y-45720389D01*
X46098843Y-45814506D01*
X46049494Y-45873123D01*
X45979456Y-45940990D01*
X45904781Y-45997980D01*
X45823154Y-46045349D01*
X45732261Y-46084349D01*
X45629789Y-46116235D01*
X45577357Y-46129034D01*
X45560514Y-46132660D01*
X45543707Y-46135739D01*
X45525476Y-46138328D01*
X45504360Y-46140483D01*
X45478901Y-46142261D01*
X45447638Y-46143719D01*
X45409111Y-46144914D01*
X45361861Y-46145901D01*
X45304427Y-46146737D01*
X45235351Y-46147480D01*
X45153171Y-46148186D01*
X45066919Y-46148835D01*
X44972654Y-46149510D01*
X44892967Y-46150031D01*
X44826561Y-46150358D01*
X44772140Y-46150453D01*
X44728407Y-46150276D01*
X44694066Y-46149788D01*
X44667819Y-46148951D01*
X44648372Y-46147724D01*
X44634426Y-46146070D01*
X44624685Y-46143948D01*
X44617853Y-46141320D01*
X44612633Y-46138147D01*
X44608529Y-46135019D01*
X44594647Y-46121167D01*
X44588332Y-46104363D01*
X44586938Y-46080690D01*
X44591741Y-46043620D01*
X44606826Y-46017667D01*
X44632262Y-46001428D01*
X44645763Y-45999104D01*
X44674102Y-45997017D01*
X44717444Y-45995164D01*
X44775952Y-45993540D01*
X44849792Y-45992142D01*
X44939126Y-45990963D01*
X45044121Y-45990002D01*
X45079063Y-45989752D01*
X45177677Y-45989055D01*
X45261944Y-45988302D01*
X45333391Y-45987356D01*
X45393545Y-45986083D01*
X45443933Y-45984345D01*
X45486084Y-45982008D01*
X45521523Y-45978936D01*
X45551780Y-45974991D01*
X45578380Y-45970039D01*
X45602851Y-45963944D01*
X45626721Y-45956569D01*
X45651517Y-45947779D01*
X45678765Y-45937438D01*
X45682313Y-45936071D01*
X45775929Y-45891779D01*
X45860166Y-45835082D01*
X45934093Y-45766878D01*
X45996777Y-45688066D01*
X46047288Y-45599544D01*
X46059420Y-45572435D01*
X46090987Y-45485455D01*
X46113587Y-45394318D01*
X46127756Y-45296008D01*
X46134031Y-45187507D01*
X46134458Y-45150813D01*
X46129091Y-45023125D01*
X46112468Y-44906613D01*
X46084543Y-44801213D01*
X46045272Y-44706864D01*
X45994612Y-44623502D01*
X45932517Y-44551065D01*
X45858943Y-44489490D01*
X45773846Y-44438714D01*
X45677181Y-44398675D01*
X45583094Y-44372403D01*
X45559054Y-44367306D01*
X45535439Y-44363177D01*
X45510052Y-44359867D01*
X45480696Y-44357229D01*
X45445176Y-44355116D01*
X45401295Y-44353380D01*
X45346855Y-44351873D01*
X45279661Y-44350448D01*
X45247069Y-44349838D01*
X44990419Y-44345156D01*
X44966410Y-44318270D01*
X44951160Y-44298567D01*
X44945672Y-44281593D01*
X44946956Y-44262707D01*
X44959511Y-44231309D01*
X44976705Y-44211327D01*
X45001898Y-44188623D01*
X45252809Y-44192881D01*
G36*
X49975119Y-44521415D02*
G01*
X49997886Y-44534969D01*
X50020156Y-44554125D01*
X50020156Y-45848952D01*
X49999539Y-45869569D01*
X49973036Y-45886722D01*
X49940990Y-45894307D01*
X49909821Y-45891287D01*
X49897531Y-45886042D01*
X49880889Y-45872529D01*
X49872292Y-45860095D01*
X49871387Y-45850030D01*
X49870511Y-45825306D01*
X49869678Y-45787136D01*
X49868897Y-45736736D01*
X49868182Y-45675319D01*
X49867543Y-45604102D01*
X49866992Y-45524299D01*
X49866541Y-45437124D01*
X49866202Y-45343792D01*
X49865986Y-45245519D01*
X49865933Y-45200061D01*
X49865375Y-44554778D01*
X49884858Y-44535295D01*
X49910923Y-44519542D01*
X49942841Y-44514910D01*
X49975119Y-44521415D01*
G37*
X49975119Y-44521415D02*
X49997886Y-44534969D01*
X50020156Y-44554125D01*
X50020156Y-45848952D01*
X49999539Y-45869569D01*
X49973036Y-45886722D01*
X49940990Y-45894307D01*
X49909821Y-45891287D01*
X49897531Y-45886042D01*
X49880889Y-45872529D01*
X49872292Y-45860095D01*
X49871387Y-45850030D01*
X49870511Y-45825306D01*
X49869678Y-45787136D01*
X49868897Y-45736736D01*
X49868182Y-45675319D01*
X49867543Y-45604102D01*
X49866992Y-45524299D01*
X49866541Y-45437124D01*
X49866202Y-45343792D01*
X49865986Y-45245519D01*
X49865933Y-45200061D01*
X49865375Y-44554778D01*
X49884858Y-44535295D01*
X49910923Y-44519542D01*
X49942841Y-44514910D01*
X49975119Y-44521415D01*
G36*
X51852076Y-43664042D02*
G01*
X51868955Y-43675844D01*
X51869243Y-43676091D01*
X51880243Y-43686604D01*
X51886965Y-43697667D01*
X51890532Y-43713437D01*
X51892066Y-43738068D01*
X51892525Y-43762289D01*
X51896556Y-43814862D01*
X51908481Y-43858743D01*
X51930356Y-43898738D01*
X51964238Y-43939651D01*
X51971861Y-43947576D01*
X52009797Y-43983594D01*
X52053274Y-44019471D01*
X52103404Y-44055851D01*
X52161301Y-44093375D01*
X52228081Y-44132688D01*
X52304855Y-44174431D01*
X52392739Y-44219249D01*
X52492847Y-44267783D01*
X52606292Y-44320678D01*
X52663344Y-44346687D01*
X52782774Y-44401732D01*
X52888421Y-44452508D01*
X52981560Y-44499773D01*
X53063467Y-44544279D01*
X53135418Y-44586783D01*
X53198688Y-44628038D01*
X53254553Y-44668801D01*
X53304290Y-44709825D01*
X53349173Y-44751865D01*
X53350601Y-44753293D01*
X53407715Y-44816629D01*
X53450821Y-44879272D01*
X53480854Y-44943898D01*
X53498750Y-45013181D01*
X53505445Y-45089798D01*
X53501874Y-45176424D01*
X53501175Y-45183843D01*
X53484648Y-45281106D01*
X53454626Y-45370467D01*
X53410740Y-45452598D01*
X53352620Y-45528171D01*
X53279896Y-45597859D01*
X53267921Y-45607672D01*
X53213072Y-45647074D01*
X53150400Y-45684366D01*
X53084992Y-45716934D01*
X53021935Y-45742162D01*
X52984361Y-45753450D01*
X52929531Y-45765075D01*
X52864529Y-45775399D01*
X52792973Y-45784145D01*
X52718483Y-45791034D01*
X52644677Y-45795786D01*
X52575176Y-45798123D01*
X52513598Y-45797766D01*
X52463563Y-45794436D01*
X52459231Y-45793916D01*
X52380663Y-45781545D01*
X52300646Y-45764511D01*
X52223201Y-45743917D01*
X52152347Y-45720865D01*
X52092104Y-45696460D01*
X52076250Y-45688810D01*
X51998140Y-45643292D01*
X51925161Y-45589167D01*
X51860630Y-45529258D01*
X51807863Y-45466391D01*
X51797468Y-45451402D01*
X51768659Y-45404380D01*
X51750941Y-45366024D01*
X51743634Y-45334350D01*
X51746059Y-45307372D01*
X51747054Y-45304104D01*
X51759868Y-45275889D01*
X51777658Y-45260313D01*
X51804632Y-45254365D01*
X51817070Y-45254000D01*
X51843729Y-45256303D01*
X51864311Y-45264907D01*
X51881881Y-45282357D01*
X51899508Y-45311194D01*
X51909148Y-45330364D01*
X51931196Y-45366117D01*
X51963428Y-45405849D01*
X52002165Y-45445808D01*
X52043726Y-45482240D01*
X52084433Y-45511390D01*
X52089743Y-45514610D01*
X52177595Y-45558743D01*
X52275880Y-45594207D01*
X52381275Y-45620250D01*
X52490455Y-45636124D01*
X52600096Y-45641079D01*
X52644622Y-45639769D01*
X52767289Y-45629323D01*
X52876788Y-45611385D01*
X52974094Y-45585675D01*
X53060182Y-45551910D01*
X53136027Y-45509811D01*
X53164918Y-45489683D01*
X53219333Y-45442120D01*
X53265245Y-45385780D01*
X53305073Y-45317587D01*
X53312688Y-45301902D01*
X53333434Y-45250896D01*
X53345524Y-45201893D01*
X53349578Y-45150037D01*
X53346216Y-45090469D01*
X53343036Y-45064157D01*
X53332888Y-45014661D01*
X53315603Y-44967458D01*
X53290391Y-44921915D01*
X53256462Y-44877398D01*
X53213025Y-44833273D01*
X53159289Y-44788907D01*
X53094465Y-44743666D01*
X53017761Y-44696916D01*
X52928388Y-44648024D01*
X52825553Y-44596356D01*
X52708469Y-44541278D01*
X52667560Y-44522693D01*
X52561280Y-44474169D01*
X52460001Y-44426745D01*
X52365117Y-44381120D01*
X52278017Y-44337996D01*
X52200094Y-44298070D01*
X52132740Y-44262045D01*
X52077347Y-44230620D01*
X52036281Y-44205143D01*
X51979001Y-44163926D01*
X51921549Y-44116892D01*
X51876878Y-44075553D01*
X51842520Y-44040233D01*
X51816935Y-44010592D01*
X51796728Y-43982114D01*
X51778502Y-43950281D01*
X51769722Y-43933012D01*
X51753920Y-43900500D01*
X51743762Y-43876267D01*
X51738001Y-43854888D01*
X51735391Y-43830939D01*
X51734685Y-43798996D01*
X51734656Y-43780447D01*
X51735810Y-43735387D01*
X51740286Y-43703606D01*
X51749610Y-43682610D01*
X51765305Y-43669907D01*
X51788897Y-43663002D01*
X51807946Y-43660560D01*
X51834137Y-43659555D01*
X51852076Y-43664042D01*
G37*
X51852076Y-43664042D02*
X51868955Y-43675844D01*
X51869243Y-43676091D01*
X51880243Y-43686604D01*
X51886965Y-43697667D01*
X51890532Y-43713437D01*
X51892066Y-43738068D01*
X51892525Y-43762289D01*
X51896556Y-43814862D01*
X51908481Y-43858743D01*
X51930356Y-43898738D01*
X51964238Y-43939651D01*
X51971861Y-43947576D01*
X52009797Y-43983594D01*
X52053274Y-44019471D01*
X52103404Y-44055851D01*
X52161301Y-44093375D01*
X52228081Y-44132688D01*
X52304855Y-44174431D01*
X52392739Y-44219249D01*
X52492847Y-44267783D01*
X52606292Y-44320678D01*
X52663344Y-44346687D01*
X52782774Y-44401732D01*
X52888421Y-44452508D01*
X52981560Y-44499773D01*
X53063467Y-44544279D01*
X53135418Y-44586783D01*
X53198688Y-44628038D01*
X53254553Y-44668801D01*
X53304290Y-44709825D01*
X53349173Y-44751865D01*
X53350601Y-44753293D01*
X53407715Y-44816629D01*
X53450821Y-44879272D01*
X53480854Y-44943898D01*
X53498750Y-45013181D01*
X53505445Y-45089798D01*
X53501874Y-45176424D01*
X53501175Y-45183843D01*
X53484648Y-45281106D01*
X53454626Y-45370467D01*
X53410740Y-45452598D01*
X53352620Y-45528171D01*
X53279896Y-45597859D01*
X53267921Y-45607672D01*
X53213072Y-45647074D01*
X53150400Y-45684366D01*
X53084992Y-45716934D01*
X53021935Y-45742162D01*
X52984361Y-45753450D01*
X52929531Y-45765075D01*
X52864529Y-45775399D01*
X52792973Y-45784145D01*
X52718483Y-45791034D01*
X52644677Y-45795786D01*
X52575176Y-45798123D01*
X52513598Y-45797766D01*
X52463563Y-45794436D01*
X52459231Y-45793916D01*
X52380663Y-45781545D01*
X52300646Y-45764511D01*
X52223201Y-45743917D01*
X52152347Y-45720865D01*
X52092104Y-45696460D01*
X52076250Y-45688810D01*
X51998140Y-45643292D01*
X51925161Y-45589167D01*
X51860630Y-45529258D01*
X51807863Y-45466391D01*
X51797468Y-45451402D01*
X51768659Y-45404380D01*
X51750941Y-45366024D01*
X51743634Y-45334350D01*
X51746059Y-45307372D01*
X51747054Y-45304104D01*
X51759868Y-45275889D01*
X51777658Y-45260313D01*
X51804632Y-45254365D01*
X51817070Y-45254000D01*
X51843729Y-45256303D01*
X51864311Y-45264907D01*
X51881881Y-45282357D01*
X51899508Y-45311194D01*
X51909148Y-45330364D01*
X51931196Y-45366117D01*
X51963428Y-45405849D01*
X52002165Y-45445808D01*
X52043726Y-45482240D01*
X52084433Y-45511390D01*
X52089743Y-45514610D01*
X52177595Y-45558743D01*
X52275880Y-45594207D01*
X52381275Y-45620250D01*
X52490455Y-45636124D01*
X52600096Y-45641079D01*
X52644622Y-45639769D01*
X52767289Y-45629323D01*
X52876788Y-45611385D01*
X52974094Y-45585675D01*
X53060182Y-45551910D01*
X53136027Y-45509811D01*
X53164918Y-45489683D01*
X53219333Y-45442120D01*
X53265245Y-45385780D01*
X53305073Y-45317587D01*
X53312688Y-45301902D01*
X53333434Y-45250896D01*
X53345524Y-45201893D01*
X53349578Y-45150037D01*
X53346216Y-45090469D01*
X53343036Y-45064157D01*
X53332888Y-45014661D01*
X53315603Y-44967458D01*
X53290391Y-44921915D01*
X53256462Y-44877398D01*
X53213025Y-44833273D01*
X53159289Y-44788907D01*
X53094465Y-44743666D01*
X53017761Y-44696916D01*
X52928388Y-44648024D01*
X52825553Y-44596356D01*
X52708469Y-44541278D01*
X52667560Y-44522693D01*
X52561280Y-44474169D01*
X52460001Y-44426745D01*
X52365117Y-44381120D01*
X52278017Y-44337996D01*
X52200094Y-44298070D01*
X52132740Y-44262045D01*
X52077347Y-44230620D01*
X52036281Y-44205143D01*
X51979001Y-44163926D01*
X51921549Y-44116892D01*
X51876878Y-44075553D01*
X51842520Y-44040233D01*
X51816935Y-44010592D01*
X51796728Y-43982114D01*
X51778502Y-43950281D01*
X51769722Y-43933012D01*
X51753920Y-43900500D01*
X51743762Y-43876267D01*
X51738001Y-43854888D01*
X51735391Y-43830939D01*
X51734685Y-43798996D01*
X51734656Y-43780447D01*
X51735810Y-43735387D01*
X51740286Y-43703606D01*
X51749610Y-43682610D01*
X51765305Y-43669907D01*
X51788897Y-43663002D01*
X51807946Y-43660560D01*
X51834137Y-43659555D01*
X51852076Y-43664042D01*
G36*
X44921936Y-43229994D02*
G01*
X45014220Y-43230212D01*
X45092484Y-43230934D01*
X45158579Y-43232316D01*
X45214358Y-43234513D01*
X45261671Y-43237680D01*
X45302371Y-43241975D01*
X45338308Y-43247551D01*
X45371334Y-43254565D01*
X45403301Y-43263174D01*
X45434851Y-43273128D01*
X45514438Y-43307031D01*
X45582502Y-43351789D01*
X45638914Y-43407204D01*
X45683545Y-43473075D01*
X45716267Y-43549206D01*
X45736949Y-43635397D01*
X45745464Y-43731449D01*
X45745695Y-43752526D01*
X45742190Y-43822326D01*
X45732297Y-43883904D01*
X45716616Y-43935933D01*
X45695743Y-43977087D01*
X45670279Y-44006036D01*
X45640821Y-44021455D01*
X45623477Y-44023688D01*
X45591349Y-44016828D01*
X45567563Y-43996576D01*
X45555139Y-43971569D01*
X45550716Y-43953764D01*
X45551129Y-43936655D01*
X45557057Y-43914582D01*
X45564454Y-43894203D01*
X45574820Y-43855400D01*
X45581518Y-43806423D01*
X45584494Y-43752127D01*
X45583697Y-43697364D01*
X45579072Y-43646989D01*
X45570570Y-43605853D01*
X45567667Y-43597134D01*
X45539076Y-43539147D01*
X45499678Y-43491102D01*
X45448785Y-43452518D01*
X45385707Y-43422914D01*
X45309756Y-43401808D01*
X45280634Y-43396442D01*
X45260955Y-43394519D01*
X45227810Y-43392770D01*
X45183610Y-43391258D01*
X45130764Y-43390045D01*
X45071680Y-43389195D01*
X45008768Y-43388770D01*
X44985797Y-43388733D01*
X44737750Y-43388688D01*
X44737750Y-45563563D01*
X45053266Y-45563317D01*
X45152120Y-45563019D01*
X45236594Y-45562170D01*
X45308177Y-45560591D01*
X45368361Y-45558106D01*
X45418636Y-45554535D01*
X45460491Y-45549699D01*
X45495417Y-45543421D01*
X45524904Y-45535522D01*
X45550443Y-45525824D01*
X45573524Y-45514148D01*
X45595637Y-45500317D01*
X45599042Y-45497990D01*
X45639494Y-45464325D01*
X45670778Y-45424533D01*
X45693717Y-45376658D01*
X45709135Y-45318741D01*
X45717852Y-45248824D01*
X45719901Y-45210344D01*
X45718968Y-45119215D01*
X45708973Y-45040528D01*
X45689341Y-44973305D01*
X45659492Y-44916569D01*
X45618849Y-44869343D01*
X45566834Y-44830648D01*
X45502869Y-44799508D01*
X45469936Y-44787669D01*
X45449654Y-44781320D01*
X45430783Y-44776402D01*
X45410816Y-44772687D01*
X45387248Y-44769945D01*
X45357573Y-44767946D01*
X45319284Y-44766460D01*
X45269876Y-44765259D01*
X45214000Y-44764235D01*
X45146804Y-44762867D01*
X45093614Y-44761132D01*
X45052558Y-44758754D01*
X45021767Y-44755458D01*
X44999372Y-44750966D01*
X44983502Y-44745003D01*
X44972288Y-44737293D01*
X44963860Y-44727560D01*
X44963653Y-44727265D01*
X44953033Y-44699994D01*
X44952426Y-44667874D01*
X44961263Y-44637707D01*
X44972489Y-44621665D01*
X44992915Y-44601239D01*
X45192754Y-44605532D01*
X45275879Y-44607965D01*
X45345794Y-44611723D01*
X45405147Y-44617331D01*
X45456583Y-44625315D01*
X45502748Y-44636202D01*
X45546288Y-44650517D01*
X45589850Y-44668786D01*
X45636079Y-44691537D01*
X45642673Y-44694982D01*
X45703642Y-44735664D01*
X45758025Y-44789338D01*
X45804303Y-44853948D01*
X45840956Y-44927442D01*
X45862541Y-44992063D01*
X45869198Y-45028112D01*
X45873841Y-45075828D01*
X45876470Y-45131133D01*
X45877086Y-45189947D01*
X45875690Y-45248191D01*
X45872282Y-45301785D01*
X45866862Y-45346651D01*
X45862492Y-45368296D01*
X45836632Y-45447012D01*
X45801173Y-45514773D01*
X45755468Y-45572067D01*
X45698866Y-45619380D01*
X45630717Y-45657199D01*
X45550374Y-45686011D01*
X45457186Y-45706303D01*
X45401615Y-45713853D01*
X45375805Y-45715842D01*
X45337922Y-45717541D01*
X45289883Y-45718953D01*
X45233605Y-45720081D01*
X45171004Y-45720925D01*
X45103997Y-45721488D01*
X45034499Y-45721772D01*
X44964428Y-45721779D01*
X44895699Y-45721511D01*
X44830231Y-45720970D01*
X44769938Y-45720158D01*
X44716737Y-45719077D01*
X44672545Y-45717729D01*
X44639279Y-45716116D01*
X44618854Y-45714240D01*
X44613640Y-45713029D01*
X44597227Y-45699485D01*
X44587843Y-45685411D01*
X44586543Y-45677419D01*
X44585358Y-45659121D01*
X44584285Y-45630093D01*
X44583321Y-45589908D01*
X44582463Y-45538140D01*
X44581708Y-45474362D01*
X44581053Y-45398150D01*
X44580494Y-45309076D01*
X44580029Y-45206715D01*
X44579655Y-45090640D01*
X44579368Y-44960425D01*
X44579165Y-44815645D01*
X44579044Y-44655873D01*
X44579000Y-44480683D01*
X44579000Y-43268903D01*
X44617966Y-43229937D01*
X44921936Y-43229994D01*
G37*
X44921936Y-43229994D02*
X45014220Y-43230212D01*
X45092484Y-43230934D01*
X45158579Y-43232316D01*
X45214358Y-43234513D01*
X45261671Y-43237680D01*
X45302371Y-43241975D01*
X45338308Y-43247551D01*
X45371334Y-43254565D01*
X45403301Y-43263174D01*
X45434851Y-43273128D01*
X45514438Y-43307031D01*
X45582502Y-43351789D01*
X45638914Y-43407204D01*
X45683545Y-43473075D01*
X45716267Y-43549206D01*
X45736949Y-43635397D01*
X45745464Y-43731449D01*
X45745695Y-43752526D01*
X45742190Y-43822326D01*
X45732297Y-43883904D01*
X45716616Y-43935933D01*
X45695743Y-43977087D01*
X45670279Y-44006036D01*
X45640821Y-44021455D01*
X45623477Y-44023688D01*
X45591349Y-44016828D01*
X45567563Y-43996576D01*
X45555139Y-43971569D01*
X45550716Y-43953764D01*
X45551129Y-43936655D01*
X45557057Y-43914582D01*
X45564454Y-43894203D01*
X45574820Y-43855400D01*
X45581518Y-43806423D01*
X45584494Y-43752127D01*
X45583697Y-43697364D01*
X45579072Y-43646989D01*
X45570570Y-43605853D01*
X45567667Y-43597134D01*
X45539076Y-43539147D01*
X45499678Y-43491102D01*
X45448785Y-43452518D01*
X45385707Y-43422914D01*
X45309756Y-43401808D01*
X45280634Y-43396442D01*
X45260955Y-43394519D01*
X45227810Y-43392770D01*
X45183610Y-43391258D01*
X45130764Y-43390045D01*
X45071680Y-43389195D01*
X45008768Y-43388770D01*
X44985797Y-43388733D01*
X44737750Y-43388688D01*
X44737750Y-45563563D01*
X45053266Y-45563317D01*
X45152120Y-45563019D01*
X45236594Y-45562170D01*
X45308177Y-45560591D01*
X45368361Y-45558106D01*
X45418636Y-45554535D01*
X45460491Y-45549699D01*
X45495417Y-45543421D01*
X45524904Y-45535522D01*
X45550443Y-45525824D01*
X45573524Y-45514148D01*
X45595637Y-45500317D01*
X45599042Y-45497990D01*
X45639494Y-45464325D01*
X45670778Y-45424533D01*
X45693717Y-45376658D01*
X45709135Y-45318741D01*
X45717852Y-45248824D01*
X45719901Y-45210344D01*
X45718968Y-45119215D01*
X45708973Y-45040528D01*
X45689341Y-44973305D01*
X45659492Y-44916569D01*
X45618849Y-44869343D01*
X45566834Y-44830648D01*
X45502869Y-44799508D01*
X45469936Y-44787669D01*
X45449654Y-44781320D01*
X45430783Y-44776402D01*
X45410816Y-44772687D01*
X45387248Y-44769945D01*
X45357573Y-44767946D01*
X45319284Y-44766460D01*
X45269876Y-44765259D01*
X45214000Y-44764235D01*
X45146804Y-44762867D01*
X45093614Y-44761132D01*
X45052558Y-44758754D01*
X45021767Y-44755458D01*
X44999372Y-44750966D01*
X44983502Y-44745003D01*
X44972288Y-44737293D01*
X44963860Y-44727560D01*
X44963653Y-44727265D01*
X44953033Y-44699994D01*
X44952426Y-44667874D01*
X44961263Y-44637707D01*
X44972489Y-44621665D01*
X44992915Y-44601239D01*
X45192754Y-44605532D01*
X45275879Y-44607965D01*
X45345794Y-44611723D01*
X45405147Y-44617331D01*
X45456583Y-44625315D01*
X45502748Y-44636202D01*
X45546288Y-44650517D01*
X45589850Y-44668786D01*
X45636079Y-44691537D01*
X45642673Y-44694982D01*
X45703642Y-44735664D01*
X45758025Y-44789338D01*
X45804303Y-44853948D01*
X45840956Y-44927442D01*
X45862541Y-44992063D01*
X45869198Y-45028112D01*
X45873841Y-45075828D01*
X45876470Y-45131133D01*
X45877086Y-45189947D01*
X45875690Y-45248191D01*
X45872282Y-45301785D01*
X45866862Y-45346651D01*
X45862492Y-45368296D01*
X45836632Y-45447012D01*
X45801173Y-45514773D01*
X45755468Y-45572067D01*
X45698866Y-45619380D01*
X45630717Y-45657199D01*
X45550374Y-45686011D01*
X45457186Y-45706303D01*
X45401615Y-45713853D01*
X45375805Y-45715842D01*
X45337922Y-45717541D01*
X45289883Y-45718953D01*
X45233605Y-45720081D01*
X45171004Y-45720925D01*
X45103997Y-45721488D01*
X45034499Y-45721772D01*
X44964428Y-45721779D01*
X44895699Y-45721511D01*
X44830231Y-45720970D01*
X44769938Y-45720158D01*
X44716737Y-45719077D01*
X44672545Y-45717729D01*
X44639279Y-45716116D01*
X44618854Y-45714240D01*
X44613640Y-45713029D01*
X44597227Y-45699485D01*
X44587843Y-45685411D01*
X44586543Y-45677419D01*
X44585358Y-45659121D01*
X44584285Y-45630093D01*
X44583321Y-45589908D01*
X44582463Y-45538140D01*
X44581708Y-45474362D01*
X44581053Y-45398150D01*
X44580494Y-45309076D01*
X44580029Y-45206715D01*
X44579655Y-45090640D01*
X44579368Y-44960425D01*
X44579165Y-44815645D01*
X44579044Y-44655873D01*
X44579000Y-44480683D01*
X44579000Y-43268903D01*
X44617966Y-43229937D01*
X44921936Y-43229994D01*
G36*
X52305636Y-43196859D02*
G01*
X52398308Y-43206146D01*
X52483165Y-43219809D01*
X52529858Y-43230309D01*
X52568610Y-43242519D01*
X52616292Y-43260994D01*
X52668334Y-43283642D01*
X52720170Y-43308372D01*
X52767231Y-43333090D01*
X52804949Y-43355705D01*
X52807779Y-43357599D01*
X52887287Y-43420154D01*
X52953385Y-43491103D01*
X53006148Y-43570580D01*
X53045653Y-43658722D01*
X53071974Y-43755663D01*
X53084429Y-43850201D01*
X53086137Y-43901106D01*
X53082315Y-43938977D01*
X53072336Y-43965880D01*
X53055572Y-43983879D01*
X53041484Y-43991478D01*
X53008969Y-43997847D01*
X52976403Y-43992474D01*
X52949869Y-43976494D01*
X52947415Y-43973957D01*
X52939687Y-43962805D01*
X52934252Y-43947133D01*
X52930412Y-43923561D01*
X52927464Y-43888703D01*
X52926495Y-43872875D01*
X52923287Y-43832636D01*
X52918627Y-43793298D01*
X52913274Y-43760730D01*
X52910309Y-43747824D01*
X52895640Y-43707076D01*
X52873315Y-43660471D01*
X52846448Y-43613808D01*
X52818158Y-43572889D01*
X52812455Y-43565723D01*
X52770577Y-43524394D01*
X52715348Y-43485018D01*
X52649270Y-43448690D01*
X52574844Y-43416500D01*
X52494571Y-43389541D01*
X52410953Y-43368904D01*
X52333078Y-43356425D01*
X52277400Y-43351969D01*
X52212015Y-43350018D01*
X52141174Y-43350419D01*
X52069128Y-43353019D01*
X52000128Y-43357664D01*
X51938425Y-43364202D01*
X51888300Y-43372472D01*
X51793790Y-43397924D01*
X51711728Y-43431923D01*
X51640766Y-43475162D01*
X51579559Y-43528330D01*
X51574538Y-43533567D01*
X51530471Y-43587047D01*
X51499241Y-43641974D01*
X51479563Y-43701747D01*
X51470152Y-43769763D01*
X51468888Y-43813027D01*
X51474061Y-43897348D01*
X51489907Y-43973616D01*
X51517438Y-44046374D01*
X51523692Y-44059406D01*
X51560523Y-44123976D01*
X51605155Y-44183332D01*
X51659337Y-44239172D01*
X51724821Y-44293197D01*
X51803357Y-44347107D01*
X51848477Y-44374794D01*
X51881487Y-44394320D01*
X51910704Y-44411301D01*
X51937985Y-44426641D01*
X51965183Y-44441246D01*
X51994156Y-44456017D01*
X52026756Y-44471860D01*
X52064840Y-44489678D01*
X52110263Y-44510376D01*
X52164879Y-44534856D01*
X52230544Y-44564023D01*
X52298855Y-44594248D01*
X52362987Y-44622891D01*
X52426492Y-44651793D01*
X52486885Y-44679784D01*
X52541676Y-44705691D01*
X52588379Y-44728344D01*
X52624504Y-44746571D01*
X52640168Y-44754950D01*
X52697665Y-44788421D01*
X52755039Y-44824627D01*
X52809602Y-44861661D01*
X52858669Y-44897616D01*
X52899554Y-44930583D01*
X52929572Y-44958655D01*
X52934410Y-44963939D01*
X52966616Y-45006888D01*
X52995403Y-45057096D01*
X53017958Y-45108904D01*
X53031470Y-45156653D01*
X53032175Y-45160734D01*
X53035198Y-45199323D01*
X53033332Y-45240744D01*
X53027201Y-45278955D01*
X53017429Y-45307917D01*
X53016857Y-45309013D01*
X52997326Y-45330245D01*
X52969747Y-45340240D01*
X52937842Y-45338415D01*
X52908288Y-45326051D01*
X52890856Y-45314330D01*
X52879941Y-45302374D01*
X52874176Y-45286306D01*
X52872190Y-45262252D01*
X52872614Y-45226334D01*
X52872646Y-45225164D01*
X52872871Y-45189597D01*
X52870540Y-45164042D01*
X52864656Y-45142710D01*
X52854664Y-45120681D01*
X52837268Y-45092349D01*
X52813294Y-45063986D01*
X52781633Y-45034839D01*
X52741177Y-45004156D01*
X52690817Y-44971186D01*
X52629446Y-44935175D01*
X52555954Y-44895371D01*
X52469234Y-44851022D01*
X52425219Y-44829195D01*
X52368954Y-44801882D01*
X52309095Y-44773458D01*
X52249889Y-44745894D01*
X52195582Y-44721165D01*
X52150422Y-44701245D01*
X52143438Y-44698256D01*
X52076000Y-44668558D01*
X52004781Y-44635377D01*
X51932752Y-44600235D01*
X51862887Y-44564653D01*
X51798157Y-44530151D01*
X51741536Y-44498251D01*
X51695996Y-44470475D01*
X51687781Y-44465083D01*
X51639685Y-44429689D01*
X51588347Y-44386255D01*
X51536966Y-44337967D01*
X51488741Y-44288009D01*
X51446870Y-44239570D01*
X51414553Y-44195834D01*
X51409526Y-44187945D01*
X51363188Y-44098491D01*
X51331618Y-44004044D01*
X51314666Y-43903994D01*
X51312184Y-43797727D01*
X51312574Y-43789531D01*
X51323441Y-43693920D01*
X51345756Y-43608538D01*
X51379998Y-43532141D01*
X51426643Y-43463484D01*
X51446572Y-43440413D01*
X51508199Y-43380239D01*
X51574840Y-43329462D01*
X51647964Y-43287539D01*
X51729040Y-43253927D01*
X51819539Y-43228082D01*
X51920930Y-43209463D01*
X52034683Y-43197524D01*
X52115656Y-43193100D01*
X52209850Y-43192370D01*
X52305636Y-43196859D01*
G37*
X52305636Y-43196859D02*
X52398308Y-43206146D01*
X52483165Y-43219809D01*
X52529858Y-43230309D01*
X52568610Y-43242519D01*
X52616292Y-43260994D01*
X52668334Y-43283642D01*
X52720170Y-43308372D01*
X52767231Y-43333090D01*
X52804949Y-43355705D01*
X52807779Y-43357599D01*
X52887287Y-43420154D01*
X52953385Y-43491103D01*
X53006148Y-43570580D01*
X53045653Y-43658722D01*
X53071974Y-43755663D01*
X53084429Y-43850201D01*
X53086137Y-43901106D01*
X53082315Y-43938977D01*
X53072336Y-43965880D01*
X53055572Y-43983879D01*
X53041484Y-43991478D01*
X53008969Y-43997847D01*
X52976403Y-43992474D01*
X52949869Y-43976494D01*
X52947415Y-43973957D01*
X52939687Y-43962805D01*
X52934252Y-43947133D01*
X52930412Y-43923561D01*
X52927464Y-43888703D01*
X52926495Y-43872875D01*
X52923287Y-43832636D01*
X52918627Y-43793298D01*
X52913274Y-43760730D01*
X52910309Y-43747824D01*
X52895640Y-43707076D01*
X52873315Y-43660471D01*
X52846448Y-43613808D01*
X52818158Y-43572889D01*
X52812455Y-43565723D01*
X52770577Y-43524394D01*
X52715348Y-43485018D01*
X52649270Y-43448690D01*
X52574844Y-43416500D01*
X52494571Y-43389541D01*
X52410953Y-43368904D01*
X52333078Y-43356425D01*
X52277400Y-43351969D01*
X52212015Y-43350018D01*
X52141174Y-43350419D01*
X52069128Y-43353019D01*
X52000128Y-43357664D01*
X51938425Y-43364202D01*
X51888300Y-43372472D01*
X51793790Y-43397924D01*
X51711728Y-43431923D01*
X51640766Y-43475162D01*
X51579559Y-43528330D01*
X51574538Y-43533567D01*
X51530471Y-43587047D01*
X51499241Y-43641974D01*
X51479563Y-43701747D01*
X51470152Y-43769763D01*
X51468888Y-43813027D01*
X51474061Y-43897348D01*
X51489907Y-43973616D01*
X51517438Y-44046374D01*
X51523692Y-44059406D01*
X51560523Y-44123976D01*
X51605155Y-44183332D01*
X51659337Y-44239172D01*
X51724821Y-44293197D01*
X51803357Y-44347107D01*
X51848477Y-44374794D01*
X51881487Y-44394320D01*
X51910704Y-44411301D01*
X51937985Y-44426641D01*
X51965183Y-44441246D01*
X51994156Y-44456017D01*
X52026756Y-44471860D01*
X52064840Y-44489678D01*
X52110263Y-44510376D01*
X52164879Y-44534856D01*
X52230544Y-44564023D01*
X52298855Y-44594248D01*
X52362987Y-44622891D01*
X52426492Y-44651793D01*
X52486885Y-44679784D01*
X52541676Y-44705691D01*
X52588379Y-44728344D01*
X52624504Y-44746571D01*
X52640168Y-44754950D01*
X52697665Y-44788421D01*
X52755039Y-44824627D01*
X52809602Y-44861661D01*
X52858669Y-44897616D01*
X52899554Y-44930583D01*
X52929572Y-44958655D01*
X52934410Y-44963939D01*
X52966616Y-45006888D01*
X52995403Y-45057096D01*
X53017958Y-45108904D01*
X53031470Y-45156653D01*
X53032175Y-45160734D01*
X53035198Y-45199323D01*
X53033332Y-45240744D01*
X53027201Y-45278955D01*
X53017429Y-45307917D01*
X53016857Y-45309013D01*
X52997326Y-45330245D01*
X52969747Y-45340240D01*
X52937842Y-45338415D01*
X52908288Y-45326051D01*
X52890856Y-45314330D01*
X52879941Y-45302374D01*
X52874176Y-45286306D01*
X52872190Y-45262252D01*
X52872614Y-45226334D01*
X52872646Y-45225164D01*
X52872871Y-45189597D01*
X52870540Y-45164042D01*
X52864656Y-45142710D01*
X52854664Y-45120681D01*
X52837268Y-45092349D01*
X52813294Y-45063986D01*
X52781633Y-45034839D01*
X52741177Y-45004156D01*
X52690817Y-44971186D01*
X52629446Y-44935175D01*
X52555954Y-44895371D01*
X52469234Y-44851022D01*
X52425219Y-44829195D01*
X52368954Y-44801882D01*
X52309095Y-44773458D01*
X52249889Y-44745894D01*
X52195582Y-44721165D01*
X52150422Y-44701245D01*
X52143438Y-44698256D01*
X52076000Y-44668558D01*
X52004781Y-44635377D01*
X51932752Y-44600235D01*
X51862887Y-44564653D01*
X51798157Y-44530151D01*
X51741536Y-44498251D01*
X51695996Y-44470475D01*
X51687781Y-44465083D01*
X51639685Y-44429689D01*
X51588347Y-44386255D01*
X51536966Y-44337967D01*
X51488741Y-44288009D01*
X51446870Y-44239570D01*
X51414553Y-44195834D01*
X51409526Y-44187945D01*
X51363188Y-44098491D01*
X51331618Y-44004044D01*
X51314666Y-43903994D01*
X51312184Y-43797727D01*
X51312574Y-43789531D01*
X51323441Y-43693920D01*
X51345756Y-43608538D01*
X51379998Y-43532141D01*
X51426643Y-43463484D01*
X51446572Y-43440413D01*
X51508199Y-43380239D01*
X51574840Y-43329462D01*
X51647964Y-43287539D01*
X51729040Y-43253927D01*
X51819539Y-43228082D01*
X51920930Y-43209463D01*
X52034683Y-43197524D01*
X52115656Y-43193100D01*
X52209850Y-43192370D01*
X52305636Y-43196859D01*
G36*
X51773266Y-44977530D02*
G01*
X51779164Y-44978063D01*
X51818057Y-44987844D01*
X51845149Y-45007826D01*
X51859599Y-45036797D01*
X51860564Y-45073546D01*
X51857030Y-45089993D01*
X51842861Y-45118591D01*
X51820374Y-45139879D01*
X51793930Y-45150085D01*
X51787164Y-45150462D01*
X51766475Y-45146495D01*
X51742128Y-45137168D01*
X51737764Y-45134973D01*
X51711082Y-45112876D01*
X51696037Y-45083348D01*
X51693121Y-45050259D01*
X51702824Y-45017482D01*
X51719899Y-44994191D01*
X51734457Y-44982104D01*
X51750036Y-44977152D01*
X51773266Y-44977530D01*
G37*
X51773266Y-44977530D02*
X51779164Y-44978063D01*
X51818057Y-44987844D01*
X51845149Y-45007826D01*
X51859599Y-45036797D01*
X51860564Y-45073546D01*
X51857030Y-45089993D01*
X51842861Y-45118591D01*
X51820374Y-45139879D01*
X51793930Y-45150085D01*
X51787164Y-45150462D01*
X51766475Y-45146495D01*
X51742128Y-45137168D01*
X51737764Y-45134973D01*
X51711082Y-45112876D01*
X51696037Y-45083348D01*
X51693121Y-45050259D01*
X51702824Y-45017482D01*
X51719899Y-44994191D01*
X51734457Y-44982104D01*
X51750036Y-44977152D01*
X51773266Y-44977530D01*
G36*
X48071195Y-43092184D02*
G01*
X48084605Y-43104392D01*
X48088089Y-43108454D01*
X48094930Y-43118845D01*
X48108906Y-43142007D01*
X48129398Y-43176860D01*
X48155787Y-43222324D01*
X48187452Y-43277318D01*
X48223776Y-43340761D01*
X48264137Y-43411574D01*
X48307917Y-43488676D01*
X48354497Y-43570985D01*
X48403256Y-43657423D01*
X48426870Y-43699381D01*
X48489881Y-43811622D01*
X48545226Y-43910643D01*
X48593190Y-43996970D01*
X48634053Y-44071127D01*
X48668098Y-44133636D01*
X48695608Y-44185022D01*
X48716865Y-44225809D01*
X48732151Y-44256521D01*
X48741749Y-44277681D01*
X48745941Y-44289814D01*
X48746188Y-44291833D01*
X48739028Y-44322424D01*
X48718912Y-44345841D01*
X48687884Y-44360104D01*
X48672883Y-44362802D01*
X48648563Y-44364246D01*
X48632496Y-44360096D01*
X48617408Y-44348068D01*
X48613520Y-44344161D01*
X48606271Y-44333791D01*
X48591977Y-44310605D01*
X48571257Y-44275688D01*
X48544731Y-44230125D01*
X48513020Y-44175002D01*
X48476744Y-44111404D01*
X48436524Y-44040416D01*
X48392979Y-43963123D01*
X48346730Y-43880610D01*
X48298398Y-43793963D01*
X48275797Y-43753307D01*
X48213443Y-43640814D01*
X48158684Y-43541583D01*
X48111242Y-43455088D01*
X48070836Y-43380807D01*
X48037189Y-43318215D01*
X48010022Y-43266789D01*
X47989057Y-43226004D01*
X47974014Y-43195337D01*
X47964615Y-43174264D01*
X47960581Y-43162261D01*
X47960375Y-43160421D01*
X47967552Y-43129774D01*
X47987612Y-43106227D01*
X48018350Y-43091951D01*
X48032621Y-43089380D01*
X48056193Y-43087980D01*
X48071195Y-43092184D01*
G37*
X48071195Y-43092184D02*
X48084605Y-43104392D01*
X48088089Y-43108454D01*
X48094930Y-43118845D01*
X48108906Y-43142007D01*
X48129398Y-43176860D01*
X48155787Y-43222324D01*
X48187452Y-43277318D01*
X48223776Y-43340761D01*
X48264137Y-43411574D01*
X48307917Y-43488676D01*
X48354497Y-43570985D01*
X48403256Y-43657423D01*
X48426870Y-43699381D01*
X48489881Y-43811622D01*
X48545226Y-43910643D01*
X48593190Y-43996970D01*
X48634053Y-44071127D01*
X48668098Y-44133636D01*
X48695608Y-44185022D01*
X48716865Y-44225809D01*
X48732151Y-44256521D01*
X48741749Y-44277681D01*
X48745941Y-44289814D01*
X48746188Y-44291833D01*
X48739028Y-44322424D01*
X48718912Y-44345841D01*
X48687884Y-44360104D01*
X48672883Y-44362802D01*
X48648563Y-44364246D01*
X48632496Y-44360096D01*
X48617408Y-44348068D01*
X48613520Y-44344161D01*
X48606271Y-44333791D01*
X48591977Y-44310605D01*
X48571257Y-44275688D01*
X48544731Y-44230125D01*
X48513020Y-44175002D01*
X48476744Y-44111404D01*
X48436524Y-44040416D01*
X48392979Y-43963123D01*
X48346730Y-43880610D01*
X48298398Y-43793963D01*
X48275797Y-43753307D01*
X48213443Y-43640814D01*
X48158684Y-43541583D01*
X48111242Y-43455088D01*
X48070836Y-43380807D01*
X48037189Y-43318215D01*
X48010022Y-43266789D01*
X47989057Y-43226004D01*
X47974014Y-43195337D01*
X47964615Y-43174264D01*
X47960581Y-43162261D01*
X47960375Y-43160421D01*
X47967552Y-43129774D01*
X47987612Y-43106227D01*
X48018350Y-43091951D01*
X48032621Y-43089380D01*
X48056193Y-43087980D01*
X48071195Y-43092184D01*
G36*
X46020902Y-43986102D02*
G01*
X46056870Y-43996221D01*
X46081585Y-44016514D01*
X46093881Y-44045815D01*
X46095063Y-44060243D01*
X46088957Y-44098631D01*
X46072277Y-44127358D01*
X46047482Y-44145034D01*
X46017028Y-44150270D01*
X45983374Y-44141676D01*
X45967252Y-44132532D01*
X45939019Y-44108094D01*
X45925841Y-44081814D01*
X45926899Y-44051474D01*
X45931733Y-44036089D01*
X45947907Y-44006545D01*
X45970315Y-43989979D01*
X46001644Y-43984885D01*
X46020902Y-43986102D01*
G37*
X46020902Y-43986102D02*
X46056870Y-43996221D01*
X46081585Y-44016514D01*
X46093881Y-44045815D01*
X46095063Y-44060243D01*
X46088957Y-44098631D01*
X46072277Y-44127358D01*
X46047482Y-44145034D01*
X46017028Y-44150270D01*
X45983374Y-44141676D01*
X45967252Y-44132532D01*
X45939019Y-44108094D01*
X45925841Y-44081814D01*
X45926899Y-44051474D01*
X45931733Y-44036089D01*
X45947907Y-44006545D01*
X45970315Y-43989979D01*
X46001644Y-43984885D01*
X46020902Y-43986102D01*
G36*
X52460527Y-42831769D02*
G01*
X52477175Y-42833360D01*
X52623340Y-42854705D01*
X52759344Y-42888121D01*
X52885128Y-42933579D01*
X53000635Y-42991050D01*
X53105805Y-43060505D01*
X53200582Y-43141916D01*
X53282908Y-43232753D01*
X53349334Y-43324268D01*
X53402190Y-43417173D01*
X53443542Y-43515603D01*
X53472751Y-43612808D01*
X53482636Y-43658451D01*
X53491374Y-43711152D01*
X53498580Y-43767029D01*
X53503869Y-43822197D01*
X53506857Y-43872773D01*
X53507159Y-43914875D01*
X53505164Y-43940141D01*
X53493598Y-43977849D01*
X53473045Y-44005150D01*
X53445653Y-44020487D01*
X53413568Y-44022307D01*
X53397563Y-44018082D01*
X53383187Y-44009733D01*
X53367797Y-43997481D01*
X53358330Y-43986731D01*
X53352907Y-43973064D01*
X53350465Y-43952038D01*
X53349938Y-43922772D01*
X53343066Y-43794294D01*
X53322668Y-43673471D01*
X53289069Y-43560771D01*
X53242595Y-43456661D01*
X53183568Y-43361608D01*
X53112316Y-43276079D01*
X53029163Y-43200541D01*
X52934435Y-43135461D01*
X52828455Y-43081306D01*
X52741069Y-43047903D01*
X52681767Y-43029813D01*
X52621724Y-43015119D01*
X52556411Y-43002894D01*
X52481302Y-42992209D01*
X52452563Y-42988742D01*
X52410902Y-42983647D01*
X52381944Y-42979182D01*
X52362590Y-42974485D01*
X52349738Y-42968693D01*
X52340287Y-42960944D01*
X52336101Y-42956336D01*
X52321423Y-42928613D01*
X52319148Y-42897846D01*
X52328128Y-42868476D01*
X52347210Y-42844940D01*
X52367896Y-42833643D01*
X52388631Y-42829694D01*
X52418607Y-42829071D01*
X52460527Y-42831769D01*
G37*
X52460527Y-42831769D02*
X52477175Y-42833360D01*
X52623340Y-42854705D01*
X52759344Y-42888121D01*
X52885128Y-42933579D01*
X53000635Y-42991050D01*
X53105805Y-43060505D01*
X53200582Y-43141916D01*
X53282908Y-43232753D01*
X53349334Y-43324268D01*
X53402190Y-43417173D01*
X53443542Y-43515603D01*
X53472751Y-43612808D01*
X53482636Y-43658451D01*
X53491374Y-43711152D01*
X53498580Y-43767029D01*
X53503869Y-43822197D01*
X53506857Y-43872773D01*
X53507159Y-43914875D01*
X53505164Y-43940141D01*
X53493598Y-43977849D01*
X53473045Y-44005150D01*
X53445653Y-44020487D01*
X53413568Y-44022307D01*
X53397563Y-44018082D01*
X53383187Y-44009733D01*
X53367797Y-43997481D01*
X53358330Y-43986731D01*
X53352907Y-43973064D01*
X53350465Y-43952038D01*
X53349938Y-43922772D01*
X53343066Y-43794294D01*
X53322668Y-43673471D01*
X53289069Y-43560771D01*
X53242595Y-43456661D01*
X53183568Y-43361608D01*
X53112316Y-43276079D01*
X53029163Y-43200541D01*
X52934435Y-43135461D01*
X52828455Y-43081306D01*
X52741069Y-43047903D01*
X52681767Y-43029813D01*
X52621724Y-43015119D01*
X52556411Y-43002894D01*
X52481302Y-42992209D01*
X52452563Y-42988742D01*
X52410902Y-42983647D01*
X52381944Y-42979182D01*
X52362590Y-42974485D01*
X52349738Y-42968693D01*
X52340287Y-42960944D01*
X52336101Y-42956336D01*
X52321423Y-42928613D01*
X52319148Y-42897846D01*
X52328128Y-42868476D01*
X52347210Y-42844940D01*
X52367896Y-42833643D01*
X52388631Y-42829694D01*
X52418607Y-42829071D01*
X52460527Y-42831769D01*
D13*
X60500000Y-35400000D02*
X60500000Y-27600000D01*
X60500000Y-27400000D02*
X77700000Y-27400000D01*
X79700000Y-27600000D02*
X79700000Y-43200000D01*
X77700000Y-43400000D02*
X60500000Y-43400000D01*
X60500000Y-43200000D02*
X60500000Y-35400000D01*
X61100000Y-43800000D02*
X61100000Y-44800000D01*
X60600000Y-44300000D02*
X61600000Y-44300000D01*
X60600000Y-26400000D02*
X61600000Y-26400000D01*
X78500000Y-27400000D02*
X77700000Y-27400000D01*
X78500000Y-43400000D02*
X77700000Y-43400000D01*
X79500000Y-27400000D02*
X78500000Y-27400000D01*
X79500000Y-43400000D02*
X78500000Y-43400000D01*
X79700000Y-27400000D02*
X79500000Y-27400000D01*
X79700000Y-43400000D02*
X79500000Y-43400000D01*
X60500000Y-27400000D02*
X60500000Y-27600000D01*
X79700000Y-27400000D02*
X79700000Y-27600000D01*
X79700000Y-43200000D02*
X79700000Y-43400000D01*
X60500000Y-43200000D02*
X60500000Y-43400000D01*
D14*
X55380000Y-50580000D02*
X55380000Y-50200000D01*
X55380000Y-48020000D02*
X55380000Y-48400000D01*
X52820000Y-50580000D02*
X52820000Y-50200000D01*
X52820000Y-48020000D02*
X52820000Y-48400000D01*
X55380000Y-50580000D02*
X55000000Y-50580000D01*
X55380000Y-48020000D02*
X55000000Y-48020000D01*
X52820000Y-50580000D02*
X53200000Y-50580000D01*
X52820000Y-48020000D02*
X53200000Y-48020000D01*
D15*
X56140000Y-50120000D02*
G75*
G03*
X56140000Y-50120000I-50000J0D01*
G01*
D14*
X30270000Y-42690000D02*
X33530000Y-42690000D01*
X30270000Y-40510000D02*
X33530000Y-40510000D01*
D13*
X74985000Y-22800000D02*
X74985000Y-20315000D01*
X74985000Y-20315000D02*
X73615000Y-20315000D01*
X73615000Y-20315000D02*
X73615000Y-22800000D01*
X73285000Y-22800000D02*
X73285000Y-20315000D01*
X73285000Y-20315000D02*
X71915000Y-20315000D01*
X71915000Y-20315000D02*
X71915000Y-22800000D01*
X66485000Y-22800000D02*
X66485000Y-20315000D01*
X66485000Y-20315000D02*
X65115000Y-20315000D01*
X65115000Y-20315000D02*
X65115000Y-22800000D01*
X32965000Y-47290000D02*
X32490000Y-47290000D01*
X36710000Y-51510000D02*
X36710000Y-51035000D01*
X36235000Y-51510000D02*
X36710000Y-51510000D01*
X32490000Y-51510000D02*
X32490000Y-51035000D01*
X32965000Y-51510000D02*
X32490000Y-51510000D01*
X36710000Y-47290000D02*
X36710000Y-47765000D01*
X36235000Y-47290000D02*
X36710000Y-47290000D01*
X33225000Y-34725000D02*
X33000000Y-34725000D01*
X33000000Y-31475000D02*
X33225000Y-31475000D01*
X30200000Y-31475000D02*
X29975000Y-31475000D01*
X33225000Y-34725000D02*
X33225000Y-33750000D01*
X29975000Y-32450000D02*
X29975000Y-31475000D01*
X29975000Y-34725000D02*
X29975000Y-33750000D01*
X33225000Y-32450000D02*
X33225000Y-31475000D01*
D16*
X23504900Y-59300000D02*
G75*
G03*
X23504900Y-59300000I-1104900J0D01*
G01*
X21962541Y-61624100D02*
X22837459Y-61624100D01*
X20571200Y-56975900D02*
X20571200Y-61624100D01*
X22837459Y-56975900D02*
X21962541Y-56975900D01*
X24228800Y-61624100D02*
X24228800Y-56975900D01*
X27704900Y-59300000D02*
G75*
G03*
X27704900Y-59300000I-1104900J0D01*
G01*
X26162541Y-61624100D02*
X27037459Y-61624100D01*
X24771200Y-56975900D02*
X24771200Y-61624100D01*
X27037459Y-56975900D02*
X26162541Y-56975900D01*
X28428800Y-61624100D02*
X28428800Y-56975900D01*
X25104900Y-95900000D02*
G75*
G03*
X25104900Y-95900000I-1104900J0D01*
G01*
X24437459Y-93575900D02*
X23562541Y-93575900D01*
X25828800Y-98224100D02*
X25828800Y-93575900D01*
X23562541Y-98224100D02*
X24437459Y-98224100D01*
X22171200Y-93575900D02*
X22171200Y-98224100D01*
D13*
X74822500Y-25654724D02*
X74822500Y-25145276D01*
X73777500Y-25654724D02*
X73777500Y-25145276D01*
X73122500Y-25654724D02*
X73122500Y-25145276D01*
X72077500Y-25654724D02*
X72077500Y-25145276D01*
X29422500Y-48454724D02*
X29422500Y-47945276D01*
X28377500Y-48454724D02*
X28377500Y-47945276D01*
X78822500Y-93204724D02*
X78822500Y-92695276D01*
X77777500Y-93204724D02*
X77777500Y-92695276D01*
X62872500Y-93404724D02*
X62872500Y-92895276D01*
X61827500Y-93404724D02*
X61827500Y-92895276D01*
X45922500Y-93404724D02*
X45922500Y-92895276D01*
X44877500Y-93404724D02*
X44877500Y-92895276D01*
X78822500Y-82104724D02*
X78822500Y-81595276D01*
X77777500Y-82104724D02*
X77777500Y-81595276D01*
X62872500Y-82104724D02*
X62872500Y-81595276D01*
X61827500Y-82104724D02*
X61827500Y-81595276D01*
X45922500Y-82054724D02*
X45922500Y-81545276D01*
X44877500Y-82054724D02*
X44877500Y-81545276D01*
X78822500Y-70804724D02*
X78822500Y-70295276D01*
X77777500Y-70804724D02*
X77777500Y-70295276D01*
X62872500Y-70804724D02*
X62872500Y-70295276D01*
X61827500Y-70804724D02*
X61827500Y-70295276D01*
X45922500Y-70754724D02*
X45922500Y-70245276D01*
X44877500Y-70754724D02*
X44877500Y-70245276D01*
X78822500Y-59504724D02*
X78822500Y-58995276D01*
X77777500Y-59504724D02*
X77777500Y-58995276D01*
X62872500Y-59504724D02*
X62872500Y-58995276D01*
X61827500Y-59504724D02*
X61827500Y-58995276D01*
X46172500Y-59404724D02*
X46172500Y-58895276D01*
X45127500Y-59404724D02*
X45127500Y-58895276D01*
X29422500Y-53354724D02*
X29422500Y-52845276D01*
X28377500Y-53354724D02*
X28377500Y-52845276D01*
X26254724Y-99277500D02*
X25745276Y-99277500D01*
X26254724Y-100322500D02*
X25745276Y-100322500D01*
X71422500Y-25654724D02*
X71422500Y-25145276D01*
X70377500Y-25654724D02*
X70377500Y-25145276D01*
X69722500Y-25654724D02*
X69722500Y-25145276D01*
X68677500Y-25654724D02*
X68677500Y-25145276D01*
X68022500Y-25654724D02*
X68022500Y-25145276D01*
X66977500Y-25654724D02*
X66977500Y-25145276D01*
X64622500Y-25654724D02*
X64622500Y-25145276D01*
X63577500Y-25654724D02*
X63577500Y-25145276D01*
X33354724Y-39077500D02*
X32845276Y-39077500D01*
X33354724Y-40122500D02*
X32845276Y-40122500D01*
X32845276Y-38622500D02*
X33354724Y-38622500D01*
X32845276Y-37577500D02*
X33354724Y-37577500D01*
X27354724Y-44177500D02*
X26845276Y-44177500D01*
X27354724Y-45222500D02*
X26845276Y-45222500D01*
X37404724Y-52327500D02*
X36895276Y-52327500D01*
X37404724Y-53372500D02*
X36895276Y-53372500D01*
X23422500Y-91354724D02*
X23422500Y-90845276D01*
X22377500Y-91354724D02*
X22377500Y-90845276D01*
X66322500Y-25654724D02*
X66322500Y-25145276D01*
X65277500Y-25654724D02*
X65277500Y-25145276D01*
X77645276Y-51622500D02*
X78154724Y-51622500D01*
X77645276Y-50577500D02*
X78154724Y-50577500D01*
X77645276Y-53522500D02*
X78154724Y-53522500D01*
X77645276Y-52477500D02*
X78154724Y-52477500D01*
X58554724Y-50577500D02*
X58045276Y-50577500D01*
X58554724Y-51622500D02*
X58045276Y-51622500D01*
X58554724Y-46777500D02*
X58045276Y-46777500D01*
X58554724Y-47822500D02*
X58045276Y-47822500D01*
X58554724Y-44877500D02*
X58045276Y-44877500D01*
X58554724Y-45922500D02*
X58045276Y-45922500D01*
X77645276Y-47922500D02*
X78154724Y-47922500D01*
X77645276Y-46877500D02*
X78154724Y-46877500D01*
X77645276Y-46022500D02*
X78154724Y-46022500D01*
X77645276Y-44977500D02*
X78154724Y-44977500D01*
X58554724Y-52477500D02*
X58045276Y-52477500D01*
X58554724Y-53522500D02*
X58045276Y-53522500D01*
X60845276Y-22622500D02*
X61354724Y-22622500D01*
X60845276Y-21577500D02*
X61354724Y-21577500D01*
X42654724Y-50077500D02*
X42145276Y-50077500D01*
X42654724Y-51122500D02*
X42145276Y-51122500D01*
X42654724Y-48577500D02*
X42145276Y-48577500D01*
X42654724Y-49622500D02*
X42145276Y-49622500D01*
X35345276Y-46322500D02*
X35854724Y-46322500D01*
X35345276Y-45277500D02*
X35854724Y-45277500D01*
D14*
X28950000Y-31550000D02*
X28950000Y-32700000D01*
X20650000Y-31550000D02*
X28950000Y-31550000D01*
X20650000Y-32700000D02*
X20650000Y-31550000D01*
X20650000Y-39850000D02*
X20650000Y-38700000D01*
X28950000Y-39850000D02*
X20650000Y-39850000D01*
X28950000Y-38700000D02*
X28950000Y-39850000D01*
D15*
X30170000Y-35700000D02*
G75*
G03*
X30170000Y-35700000I-100000J0D01*
G01*
D13*
X43200000Y-39500000D02*
X35400000Y-39500000D01*
X35200000Y-39500000D02*
X35200000Y-22300000D01*
X35400000Y-20300000D02*
X51000000Y-20300000D01*
X51200000Y-22300000D02*
X51200000Y-39500000D01*
X51000000Y-39500000D02*
X43200000Y-39500000D01*
X51600000Y-38900000D02*
X52600000Y-38900000D01*
X52100000Y-39400000D02*
X52100000Y-38400000D01*
X34200000Y-39400000D02*
X34200000Y-38400000D01*
X35200000Y-21500000D02*
X35200000Y-22300000D01*
X51200000Y-21500000D02*
X51200000Y-22300000D01*
X35200000Y-20500000D02*
X35200000Y-21500000D01*
X51200000Y-20500000D02*
X51200000Y-21500000D01*
X35200000Y-20300000D02*
X35200000Y-20500000D01*
X51200000Y-20300000D02*
X51200000Y-20500000D01*
X35200000Y-39500000D02*
X35400000Y-39500000D01*
X35200000Y-20300000D02*
X35400000Y-20300000D01*
X51000000Y-20300000D02*
X51200000Y-20300000D01*
X51000000Y-39500000D02*
X51200000Y-39500000D01*
D14*
X25095000Y-55370000D02*
X24330000Y-55370000D01*
X21270000Y-55370000D02*
X20850000Y-55370000D01*
X20850000Y-55370000D02*
X20850000Y-46430000D01*
X20850000Y-46430000D02*
X21270000Y-46430000D01*
X25095000Y-46430000D02*
X24330000Y-46430000D01*
D15*
X28500000Y-47800000D02*
G75*
G03*
X28500000Y-47800000I-100000J0D01*
G01*
D13*
X70215000Y-20315000D02*
X70215000Y-22800000D01*
X71585000Y-20315000D02*
X70215000Y-20315000D01*
X71585000Y-22800000D02*
X71585000Y-20315000D01*
D10*
X25660000Y-43400000D02*
G75*
G03*
X25660000Y-43400000I-50000J0D01*
G01*
X30250000Y-51310000D02*
G75*
G03*
X30250000Y-51310000I-50000J0D01*
G01*
D13*
X68515000Y-20315000D02*
X68515000Y-22800000D01*
X69885000Y-20315000D02*
X68515000Y-20315000D01*
X69885000Y-22800000D02*
X69885000Y-20315000D01*
X66815000Y-20315000D02*
X66815000Y-22800000D01*
X68185000Y-20315000D02*
X66815000Y-20315000D01*
X68185000Y-22800000D02*
X68185000Y-20315000D01*
X63415000Y-20315000D02*
X63415000Y-22800000D01*
X64785000Y-20315000D02*
X63415000Y-20315000D01*
X64785000Y-22800000D02*
X64785000Y-20315000D01*
D10*
X30250000Y-49990000D02*
G75*
G03*
X30250000Y-49990000I-50000J0D01*
G01*
D13*
X37315000Y-51285000D02*
X39800000Y-51285000D01*
X37315000Y-49915000D02*
X37315000Y-51285000D01*
X39800000Y-49915000D02*
X37315000Y-49915000D01*
X37315000Y-49785000D02*
X39800000Y-49785000D01*
X37315000Y-48415000D02*
X37315000Y-49785000D01*
X39800000Y-48415000D02*
X37315000Y-48415000D01*
X21600000Y-43900000D02*
X24650000Y-43900000D01*
X21600000Y-45500000D02*
X21600000Y-43900000D01*
X24650000Y-45500000D02*
X21600000Y-45500000D01*
X22910000Y-29611252D02*
X22910000Y-28188748D01*
X21090000Y-29611252D02*
X21090000Y-28188748D01*
X27236252Y-40390000D02*
X25813748Y-40390000D01*
X27236252Y-42210000D02*
X25813748Y-42210000D01*
X72438748Y-90535000D02*
X72961252Y-90535000D01*
X72438748Y-89065000D02*
X72961252Y-89065000D01*
X56438748Y-79435000D02*
X56961252Y-79435000D01*
X56438748Y-77965000D02*
X56961252Y-77965000D01*
X39488748Y-68135000D02*
X40011252Y-68135000D01*
X39488748Y-66665000D02*
X40011252Y-66665000D01*
X77238748Y-97235000D02*
X77761252Y-97235000D01*
X77238748Y-95765000D02*
X77761252Y-95765000D01*
X61238748Y-85985000D02*
X61761252Y-85985000D01*
X61238748Y-84515000D02*
X61761252Y-84515000D01*
X44238748Y-74735000D02*
X44761252Y-74735000D01*
X44238748Y-73265000D02*
X44761252Y-73265000D01*
X56438748Y-90735000D02*
X56961252Y-90735000D01*
X56438748Y-89265000D02*
X56961252Y-89265000D01*
X39538748Y-79435000D02*
X40061252Y-79435000D01*
X39538748Y-77965000D02*
X40061252Y-77965000D01*
X72388748Y-56735000D02*
X72911252Y-56735000D01*
X72388748Y-55265000D02*
X72911252Y-55265000D01*
X61238748Y-97485000D02*
X61761252Y-97485000D01*
X61238748Y-96015000D02*
X61761252Y-96015000D01*
X44238748Y-86235000D02*
X44761252Y-86235000D01*
X44238748Y-84765000D02*
X44761252Y-84765000D01*
X77238748Y-63485000D02*
X77761252Y-63485000D01*
X77238748Y-62015000D02*
X77761252Y-62015000D01*
X39538748Y-90735000D02*
X40061252Y-90735000D01*
X39538748Y-89265000D02*
X40061252Y-89265000D01*
X72438748Y-68135000D02*
X72961252Y-68135000D01*
X72438748Y-66665000D02*
X72961252Y-66665000D01*
X56438748Y-56735000D02*
X56961252Y-56735000D01*
X56438748Y-55265000D02*
X56961252Y-55265000D01*
X44238748Y-97485000D02*
X44761252Y-97485000D01*
X44238748Y-96015000D02*
X44761252Y-96015000D01*
X77238748Y-74735000D02*
X77761252Y-74735000D01*
X77238748Y-73265000D02*
X77761252Y-73265000D01*
X61238748Y-63485000D02*
X61761252Y-63485000D01*
X61238748Y-62015000D02*
X61761252Y-62015000D01*
X72438748Y-79435000D02*
X72961252Y-79435000D01*
X72438748Y-77965000D02*
X72961252Y-77965000D01*
X56388748Y-68135000D02*
X56911252Y-68135000D01*
X56388748Y-66665000D02*
X56911252Y-66665000D01*
X77238748Y-86235000D02*
X77761252Y-86235000D01*
X77238748Y-84765000D02*
X77761252Y-84765000D01*
X61238748Y-74735000D02*
X61761252Y-74735000D01*
X61238748Y-73265000D02*
X61761252Y-73265000D01*
X44338748Y-63485000D02*
X44861252Y-63485000D01*
X44338748Y-62015000D02*
X44861252Y-62015000D01*
X39488748Y-56735000D02*
X40011252Y-56735000D01*
X39488748Y-55265000D02*
X40011252Y-55265000D01*
X24161252Y-24765000D02*
X23638748Y-24765000D01*
X24161252Y-26235000D02*
X23638748Y-26235000D01*
X33438748Y-53835000D02*
X33961252Y-53835000D01*
X33438748Y-52365000D02*
X33961252Y-52365000D01*
X24935000Y-28561252D02*
X24935000Y-28038748D01*
X23465000Y-28561252D02*
X23465000Y-28038748D01*
X32838748Y-37035000D02*
X33361252Y-37035000D01*
X32838748Y-35565000D02*
X33361252Y-35565000D01*
X22165000Y-100538748D02*
X22165000Y-101061252D01*
X23635000Y-100538748D02*
X23635000Y-101061252D01*
X53961252Y-51965000D02*
X53438748Y-51965000D01*
X53961252Y-53435000D02*
X53438748Y-53435000D01*
X55650000Y-108550000D02*
G75*
G03*
X55650000Y-108550000I-250000J0D01*
G01*
X71400000Y-108110000D02*
X69900000Y-108110000D01*
X71400000Y-106810000D02*
X71400000Y-108110000D01*
X69900000Y-101510000D02*
X71400000Y-101510000D01*
X54400000Y-101510000D02*
X54400000Y-102810000D01*
X71400000Y-101510000D02*
X71400000Y-102810000D01*
X54400000Y-108110000D02*
X55900000Y-108110000D01*
X54400000Y-106810000D02*
X54400000Y-108110000D01*
X55900000Y-101510000D02*
X54400000Y-101510000D01*
X22300000Y-70200000D02*
G75*
G03*
X22300000Y-70200000I-250000J0D01*
G01*
X22490000Y-86200000D02*
X22490000Y-84700000D01*
X23790000Y-86200000D02*
X22490000Y-86200000D01*
X29090000Y-84700000D02*
X29090000Y-86200000D01*
X29090000Y-69200000D02*
X27790000Y-69200000D01*
X29090000Y-86200000D02*
X27790000Y-86200000D01*
X22490000Y-69200000D02*
X22490000Y-70700000D01*
X23790000Y-69200000D02*
X22490000Y-69200000D01*
X29090000Y-70700000D02*
X29090000Y-69200000D01*
X29950000Y-108550000D02*
G75*
G03*
X29950000Y-108550000I-250000J0D01*
G01*
X45700000Y-108110000D02*
X44200000Y-108110000D01*
X45700000Y-106810000D02*
X45700000Y-108110000D01*
X44200000Y-101510000D02*
X45700000Y-101510000D01*
X28700000Y-101510000D02*
X28700000Y-102810000D01*
X45700000Y-101510000D02*
X45700000Y-102810000D01*
X28700000Y-108110000D02*
X30200000Y-108110000D01*
X28700000Y-106810000D02*
X28700000Y-108110000D01*
X30200000Y-101510000D02*
X28700000Y-101510000D01*
D11*
X61400000Y-54300000D02*
X61400000Y-54000000D01*
X74800000Y-54300000D02*
X61400000Y-54300000D01*
X74800000Y-54000000D02*
X74800000Y-54300000D01*
X61400000Y-44100000D02*
X61400000Y-44400000D01*
X74800000Y-44100000D02*
X61400000Y-44100000D01*
X74800000Y-44400000D02*
X74800000Y-44100000D01*
D13*
X26100000Y-20690000D02*
X32110000Y-20690000D01*
X28350000Y-27510000D02*
X32110000Y-27510000D01*
X32110000Y-20690000D02*
X32110000Y-21950000D01*
X32110000Y-27510000D02*
X32110000Y-26250000D01*
X72520000Y-91170000D02*
X73620000Y-91170000D01*
X72520000Y-90900000D02*
X72520000Y-91170000D01*
X71020000Y-90900000D02*
X72520000Y-90900000D01*
X72520000Y-97530000D02*
X75350000Y-97530000D01*
X72520000Y-97800000D02*
X72520000Y-97530000D01*
X71020000Y-97800000D02*
X72520000Y-97800000D01*
X56570000Y-91370000D02*
X57670000Y-91370000D01*
X56570000Y-91100000D02*
X56570000Y-91370000D01*
X55070000Y-91100000D02*
X56570000Y-91100000D01*
X56570000Y-97730000D02*
X59400000Y-97730000D01*
X56570000Y-98000000D02*
X56570000Y-97730000D01*
X55070000Y-98000000D02*
X56570000Y-98000000D01*
X39620000Y-91370000D02*
X40720000Y-91370000D01*
X39620000Y-91100000D02*
X39620000Y-91370000D01*
X38120000Y-91100000D02*
X39620000Y-91100000D01*
X39620000Y-97730000D02*
X42450000Y-97730000D01*
X39620000Y-98000000D02*
X39620000Y-97730000D01*
X38120000Y-98000000D02*
X39620000Y-98000000D01*
X72520000Y-80070000D02*
X73620000Y-80070000D01*
X72520000Y-79800000D02*
X72520000Y-80070000D01*
X71020000Y-79800000D02*
X72520000Y-79800000D01*
X72520000Y-86430000D02*
X75350000Y-86430000D01*
X72520000Y-86700000D02*
X72520000Y-86430000D01*
X71020000Y-86700000D02*
X72520000Y-86700000D01*
X56570000Y-80070000D02*
X57670000Y-80070000D01*
X56570000Y-79800000D02*
X56570000Y-80070000D01*
X55070000Y-79800000D02*
X56570000Y-79800000D01*
X56570000Y-86430000D02*
X59400000Y-86430000D01*
X56570000Y-86700000D02*
X56570000Y-86430000D01*
X55070000Y-86700000D02*
X56570000Y-86700000D01*
X39620000Y-80070000D02*
X40720000Y-80070000D01*
X39620000Y-79800000D02*
X39620000Y-80070000D01*
X38120000Y-79800000D02*
X39620000Y-79800000D01*
X39620000Y-86430000D02*
X42450000Y-86430000D01*
X39620000Y-86700000D02*
X39620000Y-86430000D01*
X38120000Y-86700000D02*
X39620000Y-86700000D01*
X72520000Y-68770000D02*
X73620000Y-68770000D01*
X72520000Y-68500000D02*
X72520000Y-68770000D01*
X71020000Y-68500000D02*
X72520000Y-68500000D01*
X72520000Y-75130000D02*
X75350000Y-75130000D01*
X72520000Y-75400000D02*
X72520000Y-75130000D01*
X71020000Y-75400000D02*
X72520000Y-75400000D01*
X56570000Y-68770000D02*
X57670000Y-68770000D01*
X56570000Y-68500000D02*
X56570000Y-68770000D01*
X55070000Y-68500000D02*
X56570000Y-68500000D01*
X56570000Y-75130000D02*
X59400000Y-75130000D01*
X56570000Y-75400000D02*
X56570000Y-75130000D01*
X55070000Y-75400000D02*
X56570000Y-75400000D01*
X39620000Y-68770000D02*
X40720000Y-68770000D01*
X39620000Y-68500000D02*
X39620000Y-68770000D01*
X38120000Y-68500000D02*
X39620000Y-68500000D01*
X39620000Y-75130000D02*
X42450000Y-75130000D01*
X39620000Y-75400000D02*
X39620000Y-75130000D01*
X38120000Y-75400000D02*
X39620000Y-75400000D01*
X72520000Y-57470000D02*
X73620000Y-57470000D01*
X72520000Y-57200000D02*
X72520000Y-57470000D01*
X71020000Y-57200000D02*
X72520000Y-57200000D01*
X72520000Y-63830000D02*
X75350000Y-63830000D01*
X72520000Y-64100000D02*
X72520000Y-63830000D01*
X71020000Y-64100000D02*
X72520000Y-64100000D01*
X56570000Y-57470000D02*
X57670000Y-57470000D01*
X56570000Y-57200000D02*
X56570000Y-57470000D01*
X55070000Y-57200000D02*
X56570000Y-57200000D01*
X56570000Y-63830000D02*
X59400000Y-63830000D01*
X56570000Y-64100000D02*
X56570000Y-63830000D01*
X55070000Y-64100000D02*
X56570000Y-64100000D01*
X39620000Y-57470000D02*
X40720000Y-57470000D01*
X39620000Y-57200000D02*
X39620000Y-57470000D01*
X38120000Y-57200000D02*
X39620000Y-57200000D01*
X39620000Y-63830000D02*
X42450000Y-63830000D01*
X39620000Y-64100000D02*
X39620000Y-63830000D01*
X38120000Y-64100000D02*
X39620000Y-64100000D01*
X52620000Y-26230000D02*
X52620000Y-25130000D01*
X52350000Y-26230000D02*
X52620000Y-26230000D01*
X52350000Y-27730000D02*
X52350000Y-26230000D01*
X58980000Y-26230000D02*
X58980000Y-23400000D01*
X59250000Y-26230000D02*
X58980000Y-26230000D01*
X59250000Y-27730000D02*
X59250000Y-26230000D01*
X77285000Y-94610000D02*
X77285000Y-92150000D01*
X75815000Y-94610000D02*
X77285000Y-94610000D01*
X75815000Y-92150000D02*
X75815000Y-94610000D01*
X61335000Y-94810000D02*
X61335000Y-92350000D01*
X59865000Y-94810000D02*
X61335000Y-94810000D01*
X59865000Y-92350000D02*
X59865000Y-94810000D01*
X44385000Y-94810000D02*
X44385000Y-92350000D01*
X42915000Y-94810000D02*
X44385000Y-94810000D01*
X42915000Y-92350000D02*
X42915000Y-94810000D01*
X77285000Y-83510000D02*
X77285000Y-81050000D01*
X75815000Y-83510000D02*
X77285000Y-83510000D01*
X75815000Y-81050000D02*
X75815000Y-83510000D01*
X61335000Y-83510000D02*
X61335000Y-81050000D01*
X59865000Y-83510000D02*
X61335000Y-83510000D01*
X59865000Y-81050000D02*
X59865000Y-83510000D01*
X44385000Y-83460000D02*
X44385000Y-81000000D01*
X42915000Y-83460000D02*
X44385000Y-83460000D01*
X42915000Y-81000000D02*
X42915000Y-83460000D01*
X77285000Y-72210000D02*
X77285000Y-69750000D01*
X75815000Y-72210000D02*
X77285000Y-72210000D01*
X75815000Y-69750000D02*
X75815000Y-72210000D01*
X61335000Y-72210000D02*
X61335000Y-69750000D01*
X59865000Y-72210000D02*
X61335000Y-72210000D01*
X59865000Y-69750000D02*
X59865000Y-72210000D01*
X44385000Y-72160000D02*
X44385000Y-69700000D01*
X42915000Y-72160000D02*
X44385000Y-72160000D01*
X42915000Y-69700000D02*
X42915000Y-72160000D01*
X77285000Y-60910000D02*
X77285000Y-58450000D01*
X75815000Y-60910000D02*
X77285000Y-60910000D01*
X75815000Y-58450000D02*
X75815000Y-60910000D01*
X61335000Y-60910000D02*
X61335000Y-58450000D01*
X59865000Y-60910000D02*
X61335000Y-60910000D01*
X59865000Y-58450000D02*
X59865000Y-60910000D01*
X44385000Y-60810000D02*
X44385000Y-58350000D01*
X42915000Y-60810000D02*
X44385000Y-60810000D01*
X42915000Y-58350000D02*
X42915000Y-60810000D01*
D17*
X53778571Y-51139285D02*
X53778571Y-51746428D01*
X53814285Y-51817857D01*
X53850000Y-51853571D01*
X53921428Y-51889285D01*
X54064285Y-51889285D01*
X54135714Y-51853571D01*
X54171428Y-51817857D01*
X54207142Y-51746428D01*
X54207142Y-51139285D01*
X54492857Y-51139285D02*
X54992857Y-51139285D01*
X54671428Y-51889285D01*
X31690025Y-39796428D02*
X31440025Y-39796428D01*
X31440025Y-40189285D02*
X31440025Y-39439285D01*
X31797167Y-39439285D01*
X32475739Y-40189285D02*
X32047167Y-40189285D01*
X32261453Y-40189285D02*
X32261453Y-39439285D01*
X32190025Y-39546428D01*
X32118596Y-39617857D01*
X32047167Y-39653571D01*
X21316666Y-40626190D02*
X21078571Y-40626190D01*
X21078571Y-40126190D01*
X21745238Y-40626190D02*
X21459523Y-40626190D01*
X21602380Y-40626190D02*
X21602380Y-40126190D01*
X21554761Y-40197619D01*
X21507142Y-40245238D01*
X21459523Y-40269047D01*
X26833333Y-45026190D02*
X26833333Y-45383333D01*
X26809523Y-45454761D01*
X26761904Y-45502380D01*
X26690476Y-45526190D01*
X26642857Y-45526190D01*
X27333333Y-45526190D02*
X27047619Y-45526190D01*
X27190476Y-45526190D02*
X27190476Y-45026190D01*
X27142857Y-45097619D01*
X27095238Y-45145238D01*
X27047619Y-45169047D01*
M02*
