M48
; DRILL file {KiCad (6.0.9-0)} date Monday, November 28, 2022 at 05:00:26 PM
; FORMAT={-:-/ absolute / inch / decimal}
; #@! TF.CreationDate,2022-11-28T17:00:26-05:00
; #@! TF.GenerationSoftware,Kicad,Pcbnew,(6.0.9-0)
; #@! TF.FileFunction,Plated,1,4,PTH
FMAT,2
INCH
; #@! TA.AperFunction,Plated,PTH,ViaDrill
T1C0.0079
; #@! TA.AperFunction,Plated,PTH,ViaDrill
T2C0.0098
; #@! TA.AperFunction,Plated,PTH,ComponentDrill
T3C0.0118
; #@! TA.AperFunction,Plated,PTH,ViaDrill
T4C0.0157
; #@! TA.AperFunction,Plated,PTH,ComponentDrill
T5C0.0256
; #@! TA.AperFunction,Plated,PTH,ComponentDrill
T6C0.0984
; #@! TA.AperFunction,Plated,PTH,ComponentDrill
T7C0.1083
%
G90
G05
T1
X0.8583Y-1.1732
X0.8583Y-1.2638
X0.9291Y-1.2874
X0.9291Y-1.3268
X0.9291Y-1.3661
X0.937Y-1.1969
X0.937Y-1.2165
X0.937Y-1.2362
X0.9409Y-1.4843
X1.0Y-1.5157
X1.0Y-1.6693
X1.0354Y-2.1043
X1.0787Y-1.3701
X1.0827Y-1.2047
X1.0945Y-2.0768
X1.1024Y-1.8248
X1.1063Y-1.2047
X1.1063Y-1.9587
X1.1102Y-1.3701
X1.1535Y-1.2323
X1.1732Y-1.8858
X1.1772Y-1.248
X1.1929Y-1.2874
X1.1929Y-1.3189
X1.2126Y-1.122
X1.2165Y-1.4134
X1.2244Y-1.1457
X1.2362Y-1.122
X1.248Y-1.1457
X1.2598Y-1.122
X1.2717Y-1.1457
X1.311Y-1.2244
X1.3346Y-0.9409
X1.3346Y-0.9685
X1.3346Y-0.9961
X1.3346Y-1.0236
X1.3346Y-1.0512
X1.3386Y-1.1772
X1.3386Y-1.2717
X1.3465Y-0.8543
X1.3465Y-1.1457
X1.3583Y-0.9528
X1.3583Y-0.9803
X1.3583Y-1.0079
X1.3583Y-1.0354
X1.374Y-1.2244
X1.4213Y-1.6969
X1.6378Y-1.5906
X1.6378Y-1.6102
X1.6378Y-1.6299
X1.6378Y-1.6496
X1.6575Y-1.5984
X1.6575Y-1.6181
X1.6575Y-1.6378
X1.6772Y-1.5906
X1.6772Y-1.6102
X1.6772Y-1.6299
X1.6772Y-1.6496
X2.2114Y-1.3898
X2.298Y-1.3898
T2
X0.7362Y-2.4173
X0.7559Y-1.9449
X0.7559Y-2.0551
X0.7638Y-1.3898
X0.7677Y-1.2717
X0.7677Y-2.6496
X0.8071Y-1.5709
X0.8071Y-1.6181
X0.8071Y-1.6614
X0.811Y-4.0709
X0.811Y-4.1614
X0.8228Y-1.5945
X0.8228Y-1.6417
X0.8268Y-2.4173
X0.8346Y-1.5709
X0.8346Y-1.6181
X0.8346Y-1.6614
X0.8425Y-4.0709
X0.8465Y-2.6496
X0.8504Y-1.5945
X0.8504Y-1.6417
X0.8504Y-2.6102
X0.8543Y-1.7638
X0.8583Y-4.1614
X0.8583Y-4.3661
X0.8622Y-1.3898
X0.8622Y-1.5709
X0.8622Y-1.6181
X0.8622Y-1.6614
X0.878Y-1.5945
X0.878Y-1.6417
X0.8819Y-1.7244
X0.8898Y-1.5709
X0.8898Y-1.6181
X0.8898Y-1.6614
X0.9055Y-1.5945
X0.9055Y-1.6417
X0.9173Y-1.6181
X0.9173Y-1.6614
X0.9213Y-2.6102
X0.9331Y-1.6417
X0.9449Y-3.4764
X0.9449Y-3.5079
X0.9449Y-3.5433
X0.9449Y-3.5748
X0.9449Y-3.6102
X0.9449Y-3.6417
X0.9449Y-3.6772
X0.9449Y-3.7087
X0.9449Y-3.7441
X0.9449Y-3.7756
X0.9449Y-3.811
X0.9449Y-3.8425
X0.9449Y-3.878
X0.9449Y-3.9094
X0.9449Y-3.9449
X0.9488Y-1.6614
X0.9488Y-2.4173
X0.9488Y-4.1614
X0.9567Y-3.3346
X0.9567Y-3.374
X0.9724Y-2.6457
X0.9843Y-3.937
X1.0197Y-2.2402
X1.0197Y-3.4882
X1.0236Y-4.0709
X1.0354Y-2.4173
X1.0512Y-3.5039
X1.0827Y-4.1693
X1.0866Y-3.3268
X1.0866Y-3.9567
X1.1299Y-4.0906
X1.1339Y-4.5354
X1.1378Y-4.0512
X1.1614Y-4.6339
X1.1732Y-1.4528
X1.189Y-3.9528
X1.1909Y-1.75
X1.2008Y-4.0512
X1.2087Y-1.6811
X1.2087Y-1.7087
X1.2087Y-4.0906
X1.2126Y-4.5354
X1.2205Y-3.9528
X1.2402Y-4.6339
X1.2421Y-1.5217
X1.2467Y-1.9724
X1.2467Y-2.0
X1.2467Y-2.0354
X1.2467Y-2.063
X1.2598Y-1.5039
X1.2795Y-4.0512
X1.2874Y-3.9528
X1.2913Y-3.4882
X1.2913Y-4.0906
X1.2913Y-4.5354
X1.3189Y-1.7244
X1.3189Y-3.4882
X1.3189Y-4.6339
X1.3228Y-3.9528
X1.3504Y-1.8701
X1.3543Y-3.4882
X1.3543Y-3.9528
X1.3701Y-4.0906
X1.3701Y-4.5354
X1.374Y-1.685
X1.3898Y-1.5551
X1.3898Y-3.9528
X1.3937Y-1.9016
X1.3976Y-3.4882
X1.4016Y-1.811
X1.4134Y-1.9252
X1.4213Y-3.9528
X1.4331Y-1.9488
X1.437Y-4.0472
X1.4488Y-4.5354
X1.4528Y-1.9764
X1.4764Y-2.0
X1.4882Y-3.9449
X1.4882Y-3.9843
X1.5Y-3.6614
X1.5039Y-4.0512
X1.5157Y-2.1102
X1.5197Y-4.6457
X1.5236Y-3.7835
X1.5276Y-4.5354
X1.5315Y-1.7205
X1.5394Y-3.935
X1.563Y-1.7047
X1.563Y-3.6732
X1.5689Y-3.935
X1.5748Y-1.874
X1.5827Y-2.0709
X1.5945Y-4.6142
X1.6043Y-3.935
X1.6299Y-4.5748
X1.6339Y-3.935
X1.6693Y-4.5748
X1.7008Y-3.5472
X1.7087Y-2.0236
X1.7126Y-3.937
X1.7205Y-2.9449
X1.7205Y-3.3858
X1.7205Y-3.8307
X1.7244Y-2.5
X1.7441Y-3.937
X1.7677Y-2.5
X1.7874Y-2.0236
X1.7953Y-4.6102
X1.815Y-1.7874
X1.8307Y-2.0709
X1.8346Y-2.1772
X1.8425Y-1.7874
X1.8543Y-1.9173
X1.8543Y-1.9633
X1.8543Y-2.1457
X1.8622Y-1.8504
X1.8622Y-4.5433
X1.8819Y-3.0551
X1.8819Y-3.937
X1.9055Y-1.9331
X1.9134Y-3.0551
X1.9134Y-4.1496
X1.9134Y-4.2402
X1.9173Y-4.4173
X1.9449Y-1.7283
X1.9449Y-1.9331
X1.9567Y-3.0551
X1.9606Y-3.9606
X1.9719Y-1.9257
X1.9843Y-1.7283
X1.9882Y-4.5669
X2.0Y-1.9252
X2.0039Y-1.7126
X2.0039Y-4.248
X2.0079Y-1.8031
X2.0079Y-4.6142
X2.0118Y-4.122
X2.0197Y-2.0788
X2.0197Y-4.0827
X2.0306Y-1.9343
X2.0315Y-1.7756
X2.0433Y-4.4213
X2.0471Y-2.0593
X2.0472Y-4.6181
X2.0512Y-1.9528
X2.0551Y-3.0551
X2.0551Y-4.0197
X2.0669Y-1.9843
X2.0709Y-4.4055
X2.0866Y-4.6181
X2.0945Y-1.8898
X2.0945Y-2.0197
X2.0945Y-2.0591
X2.1102Y-3.0472
X2.1142Y-2.0866
X2.1142Y-4.0827
X2.1142Y-4.122
X2.1181Y-3.9961
X2.1299Y-1.9409
X2.1535Y-2.0591
X2.1929Y-2.0591
X2.2283Y-1.9449
X2.2362Y-1.7047
X2.248Y-1.8031
X2.252Y-4.5433
X2.2913Y-1.9331
X2.3031Y-4.1496
X2.3543Y-4.1575
X2.3543Y-4.5039
X2.3819Y-4.0906
X2.3819Y-4.5709
X2.3898Y-2.5
X2.3898Y-2.9449
X2.3898Y-3.3858
X2.3898Y-3.8307
X2.4173Y-0.9291
X2.4331Y-4.1575
X2.4331Y-4.5039
X2.4606Y-1.937
X2.4606Y-4.0906
X2.4606Y-4.5709
X2.4882Y-0.8071
X2.4882Y-1.0079
X2.5118Y-4.1575
X2.5118Y-4.5039
X2.5276Y-1.937
X2.5394Y-4.0906
X2.5394Y-4.5709
X2.5551Y-0.8071
X2.5551Y-1.0079
X2.5906Y-4.1575
X2.5906Y-4.5039
X2.6181Y-4.0906
X2.6181Y-4.5709
X2.622Y-0.8071
X2.622Y-1.0079
X2.6693Y-4.1575
X2.6693Y-4.5039
X2.689Y-0.8071
X2.689Y-1.0079
X2.6969Y-4.0906
X2.6969Y-4.5709
X2.748Y-4.1575
X2.748Y-4.5039
X2.7559Y-0.8071
X2.7559Y-1.0079
X2.7756Y-4.0906
X2.7756Y-4.5709
X2.8228Y-0.8071
X2.8228Y-1.0079
X2.8543Y-4.1772
X2.8543Y-4.4882
X2.8898Y-0.8071
X2.8898Y-1.0079
X2.8898Y-1.2874
X2.9016Y-1.9409
X2.9055Y-3.8937
X2.9291Y-1.2874
X2.9409Y-3.9055
X2.9567Y-1.1654
X2.9685Y-3.9173
X2.9961Y-1.1102
X3.0236Y-3.9173
X3.0551Y-2.5
X3.0551Y-2.9449
X3.0551Y-3.3858
X3.0551Y-3.8307
X3.0551Y-3.9173
X3.0787Y-1.6496
X3.0827Y-3.9291
X3.1063Y-1.6496
X3.1339Y-1.6496
X3.1614Y-1.6496
X3.189Y-1.6496
T3
X1.0748Y-1.2579
X1.0748Y-1.3169
X1.0945Y-1.2874
X1.1142Y-1.2579
X1.1142Y-1.3169
T4
X0.7283Y-2.815
X0.7283Y-2.8937
X0.7283Y-2.9724
X0.7283Y-3.0512
X0.7283Y-3.1299
X0.7283Y-3.2087
X0.7283Y-3.2874
X0.7874Y-1.4961
X0.7874Y-4.4291
X0.8071Y-1.1024
X0.8661Y-1.4961
X0.8858Y-4.4291
X0.9843Y-4.4291
X0.9843Y-4.5276
X0.9843Y-4.626
X1.0827Y-2.2638
X1.0827Y-4.5276
X1.0827Y-4.626
X1.1417Y-0.9055
X1.1417Y-0.9843
X1.1417Y-1.063
X1.1417Y-1.1417
X1.2795Y-2.1654
X1.2795Y-2.6575
X1.2795Y-3.0512
X1.4764Y-0.8858
X1.4764Y-0.9843
X1.4764Y-1.0827
X1.5551Y-4.1614
X1.5748Y-0.8858
X1.5748Y-0.9843
X1.5748Y-1.0827
X1.5748Y-1.1811
X1.5748Y-1.2795
X1.5748Y-2.1654
X1.5748Y-2.6575
X1.5748Y-4.0354
X1.6102Y-2.2559
X1.6732Y-0.8858
X1.6732Y-0.9843
X1.6732Y-1.0827
X1.6732Y-1.1811
X1.6732Y-1.2795
X1.6732Y-2.1654
X1.6732Y-4.0354
X1.6929Y-2.2795
X1.7717Y-0.8858
X1.7717Y-0.9843
X1.7717Y-1.0827
X1.7717Y-1.1811
X1.7717Y-1.2795
X1.7717Y-2.6575
X1.7717Y-3.0512
X1.7717Y-3.1496
X1.7717Y-3.5433
X1.7992Y-2.2795
X1.8701Y-0.8858
X1.8701Y-0.9843
X1.8701Y-1.0827
X1.8701Y-1.1811
X1.8701Y-1.2795
X1.9685Y-0.8858
X1.9685Y-0.9843
X1.9685Y-1.0827
X2.1181Y-0.9567
X2.1693Y-0.8898
X2.1693Y-1.0315
X2.1693Y-1.6102
X2.2205Y-0.9567
X2.2638Y-2.6575
X2.2638Y-3.0512
X2.2638Y-4.0354
X2.3622Y-1.6102
X2.3622Y-2.2638
X2.3622Y-2.6575
X2.3622Y-3.0512
X2.3622Y-3.1496
X2.3622Y-3.5433
X2.3622Y-4.0354
X2.3622Y-4.626
X2.4606Y-2.2638
X2.4606Y-3.0512
X2.4606Y-3.1496
X2.4606Y-3.5433
X2.4606Y-4.0354
X2.4606Y-4.626
X2.5591Y-4.0354
X2.5591Y-4.626
X2.6575Y-1.8701
X2.6575Y-1.9685
X2.6575Y-2.0669
X2.6575Y-4.0354
X2.6575Y-4.626
X2.7559Y-1.2795
X2.7559Y-1.378
X2.7559Y-1.4764
X2.7559Y-1.5748
X2.7559Y-1.8701
X2.7559Y-1.9685
X2.7559Y-2.0669
X2.7559Y-4.0354
X2.7559Y-4.626
X2.8543Y-1.378
X2.8543Y-1.4764
X2.8543Y-1.5748
X2.8543Y-1.8701
X2.8543Y-1.9685
X2.8543Y-2.0669
X2.8543Y-4.0354
X2.8543Y-4.626
X2.9528Y-0.9843
X2.9528Y-1.378
X2.9528Y-1.4764
X2.9528Y-1.5748
X2.9528Y-2.6575
X2.9528Y-3.0512
X2.9528Y-3.4449
X2.9528Y-3.5433
X2.9528Y-4.0354
X2.9528Y-4.1339
X2.9528Y-4.2323
X2.9528Y-4.3307
X2.9528Y-4.4291
X2.9528Y-4.5276
X2.9528Y-4.626
X3.0512Y-1.2795
X3.0512Y-1.378
X3.0512Y-1.4764
X3.0512Y-1.5748
X3.0512Y-2.5591
X3.0512Y-2.6575
X3.0512Y-3.0512
X3.0512Y-3.1496
X3.0512Y-3.4449
X3.0512Y-3.5433
X3.0512Y-4.0354
X3.0512Y-4.1339
X3.0512Y-4.2323
X3.0512Y-4.3307
X3.0512Y-4.4291
X3.1496Y-4.0354
X3.1496Y-4.1339
X3.1496Y-4.2323
X3.1496Y-4.3307
X3.1496Y-4.4291
T6
X0.8228Y-0.9213
X0.8228Y-4.5906
X3.1142Y-0.9213
X3.1142Y-4.5906
T7
X1.5591Y-1.4528
X1.8425Y-1.4528
X2.5787Y-1.252
X2.5787Y-1.5354
T5
G00X0.8327Y-1.828
M15
G01X0.7815Y-1.828
M16
G05
G00X0.8327Y-2.1681
M15
G01X0.7815Y-2.1681
M16
G05
G00X0.9774Y-1.828
M15
G01X0.938Y-1.828
M16
G05
G00X0.9774Y-2.1681
M15
G01X0.938Y-2.1681
M16
G05
T0
M30
