M48
; DRILL file {KiCad (6.0.9-0)} date Monday, November 28, 2022 at 01:24:03 AM
; FORMAT={-:-/ absolute / metric / decimal}
; #@! TF.CreationDate,2022-11-28T01:24:03-05:00
; #@! TF.GenerationSoftware,Kicad,Pcbnew,(6.0.9-0)
; #@! TF.FileFunction,Plated,1,4,PTH
FMAT,2
METRIC
; #@! TA.AperFunction,Plated,PTH,ViaDrill
T1C0.200
; #@! TA.AperFunction,Plated,PTH,ViaDrill
T2C0.250
; #@! TA.AperFunction,Plated,PTH,ComponentDrill
T3C0.300
; #@! TA.AperFunction,Plated,PTH,ViaDrill
T4C0.400
; #@! TA.AperFunction,Plated,PTH,ComponentDrill
T5C0.650
; #@! TA.AperFunction,Plated,PTH,ComponentDrill
T6C2.500
; #@! TA.AperFunction,Plated,PTH,ComponentDrill
T7C2.750
%
G90
G05
T1
X21.8Y-29.8
X21.8Y-32.1
X23.6Y-32.7
X23.6Y-33.7
X23.6Y-34.7
X23.8Y-30.4
X23.8Y-30.9
X23.8Y-31.4
X23.9Y-37.7
X25.4Y-38.5
X25.4Y-42.4
X26.3Y-53.45
X27.4Y-34.8
X27.5Y-30.6
X27.8Y-52.75
X28.0Y-46.35
X28.1Y-30.6
X28.1Y-49.75
X28.2Y-34.8
X29.3Y-31.3
X29.8Y-47.9
X29.9Y-31.7
X30.3Y-32.7
X30.3Y-33.5
X30.8Y-28.5
X30.9Y-35.9
X31.1Y-29.1
X31.4Y-28.5
X31.7Y-29.1
X32.0Y-28.5
X32.3Y-29.1
X33.3Y-31.1
X33.9Y-23.9
X33.9Y-24.6
X33.9Y-25.3
X33.9Y-26.0
X33.9Y-26.7
X34.0Y-29.9
X34.0Y-32.3
X34.2Y-21.7
X34.2Y-29.1
X34.5Y-24.2
X34.5Y-24.9
X34.5Y-25.6
X34.5Y-26.3
X34.9Y-31.1
X36.1Y-43.1
X41.6Y-40.4
X41.6Y-40.9
X41.6Y-41.4
X41.6Y-41.9
X42.1Y-40.6
X42.1Y-41.1
X42.1Y-41.6
X42.6Y-40.4
X42.6Y-40.9
X42.6Y-41.4
X42.6Y-41.9
X54.7Y-35.3
X56.9Y-35.3
T2
X18.7Y-61.4
X19.2Y-49.4
X19.2Y-52.2
X19.3Y-34.1
X19.5Y-32.3
X19.5Y-67.3
X20.5Y-39.9
X20.5Y-41.1
X20.5Y-42.2
X20.6Y-103.4
X20.6Y-105.7
X20.9Y-40.5
X20.9Y-41.7
X21.0Y-61.4
X21.2Y-39.9
X21.2Y-41.1
X21.2Y-42.2
X21.4Y-103.4
X21.5Y-67.3
X21.6Y-40.5
X21.6Y-41.7
X21.6Y-66.3
X21.7Y-44.8
X21.8Y-34.1
X21.8Y-105.7
X21.8Y-110.9
X21.9Y-39.9
X21.9Y-41.1
X21.9Y-42.2
X22.3Y-40.5
X22.3Y-41.7
X22.4Y-43.8
X22.6Y-39.9
X22.6Y-41.1
X22.6Y-42.2
X23.0Y-40.5
X23.0Y-41.7
X23.3Y-41.1
X23.3Y-42.2
X23.4Y-66.3
X23.7Y-41.7
X24.0Y-88.3
X24.0Y-89.1
X24.0Y-90.0
X24.0Y-90.8
X24.0Y-91.7
X24.0Y-92.5
X24.0Y-93.4
X24.0Y-94.2
X24.0Y-95.1
X24.0Y-95.9
X24.0Y-96.8
X24.0Y-97.6
X24.0Y-98.5
X24.0Y-99.3
X24.0Y-100.2
X24.1Y-42.2
X24.1Y-61.4
X24.1Y-105.7
X24.3Y-84.7
X24.3Y-85.7
X24.7Y-67.2
X25.0Y-100.0
X25.9Y-56.9
X25.9Y-88.6
X26.0Y-103.4
X26.3Y-61.4
X26.7Y-89.0
X27.5Y-105.9
X27.6Y-84.5
X27.6Y-100.5
X28.7Y-103.9
X28.8Y-115.2
X28.9Y-102.9
X29.5Y-117.7
X29.8Y-36.9
X30.2Y-100.4
X30.25Y-44.45
X30.5Y-102.9
X30.7Y-42.7
X30.7Y-43.4
X30.7Y-103.9
X30.8Y-115.2
X31.0Y-100.4
X31.5Y-117.7
X31.55Y-38.65
X31.667Y-50.1
X31.667Y-50.8
X31.667Y-51.7
X31.667Y-52.4
X32.0Y-38.2
X32.5Y-102.9
X32.7Y-100.4
X32.8Y-88.6
X32.8Y-103.9
X32.8Y-115.2
X33.5Y-43.8
X33.5Y-88.6
X33.5Y-117.7
X33.6Y-100.4
X34.3Y-47.5
X34.4Y-88.6
X34.4Y-100.4
X34.8Y-103.9
X34.8Y-115.2
X34.9Y-42.8
X35.3Y-39.5
X35.3Y-100.4
X35.4Y-48.3
X35.5Y-88.6
X35.6Y-46.0
X35.9Y-48.9
X36.1Y-100.4
X36.4Y-49.5
X36.5Y-102.8
X36.8Y-115.2
X36.9Y-50.2
X37.5Y-50.8
X37.8Y-100.2
X37.8Y-101.2
X38.1Y-93.0
X38.2Y-102.9
X38.5Y-53.6
X38.6Y-118.0
X38.7Y-96.1
X38.8Y-115.2
X38.9Y-43.7
X39.1Y-99.95
X39.7Y-43.3
X39.7Y-93.3
X39.85Y-99.95
X40.0Y-47.6
X40.2Y-52.6
X40.5Y-117.2
X40.75Y-99.95
X41.4Y-116.2
X41.5Y-99.95
X42.4Y-116.2
X43.2Y-90.1
X43.4Y-51.4
X43.5Y-100.0
X43.7Y-74.8
X43.7Y-86.0
X43.7Y-97.3
X43.8Y-63.5
X44.3Y-100.0
X44.9Y-63.5
X45.4Y-51.4
X45.6Y-117.1
X46.1Y-45.4
X46.5Y-52.6
X46.6Y-55.3
X46.8Y-45.4
X47.1Y-48.7
X47.1Y-49.868
X47.1Y-54.5
X47.3Y-47.0
X47.3Y-115.4
X47.8Y-77.6
X47.8Y-100.0
X48.4Y-49.1
X48.6Y-77.6
X48.6Y-105.4
X48.6Y-107.7
X48.7Y-112.2
X49.4Y-43.9
X49.4Y-49.1
X49.7Y-77.6
X49.8Y-100.6
X50.086Y-48.912
X50.4Y-43.9
X50.5Y-116.0
X50.8Y-48.9
X50.9Y-43.5
X50.9Y-107.9
X51.0Y-45.8
X51.0Y-117.2
X51.1Y-104.7
X51.3Y-52.802
X51.3Y-103.7
X51.577Y-49.132
X51.6Y-45.1
X51.9Y-112.3
X51.995Y-52.307
X52.0Y-117.3
X52.1Y-49.6
X52.2Y-77.6
X52.2Y-102.1
X52.5Y-50.4
X52.6Y-111.9
X53.0Y-117.3
X53.2Y-40.8
X53.2Y-48.0
X53.2Y-51.3
X53.2Y-52.3
X53.6Y-77.4
X53.7Y-53.0
X53.7Y-103.7
X53.7Y-104.7
X53.8Y-101.5
X54.1Y-49.3
X54.7Y-52.3
X55.7Y-52.3
X56.6Y-49.4
X56.8Y-43.3
X57.1Y-45.8
X57.2Y-115.4
X58.2Y-49.1
X58.4Y-40.8
X58.5Y-105.4
X59.8Y-23.2
X59.8Y-105.6
X59.8Y-114.4
X60.5Y-103.9
X60.5Y-116.1
X60.7Y-63.5
X60.7Y-74.8
X60.7Y-86.0
X60.7Y-97.3
X61.8Y-105.6
X61.8Y-114.4
X62.5Y-49.2
X62.5Y-103.9
X62.5Y-116.1
X63.2Y-20.5
X63.2Y-25.6
X63.8Y-105.6
X63.8Y-114.4
X64.2Y-49.2
X64.5Y-103.9
X64.5Y-116.1
X64.9Y-20.5
X64.9Y-25.6
X65.8Y-105.6
X65.8Y-114.4
X66.5Y-103.9
X66.5Y-116.1
X66.6Y-20.5
X66.6Y-25.6
X67.8Y-105.6
X67.8Y-114.4
X68.3Y-20.5
X68.3Y-25.6
X68.5Y-103.9
X68.5Y-116.1
X69.8Y-105.6
X69.8Y-114.4
X70.0Y-20.5
X70.0Y-25.6
X70.5Y-103.9
X70.5Y-116.1
X71.7Y-20.5
X71.7Y-25.6
X72.5Y-106.1
X72.5Y-114.0
X73.4Y-20.5
X73.4Y-25.6
X73.4Y-32.7
X73.7Y-49.3
X73.8Y-98.9
X74.4Y-32.7
X74.7Y-99.2
X75.1Y-29.6
X75.4Y-99.5
X76.1Y-28.2
X76.8Y-99.5
X77.6Y-63.5
X77.6Y-74.8
X77.6Y-86.0
X77.6Y-97.3
X77.6Y-99.5
X78.2Y-41.9
X78.3Y-99.8
X78.9Y-41.9
X79.6Y-41.9
X80.3Y-41.9
X81.0Y-41.9
T3
X27.3Y-31.95
X27.3Y-33.45
X27.8Y-32.7
X28.3Y-31.95
X28.3Y-33.45
T4
X18.5Y-71.5
X18.5Y-73.5
X18.5Y-75.5
X18.5Y-77.5
X18.5Y-79.5
X18.5Y-81.5
X18.5Y-83.5
X20.0Y-38.0
X20.0Y-112.5
X20.5Y-28.0
X22.0Y-38.0
X22.5Y-112.5
X25.0Y-112.5
X25.0Y-115.0
X25.0Y-117.5
X27.5Y-57.5
X27.5Y-115.0
X27.5Y-117.5
X29.0Y-23.0
X29.0Y-25.0
X29.0Y-27.0
X29.0Y-29.0
X32.5Y-55.0
X32.5Y-67.5
X32.5Y-77.5
X37.5Y-22.5
X37.5Y-25.0
X37.5Y-27.5
X40.0Y-22.5
X40.0Y-25.0
X40.0Y-27.5
X40.0Y-30.0
X40.0Y-32.5
X40.0Y-55.0
X40.0Y-67.5
X40.0Y-102.5
X40.0Y-105.0
X42.5Y-22.5
X42.5Y-25.0
X42.5Y-27.5
X42.5Y-30.0
X42.5Y-32.5
X42.5Y-55.0
X42.5Y-102.5
X45.0Y-22.5
X45.0Y-25.0
X45.0Y-27.5
X45.0Y-30.0
X45.0Y-32.5
X45.0Y-67.5
X45.0Y-77.5
X45.0Y-80.0
X45.0Y-90.0
X47.5Y-22.5
X47.5Y-25.0
X47.5Y-27.5
X47.5Y-30.0
X47.5Y-32.5
X50.0Y-22.5
X50.0Y-25.0
X50.0Y-27.5
X57.5Y-67.5
X57.5Y-77.5
X57.5Y-102.5
X60.0Y-57.5
X60.0Y-67.5
X60.0Y-77.5
X60.0Y-80.0
X60.0Y-90.0
X60.0Y-102.5
X60.0Y-117.5
X62.5Y-57.5
X62.5Y-77.5
X62.5Y-80.0
X62.5Y-90.0
X62.5Y-102.5
X62.5Y-117.5
X65.0Y-102.5
X65.0Y-117.5
X67.5Y-32.5
X67.5Y-35.0
X67.5Y-37.5
X67.5Y-40.0
X67.5Y-47.5
X67.5Y-50.0
X67.5Y-52.5
X67.5Y-102.5
X67.5Y-117.5
X70.0Y-32.5
X70.0Y-35.0
X70.0Y-37.5
X70.0Y-40.0
X70.0Y-47.5
X70.0Y-50.0
X70.0Y-52.5
X70.0Y-102.5
X70.0Y-117.5
X72.5Y-35.0
X72.5Y-37.5
X72.5Y-40.0
X72.5Y-47.5
X72.5Y-50.0
X72.5Y-52.5
X72.5Y-102.5
X72.5Y-117.5
X75.0Y-25.0
X75.0Y-35.0
X75.0Y-37.5
X75.0Y-40.0
X75.0Y-67.5
X75.0Y-77.5
X75.0Y-87.5
X75.0Y-90.0
X75.0Y-102.5
X75.0Y-105.0
X75.0Y-107.5
X75.0Y-110.0
X75.0Y-112.5
X75.0Y-115.0
X75.0Y-117.5
X77.5Y-32.5
X77.5Y-35.0
X77.5Y-37.5
X77.5Y-40.0
X77.5Y-65.0
X77.5Y-67.5
X77.5Y-77.5
X77.5Y-80.0
X77.5Y-87.5
X77.5Y-90.0
X77.5Y-102.5
X77.5Y-105.0
X77.5Y-107.5
X77.5Y-110.0
X77.5Y-112.5
X80.0Y-102.5
X80.0Y-105.0
X80.0Y-107.5
X80.0Y-110.0
X80.0Y-112.5
T6
X20.9Y-23.4
X20.9Y-116.6
X79.1Y-23.4
X79.1Y-116.6
T7
X39.6Y-36.9
X46.8Y-36.9
X63.1Y-31.8
X63.1Y-39.0
T5
X21.15Y-46.43G85X19.85Y-46.43
G05
X21.15Y-55.07G85X19.85Y-55.07
G05
X24.825Y-46.43G85X23.825Y-46.43
G05
X24.825Y-55.07G85X23.825Y-55.07
G05
T0
M30
