G04 #@! TF.GenerationSoftware,KiCad,Pcbnew,(5.1.8)-1*
G04 #@! TF.CreationDate,2020-12-20T23:41:31-05:00*
G04 #@! TF.ProjectId,uBMS-2,75424d53-2d32-42e6-9b69-6361645f7063,rev?*
G04 #@! TF.SameCoordinates,Original*
G04 #@! TF.FileFunction,Soldermask,Top*
G04 #@! TF.FilePolarity,Negative*
%FSLAX46Y46*%
G04 Gerber Fmt 4.6, Leading zero omitted, Abs format (unit mm)*
G04 Created by KiCad (PCBNEW (5.1.8)-1) date 2020-12-20 23:41:31*
%MOMM*%
%LPD*%
G01*
G04 APERTURE LIST*
%ADD10C,4.602000*%
%ADD11C,0.702000*%
%ADD12O,0.420000X0.990000*%
%ADD13O,2.502000X1.302000*%
%ADD14O,2.418000X1.260000*%
%ADD15C,0.732000*%
%ADD16C,1.102000*%
%ADD17C,2.102000*%
%ADD18C,0.100000*%
G04 APERTURE END LIST*
G36*
G01*
X70000000Y-29151000D02*
X68200000Y-29151000D01*
G75*
G02*
X68149000Y-29100000I0J51000D01*
G01*
X68149000Y-28200000D01*
G75*
G02*
X68200000Y-28149000I51000J0D01*
G01*
X70000000Y-28149000D01*
G75*
G02*
X70051000Y-28200000I0J-51000D01*
G01*
X70051000Y-29100000D01*
G75*
G02*
X70000000Y-29151000I-51000J0D01*
G01*
G37*
G36*
G01*
X70000000Y-42651000D02*
X68200000Y-42651000D01*
G75*
G02*
X68149000Y-42600000I0J51000D01*
G01*
X68149000Y-41700000D01*
G75*
G02*
X68200000Y-41649000I51000J0D01*
G01*
X70000000Y-41649000D01*
G75*
G02*
X70051000Y-41700000I0J-51000D01*
G01*
X70051000Y-42600000D01*
G75*
G02*
X70000000Y-42651000I-51000J0D01*
G01*
G37*
D10*
X63100000Y-39000000D03*
X63100000Y-31800000D03*
G36*
G01*
X54751000Y-48699999D02*
X54751000Y-49900001D01*
G75*
G02*
X54700001Y-49951000I-50999J0D01*
G01*
X53499999Y-49951000D01*
G75*
G02*
X53449000Y-49900001I0J50999D01*
G01*
X53449000Y-48699999D01*
G75*
G02*
X53499999Y-48649000I50999J0D01*
G01*
X54700001Y-48649000D01*
G75*
G02*
X54751000Y-48699999I0J-50999D01*
G01*
G37*
G36*
G01*
X53331000Y-49790000D02*
X53331000Y-50010000D01*
G75*
G02*
X53280000Y-50061000I-51000J0D01*
G01*
X52500000Y-50061000D01*
G75*
G02*
X52449000Y-50010000I0J51000D01*
G01*
X52449000Y-49790000D01*
G75*
G02*
X52500000Y-49739000I51000J0D01*
G01*
X53280000Y-49739000D01*
G75*
G02*
X53331000Y-49790000I0J-51000D01*
G01*
G37*
G36*
G01*
X53331000Y-49390000D02*
X53331000Y-49610000D01*
G75*
G02*
X53280000Y-49661000I-51000J0D01*
G01*
X52500000Y-49661000D01*
G75*
G02*
X52449000Y-49610000I0J51000D01*
G01*
X52449000Y-49390000D01*
G75*
G02*
X52500000Y-49339000I51000J0D01*
G01*
X53280000Y-49339000D01*
G75*
G02*
X53331000Y-49390000I0J-51000D01*
G01*
G37*
G36*
G01*
X53331000Y-48990000D02*
X53331000Y-49210000D01*
G75*
G02*
X53280000Y-49261000I-51000J0D01*
G01*
X52500000Y-49261000D01*
G75*
G02*
X52449000Y-49210000I0J51000D01*
G01*
X52449000Y-48990000D01*
G75*
G02*
X52500000Y-48939000I51000J0D01*
G01*
X53280000Y-48939000D01*
G75*
G02*
X53331000Y-48990000I0J-51000D01*
G01*
G37*
G36*
G01*
X53331000Y-48590000D02*
X53331000Y-48810000D01*
G75*
G02*
X53280000Y-48861000I-51000J0D01*
G01*
X52500000Y-48861000D01*
G75*
G02*
X52449000Y-48810000I0J51000D01*
G01*
X52449000Y-48590000D01*
G75*
G02*
X52500000Y-48539000I51000J0D01*
G01*
X53280000Y-48539000D01*
G75*
G02*
X53331000Y-48590000I0J-51000D01*
G01*
G37*
G36*
G01*
X55751000Y-48590000D02*
X55751000Y-48810000D01*
G75*
G02*
X55700000Y-48861000I-51000J0D01*
G01*
X54920000Y-48861000D01*
G75*
G02*
X54869000Y-48810000I0J51000D01*
G01*
X54869000Y-48590000D01*
G75*
G02*
X54920000Y-48539000I51000J0D01*
G01*
X55700000Y-48539000D01*
G75*
G02*
X55751000Y-48590000I0J-51000D01*
G01*
G37*
G36*
G01*
X55751000Y-48990000D02*
X55751000Y-49210000D01*
G75*
G02*
X55700000Y-49261000I-51000J0D01*
G01*
X54920000Y-49261000D01*
G75*
G02*
X54869000Y-49210000I0J51000D01*
G01*
X54869000Y-48990000D01*
G75*
G02*
X54920000Y-48939000I51000J0D01*
G01*
X55700000Y-48939000D01*
G75*
G02*
X55751000Y-48990000I0J-51000D01*
G01*
G37*
G36*
G01*
X55751000Y-49390000D02*
X55751000Y-49610000D01*
G75*
G02*
X55700000Y-49661000I-51000J0D01*
G01*
X54920000Y-49661000D01*
G75*
G02*
X54869000Y-49610000I0J51000D01*
G01*
X54869000Y-49390000D01*
G75*
G02*
X54920000Y-49339000I51000J0D01*
G01*
X55700000Y-49339000D01*
G75*
G02*
X55751000Y-49390000I0J-51000D01*
G01*
G37*
G36*
G01*
X55751000Y-49790000D02*
X55751000Y-50010000D01*
G75*
G02*
X55700000Y-50061000I-51000J0D01*
G01*
X54920000Y-50061000D01*
G75*
G02*
X54869000Y-50010000I0J51000D01*
G01*
X54869000Y-49790000D01*
G75*
G02*
X54920000Y-49739000I51000J0D01*
G01*
X55700000Y-49739000D01*
G75*
G02*
X55751000Y-49790000I0J-51000D01*
G01*
G37*
G36*
G01*
X54861000Y-50120000D02*
X54861000Y-50900000D01*
G75*
G02*
X54810000Y-50951000I-51000J0D01*
G01*
X54590000Y-50951000D01*
G75*
G02*
X54539000Y-50900000I0J51000D01*
G01*
X54539000Y-50120000D01*
G75*
G02*
X54590000Y-50069000I51000J0D01*
G01*
X54810000Y-50069000D01*
G75*
G02*
X54861000Y-50120000I0J-51000D01*
G01*
G37*
G36*
G01*
X54461000Y-50120000D02*
X54461000Y-50900000D01*
G75*
G02*
X54410000Y-50951000I-51000J0D01*
G01*
X54190000Y-50951000D01*
G75*
G02*
X54139000Y-50900000I0J51000D01*
G01*
X54139000Y-50120000D01*
G75*
G02*
X54190000Y-50069000I51000J0D01*
G01*
X54410000Y-50069000D01*
G75*
G02*
X54461000Y-50120000I0J-51000D01*
G01*
G37*
G36*
G01*
X54061000Y-50120000D02*
X54061000Y-50900000D01*
G75*
G02*
X54010000Y-50951000I-51000J0D01*
G01*
X53790000Y-50951000D01*
G75*
G02*
X53739000Y-50900000I0J51000D01*
G01*
X53739000Y-50120000D01*
G75*
G02*
X53790000Y-50069000I51000J0D01*
G01*
X54010000Y-50069000D01*
G75*
G02*
X54061000Y-50120000I0J-51000D01*
G01*
G37*
G36*
G01*
X53661000Y-50120000D02*
X53661000Y-50900000D01*
G75*
G02*
X53610000Y-50951000I-51000J0D01*
G01*
X53390000Y-50951000D01*
G75*
G02*
X53339000Y-50900000I0J51000D01*
G01*
X53339000Y-50120000D01*
G75*
G02*
X53390000Y-50069000I51000J0D01*
G01*
X53610000Y-50069000D01*
G75*
G02*
X53661000Y-50120000I0J-51000D01*
G01*
G37*
G36*
G01*
X53661000Y-47700000D02*
X53661000Y-48480000D01*
G75*
G02*
X53610000Y-48531000I-51000J0D01*
G01*
X53390000Y-48531000D01*
G75*
G02*
X53339000Y-48480000I0J51000D01*
G01*
X53339000Y-47700000D01*
G75*
G02*
X53390000Y-47649000I51000J0D01*
G01*
X53610000Y-47649000D01*
G75*
G02*
X53661000Y-47700000I0J-51000D01*
G01*
G37*
G36*
G01*
X54061000Y-47700000D02*
X54061000Y-48480000D01*
G75*
G02*
X54010000Y-48531000I-51000J0D01*
G01*
X53790000Y-48531000D01*
G75*
G02*
X53739000Y-48480000I0J51000D01*
G01*
X53739000Y-47700000D01*
G75*
G02*
X53790000Y-47649000I51000J0D01*
G01*
X54010000Y-47649000D01*
G75*
G02*
X54061000Y-47700000I0J-51000D01*
G01*
G37*
G36*
G01*
X54461000Y-47700000D02*
X54461000Y-48480000D01*
G75*
G02*
X54410000Y-48531000I-51000J0D01*
G01*
X54190000Y-48531000D01*
G75*
G02*
X54139000Y-48480000I0J51000D01*
G01*
X54139000Y-47700000D01*
G75*
G02*
X54190000Y-47649000I51000J0D01*
G01*
X54410000Y-47649000D01*
G75*
G02*
X54461000Y-47700000I0J-51000D01*
G01*
G37*
G36*
G01*
X54861000Y-47700000D02*
X54861000Y-48480000D01*
G75*
G02*
X54810000Y-48531000I-51000J0D01*
G01*
X54590000Y-48531000D01*
G75*
G02*
X54539000Y-48480000I0J51000D01*
G01*
X54539000Y-47700000D01*
G75*
G02*
X54590000Y-47649000I51000J0D01*
G01*
X54810000Y-47649000D01*
G75*
G02*
X54861000Y-47700000I0J-51000D01*
G01*
G37*
G36*
G01*
X32754000Y-42510001D02*
X32754000Y-40689999D01*
G75*
G02*
X32804999Y-40639000I50999J0D01*
G01*
X34005001Y-40639000D01*
G75*
G02*
X34056000Y-40689999I0J-50999D01*
G01*
X34056000Y-42510001D01*
G75*
G02*
X34005001Y-42561000I-50999J0D01*
G01*
X32804999Y-42561000D01*
G75*
G02*
X32754000Y-42510001I0J50999D01*
G01*
G37*
G36*
G01*
X29744000Y-42510001D02*
X29744000Y-40689999D01*
G75*
G02*
X29794999Y-40639000I50999J0D01*
G01*
X30995001Y-40639000D01*
G75*
G02*
X31046000Y-40689999I0J-50999D01*
G01*
X31046000Y-42510001D01*
G75*
G02*
X30995001Y-42561000I-50999J0D01*
G01*
X29794999Y-42561000D01*
G75*
G02*
X29744000Y-42510001I0J50999D01*
G01*
G37*
G36*
G01*
X74062000Y-22149000D02*
X74538000Y-22149000D01*
G75*
G02*
X74776000Y-22387000I0J-238000D01*
G01*
X74776000Y-23238000D01*
G75*
G02*
X74538000Y-23476000I-238000J0D01*
G01*
X74062000Y-23476000D01*
G75*
G02*
X73824000Y-23238000I0J238000D01*
G01*
X73824000Y-22387000D01*
G75*
G02*
X74062000Y-22149000I238000J0D01*
G01*
G37*
G36*
G01*
X74062000Y-20524000D02*
X74538000Y-20524000D01*
G75*
G02*
X74776000Y-20762000I0J-238000D01*
G01*
X74776000Y-21613000D01*
G75*
G02*
X74538000Y-21851000I-238000J0D01*
G01*
X74062000Y-21851000D01*
G75*
G02*
X73824000Y-21613000I0J238000D01*
G01*
X73824000Y-20762000D01*
G75*
G02*
X74062000Y-20524000I238000J0D01*
G01*
G37*
G36*
G01*
X72362000Y-22149000D02*
X72838000Y-22149000D01*
G75*
G02*
X73076000Y-22387000I0J-238000D01*
G01*
X73076000Y-23238000D01*
G75*
G02*
X72838000Y-23476000I-238000J0D01*
G01*
X72362000Y-23476000D01*
G75*
G02*
X72124000Y-23238000I0J238000D01*
G01*
X72124000Y-22387000D01*
G75*
G02*
X72362000Y-22149000I238000J0D01*
G01*
G37*
G36*
G01*
X72362000Y-20524000D02*
X72838000Y-20524000D01*
G75*
G02*
X73076000Y-20762000I0J-238000D01*
G01*
X73076000Y-21613000D01*
G75*
G02*
X72838000Y-21851000I-238000J0D01*
G01*
X72362000Y-21851000D01*
G75*
G02*
X72124000Y-21613000I0J238000D01*
G01*
X72124000Y-20762000D01*
G75*
G02*
X72362000Y-20524000I238000J0D01*
G01*
G37*
G36*
G01*
X65562000Y-22149000D02*
X66038000Y-22149000D01*
G75*
G02*
X66276000Y-22387000I0J-238000D01*
G01*
X66276000Y-23238000D01*
G75*
G02*
X66038000Y-23476000I-238000J0D01*
G01*
X65562000Y-23476000D01*
G75*
G02*
X65324000Y-23238000I0J238000D01*
G01*
X65324000Y-22387000D01*
G75*
G02*
X65562000Y-22149000I238000J0D01*
G01*
G37*
G36*
G01*
X65562000Y-20524000D02*
X66038000Y-20524000D01*
G75*
G02*
X66276000Y-20762000I0J-238000D01*
G01*
X66276000Y-21613000D01*
G75*
G02*
X66038000Y-21851000I-238000J0D01*
G01*
X65562000Y-21851000D01*
G75*
G02*
X65324000Y-21613000I0J238000D01*
G01*
X65324000Y-20762000D01*
G75*
G02*
X65562000Y-20524000I238000J0D01*
G01*
G37*
G36*
G01*
X30539000Y-29525500D02*
X30539000Y-29274500D01*
G75*
G02*
X30664500Y-29149000I125500J0D01*
G01*
X30975500Y-29149000D01*
G75*
G02*
X31101000Y-29274500I0J-125500D01*
G01*
X31101000Y-29525500D01*
G75*
G02*
X30975500Y-29651000I-125500J0D01*
G01*
X30664500Y-29651000D01*
G75*
G02*
X30539000Y-29525500I0J125500D01*
G01*
G37*
G36*
G01*
X29899000Y-29525500D02*
X29899000Y-29274500D01*
G75*
G02*
X30024500Y-29149000I125500J0D01*
G01*
X30335500Y-29149000D01*
G75*
G02*
X30461000Y-29274500I0J-125500D01*
G01*
X30461000Y-29525500D01*
G75*
G02*
X30335500Y-29651000I-125500J0D01*
G01*
X30024500Y-29651000D01*
G75*
G02*
X29899000Y-29525500I0J125500D01*
G01*
G37*
G36*
G01*
X33249000Y-50700000D02*
X33249000Y-48100000D01*
G75*
G02*
X33300000Y-48049000I51000J0D01*
G01*
X35900000Y-48049000D01*
G75*
G02*
X35951000Y-48100000I0J-51000D01*
G01*
X35951000Y-50700000D01*
G75*
G02*
X35900000Y-50751000I-51000J0D01*
G01*
X33300000Y-50751000D01*
G75*
G02*
X33249000Y-50700000I0J51000D01*
G01*
G37*
G36*
G01*
X33174000Y-47838000D02*
X33174000Y-47087000D01*
G75*
G02*
X33262000Y-46999000I88000J0D01*
G01*
X33438000Y-46999000D01*
G75*
G02*
X33526000Y-47087000I0J-88000D01*
G01*
X33526000Y-47838000D01*
G75*
G02*
X33438000Y-47926000I-88000J0D01*
G01*
X33262000Y-47926000D01*
G75*
G02*
X33174000Y-47838000I0J88000D01*
G01*
G37*
G36*
G01*
X33674000Y-47838000D02*
X33674000Y-47087000D01*
G75*
G02*
X33762000Y-46999000I88000J0D01*
G01*
X33938000Y-46999000D01*
G75*
G02*
X34026000Y-47087000I0J-88000D01*
G01*
X34026000Y-47838000D01*
G75*
G02*
X33938000Y-47926000I-88000J0D01*
G01*
X33762000Y-47926000D01*
G75*
G02*
X33674000Y-47838000I0J88000D01*
G01*
G37*
G36*
G01*
X34174000Y-47838000D02*
X34174000Y-47087000D01*
G75*
G02*
X34262000Y-46999000I88000J0D01*
G01*
X34438000Y-46999000D01*
G75*
G02*
X34526000Y-47087000I0J-88000D01*
G01*
X34526000Y-47838000D01*
G75*
G02*
X34438000Y-47926000I-88000J0D01*
G01*
X34262000Y-47926000D01*
G75*
G02*
X34174000Y-47838000I0J88000D01*
G01*
G37*
G36*
G01*
X34674000Y-47838000D02*
X34674000Y-47087000D01*
G75*
G02*
X34762000Y-46999000I88000J0D01*
G01*
X34938000Y-46999000D01*
G75*
G02*
X35026000Y-47087000I0J-88000D01*
G01*
X35026000Y-47838000D01*
G75*
G02*
X34938000Y-47926000I-88000J0D01*
G01*
X34762000Y-47926000D01*
G75*
G02*
X34674000Y-47838000I0J88000D01*
G01*
G37*
G36*
G01*
X35174000Y-47838000D02*
X35174000Y-47087000D01*
G75*
G02*
X35262000Y-46999000I88000J0D01*
G01*
X35438000Y-46999000D01*
G75*
G02*
X35526000Y-47087000I0J-88000D01*
G01*
X35526000Y-47838000D01*
G75*
G02*
X35438000Y-47926000I-88000J0D01*
G01*
X35262000Y-47926000D01*
G75*
G02*
X35174000Y-47838000I0J88000D01*
G01*
G37*
G36*
G01*
X35674000Y-47838000D02*
X35674000Y-47087000D01*
G75*
G02*
X35762000Y-46999000I88000J0D01*
G01*
X35938000Y-46999000D01*
G75*
G02*
X36026000Y-47087000I0J-88000D01*
G01*
X36026000Y-47838000D01*
G75*
G02*
X35938000Y-47926000I-88000J0D01*
G01*
X35762000Y-47926000D01*
G75*
G02*
X35674000Y-47838000I0J88000D01*
G01*
G37*
G36*
G01*
X36074000Y-48238000D02*
X36074000Y-48062000D01*
G75*
G02*
X36162000Y-47974000I88000J0D01*
G01*
X36913000Y-47974000D01*
G75*
G02*
X37001000Y-48062000I0J-88000D01*
G01*
X37001000Y-48238000D01*
G75*
G02*
X36913000Y-48326000I-88000J0D01*
G01*
X36162000Y-48326000D01*
G75*
G02*
X36074000Y-48238000I0J88000D01*
G01*
G37*
G36*
G01*
X36074000Y-48738000D02*
X36074000Y-48562000D01*
G75*
G02*
X36162000Y-48474000I88000J0D01*
G01*
X36913000Y-48474000D01*
G75*
G02*
X37001000Y-48562000I0J-88000D01*
G01*
X37001000Y-48738000D01*
G75*
G02*
X36913000Y-48826000I-88000J0D01*
G01*
X36162000Y-48826000D01*
G75*
G02*
X36074000Y-48738000I0J88000D01*
G01*
G37*
G36*
G01*
X36074000Y-49238000D02*
X36074000Y-49062000D01*
G75*
G02*
X36162000Y-48974000I88000J0D01*
G01*
X36913000Y-48974000D01*
G75*
G02*
X37001000Y-49062000I0J-88000D01*
G01*
X37001000Y-49238000D01*
G75*
G02*
X36913000Y-49326000I-88000J0D01*
G01*
X36162000Y-49326000D01*
G75*
G02*
X36074000Y-49238000I0J88000D01*
G01*
G37*
G36*
G01*
X36074000Y-49738000D02*
X36074000Y-49562000D01*
G75*
G02*
X36162000Y-49474000I88000J0D01*
G01*
X36913000Y-49474000D01*
G75*
G02*
X37001000Y-49562000I0J-88000D01*
G01*
X37001000Y-49738000D01*
G75*
G02*
X36913000Y-49826000I-88000J0D01*
G01*
X36162000Y-49826000D01*
G75*
G02*
X36074000Y-49738000I0J88000D01*
G01*
G37*
G36*
G01*
X36074000Y-50238000D02*
X36074000Y-50062000D01*
G75*
G02*
X36162000Y-49974000I88000J0D01*
G01*
X36913000Y-49974000D01*
G75*
G02*
X37001000Y-50062000I0J-88000D01*
G01*
X37001000Y-50238000D01*
G75*
G02*
X36913000Y-50326000I-88000J0D01*
G01*
X36162000Y-50326000D01*
G75*
G02*
X36074000Y-50238000I0J88000D01*
G01*
G37*
G36*
G01*
X36074000Y-50738000D02*
X36074000Y-50562000D01*
G75*
G02*
X36162000Y-50474000I88000J0D01*
G01*
X36913000Y-50474000D01*
G75*
G02*
X37001000Y-50562000I0J-88000D01*
G01*
X37001000Y-50738000D01*
G75*
G02*
X36913000Y-50826000I-88000J0D01*
G01*
X36162000Y-50826000D01*
G75*
G02*
X36074000Y-50738000I0J88000D01*
G01*
G37*
G36*
G01*
X35674000Y-51713000D02*
X35674000Y-50962000D01*
G75*
G02*
X35762000Y-50874000I88000J0D01*
G01*
X35938000Y-50874000D01*
G75*
G02*
X36026000Y-50962000I0J-88000D01*
G01*
X36026000Y-51713000D01*
G75*
G02*
X35938000Y-51801000I-88000J0D01*
G01*
X35762000Y-51801000D01*
G75*
G02*
X35674000Y-51713000I0J88000D01*
G01*
G37*
G36*
G01*
X35174000Y-51713000D02*
X35174000Y-50962000D01*
G75*
G02*
X35262000Y-50874000I88000J0D01*
G01*
X35438000Y-50874000D01*
G75*
G02*
X35526000Y-50962000I0J-88000D01*
G01*
X35526000Y-51713000D01*
G75*
G02*
X35438000Y-51801000I-88000J0D01*
G01*
X35262000Y-51801000D01*
G75*
G02*
X35174000Y-51713000I0J88000D01*
G01*
G37*
G36*
G01*
X34674000Y-51713000D02*
X34674000Y-50962000D01*
G75*
G02*
X34762000Y-50874000I88000J0D01*
G01*
X34938000Y-50874000D01*
G75*
G02*
X35026000Y-50962000I0J-88000D01*
G01*
X35026000Y-51713000D01*
G75*
G02*
X34938000Y-51801000I-88000J0D01*
G01*
X34762000Y-51801000D01*
G75*
G02*
X34674000Y-51713000I0J88000D01*
G01*
G37*
G36*
G01*
X34174000Y-51713000D02*
X34174000Y-50962000D01*
G75*
G02*
X34262000Y-50874000I88000J0D01*
G01*
X34438000Y-50874000D01*
G75*
G02*
X34526000Y-50962000I0J-88000D01*
G01*
X34526000Y-51713000D01*
G75*
G02*
X34438000Y-51801000I-88000J0D01*
G01*
X34262000Y-51801000D01*
G75*
G02*
X34174000Y-51713000I0J88000D01*
G01*
G37*
G36*
G01*
X33674000Y-51713000D02*
X33674000Y-50962000D01*
G75*
G02*
X33762000Y-50874000I88000J0D01*
G01*
X33938000Y-50874000D01*
G75*
G02*
X34026000Y-50962000I0J-88000D01*
G01*
X34026000Y-51713000D01*
G75*
G02*
X33938000Y-51801000I-88000J0D01*
G01*
X33762000Y-51801000D01*
G75*
G02*
X33674000Y-51713000I0J88000D01*
G01*
G37*
G36*
G01*
X33174000Y-51713000D02*
X33174000Y-50962000D01*
G75*
G02*
X33262000Y-50874000I88000J0D01*
G01*
X33438000Y-50874000D01*
G75*
G02*
X33526000Y-50962000I0J-88000D01*
G01*
X33526000Y-51713000D01*
G75*
G02*
X33438000Y-51801000I-88000J0D01*
G01*
X33262000Y-51801000D01*
G75*
G02*
X33174000Y-51713000I0J88000D01*
G01*
G37*
G36*
G01*
X32199000Y-50738000D02*
X32199000Y-50562000D01*
G75*
G02*
X32287000Y-50474000I88000J0D01*
G01*
X33038000Y-50474000D01*
G75*
G02*
X33126000Y-50562000I0J-88000D01*
G01*
X33126000Y-50738000D01*
G75*
G02*
X33038000Y-50826000I-88000J0D01*
G01*
X32287000Y-50826000D01*
G75*
G02*
X32199000Y-50738000I0J88000D01*
G01*
G37*
G36*
G01*
X32199000Y-50238000D02*
X32199000Y-50062000D01*
G75*
G02*
X32287000Y-49974000I88000J0D01*
G01*
X33038000Y-49974000D01*
G75*
G02*
X33126000Y-50062000I0J-88000D01*
G01*
X33126000Y-50238000D01*
G75*
G02*
X33038000Y-50326000I-88000J0D01*
G01*
X32287000Y-50326000D01*
G75*
G02*
X32199000Y-50238000I0J88000D01*
G01*
G37*
G36*
G01*
X32199000Y-49738000D02*
X32199000Y-49562000D01*
G75*
G02*
X32287000Y-49474000I88000J0D01*
G01*
X33038000Y-49474000D01*
G75*
G02*
X33126000Y-49562000I0J-88000D01*
G01*
X33126000Y-49738000D01*
G75*
G02*
X33038000Y-49826000I-88000J0D01*
G01*
X32287000Y-49826000D01*
G75*
G02*
X32199000Y-49738000I0J88000D01*
G01*
G37*
G36*
G01*
X32199000Y-49238000D02*
X32199000Y-49062000D01*
G75*
G02*
X32287000Y-48974000I88000J0D01*
G01*
X33038000Y-48974000D01*
G75*
G02*
X33126000Y-49062000I0J-88000D01*
G01*
X33126000Y-49238000D01*
G75*
G02*
X33038000Y-49326000I-88000J0D01*
G01*
X32287000Y-49326000D01*
G75*
G02*
X32199000Y-49238000I0J88000D01*
G01*
G37*
G36*
G01*
X32199000Y-48738000D02*
X32199000Y-48562000D01*
G75*
G02*
X32287000Y-48474000I88000J0D01*
G01*
X33038000Y-48474000D01*
G75*
G02*
X33126000Y-48562000I0J-88000D01*
G01*
X33126000Y-48738000D01*
G75*
G02*
X33038000Y-48826000I-88000J0D01*
G01*
X32287000Y-48826000D01*
G75*
G02*
X32199000Y-48738000I0J88000D01*
G01*
G37*
G36*
G01*
X32199000Y-48238000D02*
X32199000Y-48062000D01*
G75*
G02*
X32287000Y-47974000I88000J0D01*
G01*
X33038000Y-47974000D01*
G75*
G02*
X33126000Y-48062000I0J-88000D01*
G01*
X33126000Y-48238000D01*
G75*
G02*
X33038000Y-48326000I-88000J0D01*
G01*
X32287000Y-48326000D01*
G75*
G02*
X32199000Y-48238000I0J88000D01*
G01*
G37*
D11*
X32350000Y-33600000D03*
X30850000Y-33600000D03*
X30850000Y-32600000D03*
X31600000Y-33100000D03*
X32350000Y-32600000D03*
D12*
X30600000Y-31625000D03*
X31100000Y-31625000D03*
X31600000Y-31625000D03*
G36*
G01*
X32240000Y-31550000D02*
X31960000Y-31550000D01*
G75*
G02*
X31890000Y-31480000I0J70000D01*
G01*
X31890000Y-31200000D01*
G75*
G02*
X31960000Y-31130000I70000J0D01*
G01*
X32240000Y-31130000D01*
G75*
G02*
X32310000Y-31200000I0J-70000D01*
G01*
X32310000Y-31480000D01*
G75*
G02*
X32240000Y-31550000I-70000J0D01*
G01*
G37*
G36*
G01*
X32740000Y-31550000D02*
X32460000Y-31550000D01*
G75*
G02*
X32390000Y-31480000I0J70000D01*
G01*
X32390000Y-31200000D01*
G75*
G02*
X32460000Y-31130000I70000J0D01*
G01*
X32740000Y-31130000D01*
G75*
G02*
X32810000Y-31200000I0J-70000D01*
G01*
X32810000Y-31480000D01*
G75*
G02*
X32740000Y-31550000I-70000J0D01*
G01*
G37*
X32600000Y-34575000D03*
G36*
G01*
X32240000Y-35070000D02*
X31960000Y-35070000D01*
G75*
G02*
X31890000Y-35000000I0J70000D01*
G01*
X31890000Y-34720000D01*
G75*
G02*
X31960000Y-34650000I70000J0D01*
G01*
X32240000Y-34650000D01*
G75*
G02*
X32310000Y-34720000I0J-70000D01*
G01*
X32310000Y-35000000D01*
G75*
G02*
X32240000Y-35070000I-70000J0D01*
G01*
G37*
X31600000Y-34575000D03*
G36*
G01*
X31240000Y-35070000D02*
X30960000Y-35070000D01*
G75*
G02*
X30890000Y-35000000I0J70000D01*
G01*
X30890000Y-34720000D01*
G75*
G02*
X30960000Y-34650000I70000J0D01*
G01*
X31240000Y-34650000D01*
G75*
G02*
X31310000Y-34720000I0J-70000D01*
G01*
X31310000Y-35000000D01*
G75*
G02*
X31240000Y-35070000I-70000J0D01*
G01*
G37*
G36*
G01*
X30740000Y-35070000D02*
X30460000Y-35070000D01*
G75*
G02*
X30390000Y-35000000I0J70000D01*
G01*
X30390000Y-34720000D01*
G75*
G02*
X30460000Y-34650000I70000J0D01*
G01*
X30740000Y-34650000D01*
G75*
G02*
X30810000Y-34720000I0J-70000D01*
G01*
X30810000Y-35000000D01*
G75*
G02*
X30740000Y-35070000I-70000J0D01*
G01*
G37*
G36*
G01*
X32800000Y-33976000D02*
X30400000Y-33976000D01*
G75*
G02*
X30349000Y-33925000I0J51000D01*
G01*
X30349000Y-32275000D01*
G75*
G02*
X30400000Y-32224000I51000J0D01*
G01*
X32800000Y-32224000D01*
G75*
G02*
X32851000Y-32275000I0J-51000D01*
G01*
X32851000Y-33925000D01*
G75*
G02*
X32800000Y-33976000I-51000J0D01*
G01*
G37*
G36*
G01*
X32760000Y-33041000D02*
X31710000Y-33041000D01*
G75*
G02*
X31659000Y-32990000I0J51000D01*
G01*
X31659000Y-32310000D01*
G75*
G02*
X31710000Y-32259000I51000J0D01*
G01*
X32760000Y-32259000D01*
G75*
G02*
X32811000Y-32310000I0J-51000D01*
G01*
X32811000Y-32990000D01*
G75*
G02*
X32760000Y-33041000I-51000J0D01*
G01*
G37*
G36*
G01*
X32760000Y-33941000D02*
X31710000Y-33941000D01*
G75*
G02*
X31659000Y-33890000I0J51000D01*
G01*
X31659000Y-33210000D01*
G75*
G02*
X31710000Y-33159000I51000J0D01*
G01*
X32760000Y-33159000D01*
G75*
G02*
X32811000Y-33210000I0J-51000D01*
G01*
X32811000Y-33890000D01*
G75*
G02*
X32760000Y-33941000I-51000J0D01*
G01*
G37*
G36*
G01*
X31490000Y-33041000D02*
X30440000Y-33041000D01*
G75*
G02*
X30389000Y-32990000I0J51000D01*
G01*
X30389000Y-32310000D01*
G75*
G02*
X30440000Y-32259000I51000J0D01*
G01*
X31490000Y-32259000D01*
G75*
G02*
X31541000Y-32310000I0J-51000D01*
G01*
X31541000Y-32990000D01*
G75*
G02*
X31490000Y-33041000I-51000J0D01*
G01*
G37*
G36*
G01*
X33480000Y-33031000D02*
X32980000Y-33031000D01*
G75*
G02*
X32929000Y-32980000I0J51000D01*
G01*
X32929000Y-32720000D01*
G75*
G02*
X32980000Y-32669000I51000J0D01*
G01*
X33480000Y-32669000D01*
G75*
G02*
X33531000Y-32720000I0J-51000D01*
G01*
X33531000Y-32980000D01*
G75*
G02*
X33480000Y-33031000I-51000J0D01*
G01*
G37*
G36*
G01*
X33480000Y-33531000D02*
X32980000Y-33531000D01*
G75*
G02*
X32929000Y-33480000I0J51000D01*
G01*
X32929000Y-33220000D01*
G75*
G02*
X32980000Y-33169000I51000J0D01*
G01*
X33480000Y-33169000D01*
G75*
G02*
X33531000Y-33220000I0J-51000D01*
G01*
X33531000Y-33480000D01*
G75*
G02*
X33480000Y-33531000I-51000J0D01*
G01*
G37*
G36*
G01*
X30220000Y-33031000D02*
X29720000Y-33031000D01*
G75*
G02*
X29669000Y-32980000I0J51000D01*
G01*
X29669000Y-32720000D01*
G75*
G02*
X29720000Y-32669000I51000J0D01*
G01*
X30220000Y-32669000D01*
G75*
G02*
X30271000Y-32720000I0J-51000D01*
G01*
X30271000Y-32980000D01*
G75*
G02*
X30220000Y-33031000I-51000J0D01*
G01*
G37*
G36*
G01*
X33500000Y-33041000D02*
X32800000Y-33041000D01*
G75*
G02*
X32749000Y-32990000I0J51000D01*
G01*
X32749000Y-32710000D01*
G75*
G02*
X32800000Y-32659000I51000J0D01*
G01*
X33500000Y-32659000D01*
G75*
G02*
X33551000Y-32710000I0J-51000D01*
G01*
X33551000Y-32990000D01*
G75*
G02*
X33500000Y-33041000I-51000J0D01*
G01*
G37*
G36*
G01*
X33500000Y-33541000D02*
X32800000Y-33541000D01*
G75*
G02*
X32749000Y-33490000I0J51000D01*
G01*
X32749000Y-33210000D01*
G75*
G02*
X32800000Y-33159000I51000J0D01*
G01*
X33500000Y-33159000D01*
G75*
G02*
X33551000Y-33210000I0J-51000D01*
G01*
X33551000Y-33490000D01*
G75*
G02*
X33500000Y-33541000I-51000J0D01*
G01*
G37*
G36*
G01*
X30400000Y-33041000D02*
X29700000Y-33041000D01*
G75*
G02*
X29649000Y-32990000I0J51000D01*
G01*
X29649000Y-32710000D01*
G75*
G02*
X29700000Y-32659000I51000J0D01*
G01*
X30400000Y-32659000D01*
G75*
G02*
X30451000Y-32710000I0J-51000D01*
G01*
X30451000Y-32990000D01*
G75*
G02*
X30400000Y-33041000I-51000J0D01*
G01*
G37*
G36*
G01*
X30220000Y-33531000D02*
X29720000Y-33531000D01*
G75*
G02*
X29669000Y-33480000I0J51000D01*
G01*
X29669000Y-33220000D01*
G75*
G02*
X29720000Y-33169000I51000J0D01*
G01*
X30220000Y-33169000D01*
G75*
G02*
X30271000Y-33220000I0J-51000D01*
G01*
X30271000Y-33480000D01*
G75*
G02*
X30220000Y-33531000I-51000J0D01*
G01*
G37*
G36*
G01*
X30400000Y-33541000D02*
X29700000Y-33541000D01*
G75*
G02*
X29649000Y-33490000I0J51000D01*
G01*
X29649000Y-33210000D01*
G75*
G02*
X29700000Y-33159000I51000J0D01*
G01*
X30400000Y-33159000D01*
G75*
G02*
X30451000Y-33210000I0J-51000D01*
G01*
X30451000Y-33490000D01*
G75*
G02*
X30400000Y-33541000I-51000J0D01*
G01*
G37*
G36*
G01*
X31490000Y-33941000D02*
X30440000Y-33941000D01*
G75*
G02*
X30389000Y-33890000I0J51000D01*
G01*
X30389000Y-33210000D01*
G75*
G02*
X30440000Y-33159000I51000J0D01*
G01*
X31490000Y-33159000D01*
G75*
G02*
X31541000Y-33210000I0J-51000D01*
G01*
X31541000Y-33890000D01*
G75*
G02*
X31490000Y-33941000I-51000J0D01*
G01*
G37*
G36*
G01*
X30740000Y-31550000D02*
X30460000Y-31550000D01*
G75*
G02*
X30390000Y-31480000I0J70000D01*
G01*
X30390000Y-31200000D01*
G75*
G02*
X30460000Y-31130000I70000J0D01*
G01*
X30740000Y-31130000D01*
G75*
G02*
X30810000Y-31200000I0J-70000D01*
G01*
X30810000Y-31480000D01*
G75*
G02*
X30740000Y-31550000I-70000J0D01*
G01*
G37*
G36*
G01*
X31240000Y-31550000D02*
X30960000Y-31550000D01*
G75*
G02*
X30890000Y-31480000I0J70000D01*
G01*
X30890000Y-31200000D01*
G75*
G02*
X30960000Y-31130000I70000J0D01*
G01*
X31240000Y-31130000D01*
G75*
G02*
X31310000Y-31200000I0J-70000D01*
G01*
X31310000Y-31480000D01*
G75*
G02*
X31240000Y-31550000I-70000J0D01*
G01*
G37*
G36*
G01*
X31740000Y-31550000D02*
X31460000Y-31550000D01*
G75*
G02*
X31390000Y-31480000I0J70000D01*
G01*
X31390000Y-31200000D01*
G75*
G02*
X31460000Y-31130000I70000J0D01*
G01*
X31740000Y-31130000D01*
G75*
G02*
X31810000Y-31200000I0J-70000D01*
G01*
X31810000Y-31480000D01*
G75*
G02*
X31740000Y-31550000I-70000J0D01*
G01*
G37*
X32100000Y-31625000D03*
X32600000Y-31625000D03*
G36*
G01*
X32740000Y-35070000D02*
X32460000Y-35070000D01*
G75*
G02*
X32390000Y-35000000I0J70000D01*
G01*
X32390000Y-34720000D01*
G75*
G02*
X32460000Y-34650000I70000J0D01*
G01*
X32740000Y-34650000D01*
G75*
G02*
X32810000Y-34720000I0J-70000D01*
G01*
X32810000Y-35000000D01*
G75*
G02*
X32740000Y-35070000I-70000J0D01*
G01*
G37*
X32100000Y-34575000D03*
G36*
G01*
X31740000Y-35070000D02*
X31460000Y-35070000D01*
G75*
G02*
X31390000Y-35000000I0J70000D01*
G01*
X31390000Y-34720000D01*
G75*
G02*
X31460000Y-34650000I70000J0D01*
G01*
X31740000Y-34650000D01*
G75*
G02*
X31810000Y-34720000I0J-70000D01*
G01*
X31810000Y-35000000D01*
G75*
G02*
X31740000Y-35070000I-70000J0D01*
G01*
G37*
X31100000Y-34575000D03*
X30600000Y-34575000D03*
G36*
G01*
X21629801Y-57712700D02*
X21020201Y-57712700D01*
G75*
G02*
X20969201Y-57661700I0J51000D01*
G01*
X20969201Y-56544100D01*
G75*
G02*
X21020201Y-56493100I51000J0D01*
G01*
X21629801Y-56493100D01*
G75*
G02*
X21680801Y-56544100I0J-51000D01*
G01*
X21680801Y-57661700D01*
G75*
G02*
X21629801Y-57712700I-51000J0D01*
G01*
G37*
G36*
G01*
X23779799Y-57712700D02*
X23170199Y-57712700D01*
G75*
G02*
X23119199Y-57661700I0J51000D01*
G01*
X23119199Y-56544100D01*
G75*
G02*
X23170199Y-56493100I51000J0D01*
G01*
X23779799Y-56493100D01*
G75*
G02*
X23830799Y-56544100I0J-51000D01*
G01*
X23830799Y-57661700D01*
G75*
G02*
X23779799Y-57712700I-51000J0D01*
G01*
G37*
G36*
G01*
X23779799Y-62106900D02*
X23170199Y-62106900D01*
G75*
G02*
X23119199Y-62055900I0J51000D01*
G01*
X23119199Y-60938300D01*
G75*
G02*
X23170199Y-60887300I51000J0D01*
G01*
X23779799Y-60887300D01*
G75*
G02*
X23830799Y-60938300I0J-51000D01*
G01*
X23830799Y-62055900D01*
G75*
G02*
X23779799Y-62106900I-51000J0D01*
G01*
G37*
G36*
G01*
X21629801Y-62106900D02*
X21020201Y-62106900D01*
G75*
G02*
X20969201Y-62055900I0J51000D01*
G01*
X20969201Y-60938300D01*
G75*
G02*
X21020201Y-60887300I51000J0D01*
G01*
X21629801Y-60887300D01*
G75*
G02*
X21680801Y-60938300I0J-51000D01*
G01*
X21680801Y-62055900D01*
G75*
G02*
X21629801Y-62106900I-51000J0D01*
G01*
G37*
G36*
G01*
X25829801Y-57712700D02*
X25220201Y-57712700D01*
G75*
G02*
X25169201Y-57661700I0J51000D01*
G01*
X25169201Y-56544100D01*
G75*
G02*
X25220201Y-56493100I51000J0D01*
G01*
X25829801Y-56493100D01*
G75*
G02*
X25880801Y-56544100I0J-51000D01*
G01*
X25880801Y-57661700D01*
G75*
G02*
X25829801Y-57712700I-51000J0D01*
G01*
G37*
G36*
G01*
X27979799Y-57712700D02*
X27370199Y-57712700D01*
G75*
G02*
X27319199Y-57661700I0J51000D01*
G01*
X27319199Y-56544100D01*
G75*
G02*
X27370199Y-56493100I51000J0D01*
G01*
X27979799Y-56493100D01*
G75*
G02*
X28030799Y-56544100I0J-51000D01*
G01*
X28030799Y-57661700D01*
G75*
G02*
X27979799Y-57712700I-51000J0D01*
G01*
G37*
G36*
G01*
X27979799Y-62106900D02*
X27370199Y-62106900D01*
G75*
G02*
X27319199Y-62055900I0J51000D01*
G01*
X27319199Y-60938300D01*
G75*
G02*
X27370199Y-60887300I51000J0D01*
G01*
X27979799Y-60887300D01*
G75*
G02*
X28030799Y-60938300I0J-51000D01*
G01*
X28030799Y-62055900D01*
G75*
G02*
X27979799Y-62106900I-51000J0D01*
G01*
G37*
G36*
G01*
X25829801Y-62106900D02*
X25220201Y-62106900D01*
G75*
G02*
X25169201Y-62055900I0J51000D01*
G01*
X25169201Y-60938300D01*
G75*
G02*
X25220201Y-60887300I51000J0D01*
G01*
X25829801Y-60887300D01*
G75*
G02*
X25880801Y-60938300I0J-51000D01*
G01*
X25880801Y-62055900D01*
G75*
G02*
X25829801Y-62106900I-51000J0D01*
G01*
G37*
G36*
G01*
X24770199Y-97487300D02*
X25379799Y-97487300D01*
G75*
G02*
X25430799Y-97538300I0J-51000D01*
G01*
X25430799Y-98655900D01*
G75*
G02*
X25379799Y-98706900I-51000J0D01*
G01*
X24770199Y-98706900D01*
G75*
G02*
X24719199Y-98655900I0J51000D01*
G01*
X24719199Y-97538300D01*
G75*
G02*
X24770199Y-97487300I51000J0D01*
G01*
G37*
G36*
G01*
X22620201Y-97487300D02*
X23229801Y-97487300D01*
G75*
G02*
X23280801Y-97538300I0J-51000D01*
G01*
X23280801Y-98655900D01*
G75*
G02*
X23229801Y-98706900I-51000J0D01*
G01*
X22620201Y-98706900D01*
G75*
G02*
X22569201Y-98655900I0J51000D01*
G01*
X22569201Y-97538300D01*
G75*
G02*
X22620201Y-97487300I51000J0D01*
G01*
G37*
G36*
G01*
X22620201Y-93093100D02*
X23229801Y-93093100D01*
G75*
G02*
X23280801Y-93144100I0J-51000D01*
G01*
X23280801Y-94261700D01*
G75*
G02*
X23229801Y-94312700I-51000J0D01*
G01*
X22620201Y-94312700D01*
G75*
G02*
X22569201Y-94261700I0J51000D01*
G01*
X22569201Y-93144100D01*
G75*
G02*
X22620201Y-93093100I51000J0D01*
G01*
G37*
G36*
G01*
X24770199Y-93093100D02*
X25379799Y-93093100D01*
G75*
G02*
X25430799Y-93144100I0J-51000D01*
G01*
X25430799Y-94261700D01*
G75*
G02*
X25379799Y-94312700I-51000J0D01*
G01*
X24770199Y-94312700D01*
G75*
G02*
X24719199Y-94261700I0J51000D01*
G01*
X24719199Y-93144100D01*
G75*
G02*
X24770199Y-93093100I51000J0D01*
G01*
G37*
G36*
G01*
X74563000Y-25026000D02*
X74037000Y-25026000D01*
G75*
G02*
X73774000Y-24763000I0J263000D01*
G01*
X73774000Y-24212000D01*
G75*
G02*
X74037000Y-23949000I263000J0D01*
G01*
X74563000Y-23949000D01*
G75*
G02*
X74826000Y-24212000I0J-263000D01*
G01*
X74826000Y-24763000D01*
G75*
G02*
X74563000Y-25026000I-263000J0D01*
G01*
G37*
G36*
G01*
X74563000Y-26851000D02*
X74037000Y-26851000D01*
G75*
G02*
X73774000Y-26588000I0J263000D01*
G01*
X73774000Y-26037000D01*
G75*
G02*
X74037000Y-25774000I263000J0D01*
G01*
X74563000Y-25774000D01*
G75*
G02*
X74826000Y-26037000I0J-263000D01*
G01*
X74826000Y-26588000D01*
G75*
G02*
X74563000Y-26851000I-263000J0D01*
G01*
G37*
G36*
G01*
X72863000Y-25026000D02*
X72337000Y-25026000D01*
G75*
G02*
X72074000Y-24763000I0J263000D01*
G01*
X72074000Y-24212000D01*
G75*
G02*
X72337000Y-23949000I263000J0D01*
G01*
X72863000Y-23949000D01*
G75*
G02*
X73126000Y-24212000I0J-263000D01*
G01*
X73126000Y-24763000D01*
G75*
G02*
X72863000Y-25026000I-263000J0D01*
G01*
G37*
G36*
G01*
X72863000Y-26851000D02*
X72337000Y-26851000D01*
G75*
G02*
X72074000Y-26588000I0J263000D01*
G01*
X72074000Y-26037000D01*
G75*
G02*
X72337000Y-25774000I263000J0D01*
G01*
X72863000Y-25774000D01*
G75*
G02*
X73126000Y-26037000I0J-263000D01*
G01*
X73126000Y-26588000D01*
G75*
G02*
X72863000Y-26851000I-263000J0D01*
G01*
G37*
G36*
G01*
X29163000Y-47826000D02*
X28637000Y-47826000D01*
G75*
G02*
X28374000Y-47563000I0J263000D01*
G01*
X28374000Y-47012000D01*
G75*
G02*
X28637000Y-46749000I263000J0D01*
G01*
X29163000Y-46749000D01*
G75*
G02*
X29426000Y-47012000I0J-263000D01*
G01*
X29426000Y-47563000D01*
G75*
G02*
X29163000Y-47826000I-263000J0D01*
G01*
G37*
G36*
G01*
X29163000Y-49651000D02*
X28637000Y-49651000D01*
G75*
G02*
X28374000Y-49388000I0J263000D01*
G01*
X28374000Y-48837000D01*
G75*
G02*
X28637000Y-48574000I263000J0D01*
G01*
X29163000Y-48574000D01*
G75*
G02*
X29426000Y-48837000I0J-263000D01*
G01*
X29426000Y-49388000D01*
G75*
G02*
X29163000Y-49651000I-263000J0D01*
G01*
G37*
G36*
G01*
X78563000Y-92576000D02*
X78037000Y-92576000D01*
G75*
G02*
X77774000Y-92313000I0J263000D01*
G01*
X77774000Y-91762000D01*
G75*
G02*
X78037000Y-91499000I263000J0D01*
G01*
X78563000Y-91499000D01*
G75*
G02*
X78826000Y-91762000I0J-263000D01*
G01*
X78826000Y-92313000D01*
G75*
G02*
X78563000Y-92576000I-263000J0D01*
G01*
G37*
G36*
G01*
X78563000Y-94401000D02*
X78037000Y-94401000D01*
G75*
G02*
X77774000Y-94138000I0J263000D01*
G01*
X77774000Y-93587000D01*
G75*
G02*
X78037000Y-93324000I263000J0D01*
G01*
X78563000Y-93324000D01*
G75*
G02*
X78826000Y-93587000I0J-263000D01*
G01*
X78826000Y-94138000D01*
G75*
G02*
X78563000Y-94401000I-263000J0D01*
G01*
G37*
G36*
G01*
X62613000Y-92776000D02*
X62087000Y-92776000D01*
G75*
G02*
X61824000Y-92513000I0J263000D01*
G01*
X61824000Y-91962000D01*
G75*
G02*
X62087000Y-91699000I263000J0D01*
G01*
X62613000Y-91699000D01*
G75*
G02*
X62876000Y-91962000I0J-263000D01*
G01*
X62876000Y-92513000D01*
G75*
G02*
X62613000Y-92776000I-263000J0D01*
G01*
G37*
G36*
G01*
X62613000Y-94601000D02*
X62087000Y-94601000D01*
G75*
G02*
X61824000Y-94338000I0J263000D01*
G01*
X61824000Y-93787000D01*
G75*
G02*
X62087000Y-93524000I263000J0D01*
G01*
X62613000Y-93524000D01*
G75*
G02*
X62876000Y-93787000I0J-263000D01*
G01*
X62876000Y-94338000D01*
G75*
G02*
X62613000Y-94601000I-263000J0D01*
G01*
G37*
G36*
G01*
X45663000Y-92776000D02*
X45137000Y-92776000D01*
G75*
G02*
X44874000Y-92513000I0J263000D01*
G01*
X44874000Y-91962000D01*
G75*
G02*
X45137000Y-91699000I263000J0D01*
G01*
X45663000Y-91699000D01*
G75*
G02*
X45926000Y-91962000I0J-263000D01*
G01*
X45926000Y-92513000D01*
G75*
G02*
X45663000Y-92776000I-263000J0D01*
G01*
G37*
G36*
G01*
X45663000Y-94601000D02*
X45137000Y-94601000D01*
G75*
G02*
X44874000Y-94338000I0J263000D01*
G01*
X44874000Y-93787000D01*
G75*
G02*
X45137000Y-93524000I263000J0D01*
G01*
X45663000Y-93524000D01*
G75*
G02*
X45926000Y-93787000I0J-263000D01*
G01*
X45926000Y-94338000D01*
G75*
G02*
X45663000Y-94601000I-263000J0D01*
G01*
G37*
G36*
G01*
X78563000Y-81476000D02*
X78037000Y-81476000D01*
G75*
G02*
X77774000Y-81213000I0J263000D01*
G01*
X77774000Y-80662000D01*
G75*
G02*
X78037000Y-80399000I263000J0D01*
G01*
X78563000Y-80399000D01*
G75*
G02*
X78826000Y-80662000I0J-263000D01*
G01*
X78826000Y-81213000D01*
G75*
G02*
X78563000Y-81476000I-263000J0D01*
G01*
G37*
G36*
G01*
X78563000Y-83301000D02*
X78037000Y-83301000D01*
G75*
G02*
X77774000Y-83038000I0J263000D01*
G01*
X77774000Y-82487000D01*
G75*
G02*
X78037000Y-82224000I263000J0D01*
G01*
X78563000Y-82224000D01*
G75*
G02*
X78826000Y-82487000I0J-263000D01*
G01*
X78826000Y-83038000D01*
G75*
G02*
X78563000Y-83301000I-263000J0D01*
G01*
G37*
G36*
G01*
X62613000Y-81476000D02*
X62087000Y-81476000D01*
G75*
G02*
X61824000Y-81213000I0J263000D01*
G01*
X61824000Y-80662000D01*
G75*
G02*
X62087000Y-80399000I263000J0D01*
G01*
X62613000Y-80399000D01*
G75*
G02*
X62876000Y-80662000I0J-263000D01*
G01*
X62876000Y-81213000D01*
G75*
G02*
X62613000Y-81476000I-263000J0D01*
G01*
G37*
G36*
G01*
X62613000Y-83301000D02*
X62087000Y-83301000D01*
G75*
G02*
X61824000Y-83038000I0J263000D01*
G01*
X61824000Y-82487000D01*
G75*
G02*
X62087000Y-82224000I263000J0D01*
G01*
X62613000Y-82224000D01*
G75*
G02*
X62876000Y-82487000I0J-263000D01*
G01*
X62876000Y-83038000D01*
G75*
G02*
X62613000Y-83301000I-263000J0D01*
G01*
G37*
G36*
G01*
X45663000Y-81426000D02*
X45137000Y-81426000D01*
G75*
G02*
X44874000Y-81163000I0J263000D01*
G01*
X44874000Y-80612000D01*
G75*
G02*
X45137000Y-80349000I263000J0D01*
G01*
X45663000Y-80349000D01*
G75*
G02*
X45926000Y-80612000I0J-263000D01*
G01*
X45926000Y-81163000D01*
G75*
G02*
X45663000Y-81426000I-263000J0D01*
G01*
G37*
G36*
G01*
X45663000Y-83251000D02*
X45137000Y-83251000D01*
G75*
G02*
X44874000Y-82988000I0J263000D01*
G01*
X44874000Y-82437000D01*
G75*
G02*
X45137000Y-82174000I263000J0D01*
G01*
X45663000Y-82174000D01*
G75*
G02*
X45926000Y-82437000I0J-263000D01*
G01*
X45926000Y-82988000D01*
G75*
G02*
X45663000Y-83251000I-263000J0D01*
G01*
G37*
G36*
G01*
X78563000Y-70176000D02*
X78037000Y-70176000D01*
G75*
G02*
X77774000Y-69913000I0J263000D01*
G01*
X77774000Y-69362000D01*
G75*
G02*
X78037000Y-69099000I263000J0D01*
G01*
X78563000Y-69099000D01*
G75*
G02*
X78826000Y-69362000I0J-263000D01*
G01*
X78826000Y-69913000D01*
G75*
G02*
X78563000Y-70176000I-263000J0D01*
G01*
G37*
G36*
G01*
X78563000Y-72001000D02*
X78037000Y-72001000D01*
G75*
G02*
X77774000Y-71738000I0J263000D01*
G01*
X77774000Y-71187000D01*
G75*
G02*
X78037000Y-70924000I263000J0D01*
G01*
X78563000Y-70924000D01*
G75*
G02*
X78826000Y-71187000I0J-263000D01*
G01*
X78826000Y-71738000D01*
G75*
G02*
X78563000Y-72001000I-263000J0D01*
G01*
G37*
G36*
G01*
X62613000Y-70176000D02*
X62087000Y-70176000D01*
G75*
G02*
X61824000Y-69913000I0J263000D01*
G01*
X61824000Y-69362000D01*
G75*
G02*
X62087000Y-69099000I263000J0D01*
G01*
X62613000Y-69099000D01*
G75*
G02*
X62876000Y-69362000I0J-263000D01*
G01*
X62876000Y-69913000D01*
G75*
G02*
X62613000Y-70176000I-263000J0D01*
G01*
G37*
G36*
G01*
X62613000Y-72001000D02*
X62087000Y-72001000D01*
G75*
G02*
X61824000Y-71738000I0J263000D01*
G01*
X61824000Y-71187000D01*
G75*
G02*
X62087000Y-70924000I263000J0D01*
G01*
X62613000Y-70924000D01*
G75*
G02*
X62876000Y-71187000I0J-263000D01*
G01*
X62876000Y-71738000D01*
G75*
G02*
X62613000Y-72001000I-263000J0D01*
G01*
G37*
G36*
G01*
X45663000Y-70126000D02*
X45137000Y-70126000D01*
G75*
G02*
X44874000Y-69863000I0J263000D01*
G01*
X44874000Y-69312000D01*
G75*
G02*
X45137000Y-69049000I263000J0D01*
G01*
X45663000Y-69049000D01*
G75*
G02*
X45926000Y-69312000I0J-263000D01*
G01*
X45926000Y-69863000D01*
G75*
G02*
X45663000Y-70126000I-263000J0D01*
G01*
G37*
G36*
G01*
X45663000Y-71951000D02*
X45137000Y-71951000D01*
G75*
G02*
X44874000Y-71688000I0J263000D01*
G01*
X44874000Y-71137000D01*
G75*
G02*
X45137000Y-70874000I263000J0D01*
G01*
X45663000Y-70874000D01*
G75*
G02*
X45926000Y-71137000I0J-263000D01*
G01*
X45926000Y-71688000D01*
G75*
G02*
X45663000Y-71951000I-263000J0D01*
G01*
G37*
G36*
G01*
X78563000Y-58876000D02*
X78037000Y-58876000D01*
G75*
G02*
X77774000Y-58613000I0J263000D01*
G01*
X77774000Y-58062000D01*
G75*
G02*
X78037000Y-57799000I263000J0D01*
G01*
X78563000Y-57799000D01*
G75*
G02*
X78826000Y-58062000I0J-263000D01*
G01*
X78826000Y-58613000D01*
G75*
G02*
X78563000Y-58876000I-263000J0D01*
G01*
G37*
G36*
G01*
X78563000Y-60701000D02*
X78037000Y-60701000D01*
G75*
G02*
X77774000Y-60438000I0J263000D01*
G01*
X77774000Y-59887000D01*
G75*
G02*
X78037000Y-59624000I263000J0D01*
G01*
X78563000Y-59624000D01*
G75*
G02*
X78826000Y-59887000I0J-263000D01*
G01*
X78826000Y-60438000D01*
G75*
G02*
X78563000Y-60701000I-263000J0D01*
G01*
G37*
G36*
G01*
X62613000Y-58876000D02*
X62087000Y-58876000D01*
G75*
G02*
X61824000Y-58613000I0J263000D01*
G01*
X61824000Y-58062000D01*
G75*
G02*
X62087000Y-57799000I263000J0D01*
G01*
X62613000Y-57799000D01*
G75*
G02*
X62876000Y-58062000I0J-263000D01*
G01*
X62876000Y-58613000D01*
G75*
G02*
X62613000Y-58876000I-263000J0D01*
G01*
G37*
G36*
G01*
X62613000Y-60701000D02*
X62087000Y-60701000D01*
G75*
G02*
X61824000Y-60438000I0J263000D01*
G01*
X61824000Y-59887000D01*
G75*
G02*
X62087000Y-59624000I263000J0D01*
G01*
X62613000Y-59624000D01*
G75*
G02*
X62876000Y-59887000I0J-263000D01*
G01*
X62876000Y-60438000D01*
G75*
G02*
X62613000Y-60701000I-263000J0D01*
G01*
G37*
G36*
G01*
X45913000Y-58776000D02*
X45387000Y-58776000D01*
G75*
G02*
X45124000Y-58513000I0J263000D01*
G01*
X45124000Y-57962000D01*
G75*
G02*
X45387000Y-57699000I263000J0D01*
G01*
X45913000Y-57699000D01*
G75*
G02*
X46176000Y-57962000I0J-263000D01*
G01*
X46176000Y-58513000D01*
G75*
G02*
X45913000Y-58776000I-263000J0D01*
G01*
G37*
G36*
G01*
X45913000Y-60601000D02*
X45387000Y-60601000D01*
G75*
G02*
X45124000Y-60338000I0J263000D01*
G01*
X45124000Y-59787000D01*
G75*
G02*
X45387000Y-59524000I263000J0D01*
G01*
X45913000Y-59524000D01*
G75*
G02*
X46176000Y-59787000I0J-263000D01*
G01*
X46176000Y-60338000D01*
G75*
G02*
X45913000Y-60601000I-263000J0D01*
G01*
G37*
G36*
G01*
X29163000Y-52726000D02*
X28637000Y-52726000D01*
G75*
G02*
X28374000Y-52463000I0J263000D01*
G01*
X28374000Y-51912000D01*
G75*
G02*
X28637000Y-51649000I263000J0D01*
G01*
X29163000Y-51649000D01*
G75*
G02*
X29426000Y-51912000I0J-263000D01*
G01*
X29426000Y-52463000D01*
G75*
G02*
X29163000Y-52726000I-263000J0D01*
G01*
G37*
G36*
G01*
X29163000Y-54551000D02*
X28637000Y-54551000D01*
G75*
G02*
X28374000Y-54288000I0J263000D01*
G01*
X28374000Y-53737000D01*
G75*
G02*
X28637000Y-53474000I263000J0D01*
G01*
X29163000Y-53474000D01*
G75*
G02*
X29426000Y-53737000I0J-263000D01*
G01*
X29426000Y-54288000D01*
G75*
G02*
X29163000Y-54551000I-263000J0D01*
G01*
G37*
G36*
G01*
X25626000Y-99537000D02*
X25626000Y-100063000D01*
G75*
G02*
X25363000Y-100326000I-263000J0D01*
G01*
X24812000Y-100326000D01*
G75*
G02*
X24549000Y-100063000I0J263000D01*
G01*
X24549000Y-99537000D01*
G75*
G02*
X24812000Y-99274000I263000J0D01*
G01*
X25363000Y-99274000D01*
G75*
G02*
X25626000Y-99537000I0J-263000D01*
G01*
G37*
G36*
G01*
X27451000Y-99537000D02*
X27451000Y-100063000D01*
G75*
G02*
X27188000Y-100326000I-263000J0D01*
G01*
X26637000Y-100326000D01*
G75*
G02*
X26374000Y-100063000I0J263000D01*
G01*
X26374000Y-99537000D01*
G75*
G02*
X26637000Y-99274000I263000J0D01*
G01*
X27188000Y-99274000D01*
G75*
G02*
X27451000Y-99537000I0J-263000D01*
G01*
G37*
G36*
G01*
X71163000Y-25026000D02*
X70637000Y-25026000D01*
G75*
G02*
X70374000Y-24763000I0J263000D01*
G01*
X70374000Y-24212000D01*
G75*
G02*
X70637000Y-23949000I263000J0D01*
G01*
X71163000Y-23949000D01*
G75*
G02*
X71426000Y-24212000I0J-263000D01*
G01*
X71426000Y-24763000D01*
G75*
G02*
X71163000Y-25026000I-263000J0D01*
G01*
G37*
G36*
G01*
X71163000Y-26851000D02*
X70637000Y-26851000D01*
G75*
G02*
X70374000Y-26588000I0J263000D01*
G01*
X70374000Y-26037000D01*
G75*
G02*
X70637000Y-25774000I263000J0D01*
G01*
X71163000Y-25774000D01*
G75*
G02*
X71426000Y-26037000I0J-263000D01*
G01*
X71426000Y-26588000D01*
G75*
G02*
X71163000Y-26851000I-263000J0D01*
G01*
G37*
G36*
G01*
X69463000Y-25026000D02*
X68937000Y-25026000D01*
G75*
G02*
X68674000Y-24763000I0J263000D01*
G01*
X68674000Y-24212000D01*
G75*
G02*
X68937000Y-23949000I263000J0D01*
G01*
X69463000Y-23949000D01*
G75*
G02*
X69726000Y-24212000I0J-263000D01*
G01*
X69726000Y-24763000D01*
G75*
G02*
X69463000Y-25026000I-263000J0D01*
G01*
G37*
G36*
G01*
X69463000Y-26851000D02*
X68937000Y-26851000D01*
G75*
G02*
X68674000Y-26588000I0J263000D01*
G01*
X68674000Y-26037000D01*
G75*
G02*
X68937000Y-25774000I263000J0D01*
G01*
X69463000Y-25774000D01*
G75*
G02*
X69726000Y-26037000I0J-263000D01*
G01*
X69726000Y-26588000D01*
G75*
G02*
X69463000Y-26851000I-263000J0D01*
G01*
G37*
G36*
G01*
X67763000Y-25026000D02*
X67237000Y-25026000D01*
G75*
G02*
X66974000Y-24763000I0J263000D01*
G01*
X66974000Y-24212000D01*
G75*
G02*
X67237000Y-23949000I263000J0D01*
G01*
X67763000Y-23949000D01*
G75*
G02*
X68026000Y-24212000I0J-263000D01*
G01*
X68026000Y-24763000D01*
G75*
G02*
X67763000Y-25026000I-263000J0D01*
G01*
G37*
G36*
G01*
X67763000Y-26851000D02*
X67237000Y-26851000D01*
G75*
G02*
X66974000Y-26588000I0J263000D01*
G01*
X66974000Y-26037000D01*
G75*
G02*
X67237000Y-25774000I263000J0D01*
G01*
X67763000Y-25774000D01*
G75*
G02*
X68026000Y-26037000I0J-263000D01*
G01*
X68026000Y-26588000D01*
G75*
G02*
X67763000Y-26851000I-263000J0D01*
G01*
G37*
G36*
G01*
X64363000Y-25026000D02*
X63837000Y-25026000D01*
G75*
G02*
X63574000Y-24763000I0J263000D01*
G01*
X63574000Y-24212000D01*
G75*
G02*
X63837000Y-23949000I263000J0D01*
G01*
X64363000Y-23949000D01*
G75*
G02*
X64626000Y-24212000I0J-263000D01*
G01*
X64626000Y-24763000D01*
G75*
G02*
X64363000Y-25026000I-263000J0D01*
G01*
G37*
G36*
G01*
X64363000Y-26851000D02*
X63837000Y-26851000D01*
G75*
G02*
X63574000Y-26588000I0J263000D01*
G01*
X63574000Y-26037000D01*
G75*
G02*
X63837000Y-25774000I263000J0D01*
G01*
X64363000Y-25774000D01*
G75*
G02*
X64626000Y-26037000I0J-263000D01*
G01*
X64626000Y-26588000D01*
G75*
G02*
X64363000Y-26851000I-263000J0D01*
G01*
G37*
G36*
G01*
X32726000Y-39337000D02*
X32726000Y-39863000D01*
G75*
G02*
X32463000Y-40126000I-263000J0D01*
G01*
X31912000Y-40126000D01*
G75*
G02*
X31649000Y-39863000I0J263000D01*
G01*
X31649000Y-39337000D01*
G75*
G02*
X31912000Y-39074000I263000J0D01*
G01*
X32463000Y-39074000D01*
G75*
G02*
X32726000Y-39337000I0J-263000D01*
G01*
G37*
G36*
G01*
X34551000Y-39337000D02*
X34551000Y-39863000D01*
G75*
G02*
X34288000Y-40126000I-263000J0D01*
G01*
X33737000Y-40126000D01*
G75*
G02*
X33474000Y-39863000I0J263000D01*
G01*
X33474000Y-39337000D01*
G75*
G02*
X33737000Y-39074000I263000J0D01*
G01*
X34288000Y-39074000D01*
G75*
G02*
X34551000Y-39337000I0J-263000D01*
G01*
G37*
G36*
G01*
X33474000Y-38363000D02*
X33474000Y-37837000D01*
G75*
G02*
X33737000Y-37574000I263000J0D01*
G01*
X34288000Y-37574000D01*
G75*
G02*
X34551000Y-37837000I0J-263000D01*
G01*
X34551000Y-38363000D01*
G75*
G02*
X34288000Y-38626000I-263000J0D01*
G01*
X33737000Y-38626000D01*
G75*
G02*
X33474000Y-38363000I0J263000D01*
G01*
G37*
G36*
G01*
X31649000Y-38363000D02*
X31649000Y-37837000D01*
G75*
G02*
X31912000Y-37574000I263000J0D01*
G01*
X32463000Y-37574000D01*
G75*
G02*
X32726000Y-37837000I0J-263000D01*
G01*
X32726000Y-38363000D01*
G75*
G02*
X32463000Y-38626000I-263000J0D01*
G01*
X31912000Y-38626000D01*
G75*
G02*
X31649000Y-38363000I0J263000D01*
G01*
G37*
G36*
G01*
X26726000Y-44437000D02*
X26726000Y-44963000D01*
G75*
G02*
X26463000Y-45226000I-263000J0D01*
G01*
X25912000Y-45226000D01*
G75*
G02*
X25649000Y-44963000I0J263000D01*
G01*
X25649000Y-44437000D01*
G75*
G02*
X25912000Y-44174000I263000J0D01*
G01*
X26463000Y-44174000D01*
G75*
G02*
X26726000Y-44437000I0J-263000D01*
G01*
G37*
G36*
G01*
X28551000Y-44437000D02*
X28551000Y-44963000D01*
G75*
G02*
X28288000Y-45226000I-263000J0D01*
G01*
X27737000Y-45226000D01*
G75*
G02*
X27474000Y-44963000I0J263000D01*
G01*
X27474000Y-44437000D01*
G75*
G02*
X27737000Y-44174000I263000J0D01*
G01*
X28288000Y-44174000D01*
G75*
G02*
X28551000Y-44437000I0J-263000D01*
G01*
G37*
G36*
G01*
X36776000Y-52587000D02*
X36776000Y-53113000D01*
G75*
G02*
X36513000Y-53376000I-263000J0D01*
G01*
X35962000Y-53376000D01*
G75*
G02*
X35699000Y-53113000I0J263000D01*
G01*
X35699000Y-52587000D01*
G75*
G02*
X35962000Y-52324000I263000J0D01*
G01*
X36513000Y-52324000D01*
G75*
G02*
X36776000Y-52587000I0J-263000D01*
G01*
G37*
G36*
G01*
X38601000Y-52587000D02*
X38601000Y-53113000D01*
G75*
G02*
X38338000Y-53376000I-263000J0D01*
G01*
X37787000Y-53376000D01*
G75*
G02*
X37524000Y-53113000I0J263000D01*
G01*
X37524000Y-52587000D01*
G75*
G02*
X37787000Y-52324000I263000J0D01*
G01*
X38338000Y-52324000D01*
G75*
G02*
X38601000Y-52587000I0J-263000D01*
G01*
G37*
G36*
G01*
X23163000Y-90726000D02*
X22637000Y-90726000D01*
G75*
G02*
X22374000Y-90463000I0J263000D01*
G01*
X22374000Y-89912000D01*
G75*
G02*
X22637000Y-89649000I263000J0D01*
G01*
X23163000Y-89649000D01*
G75*
G02*
X23426000Y-89912000I0J-263000D01*
G01*
X23426000Y-90463000D01*
G75*
G02*
X23163000Y-90726000I-263000J0D01*
G01*
G37*
G36*
G01*
X23163000Y-92551000D02*
X22637000Y-92551000D01*
G75*
G02*
X22374000Y-92288000I0J263000D01*
G01*
X22374000Y-91737000D01*
G75*
G02*
X22637000Y-91474000I263000J0D01*
G01*
X23163000Y-91474000D01*
G75*
G02*
X23426000Y-91737000I0J-263000D01*
G01*
X23426000Y-92288000D01*
G75*
G02*
X23163000Y-92551000I-263000J0D01*
G01*
G37*
G36*
G01*
X66063000Y-25026000D02*
X65537000Y-25026000D01*
G75*
G02*
X65274000Y-24763000I0J263000D01*
G01*
X65274000Y-24212000D01*
G75*
G02*
X65537000Y-23949000I263000J0D01*
G01*
X66063000Y-23949000D01*
G75*
G02*
X66326000Y-24212000I0J-263000D01*
G01*
X66326000Y-24763000D01*
G75*
G02*
X66063000Y-25026000I-263000J0D01*
G01*
G37*
G36*
G01*
X66063000Y-26851000D02*
X65537000Y-26851000D01*
G75*
G02*
X65274000Y-26588000I0J263000D01*
G01*
X65274000Y-26037000D01*
G75*
G02*
X65537000Y-25774000I263000J0D01*
G01*
X66063000Y-25774000D01*
G75*
G02*
X66326000Y-26037000I0J-263000D01*
G01*
X66326000Y-26588000D01*
G75*
G02*
X66063000Y-26851000I-263000J0D01*
G01*
G37*
G36*
G01*
X78274000Y-51363000D02*
X78274000Y-50837000D01*
G75*
G02*
X78537000Y-50574000I263000J0D01*
G01*
X79088000Y-50574000D01*
G75*
G02*
X79351000Y-50837000I0J-263000D01*
G01*
X79351000Y-51363000D01*
G75*
G02*
X79088000Y-51626000I-263000J0D01*
G01*
X78537000Y-51626000D01*
G75*
G02*
X78274000Y-51363000I0J263000D01*
G01*
G37*
G36*
G01*
X76449000Y-51363000D02*
X76449000Y-50837000D01*
G75*
G02*
X76712000Y-50574000I263000J0D01*
G01*
X77263000Y-50574000D01*
G75*
G02*
X77526000Y-50837000I0J-263000D01*
G01*
X77526000Y-51363000D01*
G75*
G02*
X77263000Y-51626000I-263000J0D01*
G01*
X76712000Y-51626000D01*
G75*
G02*
X76449000Y-51363000I0J263000D01*
G01*
G37*
G36*
G01*
X78274000Y-53263000D02*
X78274000Y-52737000D01*
G75*
G02*
X78537000Y-52474000I263000J0D01*
G01*
X79088000Y-52474000D01*
G75*
G02*
X79351000Y-52737000I0J-263000D01*
G01*
X79351000Y-53263000D01*
G75*
G02*
X79088000Y-53526000I-263000J0D01*
G01*
X78537000Y-53526000D01*
G75*
G02*
X78274000Y-53263000I0J263000D01*
G01*
G37*
G36*
G01*
X76449000Y-53263000D02*
X76449000Y-52737000D01*
G75*
G02*
X76712000Y-52474000I263000J0D01*
G01*
X77263000Y-52474000D01*
G75*
G02*
X77526000Y-52737000I0J-263000D01*
G01*
X77526000Y-53263000D01*
G75*
G02*
X77263000Y-53526000I-263000J0D01*
G01*
X76712000Y-53526000D01*
G75*
G02*
X76449000Y-53263000I0J263000D01*
G01*
G37*
G36*
G01*
X57926000Y-50837000D02*
X57926000Y-51363000D01*
G75*
G02*
X57663000Y-51626000I-263000J0D01*
G01*
X57112000Y-51626000D01*
G75*
G02*
X56849000Y-51363000I0J263000D01*
G01*
X56849000Y-50837000D01*
G75*
G02*
X57112000Y-50574000I263000J0D01*
G01*
X57663000Y-50574000D01*
G75*
G02*
X57926000Y-50837000I0J-263000D01*
G01*
G37*
G36*
G01*
X59751000Y-50837000D02*
X59751000Y-51363000D01*
G75*
G02*
X59488000Y-51626000I-263000J0D01*
G01*
X58937000Y-51626000D01*
G75*
G02*
X58674000Y-51363000I0J263000D01*
G01*
X58674000Y-50837000D01*
G75*
G02*
X58937000Y-50574000I263000J0D01*
G01*
X59488000Y-50574000D01*
G75*
G02*
X59751000Y-50837000I0J-263000D01*
G01*
G37*
G36*
G01*
X57926000Y-47037000D02*
X57926000Y-47563000D01*
G75*
G02*
X57663000Y-47826000I-263000J0D01*
G01*
X57112000Y-47826000D01*
G75*
G02*
X56849000Y-47563000I0J263000D01*
G01*
X56849000Y-47037000D01*
G75*
G02*
X57112000Y-46774000I263000J0D01*
G01*
X57663000Y-46774000D01*
G75*
G02*
X57926000Y-47037000I0J-263000D01*
G01*
G37*
G36*
G01*
X59751000Y-47037000D02*
X59751000Y-47563000D01*
G75*
G02*
X59488000Y-47826000I-263000J0D01*
G01*
X58937000Y-47826000D01*
G75*
G02*
X58674000Y-47563000I0J263000D01*
G01*
X58674000Y-47037000D01*
G75*
G02*
X58937000Y-46774000I263000J0D01*
G01*
X59488000Y-46774000D01*
G75*
G02*
X59751000Y-47037000I0J-263000D01*
G01*
G37*
G36*
G01*
X57926000Y-45137000D02*
X57926000Y-45663000D01*
G75*
G02*
X57663000Y-45926000I-263000J0D01*
G01*
X57112000Y-45926000D01*
G75*
G02*
X56849000Y-45663000I0J263000D01*
G01*
X56849000Y-45137000D01*
G75*
G02*
X57112000Y-44874000I263000J0D01*
G01*
X57663000Y-44874000D01*
G75*
G02*
X57926000Y-45137000I0J-263000D01*
G01*
G37*
G36*
G01*
X59751000Y-45137000D02*
X59751000Y-45663000D01*
G75*
G02*
X59488000Y-45926000I-263000J0D01*
G01*
X58937000Y-45926000D01*
G75*
G02*
X58674000Y-45663000I0J263000D01*
G01*
X58674000Y-45137000D01*
G75*
G02*
X58937000Y-44874000I263000J0D01*
G01*
X59488000Y-44874000D01*
G75*
G02*
X59751000Y-45137000I0J-263000D01*
G01*
G37*
G36*
G01*
X78274000Y-47663000D02*
X78274000Y-47137000D01*
G75*
G02*
X78537000Y-46874000I263000J0D01*
G01*
X79088000Y-46874000D01*
G75*
G02*
X79351000Y-47137000I0J-263000D01*
G01*
X79351000Y-47663000D01*
G75*
G02*
X79088000Y-47926000I-263000J0D01*
G01*
X78537000Y-47926000D01*
G75*
G02*
X78274000Y-47663000I0J263000D01*
G01*
G37*
G36*
G01*
X76449000Y-47663000D02*
X76449000Y-47137000D01*
G75*
G02*
X76712000Y-46874000I263000J0D01*
G01*
X77263000Y-46874000D01*
G75*
G02*
X77526000Y-47137000I0J-263000D01*
G01*
X77526000Y-47663000D01*
G75*
G02*
X77263000Y-47926000I-263000J0D01*
G01*
X76712000Y-47926000D01*
G75*
G02*
X76449000Y-47663000I0J263000D01*
G01*
G37*
G36*
G01*
X78274000Y-45763000D02*
X78274000Y-45237000D01*
G75*
G02*
X78537000Y-44974000I263000J0D01*
G01*
X79088000Y-44974000D01*
G75*
G02*
X79351000Y-45237000I0J-263000D01*
G01*
X79351000Y-45763000D01*
G75*
G02*
X79088000Y-46026000I-263000J0D01*
G01*
X78537000Y-46026000D01*
G75*
G02*
X78274000Y-45763000I0J263000D01*
G01*
G37*
G36*
G01*
X76449000Y-45763000D02*
X76449000Y-45237000D01*
G75*
G02*
X76712000Y-44974000I263000J0D01*
G01*
X77263000Y-44974000D01*
G75*
G02*
X77526000Y-45237000I0J-263000D01*
G01*
X77526000Y-45763000D01*
G75*
G02*
X77263000Y-46026000I-263000J0D01*
G01*
X76712000Y-46026000D01*
G75*
G02*
X76449000Y-45763000I0J263000D01*
G01*
G37*
G36*
G01*
X57926000Y-52737000D02*
X57926000Y-53263000D01*
G75*
G02*
X57663000Y-53526000I-263000J0D01*
G01*
X57112000Y-53526000D01*
G75*
G02*
X56849000Y-53263000I0J263000D01*
G01*
X56849000Y-52737000D01*
G75*
G02*
X57112000Y-52474000I263000J0D01*
G01*
X57663000Y-52474000D01*
G75*
G02*
X57926000Y-52737000I0J-263000D01*
G01*
G37*
G36*
G01*
X59751000Y-52737000D02*
X59751000Y-53263000D01*
G75*
G02*
X59488000Y-53526000I-263000J0D01*
G01*
X58937000Y-53526000D01*
G75*
G02*
X58674000Y-53263000I0J263000D01*
G01*
X58674000Y-52737000D01*
G75*
G02*
X58937000Y-52474000I263000J0D01*
G01*
X59488000Y-52474000D01*
G75*
G02*
X59751000Y-52737000I0J-263000D01*
G01*
G37*
G36*
G01*
X61474000Y-22363000D02*
X61474000Y-21837000D01*
G75*
G02*
X61737000Y-21574000I263000J0D01*
G01*
X62288000Y-21574000D01*
G75*
G02*
X62551000Y-21837000I0J-263000D01*
G01*
X62551000Y-22363000D01*
G75*
G02*
X62288000Y-22626000I-263000J0D01*
G01*
X61737000Y-22626000D01*
G75*
G02*
X61474000Y-22363000I0J263000D01*
G01*
G37*
G36*
G01*
X59649000Y-22363000D02*
X59649000Y-21837000D01*
G75*
G02*
X59912000Y-21574000I263000J0D01*
G01*
X60463000Y-21574000D01*
G75*
G02*
X60726000Y-21837000I0J-263000D01*
G01*
X60726000Y-22363000D01*
G75*
G02*
X60463000Y-22626000I-263000J0D01*
G01*
X59912000Y-22626000D01*
G75*
G02*
X59649000Y-22363000I0J263000D01*
G01*
G37*
G36*
G01*
X42026000Y-50337000D02*
X42026000Y-50863000D01*
G75*
G02*
X41763000Y-51126000I-263000J0D01*
G01*
X41212000Y-51126000D01*
G75*
G02*
X40949000Y-50863000I0J263000D01*
G01*
X40949000Y-50337000D01*
G75*
G02*
X41212000Y-50074000I263000J0D01*
G01*
X41763000Y-50074000D01*
G75*
G02*
X42026000Y-50337000I0J-263000D01*
G01*
G37*
G36*
G01*
X43851000Y-50337000D02*
X43851000Y-50863000D01*
G75*
G02*
X43588000Y-51126000I-263000J0D01*
G01*
X43037000Y-51126000D01*
G75*
G02*
X42774000Y-50863000I0J263000D01*
G01*
X42774000Y-50337000D01*
G75*
G02*
X43037000Y-50074000I263000J0D01*
G01*
X43588000Y-50074000D01*
G75*
G02*
X43851000Y-50337000I0J-263000D01*
G01*
G37*
G36*
G01*
X42026000Y-48837000D02*
X42026000Y-49363000D01*
G75*
G02*
X41763000Y-49626000I-263000J0D01*
G01*
X41212000Y-49626000D01*
G75*
G02*
X40949000Y-49363000I0J263000D01*
G01*
X40949000Y-48837000D01*
G75*
G02*
X41212000Y-48574000I263000J0D01*
G01*
X41763000Y-48574000D01*
G75*
G02*
X42026000Y-48837000I0J-263000D01*
G01*
G37*
G36*
G01*
X43851000Y-48837000D02*
X43851000Y-49363000D01*
G75*
G02*
X43588000Y-49626000I-263000J0D01*
G01*
X43037000Y-49626000D01*
G75*
G02*
X42774000Y-49363000I0J263000D01*
G01*
X42774000Y-48837000D01*
G75*
G02*
X43037000Y-48574000I263000J0D01*
G01*
X43588000Y-48574000D01*
G75*
G02*
X43851000Y-48837000I0J-263000D01*
G01*
G37*
G36*
G01*
X35974000Y-46063000D02*
X35974000Y-45537000D01*
G75*
G02*
X36237000Y-45274000I263000J0D01*
G01*
X36788000Y-45274000D01*
G75*
G02*
X37051000Y-45537000I0J-263000D01*
G01*
X37051000Y-46063000D01*
G75*
G02*
X36788000Y-46326000I-263000J0D01*
G01*
X36237000Y-46326000D01*
G75*
G02*
X35974000Y-46063000I0J263000D01*
G01*
G37*
G36*
G01*
X34149000Y-46063000D02*
X34149000Y-45537000D01*
G75*
G02*
X34412000Y-45274000I263000J0D01*
G01*
X34963000Y-45274000D01*
G75*
G02*
X35226000Y-45537000I0J-263000D01*
G01*
X35226000Y-46063000D01*
G75*
G02*
X34963000Y-46326000I-263000J0D01*
G01*
X34412000Y-46326000D01*
G75*
G02*
X34149000Y-46063000I0J263000D01*
G01*
G37*
G36*
G01*
X22901000Y-33100000D02*
X22901000Y-38300000D01*
G75*
G02*
X22850000Y-38351000I-51000J0D01*
G01*
X20550000Y-38351000D01*
G75*
G02*
X20499000Y-38300000I0J51000D01*
G01*
X20499000Y-33100000D01*
G75*
G02*
X20550000Y-33049000I51000J0D01*
G01*
X22850000Y-33049000D01*
G75*
G02*
X22901000Y-33100000I0J-51000D01*
G01*
G37*
G36*
G01*
X29101000Y-33100000D02*
X29101000Y-38300000D01*
G75*
G02*
X29050000Y-38351000I-51000J0D01*
G01*
X26750000Y-38351000D01*
G75*
G02*
X26699000Y-38300000I0J51000D01*
G01*
X26699000Y-33100000D01*
G75*
G02*
X26750000Y-33049000I51000J0D01*
G01*
X29050000Y-33049000D01*
G75*
G02*
X29101000Y-33100000I0J-51000D01*
G01*
G37*
G36*
G01*
X36951000Y-30000000D02*
X36951000Y-31800000D01*
G75*
G02*
X36900000Y-31851000I-51000J0D01*
G01*
X36000000Y-31851000D01*
G75*
G02*
X35949000Y-31800000I0J51000D01*
G01*
X35949000Y-30000000D01*
G75*
G02*
X36000000Y-29949000I51000J0D01*
G01*
X36900000Y-29949000D01*
G75*
G02*
X36951000Y-30000000I0J-51000D01*
G01*
G37*
G36*
G01*
X50451000Y-30000000D02*
X50451000Y-31800000D01*
G75*
G02*
X50400000Y-31851000I-51000J0D01*
G01*
X49500000Y-31851000D01*
G75*
G02*
X49449000Y-31800000I0J51000D01*
G01*
X49449000Y-30000000D01*
G75*
G02*
X49500000Y-29949000I51000J0D01*
G01*
X50400000Y-29949000D01*
G75*
G02*
X50451000Y-30000000I0J-51000D01*
G01*
G37*
D10*
X46800000Y-36900000D03*
X39600000Y-36900000D03*
D13*
X22800000Y-55220000D03*
X22800000Y-46580000D03*
D14*
X26625000Y-55220000D03*
X26625000Y-46580000D03*
D15*
X25900000Y-47900000D03*
G36*
G01*
X21800000Y-51749000D02*
X23800000Y-51749000D01*
G75*
G02*
X23851000Y-51800000I0J-51000D01*
G01*
X23851000Y-52800000D01*
G75*
G02*
X23800000Y-52851000I-51000J0D01*
G01*
X21800000Y-52851000D01*
G75*
G02*
X21749000Y-52800000I0J51000D01*
G01*
X21749000Y-51800000D01*
G75*
G02*
X21800000Y-51749000I51000J0D01*
G01*
G37*
G36*
G01*
X21800000Y-48949000D02*
X23800000Y-48949000D01*
G75*
G02*
X23851000Y-49000000I0J-51000D01*
G01*
X23851000Y-50000000D01*
G75*
G02*
X23800000Y-50051000I-51000J0D01*
G01*
X21800000Y-50051000D01*
G75*
G02*
X21749000Y-50000000I0J51000D01*
G01*
X21749000Y-49000000D01*
G75*
G02*
X21800000Y-48949000I51000J0D01*
G01*
G37*
X25900000Y-53900000D03*
G36*
G01*
X26499999Y-51964000D02*
X27500001Y-51964000D01*
G75*
G02*
X27551000Y-52014999I0J-50999D01*
G01*
X27551000Y-52285001D01*
G75*
G02*
X27500001Y-52336000I-50999J0D01*
G01*
X26499999Y-52336000D01*
G75*
G02*
X26449000Y-52285001I0J50999D01*
G01*
X26449000Y-52014999D01*
G75*
G02*
X26499999Y-51964000I50999J0D01*
G01*
G37*
G36*
G01*
X26499999Y-51464000D02*
X27500001Y-51464000D01*
G75*
G02*
X27551000Y-51514999I0J-50999D01*
G01*
X27551000Y-51785001D01*
G75*
G02*
X27500001Y-51836000I-50999J0D01*
G01*
X26499999Y-51836000D01*
G75*
G02*
X26449000Y-51785001I0J50999D01*
G01*
X26449000Y-51514999D01*
G75*
G02*
X26499999Y-51464000I50999J0D01*
G01*
G37*
G36*
G01*
X26499999Y-50964000D02*
X27500001Y-50964000D01*
G75*
G02*
X27551000Y-51014999I0J-50999D01*
G01*
X27551000Y-51285001D01*
G75*
G02*
X27500001Y-51336000I-50999J0D01*
G01*
X26499999Y-51336000D01*
G75*
G02*
X26449000Y-51285001I0J50999D01*
G01*
X26449000Y-51014999D01*
G75*
G02*
X26499999Y-50964000I50999J0D01*
G01*
G37*
G36*
G01*
X26499999Y-50464000D02*
X27500001Y-50464000D01*
G75*
G02*
X27551000Y-50514999I0J-50999D01*
G01*
X27551000Y-50785001D01*
G75*
G02*
X27500001Y-50836000I-50999J0D01*
G01*
X26499999Y-50836000D01*
G75*
G02*
X26449000Y-50785001I0J50999D01*
G01*
X26449000Y-50514999D01*
G75*
G02*
X26499999Y-50464000I50999J0D01*
G01*
G37*
G36*
G01*
X26499999Y-49964000D02*
X27500001Y-49964000D01*
G75*
G02*
X27551000Y-50014999I0J-50999D01*
G01*
X27551000Y-50285001D01*
G75*
G02*
X27500001Y-50336000I-50999J0D01*
G01*
X26499999Y-50336000D01*
G75*
G02*
X26449000Y-50285001I0J50999D01*
G01*
X26449000Y-50014999D01*
G75*
G02*
X26499999Y-49964000I50999J0D01*
G01*
G37*
G36*
G01*
X26499999Y-49464000D02*
X27500001Y-49464000D01*
G75*
G02*
X27551000Y-49514999I0J-50999D01*
G01*
X27551000Y-49785001D01*
G75*
G02*
X27500001Y-49836000I-50999J0D01*
G01*
X26499999Y-49836000D01*
G75*
G02*
X26449000Y-49785001I0J50999D01*
G01*
X26449000Y-49514999D01*
G75*
G02*
X26499999Y-49464000I50999J0D01*
G01*
G37*
G36*
G01*
X26499999Y-52464000D02*
X27500001Y-52464000D01*
G75*
G02*
X27551000Y-52514999I0J-50999D01*
G01*
X27551000Y-52785001D01*
G75*
G02*
X27500001Y-52836000I-50999J0D01*
G01*
X26499999Y-52836000D01*
G75*
G02*
X26449000Y-52785001I0J50999D01*
G01*
X26449000Y-52514999D01*
G75*
G02*
X26499999Y-52464000I50999J0D01*
G01*
G37*
G36*
G01*
X26499999Y-48964000D02*
X27500001Y-48964000D01*
G75*
G02*
X27551000Y-49014999I0J-50999D01*
G01*
X27551000Y-49285001D01*
G75*
G02*
X27500001Y-49336000I-50999J0D01*
G01*
X26499999Y-49336000D01*
G75*
G02*
X26449000Y-49285001I0J50999D01*
G01*
X26449000Y-49014999D01*
G75*
G02*
X26499999Y-48964000I50999J0D01*
G01*
G37*
G36*
G01*
X26500000Y-52939000D02*
X27500000Y-52939000D01*
G75*
G02*
X27551000Y-52990000I0J-51000D01*
G01*
X27551000Y-53510000D01*
G75*
G02*
X27500000Y-53561000I-51000J0D01*
G01*
X26500000Y-53561000D01*
G75*
G02*
X26449000Y-53510000I0J51000D01*
G01*
X26449000Y-52990000D01*
G75*
G02*
X26500000Y-52939000I51000J0D01*
G01*
G37*
G36*
G01*
X26500000Y-48239000D02*
X27500000Y-48239000D01*
G75*
G02*
X27551000Y-48290000I0J-51000D01*
G01*
X27551000Y-48810000D01*
G75*
G02*
X27500000Y-48861000I-51000J0D01*
G01*
X26500000Y-48861000D01*
G75*
G02*
X26449000Y-48810000I0J51000D01*
G01*
X26449000Y-48290000D01*
G75*
G02*
X26500000Y-48239000I51000J0D01*
G01*
G37*
G36*
G01*
X26500000Y-53689000D02*
X27500000Y-53689000D01*
G75*
G02*
X27551000Y-53740000I0J-51000D01*
G01*
X27551000Y-54260000D01*
G75*
G02*
X27500000Y-54311000I-51000J0D01*
G01*
X26500000Y-54311000D01*
G75*
G02*
X26449000Y-54260000I0J51000D01*
G01*
X26449000Y-53740000D01*
G75*
G02*
X26500000Y-53689000I51000J0D01*
G01*
G37*
G36*
G01*
X26500000Y-47489000D02*
X27500000Y-47489000D01*
G75*
G02*
X27551000Y-47540000I0J-51000D01*
G01*
X27551000Y-48060000D01*
G75*
G02*
X27500000Y-48111000I-51000J0D01*
G01*
X26500000Y-48111000D01*
G75*
G02*
X26449000Y-48060000I0J51000D01*
G01*
X26449000Y-47540000D01*
G75*
G02*
X26500000Y-47489000I51000J0D01*
G01*
G37*
G36*
G01*
X70662000Y-22149000D02*
X71138000Y-22149000D01*
G75*
G02*
X71376000Y-22387000I0J-238000D01*
G01*
X71376000Y-23238000D01*
G75*
G02*
X71138000Y-23476000I-238000J0D01*
G01*
X70662000Y-23476000D01*
G75*
G02*
X70424000Y-23238000I0J238000D01*
G01*
X70424000Y-22387000D01*
G75*
G02*
X70662000Y-22149000I238000J0D01*
G01*
G37*
G36*
G01*
X70662000Y-20524000D02*
X71138000Y-20524000D01*
G75*
G02*
X71376000Y-20762000I0J-238000D01*
G01*
X71376000Y-21613000D01*
G75*
G02*
X71138000Y-21851000I-238000J0D01*
G01*
X70662000Y-21851000D01*
G75*
G02*
X70424000Y-21613000I0J238000D01*
G01*
X70424000Y-20762000D01*
G75*
G02*
X70662000Y-20524000I238000J0D01*
G01*
G37*
G36*
G01*
X26839000Y-43598000D02*
X26839000Y-43202000D01*
G75*
G02*
X27012000Y-43029000I173000J0D01*
G01*
X27358000Y-43029000D01*
G75*
G02*
X27531000Y-43202000I0J-173000D01*
G01*
X27531000Y-43598000D01*
G75*
G02*
X27358000Y-43771000I-173000J0D01*
G01*
X27012000Y-43771000D01*
G75*
G02*
X26839000Y-43598000I0J173000D01*
G01*
G37*
G36*
G01*
X25869000Y-43598000D02*
X25869000Y-43202000D01*
G75*
G02*
X26042000Y-43029000I173000J0D01*
G01*
X26388000Y-43029000D01*
G75*
G02*
X26561000Y-43202000I0J-173000D01*
G01*
X26561000Y-43598000D01*
G75*
G02*
X26388000Y-43771000I-173000J0D01*
G01*
X26042000Y-43771000D01*
G75*
G02*
X25869000Y-43598000I0J173000D01*
G01*
G37*
G36*
G01*
X30002000Y-52539000D02*
X30398000Y-52539000D01*
G75*
G02*
X30571000Y-52712000I0J-173000D01*
G01*
X30571000Y-53058000D01*
G75*
G02*
X30398000Y-53231000I-173000J0D01*
G01*
X30002000Y-53231000D01*
G75*
G02*
X29829000Y-53058000I0J173000D01*
G01*
X29829000Y-52712000D01*
G75*
G02*
X30002000Y-52539000I173000J0D01*
G01*
G37*
G36*
G01*
X30002000Y-51569000D02*
X30398000Y-51569000D01*
G75*
G02*
X30571000Y-51742000I0J-173000D01*
G01*
X30571000Y-52088000D01*
G75*
G02*
X30398000Y-52261000I-173000J0D01*
G01*
X30002000Y-52261000D01*
G75*
G02*
X29829000Y-52088000I0J173000D01*
G01*
X29829000Y-51742000D01*
G75*
G02*
X30002000Y-51569000I173000J0D01*
G01*
G37*
G36*
G01*
X68962000Y-22149000D02*
X69438000Y-22149000D01*
G75*
G02*
X69676000Y-22387000I0J-238000D01*
G01*
X69676000Y-23238000D01*
G75*
G02*
X69438000Y-23476000I-238000J0D01*
G01*
X68962000Y-23476000D01*
G75*
G02*
X68724000Y-23238000I0J238000D01*
G01*
X68724000Y-22387000D01*
G75*
G02*
X68962000Y-22149000I238000J0D01*
G01*
G37*
G36*
G01*
X68962000Y-20524000D02*
X69438000Y-20524000D01*
G75*
G02*
X69676000Y-20762000I0J-238000D01*
G01*
X69676000Y-21613000D01*
G75*
G02*
X69438000Y-21851000I-238000J0D01*
G01*
X68962000Y-21851000D01*
G75*
G02*
X68724000Y-21613000I0J238000D01*
G01*
X68724000Y-20762000D01*
G75*
G02*
X68962000Y-20524000I238000J0D01*
G01*
G37*
G36*
G01*
X67262000Y-22149000D02*
X67738000Y-22149000D01*
G75*
G02*
X67976000Y-22387000I0J-238000D01*
G01*
X67976000Y-23238000D01*
G75*
G02*
X67738000Y-23476000I-238000J0D01*
G01*
X67262000Y-23476000D01*
G75*
G02*
X67024000Y-23238000I0J238000D01*
G01*
X67024000Y-22387000D01*
G75*
G02*
X67262000Y-22149000I238000J0D01*
G01*
G37*
G36*
G01*
X67262000Y-20524000D02*
X67738000Y-20524000D01*
G75*
G02*
X67976000Y-20762000I0J-238000D01*
G01*
X67976000Y-21613000D01*
G75*
G02*
X67738000Y-21851000I-238000J0D01*
G01*
X67262000Y-21851000D01*
G75*
G02*
X67024000Y-21613000I0J238000D01*
G01*
X67024000Y-20762000D01*
G75*
G02*
X67262000Y-20524000I238000J0D01*
G01*
G37*
G36*
G01*
X63862000Y-22149000D02*
X64338000Y-22149000D01*
G75*
G02*
X64576000Y-22387000I0J-238000D01*
G01*
X64576000Y-23238000D01*
G75*
G02*
X64338000Y-23476000I-238000J0D01*
G01*
X63862000Y-23476000D01*
G75*
G02*
X63624000Y-23238000I0J238000D01*
G01*
X63624000Y-22387000D01*
G75*
G02*
X63862000Y-22149000I238000J0D01*
G01*
G37*
G36*
G01*
X63862000Y-20524000D02*
X64338000Y-20524000D01*
G75*
G02*
X64576000Y-20762000I0J-238000D01*
G01*
X64576000Y-21613000D01*
G75*
G02*
X64338000Y-21851000I-238000J0D01*
G01*
X63862000Y-21851000D01*
G75*
G02*
X63624000Y-21613000I0J238000D01*
G01*
X63624000Y-20762000D01*
G75*
G02*
X63862000Y-20524000I238000J0D01*
G01*
G37*
G36*
G01*
X30398000Y-48761000D02*
X30002000Y-48761000D01*
G75*
G02*
X29829000Y-48588000I0J173000D01*
G01*
X29829000Y-48242000D01*
G75*
G02*
X30002000Y-48069000I173000J0D01*
G01*
X30398000Y-48069000D01*
G75*
G02*
X30571000Y-48242000I0J-173000D01*
G01*
X30571000Y-48588000D01*
G75*
G02*
X30398000Y-48761000I-173000J0D01*
G01*
G37*
G36*
G01*
X30398000Y-49731000D02*
X30002000Y-49731000D01*
G75*
G02*
X29829000Y-49558000I0J173000D01*
G01*
X29829000Y-49212000D01*
G75*
G02*
X30002000Y-49039000I173000J0D01*
G01*
X30398000Y-49039000D01*
G75*
G02*
X30571000Y-49212000I0J-173000D01*
G01*
X30571000Y-49558000D01*
G75*
G02*
X30398000Y-49731000I-173000J0D01*
G01*
G37*
G36*
G01*
X39149000Y-50838000D02*
X39149000Y-50362000D01*
G75*
G02*
X39387000Y-50124000I238000J0D01*
G01*
X40238000Y-50124000D01*
G75*
G02*
X40476000Y-50362000I0J-238000D01*
G01*
X40476000Y-50838000D01*
G75*
G02*
X40238000Y-51076000I-238000J0D01*
G01*
X39387000Y-51076000D01*
G75*
G02*
X39149000Y-50838000I0J238000D01*
G01*
G37*
G36*
G01*
X37524000Y-50838000D02*
X37524000Y-50362000D01*
G75*
G02*
X37762000Y-50124000I238000J0D01*
G01*
X38613000Y-50124000D01*
G75*
G02*
X38851000Y-50362000I0J-238000D01*
G01*
X38851000Y-50838000D01*
G75*
G02*
X38613000Y-51076000I-238000J0D01*
G01*
X37762000Y-51076000D01*
G75*
G02*
X37524000Y-50838000I0J238000D01*
G01*
G37*
G36*
G01*
X39149000Y-49338000D02*
X39149000Y-48862000D01*
G75*
G02*
X39387000Y-48624000I238000J0D01*
G01*
X40238000Y-48624000D01*
G75*
G02*
X40476000Y-48862000I0J-238000D01*
G01*
X40476000Y-49338000D01*
G75*
G02*
X40238000Y-49576000I-238000J0D01*
G01*
X39387000Y-49576000D01*
G75*
G02*
X39149000Y-49338000I0J238000D01*
G01*
G37*
G36*
G01*
X37524000Y-49338000D02*
X37524000Y-48862000D01*
G75*
G02*
X37762000Y-48624000I238000J0D01*
G01*
X38613000Y-48624000D01*
G75*
G02*
X38851000Y-48862000I0J-238000D01*
G01*
X38851000Y-49338000D01*
G75*
G02*
X38613000Y-49576000I-238000J0D01*
G01*
X37762000Y-49576000D01*
G75*
G02*
X37524000Y-49338000I0J238000D01*
G01*
G37*
G36*
G01*
X23801000Y-44150000D02*
X23801000Y-45250000D01*
G75*
G02*
X23750000Y-45301000I-51000J0D01*
G01*
X21750000Y-45301000D01*
G75*
G02*
X21699000Y-45250000I0J51000D01*
G01*
X21699000Y-44150000D01*
G75*
G02*
X21750000Y-44099000I51000J0D01*
G01*
X23750000Y-44099000D01*
G75*
G02*
X23801000Y-44150000I0J-51000D01*
G01*
G37*
G36*
G01*
X25101000Y-44150000D02*
X25101000Y-45250000D01*
G75*
G02*
X25050000Y-45301000I-51000J0D01*
G01*
X24250000Y-45301000D01*
G75*
G02*
X24199000Y-45250000I0J51000D01*
G01*
X24199000Y-44150000D01*
G75*
G02*
X24250000Y-44099000I51000J0D01*
G01*
X25050000Y-44099000D01*
G75*
G02*
X25101000Y-44150000I0J-51000D01*
G01*
G37*
G36*
G01*
X22678828Y-28051000D02*
X21321172Y-28051000D01*
G75*
G02*
X21049000Y-27778828I0J272172D01*
G01*
X21049000Y-27071172D01*
G75*
G02*
X21321172Y-26799000I272172J0D01*
G01*
X22678828Y-26799000D01*
G75*
G02*
X22951000Y-27071172I0J-272172D01*
G01*
X22951000Y-27778828D01*
G75*
G02*
X22678828Y-28051000I-272172J0D01*
G01*
G37*
G36*
G01*
X22678828Y-31001000D02*
X21321172Y-31001000D01*
G75*
G02*
X21049000Y-30728828I0J272172D01*
G01*
X21049000Y-30021172D01*
G75*
G02*
X21321172Y-29749000I272172J0D01*
G01*
X22678828Y-29749000D01*
G75*
G02*
X22951000Y-30021172I0J-272172D01*
G01*
X22951000Y-30728828D01*
G75*
G02*
X22678828Y-31001000I-272172J0D01*
G01*
G37*
G36*
G01*
X25676000Y-40621172D02*
X25676000Y-41978828D01*
G75*
G02*
X25403828Y-42251000I-272172J0D01*
G01*
X24696172Y-42251000D01*
G75*
G02*
X24424000Y-41978828I0J272172D01*
G01*
X24424000Y-40621172D01*
G75*
G02*
X24696172Y-40349000I272172J0D01*
G01*
X25403828Y-40349000D01*
G75*
G02*
X25676000Y-40621172I0J-272172D01*
G01*
G37*
G36*
G01*
X28626000Y-40621172D02*
X28626000Y-41978828D01*
G75*
G02*
X28353828Y-42251000I-272172J0D01*
G01*
X27646172Y-42251000D01*
G75*
G02*
X27374000Y-41978828I0J272172D01*
G01*
X27374000Y-40621172D01*
G75*
G02*
X27646172Y-40349000I272172J0D01*
G01*
X28353828Y-40349000D01*
G75*
G02*
X28626000Y-40621172I0J-272172D01*
G01*
G37*
G36*
G01*
X73099000Y-90300500D02*
X73099000Y-89299500D01*
G75*
G02*
X73374500Y-89024000I275500J0D01*
G01*
X73925500Y-89024000D01*
G75*
G02*
X74201000Y-89299500I0J-275500D01*
G01*
X74201000Y-90300500D01*
G75*
G02*
X73925500Y-90576000I-275500J0D01*
G01*
X73374500Y-90576000D01*
G75*
G02*
X73099000Y-90300500I0J275500D01*
G01*
G37*
G36*
G01*
X71199000Y-90300500D02*
X71199000Y-89299500D01*
G75*
G02*
X71474500Y-89024000I275500J0D01*
G01*
X72025500Y-89024000D01*
G75*
G02*
X72301000Y-89299500I0J-275500D01*
G01*
X72301000Y-90300500D01*
G75*
G02*
X72025500Y-90576000I-275500J0D01*
G01*
X71474500Y-90576000D01*
G75*
G02*
X71199000Y-90300500I0J275500D01*
G01*
G37*
G36*
G01*
X57099000Y-79200500D02*
X57099000Y-78199500D01*
G75*
G02*
X57374500Y-77924000I275500J0D01*
G01*
X57925500Y-77924000D01*
G75*
G02*
X58201000Y-78199500I0J-275500D01*
G01*
X58201000Y-79200500D01*
G75*
G02*
X57925500Y-79476000I-275500J0D01*
G01*
X57374500Y-79476000D01*
G75*
G02*
X57099000Y-79200500I0J275500D01*
G01*
G37*
G36*
G01*
X55199000Y-79200500D02*
X55199000Y-78199500D01*
G75*
G02*
X55474500Y-77924000I275500J0D01*
G01*
X56025500Y-77924000D01*
G75*
G02*
X56301000Y-78199500I0J-275500D01*
G01*
X56301000Y-79200500D01*
G75*
G02*
X56025500Y-79476000I-275500J0D01*
G01*
X55474500Y-79476000D01*
G75*
G02*
X55199000Y-79200500I0J275500D01*
G01*
G37*
G36*
G01*
X40149000Y-67900500D02*
X40149000Y-66899500D01*
G75*
G02*
X40424500Y-66624000I275500J0D01*
G01*
X40975500Y-66624000D01*
G75*
G02*
X41251000Y-66899500I0J-275500D01*
G01*
X41251000Y-67900500D01*
G75*
G02*
X40975500Y-68176000I-275500J0D01*
G01*
X40424500Y-68176000D01*
G75*
G02*
X40149000Y-67900500I0J275500D01*
G01*
G37*
G36*
G01*
X38249000Y-67900500D02*
X38249000Y-66899500D01*
G75*
G02*
X38524500Y-66624000I275500J0D01*
G01*
X39075500Y-66624000D01*
G75*
G02*
X39351000Y-66899500I0J-275500D01*
G01*
X39351000Y-67900500D01*
G75*
G02*
X39075500Y-68176000I-275500J0D01*
G01*
X38524500Y-68176000D01*
G75*
G02*
X38249000Y-67900500I0J275500D01*
G01*
G37*
G36*
G01*
X77899000Y-97000500D02*
X77899000Y-95999500D01*
G75*
G02*
X78174500Y-95724000I275500J0D01*
G01*
X78725500Y-95724000D01*
G75*
G02*
X79001000Y-95999500I0J-275500D01*
G01*
X79001000Y-97000500D01*
G75*
G02*
X78725500Y-97276000I-275500J0D01*
G01*
X78174500Y-97276000D01*
G75*
G02*
X77899000Y-97000500I0J275500D01*
G01*
G37*
G36*
G01*
X75999000Y-97000500D02*
X75999000Y-95999500D01*
G75*
G02*
X76274500Y-95724000I275500J0D01*
G01*
X76825500Y-95724000D01*
G75*
G02*
X77101000Y-95999500I0J-275500D01*
G01*
X77101000Y-97000500D01*
G75*
G02*
X76825500Y-97276000I-275500J0D01*
G01*
X76274500Y-97276000D01*
G75*
G02*
X75999000Y-97000500I0J275500D01*
G01*
G37*
G36*
G01*
X61899000Y-85750500D02*
X61899000Y-84749500D01*
G75*
G02*
X62174500Y-84474000I275500J0D01*
G01*
X62725500Y-84474000D01*
G75*
G02*
X63001000Y-84749500I0J-275500D01*
G01*
X63001000Y-85750500D01*
G75*
G02*
X62725500Y-86026000I-275500J0D01*
G01*
X62174500Y-86026000D01*
G75*
G02*
X61899000Y-85750500I0J275500D01*
G01*
G37*
G36*
G01*
X59999000Y-85750500D02*
X59999000Y-84749500D01*
G75*
G02*
X60274500Y-84474000I275500J0D01*
G01*
X60825500Y-84474000D01*
G75*
G02*
X61101000Y-84749500I0J-275500D01*
G01*
X61101000Y-85750500D01*
G75*
G02*
X60825500Y-86026000I-275500J0D01*
G01*
X60274500Y-86026000D01*
G75*
G02*
X59999000Y-85750500I0J275500D01*
G01*
G37*
G36*
G01*
X44899000Y-74500500D02*
X44899000Y-73499500D01*
G75*
G02*
X45174500Y-73224000I275500J0D01*
G01*
X45725500Y-73224000D01*
G75*
G02*
X46001000Y-73499500I0J-275500D01*
G01*
X46001000Y-74500500D01*
G75*
G02*
X45725500Y-74776000I-275500J0D01*
G01*
X45174500Y-74776000D01*
G75*
G02*
X44899000Y-74500500I0J275500D01*
G01*
G37*
G36*
G01*
X42999000Y-74500500D02*
X42999000Y-73499500D01*
G75*
G02*
X43274500Y-73224000I275500J0D01*
G01*
X43825500Y-73224000D01*
G75*
G02*
X44101000Y-73499500I0J-275500D01*
G01*
X44101000Y-74500500D01*
G75*
G02*
X43825500Y-74776000I-275500J0D01*
G01*
X43274500Y-74776000D01*
G75*
G02*
X42999000Y-74500500I0J275500D01*
G01*
G37*
G36*
G01*
X57099000Y-90500500D02*
X57099000Y-89499500D01*
G75*
G02*
X57374500Y-89224000I275500J0D01*
G01*
X57925500Y-89224000D01*
G75*
G02*
X58201000Y-89499500I0J-275500D01*
G01*
X58201000Y-90500500D01*
G75*
G02*
X57925500Y-90776000I-275500J0D01*
G01*
X57374500Y-90776000D01*
G75*
G02*
X57099000Y-90500500I0J275500D01*
G01*
G37*
G36*
G01*
X55199000Y-90500500D02*
X55199000Y-89499500D01*
G75*
G02*
X55474500Y-89224000I275500J0D01*
G01*
X56025500Y-89224000D01*
G75*
G02*
X56301000Y-89499500I0J-275500D01*
G01*
X56301000Y-90500500D01*
G75*
G02*
X56025500Y-90776000I-275500J0D01*
G01*
X55474500Y-90776000D01*
G75*
G02*
X55199000Y-90500500I0J275500D01*
G01*
G37*
G36*
G01*
X40199000Y-79200500D02*
X40199000Y-78199500D01*
G75*
G02*
X40474500Y-77924000I275500J0D01*
G01*
X41025500Y-77924000D01*
G75*
G02*
X41301000Y-78199500I0J-275500D01*
G01*
X41301000Y-79200500D01*
G75*
G02*
X41025500Y-79476000I-275500J0D01*
G01*
X40474500Y-79476000D01*
G75*
G02*
X40199000Y-79200500I0J275500D01*
G01*
G37*
G36*
G01*
X38299000Y-79200500D02*
X38299000Y-78199500D01*
G75*
G02*
X38574500Y-77924000I275500J0D01*
G01*
X39125500Y-77924000D01*
G75*
G02*
X39401000Y-78199500I0J-275500D01*
G01*
X39401000Y-79200500D01*
G75*
G02*
X39125500Y-79476000I-275500J0D01*
G01*
X38574500Y-79476000D01*
G75*
G02*
X38299000Y-79200500I0J275500D01*
G01*
G37*
G36*
G01*
X73049000Y-56500500D02*
X73049000Y-55499500D01*
G75*
G02*
X73324500Y-55224000I275500J0D01*
G01*
X73875500Y-55224000D01*
G75*
G02*
X74151000Y-55499500I0J-275500D01*
G01*
X74151000Y-56500500D01*
G75*
G02*
X73875500Y-56776000I-275500J0D01*
G01*
X73324500Y-56776000D01*
G75*
G02*
X73049000Y-56500500I0J275500D01*
G01*
G37*
G36*
G01*
X71149000Y-56500500D02*
X71149000Y-55499500D01*
G75*
G02*
X71424500Y-55224000I275500J0D01*
G01*
X71975500Y-55224000D01*
G75*
G02*
X72251000Y-55499500I0J-275500D01*
G01*
X72251000Y-56500500D01*
G75*
G02*
X71975500Y-56776000I-275500J0D01*
G01*
X71424500Y-56776000D01*
G75*
G02*
X71149000Y-56500500I0J275500D01*
G01*
G37*
G36*
G01*
X61899000Y-97250500D02*
X61899000Y-96249500D01*
G75*
G02*
X62174500Y-95974000I275500J0D01*
G01*
X62725500Y-95974000D01*
G75*
G02*
X63001000Y-96249500I0J-275500D01*
G01*
X63001000Y-97250500D01*
G75*
G02*
X62725500Y-97526000I-275500J0D01*
G01*
X62174500Y-97526000D01*
G75*
G02*
X61899000Y-97250500I0J275500D01*
G01*
G37*
G36*
G01*
X59999000Y-97250500D02*
X59999000Y-96249500D01*
G75*
G02*
X60274500Y-95974000I275500J0D01*
G01*
X60825500Y-95974000D01*
G75*
G02*
X61101000Y-96249500I0J-275500D01*
G01*
X61101000Y-97250500D01*
G75*
G02*
X60825500Y-97526000I-275500J0D01*
G01*
X60274500Y-97526000D01*
G75*
G02*
X59999000Y-97250500I0J275500D01*
G01*
G37*
G36*
G01*
X44899000Y-86000500D02*
X44899000Y-84999500D01*
G75*
G02*
X45174500Y-84724000I275500J0D01*
G01*
X45725500Y-84724000D01*
G75*
G02*
X46001000Y-84999500I0J-275500D01*
G01*
X46001000Y-86000500D01*
G75*
G02*
X45725500Y-86276000I-275500J0D01*
G01*
X45174500Y-86276000D01*
G75*
G02*
X44899000Y-86000500I0J275500D01*
G01*
G37*
G36*
G01*
X42999000Y-86000500D02*
X42999000Y-84999500D01*
G75*
G02*
X43274500Y-84724000I275500J0D01*
G01*
X43825500Y-84724000D01*
G75*
G02*
X44101000Y-84999500I0J-275500D01*
G01*
X44101000Y-86000500D01*
G75*
G02*
X43825500Y-86276000I-275500J0D01*
G01*
X43274500Y-86276000D01*
G75*
G02*
X42999000Y-86000500I0J275500D01*
G01*
G37*
G36*
G01*
X77899000Y-63250500D02*
X77899000Y-62249500D01*
G75*
G02*
X78174500Y-61974000I275500J0D01*
G01*
X78725500Y-61974000D01*
G75*
G02*
X79001000Y-62249500I0J-275500D01*
G01*
X79001000Y-63250500D01*
G75*
G02*
X78725500Y-63526000I-275500J0D01*
G01*
X78174500Y-63526000D01*
G75*
G02*
X77899000Y-63250500I0J275500D01*
G01*
G37*
G36*
G01*
X75999000Y-63250500D02*
X75999000Y-62249500D01*
G75*
G02*
X76274500Y-61974000I275500J0D01*
G01*
X76825500Y-61974000D01*
G75*
G02*
X77101000Y-62249500I0J-275500D01*
G01*
X77101000Y-63250500D01*
G75*
G02*
X76825500Y-63526000I-275500J0D01*
G01*
X76274500Y-63526000D01*
G75*
G02*
X75999000Y-63250500I0J275500D01*
G01*
G37*
G36*
G01*
X40199000Y-90500500D02*
X40199000Y-89499500D01*
G75*
G02*
X40474500Y-89224000I275500J0D01*
G01*
X41025500Y-89224000D01*
G75*
G02*
X41301000Y-89499500I0J-275500D01*
G01*
X41301000Y-90500500D01*
G75*
G02*
X41025500Y-90776000I-275500J0D01*
G01*
X40474500Y-90776000D01*
G75*
G02*
X40199000Y-90500500I0J275500D01*
G01*
G37*
G36*
G01*
X38299000Y-90500500D02*
X38299000Y-89499500D01*
G75*
G02*
X38574500Y-89224000I275500J0D01*
G01*
X39125500Y-89224000D01*
G75*
G02*
X39401000Y-89499500I0J-275500D01*
G01*
X39401000Y-90500500D01*
G75*
G02*
X39125500Y-90776000I-275500J0D01*
G01*
X38574500Y-90776000D01*
G75*
G02*
X38299000Y-90500500I0J275500D01*
G01*
G37*
G36*
G01*
X73099000Y-67900500D02*
X73099000Y-66899500D01*
G75*
G02*
X73374500Y-66624000I275500J0D01*
G01*
X73925500Y-66624000D01*
G75*
G02*
X74201000Y-66899500I0J-275500D01*
G01*
X74201000Y-67900500D01*
G75*
G02*
X73925500Y-68176000I-275500J0D01*
G01*
X73374500Y-68176000D01*
G75*
G02*
X73099000Y-67900500I0J275500D01*
G01*
G37*
G36*
G01*
X71199000Y-67900500D02*
X71199000Y-66899500D01*
G75*
G02*
X71474500Y-66624000I275500J0D01*
G01*
X72025500Y-66624000D01*
G75*
G02*
X72301000Y-66899500I0J-275500D01*
G01*
X72301000Y-67900500D01*
G75*
G02*
X72025500Y-68176000I-275500J0D01*
G01*
X71474500Y-68176000D01*
G75*
G02*
X71199000Y-67900500I0J275500D01*
G01*
G37*
G36*
G01*
X57099000Y-56500500D02*
X57099000Y-55499500D01*
G75*
G02*
X57374500Y-55224000I275500J0D01*
G01*
X57925500Y-55224000D01*
G75*
G02*
X58201000Y-55499500I0J-275500D01*
G01*
X58201000Y-56500500D01*
G75*
G02*
X57925500Y-56776000I-275500J0D01*
G01*
X57374500Y-56776000D01*
G75*
G02*
X57099000Y-56500500I0J275500D01*
G01*
G37*
G36*
G01*
X55199000Y-56500500D02*
X55199000Y-55499500D01*
G75*
G02*
X55474500Y-55224000I275500J0D01*
G01*
X56025500Y-55224000D01*
G75*
G02*
X56301000Y-55499500I0J-275500D01*
G01*
X56301000Y-56500500D01*
G75*
G02*
X56025500Y-56776000I-275500J0D01*
G01*
X55474500Y-56776000D01*
G75*
G02*
X55199000Y-56500500I0J275500D01*
G01*
G37*
G36*
G01*
X44899000Y-97250500D02*
X44899000Y-96249500D01*
G75*
G02*
X45174500Y-95974000I275500J0D01*
G01*
X45725500Y-95974000D01*
G75*
G02*
X46001000Y-96249500I0J-275500D01*
G01*
X46001000Y-97250500D01*
G75*
G02*
X45725500Y-97526000I-275500J0D01*
G01*
X45174500Y-97526000D01*
G75*
G02*
X44899000Y-97250500I0J275500D01*
G01*
G37*
G36*
G01*
X42999000Y-97250500D02*
X42999000Y-96249500D01*
G75*
G02*
X43274500Y-95974000I275500J0D01*
G01*
X43825500Y-95974000D01*
G75*
G02*
X44101000Y-96249500I0J-275500D01*
G01*
X44101000Y-97250500D01*
G75*
G02*
X43825500Y-97526000I-275500J0D01*
G01*
X43274500Y-97526000D01*
G75*
G02*
X42999000Y-97250500I0J275500D01*
G01*
G37*
G36*
G01*
X77899000Y-74500500D02*
X77899000Y-73499500D01*
G75*
G02*
X78174500Y-73224000I275500J0D01*
G01*
X78725500Y-73224000D01*
G75*
G02*
X79001000Y-73499500I0J-275500D01*
G01*
X79001000Y-74500500D01*
G75*
G02*
X78725500Y-74776000I-275500J0D01*
G01*
X78174500Y-74776000D01*
G75*
G02*
X77899000Y-74500500I0J275500D01*
G01*
G37*
G36*
G01*
X75999000Y-74500500D02*
X75999000Y-73499500D01*
G75*
G02*
X76274500Y-73224000I275500J0D01*
G01*
X76825500Y-73224000D01*
G75*
G02*
X77101000Y-73499500I0J-275500D01*
G01*
X77101000Y-74500500D01*
G75*
G02*
X76825500Y-74776000I-275500J0D01*
G01*
X76274500Y-74776000D01*
G75*
G02*
X75999000Y-74500500I0J275500D01*
G01*
G37*
G36*
G01*
X61899000Y-63250500D02*
X61899000Y-62249500D01*
G75*
G02*
X62174500Y-61974000I275500J0D01*
G01*
X62725500Y-61974000D01*
G75*
G02*
X63001000Y-62249500I0J-275500D01*
G01*
X63001000Y-63250500D01*
G75*
G02*
X62725500Y-63526000I-275500J0D01*
G01*
X62174500Y-63526000D01*
G75*
G02*
X61899000Y-63250500I0J275500D01*
G01*
G37*
G36*
G01*
X59999000Y-63250500D02*
X59999000Y-62249500D01*
G75*
G02*
X60274500Y-61974000I275500J0D01*
G01*
X60825500Y-61974000D01*
G75*
G02*
X61101000Y-62249500I0J-275500D01*
G01*
X61101000Y-63250500D01*
G75*
G02*
X60825500Y-63526000I-275500J0D01*
G01*
X60274500Y-63526000D01*
G75*
G02*
X59999000Y-63250500I0J275500D01*
G01*
G37*
G36*
G01*
X73099000Y-79200500D02*
X73099000Y-78199500D01*
G75*
G02*
X73374500Y-77924000I275500J0D01*
G01*
X73925500Y-77924000D01*
G75*
G02*
X74201000Y-78199500I0J-275500D01*
G01*
X74201000Y-79200500D01*
G75*
G02*
X73925500Y-79476000I-275500J0D01*
G01*
X73374500Y-79476000D01*
G75*
G02*
X73099000Y-79200500I0J275500D01*
G01*
G37*
G36*
G01*
X71199000Y-79200500D02*
X71199000Y-78199500D01*
G75*
G02*
X71474500Y-77924000I275500J0D01*
G01*
X72025500Y-77924000D01*
G75*
G02*
X72301000Y-78199500I0J-275500D01*
G01*
X72301000Y-79200500D01*
G75*
G02*
X72025500Y-79476000I-275500J0D01*
G01*
X71474500Y-79476000D01*
G75*
G02*
X71199000Y-79200500I0J275500D01*
G01*
G37*
G36*
G01*
X57049000Y-67900500D02*
X57049000Y-66899500D01*
G75*
G02*
X57324500Y-66624000I275500J0D01*
G01*
X57875500Y-66624000D01*
G75*
G02*
X58151000Y-66899500I0J-275500D01*
G01*
X58151000Y-67900500D01*
G75*
G02*
X57875500Y-68176000I-275500J0D01*
G01*
X57324500Y-68176000D01*
G75*
G02*
X57049000Y-67900500I0J275500D01*
G01*
G37*
G36*
G01*
X55149000Y-67900500D02*
X55149000Y-66899500D01*
G75*
G02*
X55424500Y-66624000I275500J0D01*
G01*
X55975500Y-66624000D01*
G75*
G02*
X56251000Y-66899500I0J-275500D01*
G01*
X56251000Y-67900500D01*
G75*
G02*
X55975500Y-68176000I-275500J0D01*
G01*
X55424500Y-68176000D01*
G75*
G02*
X55149000Y-67900500I0J275500D01*
G01*
G37*
G36*
G01*
X77899000Y-86000500D02*
X77899000Y-84999500D01*
G75*
G02*
X78174500Y-84724000I275500J0D01*
G01*
X78725500Y-84724000D01*
G75*
G02*
X79001000Y-84999500I0J-275500D01*
G01*
X79001000Y-86000500D01*
G75*
G02*
X78725500Y-86276000I-275500J0D01*
G01*
X78174500Y-86276000D01*
G75*
G02*
X77899000Y-86000500I0J275500D01*
G01*
G37*
G36*
G01*
X75999000Y-86000500D02*
X75999000Y-84999500D01*
G75*
G02*
X76274500Y-84724000I275500J0D01*
G01*
X76825500Y-84724000D01*
G75*
G02*
X77101000Y-84999500I0J-275500D01*
G01*
X77101000Y-86000500D01*
G75*
G02*
X76825500Y-86276000I-275500J0D01*
G01*
X76274500Y-86276000D01*
G75*
G02*
X75999000Y-86000500I0J275500D01*
G01*
G37*
G36*
G01*
X61899000Y-74500500D02*
X61899000Y-73499500D01*
G75*
G02*
X62174500Y-73224000I275500J0D01*
G01*
X62725500Y-73224000D01*
G75*
G02*
X63001000Y-73499500I0J-275500D01*
G01*
X63001000Y-74500500D01*
G75*
G02*
X62725500Y-74776000I-275500J0D01*
G01*
X62174500Y-74776000D01*
G75*
G02*
X61899000Y-74500500I0J275500D01*
G01*
G37*
G36*
G01*
X59999000Y-74500500D02*
X59999000Y-73499500D01*
G75*
G02*
X60274500Y-73224000I275500J0D01*
G01*
X60825500Y-73224000D01*
G75*
G02*
X61101000Y-73499500I0J-275500D01*
G01*
X61101000Y-74500500D01*
G75*
G02*
X60825500Y-74776000I-275500J0D01*
G01*
X60274500Y-74776000D01*
G75*
G02*
X59999000Y-74500500I0J275500D01*
G01*
G37*
G36*
G01*
X44999000Y-63250500D02*
X44999000Y-62249500D01*
G75*
G02*
X45274500Y-61974000I275500J0D01*
G01*
X45825500Y-61974000D01*
G75*
G02*
X46101000Y-62249500I0J-275500D01*
G01*
X46101000Y-63250500D01*
G75*
G02*
X45825500Y-63526000I-275500J0D01*
G01*
X45274500Y-63526000D01*
G75*
G02*
X44999000Y-63250500I0J275500D01*
G01*
G37*
G36*
G01*
X43099000Y-63250500D02*
X43099000Y-62249500D01*
G75*
G02*
X43374500Y-61974000I275500J0D01*
G01*
X43925500Y-61974000D01*
G75*
G02*
X44201000Y-62249500I0J-275500D01*
G01*
X44201000Y-63250500D01*
G75*
G02*
X43925500Y-63526000I-275500J0D01*
G01*
X43374500Y-63526000D01*
G75*
G02*
X43099000Y-63250500I0J275500D01*
G01*
G37*
G36*
G01*
X40149000Y-56500500D02*
X40149000Y-55499500D01*
G75*
G02*
X40424500Y-55224000I275500J0D01*
G01*
X40975500Y-55224000D01*
G75*
G02*
X41251000Y-55499500I0J-275500D01*
G01*
X41251000Y-56500500D01*
G75*
G02*
X40975500Y-56776000I-275500J0D01*
G01*
X40424500Y-56776000D01*
G75*
G02*
X40149000Y-56500500I0J275500D01*
G01*
G37*
G36*
G01*
X38249000Y-56500500D02*
X38249000Y-55499500D01*
G75*
G02*
X38524500Y-55224000I275500J0D01*
G01*
X39075500Y-55224000D01*
G75*
G02*
X39351000Y-55499500I0J-275500D01*
G01*
X39351000Y-56500500D01*
G75*
G02*
X39075500Y-56776000I-275500J0D01*
G01*
X38524500Y-56776000D01*
G75*
G02*
X38249000Y-56500500I0J275500D01*
G01*
G37*
G36*
G01*
X23501000Y-24999500D02*
X23501000Y-26000500D01*
G75*
G02*
X23225500Y-26276000I-275500J0D01*
G01*
X22674500Y-26276000D01*
G75*
G02*
X22399000Y-26000500I0J275500D01*
G01*
X22399000Y-24999500D01*
G75*
G02*
X22674500Y-24724000I275500J0D01*
G01*
X23225500Y-24724000D01*
G75*
G02*
X23501000Y-24999500I0J-275500D01*
G01*
G37*
G36*
G01*
X25401000Y-24999500D02*
X25401000Y-26000500D01*
G75*
G02*
X25125500Y-26276000I-275500J0D01*
G01*
X24574500Y-26276000D01*
G75*
G02*
X24299000Y-26000500I0J275500D01*
G01*
X24299000Y-24999500D01*
G75*
G02*
X24574500Y-24724000I275500J0D01*
G01*
X25125500Y-24724000D01*
G75*
G02*
X25401000Y-24999500I0J-275500D01*
G01*
G37*
G36*
G01*
X34099000Y-53600500D02*
X34099000Y-52599500D01*
G75*
G02*
X34374500Y-52324000I275500J0D01*
G01*
X34925500Y-52324000D01*
G75*
G02*
X35201000Y-52599500I0J-275500D01*
G01*
X35201000Y-53600500D01*
G75*
G02*
X34925500Y-53876000I-275500J0D01*
G01*
X34374500Y-53876000D01*
G75*
G02*
X34099000Y-53600500I0J275500D01*
G01*
G37*
G36*
G01*
X32199000Y-53600500D02*
X32199000Y-52599500D01*
G75*
G02*
X32474500Y-52324000I275500J0D01*
G01*
X33025500Y-52324000D01*
G75*
G02*
X33301000Y-52599500I0J-275500D01*
G01*
X33301000Y-53600500D01*
G75*
G02*
X33025500Y-53876000I-275500J0D01*
G01*
X32474500Y-53876000D01*
G75*
G02*
X32199000Y-53600500I0J275500D01*
G01*
G37*
G36*
G01*
X24700500Y-27901000D02*
X23699500Y-27901000D01*
G75*
G02*
X23424000Y-27625500I0J275500D01*
G01*
X23424000Y-27074500D01*
G75*
G02*
X23699500Y-26799000I275500J0D01*
G01*
X24700500Y-26799000D01*
G75*
G02*
X24976000Y-27074500I0J-275500D01*
G01*
X24976000Y-27625500D01*
G75*
G02*
X24700500Y-27901000I-275500J0D01*
G01*
G37*
G36*
G01*
X24700500Y-29801000D02*
X23699500Y-29801000D01*
G75*
G02*
X23424000Y-29525500I0J275500D01*
G01*
X23424000Y-28974500D01*
G75*
G02*
X23699500Y-28699000I275500J0D01*
G01*
X24700500Y-28699000D01*
G75*
G02*
X24976000Y-28974500I0J-275500D01*
G01*
X24976000Y-29525500D01*
G75*
G02*
X24700500Y-29801000I-275500J0D01*
G01*
G37*
G36*
G01*
X33499000Y-36800500D02*
X33499000Y-35799500D01*
G75*
G02*
X33774500Y-35524000I275500J0D01*
G01*
X34325500Y-35524000D01*
G75*
G02*
X34601000Y-35799500I0J-275500D01*
G01*
X34601000Y-36800500D01*
G75*
G02*
X34325500Y-37076000I-275500J0D01*
G01*
X33774500Y-37076000D01*
G75*
G02*
X33499000Y-36800500I0J275500D01*
G01*
G37*
G36*
G01*
X31599000Y-36800500D02*
X31599000Y-35799500D01*
G75*
G02*
X31874500Y-35524000I275500J0D01*
G01*
X32425500Y-35524000D01*
G75*
G02*
X32701000Y-35799500I0J-275500D01*
G01*
X32701000Y-36800500D01*
G75*
G02*
X32425500Y-37076000I-275500J0D01*
G01*
X31874500Y-37076000D01*
G75*
G02*
X31599000Y-36800500I0J275500D01*
G01*
G37*
G36*
G01*
X22399500Y-101199000D02*
X23400500Y-101199000D01*
G75*
G02*
X23676000Y-101474500I0J-275500D01*
G01*
X23676000Y-102025500D01*
G75*
G02*
X23400500Y-102301000I-275500J0D01*
G01*
X22399500Y-102301000D01*
G75*
G02*
X22124000Y-102025500I0J275500D01*
G01*
X22124000Y-101474500D01*
G75*
G02*
X22399500Y-101199000I275500J0D01*
G01*
G37*
G36*
G01*
X22399500Y-99299000D02*
X23400500Y-99299000D01*
G75*
G02*
X23676000Y-99574500I0J-275500D01*
G01*
X23676000Y-100125500D01*
G75*
G02*
X23400500Y-100401000I-275500J0D01*
G01*
X22399500Y-100401000D01*
G75*
G02*
X22124000Y-100125500I0J275500D01*
G01*
X22124000Y-99574500D01*
G75*
G02*
X22399500Y-99299000I275500J0D01*
G01*
G37*
G36*
G01*
X53301000Y-52199500D02*
X53301000Y-53200500D01*
G75*
G02*
X53025500Y-53476000I-275500J0D01*
G01*
X52474500Y-53476000D01*
G75*
G02*
X52199000Y-53200500I0J275500D01*
G01*
X52199000Y-52199500D01*
G75*
G02*
X52474500Y-51924000I275500J0D01*
G01*
X53025500Y-51924000D01*
G75*
G02*
X53301000Y-52199500I0J-275500D01*
G01*
G37*
G36*
G01*
X55201000Y-52199500D02*
X55201000Y-53200500D01*
G75*
G02*
X54925500Y-53476000I-275500J0D01*
G01*
X54374500Y-53476000D01*
G75*
G02*
X54099000Y-53200500I0J275500D01*
G01*
X54099000Y-52199500D01*
G75*
G02*
X54374500Y-51924000I275500J0D01*
G01*
X54925500Y-51924000D01*
G75*
G02*
X55201000Y-52199500I0J-275500D01*
G01*
G37*
G36*
G01*
X56349000Y-108315000D02*
X56349000Y-105565000D01*
G75*
G02*
X56400000Y-105514000I51000J0D01*
G01*
X57400000Y-105514000D01*
G75*
G02*
X57451000Y-105565000I0J-51000D01*
G01*
X57451000Y-108315000D01*
G75*
G02*
X57400000Y-108366000I-51000J0D01*
G01*
X56400000Y-108366000D01*
G75*
G02*
X56349000Y-108315000I0J51000D01*
G01*
G37*
G36*
G01*
X62349000Y-108315000D02*
X62349000Y-105565000D01*
G75*
G02*
X62400000Y-105514000I51000J0D01*
G01*
X63400000Y-105514000D01*
G75*
G02*
X63451000Y-105565000I0J-51000D01*
G01*
X63451000Y-108315000D01*
G75*
G02*
X63400000Y-108366000I-51000J0D01*
G01*
X62400000Y-108366000D01*
G75*
G02*
X62349000Y-108315000I0J51000D01*
G01*
G37*
G36*
G01*
X66349000Y-108315000D02*
X66349000Y-105565000D01*
G75*
G02*
X66400000Y-105514000I51000J0D01*
G01*
X67400000Y-105514000D01*
G75*
G02*
X67451000Y-105565000I0J-51000D01*
G01*
X67451000Y-108315000D01*
G75*
G02*
X67400000Y-108366000I-51000J0D01*
G01*
X66400000Y-108366000D01*
G75*
G02*
X66349000Y-108315000I0J51000D01*
G01*
G37*
D16*
X57900000Y-104810000D03*
G36*
G01*
X60349000Y-104055000D02*
X60349000Y-101305000D01*
G75*
G02*
X60400000Y-101254000I51000J0D01*
G01*
X61400000Y-101254000D01*
G75*
G02*
X61451000Y-101305000I0J-51000D01*
G01*
X61451000Y-104055000D01*
G75*
G02*
X61400000Y-104106000I-51000J0D01*
G01*
X60400000Y-104106000D01*
G75*
G02*
X60349000Y-104055000I0J51000D01*
G01*
G37*
G36*
G01*
X58349000Y-108315000D02*
X58349000Y-105565000D01*
G75*
G02*
X58400000Y-105514000I51000J0D01*
G01*
X59400000Y-105514000D01*
G75*
G02*
X59451000Y-105565000I0J-51000D01*
G01*
X59451000Y-108315000D01*
G75*
G02*
X59400000Y-108366000I-51000J0D01*
G01*
X58400000Y-108366000D01*
G75*
G02*
X58349000Y-108315000I0J51000D01*
G01*
G37*
G36*
G01*
X68349000Y-104055000D02*
X68349000Y-101305000D01*
G75*
G02*
X68400000Y-101254000I51000J0D01*
G01*
X69400000Y-101254000D01*
G75*
G02*
X69451000Y-101305000I0J-51000D01*
G01*
X69451000Y-104055000D01*
G75*
G02*
X69400000Y-104106000I-51000J0D01*
G01*
X68400000Y-104106000D01*
G75*
G02*
X68349000Y-104055000I0J51000D01*
G01*
G37*
G36*
G01*
X58349000Y-104055000D02*
X58349000Y-101305000D01*
G75*
G02*
X58400000Y-101254000I51000J0D01*
G01*
X59400000Y-101254000D01*
G75*
G02*
X59451000Y-101305000I0J-51000D01*
G01*
X59451000Y-104055000D01*
G75*
G02*
X59400000Y-104106000I-51000J0D01*
G01*
X58400000Y-104106000D01*
G75*
G02*
X58349000Y-104055000I0J51000D01*
G01*
G37*
G36*
G01*
X64349000Y-104055000D02*
X64349000Y-101305000D01*
G75*
G02*
X64400000Y-101254000I51000J0D01*
G01*
X65400000Y-101254000D01*
G75*
G02*
X65451000Y-101305000I0J-51000D01*
G01*
X65451000Y-104055000D01*
G75*
G02*
X65400000Y-104106000I-51000J0D01*
G01*
X64400000Y-104106000D01*
G75*
G02*
X64349000Y-104055000I0J51000D01*
G01*
G37*
X67900000Y-104810000D03*
G36*
G01*
X56349000Y-104055000D02*
X56349000Y-101305000D01*
G75*
G02*
X56400000Y-101254000I51000J0D01*
G01*
X57400000Y-101254000D01*
G75*
G02*
X57451000Y-101305000I0J-51000D01*
G01*
X57451000Y-104055000D01*
G75*
G02*
X57400000Y-104106000I-51000J0D01*
G01*
X56400000Y-104106000D01*
G75*
G02*
X56349000Y-104055000I0J51000D01*
G01*
G37*
G36*
G01*
X64349000Y-108315000D02*
X64349000Y-105565000D01*
G75*
G02*
X64400000Y-105514000I51000J0D01*
G01*
X65400000Y-105514000D01*
G75*
G02*
X65451000Y-105565000I0J-51000D01*
G01*
X65451000Y-108315000D01*
G75*
G02*
X65400000Y-108366000I-51000J0D01*
G01*
X64400000Y-108366000D01*
G75*
G02*
X64349000Y-108315000I0J51000D01*
G01*
G37*
G36*
G01*
X66349000Y-104055000D02*
X66349000Y-101305000D01*
G75*
G02*
X66400000Y-101254000I51000J0D01*
G01*
X67400000Y-101254000D01*
G75*
G02*
X67451000Y-101305000I0J-51000D01*
G01*
X67451000Y-104055000D01*
G75*
G02*
X67400000Y-104106000I-51000J0D01*
G01*
X66400000Y-104106000D01*
G75*
G02*
X66349000Y-104055000I0J51000D01*
G01*
G37*
G36*
G01*
X62349000Y-104055000D02*
X62349000Y-101305000D01*
G75*
G02*
X62400000Y-101254000I51000J0D01*
G01*
X63400000Y-101254000D01*
G75*
G02*
X63451000Y-101305000I0J-51000D01*
G01*
X63451000Y-104055000D01*
G75*
G02*
X63400000Y-104106000I-51000J0D01*
G01*
X62400000Y-104106000D01*
G75*
G02*
X62349000Y-104055000I0J51000D01*
G01*
G37*
G36*
G01*
X60349000Y-108315000D02*
X60349000Y-105565000D01*
G75*
G02*
X60400000Y-105514000I51000J0D01*
G01*
X61400000Y-105514000D01*
G75*
G02*
X61451000Y-105565000I0J-51000D01*
G01*
X61451000Y-108315000D01*
G75*
G02*
X61400000Y-108366000I-51000J0D01*
G01*
X60400000Y-108366000D01*
G75*
G02*
X60349000Y-108315000I0J51000D01*
G01*
G37*
G36*
G01*
X68349000Y-108315000D02*
X68349000Y-105565000D01*
G75*
G02*
X68400000Y-105514000I51000J0D01*
G01*
X69400000Y-105514000D01*
G75*
G02*
X69451000Y-105565000I0J-51000D01*
G01*
X69451000Y-108315000D01*
G75*
G02*
X69400000Y-108366000I-51000J0D01*
G01*
X68400000Y-108366000D01*
G75*
G02*
X68349000Y-108315000I0J51000D01*
G01*
G37*
G36*
G01*
X22285000Y-71149000D02*
X25035000Y-71149000D01*
G75*
G02*
X25086000Y-71200000I0J-51000D01*
G01*
X25086000Y-72200000D01*
G75*
G02*
X25035000Y-72251000I-51000J0D01*
G01*
X22285000Y-72251000D01*
G75*
G02*
X22234000Y-72200000I0J51000D01*
G01*
X22234000Y-71200000D01*
G75*
G02*
X22285000Y-71149000I51000J0D01*
G01*
G37*
G36*
G01*
X22285000Y-77149000D02*
X25035000Y-77149000D01*
G75*
G02*
X25086000Y-77200000I0J-51000D01*
G01*
X25086000Y-78200000D01*
G75*
G02*
X25035000Y-78251000I-51000J0D01*
G01*
X22285000Y-78251000D01*
G75*
G02*
X22234000Y-78200000I0J51000D01*
G01*
X22234000Y-77200000D01*
G75*
G02*
X22285000Y-77149000I51000J0D01*
G01*
G37*
G36*
G01*
X22285000Y-81149000D02*
X25035000Y-81149000D01*
G75*
G02*
X25086000Y-81200000I0J-51000D01*
G01*
X25086000Y-82200000D01*
G75*
G02*
X25035000Y-82251000I-51000J0D01*
G01*
X22285000Y-82251000D01*
G75*
G02*
X22234000Y-82200000I0J51000D01*
G01*
X22234000Y-81200000D01*
G75*
G02*
X22285000Y-81149000I51000J0D01*
G01*
G37*
X25790000Y-72700000D03*
G36*
G01*
X26545000Y-75149000D02*
X29295000Y-75149000D01*
G75*
G02*
X29346000Y-75200000I0J-51000D01*
G01*
X29346000Y-76200000D01*
G75*
G02*
X29295000Y-76251000I-51000J0D01*
G01*
X26545000Y-76251000D01*
G75*
G02*
X26494000Y-76200000I0J51000D01*
G01*
X26494000Y-75200000D01*
G75*
G02*
X26545000Y-75149000I51000J0D01*
G01*
G37*
G36*
G01*
X22285000Y-73149000D02*
X25035000Y-73149000D01*
G75*
G02*
X25086000Y-73200000I0J-51000D01*
G01*
X25086000Y-74200000D01*
G75*
G02*
X25035000Y-74251000I-51000J0D01*
G01*
X22285000Y-74251000D01*
G75*
G02*
X22234000Y-74200000I0J51000D01*
G01*
X22234000Y-73200000D01*
G75*
G02*
X22285000Y-73149000I51000J0D01*
G01*
G37*
G36*
G01*
X26545000Y-83149000D02*
X29295000Y-83149000D01*
G75*
G02*
X29346000Y-83200000I0J-51000D01*
G01*
X29346000Y-84200000D01*
G75*
G02*
X29295000Y-84251000I-51000J0D01*
G01*
X26545000Y-84251000D01*
G75*
G02*
X26494000Y-84200000I0J51000D01*
G01*
X26494000Y-83200000D01*
G75*
G02*
X26545000Y-83149000I51000J0D01*
G01*
G37*
G36*
G01*
X26545000Y-73149000D02*
X29295000Y-73149000D01*
G75*
G02*
X29346000Y-73200000I0J-51000D01*
G01*
X29346000Y-74200000D01*
G75*
G02*
X29295000Y-74251000I-51000J0D01*
G01*
X26545000Y-74251000D01*
G75*
G02*
X26494000Y-74200000I0J51000D01*
G01*
X26494000Y-73200000D01*
G75*
G02*
X26545000Y-73149000I51000J0D01*
G01*
G37*
G36*
G01*
X26545000Y-79149000D02*
X29295000Y-79149000D01*
G75*
G02*
X29346000Y-79200000I0J-51000D01*
G01*
X29346000Y-80200000D01*
G75*
G02*
X29295000Y-80251000I-51000J0D01*
G01*
X26545000Y-80251000D01*
G75*
G02*
X26494000Y-80200000I0J51000D01*
G01*
X26494000Y-79200000D01*
G75*
G02*
X26545000Y-79149000I51000J0D01*
G01*
G37*
X25790000Y-82700000D03*
G36*
G01*
X26545000Y-71149000D02*
X29295000Y-71149000D01*
G75*
G02*
X29346000Y-71200000I0J-51000D01*
G01*
X29346000Y-72200000D01*
G75*
G02*
X29295000Y-72251000I-51000J0D01*
G01*
X26545000Y-72251000D01*
G75*
G02*
X26494000Y-72200000I0J51000D01*
G01*
X26494000Y-71200000D01*
G75*
G02*
X26545000Y-71149000I51000J0D01*
G01*
G37*
G36*
G01*
X22285000Y-79149000D02*
X25035000Y-79149000D01*
G75*
G02*
X25086000Y-79200000I0J-51000D01*
G01*
X25086000Y-80200000D01*
G75*
G02*
X25035000Y-80251000I-51000J0D01*
G01*
X22285000Y-80251000D01*
G75*
G02*
X22234000Y-80200000I0J51000D01*
G01*
X22234000Y-79200000D01*
G75*
G02*
X22285000Y-79149000I51000J0D01*
G01*
G37*
G36*
G01*
X26545000Y-81149000D02*
X29295000Y-81149000D01*
G75*
G02*
X29346000Y-81200000I0J-51000D01*
G01*
X29346000Y-82200000D01*
G75*
G02*
X29295000Y-82251000I-51000J0D01*
G01*
X26545000Y-82251000D01*
G75*
G02*
X26494000Y-82200000I0J51000D01*
G01*
X26494000Y-81200000D01*
G75*
G02*
X26545000Y-81149000I51000J0D01*
G01*
G37*
G36*
G01*
X26545000Y-77149000D02*
X29295000Y-77149000D01*
G75*
G02*
X29346000Y-77200000I0J-51000D01*
G01*
X29346000Y-78200000D01*
G75*
G02*
X29295000Y-78251000I-51000J0D01*
G01*
X26545000Y-78251000D01*
G75*
G02*
X26494000Y-78200000I0J51000D01*
G01*
X26494000Y-77200000D01*
G75*
G02*
X26545000Y-77149000I51000J0D01*
G01*
G37*
G36*
G01*
X22285000Y-75149000D02*
X25035000Y-75149000D01*
G75*
G02*
X25086000Y-75200000I0J-51000D01*
G01*
X25086000Y-76200000D01*
G75*
G02*
X25035000Y-76251000I-51000J0D01*
G01*
X22285000Y-76251000D01*
G75*
G02*
X22234000Y-76200000I0J51000D01*
G01*
X22234000Y-75200000D01*
G75*
G02*
X22285000Y-75149000I51000J0D01*
G01*
G37*
G36*
G01*
X22285000Y-83149000D02*
X25035000Y-83149000D01*
G75*
G02*
X25086000Y-83200000I0J-51000D01*
G01*
X25086000Y-84200000D01*
G75*
G02*
X25035000Y-84251000I-51000J0D01*
G01*
X22285000Y-84251000D01*
G75*
G02*
X22234000Y-84200000I0J51000D01*
G01*
X22234000Y-83200000D01*
G75*
G02*
X22285000Y-83149000I51000J0D01*
G01*
G37*
G36*
G01*
X30649000Y-108315000D02*
X30649000Y-105565000D01*
G75*
G02*
X30700000Y-105514000I51000J0D01*
G01*
X31700000Y-105514000D01*
G75*
G02*
X31751000Y-105565000I0J-51000D01*
G01*
X31751000Y-108315000D01*
G75*
G02*
X31700000Y-108366000I-51000J0D01*
G01*
X30700000Y-108366000D01*
G75*
G02*
X30649000Y-108315000I0J51000D01*
G01*
G37*
G36*
G01*
X36649000Y-108315000D02*
X36649000Y-105565000D01*
G75*
G02*
X36700000Y-105514000I51000J0D01*
G01*
X37700000Y-105514000D01*
G75*
G02*
X37751000Y-105565000I0J-51000D01*
G01*
X37751000Y-108315000D01*
G75*
G02*
X37700000Y-108366000I-51000J0D01*
G01*
X36700000Y-108366000D01*
G75*
G02*
X36649000Y-108315000I0J51000D01*
G01*
G37*
G36*
G01*
X40649000Y-108315000D02*
X40649000Y-105565000D01*
G75*
G02*
X40700000Y-105514000I51000J0D01*
G01*
X41700000Y-105514000D01*
G75*
G02*
X41751000Y-105565000I0J-51000D01*
G01*
X41751000Y-108315000D01*
G75*
G02*
X41700000Y-108366000I-51000J0D01*
G01*
X40700000Y-108366000D01*
G75*
G02*
X40649000Y-108315000I0J51000D01*
G01*
G37*
X32200000Y-104810000D03*
G36*
G01*
X34649000Y-104055000D02*
X34649000Y-101305000D01*
G75*
G02*
X34700000Y-101254000I51000J0D01*
G01*
X35700000Y-101254000D01*
G75*
G02*
X35751000Y-101305000I0J-51000D01*
G01*
X35751000Y-104055000D01*
G75*
G02*
X35700000Y-104106000I-51000J0D01*
G01*
X34700000Y-104106000D01*
G75*
G02*
X34649000Y-104055000I0J51000D01*
G01*
G37*
G36*
G01*
X32649000Y-108315000D02*
X32649000Y-105565000D01*
G75*
G02*
X32700000Y-105514000I51000J0D01*
G01*
X33700000Y-105514000D01*
G75*
G02*
X33751000Y-105565000I0J-51000D01*
G01*
X33751000Y-108315000D01*
G75*
G02*
X33700000Y-108366000I-51000J0D01*
G01*
X32700000Y-108366000D01*
G75*
G02*
X32649000Y-108315000I0J51000D01*
G01*
G37*
G36*
G01*
X42649000Y-104055000D02*
X42649000Y-101305000D01*
G75*
G02*
X42700000Y-101254000I51000J0D01*
G01*
X43700000Y-101254000D01*
G75*
G02*
X43751000Y-101305000I0J-51000D01*
G01*
X43751000Y-104055000D01*
G75*
G02*
X43700000Y-104106000I-51000J0D01*
G01*
X42700000Y-104106000D01*
G75*
G02*
X42649000Y-104055000I0J51000D01*
G01*
G37*
G36*
G01*
X32649000Y-104055000D02*
X32649000Y-101305000D01*
G75*
G02*
X32700000Y-101254000I51000J0D01*
G01*
X33700000Y-101254000D01*
G75*
G02*
X33751000Y-101305000I0J-51000D01*
G01*
X33751000Y-104055000D01*
G75*
G02*
X33700000Y-104106000I-51000J0D01*
G01*
X32700000Y-104106000D01*
G75*
G02*
X32649000Y-104055000I0J51000D01*
G01*
G37*
G36*
G01*
X38649000Y-104055000D02*
X38649000Y-101305000D01*
G75*
G02*
X38700000Y-101254000I51000J0D01*
G01*
X39700000Y-101254000D01*
G75*
G02*
X39751000Y-101305000I0J-51000D01*
G01*
X39751000Y-104055000D01*
G75*
G02*
X39700000Y-104106000I-51000J0D01*
G01*
X38700000Y-104106000D01*
G75*
G02*
X38649000Y-104055000I0J51000D01*
G01*
G37*
X42200000Y-104810000D03*
G36*
G01*
X30649000Y-104055000D02*
X30649000Y-101305000D01*
G75*
G02*
X30700000Y-101254000I51000J0D01*
G01*
X31700000Y-101254000D01*
G75*
G02*
X31751000Y-101305000I0J-51000D01*
G01*
X31751000Y-104055000D01*
G75*
G02*
X31700000Y-104106000I-51000J0D01*
G01*
X30700000Y-104106000D01*
G75*
G02*
X30649000Y-104055000I0J51000D01*
G01*
G37*
G36*
G01*
X38649000Y-108315000D02*
X38649000Y-105565000D01*
G75*
G02*
X38700000Y-105514000I51000J0D01*
G01*
X39700000Y-105514000D01*
G75*
G02*
X39751000Y-105565000I0J-51000D01*
G01*
X39751000Y-108315000D01*
G75*
G02*
X39700000Y-108366000I-51000J0D01*
G01*
X38700000Y-108366000D01*
G75*
G02*
X38649000Y-108315000I0J51000D01*
G01*
G37*
G36*
G01*
X40649000Y-104055000D02*
X40649000Y-101305000D01*
G75*
G02*
X40700000Y-101254000I51000J0D01*
G01*
X41700000Y-101254000D01*
G75*
G02*
X41751000Y-101305000I0J-51000D01*
G01*
X41751000Y-104055000D01*
G75*
G02*
X41700000Y-104106000I-51000J0D01*
G01*
X40700000Y-104106000D01*
G75*
G02*
X40649000Y-104055000I0J51000D01*
G01*
G37*
G36*
G01*
X36649000Y-104055000D02*
X36649000Y-101305000D01*
G75*
G02*
X36700000Y-101254000I51000J0D01*
G01*
X37700000Y-101254000D01*
G75*
G02*
X37751000Y-101305000I0J-51000D01*
G01*
X37751000Y-104055000D01*
G75*
G02*
X37700000Y-104106000I-51000J0D01*
G01*
X36700000Y-104106000D01*
G75*
G02*
X36649000Y-104055000I0J51000D01*
G01*
G37*
G36*
G01*
X34649000Y-108315000D02*
X34649000Y-105565000D01*
G75*
G02*
X34700000Y-105514000I51000J0D01*
G01*
X35700000Y-105514000D01*
G75*
G02*
X35751000Y-105565000I0J-51000D01*
G01*
X35751000Y-108315000D01*
G75*
G02*
X35700000Y-108366000I-51000J0D01*
G01*
X34700000Y-108366000D01*
G75*
G02*
X34649000Y-108315000I0J51000D01*
G01*
G37*
G36*
G01*
X42649000Y-108315000D02*
X42649000Y-105565000D01*
G75*
G02*
X42700000Y-105514000I51000J0D01*
G01*
X43700000Y-105514000D01*
G75*
G02*
X43751000Y-105565000I0J-51000D01*
G01*
X43751000Y-108315000D01*
G75*
G02*
X43700000Y-108366000I-51000J0D01*
G01*
X42700000Y-108366000D01*
G75*
G02*
X42649000Y-108315000I0J51000D01*
G01*
G37*
D17*
X78000000Y-108000000D03*
X22000000Y-108000000D03*
X78000000Y-22000000D03*
X22000000Y-22000000D03*
G36*
G01*
X74000000Y-44799000D02*
X75600000Y-44799000D01*
G75*
G02*
X75651000Y-44850000I0J-51000D01*
G01*
X75651000Y-46150000D01*
G75*
G02*
X75600000Y-46201000I-51000J0D01*
G01*
X74000000Y-46201000D01*
G75*
G02*
X73949000Y-46150000I0J51000D01*
G01*
X73949000Y-44850000D01*
G75*
G02*
X74000000Y-44799000I51000J0D01*
G01*
G37*
G36*
G01*
X74000000Y-46699000D02*
X75600000Y-46699000D01*
G75*
G02*
X75651000Y-46750000I0J-51000D01*
G01*
X75651000Y-48050000D01*
G75*
G02*
X75600000Y-48101000I-51000J0D01*
G01*
X74000000Y-48101000D01*
G75*
G02*
X73949000Y-48050000I0J51000D01*
G01*
X73949000Y-46750000D01*
G75*
G02*
X74000000Y-46699000I51000J0D01*
G01*
G37*
G36*
G01*
X74000000Y-48599000D02*
X75600000Y-48599000D01*
G75*
G02*
X75651000Y-48650000I0J-51000D01*
G01*
X75651000Y-49950000D01*
G75*
G02*
X75600000Y-50001000I-51000J0D01*
G01*
X74000000Y-50001000D01*
G75*
G02*
X73949000Y-49950000I0J51000D01*
G01*
X73949000Y-48650000D01*
G75*
G02*
X74000000Y-48599000I51000J0D01*
G01*
G37*
G36*
G01*
X74000000Y-50399000D02*
X75600000Y-50399000D01*
G75*
G02*
X75651000Y-50450000I0J-51000D01*
G01*
X75651000Y-51750000D01*
G75*
G02*
X75600000Y-51801000I-51000J0D01*
G01*
X74000000Y-51801000D01*
G75*
G02*
X73949000Y-51750000I0J51000D01*
G01*
X73949000Y-50450000D01*
G75*
G02*
X74000000Y-50399000I51000J0D01*
G01*
G37*
G36*
G01*
X74000000Y-52299000D02*
X75600000Y-52299000D01*
G75*
G02*
X75651000Y-52350000I0J-51000D01*
G01*
X75651000Y-53650000D01*
G75*
G02*
X75600000Y-53701000I-51000J0D01*
G01*
X74000000Y-53701000D01*
G75*
G02*
X73949000Y-53650000I0J51000D01*
G01*
X73949000Y-52350000D01*
G75*
G02*
X74000000Y-52299000I51000J0D01*
G01*
G37*
G36*
G01*
X60600000Y-52299000D02*
X62200000Y-52299000D01*
G75*
G02*
X62251000Y-52350000I0J-51000D01*
G01*
X62251000Y-53650000D01*
G75*
G02*
X62200000Y-53701000I-51000J0D01*
G01*
X60600000Y-53701000D01*
G75*
G02*
X60549000Y-53650000I0J51000D01*
G01*
X60549000Y-52350000D01*
G75*
G02*
X60600000Y-52299000I51000J0D01*
G01*
G37*
G36*
G01*
X60600000Y-50399000D02*
X62200000Y-50399000D01*
G75*
G02*
X62251000Y-50450000I0J-51000D01*
G01*
X62251000Y-51750000D01*
G75*
G02*
X62200000Y-51801000I-51000J0D01*
G01*
X60600000Y-51801000D01*
G75*
G02*
X60549000Y-51750000I0J51000D01*
G01*
X60549000Y-50450000D01*
G75*
G02*
X60600000Y-50399000I51000J0D01*
G01*
G37*
G36*
G01*
X60600000Y-48499000D02*
X62200000Y-48499000D01*
G75*
G02*
X62251000Y-48550000I0J-51000D01*
G01*
X62251000Y-49850000D01*
G75*
G02*
X62200000Y-49901000I-51000J0D01*
G01*
X60600000Y-49901000D01*
G75*
G02*
X60549000Y-49850000I0J51000D01*
G01*
X60549000Y-48550000D01*
G75*
G02*
X60600000Y-48499000I51000J0D01*
G01*
G37*
G36*
G01*
X60600000Y-46599000D02*
X62200000Y-46599000D01*
G75*
G02*
X62251000Y-46650000I0J-51000D01*
G01*
X62251000Y-47950000D01*
G75*
G02*
X62200000Y-48001000I-51000J0D01*
G01*
X60600000Y-48001000D01*
G75*
G02*
X60549000Y-47950000I0J51000D01*
G01*
X60549000Y-46650000D01*
G75*
G02*
X60600000Y-46599000I51000J0D01*
G01*
G37*
G36*
G01*
X60600000Y-44699000D02*
X62200000Y-44699000D01*
G75*
G02*
X62251000Y-44750000I0J-51000D01*
G01*
X62251000Y-46050000D01*
G75*
G02*
X62200000Y-46101000I-51000J0D01*
G01*
X60600000Y-46101000D01*
G75*
G02*
X60549000Y-46050000I0J51000D01*
G01*
X60549000Y-44750000D01*
G75*
G02*
X60600000Y-44699000I51000J0D01*
G01*
G37*
G36*
G01*
X25999000Y-22550000D02*
X25999000Y-21050000D01*
G75*
G02*
X26050000Y-20999000I51000J0D01*
G01*
X28050000Y-20999000D01*
G75*
G02*
X28101000Y-21050000I0J-51000D01*
G01*
X28101000Y-22550000D01*
G75*
G02*
X28050000Y-22601000I-51000J0D01*
G01*
X26050000Y-22601000D01*
G75*
G02*
X25999000Y-22550000I0J51000D01*
G01*
G37*
G36*
G01*
X25999000Y-27150000D02*
X25999000Y-25650000D01*
G75*
G02*
X26050000Y-25599000I51000J0D01*
G01*
X28050000Y-25599000D01*
G75*
G02*
X28101000Y-25650000I0J-51000D01*
G01*
X28101000Y-27150000D01*
G75*
G02*
X28050000Y-27201000I-51000J0D01*
G01*
X26050000Y-27201000D01*
G75*
G02*
X25999000Y-27150000I0J51000D01*
G01*
G37*
G36*
G01*
X25999000Y-24850000D02*
X25999000Y-23350000D01*
G75*
G02*
X26050000Y-23299000I51000J0D01*
G01*
X28050000Y-23299000D01*
G75*
G02*
X28101000Y-23350000I0J-51000D01*
G01*
X28101000Y-24850000D01*
G75*
G02*
X28050000Y-24901000I-51000J0D01*
G01*
X26050000Y-24901000D01*
G75*
G02*
X25999000Y-24850000I0J51000D01*
G01*
G37*
G36*
G01*
X32299000Y-26000000D02*
X32299000Y-22200000D01*
G75*
G02*
X32350000Y-22149000I51000J0D01*
G01*
X34350000Y-22149000D01*
G75*
G02*
X34401000Y-22200000I0J-51000D01*
G01*
X34401000Y-26000000D01*
G75*
G02*
X34350000Y-26051000I-51000J0D01*
G01*
X32350000Y-26051000D01*
G75*
G02*
X32299000Y-26000000I0J51000D01*
G01*
G37*
G36*
G01*
X52639000Y-78825500D02*
X52639000Y-78574500D01*
G75*
G02*
X52764500Y-78449000I125500J0D01*
G01*
X53075500Y-78449000D01*
G75*
G02*
X53201000Y-78574500I0J-125500D01*
G01*
X53201000Y-78825500D01*
G75*
G02*
X53075500Y-78951000I-125500J0D01*
G01*
X52764500Y-78951000D01*
G75*
G02*
X52639000Y-78825500I0J125500D01*
G01*
G37*
G36*
G01*
X51999000Y-78825500D02*
X51999000Y-78574500D01*
G75*
G02*
X52124500Y-78449000I125500J0D01*
G01*
X52435500Y-78449000D01*
G75*
G02*
X52561000Y-78574500I0J-125500D01*
G01*
X52561000Y-78825500D01*
G75*
G02*
X52435500Y-78951000I-125500J0D01*
G01*
X52124500Y-78951000D01*
G75*
G02*
X51999000Y-78825500I0J125500D01*
G01*
G37*
G36*
G01*
X55439000Y-35325500D02*
X55439000Y-35074500D01*
G75*
G02*
X55564500Y-34949000I125500J0D01*
G01*
X55875500Y-34949000D01*
G75*
G02*
X56001000Y-35074500I0J-125500D01*
G01*
X56001000Y-35325500D01*
G75*
G02*
X55875500Y-35451000I-125500J0D01*
G01*
X55564500Y-35451000D01*
G75*
G02*
X55439000Y-35325500I0J125500D01*
G01*
G37*
G36*
G01*
X54799000Y-35325500D02*
X54799000Y-35074500D01*
G75*
G02*
X54924500Y-34949000I125500J0D01*
G01*
X55235500Y-34949000D01*
G75*
G02*
X55361000Y-35074500I0J-125500D01*
G01*
X55361000Y-35325500D01*
G75*
G02*
X55235500Y-35451000I-125500J0D01*
G01*
X54924500Y-35451000D01*
G75*
G02*
X54799000Y-35325500I0J125500D01*
G01*
G37*
G36*
G01*
X71201000Y-91449999D02*
X71201000Y-97250001D01*
G75*
G02*
X71150001Y-97301000I-50999J0D01*
G01*
X64749999Y-97301000D01*
G75*
G02*
X64699000Y-97250001I0J50999D01*
G01*
X64699000Y-91449999D01*
G75*
G02*
X64749999Y-91399000I50999J0D01*
G01*
X71150001Y-91399000D01*
G75*
G02*
X71201000Y-91449999I0J-50999D01*
G01*
G37*
G36*
G01*
X75401000Y-91469999D02*
X75401000Y-92670001D01*
G75*
G02*
X75350001Y-92721000I-50999J0D01*
G01*
X73149999Y-92721000D01*
G75*
G02*
X73099000Y-92670001I0J50999D01*
G01*
X73099000Y-91469999D01*
G75*
G02*
X73149999Y-91419000I50999J0D01*
G01*
X75350001Y-91419000D01*
G75*
G02*
X75401000Y-91469999I0J-50999D01*
G01*
G37*
G36*
G01*
X75401000Y-96029999D02*
X75401000Y-97230001D01*
G75*
G02*
X75350001Y-97281000I-50999J0D01*
G01*
X73149999Y-97281000D01*
G75*
G02*
X73099000Y-97230001I0J50999D01*
G01*
X73099000Y-96029999D01*
G75*
G02*
X73149999Y-95979000I50999J0D01*
G01*
X75350001Y-95979000D01*
G75*
G02*
X75401000Y-96029999I0J-50999D01*
G01*
G37*
G36*
G01*
X55251000Y-91649999D02*
X55251000Y-97450001D01*
G75*
G02*
X55200001Y-97501000I-50999J0D01*
G01*
X48799999Y-97501000D01*
G75*
G02*
X48749000Y-97450001I0J50999D01*
G01*
X48749000Y-91649999D01*
G75*
G02*
X48799999Y-91599000I50999J0D01*
G01*
X55200001Y-91599000D01*
G75*
G02*
X55251000Y-91649999I0J-50999D01*
G01*
G37*
G36*
G01*
X59451000Y-91669999D02*
X59451000Y-92870001D01*
G75*
G02*
X59400001Y-92921000I-50999J0D01*
G01*
X57199999Y-92921000D01*
G75*
G02*
X57149000Y-92870001I0J50999D01*
G01*
X57149000Y-91669999D01*
G75*
G02*
X57199999Y-91619000I50999J0D01*
G01*
X59400001Y-91619000D01*
G75*
G02*
X59451000Y-91669999I0J-50999D01*
G01*
G37*
G36*
G01*
X59451000Y-96229999D02*
X59451000Y-97430001D01*
G75*
G02*
X59400001Y-97481000I-50999J0D01*
G01*
X57199999Y-97481000D01*
G75*
G02*
X57149000Y-97430001I0J50999D01*
G01*
X57149000Y-96229999D01*
G75*
G02*
X57199999Y-96179000I50999J0D01*
G01*
X59400001Y-96179000D01*
G75*
G02*
X59451000Y-96229999I0J-50999D01*
G01*
G37*
G36*
G01*
X38301000Y-91649999D02*
X38301000Y-97450001D01*
G75*
G02*
X38250001Y-97501000I-50999J0D01*
G01*
X31849999Y-97501000D01*
G75*
G02*
X31799000Y-97450001I0J50999D01*
G01*
X31799000Y-91649999D01*
G75*
G02*
X31849999Y-91599000I50999J0D01*
G01*
X38250001Y-91599000D01*
G75*
G02*
X38301000Y-91649999I0J-50999D01*
G01*
G37*
G36*
G01*
X42501000Y-91669999D02*
X42501000Y-92870001D01*
G75*
G02*
X42450001Y-92921000I-50999J0D01*
G01*
X40249999Y-92921000D01*
G75*
G02*
X40199000Y-92870001I0J50999D01*
G01*
X40199000Y-91669999D01*
G75*
G02*
X40249999Y-91619000I50999J0D01*
G01*
X42450001Y-91619000D01*
G75*
G02*
X42501000Y-91669999I0J-50999D01*
G01*
G37*
G36*
G01*
X42501000Y-96229999D02*
X42501000Y-97430001D01*
G75*
G02*
X42450001Y-97481000I-50999J0D01*
G01*
X40249999Y-97481000D01*
G75*
G02*
X40199000Y-97430001I0J50999D01*
G01*
X40199000Y-96229999D01*
G75*
G02*
X40249999Y-96179000I50999J0D01*
G01*
X42450001Y-96179000D01*
G75*
G02*
X42501000Y-96229999I0J-50999D01*
G01*
G37*
G36*
G01*
X71201000Y-80349999D02*
X71201000Y-86150001D01*
G75*
G02*
X71150001Y-86201000I-50999J0D01*
G01*
X64749999Y-86201000D01*
G75*
G02*
X64699000Y-86150001I0J50999D01*
G01*
X64699000Y-80349999D01*
G75*
G02*
X64749999Y-80299000I50999J0D01*
G01*
X71150001Y-80299000D01*
G75*
G02*
X71201000Y-80349999I0J-50999D01*
G01*
G37*
G36*
G01*
X75401000Y-80369999D02*
X75401000Y-81570001D01*
G75*
G02*
X75350001Y-81621000I-50999J0D01*
G01*
X73149999Y-81621000D01*
G75*
G02*
X73099000Y-81570001I0J50999D01*
G01*
X73099000Y-80369999D01*
G75*
G02*
X73149999Y-80319000I50999J0D01*
G01*
X75350001Y-80319000D01*
G75*
G02*
X75401000Y-80369999I0J-50999D01*
G01*
G37*
G36*
G01*
X75401000Y-84929999D02*
X75401000Y-86130001D01*
G75*
G02*
X75350001Y-86181000I-50999J0D01*
G01*
X73149999Y-86181000D01*
G75*
G02*
X73099000Y-86130001I0J50999D01*
G01*
X73099000Y-84929999D01*
G75*
G02*
X73149999Y-84879000I50999J0D01*
G01*
X75350001Y-84879000D01*
G75*
G02*
X75401000Y-84929999I0J-50999D01*
G01*
G37*
G36*
G01*
X55251000Y-80349999D02*
X55251000Y-86150001D01*
G75*
G02*
X55200001Y-86201000I-50999J0D01*
G01*
X48799999Y-86201000D01*
G75*
G02*
X48749000Y-86150001I0J50999D01*
G01*
X48749000Y-80349999D01*
G75*
G02*
X48799999Y-80299000I50999J0D01*
G01*
X55200001Y-80299000D01*
G75*
G02*
X55251000Y-80349999I0J-50999D01*
G01*
G37*
G36*
G01*
X59451000Y-80369999D02*
X59451000Y-81570001D01*
G75*
G02*
X59400001Y-81621000I-50999J0D01*
G01*
X57199999Y-81621000D01*
G75*
G02*
X57149000Y-81570001I0J50999D01*
G01*
X57149000Y-80369999D01*
G75*
G02*
X57199999Y-80319000I50999J0D01*
G01*
X59400001Y-80319000D01*
G75*
G02*
X59451000Y-80369999I0J-50999D01*
G01*
G37*
G36*
G01*
X59451000Y-84929999D02*
X59451000Y-86130001D01*
G75*
G02*
X59400001Y-86181000I-50999J0D01*
G01*
X57199999Y-86181000D01*
G75*
G02*
X57149000Y-86130001I0J50999D01*
G01*
X57149000Y-84929999D01*
G75*
G02*
X57199999Y-84879000I50999J0D01*
G01*
X59400001Y-84879000D01*
G75*
G02*
X59451000Y-84929999I0J-50999D01*
G01*
G37*
G36*
G01*
X38301000Y-80349999D02*
X38301000Y-86150001D01*
G75*
G02*
X38250001Y-86201000I-50999J0D01*
G01*
X31849999Y-86201000D01*
G75*
G02*
X31799000Y-86150001I0J50999D01*
G01*
X31799000Y-80349999D01*
G75*
G02*
X31849999Y-80299000I50999J0D01*
G01*
X38250001Y-80299000D01*
G75*
G02*
X38301000Y-80349999I0J-50999D01*
G01*
G37*
G36*
G01*
X42501000Y-80369999D02*
X42501000Y-81570001D01*
G75*
G02*
X42450001Y-81621000I-50999J0D01*
G01*
X40249999Y-81621000D01*
G75*
G02*
X40199000Y-81570001I0J50999D01*
G01*
X40199000Y-80369999D01*
G75*
G02*
X40249999Y-80319000I50999J0D01*
G01*
X42450001Y-80319000D01*
G75*
G02*
X42501000Y-80369999I0J-50999D01*
G01*
G37*
G36*
G01*
X42501000Y-84929999D02*
X42501000Y-86130001D01*
G75*
G02*
X42450001Y-86181000I-50999J0D01*
G01*
X40249999Y-86181000D01*
G75*
G02*
X40199000Y-86130001I0J50999D01*
G01*
X40199000Y-84929999D01*
G75*
G02*
X40249999Y-84879000I50999J0D01*
G01*
X42450001Y-84879000D01*
G75*
G02*
X42501000Y-84929999I0J-50999D01*
G01*
G37*
G36*
G01*
X71201000Y-69049999D02*
X71201000Y-74850001D01*
G75*
G02*
X71150001Y-74901000I-50999J0D01*
G01*
X64749999Y-74901000D01*
G75*
G02*
X64699000Y-74850001I0J50999D01*
G01*
X64699000Y-69049999D01*
G75*
G02*
X64749999Y-68999000I50999J0D01*
G01*
X71150001Y-68999000D01*
G75*
G02*
X71201000Y-69049999I0J-50999D01*
G01*
G37*
G36*
G01*
X75401000Y-69069999D02*
X75401000Y-70270001D01*
G75*
G02*
X75350001Y-70321000I-50999J0D01*
G01*
X73149999Y-70321000D01*
G75*
G02*
X73099000Y-70270001I0J50999D01*
G01*
X73099000Y-69069999D01*
G75*
G02*
X73149999Y-69019000I50999J0D01*
G01*
X75350001Y-69019000D01*
G75*
G02*
X75401000Y-69069999I0J-50999D01*
G01*
G37*
G36*
G01*
X75401000Y-73629999D02*
X75401000Y-74830001D01*
G75*
G02*
X75350001Y-74881000I-50999J0D01*
G01*
X73149999Y-74881000D01*
G75*
G02*
X73099000Y-74830001I0J50999D01*
G01*
X73099000Y-73629999D01*
G75*
G02*
X73149999Y-73579000I50999J0D01*
G01*
X75350001Y-73579000D01*
G75*
G02*
X75401000Y-73629999I0J-50999D01*
G01*
G37*
G36*
G01*
X55251000Y-69049999D02*
X55251000Y-74850001D01*
G75*
G02*
X55200001Y-74901000I-50999J0D01*
G01*
X48799999Y-74901000D01*
G75*
G02*
X48749000Y-74850001I0J50999D01*
G01*
X48749000Y-69049999D01*
G75*
G02*
X48799999Y-68999000I50999J0D01*
G01*
X55200001Y-68999000D01*
G75*
G02*
X55251000Y-69049999I0J-50999D01*
G01*
G37*
G36*
G01*
X59451000Y-69069999D02*
X59451000Y-70270001D01*
G75*
G02*
X59400001Y-70321000I-50999J0D01*
G01*
X57199999Y-70321000D01*
G75*
G02*
X57149000Y-70270001I0J50999D01*
G01*
X57149000Y-69069999D01*
G75*
G02*
X57199999Y-69019000I50999J0D01*
G01*
X59400001Y-69019000D01*
G75*
G02*
X59451000Y-69069999I0J-50999D01*
G01*
G37*
G36*
G01*
X59451000Y-73629999D02*
X59451000Y-74830001D01*
G75*
G02*
X59400001Y-74881000I-50999J0D01*
G01*
X57199999Y-74881000D01*
G75*
G02*
X57149000Y-74830001I0J50999D01*
G01*
X57149000Y-73629999D01*
G75*
G02*
X57199999Y-73579000I50999J0D01*
G01*
X59400001Y-73579000D01*
G75*
G02*
X59451000Y-73629999I0J-50999D01*
G01*
G37*
G36*
G01*
X38301000Y-69049999D02*
X38301000Y-74850001D01*
G75*
G02*
X38250001Y-74901000I-50999J0D01*
G01*
X31849999Y-74901000D01*
G75*
G02*
X31799000Y-74850001I0J50999D01*
G01*
X31799000Y-69049999D01*
G75*
G02*
X31849999Y-68999000I50999J0D01*
G01*
X38250001Y-68999000D01*
G75*
G02*
X38301000Y-69049999I0J-50999D01*
G01*
G37*
G36*
G01*
X42501000Y-69069999D02*
X42501000Y-70270001D01*
G75*
G02*
X42450001Y-70321000I-50999J0D01*
G01*
X40249999Y-70321000D01*
G75*
G02*
X40199000Y-70270001I0J50999D01*
G01*
X40199000Y-69069999D01*
G75*
G02*
X40249999Y-69019000I50999J0D01*
G01*
X42450001Y-69019000D01*
G75*
G02*
X42501000Y-69069999I0J-50999D01*
G01*
G37*
G36*
G01*
X42501000Y-73629999D02*
X42501000Y-74830001D01*
G75*
G02*
X42450001Y-74881000I-50999J0D01*
G01*
X40249999Y-74881000D01*
G75*
G02*
X40199000Y-74830001I0J50999D01*
G01*
X40199000Y-73629999D01*
G75*
G02*
X40249999Y-73579000I50999J0D01*
G01*
X42450001Y-73579000D01*
G75*
G02*
X42501000Y-73629999I0J-50999D01*
G01*
G37*
G36*
G01*
X71201000Y-57749999D02*
X71201000Y-63550001D01*
G75*
G02*
X71150001Y-63601000I-50999J0D01*
G01*
X64749999Y-63601000D01*
G75*
G02*
X64699000Y-63550001I0J50999D01*
G01*
X64699000Y-57749999D01*
G75*
G02*
X64749999Y-57699000I50999J0D01*
G01*
X71150001Y-57699000D01*
G75*
G02*
X71201000Y-57749999I0J-50999D01*
G01*
G37*
G36*
G01*
X75401000Y-57769999D02*
X75401000Y-58970001D01*
G75*
G02*
X75350001Y-59021000I-50999J0D01*
G01*
X73149999Y-59021000D01*
G75*
G02*
X73099000Y-58970001I0J50999D01*
G01*
X73099000Y-57769999D01*
G75*
G02*
X73149999Y-57719000I50999J0D01*
G01*
X75350001Y-57719000D01*
G75*
G02*
X75401000Y-57769999I0J-50999D01*
G01*
G37*
G36*
G01*
X75401000Y-62329999D02*
X75401000Y-63530001D01*
G75*
G02*
X75350001Y-63581000I-50999J0D01*
G01*
X73149999Y-63581000D01*
G75*
G02*
X73099000Y-63530001I0J50999D01*
G01*
X73099000Y-62329999D01*
G75*
G02*
X73149999Y-62279000I50999J0D01*
G01*
X75350001Y-62279000D01*
G75*
G02*
X75401000Y-62329999I0J-50999D01*
G01*
G37*
G36*
G01*
X55251000Y-57749999D02*
X55251000Y-63550001D01*
G75*
G02*
X55200001Y-63601000I-50999J0D01*
G01*
X48799999Y-63601000D01*
G75*
G02*
X48749000Y-63550001I0J50999D01*
G01*
X48749000Y-57749999D01*
G75*
G02*
X48799999Y-57699000I50999J0D01*
G01*
X55200001Y-57699000D01*
G75*
G02*
X55251000Y-57749999I0J-50999D01*
G01*
G37*
G36*
G01*
X59451000Y-57769999D02*
X59451000Y-58970001D01*
G75*
G02*
X59400001Y-59021000I-50999J0D01*
G01*
X57199999Y-59021000D01*
G75*
G02*
X57149000Y-58970001I0J50999D01*
G01*
X57149000Y-57769999D01*
G75*
G02*
X57199999Y-57719000I50999J0D01*
G01*
X59400001Y-57719000D01*
G75*
G02*
X59451000Y-57769999I0J-50999D01*
G01*
G37*
G36*
G01*
X59451000Y-62329999D02*
X59451000Y-63530001D01*
G75*
G02*
X59400001Y-63581000I-50999J0D01*
G01*
X57199999Y-63581000D01*
G75*
G02*
X57149000Y-63530001I0J50999D01*
G01*
X57149000Y-62329999D01*
G75*
G02*
X57199999Y-62279000I50999J0D01*
G01*
X59400001Y-62279000D01*
G75*
G02*
X59451000Y-62329999I0J-50999D01*
G01*
G37*
G36*
G01*
X38301000Y-57749999D02*
X38301000Y-63550001D01*
G75*
G02*
X38250001Y-63601000I-50999J0D01*
G01*
X31849999Y-63601000D01*
G75*
G02*
X31799000Y-63550001I0J50999D01*
G01*
X31799000Y-57749999D01*
G75*
G02*
X31849999Y-57699000I50999J0D01*
G01*
X38250001Y-57699000D01*
G75*
G02*
X38301000Y-57749999I0J-50999D01*
G01*
G37*
G36*
G01*
X42501000Y-57769999D02*
X42501000Y-58970001D01*
G75*
G02*
X42450001Y-59021000I-50999J0D01*
G01*
X40249999Y-59021000D01*
G75*
G02*
X40199000Y-58970001I0J50999D01*
G01*
X40199000Y-57769999D01*
G75*
G02*
X40249999Y-57719000I50999J0D01*
G01*
X42450001Y-57719000D01*
G75*
G02*
X42501000Y-57769999I0J-50999D01*
G01*
G37*
G36*
G01*
X42501000Y-62329999D02*
X42501000Y-63530001D01*
G75*
G02*
X42450001Y-63581000I-50999J0D01*
G01*
X40249999Y-63581000D01*
G75*
G02*
X40199000Y-63530001I0J50999D01*
G01*
X40199000Y-62329999D01*
G75*
G02*
X40249999Y-62279000I50999J0D01*
G01*
X42450001Y-62279000D01*
G75*
G02*
X42501000Y-62329999I0J-50999D01*
G01*
G37*
G36*
G01*
X52899999Y-27549000D02*
X58700001Y-27549000D01*
G75*
G02*
X58751000Y-27599999I0J-50999D01*
G01*
X58751000Y-34000001D01*
G75*
G02*
X58700001Y-34051000I-50999J0D01*
G01*
X52899999Y-34051000D01*
G75*
G02*
X52849000Y-34000001I0J50999D01*
G01*
X52849000Y-27599999D01*
G75*
G02*
X52899999Y-27549000I50999J0D01*
G01*
G37*
G36*
G01*
X52919999Y-23349000D02*
X54120001Y-23349000D01*
G75*
G02*
X54171000Y-23399999I0J-50999D01*
G01*
X54171000Y-25600001D01*
G75*
G02*
X54120001Y-25651000I-50999J0D01*
G01*
X52919999Y-25651000D01*
G75*
G02*
X52869000Y-25600001I0J50999D01*
G01*
X52869000Y-23399999D01*
G75*
G02*
X52919999Y-23349000I50999J0D01*
G01*
G37*
G36*
G01*
X57479999Y-23349000D02*
X58680001Y-23349000D01*
G75*
G02*
X58731000Y-23399999I0J-50999D01*
G01*
X58731000Y-25600001D01*
G75*
G02*
X58680001Y-25651000I-50999J0D01*
G01*
X57479999Y-25651000D01*
G75*
G02*
X57429000Y-25600001I0J50999D01*
G01*
X57429000Y-23399999D01*
G75*
G02*
X57479999Y-23349000I50999J0D01*
G01*
G37*
G36*
G01*
X76813000Y-92651000D02*
X76287000Y-92651000D01*
G75*
G02*
X76024000Y-92388000I0J263000D01*
G01*
X76024000Y-91762000D01*
G75*
G02*
X76287000Y-91499000I263000J0D01*
G01*
X76813000Y-91499000D01*
G75*
G02*
X77076000Y-91762000I0J-263000D01*
G01*
X77076000Y-92388000D01*
G75*
G02*
X76813000Y-92651000I-263000J0D01*
G01*
G37*
G36*
G01*
X76813000Y-94401000D02*
X76287000Y-94401000D01*
G75*
G02*
X76024000Y-94138000I0J263000D01*
G01*
X76024000Y-93512000D01*
G75*
G02*
X76287000Y-93249000I263000J0D01*
G01*
X76813000Y-93249000D01*
G75*
G02*
X77076000Y-93512000I0J-263000D01*
G01*
X77076000Y-94138000D01*
G75*
G02*
X76813000Y-94401000I-263000J0D01*
G01*
G37*
G36*
G01*
X60863000Y-92851000D02*
X60337000Y-92851000D01*
G75*
G02*
X60074000Y-92588000I0J263000D01*
G01*
X60074000Y-91962000D01*
G75*
G02*
X60337000Y-91699000I263000J0D01*
G01*
X60863000Y-91699000D01*
G75*
G02*
X61126000Y-91962000I0J-263000D01*
G01*
X61126000Y-92588000D01*
G75*
G02*
X60863000Y-92851000I-263000J0D01*
G01*
G37*
G36*
G01*
X60863000Y-94601000D02*
X60337000Y-94601000D01*
G75*
G02*
X60074000Y-94338000I0J263000D01*
G01*
X60074000Y-93712000D01*
G75*
G02*
X60337000Y-93449000I263000J0D01*
G01*
X60863000Y-93449000D01*
G75*
G02*
X61126000Y-93712000I0J-263000D01*
G01*
X61126000Y-94338000D01*
G75*
G02*
X60863000Y-94601000I-263000J0D01*
G01*
G37*
G36*
G01*
X43913000Y-92851000D02*
X43387000Y-92851000D01*
G75*
G02*
X43124000Y-92588000I0J263000D01*
G01*
X43124000Y-91962000D01*
G75*
G02*
X43387000Y-91699000I263000J0D01*
G01*
X43913000Y-91699000D01*
G75*
G02*
X44176000Y-91962000I0J-263000D01*
G01*
X44176000Y-92588000D01*
G75*
G02*
X43913000Y-92851000I-263000J0D01*
G01*
G37*
G36*
G01*
X43913000Y-94601000D02*
X43387000Y-94601000D01*
G75*
G02*
X43124000Y-94338000I0J263000D01*
G01*
X43124000Y-93712000D01*
G75*
G02*
X43387000Y-93449000I263000J0D01*
G01*
X43913000Y-93449000D01*
G75*
G02*
X44176000Y-93712000I0J-263000D01*
G01*
X44176000Y-94338000D01*
G75*
G02*
X43913000Y-94601000I-263000J0D01*
G01*
G37*
G36*
G01*
X76813000Y-81551000D02*
X76287000Y-81551000D01*
G75*
G02*
X76024000Y-81288000I0J263000D01*
G01*
X76024000Y-80662000D01*
G75*
G02*
X76287000Y-80399000I263000J0D01*
G01*
X76813000Y-80399000D01*
G75*
G02*
X77076000Y-80662000I0J-263000D01*
G01*
X77076000Y-81288000D01*
G75*
G02*
X76813000Y-81551000I-263000J0D01*
G01*
G37*
G36*
G01*
X76813000Y-83301000D02*
X76287000Y-83301000D01*
G75*
G02*
X76024000Y-83038000I0J263000D01*
G01*
X76024000Y-82412000D01*
G75*
G02*
X76287000Y-82149000I263000J0D01*
G01*
X76813000Y-82149000D01*
G75*
G02*
X77076000Y-82412000I0J-263000D01*
G01*
X77076000Y-83038000D01*
G75*
G02*
X76813000Y-83301000I-263000J0D01*
G01*
G37*
G36*
G01*
X60863000Y-81551000D02*
X60337000Y-81551000D01*
G75*
G02*
X60074000Y-81288000I0J263000D01*
G01*
X60074000Y-80662000D01*
G75*
G02*
X60337000Y-80399000I263000J0D01*
G01*
X60863000Y-80399000D01*
G75*
G02*
X61126000Y-80662000I0J-263000D01*
G01*
X61126000Y-81288000D01*
G75*
G02*
X60863000Y-81551000I-263000J0D01*
G01*
G37*
G36*
G01*
X60863000Y-83301000D02*
X60337000Y-83301000D01*
G75*
G02*
X60074000Y-83038000I0J263000D01*
G01*
X60074000Y-82412000D01*
G75*
G02*
X60337000Y-82149000I263000J0D01*
G01*
X60863000Y-82149000D01*
G75*
G02*
X61126000Y-82412000I0J-263000D01*
G01*
X61126000Y-83038000D01*
G75*
G02*
X60863000Y-83301000I-263000J0D01*
G01*
G37*
G36*
G01*
X43913000Y-81501000D02*
X43387000Y-81501000D01*
G75*
G02*
X43124000Y-81238000I0J263000D01*
G01*
X43124000Y-80612000D01*
G75*
G02*
X43387000Y-80349000I263000J0D01*
G01*
X43913000Y-80349000D01*
G75*
G02*
X44176000Y-80612000I0J-263000D01*
G01*
X44176000Y-81238000D01*
G75*
G02*
X43913000Y-81501000I-263000J0D01*
G01*
G37*
G36*
G01*
X43913000Y-83251000D02*
X43387000Y-83251000D01*
G75*
G02*
X43124000Y-82988000I0J263000D01*
G01*
X43124000Y-82362000D01*
G75*
G02*
X43387000Y-82099000I263000J0D01*
G01*
X43913000Y-82099000D01*
G75*
G02*
X44176000Y-82362000I0J-263000D01*
G01*
X44176000Y-82988000D01*
G75*
G02*
X43913000Y-83251000I-263000J0D01*
G01*
G37*
G36*
G01*
X76813000Y-70251000D02*
X76287000Y-70251000D01*
G75*
G02*
X76024000Y-69988000I0J263000D01*
G01*
X76024000Y-69362000D01*
G75*
G02*
X76287000Y-69099000I263000J0D01*
G01*
X76813000Y-69099000D01*
G75*
G02*
X77076000Y-69362000I0J-263000D01*
G01*
X77076000Y-69988000D01*
G75*
G02*
X76813000Y-70251000I-263000J0D01*
G01*
G37*
G36*
G01*
X76813000Y-72001000D02*
X76287000Y-72001000D01*
G75*
G02*
X76024000Y-71738000I0J263000D01*
G01*
X76024000Y-71112000D01*
G75*
G02*
X76287000Y-70849000I263000J0D01*
G01*
X76813000Y-70849000D01*
G75*
G02*
X77076000Y-71112000I0J-263000D01*
G01*
X77076000Y-71738000D01*
G75*
G02*
X76813000Y-72001000I-263000J0D01*
G01*
G37*
G36*
G01*
X60863000Y-70251000D02*
X60337000Y-70251000D01*
G75*
G02*
X60074000Y-69988000I0J263000D01*
G01*
X60074000Y-69362000D01*
G75*
G02*
X60337000Y-69099000I263000J0D01*
G01*
X60863000Y-69099000D01*
G75*
G02*
X61126000Y-69362000I0J-263000D01*
G01*
X61126000Y-69988000D01*
G75*
G02*
X60863000Y-70251000I-263000J0D01*
G01*
G37*
G36*
G01*
X60863000Y-72001000D02*
X60337000Y-72001000D01*
G75*
G02*
X60074000Y-71738000I0J263000D01*
G01*
X60074000Y-71112000D01*
G75*
G02*
X60337000Y-70849000I263000J0D01*
G01*
X60863000Y-70849000D01*
G75*
G02*
X61126000Y-71112000I0J-263000D01*
G01*
X61126000Y-71738000D01*
G75*
G02*
X60863000Y-72001000I-263000J0D01*
G01*
G37*
G36*
G01*
X43913000Y-70201000D02*
X43387000Y-70201000D01*
G75*
G02*
X43124000Y-69938000I0J263000D01*
G01*
X43124000Y-69312000D01*
G75*
G02*
X43387000Y-69049000I263000J0D01*
G01*
X43913000Y-69049000D01*
G75*
G02*
X44176000Y-69312000I0J-263000D01*
G01*
X44176000Y-69938000D01*
G75*
G02*
X43913000Y-70201000I-263000J0D01*
G01*
G37*
G36*
G01*
X43913000Y-71951000D02*
X43387000Y-71951000D01*
G75*
G02*
X43124000Y-71688000I0J263000D01*
G01*
X43124000Y-71062000D01*
G75*
G02*
X43387000Y-70799000I263000J0D01*
G01*
X43913000Y-70799000D01*
G75*
G02*
X44176000Y-71062000I0J-263000D01*
G01*
X44176000Y-71688000D01*
G75*
G02*
X43913000Y-71951000I-263000J0D01*
G01*
G37*
G36*
G01*
X76813000Y-58951000D02*
X76287000Y-58951000D01*
G75*
G02*
X76024000Y-58688000I0J263000D01*
G01*
X76024000Y-58062000D01*
G75*
G02*
X76287000Y-57799000I263000J0D01*
G01*
X76813000Y-57799000D01*
G75*
G02*
X77076000Y-58062000I0J-263000D01*
G01*
X77076000Y-58688000D01*
G75*
G02*
X76813000Y-58951000I-263000J0D01*
G01*
G37*
G36*
G01*
X76813000Y-60701000D02*
X76287000Y-60701000D01*
G75*
G02*
X76024000Y-60438000I0J263000D01*
G01*
X76024000Y-59812000D01*
G75*
G02*
X76287000Y-59549000I263000J0D01*
G01*
X76813000Y-59549000D01*
G75*
G02*
X77076000Y-59812000I0J-263000D01*
G01*
X77076000Y-60438000D01*
G75*
G02*
X76813000Y-60701000I-263000J0D01*
G01*
G37*
G36*
G01*
X60863000Y-58951000D02*
X60337000Y-58951000D01*
G75*
G02*
X60074000Y-58688000I0J263000D01*
G01*
X60074000Y-58062000D01*
G75*
G02*
X60337000Y-57799000I263000J0D01*
G01*
X60863000Y-57799000D01*
G75*
G02*
X61126000Y-58062000I0J-263000D01*
G01*
X61126000Y-58688000D01*
G75*
G02*
X60863000Y-58951000I-263000J0D01*
G01*
G37*
G36*
G01*
X60863000Y-60701000D02*
X60337000Y-60701000D01*
G75*
G02*
X60074000Y-60438000I0J263000D01*
G01*
X60074000Y-59812000D01*
G75*
G02*
X60337000Y-59549000I263000J0D01*
G01*
X60863000Y-59549000D01*
G75*
G02*
X61126000Y-59812000I0J-263000D01*
G01*
X61126000Y-60438000D01*
G75*
G02*
X60863000Y-60701000I-263000J0D01*
G01*
G37*
G36*
G01*
X43913000Y-58851000D02*
X43387000Y-58851000D01*
G75*
G02*
X43124000Y-58588000I0J263000D01*
G01*
X43124000Y-57962000D01*
G75*
G02*
X43387000Y-57699000I263000J0D01*
G01*
X43913000Y-57699000D01*
G75*
G02*
X44176000Y-57962000I0J-263000D01*
G01*
X44176000Y-58588000D01*
G75*
G02*
X43913000Y-58851000I-263000J0D01*
G01*
G37*
G36*
G01*
X43913000Y-60601000D02*
X43387000Y-60601000D01*
G75*
G02*
X43124000Y-60338000I0J263000D01*
G01*
X43124000Y-59712000D01*
G75*
G02*
X43387000Y-59449000I263000J0D01*
G01*
X43913000Y-59449000D01*
G75*
G02*
X44176000Y-59712000I0J-263000D01*
G01*
X44176000Y-60338000D01*
G75*
G02*
X43913000Y-60601000I-263000J0D01*
G01*
G37*
D18*
G36*
X52492058Y-78447010D02*
G01*
X52510366Y-78448813D01*
X52510751Y-78448889D01*
X52522458Y-78452441D01*
X52522820Y-78452591D01*
X52541935Y-78462807D01*
X52564298Y-78472070D01*
X52587948Y-78476774D01*
X52612054Y-78476774D01*
X52635704Y-78472069D01*
X52658065Y-78462807D01*
X52677180Y-78452591D01*
X52677542Y-78452441D01*
X52689249Y-78448889D01*
X52689634Y-78448813D01*
X52707942Y-78447010D01*
X52708138Y-78447000D01*
X52764500Y-78447000D01*
X52766232Y-78448000D01*
X52766232Y-78450000D01*
X52764696Y-78450990D01*
X52740411Y-78453381D01*
X52717242Y-78460410D01*
X52695892Y-78471822D01*
X52677179Y-78487179D01*
X52661822Y-78505892D01*
X52650410Y-78527242D01*
X52643381Y-78550411D01*
X52641000Y-78574594D01*
X52641000Y-78825406D01*
X52643381Y-78849589D01*
X52650410Y-78872758D01*
X52661822Y-78894108D01*
X52677179Y-78912821D01*
X52695892Y-78928178D01*
X52717242Y-78939590D01*
X52740411Y-78946619D01*
X52764696Y-78949010D01*
X52766322Y-78950175D01*
X52766126Y-78952165D01*
X52764500Y-78953000D01*
X52708138Y-78953000D01*
X52707942Y-78952990D01*
X52689634Y-78951187D01*
X52689249Y-78951111D01*
X52677542Y-78947559D01*
X52677180Y-78947409D01*
X52658065Y-78937193D01*
X52635702Y-78927930D01*
X52612052Y-78923226D01*
X52587946Y-78923226D01*
X52564296Y-78927931D01*
X52541935Y-78937193D01*
X52522820Y-78947409D01*
X52522458Y-78947559D01*
X52510751Y-78951111D01*
X52510366Y-78951187D01*
X52492058Y-78952990D01*
X52491862Y-78953000D01*
X52435500Y-78953000D01*
X52433768Y-78952000D01*
X52433768Y-78950000D01*
X52435304Y-78949010D01*
X52459589Y-78946619D01*
X52482758Y-78939590D01*
X52504108Y-78928178D01*
X52522821Y-78912821D01*
X52538178Y-78894108D01*
X52549590Y-78872758D01*
X52556619Y-78849589D01*
X52559000Y-78825406D01*
X52559000Y-78574594D01*
X52556619Y-78550411D01*
X52549590Y-78527242D01*
X52538178Y-78505892D01*
X52522821Y-78487179D01*
X52504108Y-78471822D01*
X52482758Y-78460410D01*
X52459589Y-78453381D01*
X52435304Y-78450990D01*
X52433678Y-78449825D01*
X52433874Y-78447835D01*
X52435500Y-78447000D01*
X52491862Y-78447000D01*
X52492058Y-78447010D01*
G37*
G36*
X27552732Y-53560000D02*
G01*
X27553000Y-53561000D01*
X27553000Y-53689000D01*
X27552000Y-53690732D01*
X27551000Y-53691000D01*
X26451000Y-53691000D01*
X26451000Y-54144956D01*
X26450000Y-54146688D01*
X26448000Y-54146688D01*
X26447010Y-54145152D01*
X26444628Y-54120965D01*
X26437628Y-54097890D01*
X26426263Y-54076626D01*
X26410968Y-54057989D01*
X26392331Y-54042694D01*
X26371067Y-54031329D01*
X26347992Y-54024329D01*
X26324001Y-54021966D01*
X26300010Y-54024329D01*
X26276935Y-54031329D01*
X26255671Y-54042694D01*
X26237034Y-54057989D01*
X26224604Y-54073135D01*
X26222732Y-54073839D01*
X26221186Y-54072570D01*
X26221210Y-54071101D01*
X26248316Y-54005662D01*
X26262238Y-53935675D01*
X26262238Y-53864325D01*
X26248316Y-53794338D01*
X26221210Y-53728899D01*
X26221471Y-53726916D01*
X26223319Y-53726151D01*
X26224604Y-53726865D01*
X26237034Y-53742011D01*
X26255671Y-53757306D01*
X26276935Y-53768671D01*
X26300010Y-53775671D01*
X26324001Y-53778034D01*
X26347992Y-53775671D01*
X26371067Y-53768671D01*
X26392331Y-53757306D01*
X26410968Y-53742011D01*
X26426263Y-53723374D01*
X26437628Y-53702110D01*
X26444628Y-53679035D01*
X26447000Y-53654950D01*
X26447000Y-53561000D01*
X26448000Y-53559268D01*
X26449000Y-53559000D01*
X27551000Y-53559000D01*
X27552732Y-53560000D01*
G37*
G36*
X27552732Y-52835000D02*
G01*
X27553000Y-52836000D01*
X27553000Y-52939000D01*
X27552000Y-52940732D01*
X27551000Y-52941000D01*
X26449000Y-52941000D01*
X26447268Y-52940000D01*
X26447000Y-52939000D01*
X26447000Y-52836000D01*
X26448000Y-52834268D01*
X26449000Y-52834000D01*
X27551000Y-52834000D01*
X27552732Y-52835000D01*
G37*
G36*
X27552732Y-52335000D02*
G01*
X27553000Y-52336000D01*
X27553000Y-52464000D01*
X27552000Y-52465732D01*
X27551000Y-52466000D01*
X26449000Y-52466000D01*
X26447268Y-52465000D01*
X26447000Y-52464000D01*
X26447000Y-52336000D01*
X26448000Y-52334268D01*
X26449000Y-52334000D01*
X27551000Y-52334000D01*
X27552732Y-52335000D01*
G37*
G36*
X27552732Y-51835000D02*
G01*
X27553000Y-51836000D01*
X27553000Y-51964000D01*
X27552000Y-51965732D01*
X27551000Y-51966000D01*
X26449000Y-51966000D01*
X26447268Y-51965000D01*
X26447000Y-51964000D01*
X26447000Y-51836000D01*
X26448000Y-51834268D01*
X26449000Y-51834000D01*
X27551000Y-51834000D01*
X27552732Y-51835000D01*
G37*
G36*
X33494555Y-46997010D02*
G01*
X33505551Y-46998093D01*
X33505936Y-46998169D01*
X33510610Y-46999587D01*
X33510972Y-46999737D01*
X33515273Y-47002036D01*
X33515599Y-47002254D01*
X33521896Y-47007421D01*
X33542023Y-47020870D01*
X33564297Y-47030096D01*
X33587948Y-47034800D01*
X33612054Y-47034800D01*
X33635704Y-47030095D01*
X33657978Y-47020869D01*
X33678104Y-47007421D01*
X33684401Y-47002254D01*
X33684727Y-47002036D01*
X33689028Y-46999737D01*
X33689390Y-46999587D01*
X33694064Y-46998169D01*
X33694449Y-46998093D01*
X33705445Y-46997010D01*
X33705641Y-46997000D01*
X33762000Y-46997000D01*
X33763732Y-46998000D01*
X33763732Y-47000000D01*
X33762196Y-47000990D01*
X33745227Y-47002661D01*
X33729093Y-47007556D01*
X33714226Y-47015502D01*
X33701196Y-47026196D01*
X33690502Y-47039226D01*
X33682556Y-47054093D01*
X33677661Y-47070227D01*
X33676000Y-47087094D01*
X33676000Y-47837906D01*
X33677661Y-47854773D01*
X33682556Y-47870907D01*
X33690502Y-47885774D01*
X33701196Y-47898804D01*
X33714226Y-47909498D01*
X33729093Y-47917444D01*
X33745227Y-47922339D01*
X33762094Y-47924000D01*
X33937906Y-47924000D01*
X33954773Y-47922339D01*
X33970907Y-47917444D01*
X33985774Y-47909498D01*
X33998804Y-47898804D01*
X34009498Y-47885774D01*
X34017444Y-47870907D01*
X34022339Y-47854773D01*
X34024000Y-47837906D01*
X34024000Y-47087094D01*
X34022339Y-47070227D01*
X34017444Y-47054093D01*
X34009498Y-47039226D01*
X33998804Y-47026196D01*
X33985774Y-47015502D01*
X33970907Y-47007556D01*
X33954773Y-47002661D01*
X33937804Y-47000990D01*
X33936178Y-46999825D01*
X33936374Y-46997835D01*
X33938000Y-46997000D01*
X33994359Y-46997000D01*
X33994555Y-46997010D01*
X34005551Y-46998093D01*
X34005936Y-46998169D01*
X34010610Y-46999587D01*
X34010972Y-46999737D01*
X34015273Y-47002036D01*
X34015599Y-47002254D01*
X34021896Y-47007421D01*
X34042023Y-47020870D01*
X34064297Y-47030096D01*
X34087948Y-47034800D01*
X34112054Y-47034800D01*
X34135704Y-47030095D01*
X34157978Y-47020869D01*
X34178104Y-47007421D01*
X34184401Y-47002254D01*
X34184727Y-47002036D01*
X34189028Y-46999737D01*
X34189390Y-46999587D01*
X34194064Y-46998169D01*
X34194449Y-46998093D01*
X34205445Y-46997010D01*
X34205641Y-46997000D01*
X34262000Y-46997000D01*
X34263732Y-46998000D01*
X34263732Y-47000000D01*
X34262196Y-47000990D01*
X34245227Y-47002661D01*
X34229093Y-47007556D01*
X34214226Y-47015502D01*
X34201196Y-47026196D01*
X34190502Y-47039226D01*
X34182556Y-47054093D01*
X34177661Y-47070227D01*
X34176000Y-47087094D01*
X34176000Y-47837906D01*
X34177661Y-47854773D01*
X34182556Y-47870907D01*
X34190502Y-47885774D01*
X34201196Y-47898804D01*
X34214226Y-47909498D01*
X34229093Y-47917444D01*
X34245227Y-47922339D01*
X34262094Y-47924000D01*
X34437906Y-47924000D01*
X34454773Y-47922339D01*
X34470907Y-47917444D01*
X34485774Y-47909498D01*
X34498804Y-47898804D01*
X34509498Y-47885774D01*
X34517444Y-47870907D01*
X34522339Y-47854773D01*
X34524000Y-47837906D01*
X34524000Y-47087094D01*
X34522339Y-47070227D01*
X34517444Y-47054093D01*
X34509498Y-47039226D01*
X34498804Y-47026196D01*
X34485774Y-47015502D01*
X34470907Y-47007556D01*
X34454773Y-47002661D01*
X34437804Y-47000990D01*
X34436178Y-46999825D01*
X34436374Y-46997835D01*
X34438000Y-46997000D01*
X34494359Y-46997000D01*
X34494555Y-46997010D01*
X34505551Y-46998093D01*
X34505936Y-46998169D01*
X34510610Y-46999587D01*
X34510972Y-46999737D01*
X34515273Y-47002036D01*
X34515599Y-47002254D01*
X34521896Y-47007421D01*
X34542023Y-47020870D01*
X34564297Y-47030096D01*
X34587948Y-47034800D01*
X34612054Y-47034800D01*
X34635704Y-47030095D01*
X34657978Y-47020869D01*
X34678104Y-47007421D01*
X34684401Y-47002254D01*
X34684727Y-47002036D01*
X34689028Y-46999737D01*
X34689390Y-46999587D01*
X34694064Y-46998169D01*
X34694449Y-46998093D01*
X34705445Y-46997010D01*
X34705641Y-46997000D01*
X34762000Y-46997000D01*
X34763732Y-46998000D01*
X34763732Y-47000000D01*
X34762196Y-47000990D01*
X34745227Y-47002661D01*
X34729093Y-47007556D01*
X34714226Y-47015502D01*
X34701196Y-47026196D01*
X34690502Y-47039226D01*
X34682556Y-47054093D01*
X34677661Y-47070227D01*
X34676000Y-47087094D01*
X34676000Y-47837906D01*
X34677661Y-47854773D01*
X34682556Y-47870907D01*
X34690502Y-47885774D01*
X34701196Y-47898804D01*
X34714226Y-47909498D01*
X34729093Y-47917444D01*
X34745227Y-47922339D01*
X34762094Y-47924000D01*
X34937906Y-47924000D01*
X34954773Y-47922339D01*
X34970907Y-47917444D01*
X34985774Y-47909498D01*
X34998804Y-47898804D01*
X35009498Y-47885774D01*
X35017444Y-47870907D01*
X35022339Y-47854773D01*
X35024000Y-47837906D01*
X35024000Y-47087094D01*
X35022339Y-47070227D01*
X35017444Y-47054093D01*
X35009498Y-47039226D01*
X34998804Y-47026196D01*
X34985774Y-47015502D01*
X34970907Y-47007556D01*
X34954773Y-47002661D01*
X34937804Y-47000990D01*
X34936178Y-46999825D01*
X34936374Y-46997835D01*
X34938000Y-46997000D01*
X34994359Y-46997000D01*
X34994555Y-46997010D01*
X35005551Y-46998093D01*
X35005936Y-46998169D01*
X35010610Y-46999587D01*
X35010972Y-46999737D01*
X35015273Y-47002036D01*
X35015599Y-47002254D01*
X35021896Y-47007421D01*
X35042023Y-47020870D01*
X35064297Y-47030096D01*
X35087948Y-47034800D01*
X35112054Y-47034800D01*
X35135704Y-47030095D01*
X35157978Y-47020869D01*
X35178104Y-47007421D01*
X35184401Y-47002254D01*
X35184727Y-47002036D01*
X35189028Y-46999737D01*
X35189390Y-46999587D01*
X35194064Y-46998169D01*
X35194449Y-46998093D01*
X35205445Y-46997010D01*
X35205641Y-46997000D01*
X35262000Y-46997000D01*
X35263732Y-46998000D01*
X35263732Y-47000000D01*
X35262196Y-47000990D01*
X35245227Y-47002661D01*
X35229093Y-47007556D01*
X35214226Y-47015502D01*
X35201196Y-47026196D01*
X35190502Y-47039226D01*
X35182556Y-47054093D01*
X35177661Y-47070227D01*
X35176000Y-47087094D01*
X35176000Y-47837906D01*
X35177661Y-47854773D01*
X35182556Y-47870907D01*
X35190502Y-47885774D01*
X35201196Y-47898804D01*
X35214226Y-47909498D01*
X35229093Y-47917444D01*
X35245227Y-47922339D01*
X35262094Y-47924000D01*
X35437906Y-47924000D01*
X35454773Y-47922339D01*
X35470907Y-47917444D01*
X35485774Y-47909498D01*
X35498804Y-47898804D01*
X35509498Y-47885774D01*
X35517444Y-47870907D01*
X35522339Y-47854773D01*
X35524000Y-47837906D01*
X35524000Y-47087094D01*
X35522339Y-47070227D01*
X35517444Y-47054093D01*
X35509498Y-47039226D01*
X35498804Y-47026196D01*
X35485774Y-47015502D01*
X35470907Y-47007556D01*
X35454773Y-47002661D01*
X35437804Y-47000990D01*
X35436178Y-46999825D01*
X35436374Y-46997835D01*
X35438000Y-46997000D01*
X35494359Y-46997000D01*
X35494555Y-46997010D01*
X35505551Y-46998093D01*
X35505936Y-46998169D01*
X35510610Y-46999587D01*
X35510972Y-46999737D01*
X35515273Y-47002036D01*
X35515599Y-47002254D01*
X35521896Y-47007421D01*
X35542023Y-47020870D01*
X35564297Y-47030096D01*
X35587948Y-47034800D01*
X35612054Y-47034800D01*
X35635704Y-47030095D01*
X35657978Y-47020869D01*
X35678104Y-47007421D01*
X35684401Y-47002254D01*
X35684727Y-47002036D01*
X35689028Y-46999737D01*
X35689390Y-46999587D01*
X35694064Y-46998169D01*
X35694449Y-46998093D01*
X35705445Y-46997010D01*
X35705641Y-46997000D01*
X35762000Y-46997000D01*
X35763732Y-46998000D01*
X35763732Y-47000000D01*
X35762196Y-47000990D01*
X35745227Y-47002661D01*
X35729093Y-47007556D01*
X35714226Y-47015502D01*
X35701196Y-47026196D01*
X35690502Y-47039226D01*
X35682556Y-47054093D01*
X35677661Y-47070227D01*
X35676000Y-47087094D01*
X35676000Y-47837906D01*
X35677661Y-47854773D01*
X35682556Y-47870907D01*
X35690502Y-47885774D01*
X35701196Y-47898804D01*
X35714226Y-47909498D01*
X35729093Y-47917444D01*
X35745227Y-47922339D01*
X35762094Y-47924000D01*
X35937906Y-47924000D01*
X35954773Y-47922339D01*
X35970907Y-47917444D01*
X35985774Y-47909498D01*
X35998804Y-47898804D01*
X36009498Y-47885774D01*
X36017444Y-47870907D01*
X36022339Y-47854773D01*
X36024010Y-47837804D01*
X36025175Y-47836178D01*
X36027165Y-47836374D01*
X36028000Y-47838000D01*
X36028000Y-47848907D01*
X36030372Y-47872992D01*
X36037372Y-47896067D01*
X36048737Y-47917331D01*
X36064032Y-47935968D01*
X36082669Y-47951263D01*
X36103933Y-47962628D01*
X36127008Y-47969628D01*
X36151093Y-47972000D01*
X36162000Y-47972000D01*
X36163732Y-47973000D01*
X36163732Y-47975000D01*
X36162196Y-47975990D01*
X36145227Y-47977661D01*
X36129093Y-47982556D01*
X36114226Y-47990502D01*
X36101196Y-48001196D01*
X36090502Y-48014226D01*
X36082556Y-48029093D01*
X36077661Y-48045227D01*
X36076000Y-48062094D01*
X36076000Y-48237906D01*
X36077661Y-48254773D01*
X36082556Y-48270907D01*
X36090502Y-48285774D01*
X36101196Y-48298804D01*
X36114226Y-48309498D01*
X36129093Y-48317444D01*
X36145227Y-48322339D01*
X36162094Y-48324000D01*
X36912906Y-48324000D01*
X36929773Y-48322339D01*
X36945907Y-48317444D01*
X36960774Y-48309498D01*
X36973804Y-48298804D01*
X36984498Y-48285774D01*
X36992444Y-48270907D01*
X36997339Y-48254773D01*
X36999010Y-48237804D01*
X37000175Y-48236178D01*
X37002165Y-48236374D01*
X37003000Y-48238000D01*
X37003000Y-48294359D01*
X37002990Y-48294555D01*
X37001907Y-48305551D01*
X37001831Y-48305936D01*
X37000413Y-48310610D01*
X37000263Y-48310972D01*
X36997964Y-48315273D01*
X36997746Y-48315599D01*
X36992579Y-48321896D01*
X36979130Y-48342023D01*
X36969904Y-48364297D01*
X36965200Y-48387948D01*
X36965200Y-48412054D01*
X36969905Y-48435704D01*
X36979131Y-48457978D01*
X36992579Y-48478104D01*
X36997746Y-48484401D01*
X36997964Y-48484727D01*
X37000263Y-48489028D01*
X37000413Y-48489390D01*
X37001831Y-48494064D01*
X37001907Y-48494449D01*
X37002990Y-48505445D01*
X37003000Y-48505641D01*
X37003000Y-48562000D01*
X37002000Y-48563732D01*
X37000000Y-48563732D01*
X36999010Y-48562196D01*
X36997339Y-48545227D01*
X36992444Y-48529093D01*
X36984498Y-48514226D01*
X36973804Y-48501196D01*
X36960774Y-48490502D01*
X36945907Y-48482556D01*
X36929773Y-48477661D01*
X36912906Y-48476000D01*
X36162094Y-48476000D01*
X36145227Y-48477661D01*
X36129093Y-48482556D01*
X36114226Y-48490502D01*
X36101196Y-48501196D01*
X36090502Y-48514226D01*
X36082556Y-48529093D01*
X36077661Y-48545227D01*
X36076000Y-48562094D01*
X36076000Y-48737906D01*
X36077661Y-48754773D01*
X36082556Y-48770907D01*
X36090502Y-48785774D01*
X36101196Y-48798804D01*
X36114226Y-48809498D01*
X36129093Y-48817444D01*
X36145227Y-48822339D01*
X36162094Y-48824000D01*
X36912906Y-48824000D01*
X36929773Y-48822339D01*
X36945907Y-48817444D01*
X36960774Y-48809498D01*
X36973804Y-48798804D01*
X36984498Y-48785774D01*
X36992444Y-48770907D01*
X36997339Y-48754773D01*
X36999010Y-48737804D01*
X37000175Y-48736178D01*
X37002165Y-48736374D01*
X37003000Y-48738000D01*
X37003000Y-48794359D01*
X37002990Y-48794555D01*
X37001907Y-48805551D01*
X37001831Y-48805936D01*
X37000413Y-48810610D01*
X37000263Y-48810972D01*
X36997964Y-48815273D01*
X36997746Y-48815599D01*
X36992579Y-48821896D01*
X36979130Y-48842023D01*
X36969904Y-48864297D01*
X36965200Y-48887948D01*
X36965200Y-48912054D01*
X36969905Y-48935704D01*
X36979131Y-48957978D01*
X36992579Y-48978104D01*
X36997746Y-48984401D01*
X36997964Y-48984727D01*
X37000263Y-48989028D01*
X37000413Y-48989390D01*
X37001831Y-48994064D01*
X37001907Y-48994449D01*
X37002990Y-49005445D01*
X37003000Y-49005641D01*
X37003000Y-49062000D01*
X37002000Y-49063732D01*
X37000000Y-49063732D01*
X36999010Y-49062196D01*
X36997339Y-49045227D01*
X36992444Y-49029093D01*
X36984498Y-49014226D01*
X36973804Y-49001196D01*
X36960774Y-48990502D01*
X36945907Y-48982556D01*
X36929773Y-48977661D01*
X36912906Y-48976000D01*
X36162094Y-48976000D01*
X36145227Y-48977661D01*
X36129093Y-48982556D01*
X36114226Y-48990502D01*
X36101196Y-49001196D01*
X36090502Y-49014226D01*
X36082556Y-49029093D01*
X36077661Y-49045227D01*
X36076000Y-49062094D01*
X36076000Y-49237906D01*
X36077661Y-49254773D01*
X36082556Y-49270907D01*
X36090502Y-49285774D01*
X36101196Y-49298804D01*
X36114226Y-49309498D01*
X36129093Y-49317444D01*
X36145227Y-49322339D01*
X36162094Y-49324000D01*
X36912906Y-49324000D01*
X36929773Y-49322339D01*
X36945907Y-49317444D01*
X36960774Y-49309498D01*
X36973804Y-49298804D01*
X36984498Y-49285774D01*
X36992444Y-49270907D01*
X36997339Y-49254773D01*
X36999010Y-49237804D01*
X37000175Y-49236178D01*
X37002165Y-49236374D01*
X37003000Y-49238000D01*
X37003000Y-49294359D01*
X37002990Y-49294555D01*
X37001907Y-49305551D01*
X37001831Y-49305936D01*
X37000413Y-49310610D01*
X37000263Y-49310972D01*
X36997964Y-49315273D01*
X36997746Y-49315599D01*
X36992579Y-49321896D01*
X36979130Y-49342023D01*
X36969904Y-49364297D01*
X36965200Y-49387948D01*
X36965200Y-49412054D01*
X36969905Y-49435704D01*
X36979131Y-49457978D01*
X36992579Y-49478104D01*
X36997746Y-49484401D01*
X36997964Y-49484727D01*
X37000263Y-49489028D01*
X37000413Y-49489390D01*
X37001831Y-49494064D01*
X37001907Y-49494449D01*
X37002990Y-49505445D01*
X37003000Y-49505641D01*
X37003000Y-49562000D01*
X37002000Y-49563732D01*
X37000000Y-49563732D01*
X36999010Y-49562196D01*
X36997339Y-49545227D01*
X36992444Y-49529093D01*
X36984498Y-49514226D01*
X36973804Y-49501196D01*
X36960774Y-49490502D01*
X36945907Y-49482556D01*
X36929773Y-49477661D01*
X36912906Y-49476000D01*
X36162094Y-49476000D01*
X36145227Y-49477661D01*
X36129093Y-49482556D01*
X36114226Y-49490502D01*
X36101196Y-49501196D01*
X36090502Y-49514226D01*
X36082556Y-49529093D01*
X36077661Y-49545227D01*
X36076000Y-49562094D01*
X36076000Y-49737906D01*
X36077661Y-49754773D01*
X36082556Y-49770907D01*
X36090502Y-49785774D01*
X36101196Y-49798804D01*
X36114226Y-49809498D01*
X36129093Y-49817444D01*
X36145227Y-49822339D01*
X36162094Y-49824000D01*
X36912906Y-49824000D01*
X36929773Y-49822339D01*
X36945907Y-49817444D01*
X36960774Y-49809498D01*
X36973804Y-49798804D01*
X36984498Y-49785774D01*
X36992444Y-49770907D01*
X36997339Y-49754773D01*
X36999010Y-49737804D01*
X37000175Y-49736178D01*
X37002165Y-49736374D01*
X37003000Y-49738000D01*
X37003000Y-49794359D01*
X37002990Y-49794555D01*
X37001907Y-49805551D01*
X37001831Y-49805936D01*
X37000413Y-49810610D01*
X37000263Y-49810972D01*
X36997964Y-49815273D01*
X36997746Y-49815599D01*
X36992579Y-49821896D01*
X36979130Y-49842023D01*
X36969904Y-49864297D01*
X36965200Y-49887948D01*
X36965200Y-49912054D01*
X36969905Y-49935704D01*
X36979131Y-49957978D01*
X36992579Y-49978104D01*
X36997746Y-49984401D01*
X36997964Y-49984727D01*
X37000263Y-49989028D01*
X37000413Y-49989390D01*
X37001831Y-49994064D01*
X37001907Y-49994449D01*
X37002990Y-50005445D01*
X37003000Y-50005641D01*
X37003000Y-50062000D01*
X37002000Y-50063732D01*
X37000000Y-50063732D01*
X36999010Y-50062196D01*
X36997339Y-50045227D01*
X36992444Y-50029093D01*
X36984498Y-50014226D01*
X36973804Y-50001196D01*
X36960774Y-49990502D01*
X36945907Y-49982556D01*
X36929773Y-49977661D01*
X36912906Y-49976000D01*
X36162094Y-49976000D01*
X36145227Y-49977661D01*
X36129093Y-49982556D01*
X36114226Y-49990502D01*
X36101196Y-50001196D01*
X36090502Y-50014226D01*
X36082556Y-50029093D01*
X36077661Y-50045227D01*
X36076000Y-50062094D01*
X36076000Y-50237906D01*
X36077661Y-50254773D01*
X36082556Y-50270907D01*
X36090502Y-50285774D01*
X36101196Y-50298804D01*
X36114226Y-50309498D01*
X36129093Y-50317444D01*
X36145227Y-50322339D01*
X36162094Y-50324000D01*
X36912906Y-50324000D01*
X36929773Y-50322339D01*
X36945907Y-50317444D01*
X36960774Y-50309498D01*
X36973804Y-50298804D01*
X36984498Y-50285774D01*
X36992444Y-50270907D01*
X36997339Y-50254773D01*
X36999010Y-50237804D01*
X37000175Y-50236178D01*
X37002165Y-50236374D01*
X37003000Y-50238000D01*
X37003000Y-50294359D01*
X37002990Y-50294555D01*
X37001907Y-50305551D01*
X37001831Y-50305936D01*
X37000413Y-50310610D01*
X37000263Y-50310972D01*
X36997964Y-50315273D01*
X36997746Y-50315599D01*
X36992579Y-50321896D01*
X36979130Y-50342023D01*
X36969904Y-50364297D01*
X36965200Y-50387948D01*
X36965200Y-50412054D01*
X36969905Y-50435704D01*
X36979131Y-50457978D01*
X36992579Y-50478104D01*
X36997746Y-50484401D01*
X36997964Y-50484727D01*
X37000263Y-50489028D01*
X37000413Y-50489390D01*
X37001831Y-50494064D01*
X37001907Y-50494449D01*
X37002990Y-50505445D01*
X37003000Y-50505641D01*
X37003000Y-50562000D01*
X37002000Y-50563732D01*
X37000000Y-50563732D01*
X36999010Y-50562196D01*
X36997339Y-50545227D01*
X36992444Y-50529093D01*
X36984498Y-50514226D01*
X36973804Y-50501196D01*
X36960774Y-50490502D01*
X36945907Y-50482556D01*
X36929773Y-50477661D01*
X36912906Y-50476000D01*
X36162094Y-50476000D01*
X36145227Y-50477661D01*
X36129093Y-50482556D01*
X36114226Y-50490502D01*
X36101196Y-50501196D01*
X36090502Y-50514226D01*
X36082556Y-50529093D01*
X36077661Y-50545227D01*
X36076000Y-50562094D01*
X36076000Y-50737906D01*
X36077661Y-50754773D01*
X36082556Y-50770907D01*
X36090502Y-50785774D01*
X36101196Y-50798804D01*
X36114226Y-50809498D01*
X36129093Y-50817444D01*
X36145227Y-50822339D01*
X36162196Y-50824010D01*
X36163822Y-50825175D01*
X36163626Y-50827165D01*
X36162000Y-50828000D01*
X36151093Y-50828000D01*
X36127008Y-50830372D01*
X36103933Y-50837372D01*
X36082669Y-50848737D01*
X36064032Y-50864032D01*
X36048737Y-50882669D01*
X36037372Y-50903933D01*
X36030372Y-50927008D01*
X36028000Y-50951093D01*
X36028000Y-50962000D01*
X36027000Y-50963732D01*
X36025000Y-50963732D01*
X36024010Y-50962196D01*
X36022339Y-50945227D01*
X36017444Y-50929093D01*
X36009498Y-50914226D01*
X35998804Y-50901196D01*
X35985774Y-50890502D01*
X35970907Y-50882556D01*
X35954773Y-50877661D01*
X35937906Y-50876000D01*
X35762094Y-50876000D01*
X35745227Y-50877661D01*
X35729093Y-50882556D01*
X35714226Y-50890502D01*
X35701196Y-50901196D01*
X35690502Y-50914226D01*
X35682556Y-50929093D01*
X35677661Y-50945227D01*
X35676000Y-50962094D01*
X35676000Y-51712906D01*
X35677661Y-51729773D01*
X35682556Y-51745907D01*
X35690502Y-51760774D01*
X35701196Y-51773804D01*
X35714226Y-51784498D01*
X35729093Y-51792444D01*
X35745227Y-51797339D01*
X35762196Y-51799010D01*
X35763822Y-51800175D01*
X35763626Y-51802165D01*
X35762000Y-51803000D01*
X35705641Y-51803000D01*
X35705445Y-51802990D01*
X35694449Y-51801907D01*
X35694064Y-51801831D01*
X35689390Y-51800413D01*
X35689028Y-51800263D01*
X35684727Y-51797964D01*
X35684401Y-51797746D01*
X35678104Y-51792579D01*
X35657977Y-51779130D01*
X35635703Y-51769904D01*
X35612052Y-51765200D01*
X35587946Y-51765200D01*
X35564296Y-51769905D01*
X35542022Y-51779131D01*
X35521896Y-51792579D01*
X35515599Y-51797746D01*
X35515273Y-51797964D01*
X35510972Y-51800263D01*
X35510610Y-51800413D01*
X35505936Y-51801831D01*
X35505551Y-51801907D01*
X35494555Y-51802990D01*
X35494359Y-51803000D01*
X35438000Y-51803000D01*
X35436268Y-51802000D01*
X35436268Y-51800000D01*
X35437804Y-51799010D01*
X35454773Y-51797339D01*
X35470907Y-51792444D01*
X35485774Y-51784498D01*
X35498804Y-51773804D01*
X35509498Y-51760774D01*
X35517444Y-51745907D01*
X35522339Y-51729773D01*
X35524000Y-51712906D01*
X35524000Y-50962094D01*
X35522339Y-50945227D01*
X35517444Y-50929093D01*
X35509498Y-50914226D01*
X35498804Y-50901196D01*
X35485774Y-50890502D01*
X35470907Y-50882556D01*
X35454773Y-50877661D01*
X35437906Y-50876000D01*
X35262094Y-50876000D01*
X35245227Y-50877661D01*
X35229093Y-50882556D01*
X35214226Y-50890502D01*
X35201196Y-50901196D01*
X35190502Y-50914226D01*
X35182556Y-50929093D01*
X35177661Y-50945227D01*
X35176000Y-50962094D01*
X35176000Y-51712906D01*
X35177661Y-51729773D01*
X35182556Y-51745907D01*
X35190502Y-51760774D01*
X35201196Y-51773804D01*
X35214226Y-51784498D01*
X35229093Y-51792444D01*
X35245227Y-51797339D01*
X35262196Y-51799010D01*
X35263822Y-51800175D01*
X35263626Y-51802165D01*
X35262000Y-51803000D01*
X35205641Y-51803000D01*
X35205445Y-51802990D01*
X35194449Y-51801907D01*
X35194064Y-51801831D01*
X35189390Y-51800413D01*
X35189028Y-51800263D01*
X35184727Y-51797964D01*
X35184401Y-51797746D01*
X35178104Y-51792579D01*
X35157977Y-51779130D01*
X35135703Y-51769904D01*
X35112052Y-51765200D01*
X35087946Y-51765200D01*
X35064296Y-51769905D01*
X35042022Y-51779131D01*
X35021896Y-51792579D01*
X35015599Y-51797746D01*
X35015273Y-51797964D01*
X35010972Y-51800263D01*
X35010610Y-51800413D01*
X35005936Y-51801831D01*
X35005551Y-51801907D01*
X34994555Y-51802990D01*
X34994359Y-51803000D01*
X34938000Y-51803000D01*
X34936268Y-51802000D01*
X34936268Y-51800000D01*
X34937804Y-51799010D01*
X34954773Y-51797339D01*
X34970907Y-51792444D01*
X34985774Y-51784498D01*
X34998804Y-51773804D01*
X35009498Y-51760774D01*
X35017444Y-51745907D01*
X35022339Y-51729773D01*
X35024000Y-51712906D01*
X35024000Y-50962094D01*
X35022339Y-50945227D01*
X35017444Y-50929093D01*
X35009498Y-50914226D01*
X34998804Y-50901196D01*
X34985774Y-50890502D01*
X34970907Y-50882556D01*
X34954773Y-50877661D01*
X34937906Y-50876000D01*
X34762094Y-50876000D01*
X34745227Y-50877661D01*
X34729093Y-50882556D01*
X34714226Y-50890502D01*
X34701196Y-50901196D01*
X34690502Y-50914226D01*
X34682556Y-50929093D01*
X34677661Y-50945227D01*
X34676000Y-50962094D01*
X34676000Y-51712906D01*
X34677661Y-51729773D01*
X34682556Y-51745907D01*
X34690502Y-51760774D01*
X34701196Y-51773804D01*
X34714226Y-51784498D01*
X34729093Y-51792444D01*
X34745227Y-51797339D01*
X34762196Y-51799010D01*
X34763822Y-51800175D01*
X34763626Y-51802165D01*
X34762000Y-51803000D01*
X34705641Y-51803000D01*
X34705445Y-51802990D01*
X34694449Y-51801907D01*
X34694064Y-51801831D01*
X34689390Y-51800413D01*
X34689028Y-51800263D01*
X34684727Y-51797964D01*
X34684401Y-51797746D01*
X34678104Y-51792579D01*
X34657977Y-51779130D01*
X34635703Y-51769904D01*
X34612052Y-51765200D01*
X34587946Y-51765200D01*
X34564296Y-51769905D01*
X34542022Y-51779131D01*
X34521896Y-51792579D01*
X34515599Y-51797746D01*
X34515273Y-51797964D01*
X34510972Y-51800263D01*
X34510610Y-51800413D01*
X34505936Y-51801831D01*
X34505551Y-51801907D01*
X34494555Y-51802990D01*
X34494359Y-51803000D01*
X34438000Y-51803000D01*
X34436268Y-51802000D01*
X34436268Y-51800000D01*
X34437804Y-51799010D01*
X34454773Y-51797339D01*
X34470907Y-51792444D01*
X34485774Y-51784498D01*
X34498804Y-51773804D01*
X34509498Y-51760774D01*
X34517444Y-51745907D01*
X34522339Y-51729773D01*
X34524000Y-51712906D01*
X34524000Y-50962094D01*
X34522339Y-50945227D01*
X34517444Y-50929093D01*
X34509498Y-50914226D01*
X34498804Y-50901196D01*
X34485774Y-50890502D01*
X34470907Y-50882556D01*
X34454773Y-50877661D01*
X34437906Y-50876000D01*
X34262094Y-50876000D01*
X34245227Y-50877661D01*
X34229093Y-50882556D01*
X34214226Y-50890502D01*
X34201196Y-50901196D01*
X34190502Y-50914226D01*
X34182556Y-50929093D01*
X34177661Y-50945227D01*
X34176000Y-50962094D01*
X34176000Y-51712906D01*
X34177661Y-51729773D01*
X34182556Y-51745907D01*
X34190502Y-51760774D01*
X34201196Y-51773804D01*
X34214226Y-51784498D01*
X34229093Y-51792444D01*
X34245227Y-51797339D01*
X34262196Y-51799010D01*
X34263822Y-51800175D01*
X34263626Y-51802165D01*
X34262000Y-51803000D01*
X34205641Y-51803000D01*
X34205445Y-51802990D01*
X34194449Y-51801907D01*
X34194064Y-51801831D01*
X34189390Y-51800413D01*
X34189028Y-51800263D01*
X34184727Y-51797964D01*
X34184401Y-51797746D01*
X34178104Y-51792579D01*
X34157977Y-51779130D01*
X34135703Y-51769904D01*
X34112052Y-51765200D01*
X34087946Y-51765200D01*
X34064296Y-51769905D01*
X34042022Y-51779131D01*
X34021896Y-51792579D01*
X34015599Y-51797746D01*
X34015273Y-51797964D01*
X34010972Y-51800263D01*
X34010610Y-51800413D01*
X34005936Y-51801831D01*
X34005551Y-51801907D01*
X33994555Y-51802990D01*
X33994359Y-51803000D01*
X33938000Y-51803000D01*
X33936268Y-51802000D01*
X33936268Y-51800000D01*
X33937804Y-51799010D01*
X33954773Y-51797339D01*
X33970907Y-51792444D01*
X33985774Y-51784498D01*
X33998804Y-51773804D01*
X34009498Y-51760774D01*
X34017444Y-51745907D01*
X34022339Y-51729773D01*
X34024000Y-51712906D01*
X34024000Y-50962094D01*
X34022339Y-50945227D01*
X34017444Y-50929093D01*
X34009498Y-50914226D01*
X33998804Y-50901196D01*
X33985774Y-50890502D01*
X33970907Y-50882556D01*
X33954773Y-50877661D01*
X33937906Y-50876000D01*
X33762094Y-50876000D01*
X33745227Y-50877661D01*
X33729093Y-50882556D01*
X33714226Y-50890502D01*
X33701196Y-50901196D01*
X33690502Y-50914226D01*
X33682556Y-50929093D01*
X33677661Y-50945227D01*
X33676000Y-50962094D01*
X33676000Y-51712906D01*
X33677661Y-51729773D01*
X33682556Y-51745907D01*
X33690502Y-51760774D01*
X33701196Y-51773804D01*
X33714226Y-51784498D01*
X33729093Y-51792444D01*
X33745227Y-51797339D01*
X33762196Y-51799010D01*
X33763822Y-51800175D01*
X33763626Y-51802165D01*
X33762000Y-51803000D01*
X33705641Y-51803000D01*
X33705445Y-51802990D01*
X33694449Y-51801907D01*
X33694064Y-51801831D01*
X33689390Y-51800413D01*
X33689028Y-51800263D01*
X33684727Y-51797964D01*
X33684401Y-51797746D01*
X33678104Y-51792579D01*
X33657977Y-51779130D01*
X33635703Y-51769904D01*
X33612052Y-51765200D01*
X33587946Y-51765200D01*
X33564296Y-51769905D01*
X33542022Y-51779131D01*
X33521896Y-51792579D01*
X33515599Y-51797746D01*
X33515273Y-51797964D01*
X33510972Y-51800263D01*
X33510610Y-51800413D01*
X33505936Y-51801831D01*
X33505551Y-51801907D01*
X33494555Y-51802990D01*
X33494359Y-51803000D01*
X33438000Y-51803000D01*
X33436268Y-51802000D01*
X33436268Y-51800000D01*
X33437804Y-51799010D01*
X33454773Y-51797339D01*
X33470907Y-51792444D01*
X33485774Y-51784498D01*
X33498804Y-51773804D01*
X33509498Y-51760774D01*
X33517444Y-51745907D01*
X33522339Y-51729773D01*
X33524000Y-51712906D01*
X33524000Y-50962094D01*
X33522339Y-50945227D01*
X33517444Y-50929093D01*
X33509498Y-50914226D01*
X33498804Y-50901196D01*
X33485774Y-50890502D01*
X33470907Y-50882556D01*
X33454773Y-50877661D01*
X33437906Y-50876000D01*
X33262094Y-50876000D01*
X33245227Y-50877661D01*
X33229093Y-50882556D01*
X33214226Y-50890502D01*
X33201196Y-50901196D01*
X33190502Y-50914226D01*
X33182556Y-50929093D01*
X33177661Y-50945227D01*
X33175990Y-50962196D01*
X33174825Y-50963822D01*
X33172835Y-50963626D01*
X33172000Y-50962000D01*
X33172000Y-50951093D01*
X33169628Y-50927008D01*
X33162628Y-50903933D01*
X33151263Y-50882669D01*
X33135968Y-50864032D01*
X33117331Y-50848737D01*
X33096067Y-50837372D01*
X33072992Y-50830372D01*
X33048907Y-50828000D01*
X33038000Y-50828000D01*
X33036268Y-50827000D01*
X33036268Y-50825000D01*
X33037804Y-50824010D01*
X33054773Y-50822339D01*
X33070907Y-50817444D01*
X33085774Y-50809498D01*
X33098804Y-50798804D01*
X33109498Y-50785774D01*
X33117444Y-50770907D01*
X33122339Y-50754773D01*
X33124000Y-50737906D01*
X33124000Y-50562094D01*
X33122339Y-50545227D01*
X33117444Y-50529093D01*
X33109498Y-50514226D01*
X33098804Y-50501196D01*
X33085774Y-50490502D01*
X33070907Y-50482556D01*
X33054773Y-50477661D01*
X33037906Y-50476000D01*
X32287094Y-50476000D01*
X32270227Y-50477661D01*
X32254093Y-50482556D01*
X32239226Y-50490502D01*
X32226196Y-50501196D01*
X32215502Y-50514226D01*
X32207556Y-50529093D01*
X32202661Y-50545227D01*
X32200990Y-50562196D01*
X32199825Y-50563822D01*
X32197835Y-50563626D01*
X32197000Y-50562000D01*
X32197000Y-50505641D01*
X32197010Y-50505445D01*
X32198093Y-50494449D01*
X32198169Y-50494064D01*
X32199587Y-50489390D01*
X32199737Y-50489028D01*
X32202036Y-50484727D01*
X32202254Y-50484401D01*
X32207421Y-50478104D01*
X32220870Y-50457977D01*
X32230096Y-50435703D01*
X32234800Y-50412052D01*
X32234800Y-50387946D01*
X32230095Y-50364296D01*
X32220869Y-50342022D01*
X32207421Y-50321896D01*
X32202254Y-50315599D01*
X32202036Y-50315273D01*
X32199737Y-50310972D01*
X32199587Y-50310610D01*
X32198169Y-50305936D01*
X32198093Y-50305551D01*
X32197010Y-50294555D01*
X32197000Y-50294359D01*
X32197000Y-50238000D01*
X32198000Y-50236268D01*
X32200000Y-50236268D01*
X32200990Y-50237804D01*
X32202661Y-50254773D01*
X32207556Y-50270907D01*
X32215502Y-50285774D01*
X32226196Y-50298804D01*
X32239226Y-50309498D01*
X32254093Y-50317444D01*
X32270227Y-50322339D01*
X32287094Y-50324000D01*
X33037906Y-50324000D01*
X33054773Y-50322339D01*
X33070907Y-50317444D01*
X33085774Y-50309498D01*
X33098804Y-50298804D01*
X33109498Y-50285774D01*
X33117444Y-50270907D01*
X33122339Y-50254773D01*
X33124000Y-50237906D01*
X33124000Y-50062094D01*
X33122339Y-50045227D01*
X33117444Y-50029093D01*
X33109498Y-50014226D01*
X33098804Y-50001196D01*
X33085774Y-49990502D01*
X33070907Y-49982556D01*
X33054773Y-49977661D01*
X33037906Y-49976000D01*
X32287094Y-49976000D01*
X32270227Y-49977661D01*
X32254093Y-49982556D01*
X32239226Y-49990502D01*
X32226196Y-50001196D01*
X32215502Y-50014226D01*
X32207556Y-50029093D01*
X32202661Y-50045227D01*
X32200990Y-50062196D01*
X32199825Y-50063822D01*
X32197835Y-50063626D01*
X32197000Y-50062000D01*
X32197000Y-50005641D01*
X32197010Y-50005445D01*
X32198093Y-49994449D01*
X32198169Y-49994064D01*
X32199587Y-49989390D01*
X32199737Y-49989028D01*
X32202036Y-49984727D01*
X32202254Y-49984401D01*
X32207421Y-49978104D01*
X32220870Y-49957977D01*
X32230096Y-49935703D01*
X32234800Y-49912052D01*
X32234800Y-49887946D01*
X32230095Y-49864296D01*
X32220869Y-49842022D01*
X32207421Y-49821896D01*
X32202254Y-49815599D01*
X32202036Y-49815273D01*
X32199737Y-49810972D01*
X32199587Y-49810610D01*
X32198169Y-49805936D01*
X32198093Y-49805551D01*
X32197010Y-49794555D01*
X32197000Y-49794359D01*
X32197000Y-49738000D01*
X32198000Y-49736268D01*
X32200000Y-49736268D01*
X32200990Y-49737804D01*
X32202661Y-49754773D01*
X32207556Y-49770907D01*
X32215502Y-49785774D01*
X32226196Y-49798804D01*
X32239226Y-49809498D01*
X32254093Y-49817444D01*
X32270227Y-49822339D01*
X32287094Y-49824000D01*
X33037906Y-49824000D01*
X33054773Y-49822339D01*
X33070907Y-49817444D01*
X33085774Y-49809498D01*
X33098804Y-49798804D01*
X33109498Y-49785774D01*
X33117444Y-49770907D01*
X33122339Y-49754773D01*
X33124000Y-49737906D01*
X33124000Y-49562094D01*
X33122339Y-49545227D01*
X33117444Y-49529093D01*
X33109498Y-49514226D01*
X33098804Y-49501196D01*
X33085774Y-49490502D01*
X33070907Y-49482556D01*
X33054773Y-49477661D01*
X33037906Y-49476000D01*
X32287094Y-49476000D01*
X32270227Y-49477661D01*
X32254093Y-49482556D01*
X32239226Y-49490502D01*
X32226196Y-49501196D01*
X32215502Y-49514226D01*
X32207556Y-49529093D01*
X32202661Y-49545227D01*
X32200990Y-49562196D01*
X32199825Y-49563822D01*
X32197835Y-49563626D01*
X32197000Y-49562000D01*
X32197000Y-49505641D01*
X32197010Y-49505445D01*
X32198093Y-49494449D01*
X32198169Y-49494064D01*
X32199587Y-49489390D01*
X32199737Y-49489028D01*
X32202036Y-49484727D01*
X32202254Y-49484401D01*
X32207421Y-49478104D01*
X32220870Y-49457977D01*
X32230096Y-49435703D01*
X32234800Y-49412052D01*
X32234800Y-49387946D01*
X32230095Y-49364296D01*
X32220869Y-49342022D01*
X32207421Y-49321896D01*
X32202254Y-49315599D01*
X32202036Y-49315273D01*
X32199737Y-49310972D01*
X32199587Y-49310610D01*
X32198169Y-49305936D01*
X32198093Y-49305551D01*
X32197010Y-49294555D01*
X32197000Y-49294359D01*
X32197000Y-49238000D01*
X32198000Y-49236268D01*
X32200000Y-49236268D01*
X32200990Y-49237804D01*
X32202661Y-49254773D01*
X32207556Y-49270907D01*
X32215502Y-49285774D01*
X32226196Y-49298804D01*
X32239226Y-49309498D01*
X32254093Y-49317444D01*
X32270227Y-49322339D01*
X32287094Y-49324000D01*
X33037906Y-49324000D01*
X33054773Y-49322339D01*
X33070907Y-49317444D01*
X33085774Y-49309498D01*
X33098804Y-49298804D01*
X33109498Y-49285774D01*
X33117444Y-49270907D01*
X33122339Y-49254773D01*
X33124000Y-49237906D01*
X33124000Y-49062094D01*
X33122339Y-49045227D01*
X33117444Y-49029093D01*
X33109498Y-49014226D01*
X33098804Y-49001196D01*
X33085774Y-48990502D01*
X33070907Y-48982556D01*
X33054773Y-48977661D01*
X33037906Y-48976000D01*
X32287094Y-48976000D01*
X32270227Y-48977661D01*
X32254093Y-48982556D01*
X32239226Y-48990502D01*
X32226196Y-49001196D01*
X32215502Y-49014226D01*
X32207556Y-49029093D01*
X32202661Y-49045227D01*
X32200990Y-49062196D01*
X32199825Y-49063822D01*
X32197835Y-49063626D01*
X32197000Y-49062000D01*
X32197000Y-49005641D01*
X32197010Y-49005445D01*
X32198093Y-48994449D01*
X32198169Y-48994064D01*
X32199587Y-48989390D01*
X32199737Y-48989028D01*
X32202036Y-48984727D01*
X32202254Y-48984401D01*
X32207421Y-48978104D01*
X32220870Y-48957977D01*
X32230096Y-48935703D01*
X32234800Y-48912052D01*
X32234800Y-48887946D01*
X32230095Y-48864296D01*
X32220869Y-48842022D01*
X32207421Y-48821896D01*
X32202254Y-48815599D01*
X32202036Y-48815273D01*
X32199737Y-48810972D01*
X32199587Y-48810610D01*
X32198169Y-48805936D01*
X32198093Y-48805551D01*
X32197010Y-48794555D01*
X32197000Y-48794359D01*
X32197000Y-48738000D01*
X32198000Y-48736268D01*
X32200000Y-48736268D01*
X32200990Y-48737804D01*
X32202661Y-48754773D01*
X32207556Y-48770907D01*
X32215502Y-48785774D01*
X32226196Y-48798804D01*
X32239226Y-48809498D01*
X32254093Y-48817444D01*
X32270227Y-48822339D01*
X32287094Y-48824000D01*
X33037906Y-48824000D01*
X33054773Y-48822339D01*
X33070907Y-48817444D01*
X33085774Y-48809498D01*
X33098804Y-48798804D01*
X33109498Y-48785774D01*
X33117444Y-48770907D01*
X33122339Y-48754773D01*
X33124000Y-48737906D01*
X33124000Y-48562094D01*
X33122339Y-48545227D01*
X33117444Y-48529093D01*
X33109498Y-48514226D01*
X33098804Y-48501196D01*
X33085774Y-48490502D01*
X33070907Y-48482556D01*
X33054773Y-48477661D01*
X33037906Y-48476000D01*
X32287094Y-48476000D01*
X32270227Y-48477661D01*
X32254093Y-48482556D01*
X32239226Y-48490502D01*
X32226196Y-48501196D01*
X32215502Y-48514226D01*
X32207556Y-48529093D01*
X32202661Y-48545227D01*
X32200990Y-48562196D01*
X32199825Y-48563822D01*
X32197835Y-48563626D01*
X32197000Y-48562000D01*
X32197000Y-48505641D01*
X32197010Y-48505445D01*
X32198093Y-48494449D01*
X32198169Y-48494064D01*
X32199587Y-48489390D01*
X32199737Y-48489028D01*
X32202036Y-48484727D01*
X32202254Y-48484401D01*
X32207421Y-48478104D01*
X32220870Y-48457977D01*
X32230096Y-48435703D01*
X32234800Y-48412052D01*
X32234800Y-48387946D01*
X32230095Y-48364296D01*
X32220869Y-48342022D01*
X32207421Y-48321896D01*
X32202254Y-48315599D01*
X32202036Y-48315273D01*
X32199737Y-48310972D01*
X32199587Y-48310610D01*
X32198169Y-48305936D01*
X32198093Y-48305551D01*
X32197010Y-48294555D01*
X32197000Y-48294359D01*
X32197000Y-48238000D01*
X32198000Y-48236268D01*
X32200000Y-48236268D01*
X32200990Y-48237804D01*
X32202661Y-48254773D01*
X32207556Y-48270907D01*
X32215502Y-48285774D01*
X32226196Y-48298804D01*
X32239226Y-48309498D01*
X32254093Y-48317444D01*
X32270227Y-48322339D01*
X32287094Y-48324000D01*
X33037906Y-48324000D01*
X33054773Y-48322339D01*
X33070907Y-48317444D01*
X33085774Y-48309498D01*
X33098804Y-48298804D01*
X33109498Y-48285774D01*
X33117444Y-48270907D01*
X33122339Y-48254773D01*
X33124000Y-48237906D01*
X33124000Y-48062094D01*
X33122908Y-48051000D01*
X33251000Y-48051000D01*
X33251000Y-50749000D01*
X35949000Y-50749000D01*
X35949000Y-48051000D01*
X33251000Y-48051000D01*
X33122908Y-48051000D01*
X33122339Y-48045227D01*
X33117444Y-48029093D01*
X33109498Y-48014226D01*
X33098804Y-48001196D01*
X33085774Y-47990502D01*
X33070907Y-47982556D01*
X33054773Y-47977661D01*
X33037804Y-47975990D01*
X33036178Y-47974825D01*
X33036374Y-47972835D01*
X33038000Y-47972000D01*
X33048907Y-47972000D01*
X33072992Y-47969628D01*
X33096067Y-47962628D01*
X33117331Y-47951263D01*
X33135968Y-47935968D01*
X33151263Y-47917331D01*
X33162628Y-47896067D01*
X33169628Y-47872992D01*
X33172000Y-47848907D01*
X33172000Y-47838000D01*
X33173000Y-47836268D01*
X33175000Y-47836268D01*
X33175990Y-47837804D01*
X33177661Y-47854773D01*
X33182556Y-47870907D01*
X33190502Y-47885774D01*
X33201196Y-47898804D01*
X33214226Y-47909498D01*
X33229093Y-47917444D01*
X33245227Y-47922339D01*
X33262094Y-47924000D01*
X33437906Y-47924000D01*
X33454773Y-47922339D01*
X33470907Y-47917444D01*
X33485774Y-47909498D01*
X33498804Y-47898804D01*
X33509498Y-47885774D01*
X33517444Y-47870907D01*
X33522339Y-47854773D01*
X33524000Y-47837906D01*
X33524000Y-47087094D01*
X33522339Y-47070227D01*
X33517444Y-47054093D01*
X33509498Y-47039226D01*
X33498804Y-47026196D01*
X33485774Y-47015502D01*
X33470907Y-47007556D01*
X33454773Y-47002661D01*
X33437804Y-47000990D01*
X33436178Y-46999825D01*
X33436374Y-46997835D01*
X33438000Y-46997000D01*
X33494359Y-46997000D01*
X33494555Y-46997010D01*
G37*
G36*
X27552732Y-51335000D02*
G01*
X27553000Y-51336000D01*
X27553000Y-51464000D01*
X27552000Y-51465732D01*
X27551000Y-51466000D01*
X26449000Y-51466000D01*
X26447268Y-51465000D01*
X26447000Y-51464000D01*
X26447000Y-51336000D01*
X26448000Y-51334268D01*
X26449000Y-51334000D01*
X27551000Y-51334000D01*
X27552732Y-51335000D01*
G37*
G36*
X27552732Y-50835000D02*
G01*
X27553000Y-50836000D01*
X27553000Y-50964000D01*
X27552000Y-50965732D01*
X27551000Y-50966000D01*
X26449000Y-50966000D01*
X26447268Y-50965000D01*
X26447000Y-50964000D01*
X26447000Y-50836000D01*
X26448000Y-50834268D01*
X26449000Y-50834000D01*
X27551000Y-50834000D01*
X27552732Y-50835000D01*
G37*
G36*
X54540732Y-47648000D02*
G01*
X54541000Y-47649000D01*
X54541000Y-48529000D01*
X54859000Y-48529000D01*
X54859000Y-48414001D01*
X54860000Y-48412269D01*
X54862000Y-48412269D01*
X54862990Y-48413805D01*
X54865372Y-48437992D01*
X54872372Y-48461067D01*
X54883737Y-48482331D01*
X54899032Y-48500968D01*
X54917669Y-48516263D01*
X54938933Y-48527628D01*
X54962008Y-48534628D01*
X54986195Y-48537010D01*
X54987821Y-48538175D01*
X54987625Y-48540165D01*
X54985999Y-48541000D01*
X54871000Y-48541000D01*
X54871000Y-48859000D01*
X55751000Y-48859000D01*
X55752732Y-48860000D01*
X55753000Y-48861000D01*
X55753000Y-48939000D01*
X55752000Y-48940732D01*
X55751000Y-48941000D01*
X54871000Y-48941000D01*
X54871000Y-49259000D01*
X55751000Y-49259000D01*
X55752732Y-49260000D01*
X55753000Y-49261000D01*
X55753000Y-49339000D01*
X55752000Y-49340732D01*
X55751000Y-49341000D01*
X54871000Y-49341000D01*
X54871000Y-49659000D01*
X55751000Y-49659000D01*
X55752732Y-49660000D01*
X55753000Y-49661000D01*
X55753000Y-49739000D01*
X55752000Y-49740732D01*
X55751000Y-49741000D01*
X54871000Y-49741000D01*
X54871000Y-50059000D01*
X54985999Y-50059000D01*
X54987731Y-50060000D01*
X54987731Y-50062000D01*
X54986195Y-50062990D01*
X54962008Y-50065372D01*
X54938933Y-50072372D01*
X54917669Y-50083737D01*
X54899032Y-50099032D01*
X54883737Y-50117669D01*
X54872372Y-50138933D01*
X54865372Y-50162008D01*
X54862990Y-50186195D01*
X54861825Y-50187821D01*
X54859835Y-50187625D01*
X54859000Y-50185999D01*
X54859000Y-50071000D01*
X54541000Y-50071000D01*
X54541000Y-50951000D01*
X54540000Y-50952732D01*
X54539000Y-50953000D01*
X54461000Y-50953000D01*
X54459268Y-50952000D01*
X54459000Y-50951000D01*
X54459000Y-50071000D01*
X54141000Y-50071000D01*
X54141000Y-50951000D01*
X54140000Y-50952732D01*
X54139000Y-50953000D01*
X54061000Y-50953000D01*
X54059268Y-50952000D01*
X54059000Y-50951000D01*
X54059000Y-50071000D01*
X53741000Y-50071000D01*
X53741000Y-50951000D01*
X53740000Y-50952732D01*
X53739000Y-50953000D01*
X53661000Y-50953000D01*
X53659268Y-50952000D01*
X53659000Y-50951000D01*
X53659000Y-50071000D01*
X53341000Y-50071000D01*
X53341000Y-50185999D01*
X53340000Y-50187731D01*
X53338000Y-50187731D01*
X53337010Y-50186195D01*
X53334628Y-50162008D01*
X53327628Y-50138933D01*
X53316263Y-50117669D01*
X53300968Y-50099032D01*
X53282331Y-50083737D01*
X53261067Y-50072372D01*
X53237992Y-50065372D01*
X53213805Y-50062990D01*
X53212179Y-50061825D01*
X53212375Y-50059835D01*
X53214001Y-50059000D01*
X53329000Y-50059000D01*
X53329000Y-49741000D01*
X52449000Y-49741000D01*
X52447268Y-49740000D01*
X52447000Y-49739000D01*
X52447000Y-49661000D01*
X52448000Y-49659268D01*
X52449000Y-49659000D01*
X53329000Y-49659000D01*
X53329000Y-49341000D01*
X52449000Y-49341000D01*
X52447268Y-49340000D01*
X52447000Y-49339000D01*
X52447000Y-49261000D01*
X52448000Y-49259268D01*
X52449000Y-49259000D01*
X53329000Y-49259000D01*
X53329000Y-48941000D01*
X52449000Y-48941000D01*
X52447268Y-48940000D01*
X52447000Y-48939000D01*
X52447000Y-48861000D01*
X52448000Y-48859268D01*
X52449000Y-48859000D01*
X53329000Y-48859000D01*
X53329000Y-48651000D01*
X53451000Y-48651000D01*
X53451000Y-49949000D01*
X54749000Y-49949000D01*
X54749000Y-48651000D01*
X53451000Y-48651000D01*
X53329000Y-48651000D01*
X53329000Y-48541000D01*
X53214001Y-48541000D01*
X53212269Y-48540000D01*
X53212269Y-48538000D01*
X53213805Y-48537010D01*
X53237992Y-48534628D01*
X53261067Y-48527628D01*
X53282331Y-48516263D01*
X53300968Y-48500968D01*
X53316263Y-48482331D01*
X53327628Y-48461067D01*
X53334628Y-48437992D01*
X53337010Y-48413805D01*
X53338175Y-48412179D01*
X53340165Y-48412375D01*
X53341000Y-48414001D01*
X53341000Y-48529000D01*
X53659000Y-48529000D01*
X53659000Y-47651000D01*
X53741000Y-47651000D01*
X53741000Y-48529000D01*
X54059000Y-48529000D01*
X54059000Y-47651000D01*
X54141000Y-47651000D01*
X54141000Y-48529000D01*
X54459000Y-48529000D01*
X54459000Y-47651000D01*
X54141000Y-47651000D01*
X54059000Y-47651000D01*
X53741000Y-47651000D01*
X53659000Y-47651000D01*
X53659000Y-47649000D01*
X53660000Y-47647268D01*
X53661000Y-47647000D01*
X54539000Y-47647000D01*
X54540732Y-47648000D01*
G37*
G36*
X27552732Y-50335000D02*
G01*
X27553000Y-50336000D01*
X27553000Y-50464000D01*
X27552000Y-50465732D01*
X27551000Y-50466000D01*
X26449000Y-50466000D01*
X26447268Y-50465000D01*
X26447000Y-50464000D01*
X26447000Y-50336000D01*
X26448000Y-50334268D01*
X26449000Y-50334000D01*
X27551000Y-50334000D01*
X27552732Y-50335000D01*
G37*
G36*
X27552732Y-49835000D02*
G01*
X27553000Y-49836000D01*
X27553000Y-49964000D01*
X27552000Y-49965732D01*
X27551000Y-49966000D01*
X26449000Y-49966000D01*
X26447268Y-49965000D01*
X26447000Y-49964000D01*
X26447000Y-49836000D01*
X26448000Y-49834268D01*
X26449000Y-49834000D01*
X27551000Y-49834000D01*
X27552732Y-49835000D01*
G37*
G36*
X27552732Y-49335000D02*
G01*
X27553000Y-49336000D01*
X27553000Y-49464000D01*
X27552000Y-49465732D01*
X27551000Y-49466000D01*
X26449000Y-49466000D01*
X26447268Y-49465000D01*
X26447000Y-49464000D01*
X26447000Y-49336000D01*
X26448000Y-49334268D01*
X26449000Y-49334000D01*
X27551000Y-49334000D01*
X27552732Y-49335000D01*
G37*
G36*
X27552732Y-48860000D02*
G01*
X27553000Y-48861000D01*
X27553000Y-48964000D01*
X27552000Y-48965732D01*
X27551000Y-48966000D01*
X26449000Y-48966000D01*
X26447268Y-48965000D01*
X26447000Y-48964000D01*
X26447000Y-48861000D01*
X26448000Y-48859268D01*
X26449000Y-48859000D01*
X27551000Y-48859000D01*
X27552732Y-48860000D01*
G37*
G36*
X26450165Y-47653418D02*
G01*
X26451000Y-47655044D01*
X26451000Y-48109000D01*
X27551000Y-48109000D01*
X27552732Y-48110000D01*
X27553000Y-48111000D01*
X27553000Y-48239000D01*
X27552000Y-48240732D01*
X27551000Y-48241000D01*
X26449000Y-48241000D01*
X26447268Y-48240000D01*
X26447000Y-48239000D01*
X26447000Y-48145050D01*
X26444628Y-48120965D01*
X26437628Y-48097890D01*
X26426263Y-48076626D01*
X26410968Y-48057989D01*
X26392331Y-48042694D01*
X26371067Y-48031329D01*
X26347992Y-48024329D01*
X26324001Y-48021966D01*
X26300010Y-48024329D01*
X26276935Y-48031329D01*
X26255671Y-48042694D01*
X26237034Y-48057989D01*
X26224604Y-48073135D01*
X26222732Y-48073839D01*
X26221186Y-48072570D01*
X26221210Y-48071101D01*
X26248316Y-48005662D01*
X26262238Y-47935675D01*
X26262238Y-47864325D01*
X26248316Y-47794338D01*
X26221210Y-47728899D01*
X26221471Y-47726916D01*
X26223319Y-47726151D01*
X26224604Y-47726865D01*
X26237034Y-47742011D01*
X26255671Y-47757306D01*
X26276935Y-47768671D01*
X26300010Y-47775671D01*
X26324001Y-47778034D01*
X26347992Y-47775671D01*
X26371067Y-47768671D01*
X26392331Y-47757306D01*
X26410968Y-47742011D01*
X26426263Y-47723374D01*
X26437628Y-47702110D01*
X26444628Y-47679035D01*
X26447010Y-47654848D01*
X26448175Y-47653222D01*
X26450165Y-47653418D01*
G37*
G36*
X55292058Y-34947010D02*
G01*
X55310366Y-34948813D01*
X55310751Y-34948889D01*
X55322458Y-34952441D01*
X55322820Y-34952591D01*
X55341935Y-34962807D01*
X55364298Y-34972070D01*
X55387948Y-34976774D01*
X55412054Y-34976774D01*
X55435704Y-34972069D01*
X55458065Y-34962807D01*
X55477180Y-34952591D01*
X55477542Y-34952441D01*
X55489249Y-34948889D01*
X55489634Y-34948813D01*
X55507942Y-34947010D01*
X55508138Y-34947000D01*
X55564500Y-34947000D01*
X55566232Y-34948000D01*
X55566232Y-34950000D01*
X55564696Y-34950990D01*
X55540411Y-34953381D01*
X55517242Y-34960410D01*
X55495892Y-34971822D01*
X55477179Y-34987179D01*
X55461822Y-35005892D01*
X55450410Y-35027242D01*
X55443381Y-35050411D01*
X55441000Y-35074594D01*
X55441000Y-35325406D01*
X55443381Y-35349589D01*
X55450410Y-35372758D01*
X55461822Y-35394108D01*
X55477179Y-35412821D01*
X55495892Y-35428178D01*
X55517242Y-35439590D01*
X55540411Y-35446619D01*
X55564696Y-35449010D01*
X55566322Y-35450175D01*
X55566126Y-35452165D01*
X55564500Y-35453000D01*
X55508138Y-35453000D01*
X55507942Y-35452990D01*
X55489634Y-35451187D01*
X55489249Y-35451111D01*
X55477542Y-35447559D01*
X55477180Y-35447409D01*
X55458065Y-35437193D01*
X55435702Y-35427930D01*
X55412052Y-35423226D01*
X55387946Y-35423226D01*
X55364296Y-35427931D01*
X55341935Y-35437193D01*
X55322820Y-35447409D01*
X55322458Y-35447559D01*
X55310751Y-35451111D01*
X55310366Y-35451187D01*
X55292058Y-35452990D01*
X55291862Y-35453000D01*
X55235500Y-35453000D01*
X55233768Y-35452000D01*
X55233768Y-35450000D01*
X55235304Y-35449010D01*
X55259589Y-35446619D01*
X55282758Y-35439590D01*
X55304108Y-35428178D01*
X55322821Y-35412821D01*
X55338178Y-35394108D01*
X55349590Y-35372758D01*
X55356619Y-35349589D01*
X55359000Y-35325406D01*
X55359000Y-35074594D01*
X55356619Y-35050411D01*
X55349590Y-35027242D01*
X55338178Y-35005892D01*
X55322821Y-34987179D01*
X55304108Y-34971822D01*
X55282758Y-34960410D01*
X55259589Y-34953381D01*
X55235304Y-34950990D01*
X55233678Y-34949825D01*
X55233874Y-34947835D01*
X55235500Y-34947000D01*
X55291862Y-34947000D01*
X55292058Y-34947010D01*
G37*
G36*
X32852732Y-33975000D02*
G01*
X32853000Y-33976000D01*
X32853000Y-33978641D01*
X32851581Y-33980555D01*
X32829107Y-33987372D01*
X32807843Y-33998737D01*
X32789206Y-34014032D01*
X32773911Y-34032669D01*
X32762546Y-34053933D01*
X32755546Y-34077008D01*
X32753183Y-34100999D01*
X32755546Y-34124990D01*
X32762532Y-34148020D01*
X32770596Y-34161474D01*
X32770620Y-34162902D01*
X32774414Y-34170000D01*
X32774348Y-34171999D01*
X32772585Y-34172942D01*
X32771104Y-34172212D01*
X32747071Y-34142929D01*
X32715553Y-34117062D01*
X32679594Y-34097842D01*
X32640573Y-34086005D01*
X32600000Y-34082009D01*
X32559426Y-34086005D01*
X32520405Y-34097842D01*
X32484446Y-34117062D01*
X32452929Y-34142929D01*
X32427062Y-34174447D01*
X32407842Y-34210406D01*
X32396005Y-34249427D01*
X32392000Y-34290094D01*
X32392001Y-34650000D01*
X32392000Y-34650002D01*
X32392000Y-35070000D01*
X32391000Y-35071732D01*
X32390000Y-35072000D01*
X32310000Y-35072000D01*
X32308268Y-35071000D01*
X32308000Y-35070000D01*
X32308000Y-34290094D01*
X32303995Y-34249426D01*
X32292158Y-34210405D01*
X32272938Y-34174446D01*
X32247071Y-34142929D01*
X32215553Y-34117062D01*
X32179594Y-34097842D01*
X32140573Y-34086005D01*
X32100000Y-34082009D01*
X32059426Y-34086005D01*
X32020405Y-34097842D01*
X31984446Y-34117062D01*
X31952929Y-34142929D01*
X31927062Y-34174447D01*
X31907842Y-34210406D01*
X31896005Y-34249427D01*
X31892000Y-34290094D01*
X31892001Y-34650000D01*
X31892000Y-34650002D01*
X31892000Y-35070000D01*
X31891000Y-35071732D01*
X31890000Y-35072000D01*
X31810000Y-35072000D01*
X31808268Y-35071000D01*
X31808000Y-35070000D01*
X31808000Y-34290094D01*
X31803995Y-34249426D01*
X31792158Y-34210405D01*
X31772938Y-34174446D01*
X31747071Y-34142929D01*
X31715553Y-34117062D01*
X31679594Y-34097842D01*
X31640573Y-34086005D01*
X31600000Y-34082009D01*
X31559426Y-34086005D01*
X31520405Y-34097842D01*
X31484446Y-34117062D01*
X31452929Y-34142929D01*
X31427062Y-34174447D01*
X31407842Y-34210406D01*
X31396005Y-34249427D01*
X31392000Y-34290094D01*
X31392001Y-34650000D01*
X31392000Y-34650002D01*
X31392000Y-35070000D01*
X31391000Y-35071732D01*
X31390000Y-35072000D01*
X31310000Y-35072000D01*
X31308268Y-35071000D01*
X31308000Y-35070000D01*
X31308000Y-34290094D01*
X31303995Y-34249426D01*
X31292158Y-34210405D01*
X31272938Y-34174446D01*
X31247071Y-34142929D01*
X31215553Y-34117062D01*
X31179594Y-34097842D01*
X31140573Y-34086005D01*
X31100000Y-34082009D01*
X31059426Y-34086005D01*
X31020405Y-34097842D01*
X30984446Y-34117062D01*
X30952929Y-34142929D01*
X30927062Y-34174447D01*
X30907842Y-34210406D01*
X30896005Y-34249427D01*
X30892000Y-34290094D01*
X30892001Y-34650000D01*
X30892000Y-34650002D01*
X30892000Y-35070000D01*
X30891000Y-35071732D01*
X30890000Y-35072000D01*
X30810000Y-35072000D01*
X30808268Y-35071000D01*
X30808000Y-35070000D01*
X30808000Y-34290094D01*
X30803995Y-34249426D01*
X30792158Y-34210405D01*
X30772938Y-34174446D01*
X30747071Y-34142929D01*
X30715553Y-34117062D01*
X30679594Y-34097842D01*
X30640573Y-34086005D01*
X30600000Y-34082009D01*
X30559426Y-34086005D01*
X30520405Y-34097842D01*
X30484446Y-34117062D01*
X30452929Y-34142929D01*
X30428897Y-34172212D01*
X30427025Y-34172916D01*
X30425479Y-34171647D01*
X30425587Y-34170000D01*
X30428175Y-34165158D01*
X30428276Y-34164990D01*
X30432298Y-34158969D01*
X30441523Y-34136695D01*
X30446226Y-34113044D01*
X30446224Y-34088938D01*
X30441518Y-34065288D01*
X30432291Y-34043015D01*
X30418895Y-34022968D01*
X30401847Y-34005923D01*
X30381798Y-33992529D01*
X30359567Y-33983321D01*
X30348707Y-33981711D01*
X30347000Y-33979733D01*
X30347000Y-33976000D01*
X30348000Y-33974268D01*
X30349000Y-33974000D01*
X32851000Y-33974000D01*
X32852732Y-33975000D01*
G37*
G36*
X30350732Y-33040000D02*
G01*
X30351000Y-33041000D01*
X30351000Y-33159000D01*
X30350000Y-33160732D01*
X30349000Y-33161000D01*
X29649000Y-33161000D01*
X29647268Y-33160000D01*
X29647000Y-33159000D01*
X29647000Y-33041000D01*
X29648000Y-33039268D01*
X29649000Y-33039000D01*
X30349000Y-33039000D01*
X30350732Y-33040000D01*
G37*
G36*
X33552732Y-33040000D02*
G01*
X33553000Y-33041000D01*
X33553000Y-33159000D01*
X33552000Y-33160732D01*
X33551000Y-33161000D01*
X32851000Y-33161000D01*
X32849268Y-33160000D01*
X32849000Y-33159000D01*
X32849000Y-33041000D01*
X32850000Y-33039268D01*
X32851000Y-33039000D01*
X33551000Y-33039000D01*
X33552732Y-33040000D01*
G37*
G36*
X32391732Y-31129000D02*
G01*
X32392000Y-31130000D01*
X32392000Y-31340000D01*
X32392001Y-31909906D01*
X32396006Y-31950574D01*
X32407843Y-31989595D01*
X32427063Y-32025554D01*
X32452930Y-32057071D01*
X32484447Y-32082938D01*
X32520406Y-32102158D01*
X32559427Y-32113995D01*
X32600000Y-32117991D01*
X32640574Y-32113995D01*
X32679595Y-32102158D01*
X32715554Y-32082938D01*
X32747071Y-32057071D01*
X32771104Y-32027788D01*
X32772976Y-32027084D01*
X32774522Y-32028353D01*
X32774414Y-32030000D01*
X32771822Y-32034849D01*
X32771721Y-32035017D01*
X32767701Y-32041035D01*
X32758477Y-32063310D01*
X32753775Y-32086960D01*
X32753777Y-32111066D01*
X32758483Y-32134714D01*
X32767714Y-32156991D01*
X32781109Y-32177035D01*
X32798158Y-32194080D01*
X32818207Y-32207473D01*
X32840439Y-32216680D01*
X32851293Y-32218289D01*
X32853000Y-32220267D01*
X32853000Y-32224000D01*
X32852000Y-32225732D01*
X32851000Y-32226000D01*
X30349000Y-32226000D01*
X30347268Y-32225000D01*
X30347000Y-32224000D01*
X30347000Y-32221360D01*
X30348419Y-32219446D01*
X30370894Y-32212628D01*
X30392158Y-32201263D01*
X30410795Y-32185968D01*
X30426090Y-32167331D01*
X30437455Y-32146067D01*
X30444455Y-32122992D01*
X30446818Y-32099001D01*
X30444455Y-32075010D01*
X30437469Y-32051980D01*
X30429405Y-32038526D01*
X30429381Y-32037098D01*
X30425587Y-32030000D01*
X30425653Y-32028001D01*
X30427416Y-32027058D01*
X30428897Y-32027788D01*
X30452930Y-32057071D01*
X30484447Y-32082938D01*
X30520406Y-32102158D01*
X30559427Y-32113995D01*
X30600000Y-32117991D01*
X30640574Y-32113995D01*
X30679595Y-32102158D01*
X30715554Y-32082938D01*
X30747071Y-32057071D01*
X30772938Y-32025554D01*
X30792158Y-31989595D01*
X30803995Y-31950574D01*
X30808000Y-31909906D01*
X30808000Y-31132000D01*
X30892000Y-31132000D01*
X30892000Y-31340000D01*
X30892001Y-31909906D01*
X30896006Y-31950574D01*
X30907843Y-31989595D01*
X30927063Y-32025554D01*
X30952930Y-32057071D01*
X30984447Y-32082938D01*
X31020406Y-32102158D01*
X31059427Y-32113995D01*
X31100000Y-32117991D01*
X31140574Y-32113995D01*
X31179595Y-32102158D01*
X31215554Y-32082938D01*
X31247071Y-32057071D01*
X31272938Y-32025554D01*
X31292158Y-31989595D01*
X31303995Y-31950574D01*
X31308000Y-31909906D01*
X31308000Y-31132000D01*
X31392000Y-31132000D01*
X31392000Y-31340000D01*
X31392001Y-31909906D01*
X31396006Y-31950574D01*
X31407843Y-31989595D01*
X31427063Y-32025554D01*
X31452930Y-32057071D01*
X31484447Y-32082938D01*
X31520406Y-32102158D01*
X31559427Y-32113995D01*
X31600000Y-32117991D01*
X31640574Y-32113995D01*
X31679595Y-32102158D01*
X31715554Y-32082938D01*
X31747071Y-32057071D01*
X31772938Y-32025554D01*
X31792158Y-31989595D01*
X31803995Y-31950574D01*
X31808000Y-31909906D01*
X31808000Y-31132000D01*
X31892000Y-31132000D01*
X31892000Y-31340000D01*
X31892001Y-31909906D01*
X31896006Y-31950574D01*
X31907843Y-31989595D01*
X31927063Y-32025554D01*
X31952930Y-32057071D01*
X31984447Y-32082938D01*
X32020406Y-32102158D01*
X32059427Y-32113995D01*
X32100000Y-32117991D01*
X32140574Y-32113995D01*
X32179595Y-32102158D01*
X32215554Y-32082938D01*
X32247071Y-32057071D01*
X32272938Y-32025554D01*
X32292158Y-31989595D01*
X32303995Y-31950574D01*
X32308000Y-31909906D01*
X32308000Y-31132000D01*
X31892000Y-31132000D01*
X31808000Y-31132000D01*
X31392000Y-31132000D01*
X31308000Y-31132000D01*
X30892000Y-31132000D01*
X30808000Y-31132000D01*
X30808000Y-31130000D01*
X30809000Y-31128268D01*
X30810000Y-31128000D01*
X32390000Y-31128000D01*
X32391732Y-31129000D01*
G37*
G36*
X30392058Y-29147010D02*
G01*
X30410366Y-29148813D01*
X30410751Y-29148889D01*
X30422458Y-29152441D01*
X30422820Y-29152591D01*
X30441935Y-29162807D01*
X30464298Y-29172070D01*
X30487948Y-29176774D01*
X30512054Y-29176774D01*
X30535704Y-29172069D01*
X30558065Y-29162807D01*
X30577180Y-29152591D01*
X30577542Y-29152441D01*
X30589249Y-29148889D01*
X30589634Y-29148813D01*
X30607942Y-29147010D01*
X30608138Y-29147000D01*
X30664500Y-29147000D01*
X30666232Y-29148000D01*
X30666232Y-29150000D01*
X30664696Y-29150990D01*
X30640411Y-29153381D01*
X30617242Y-29160410D01*
X30595892Y-29171822D01*
X30577179Y-29187179D01*
X30561822Y-29205892D01*
X30550410Y-29227242D01*
X30543381Y-29250411D01*
X30541000Y-29274594D01*
X30541000Y-29525406D01*
X30543381Y-29549589D01*
X30550410Y-29572758D01*
X30561822Y-29594108D01*
X30577179Y-29612821D01*
X30595892Y-29628178D01*
X30617242Y-29639590D01*
X30640411Y-29646619D01*
X30664696Y-29649010D01*
X30666322Y-29650175D01*
X30666126Y-29652165D01*
X30664500Y-29653000D01*
X30608138Y-29653000D01*
X30607942Y-29652990D01*
X30589634Y-29651187D01*
X30589249Y-29651111D01*
X30577542Y-29647559D01*
X30577180Y-29647409D01*
X30558065Y-29637193D01*
X30535702Y-29627930D01*
X30512052Y-29623226D01*
X30487946Y-29623226D01*
X30464296Y-29627931D01*
X30441935Y-29637193D01*
X30422820Y-29647409D01*
X30422458Y-29647559D01*
X30410751Y-29651111D01*
X30410366Y-29651187D01*
X30392058Y-29652990D01*
X30391862Y-29653000D01*
X30335500Y-29653000D01*
X30333768Y-29652000D01*
X30333768Y-29650000D01*
X30335304Y-29649010D01*
X30359589Y-29646619D01*
X30382758Y-29639590D01*
X30404108Y-29628178D01*
X30422821Y-29612821D01*
X30438178Y-29594108D01*
X30449590Y-29572758D01*
X30456619Y-29549589D01*
X30459000Y-29525406D01*
X30459000Y-29274594D01*
X30456619Y-29250411D01*
X30449590Y-29227242D01*
X30438178Y-29205892D01*
X30422821Y-29187179D01*
X30404108Y-29171822D01*
X30382758Y-29160410D01*
X30359589Y-29153381D01*
X30335304Y-29150990D01*
X30333678Y-29149825D01*
X30333874Y-29147835D01*
X30335500Y-29147000D01*
X30391862Y-29147000D01*
X30392058Y-29147010D01*
G37*
M02*
