%TF.GenerationSoftware,KiCad,Pcbnew,(6.0.9-0)*%
%TF.CreationDate,2022-11-28T01:24:07-05:00*%
%TF.ProjectId,uBMS-2,75424d53-2d32-42e6-9b69-6361645f7063,rev?*%
%TF.SameCoordinates,Original*%
%TF.FileFunction,Drillmap*%
%TF.FilePolarity,Positive*%
%FSLAX45Y45*%
G04 Gerber Fmt 4.5, Leading zero omitted, Abs format (unit mm)*
G04 Created by KiCad (PCBNEW (6.0.9-0)) date 2022-11-28 01:24:07*
%MOMM*%
%LPD*%
G01*
G04 APERTURE LIST*
%ADD10C,0.050000*%
%ADD11C,0.200000*%
%ADD12C,0.063000*%
%ADD13C,0.090000*%
%ADD14C,0.100000*%
G04 APERTURE END LIST*
D10*
X1750000Y-2200000D02*
X1750000Y-11800000D01*
X1950000Y-12000000D02*
X8050000Y-12000000D01*
X8050000Y-2000000D02*
X1950000Y-2000000D01*
X8250000Y-11800000D02*
X8250000Y-2200000D01*
X8050000Y-12000000D02*
G75*
G03*
X8250000Y-11800000I0J200000D01*
G01*
X1950000Y-2000000D02*
G75*
G03*
X1750000Y-2200000I0J-200000D01*
G01*
X8250000Y-2200000D02*
G75*
G03*
X8050000Y-2000000I-200000J0D01*
G01*
X1750000Y-11800000D02*
G75*
G03*
X1950000Y-12000000I200000J0D01*
G01*
D11*
D12*
X2328500Y-4743500D02*
X2391500Y-4806500D01*
X2391500Y-4743500D02*
X2328500Y-4806500D01*
X2328500Y-5343500D02*
X2391500Y-5406500D01*
X2391500Y-5343500D02*
X2328500Y-5406500D01*
D13*
X3690000Y-3090000D02*
G75*
G03*
X3690000Y-3090000I-45000J0D01*
G01*
D11*
X3690000Y-3135000D02*
X3690000Y-3045000D01*
X3600000Y-3135000D02*
X3600000Y-3045000D01*
X3690000Y-3045000D02*
G75*
G03*
X3600000Y-3045000I-45000J0D01*
G01*
X3600000Y-3135000D02*
G75*
G03*
X3690000Y-3135000I45000J0D01*
G01*
D13*
X5040000Y-3090000D02*
G75*
G03*
X5040000Y-3090000I-45000J0D01*
G01*
D11*
X5040000Y-3135000D02*
X5040000Y-3045000D01*
X4950000Y-3135000D02*
X4950000Y-3045000D01*
X5040000Y-3045000D02*
G75*
G03*
X4950000Y-3045000I-45000J0D01*
G01*
X4950000Y-3135000D02*
G75*
G03*
X5040000Y-3135000I45000J0D01*
G01*
D13*
X6955000Y-2865000D02*
G75*
G03*
X6955000Y-2865000I-45000J0D01*
G01*
D11*
X6865000Y-2910000D02*
X6955000Y-2910000D01*
X6865000Y-2820000D02*
X6955000Y-2820000D01*
X6955000Y-2910000D02*
G75*
G03*
X6955000Y-2820000I0J45000D01*
G01*
X6865000Y-2820000D02*
G75*
G03*
X6865000Y-2910000I0J-45000D01*
G01*
D13*
X6955000Y-4215000D02*
G75*
G03*
X6955000Y-4215000I-45000J0D01*
G01*
D11*
X6865000Y-4260000D02*
X6955000Y-4260000D01*
X6865000Y-4170000D02*
X6955000Y-4170000D01*
X6955000Y-4260000D02*
G75*
G03*
X6955000Y-4170000I0J45000D01*
G01*
X6865000Y-4170000D02*
G75*
G03*
X6865000Y-4260000I0J-45000D01*
G01*
D14*
X2349000Y-7220000D02*
X2349000Y-7320000D01*
X2299000Y-7270000D02*
X2399000Y-7270000D01*
X2349000Y-8220000D02*
X2349000Y-8320000D01*
X2299000Y-8270000D02*
X2399000Y-8270000D01*
X2850000Y-10951000D02*
X2850000Y-11051000D01*
X2800000Y-11001000D02*
X2900000Y-11001000D01*
X3850000Y-10951000D02*
X3850000Y-11051000D01*
X3800000Y-11001000D02*
X3900000Y-11001000D01*
X6150000Y-10951000D02*
X6150000Y-11051000D01*
X6100000Y-11001000D02*
X6200000Y-11001000D01*
X7150000Y-10951000D02*
X7150000Y-11051000D01*
X7100000Y-11001000D02*
X7200000Y-11001000D01*
D11*
X2005119Y-12312976D02*
X2005119Y-12112976D01*
X2052738Y-12112976D01*
X2081309Y-12122500D01*
X2100357Y-12141548D01*
X2109881Y-12160595D01*
X2119405Y-12198690D01*
X2119405Y-12227262D01*
X2109881Y-12265357D01*
X2100357Y-12284405D01*
X2081309Y-12303452D01*
X2052738Y-12312976D01*
X2005119Y-12312976D01*
X2205119Y-12312976D02*
X2205119Y-12179643D01*
X2205119Y-12217738D02*
X2214643Y-12198690D01*
X2224167Y-12189167D01*
X2243214Y-12179643D01*
X2262262Y-12179643D01*
X2328929Y-12312976D02*
X2328929Y-12179643D01*
X2328929Y-12112976D02*
X2319405Y-12122500D01*
X2328929Y-12132024D01*
X2338452Y-12122500D01*
X2328929Y-12112976D01*
X2328929Y-12132024D01*
X2452738Y-12312976D02*
X2433690Y-12303452D01*
X2424167Y-12284405D01*
X2424167Y-12112976D01*
X2557500Y-12312976D02*
X2538452Y-12303452D01*
X2528929Y-12284405D01*
X2528929Y-12112976D01*
X2786071Y-12312976D02*
X2786071Y-12112976D01*
X2852738Y-12255833D01*
X2919405Y-12112976D01*
X2919405Y-12312976D01*
X3100357Y-12312976D02*
X3100357Y-12208214D01*
X3090833Y-12189167D01*
X3071786Y-12179643D01*
X3033690Y-12179643D01*
X3014643Y-12189167D01*
X3100357Y-12303452D02*
X3081309Y-12312976D01*
X3033690Y-12312976D01*
X3014643Y-12303452D01*
X3005119Y-12284405D01*
X3005119Y-12265357D01*
X3014643Y-12246309D01*
X3033690Y-12236786D01*
X3081309Y-12236786D01*
X3100357Y-12227262D01*
X3195595Y-12179643D02*
X3195595Y-12379643D01*
X3195595Y-12189167D02*
X3214643Y-12179643D01*
X3252738Y-12179643D01*
X3271786Y-12189167D01*
X3281309Y-12198690D01*
X3290833Y-12217738D01*
X3290833Y-12274881D01*
X3281309Y-12293928D01*
X3271786Y-12303452D01*
X3252738Y-12312976D01*
X3214643Y-12312976D01*
X3195595Y-12303452D01*
X3376548Y-12293928D02*
X3386071Y-12303452D01*
X3376548Y-12312976D01*
X3367024Y-12303452D01*
X3376548Y-12293928D01*
X3376548Y-12312976D01*
X3376548Y-12189167D02*
X3386071Y-12198690D01*
X3376548Y-12208214D01*
X3367024Y-12198690D01*
X3376548Y-12189167D01*
X3376548Y-12208214D01*
D12*
X1684500Y-12611000D02*
X1747500Y-12674000D01*
X1747500Y-12611000D02*
X1684500Y-12674000D01*
D11*
X2043214Y-12532976D02*
X2062262Y-12532976D01*
X2081309Y-12542500D01*
X2090833Y-12552024D01*
X2100357Y-12571071D01*
X2109881Y-12609167D01*
X2109881Y-12656786D01*
X2100357Y-12694881D01*
X2090833Y-12713928D01*
X2081309Y-12723452D01*
X2062262Y-12732976D01*
X2043214Y-12732976D01*
X2024167Y-12723452D01*
X2014643Y-12713928D01*
X2005119Y-12694881D01*
X1995595Y-12656786D01*
X1995595Y-12609167D01*
X2005119Y-12571071D01*
X2014643Y-12552024D01*
X2024167Y-12542500D01*
X2043214Y-12532976D01*
X2195595Y-12713928D02*
X2205119Y-12723452D01*
X2195595Y-12732976D01*
X2186071Y-12723452D01*
X2195595Y-12713928D01*
X2195595Y-12732976D01*
X2376548Y-12532976D02*
X2338452Y-12532976D01*
X2319405Y-12542500D01*
X2309881Y-12552024D01*
X2290833Y-12580595D01*
X2281310Y-12618690D01*
X2281310Y-12694881D01*
X2290833Y-12713928D01*
X2300357Y-12723452D01*
X2319405Y-12732976D01*
X2357500Y-12732976D01*
X2376548Y-12723452D01*
X2386071Y-12713928D01*
X2395595Y-12694881D01*
X2395595Y-12647262D01*
X2386071Y-12628214D01*
X2376548Y-12618690D01*
X2357500Y-12609167D01*
X2319405Y-12609167D01*
X2300357Y-12618690D01*
X2290833Y-12628214D01*
X2281310Y-12647262D01*
X2462262Y-12532976D02*
X2586071Y-12532976D01*
X2519405Y-12609167D01*
X2547976Y-12609167D01*
X2567024Y-12618690D01*
X2576548Y-12628214D01*
X2586071Y-12647262D01*
X2586071Y-12694881D01*
X2576548Y-12713928D01*
X2567024Y-12723452D01*
X2547976Y-12732976D01*
X2490833Y-12732976D01*
X2471786Y-12723452D01*
X2462262Y-12713928D01*
X2709881Y-12532976D02*
X2728929Y-12532976D01*
X2747976Y-12542500D01*
X2757500Y-12552024D01*
X2767024Y-12571071D01*
X2776548Y-12609167D01*
X2776548Y-12656786D01*
X2767024Y-12694881D01*
X2757500Y-12713928D01*
X2747976Y-12723452D01*
X2728929Y-12732976D01*
X2709881Y-12732976D01*
X2690833Y-12723452D01*
X2681310Y-12713928D01*
X2671786Y-12694881D01*
X2662262Y-12656786D01*
X2662262Y-12609167D01*
X2671786Y-12571071D01*
X2681310Y-12552024D01*
X2690833Y-12542500D01*
X2709881Y-12532976D01*
X2862262Y-12732976D02*
X2862262Y-12599643D01*
X2862262Y-12618690D02*
X2871786Y-12609167D01*
X2890833Y-12599643D01*
X2919405Y-12599643D01*
X2938452Y-12609167D01*
X2947976Y-12628214D01*
X2947976Y-12732976D01*
X2947976Y-12628214D02*
X2957500Y-12609167D01*
X2976548Y-12599643D01*
X3005119Y-12599643D01*
X3024167Y-12609167D01*
X3033690Y-12628214D01*
X3033690Y-12732976D01*
X3128928Y-12732976D02*
X3128928Y-12599643D01*
X3128928Y-12618690D02*
X3138452Y-12609167D01*
X3157500Y-12599643D01*
X3186071Y-12599643D01*
X3205119Y-12609167D01*
X3214643Y-12628214D01*
X3214643Y-12732976D01*
X3214643Y-12628214D02*
X3224167Y-12609167D01*
X3243214Y-12599643D01*
X3271786Y-12599643D01*
X3290833Y-12609167D01*
X3300357Y-12628214D01*
X3300357Y-12732976D01*
X3690833Y-12523452D02*
X3519405Y-12780595D01*
X3947976Y-12532976D02*
X3967024Y-12532976D01*
X3986071Y-12542500D01*
X3995595Y-12552024D01*
X4005119Y-12571071D01*
X4014643Y-12609167D01*
X4014643Y-12656786D01*
X4005119Y-12694881D01*
X3995595Y-12713928D01*
X3986071Y-12723452D01*
X3967024Y-12732976D01*
X3947976Y-12732976D01*
X3928928Y-12723452D01*
X3919405Y-12713928D01*
X3909881Y-12694881D01*
X3900357Y-12656786D01*
X3900357Y-12609167D01*
X3909881Y-12571071D01*
X3919405Y-12552024D01*
X3928928Y-12542500D01*
X3947976Y-12532976D01*
X4100357Y-12713928D02*
X4109881Y-12723452D01*
X4100357Y-12732976D01*
X4090833Y-12723452D01*
X4100357Y-12713928D01*
X4100357Y-12732976D01*
X4233690Y-12532976D02*
X4252738Y-12532976D01*
X4271786Y-12542500D01*
X4281310Y-12552024D01*
X4290833Y-12571071D01*
X4300357Y-12609167D01*
X4300357Y-12656786D01*
X4290833Y-12694881D01*
X4281310Y-12713928D01*
X4271786Y-12723452D01*
X4252738Y-12732976D01*
X4233690Y-12732976D01*
X4214643Y-12723452D01*
X4205119Y-12713928D01*
X4195595Y-12694881D01*
X4186071Y-12656786D01*
X4186071Y-12609167D01*
X4195595Y-12571071D01*
X4205119Y-12552024D01*
X4214643Y-12542500D01*
X4233690Y-12532976D01*
X4376548Y-12552024D02*
X4386071Y-12542500D01*
X4405119Y-12532976D01*
X4452738Y-12532976D01*
X4471786Y-12542500D01*
X4481310Y-12552024D01*
X4490833Y-12571071D01*
X4490833Y-12590119D01*
X4481310Y-12618690D01*
X4367024Y-12732976D01*
X4490833Y-12732976D01*
X4662262Y-12599643D02*
X4662262Y-12732976D01*
X4614643Y-12523452D02*
X4567024Y-12666309D01*
X4690833Y-12666309D01*
X4795595Y-12618690D02*
X4776548Y-12609167D01*
X4767024Y-12599643D01*
X4757500Y-12580595D01*
X4757500Y-12571071D01*
X4767024Y-12552024D01*
X4776548Y-12542500D01*
X4795595Y-12532976D01*
X4833690Y-12532976D01*
X4852738Y-12542500D01*
X4862262Y-12552024D01*
X4871786Y-12571071D01*
X4871786Y-12580595D01*
X4862262Y-12599643D01*
X4852738Y-12609167D01*
X4833690Y-12618690D01*
X4795595Y-12618690D01*
X4776548Y-12628214D01*
X4767024Y-12637738D01*
X4757500Y-12656786D01*
X4757500Y-12694881D01*
X4767024Y-12713928D01*
X4776548Y-12723452D01*
X4795595Y-12732976D01*
X4833690Y-12732976D01*
X4852738Y-12723452D01*
X4862262Y-12713928D01*
X4871786Y-12694881D01*
X4871786Y-12656786D01*
X4862262Y-12637738D01*
X4852738Y-12628214D01*
X4833690Y-12618690D01*
X4947976Y-12532976D02*
X4947976Y-12571071D01*
X5024167Y-12532976D02*
X5024167Y-12571071D01*
X5319405Y-12809167D02*
X5309881Y-12799643D01*
X5290833Y-12771071D01*
X5281310Y-12752024D01*
X5271786Y-12723452D01*
X5262262Y-12675833D01*
X5262262Y-12637738D01*
X5271786Y-12590119D01*
X5281310Y-12561548D01*
X5290833Y-12542500D01*
X5309881Y-12513928D01*
X5319405Y-12504405D01*
X5386071Y-12552024D02*
X5395595Y-12542500D01*
X5414643Y-12532976D01*
X5462262Y-12532976D01*
X5481310Y-12542500D01*
X5490833Y-12552024D01*
X5500357Y-12571071D01*
X5500357Y-12590119D01*
X5490833Y-12618690D01*
X5376548Y-12732976D01*
X5500357Y-12732976D01*
X5738452Y-12732976D02*
X5738452Y-12532976D01*
X5824167Y-12732976D02*
X5824167Y-12628214D01*
X5814643Y-12609167D01*
X5795595Y-12599643D01*
X5767024Y-12599643D01*
X5747976Y-12609167D01*
X5738452Y-12618690D01*
X5947976Y-12732976D02*
X5928928Y-12723452D01*
X5919405Y-12713928D01*
X5909881Y-12694881D01*
X5909881Y-12637738D01*
X5919405Y-12618690D01*
X5928928Y-12609167D01*
X5947976Y-12599643D01*
X5976548Y-12599643D01*
X5995595Y-12609167D01*
X6005119Y-12618690D01*
X6014643Y-12637738D01*
X6014643Y-12694881D01*
X6005119Y-12713928D01*
X5995595Y-12723452D01*
X5976548Y-12732976D01*
X5947976Y-12732976D01*
X6128928Y-12732976D02*
X6109881Y-12723452D01*
X6100357Y-12704405D01*
X6100357Y-12532976D01*
X6281309Y-12723452D02*
X6262262Y-12732976D01*
X6224167Y-12732976D01*
X6205119Y-12723452D01*
X6195595Y-12704405D01*
X6195595Y-12628214D01*
X6205119Y-12609167D01*
X6224167Y-12599643D01*
X6262262Y-12599643D01*
X6281309Y-12609167D01*
X6290833Y-12628214D01*
X6290833Y-12647262D01*
X6195595Y-12666309D01*
X6367024Y-12723452D02*
X6386071Y-12732976D01*
X6424167Y-12732976D01*
X6443214Y-12723452D01*
X6452738Y-12704405D01*
X6452738Y-12694881D01*
X6443214Y-12675833D01*
X6424167Y-12666309D01*
X6395595Y-12666309D01*
X6376548Y-12656786D01*
X6367024Y-12637738D01*
X6367024Y-12628214D01*
X6376548Y-12609167D01*
X6395595Y-12599643D01*
X6424167Y-12599643D01*
X6443214Y-12609167D01*
X6519405Y-12809167D02*
X6528928Y-12799643D01*
X6547976Y-12771071D01*
X6557500Y-12752024D01*
X6567024Y-12723452D01*
X6576548Y-12675833D01*
X6576548Y-12637738D01*
X6567024Y-12590119D01*
X6557500Y-12561548D01*
X6547976Y-12542500D01*
X6528928Y-12513928D01*
X6519405Y-12504405D01*
X6881309Y-12809167D02*
X6871786Y-12799643D01*
X6852738Y-12771071D01*
X6843214Y-12752024D01*
X6833690Y-12723452D01*
X6824167Y-12675833D01*
X6824167Y-12637738D01*
X6833690Y-12590119D01*
X6843214Y-12561548D01*
X6852738Y-12542500D01*
X6871786Y-12513928D01*
X6881309Y-12504405D01*
X6957500Y-12599643D02*
X6957500Y-12732976D01*
X6957500Y-12618690D02*
X6967024Y-12609167D01*
X6986071Y-12599643D01*
X7014643Y-12599643D01*
X7033690Y-12609167D01*
X7043214Y-12628214D01*
X7043214Y-12732976D01*
X7167024Y-12732976D02*
X7147976Y-12723452D01*
X7138452Y-12713928D01*
X7128928Y-12694881D01*
X7128928Y-12637738D01*
X7138452Y-12618690D01*
X7147976Y-12609167D01*
X7167024Y-12599643D01*
X7195595Y-12599643D01*
X7214643Y-12609167D01*
X7224167Y-12618690D01*
X7233690Y-12637738D01*
X7233690Y-12694881D01*
X7224167Y-12713928D01*
X7214643Y-12723452D01*
X7195595Y-12732976D01*
X7167024Y-12732976D01*
X7290833Y-12599643D02*
X7367024Y-12599643D01*
X7319405Y-12532976D02*
X7319405Y-12704405D01*
X7328928Y-12723452D01*
X7347976Y-12732976D01*
X7367024Y-12732976D01*
X7586071Y-12599643D02*
X7586071Y-12799643D01*
X7586071Y-12609167D02*
X7605119Y-12599643D01*
X7643214Y-12599643D01*
X7662262Y-12609167D01*
X7671786Y-12618690D01*
X7681309Y-12637738D01*
X7681309Y-12694881D01*
X7671786Y-12713928D01*
X7662262Y-12723452D01*
X7643214Y-12732976D01*
X7605119Y-12732976D01*
X7586071Y-12723452D01*
X7795595Y-12732976D02*
X7776548Y-12723452D01*
X7767024Y-12704405D01*
X7767024Y-12532976D01*
X7957500Y-12732976D02*
X7957500Y-12628214D01*
X7947976Y-12609167D01*
X7928928Y-12599643D01*
X7890833Y-12599643D01*
X7871786Y-12609167D01*
X7957500Y-12723452D02*
X7938452Y-12732976D01*
X7890833Y-12732976D01*
X7871786Y-12723452D01*
X7862262Y-12704405D01*
X7862262Y-12685357D01*
X7871786Y-12666309D01*
X7890833Y-12656786D01*
X7938452Y-12656786D01*
X7957500Y-12647262D01*
X8024167Y-12599643D02*
X8100357Y-12599643D01*
X8052738Y-12532976D02*
X8052738Y-12704405D01*
X8062262Y-12723452D01*
X8081309Y-12732976D01*
X8100357Y-12732976D01*
X8243214Y-12723452D02*
X8224167Y-12732976D01*
X8186071Y-12732976D01*
X8167024Y-12723452D01*
X8157500Y-12704405D01*
X8157500Y-12628214D01*
X8167024Y-12609167D01*
X8186071Y-12599643D01*
X8224167Y-12599643D01*
X8243214Y-12609167D01*
X8252738Y-12628214D01*
X8252738Y-12647262D01*
X8157500Y-12666309D01*
X8424167Y-12732976D02*
X8424167Y-12532976D01*
X8424167Y-12723452D02*
X8405119Y-12732976D01*
X8367024Y-12732976D01*
X8347976Y-12723452D01*
X8338452Y-12713928D01*
X8328928Y-12694881D01*
X8328928Y-12637738D01*
X8338452Y-12618690D01*
X8347976Y-12609167D01*
X8367024Y-12599643D01*
X8405119Y-12599643D01*
X8424167Y-12609167D01*
X8500357Y-12809167D02*
X8509881Y-12799643D01*
X8528929Y-12771071D01*
X8538452Y-12752024D01*
X8547976Y-12723452D01*
X8557500Y-12675833D01*
X8557500Y-12637738D01*
X8547976Y-12590119D01*
X8538452Y-12561548D01*
X8528929Y-12542500D01*
X8509881Y-12513928D01*
X8500357Y-12504405D01*
D13*
X1747500Y-12906500D02*
G75*
G03*
X1747500Y-12906500I-45000J0D01*
G01*
D11*
X2043214Y-12796976D02*
X2062262Y-12796976D01*
X2081309Y-12806500D01*
X2090833Y-12816024D01*
X2100357Y-12835071D01*
X2109881Y-12873167D01*
X2109881Y-12920786D01*
X2100357Y-12958881D01*
X2090833Y-12977928D01*
X2081309Y-12987452D01*
X2062262Y-12996976D01*
X2043214Y-12996976D01*
X2024167Y-12987452D01*
X2014643Y-12977928D01*
X2005119Y-12958881D01*
X1995595Y-12920786D01*
X1995595Y-12873167D01*
X2005119Y-12835071D01*
X2014643Y-12816024D01*
X2024167Y-12806500D01*
X2043214Y-12796976D01*
X2195595Y-12977928D02*
X2205119Y-12987452D01*
X2195595Y-12996976D01*
X2186071Y-12987452D01*
X2195595Y-12977928D01*
X2195595Y-12996976D01*
X2300357Y-12996976D02*
X2338452Y-12996976D01*
X2357500Y-12987452D01*
X2367024Y-12977928D01*
X2386071Y-12949357D01*
X2395595Y-12911262D01*
X2395595Y-12835071D01*
X2386071Y-12816024D01*
X2376548Y-12806500D01*
X2357500Y-12796976D01*
X2319405Y-12796976D01*
X2300357Y-12806500D01*
X2290833Y-12816024D01*
X2281310Y-12835071D01*
X2281310Y-12882690D01*
X2290833Y-12901738D01*
X2300357Y-12911262D01*
X2319405Y-12920786D01*
X2357500Y-12920786D01*
X2376548Y-12911262D01*
X2386071Y-12901738D01*
X2395595Y-12882690D01*
X2519405Y-12796976D02*
X2538452Y-12796976D01*
X2557500Y-12806500D01*
X2567024Y-12816024D01*
X2576548Y-12835071D01*
X2586071Y-12873167D01*
X2586071Y-12920786D01*
X2576548Y-12958881D01*
X2567024Y-12977928D01*
X2557500Y-12987452D01*
X2538452Y-12996976D01*
X2519405Y-12996976D01*
X2500357Y-12987452D01*
X2490833Y-12977928D01*
X2481310Y-12958881D01*
X2471786Y-12920786D01*
X2471786Y-12873167D01*
X2481310Y-12835071D01*
X2490833Y-12816024D01*
X2500357Y-12806500D01*
X2519405Y-12796976D01*
X2709881Y-12796976D02*
X2728929Y-12796976D01*
X2747976Y-12806500D01*
X2757500Y-12816024D01*
X2767024Y-12835071D01*
X2776548Y-12873167D01*
X2776548Y-12920786D01*
X2767024Y-12958881D01*
X2757500Y-12977928D01*
X2747976Y-12987452D01*
X2728929Y-12996976D01*
X2709881Y-12996976D01*
X2690833Y-12987452D01*
X2681310Y-12977928D01*
X2671786Y-12958881D01*
X2662262Y-12920786D01*
X2662262Y-12873167D01*
X2671786Y-12835071D01*
X2681310Y-12816024D01*
X2690833Y-12806500D01*
X2709881Y-12796976D01*
X2862262Y-12996976D02*
X2862262Y-12863643D01*
X2862262Y-12882690D02*
X2871786Y-12873167D01*
X2890833Y-12863643D01*
X2919405Y-12863643D01*
X2938452Y-12873167D01*
X2947976Y-12892214D01*
X2947976Y-12996976D01*
X2947976Y-12892214D02*
X2957500Y-12873167D01*
X2976548Y-12863643D01*
X3005119Y-12863643D01*
X3024167Y-12873167D01*
X3033690Y-12892214D01*
X3033690Y-12996976D01*
X3128928Y-12996976D02*
X3128928Y-12863643D01*
X3128928Y-12882690D02*
X3138452Y-12873167D01*
X3157500Y-12863643D01*
X3186071Y-12863643D01*
X3205119Y-12873167D01*
X3214643Y-12892214D01*
X3214643Y-12996976D01*
X3214643Y-12892214D02*
X3224167Y-12873167D01*
X3243214Y-12863643D01*
X3271786Y-12863643D01*
X3290833Y-12873167D01*
X3300357Y-12892214D01*
X3300357Y-12996976D01*
X3690833Y-12787452D02*
X3519405Y-13044595D01*
X3947976Y-12796976D02*
X3967024Y-12796976D01*
X3986071Y-12806500D01*
X3995595Y-12816024D01*
X4005119Y-12835071D01*
X4014643Y-12873167D01*
X4014643Y-12920786D01*
X4005119Y-12958881D01*
X3995595Y-12977928D01*
X3986071Y-12987452D01*
X3967024Y-12996976D01*
X3947976Y-12996976D01*
X3928928Y-12987452D01*
X3919405Y-12977928D01*
X3909881Y-12958881D01*
X3900357Y-12920786D01*
X3900357Y-12873167D01*
X3909881Y-12835071D01*
X3919405Y-12816024D01*
X3928928Y-12806500D01*
X3947976Y-12796976D01*
X4100357Y-12977928D02*
X4109881Y-12987452D01*
X4100357Y-12996976D01*
X4090833Y-12987452D01*
X4100357Y-12977928D01*
X4100357Y-12996976D01*
X4233690Y-12796976D02*
X4252738Y-12796976D01*
X4271786Y-12806500D01*
X4281310Y-12816024D01*
X4290833Y-12835071D01*
X4300357Y-12873167D01*
X4300357Y-12920786D01*
X4290833Y-12958881D01*
X4281310Y-12977928D01*
X4271786Y-12987452D01*
X4252738Y-12996976D01*
X4233690Y-12996976D01*
X4214643Y-12987452D01*
X4205119Y-12977928D01*
X4195595Y-12958881D01*
X4186071Y-12920786D01*
X4186071Y-12873167D01*
X4195595Y-12835071D01*
X4205119Y-12816024D01*
X4214643Y-12806500D01*
X4233690Y-12796976D01*
X4367024Y-12796976D02*
X4490833Y-12796976D01*
X4424167Y-12873167D01*
X4452738Y-12873167D01*
X4471786Y-12882690D01*
X4481310Y-12892214D01*
X4490833Y-12911262D01*
X4490833Y-12958881D01*
X4481310Y-12977928D01*
X4471786Y-12987452D01*
X4452738Y-12996976D01*
X4395595Y-12996976D01*
X4376548Y-12987452D01*
X4367024Y-12977928D01*
X4671786Y-12796976D02*
X4576548Y-12796976D01*
X4567024Y-12892214D01*
X4576548Y-12882690D01*
X4595595Y-12873167D01*
X4643214Y-12873167D01*
X4662262Y-12882690D01*
X4671786Y-12892214D01*
X4681310Y-12911262D01*
X4681310Y-12958881D01*
X4671786Y-12977928D01*
X4662262Y-12987452D01*
X4643214Y-12996976D01*
X4595595Y-12996976D01*
X4576548Y-12987452D01*
X4567024Y-12977928D01*
X4852738Y-12863643D02*
X4852738Y-12996976D01*
X4805119Y-12787452D02*
X4757500Y-12930309D01*
X4881310Y-12930309D01*
X4947976Y-12796976D02*
X4947976Y-12835071D01*
X5024167Y-12796976D02*
X5024167Y-12835071D01*
X5319405Y-13073167D02*
X5309881Y-13063643D01*
X5290833Y-13035071D01*
X5281310Y-13016024D01*
X5271786Y-12987452D01*
X5262262Y-12939833D01*
X5262262Y-12901738D01*
X5271786Y-12854119D01*
X5281310Y-12825548D01*
X5290833Y-12806500D01*
X5309881Y-12777928D01*
X5319405Y-12768405D01*
X5433690Y-12796976D02*
X5452738Y-12796976D01*
X5471786Y-12806500D01*
X5481310Y-12816024D01*
X5490833Y-12835071D01*
X5500357Y-12873167D01*
X5500357Y-12920786D01*
X5490833Y-12958881D01*
X5481310Y-12977928D01*
X5471786Y-12987452D01*
X5452738Y-12996976D01*
X5433690Y-12996976D01*
X5414643Y-12987452D01*
X5405119Y-12977928D01*
X5395595Y-12958881D01*
X5386071Y-12920786D01*
X5386071Y-12873167D01*
X5395595Y-12835071D01*
X5405119Y-12816024D01*
X5414643Y-12806500D01*
X5433690Y-12796976D01*
X5738452Y-12996976D02*
X5738452Y-12796976D01*
X5824167Y-12996976D02*
X5824167Y-12892214D01*
X5814643Y-12873167D01*
X5795595Y-12863643D01*
X5767024Y-12863643D01*
X5747976Y-12873167D01*
X5738452Y-12882690D01*
X5947976Y-12996976D02*
X5928928Y-12987452D01*
X5919405Y-12977928D01*
X5909881Y-12958881D01*
X5909881Y-12901738D01*
X5919405Y-12882690D01*
X5928928Y-12873167D01*
X5947976Y-12863643D01*
X5976548Y-12863643D01*
X5995595Y-12873167D01*
X6005119Y-12882690D01*
X6014643Y-12901738D01*
X6014643Y-12958881D01*
X6005119Y-12977928D01*
X5995595Y-12987452D01*
X5976548Y-12996976D01*
X5947976Y-12996976D01*
X6128928Y-12996976D02*
X6109881Y-12987452D01*
X6100357Y-12968405D01*
X6100357Y-12796976D01*
X6281309Y-12987452D02*
X6262262Y-12996976D01*
X6224167Y-12996976D01*
X6205119Y-12987452D01*
X6195595Y-12968405D01*
X6195595Y-12892214D01*
X6205119Y-12873167D01*
X6224167Y-12863643D01*
X6262262Y-12863643D01*
X6281309Y-12873167D01*
X6290833Y-12892214D01*
X6290833Y-12911262D01*
X6195595Y-12930309D01*
X6367024Y-12987452D02*
X6386071Y-12996976D01*
X6424167Y-12996976D01*
X6443214Y-12987452D01*
X6452738Y-12968405D01*
X6452738Y-12958881D01*
X6443214Y-12939833D01*
X6424167Y-12930309D01*
X6395595Y-12930309D01*
X6376548Y-12920786D01*
X6367024Y-12901738D01*
X6367024Y-12892214D01*
X6376548Y-12873167D01*
X6395595Y-12863643D01*
X6424167Y-12863643D01*
X6443214Y-12873167D01*
X6690833Y-12920786D02*
X6843214Y-12920786D01*
X6767024Y-12996976D02*
X6767024Y-12844595D01*
X7176548Y-12863643D02*
X7176548Y-12996976D01*
X7128928Y-12787452D02*
X7081309Y-12930309D01*
X7205119Y-12930309D01*
X7424167Y-12987452D02*
X7443214Y-12996976D01*
X7481309Y-12996976D01*
X7500357Y-12987452D01*
X7509881Y-12968405D01*
X7509881Y-12958881D01*
X7500357Y-12939833D01*
X7481309Y-12930309D01*
X7452738Y-12930309D01*
X7433690Y-12920786D01*
X7424167Y-12901738D01*
X7424167Y-12892214D01*
X7433690Y-12873167D01*
X7452738Y-12863643D01*
X7481309Y-12863643D01*
X7500357Y-12873167D01*
X7624167Y-12996976D02*
X7605119Y-12987452D01*
X7595595Y-12968405D01*
X7595595Y-12796976D01*
X7728928Y-12996976D02*
X7709881Y-12987452D01*
X7700357Y-12977928D01*
X7690833Y-12958881D01*
X7690833Y-12901738D01*
X7700357Y-12882690D01*
X7709881Y-12873167D01*
X7728928Y-12863643D01*
X7757500Y-12863643D01*
X7776548Y-12873167D01*
X7786071Y-12882690D01*
X7795595Y-12901738D01*
X7795595Y-12958881D01*
X7786071Y-12977928D01*
X7776548Y-12987452D01*
X7757500Y-12996976D01*
X7728928Y-12996976D01*
X7852738Y-12863643D02*
X7928928Y-12863643D01*
X7881309Y-12796976D02*
X7881309Y-12968405D01*
X7890833Y-12987452D01*
X7909881Y-12996976D01*
X7928928Y-12996976D01*
X7986071Y-12987452D02*
X8005119Y-12996976D01*
X8043214Y-12996976D01*
X8062262Y-12987452D01*
X8071786Y-12968405D01*
X8071786Y-12958881D01*
X8062262Y-12939833D01*
X8043214Y-12930309D01*
X8014643Y-12930309D01*
X7995595Y-12920786D01*
X7986071Y-12901738D01*
X7986071Y-12892214D01*
X7995595Y-12873167D01*
X8014643Y-12863643D01*
X8043214Y-12863643D01*
X8062262Y-12873167D01*
X8138452Y-13073167D02*
X8147976Y-13063643D01*
X8167024Y-13035071D01*
X8176548Y-13016024D01*
X8186071Y-12987452D01*
X8195595Y-12939833D01*
X8195595Y-12901738D01*
X8186071Y-12854119D01*
X8176548Y-12825548D01*
X8167024Y-12806500D01*
X8147976Y-12777928D01*
X8138452Y-12768405D01*
X8500357Y-13073167D02*
X8490833Y-13063643D01*
X8471786Y-13035071D01*
X8462262Y-13016024D01*
X8452738Y-12987452D01*
X8443214Y-12939833D01*
X8443214Y-12901738D01*
X8452738Y-12854119D01*
X8462262Y-12825548D01*
X8471786Y-12806500D01*
X8490833Y-12777928D01*
X8500357Y-12768405D01*
X8576548Y-12863643D02*
X8576548Y-12996976D01*
X8576548Y-12882690D02*
X8586071Y-12873167D01*
X8605119Y-12863643D01*
X8633690Y-12863643D01*
X8652738Y-12873167D01*
X8662262Y-12892214D01*
X8662262Y-12996976D01*
X8786071Y-12996976D02*
X8767024Y-12987452D01*
X8757500Y-12977928D01*
X8747976Y-12958881D01*
X8747976Y-12901738D01*
X8757500Y-12882690D01*
X8767024Y-12873167D01*
X8786071Y-12863643D01*
X8814643Y-12863643D01*
X8833690Y-12873167D01*
X8843214Y-12882690D01*
X8852738Y-12901738D01*
X8852738Y-12958881D01*
X8843214Y-12977928D01*
X8833690Y-12987452D01*
X8814643Y-12996976D01*
X8786071Y-12996976D01*
X8909881Y-12863643D02*
X8986071Y-12863643D01*
X8938452Y-12796976D02*
X8938452Y-12968405D01*
X8947976Y-12987452D01*
X8967024Y-12996976D01*
X8986071Y-12996976D01*
X9205119Y-12863643D02*
X9205119Y-13063643D01*
X9205119Y-12873167D02*
X9224167Y-12863643D01*
X9262262Y-12863643D01*
X9281310Y-12873167D01*
X9290833Y-12882690D01*
X9300357Y-12901738D01*
X9300357Y-12958881D01*
X9290833Y-12977928D01*
X9281310Y-12987452D01*
X9262262Y-12996976D01*
X9224167Y-12996976D01*
X9205119Y-12987452D01*
X9414643Y-12996976D02*
X9395595Y-12987452D01*
X9386071Y-12968405D01*
X9386071Y-12796976D01*
X9576548Y-12996976D02*
X9576548Y-12892214D01*
X9567024Y-12873167D01*
X9547976Y-12863643D01*
X9509881Y-12863643D01*
X9490833Y-12873167D01*
X9576548Y-12987452D02*
X9557500Y-12996976D01*
X9509881Y-12996976D01*
X9490833Y-12987452D01*
X9481310Y-12968405D01*
X9481310Y-12949357D01*
X9490833Y-12930309D01*
X9509881Y-12920786D01*
X9557500Y-12920786D01*
X9576548Y-12911262D01*
X9643214Y-12863643D02*
X9719405Y-12863643D01*
X9671786Y-12796976D02*
X9671786Y-12968405D01*
X9681310Y-12987452D01*
X9700357Y-12996976D01*
X9719405Y-12996976D01*
X9862262Y-12987452D02*
X9843214Y-12996976D01*
X9805119Y-12996976D01*
X9786071Y-12987452D01*
X9776548Y-12968405D01*
X9776548Y-12892214D01*
X9786071Y-12873167D01*
X9805119Y-12863643D01*
X9843214Y-12863643D01*
X9862262Y-12873167D01*
X9871786Y-12892214D01*
X9871786Y-12911262D01*
X9776548Y-12930309D01*
X10043214Y-12996976D02*
X10043214Y-12796976D01*
X10043214Y-12987452D02*
X10024167Y-12996976D01*
X9986071Y-12996976D01*
X9967024Y-12987452D01*
X9957500Y-12977928D01*
X9947976Y-12958881D01*
X9947976Y-12901738D01*
X9957500Y-12882690D01*
X9967024Y-12873167D01*
X9986071Y-12863643D01*
X10024167Y-12863643D01*
X10043214Y-12873167D01*
X10119405Y-13073167D02*
X10128929Y-13063643D01*
X10147976Y-13035071D01*
X10157500Y-13016024D01*
X10167024Y-12987452D01*
X10176548Y-12939833D01*
X10176548Y-12901738D01*
X10167024Y-12854119D01*
X10157500Y-12825548D01*
X10147976Y-12806500D01*
X10128929Y-12777928D01*
X10119405Y-12768405D01*
D14*
X1697500Y-13120500D02*
X1697500Y-13220500D01*
X1647500Y-13170500D02*
X1747500Y-13170500D01*
D11*
X2109881Y-13260976D02*
X1995595Y-13260976D01*
X2052738Y-13260976D02*
X2052738Y-13060976D01*
X2033690Y-13089548D01*
X2014643Y-13108595D01*
X1995595Y-13118119D01*
X2195595Y-13241928D02*
X2205119Y-13251452D01*
X2195595Y-13260976D01*
X2186071Y-13251452D01*
X2195595Y-13241928D01*
X2195595Y-13260976D01*
X2328929Y-13060976D02*
X2347976Y-13060976D01*
X2367024Y-13070500D01*
X2376548Y-13080024D01*
X2386071Y-13099071D01*
X2395595Y-13137167D01*
X2395595Y-13184786D01*
X2386071Y-13222881D01*
X2376548Y-13241928D01*
X2367024Y-13251452D01*
X2347976Y-13260976D01*
X2328929Y-13260976D01*
X2309881Y-13251452D01*
X2300357Y-13241928D01*
X2290833Y-13222881D01*
X2281310Y-13184786D01*
X2281310Y-13137167D01*
X2290833Y-13099071D01*
X2300357Y-13080024D01*
X2309881Y-13070500D01*
X2328929Y-13060976D01*
X2519405Y-13060976D02*
X2538452Y-13060976D01*
X2557500Y-13070500D01*
X2567024Y-13080024D01*
X2576548Y-13099071D01*
X2586071Y-13137167D01*
X2586071Y-13184786D01*
X2576548Y-13222881D01*
X2567024Y-13241928D01*
X2557500Y-13251452D01*
X2538452Y-13260976D01*
X2519405Y-13260976D01*
X2500357Y-13251452D01*
X2490833Y-13241928D01*
X2481310Y-13222881D01*
X2471786Y-13184786D01*
X2471786Y-13137167D01*
X2481310Y-13099071D01*
X2490833Y-13080024D01*
X2500357Y-13070500D01*
X2519405Y-13060976D01*
X2709881Y-13060976D02*
X2728929Y-13060976D01*
X2747976Y-13070500D01*
X2757500Y-13080024D01*
X2767024Y-13099071D01*
X2776548Y-13137167D01*
X2776548Y-13184786D01*
X2767024Y-13222881D01*
X2757500Y-13241928D01*
X2747976Y-13251452D01*
X2728929Y-13260976D01*
X2709881Y-13260976D01*
X2690833Y-13251452D01*
X2681310Y-13241928D01*
X2671786Y-13222881D01*
X2662262Y-13184786D01*
X2662262Y-13137167D01*
X2671786Y-13099071D01*
X2681310Y-13080024D01*
X2690833Y-13070500D01*
X2709881Y-13060976D01*
X2862262Y-13260976D02*
X2862262Y-13127643D01*
X2862262Y-13146690D02*
X2871786Y-13137167D01*
X2890833Y-13127643D01*
X2919405Y-13127643D01*
X2938452Y-13137167D01*
X2947976Y-13156214D01*
X2947976Y-13260976D01*
X2947976Y-13156214D02*
X2957500Y-13137167D01*
X2976548Y-13127643D01*
X3005119Y-13127643D01*
X3024167Y-13137167D01*
X3033690Y-13156214D01*
X3033690Y-13260976D01*
X3128928Y-13260976D02*
X3128928Y-13127643D01*
X3128928Y-13146690D02*
X3138452Y-13137167D01*
X3157500Y-13127643D01*
X3186071Y-13127643D01*
X3205119Y-13137167D01*
X3214643Y-13156214D01*
X3214643Y-13260976D01*
X3214643Y-13156214D02*
X3224167Y-13137167D01*
X3243214Y-13127643D01*
X3271786Y-13127643D01*
X3290833Y-13137167D01*
X3300357Y-13156214D01*
X3300357Y-13260976D01*
X3690833Y-13051452D02*
X3519405Y-13308595D01*
X3947976Y-13060976D02*
X3967024Y-13060976D01*
X3986071Y-13070500D01*
X3995595Y-13080024D01*
X4005119Y-13099071D01*
X4014643Y-13137167D01*
X4014643Y-13184786D01*
X4005119Y-13222881D01*
X3995595Y-13241928D01*
X3986071Y-13251452D01*
X3967024Y-13260976D01*
X3947976Y-13260976D01*
X3928928Y-13251452D01*
X3919405Y-13241928D01*
X3909881Y-13222881D01*
X3900357Y-13184786D01*
X3900357Y-13137167D01*
X3909881Y-13099071D01*
X3919405Y-13080024D01*
X3928928Y-13070500D01*
X3947976Y-13060976D01*
X4100357Y-13241928D02*
X4109881Y-13251452D01*
X4100357Y-13260976D01*
X4090833Y-13251452D01*
X4100357Y-13241928D01*
X4100357Y-13260976D01*
X4233690Y-13060976D02*
X4252738Y-13060976D01*
X4271786Y-13070500D01*
X4281310Y-13080024D01*
X4290833Y-13099071D01*
X4300357Y-13137167D01*
X4300357Y-13184786D01*
X4290833Y-13222881D01*
X4281310Y-13241928D01*
X4271786Y-13251452D01*
X4252738Y-13260976D01*
X4233690Y-13260976D01*
X4214643Y-13251452D01*
X4205119Y-13241928D01*
X4195595Y-13222881D01*
X4186071Y-13184786D01*
X4186071Y-13137167D01*
X4195595Y-13099071D01*
X4205119Y-13080024D01*
X4214643Y-13070500D01*
X4233690Y-13060976D01*
X4367024Y-13060976D02*
X4490833Y-13060976D01*
X4424167Y-13137167D01*
X4452738Y-13137167D01*
X4471786Y-13146690D01*
X4481310Y-13156214D01*
X4490833Y-13175262D01*
X4490833Y-13222881D01*
X4481310Y-13241928D01*
X4471786Y-13251452D01*
X4452738Y-13260976D01*
X4395595Y-13260976D01*
X4376548Y-13251452D01*
X4367024Y-13241928D01*
X4586071Y-13260976D02*
X4624167Y-13260976D01*
X4643214Y-13251452D01*
X4652738Y-13241928D01*
X4671786Y-13213357D01*
X4681310Y-13175262D01*
X4681310Y-13099071D01*
X4671786Y-13080024D01*
X4662262Y-13070500D01*
X4643214Y-13060976D01*
X4605119Y-13060976D01*
X4586071Y-13070500D01*
X4576548Y-13080024D01*
X4567024Y-13099071D01*
X4567024Y-13146690D01*
X4576548Y-13165738D01*
X4586071Y-13175262D01*
X4605119Y-13184786D01*
X4643214Y-13184786D01*
X4662262Y-13175262D01*
X4671786Y-13165738D01*
X4681310Y-13146690D01*
X4852738Y-13127643D02*
X4852738Y-13260976D01*
X4805119Y-13051452D02*
X4757500Y-13194309D01*
X4881310Y-13194309D01*
X4947976Y-13060976D02*
X4947976Y-13099071D01*
X5024167Y-13060976D02*
X5024167Y-13099071D01*
X5319405Y-13337167D02*
X5309881Y-13327643D01*
X5290833Y-13299071D01*
X5281310Y-13280024D01*
X5271786Y-13251452D01*
X5262262Y-13203833D01*
X5262262Y-13165738D01*
X5271786Y-13118119D01*
X5281310Y-13089548D01*
X5290833Y-13070500D01*
X5309881Y-13041928D01*
X5319405Y-13032405D01*
X5481310Y-13060976D02*
X5443214Y-13060976D01*
X5424167Y-13070500D01*
X5414643Y-13080024D01*
X5395595Y-13108595D01*
X5386071Y-13146690D01*
X5386071Y-13222881D01*
X5395595Y-13241928D01*
X5405119Y-13251452D01*
X5424167Y-13260976D01*
X5462262Y-13260976D01*
X5481310Y-13251452D01*
X5490833Y-13241928D01*
X5500357Y-13222881D01*
X5500357Y-13175262D01*
X5490833Y-13156214D01*
X5481310Y-13146690D01*
X5462262Y-13137167D01*
X5424167Y-13137167D01*
X5405119Y-13146690D01*
X5395595Y-13156214D01*
X5386071Y-13175262D01*
X5738452Y-13260976D02*
X5738452Y-13060976D01*
X5824167Y-13260976D02*
X5824167Y-13156214D01*
X5814643Y-13137167D01*
X5795595Y-13127643D01*
X5767024Y-13127643D01*
X5747976Y-13137167D01*
X5738452Y-13146690D01*
X5947976Y-13260976D02*
X5928928Y-13251452D01*
X5919405Y-13241928D01*
X5909881Y-13222881D01*
X5909881Y-13165738D01*
X5919405Y-13146690D01*
X5928928Y-13137167D01*
X5947976Y-13127643D01*
X5976548Y-13127643D01*
X5995595Y-13137167D01*
X6005119Y-13146690D01*
X6014643Y-13165738D01*
X6014643Y-13222881D01*
X6005119Y-13241928D01*
X5995595Y-13251452D01*
X5976548Y-13260976D01*
X5947976Y-13260976D01*
X6128928Y-13260976D02*
X6109881Y-13251452D01*
X6100357Y-13232405D01*
X6100357Y-13060976D01*
X6281309Y-13251452D02*
X6262262Y-13260976D01*
X6224167Y-13260976D01*
X6205119Y-13251452D01*
X6195595Y-13232405D01*
X6195595Y-13156214D01*
X6205119Y-13137167D01*
X6224167Y-13127643D01*
X6262262Y-13127643D01*
X6281309Y-13137167D01*
X6290833Y-13156214D01*
X6290833Y-13175262D01*
X6195595Y-13194309D01*
X6367024Y-13251452D02*
X6386071Y-13260976D01*
X6424167Y-13260976D01*
X6443214Y-13251452D01*
X6452738Y-13232405D01*
X6452738Y-13222881D01*
X6443214Y-13203833D01*
X6424167Y-13194309D01*
X6395595Y-13194309D01*
X6376548Y-13184786D01*
X6367024Y-13165738D01*
X6367024Y-13156214D01*
X6376548Y-13137167D01*
X6395595Y-13127643D01*
X6424167Y-13127643D01*
X6443214Y-13137167D01*
X6519405Y-13337167D02*
X6528928Y-13327643D01*
X6547976Y-13299071D01*
X6557500Y-13280024D01*
X6567024Y-13251452D01*
X6576548Y-13203833D01*
X6576548Y-13165738D01*
X6567024Y-13118119D01*
X6557500Y-13089548D01*
X6547976Y-13070500D01*
X6528928Y-13041928D01*
X6519405Y-13032405D01*
X6881309Y-13337167D02*
X6871786Y-13327643D01*
X6852738Y-13299071D01*
X6843214Y-13280024D01*
X6833690Y-13251452D01*
X6824167Y-13203833D01*
X6824167Y-13165738D01*
X6833690Y-13118119D01*
X6843214Y-13089548D01*
X6852738Y-13070500D01*
X6871786Y-13041928D01*
X6881309Y-13032405D01*
X6957500Y-13127643D02*
X6957500Y-13260976D01*
X6957500Y-13146690D02*
X6967024Y-13137167D01*
X6986071Y-13127643D01*
X7014643Y-13127643D01*
X7033690Y-13137167D01*
X7043214Y-13156214D01*
X7043214Y-13260976D01*
X7167024Y-13260976D02*
X7147976Y-13251452D01*
X7138452Y-13241928D01*
X7128928Y-13222881D01*
X7128928Y-13165738D01*
X7138452Y-13146690D01*
X7147976Y-13137167D01*
X7167024Y-13127643D01*
X7195595Y-13127643D01*
X7214643Y-13137167D01*
X7224167Y-13146690D01*
X7233690Y-13165738D01*
X7233690Y-13222881D01*
X7224167Y-13241928D01*
X7214643Y-13251452D01*
X7195595Y-13260976D01*
X7167024Y-13260976D01*
X7290833Y-13127643D02*
X7367024Y-13127643D01*
X7319405Y-13060976D02*
X7319405Y-13232405D01*
X7328928Y-13251452D01*
X7347976Y-13260976D01*
X7367024Y-13260976D01*
X7586071Y-13127643D02*
X7586071Y-13327643D01*
X7586071Y-13137167D02*
X7605119Y-13127643D01*
X7643214Y-13127643D01*
X7662262Y-13137167D01*
X7671786Y-13146690D01*
X7681309Y-13165738D01*
X7681309Y-13222881D01*
X7671786Y-13241928D01*
X7662262Y-13251452D01*
X7643214Y-13260976D01*
X7605119Y-13260976D01*
X7586071Y-13251452D01*
X7795595Y-13260976D02*
X7776548Y-13251452D01*
X7767024Y-13232405D01*
X7767024Y-13060976D01*
X7957500Y-13260976D02*
X7957500Y-13156214D01*
X7947976Y-13137167D01*
X7928928Y-13127643D01*
X7890833Y-13127643D01*
X7871786Y-13137167D01*
X7957500Y-13251452D02*
X7938452Y-13260976D01*
X7890833Y-13260976D01*
X7871786Y-13251452D01*
X7862262Y-13232405D01*
X7862262Y-13213357D01*
X7871786Y-13194309D01*
X7890833Y-13184786D01*
X7938452Y-13184786D01*
X7957500Y-13175262D01*
X8024167Y-13127643D02*
X8100357Y-13127643D01*
X8052738Y-13060976D02*
X8052738Y-13232405D01*
X8062262Y-13251452D01*
X8081309Y-13260976D01*
X8100357Y-13260976D01*
X8243214Y-13251452D02*
X8224167Y-13260976D01*
X8186071Y-13260976D01*
X8167024Y-13251452D01*
X8157500Y-13232405D01*
X8157500Y-13156214D01*
X8167024Y-13137167D01*
X8186071Y-13127643D01*
X8224167Y-13127643D01*
X8243214Y-13137167D01*
X8252738Y-13156214D01*
X8252738Y-13175262D01*
X8157500Y-13194309D01*
X8424167Y-13260976D02*
X8424167Y-13060976D01*
X8424167Y-13251452D02*
X8405119Y-13260976D01*
X8367024Y-13260976D01*
X8347976Y-13251452D01*
X8338452Y-13241928D01*
X8328928Y-13222881D01*
X8328928Y-13165738D01*
X8338452Y-13146690D01*
X8347976Y-13137167D01*
X8367024Y-13127643D01*
X8405119Y-13127643D01*
X8424167Y-13137167D01*
X8500357Y-13337167D02*
X8509881Y-13327643D01*
X8528929Y-13299071D01*
X8538452Y-13280024D01*
X8547976Y-13251452D01*
X8557500Y-13203833D01*
X8557500Y-13165738D01*
X8547976Y-13118119D01*
X8538452Y-13089548D01*
X8528929Y-13070500D01*
X8509881Y-13041928D01*
X8500357Y-13032405D01*
M02*
