G04 #@! TF.GenerationSoftware,KiCad,Pcbnew,(6.0.9-0)*
G04 #@! TF.CreationDate,2022-11-28T16:59:58-05:00*
G04 #@! TF.ProjectId,uBMS-2,75424d53-2d32-42e6-9b69-6361645f7063,rev?*
G04 #@! TF.SameCoordinates,Original*
G04 #@! TF.FileFunction,Soldermask,Bot*
G04 #@! TF.FilePolarity,Negative*
%FSLAX46Y46*%
G04 Gerber Fmt 4.6, Leading zero omitted, Abs format (unit mm)*
G04 Created by KiCad (PCBNEW (6.0.9-0)) date 2022-11-28 16:59:58*
%MOMM*%
%LPD*%
G01*
G04 APERTURE LIST*
G04 Aperture macros list*
%AMRoundRect*
0 Rectangle with rounded corners*
0 $1 Rounding radius*
0 $2 $3 $4 $5 $6 $7 $8 $9 X,Y pos of 4 corners*
0 Add a 4 corners polygon primitive as box body*
4,1,4,$2,$3,$4,$5,$6,$7,$8,$9,$2,$3,0*
0 Add four circle primitives for the rounded corners*
1,1,$1+$1,$2,$3*
1,1,$1+$1,$4,$5*
1,1,$1+$1,$6,$7*
1,1,$1+$1,$8,$9*
0 Add four rect primitives between the rounded corners*
20,1,$1+$1,$2,$3,$4,$5,0*
20,1,$1+$1,$4,$5,$6,$7,0*
20,1,$1+$1,$6,$7,$8,$9,0*
20,1,$1+$1,$8,$9,$2,$3,0*%
G04 Aperture macros list end*
%ADD10RoundRect,0.051000X0.900000X-0.450000X0.900000X0.450000X-0.900000X0.450000X-0.900000X-0.450000X0*%
%ADD11C,4.602000*%
%ADD12C,1.102000*%
%ADD13C,0.732000*%
%ADD14O,2.418000X1.260000*%
%ADD15O,2.502000X1.302000*%
%ADD16RoundRect,0.051000X0.450000X0.900000X-0.450000X0.900000X-0.450000X-0.900000X0.450000X-0.900000X0*%
%ADD17C,0.702000*%
%ADD18C,5.102000*%
%ADD19C,3.002000*%
%ADD20RoundRect,0.301000X-0.250000X-0.475000X0.250000X-0.475000X0.250000X0.475000X-0.250000X0.475000X0*%
%ADD21RoundRect,0.191000X0.140000X0.170000X-0.140000X0.170000X-0.140000X-0.170000X0.140000X-0.170000X0*%
%ADD22RoundRect,0.186000X0.185000X-0.135000X0.185000X0.135000X-0.185000X0.135000X-0.185000X-0.135000X0*%
%ADD23RoundRect,0.186000X-0.185000X0.135000X-0.185000X-0.135000X0.185000X-0.135000X0.185000X0.135000X0*%
%ADD24RoundRect,0.201000X0.725000X0.150000X-0.725000X0.150000X-0.725000X-0.150000X0.725000X-0.150000X0*%
%ADD25RoundRect,0.051000X-0.110000X-0.390000X0.110000X-0.390000X0.110000X0.390000X-0.110000X0.390000X0*%
%ADD26RoundRect,0.051000X-0.390000X-0.110000X0.390000X-0.110000X0.390000X0.110000X-0.390000X0.110000X0*%
%ADD27RoundRect,0.051000X-0.600000X-0.600000X0.600000X-0.600000X0.600000X0.600000X-0.600000X0.600000X0*%
%ADD28RoundRect,0.051000X-0.225000X0.875000X-0.225000X-0.875000X0.225000X-0.875000X0.225000X0.875000X0*%
%ADD29RoundRect,0.201000X-0.150000X0.587500X-0.150000X-0.587500X0.150000X-0.587500X0.150000X0.587500X0*%
%ADD30RoundRect,0.191000X0.170000X-0.140000X0.170000X0.140000X-0.170000X0.140000X-0.170000X-0.140000X0*%
%ADD31RoundRect,0.191000X-0.140000X-0.170000X0.140000X-0.170000X0.140000X0.170000X-0.140000X0.170000X0*%
%ADD32RoundRect,0.191000X-0.170000X0.140000X-0.170000X-0.140000X0.170000X-0.140000X0.170000X0.140000X0*%
%ADD33RoundRect,0.051000X0.390000X-0.110000X0.390000X0.110000X-0.390000X0.110000X-0.390000X-0.110000X0*%
%ADD34RoundRect,0.051000X0.110000X-0.390000X0.110000X0.390000X-0.110000X0.390000X-0.110000X-0.390000X0*%
%ADD35RoundRect,0.051000X0.600000X-0.600000X0.600000X0.600000X-0.600000X0.600000X-0.600000X-0.600000X0*%
%ADD36RoundRect,0.186000X-0.135000X-0.185000X0.135000X-0.185000X0.135000X0.185000X-0.135000X0.185000X0*%
%ADD37RoundRect,0.051000X-0.203200X0.406400X-0.203200X-0.406400X0.203200X-0.406400X0.203200X0.406400X0*%
%ADD38RoundRect,0.051000X0.406400X0.203200X-0.406400X0.203200X-0.406400X-0.203200X0.406400X-0.203200X0*%
%ADD39RoundRect,0.051000X-0.596900X0.596900X-0.596900X-0.596900X0.596900X-0.596900X0.596900X0.596900X0*%
%ADD40RoundRect,0.051000X0.406400X0.406400X-0.406400X0.406400X-0.406400X-0.406400X0.406400X-0.406400X0*%
G04 APERTURE END LIST*
D10*
X71500000Y-28650000D03*
X71500000Y-42150000D03*
D11*
X65500000Y-31800000D03*
X65500000Y-39000000D03*
D12*
X23490000Y-82700000D03*
X23490000Y-72700000D03*
D13*
X23600000Y-47750000D03*
X23600000Y-53750000D03*
D14*
X24325000Y-46430000D03*
X24325000Y-55070000D03*
D15*
X20500000Y-46430000D03*
X20500000Y-55070000D03*
D12*
X38500000Y-110010000D03*
X28500000Y-110010000D03*
X71500000Y-110010000D03*
X61500000Y-110010000D03*
D16*
X36450000Y-30900000D03*
X49950000Y-30900000D03*
D11*
X39600000Y-36900000D03*
X46800000Y-36900000D03*
D17*
X27800000Y-32700000D03*
X27300000Y-31950000D03*
X27300000Y-33450000D03*
X28300000Y-31950000D03*
X28300000Y-33450000D03*
D18*
X79100000Y-23400000D03*
D19*
X79100000Y-23400000D03*
D18*
X20900000Y-116600000D03*
D19*
X20900000Y-116600000D03*
D18*
X20900000Y-23400000D03*
D19*
X20900000Y-23400000D03*
D18*
X79100000Y-116600000D03*
D19*
X79100000Y-116600000D03*
D20*
X25950000Y-83200000D03*
X27850000Y-83200000D03*
D21*
X25880000Y-84700000D03*
X24920000Y-84700000D03*
D22*
X58200000Y-48410000D03*
X58200000Y-47390000D03*
X52900000Y-104710000D03*
X52900000Y-103690000D03*
D23*
X53000000Y-115690000D03*
X53000000Y-116710000D03*
D22*
X51900000Y-104710000D03*
X51900000Y-103690000D03*
D23*
X52000000Y-115690000D03*
X52000000Y-116710000D03*
D24*
X58375000Y-41995000D03*
X58375000Y-43265000D03*
X58375000Y-44535000D03*
X58375000Y-45805000D03*
X53225000Y-45805000D03*
X53225000Y-44535000D03*
X53225000Y-43265000D03*
X53225000Y-41995000D03*
D25*
X74500000Y-28390000D03*
X74900000Y-28390000D03*
X75300000Y-28390000D03*
X75700000Y-28390000D03*
X75700000Y-30810000D03*
X75300000Y-30810000D03*
X74900000Y-30810000D03*
X74500000Y-30810000D03*
D26*
X73890000Y-30200000D03*
X73890000Y-29800000D03*
X73890000Y-29400000D03*
X73890000Y-29000000D03*
X76310000Y-29000000D03*
X76310000Y-29400000D03*
X76310000Y-29800000D03*
X76310000Y-30200000D03*
D27*
X75100000Y-29600000D03*
D28*
X51325000Y-106600000D03*
X51975000Y-106600000D03*
X52625000Y-106600000D03*
X53275000Y-106600000D03*
X53925000Y-106600000D03*
X54575000Y-106600000D03*
X55225000Y-106600000D03*
X55875000Y-106600000D03*
X56525000Y-106600000D03*
X57175000Y-106600000D03*
X57825000Y-106600000D03*
X58475000Y-106600000D03*
X58475000Y-113800000D03*
X57825000Y-113800000D03*
X57175000Y-113800000D03*
X56525000Y-113800000D03*
X55875000Y-113800000D03*
X55225000Y-113800000D03*
X54575000Y-113800000D03*
X53925000Y-113800000D03*
X53275000Y-113800000D03*
X52625000Y-113800000D03*
X51975000Y-113800000D03*
X51325000Y-113800000D03*
D29*
X54950000Y-47462500D03*
X56850000Y-47462500D03*
X55900000Y-49337500D03*
D30*
X51600000Y-44480000D03*
X51600000Y-43520000D03*
D21*
X74380000Y-32000000D03*
X73420000Y-32000000D03*
D31*
X41420000Y-115500000D03*
X42380000Y-115500000D03*
D32*
X51000000Y-115620000D03*
X51000000Y-116580000D03*
D31*
X52220000Y-101500000D03*
X53180000Y-101500000D03*
D33*
X48690000Y-101200000D03*
X48690000Y-100800000D03*
X48690000Y-100400000D03*
X48690000Y-100000000D03*
X51110000Y-100000000D03*
X51110000Y-100400000D03*
X51110000Y-100800000D03*
X51110000Y-101200000D03*
D34*
X50500000Y-101810000D03*
X50100000Y-101810000D03*
X49700000Y-101810000D03*
X49300000Y-101810000D03*
X49300000Y-99390000D03*
X49700000Y-99390000D03*
X50100000Y-99390000D03*
X50500000Y-99390000D03*
D35*
X49900000Y-100600000D03*
D28*
X41425000Y-106600000D03*
X42075000Y-106600000D03*
X42725000Y-106600000D03*
X43375000Y-106600000D03*
X44025000Y-106600000D03*
X44675000Y-106600000D03*
X45325000Y-106600000D03*
X45975000Y-106600000D03*
X46625000Y-106600000D03*
X47275000Y-106600000D03*
X47925000Y-106600000D03*
X48575000Y-106600000D03*
X48575000Y-113800000D03*
X47925000Y-113800000D03*
X47275000Y-113800000D03*
X46625000Y-113800000D03*
X45975000Y-113800000D03*
X45325000Y-113800000D03*
X44675000Y-113800000D03*
X44025000Y-113800000D03*
X43375000Y-113800000D03*
X42725000Y-113800000D03*
X42075000Y-113800000D03*
X41425000Y-113800000D03*
D36*
X38490000Y-95200000D03*
X39510000Y-95200000D03*
D12*
X43800000Y-62000000D03*
X61100000Y-45800000D03*
X59200000Y-86500000D03*
D30*
X40400000Y-94280000D03*
X40400000Y-93320000D03*
D37*
X24155100Y-87233501D03*
X25005101Y-87233501D03*
X25855102Y-87233501D03*
X26705100Y-87233501D03*
X27555101Y-87233501D03*
X28405102Y-87233501D03*
X29255100Y-87233501D03*
X30105101Y-87233501D03*
X30955102Y-87233501D03*
X31805100Y-87233501D03*
X32655101Y-87233501D03*
X33505102Y-87233501D03*
X34355100Y-87233501D03*
X35205101Y-87233501D03*
X36055102Y-87233501D03*
D38*
X37105099Y-88283499D03*
X37105099Y-89133500D03*
X37105099Y-89983501D03*
X37105099Y-90833499D03*
X37105099Y-91683500D03*
X37105099Y-92533501D03*
X37105099Y-93383499D03*
X37105099Y-94233500D03*
X37105099Y-95083501D03*
X37105099Y-95933499D03*
X37105099Y-96783500D03*
X37105099Y-97633501D03*
X37105099Y-98483499D03*
X37105099Y-99333500D03*
X37105099Y-100183501D03*
D37*
X36055102Y-101233499D03*
X35205101Y-101233499D03*
X34355100Y-101233499D03*
X33505102Y-101233499D03*
X32655101Y-101233499D03*
X31805100Y-101233499D03*
X30955102Y-101233499D03*
X30105101Y-101233499D03*
X29255100Y-101233499D03*
X28405102Y-101233499D03*
X27555101Y-101233499D03*
X26705100Y-101233499D03*
X25855102Y-101233499D03*
X25005101Y-101233499D03*
X24155100Y-101233499D03*
D38*
X23105102Y-100183501D03*
X23105102Y-99333500D03*
X23105102Y-98483499D03*
X23105102Y-97633501D03*
X23105102Y-96783500D03*
X23105102Y-95933499D03*
X23105102Y-95083501D03*
X23105102Y-94233500D03*
X23105102Y-93383499D03*
X23105102Y-92533501D03*
X23105102Y-91683500D03*
X23105102Y-90833499D03*
X23105102Y-89983501D03*
X23105102Y-89133500D03*
X23105102Y-88283499D03*
D39*
X30105101Y-94233500D03*
D40*
X23105102Y-87233501D03*
X37105102Y-87233501D03*
X37105102Y-101233499D03*
X23105102Y-101233499D03*
D39*
X28455101Y-92583500D03*
X28455101Y-94233500D03*
X28455101Y-95883500D03*
X30105101Y-92583500D03*
X30105101Y-95883500D03*
X31755101Y-92583500D03*
X31755101Y-94233500D03*
X31755101Y-95883500D03*
D32*
X40400000Y-95120000D03*
X40400000Y-96080000D03*
D12*
X77600000Y-62000000D03*
X60700000Y-73200000D03*
X60700000Y-61900000D03*
X44800000Y-73700000D03*
D23*
X45600000Y-115490000D03*
X45600000Y-116510000D03*
D12*
X47500000Y-86800000D03*
D36*
X38490000Y-94200000D03*
X39510000Y-94200000D03*
D21*
X25880000Y-85700000D03*
X24920000Y-85700000D03*
D12*
X21400000Y-85100000D03*
X28700000Y-81200000D03*
X77600000Y-95600000D03*
X45100000Y-96000000D03*
X77600000Y-73300000D03*
X77600000Y-84500000D03*
X60700000Y-95500000D03*
G36*
X51714633Y-112888517D02*
G01*
X51715197Y-112890436D01*
X51714916Y-112891075D01*
X51704767Y-112906263D01*
X51701000Y-112925199D01*
X51701000Y-114674801D01*
X51704767Y-114693738D01*
X51714814Y-114708773D01*
X51714945Y-114710768D01*
X51713282Y-114711880D01*
X51712553Y-114711793D01*
X51652212Y-114692898D01*
X51587310Y-114711955D01*
X51585367Y-114711483D01*
X51584803Y-114709564D01*
X51585084Y-114708925D01*
X51595233Y-114693737D01*
X51599000Y-114674801D01*
X51599000Y-112925199D01*
X51595233Y-112906262D01*
X51585186Y-112891227D01*
X51585055Y-112889232D01*
X51586718Y-112888120D01*
X51587447Y-112888207D01*
X51647788Y-112907102D01*
X51712690Y-112888045D01*
X51714633Y-112888517D01*
G37*
G36*
X48314633Y-112888517D02*
G01*
X48315197Y-112890436D01*
X48314916Y-112891075D01*
X48304767Y-112906263D01*
X48301000Y-112925199D01*
X48301000Y-114674801D01*
X48304767Y-114693738D01*
X48314814Y-114708773D01*
X48314945Y-114710768D01*
X48313282Y-114711880D01*
X48312553Y-114711793D01*
X48252212Y-114692898D01*
X48187310Y-114711955D01*
X48185367Y-114711483D01*
X48184803Y-114709564D01*
X48185084Y-114708925D01*
X48195233Y-114693737D01*
X48199000Y-114674801D01*
X48199000Y-112925199D01*
X48195233Y-112906262D01*
X48185186Y-112891227D01*
X48185055Y-112889232D01*
X48186718Y-112888120D01*
X48187447Y-112888207D01*
X48247788Y-112907102D01*
X48312690Y-112888045D01*
X48314633Y-112888517D01*
G37*
G36*
X52364633Y-112888517D02*
G01*
X52365197Y-112890436D01*
X52364916Y-112891075D01*
X52354767Y-112906263D01*
X52351000Y-112925199D01*
X52351000Y-114674801D01*
X52354767Y-114693738D01*
X52364814Y-114708773D01*
X52364945Y-114710768D01*
X52363282Y-114711880D01*
X52362553Y-114711793D01*
X52302212Y-114692898D01*
X52237310Y-114711955D01*
X52235367Y-114711483D01*
X52234803Y-114709564D01*
X52235084Y-114708925D01*
X52245233Y-114693737D01*
X52249000Y-114674801D01*
X52249000Y-112925199D01*
X52245233Y-112906262D01*
X52235186Y-112891227D01*
X52235055Y-112889232D01*
X52236718Y-112888120D01*
X52237447Y-112888207D01*
X52297788Y-112907102D01*
X52362690Y-112888045D01*
X52364633Y-112888517D01*
G37*
G36*
X47664633Y-112888517D02*
G01*
X47665197Y-112890436D01*
X47664916Y-112891075D01*
X47654767Y-112906263D01*
X47651000Y-112925199D01*
X47651000Y-114674801D01*
X47654767Y-114693738D01*
X47664814Y-114708773D01*
X47664945Y-114710768D01*
X47663282Y-114711880D01*
X47662553Y-114711793D01*
X47602212Y-114692898D01*
X47537310Y-114711955D01*
X47535367Y-114711483D01*
X47534803Y-114709564D01*
X47535084Y-114708925D01*
X47545233Y-114693737D01*
X47549000Y-114674801D01*
X47549000Y-112925199D01*
X47545233Y-112906262D01*
X47535186Y-112891227D01*
X47535055Y-112889232D01*
X47536718Y-112888120D01*
X47537447Y-112888207D01*
X47597788Y-112907102D01*
X47662690Y-112888045D01*
X47664633Y-112888517D01*
G37*
G36*
X53014633Y-112888517D02*
G01*
X53015197Y-112890436D01*
X53014916Y-112891075D01*
X53004767Y-112906263D01*
X53001000Y-112925199D01*
X53001000Y-114674801D01*
X53004767Y-114693738D01*
X53014814Y-114708773D01*
X53014945Y-114710768D01*
X53013282Y-114711880D01*
X53012553Y-114711793D01*
X52952212Y-114692898D01*
X52887310Y-114711955D01*
X52885367Y-114711483D01*
X52884803Y-114709564D01*
X52885084Y-114708925D01*
X52895233Y-114693737D01*
X52899000Y-114674801D01*
X52899000Y-112925199D01*
X52895233Y-112906262D01*
X52885186Y-112891227D01*
X52885055Y-112889232D01*
X52886718Y-112888120D01*
X52887447Y-112888207D01*
X52947788Y-112907102D01*
X53012690Y-112888045D01*
X53014633Y-112888517D01*
G37*
G36*
X41814633Y-112888517D02*
G01*
X41815197Y-112890436D01*
X41814916Y-112891075D01*
X41804767Y-112906263D01*
X41801000Y-112925199D01*
X41801000Y-114674801D01*
X41804767Y-114693738D01*
X41814814Y-114708773D01*
X41814945Y-114710768D01*
X41813282Y-114711880D01*
X41812553Y-114711793D01*
X41752212Y-114692898D01*
X41687310Y-114711955D01*
X41685367Y-114711483D01*
X41684803Y-114709564D01*
X41685084Y-114708925D01*
X41695233Y-114693737D01*
X41699000Y-114674801D01*
X41699000Y-112925199D01*
X41695233Y-112906262D01*
X41685186Y-112891227D01*
X41685055Y-112889232D01*
X41686718Y-112888120D01*
X41687447Y-112888207D01*
X41747788Y-112907102D01*
X41812690Y-112888045D01*
X41814633Y-112888517D01*
G37*
G36*
X47014633Y-112888517D02*
G01*
X47015197Y-112890436D01*
X47014916Y-112891075D01*
X47004767Y-112906263D01*
X47001000Y-112925199D01*
X47001000Y-114674801D01*
X47004767Y-114693738D01*
X47014814Y-114708773D01*
X47014945Y-114710768D01*
X47013282Y-114711880D01*
X47012553Y-114711793D01*
X46952212Y-114692898D01*
X46887310Y-114711955D01*
X46885367Y-114711483D01*
X46884803Y-114709564D01*
X46885084Y-114708925D01*
X46895233Y-114693737D01*
X46899000Y-114674801D01*
X46899000Y-112925199D01*
X46895233Y-112906262D01*
X46885186Y-112891227D01*
X46885055Y-112889232D01*
X46886718Y-112888120D01*
X46887447Y-112888207D01*
X46947788Y-112907102D01*
X47012690Y-112888045D01*
X47014633Y-112888517D01*
G37*
G36*
X53664633Y-112888517D02*
G01*
X53665197Y-112890436D01*
X53664916Y-112891075D01*
X53654767Y-112906263D01*
X53651000Y-112925199D01*
X53651000Y-114674801D01*
X53654767Y-114693738D01*
X53664814Y-114708773D01*
X53664945Y-114710768D01*
X53663282Y-114711880D01*
X53662553Y-114711793D01*
X53602212Y-114692898D01*
X53537310Y-114711955D01*
X53535367Y-114711483D01*
X53534803Y-114709564D01*
X53535084Y-114708925D01*
X53545233Y-114693737D01*
X53549000Y-114674801D01*
X53549000Y-112925199D01*
X53545233Y-112906262D01*
X53535186Y-112891227D01*
X53535055Y-112889232D01*
X53536718Y-112888120D01*
X53537447Y-112888207D01*
X53597788Y-112907102D01*
X53662690Y-112888045D01*
X53664633Y-112888517D01*
G37*
G36*
X42464633Y-112888517D02*
G01*
X42465197Y-112890436D01*
X42464916Y-112891075D01*
X42454767Y-112906263D01*
X42451000Y-112925199D01*
X42451000Y-114674801D01*
X42454767Y-114693738D01*
X42464814Y-114708773D01*
X42464945Y-114710768D01*
X42463282Y-114711880D01*
X42462553Y-114711793D01*
X42402212Y-114692898D01*
X42337310Y-114711955D01*
X42335367Y-114711483D01*
X42334803Y-114709564D01*
X42335084Y-114708925D01*
X42345233Y-114693737D01*
X42349000Y-114674801D01*
X42349000Y-112925199D01*
X42345233Y-112906262D01*
X42335186Y-112891227D01*
X42335055Y-112889232D01*
X42336718Y-112888120D01*
X42337447Y-112888207D01*
X42397788Y-112907102D01*
X42462690Y-112888045D01*
X42464633Y-112888517D01*
G37*
G36*
X57564633Y-112888517D02*
G01*
X57565197Y-112890436D01*
X57564916Y-112891075D01*
X57554767Y-112906263D01*
X57551000Y-112925199D01*
X57551000Y-114674801D01*
X57554767Y-114693738D01*
X57564814Y-114708773D01*
X57564945Y-114710768D01*
X57563282Y-114711880D01*
X57562553Y-114711793D01*
X57502212Y-114692898D01*
X57437310Y-114711955D01*
X57435367Y-114711483D01*
X57434803Y-114709564D01*
X57435084Y-114708925D01*
X57445233Y-114693737D01*
X57449000Y-114674801D01*
X57449000Y-112925199D01*
X57445233Y-112906262D01*
X57435186Y-112891227D01*
X57435055Y-112889232D01*
X57436718Y-112888120D01*
X57437447Y-112888207D01*
X57497788Y-112907102D01*
X57562690Y-112888045D01*
X57564633Y-112888517D01*
G37*
G36*
X43114633Y-112888517D02*
G01*
X43115197Y-112890436D01*
X43114916Y-112891075D01*
X43104767Y-112906263D01*
X43101000Y-112925199D01*
X43101000Y-114674801D01*
X43104767Y-114693738D01*
X43114814Y-114708773D01*
X43114945Y-114710768D01*
X43113282Y-114711880D01*
X43112553Y-114711793D01*
X43052212Y-114692898D01*
X42987310Y-114711955D01*
X42985367Y-114711483D01*
X42984803Y-114709564D01*
X42985084Y-114708925D01*
X42995233Y-114693737D01*
X42999000Y-114674801D01*
X42999000Y-112925199D01*
X42995233Y-112906262D01*
X42985186Y-112891227D01*
X42985055Y-112889232D01*
X42986718Y-112888120D01*
X42987447Y-112888207D01*
X43047788Y-112907102D01*
X43112690Y-112888045D01*
X43114633Y-112888517D01*
G37*
G36*
X56914633Y-112888517D02*
G01*
X56915197Y-112890436D01*
X56914916Y-112891075D01*
X56904767Y-112906263D01*
X56901000Y-112925199D01*
X56901000Y-114674801D01*
X56904767Y-114693738D01*
X56914814Y-114708773D01*
X56914945Y-114710768D01*
X56913282Y-114711880D01*
X56912553Y-114711793D01*
X56852212Y-114692898D01*
X56787310Y-114711955D01*
X56785367Y-114711483D01*
X56784803Y-114709564D01*
X56785084Y-114708925D01*
X56795233Y-114693737D01*
X56799000Y-114674801D01*
X56799000Y-112925199D01*
X56795233Y-112906262D01*
X56785186Y-112891227D01*
X56785055Y-112889232D01*
X56786718Y-112888120D01*
X56787447Y-112888207D01*
X56847788Y-112907102D01*
X56912690Y-112888045D01*
X56914633Y-112888517D01*
G37*
G36*
X43764633Y-112888517D02*
G01*
X43765197Y-112890436D01*
X43764916Y-112891075D01*
X43754767Y-112906263D01*
X43751000Y-112925199D01*
X43751000Y-114674801D01*
X43754767Y-114693738D01*
X43764814Y-114708773D01*
X43764945Y-114710768D01*
X43763282Y-114711880D01*
X43762553Y-114711793D01*
X43702212Y-114692898D01*
X43637310Y-114711955D01*
X43635367Y-114711483D01*
X43634803Y-114709564D01*
X43635084Y-114708925D01*
X43645233Y-114693737D01*
X43649000Y-114674801D01*
X43649000Y-112925199D01*
X43645233Y-112906262D01*
X43635186Y-112891227D01*
X43635055Y-112889232D01*
X43636718Y-112888120D01*
X43637447Y-112888207D01*
X43697788Y-112907102D01*
X43762690Y-112888045D01*
X43764633Y-112888517D01*
G37*
G36*
X58214633Y-112888517D02*
G01*
X58215197Y-112890436D01*
X58214916Y-112891075D01*
X58204767Y-112906263D01*
X58201000Y-112925199D01*
X58201000Y-114674801D01*
X58204767Y-114693738D01*
X58214814Y-114708773D01*
X58214945Y-114710768D01*
X58213282Y-114711880D01*
X58212553Y-114711793D01*
X58152212Y-114692898D01*
X58087310Y-114711955D01*
X58085367Y-114711483D01*
X58084803Y-114709564D01*
X58085084Y-114708925D01*
X58095233Y-114693737D01*
X58099000Y-114674801D01*
X58099000Y-112925199D01*
X58095233Y-112906262D01*
X58085186Y-112891227D01*
X58085055Y-112889232D01*
X58086718Y-112888120D01*
X58087447Y-112888207D01*
X58147788Y-112907102D01*
X58212690Y-112888045D01*
X58214633Y-112888517D01*
G37*
G36*
X56264633Y-112888517D02*
G01*
X56265197Y-112890436D01*
X56264916Y-112891075D01*
X56254767Y-112906263D01*
X56251000Y-112925199D01*
X56251000Y-114674801D01*
X56254767Y-114693738D01*
X56264814Y-114708773D01*
X56264945Y-114710768D01*
X56263282Y-114711880D01*
X56262553Y-114711793D01*
X56202212Y-114692898D01*
X56137310Y-114711955D01*
X56135367Y-114711483D01*
X56134803Y-114709564D01*
X56135084Y-114708925D01*
X56145233Y-114693737D01*
X56149000Y-114674801D01*
X56149000Y-112925199D01*
X56145233Y-112906262D01*
X56135186Y-112891227D01*
X56135055Y-112889232D01*
X56136718Y-112888120D01*
X56137447Y-112888207D01*
X56197788Y-112907102D01*
X56262690Y-112888045D01*
X56264633Y-112888517D01*
G37*
G36*
X44414633Y-112888517D02*
G01*
X44415197Y-112890436D01*
X44414916Y-112891075D01*
X44404767Y-112906263D01*
X44401000Y-112925199D01*
X44401000Y-114674801D01*
X44404767Y-114693738D01*
X44414814Y-114708773D01*
X44414945Y-114710768D01*
X44413282Y-114711880D01*
X44412553Y-114711793D01*
X44352212Y-114692898D01*
X44287310Y-114711955D01*
X44285367Y-114711483D01*
X44284803Y-114709564D01*
X44285084Y-114708925D01*
X44295233Y-114693737D01*
X44299000Y-114674801D01*
X44299000Y-112925199D01*
X44295233Y-112906262D01*
X44285186Y-112891227D01*
X44285055Y-112889232D01*
X44286718Y-112888120D01*
X44287447Y-112888207D01*
X44347788Y-112907102D01*
X44412690Y-112888045D01*
X44414633Y-112888517D01*
G37*
G36*
X55614633Y-112888517D02*
G01*
X55615197Y-112890436D01*
X55614916Y-112891075D01*
X55604767Y-112906263D01*
X55601000Y-112925199D01*
X55601000Y-114674801D01*
X55604767Y-114693738D01*
X55614814Y-114708773D01*
X55614945Y-114710768D01*
X55613282Y-114711880D01*
X55612553Y-114711793D01*
X55552212Y-114692898D01*
X55487310Y-114711955D01*
X55485367Y-114711483D01*
X55484803Y-114709564D01*
X55485084Y-114708925D01*
X55495233Y-114693737D01*
X55499000Y-114674801D01*
X55499000Y-112925199D01*
X55495233Y-112906262D01*
X55485186Y-112891227D01*
X55485055Y-112889232D01*
X55486718Y-112888120D01*
X55487447Y-112888207D01*
X55547788Y-112907102D01*
X55612690Y-112888045D01*
X55614633Y-112888517D01*
G37*
G36*
X45064633Y-112888517D02*
G01*
X45065197Y-112890436D01*
X45064916Y-112891075D01*
X45054767Y-112906263D01*
X45051000Y-112925199D01*
X45051000Y-114674801D01*
X45054767Y-114693738D01*
X45064814Y-114708773D01*
X45064945Y-114710768D01*
X45063282Y-114711880D01*
X45062553Y-114711793D01*
X45002212Y-114692898D01*
X44937310Y-114711955D01*
X44935367Y-114711483D01*
X44934803Y-114709564D01*
X44935084Y-114708925D01*
X44945233Y-114693737D01*
X44949000Y-114674801D01*
X44949000Y-112925199D01*
X44945233Y-112906262D01*
X44935186Y-112891227D01*
X44935055Y-112889232D01*
X44936718Y-112888120D01*
X44937447Y-112888207D01*
X44997788Y-112907102D01*
X45062690Y-112888045D01*
X45064633Y-112888517D01*
G37*
G36*
X54964633Y-112888517D02*
G01*
X54965197Y-112890436D01*
X54964916Y-112891075D01*
X54954767Y-112906263D01*
X54951000Y-112925199D01*
X54951000Y-114674801D01*
X54954767Y-114693738D01*
X54964814Y-114708773D01*
X54964945Y-114710768D01*
X54963282Y-114711880D01*
X54962553Y-114711793D01*
X54902212Y-114692898D01*
X54837310Y-114711955D01*
X54835367Y-114711483D01*
X54834803Y-114709564D01*
X54835084Y-114708925D01*
X54845233Y-114693737D01*
X54849000Y-114674801D01*
X54849000Y-112925199D01*
X54845233Y-112906262D01*
X54835186Y-112891227D01*
X54835055Y-112889232D01*
X54836718Y-112888120D01*
X54837447Y-112888207D01*
X54897788Y-112907102D01*
X54962690Y-112888045D01*
X54964633Y-112888517D01*
G37*
G36*
X45714633Y-112888517D02*
G01*
X45715197Y-112890436D01*
X45714916Y-112891075D01*
X45704767Y-112906263D01*
X45701000Y-112925199D01*
X45701000Y-114674801D01*
X45704767Y-114693738D01*
X45714814Y-114708773D01*
X45714945Y-114710768D01*
X45713282Y-114711880D01*
X45712553Y-114711793D01*
X45652212Y-114692898D01*
X45587310Y-114711955D01*
X45585367Y-114711483D01*
X45584803Y-114709564D01*
X45585084Y-114708925D01*
X45595233Y-114693737D01*
X45599000Y-114674801D01*
X45599000Y-112925199D01*
X45595233Y-112906262D01*
X45585186Y-112891227D01*
X45585055Y-112889232D01*
X45586718Y-112888120D01*
X45587447Y-112888207D01*
X45647788Y-112907102D01*
X45712690Y-112888045D01*
X45714633Y-112888517D01*
G37*
G36*
X54314633Y-112888517D02*
G01*
X54315197Y-112890436D01*
X54314916Y-112891075D01*
X54304767Y-112906263D01*
X54301000Y-112925199D01*
X54301000Y-114674801D01*
X54304767Y-114693738D01*
X54314814Y-114708773D01*
X54314945Y-114710768D01*
X54313282Y-114711880D01*
X54312553Y-114711793D01*
X54252212Y-114692898D01*
X54187310Y-114711955D01*
X54185367Y-114711483D01*
X54184803Y-114709564D01*
X54185084Y-114708925D01*
X54195233Y-114693737D01*
X54199000Y-114674801D01*
X54199000Y-112925199D01*
X54195233Y-112906262D01*
X54185186Y-112891227D01*
X54185055Y-112889232D01*
X54186718Y-112888120D01*
X54187447Y-112888207D01*
X54247788Y-112907102D01*
X54312690Y-112888045D01*
X54314633Y-112888517D01*
G37*
G36*
X46364633Y-112888517D02*
G01*
X46365197Y-112890436D01*
X46364916Y-112891075D01*
X46354767Y-112906263D01*
X46351000Y-112925199D01*
X46351000Y-114674801D01*
X46354767Y-114693738D01*
X46364814Y-114708773D01*
X46364945Y-114710768D01*
X46363282Y-114711880D01*
X46362553Y-114711793D01*
X46302212Y-114692898D01*
X46237310Y-114711955D01*
X46235367Y-114711483D01*
X46234803Y-114709564D01*
X46235084Y-114708925D01*
X46245233Y-114693737D01*
X46249000Y-114674801D01*
X46249000Y-112925199D01*
X46245233Y-112906262D01*
X46235186Y-112891227D01*
X46235055Y-112889232D01*
X46236718Y-112888120D01*
X46237447Y-112888207D01*
X46297788Y-112907102D01*
X46362690Y-112888045D01*
X46364633Y-112888517D01*
G37*
G36*
X45714633Y-105688517D02*
G01*
X45715197Y-105690436D01*
X45714916Y-105691075D01*
X45704767Y-105706263D01*
X45701000Y-105725199D01*
X45701000Y-107474801D01*
X45704767Y-107493738D01*
X45714814Y-107508773D01*
X45714945Y-107510768D01*
X45713282Y-107511880D01*
X45712553Y-107511793D01*
X45652212Y-107492898D01*
X45587310Y-107511955D01*
X45585367Y-107511483D01*
X45584803Y-107509564D01*
X45585084Y-107508925D01*
X45595233Y-107493737D01*
X45599000Y-107474801D01*
X45599000Y-105725199D01*
X45595233Y-105706262D01*
X45585186Y-105691227D01*
X45585055Y-105689232D01*
X45586718Y-105688120D01*
X45587447Y-105688207D01*
X45647788Y-105707102D01*
X45712690Y-105688045D01*
X45714633Y-105688517D01*
G37*
G36*
X41814633Y-105688517D02*
G01*
X41815197Y-105690436D01*
X41814916Y-105691075D01*
X41804767Y-105706263D01*
X41801000Y-105725199D01*
X41801000Y-107474801D01*
X41804767Y-107493738D01*
X41814814Y-107508773D01*
X41814945Y-107510768D01*
X41813282Y-107511880D01*
X41812553Y-107511793D01*
X41752212Y-107492898D01*
X41687310Y-107511955D01*
X41685367Y-107511483D01*
X41684803Y-107509564D01*
X41685084Y-107508925D01*
X41695233Y-107493737D01*
X41699000Y-107474801D01*
X41699000Y-105725199D01*
X41695233Y-105706262D01*
X41685186Y-105691227D01*
X41685055Y-105689232D01*
X41686718Y-105688120D01*
X41687447Y-105688207D01*
X41747788Y-105707102D01*
X41812690Y-105688045D01*
X41814633Y-105688517D01*
G37*
G36*
X52364633Y-105688517D02*
G01*
X52365197Y-105690436D01*
X52364916Y-105691075D01*
X52354767Y-105706263D01*
X52351000Y-105725199D01*
X52351000Y-107474801D01*
X52354767Y-107493738D01*
X52364814Y-107508773D01*
X52364945Y-107510768D01*
X52363282Y-107511880D01*
X52362553Y-107511793D01*
X52302212Y-107492898D01*
X52237310Y-107511955D01*
X52235367Y-107511483D01*
X52234803Y-107509564D01*
X52235084Y-107508925D01*
X52245233Y-107493737D01*
X52249000Y-107474801D01*
X52249000Y-105725199D01*
X52245233Y-105706262D01*
X52235186Y-105691227D01*
X52235055Y-105689232D01*
X52236718Y-105688120D01*
X52237447Y-105688207D01*
X52297788Y-105707102D01*
X52362690Y-105688045D01*
X52364633Y-105688517D01*
G37*
G36*
X54964633Y-105688517D02*
G01*
X54965197Y-105690436D01*
X54964916Y-105691075D01*
X54954767Y-105706263D01*
X54951000Y-105725199D01*
X54951000Y-107474801D01*
X54954767Y-107493738D01*
X54964814Y-107508773D01*
X54964945Y-107510768D01*
X54963282Y-107511880D01*
X54962553Y-107511793D01*
X54902212Y-107492898D01*
X54837310Y-107511955D01*
X54835367Y-107511483D01*
X54834803Y-107509564D01*
X54835084Y-107508925D01*
X54845233Y-107493737D01*
X54849000Y-107474801D01*
X54849000Y-105725199D01*
X54845233Y-105706262D01*
X54835186Y-105691227D01*
X54835055Y-105689232D01*
X54836718Y-105688120D01*
X54837447Y-105688207D01*
X54897788Y-105707102D01*
X54962690Y-105688045D01*
X54964633Y-105688517D01*
G37*
G36*
X53664633Y-105688517D02*
G01*
X53665197Y-105690436D01*
X53664916Y-105691075D01*
X53654767Y-105706263D01*
X53651000Y-105725199D01*
X53651000Y-107474801D01*
X53654767Y-107493738D01*
X53664814Y-107508773D01*
X53664945Y-107510768D01*
X53663282Y-107511880D01*
X53662553Y-107511793D01*
X53602212Y-107492898D01*
X53537310Y-107511955D01*
X53535367Y-107511483D01*
X53534803Y-107509564D01*
X53535084Y-107508925D01*
X53545233Y-107493737D01*
X53549000Y-107474801D01*
X53549000Y-105725199D01*
X53545233Y-105706262D01*
X53535186Y-105691227D01*
X53535055Y-105689232D01*
X53536718Y-105688120D01*
X53537447Y-105688207D01*
X53597788Y-105707102D01*
X53662690Y-105688045D01*
X53664633Y-105688517D01*
G37*
G36*
X56914633Y-105688517D02*
G01*
X56915197Y-105690436D01*
X56914916Y-105691075D01*
X56904767Y-105706263D01*
X56901000Y-105725199D01*
X56901000Y-107474801D01*
X56904767Y-107493738D01*
X56914814Y-107508773D01*
X56914945Y-107510768D01*
X56913282Y-107511880D01*
X56912553Y-107511793D01*
X56852212Y-107492898D01*
X56787310Y-107511955D01*
X56785367Y-107511483D01*
X56784803Y-107509564D01*
X56785084Y-107508925D01*
X56795233Y-107493737D01*
X56799000Y-107474801D01*
X56799000Y-105725199D01*
X56795233Y-105706262D01*
X56785186Y-105691227D01*
X56785055Y-105689232D01*
X56786718Y-105688120D01*
X56787447Y-105688207D01*
X56847788Y-105707102D01*
X56912690Y-105688045D01*
X56914633Y-105688517D01*
G37*
G36*
X47664633Y-105688517D02*
G01*
X47665197Y-105690436D01*
X47664916Y-105691075D01*
X47654767Y-105706263D01*
X47651000Y-105725199D01*
X47651000Y-107474801D01*
X47654767Y-107493738D01*
X47664814Y-107508773D01*
X47664945Y-107510768D01*
X47663282Y-107511880D01*
X47662553Y-107511793D01*
X47602212Y-107492898D01*
X47537310Y-107511955D01*
X47535367Y-107511483D01*
X47534803Y-107509564D01*
X47535084Y-107508925D01*
X47545233Y-107493737D01*
X47549000Y-107474801D01*
X47549000Y-105725199D01*
X47545233Y-105706262D01*
X47535186Y-105691227D01*
X47535055Y-105689232D01*
X47536718Y-105688120D01*
X47537447Y-105688207D01*
X47597788Y-105707102D01*
X47662690Y-105688045D01*
X47664633Y-105688517D01*
G37*
G36*
X43764633Y-105688517D02*
G01*
X43765197Y-105690436D01*
X43764916Y-105691075D01*
X43754767Y-105706263D01*
X43751000Y-105725199D01*
X43751000Y-107474801D01*
X43754767Y-107493738D01*
X43764814Y-107508773D01*
X43764945Y-107510768D01*
X43763282Y-107511880D01*
X43762553Y-107511793D01*
X43702212Y-107492898D01*
X43637310Y-107511955D01*
X43635367Y-107511483D01*
X43634803Y-107509564D01*
X43635084Y-107508925D01*
X43645233Y-107493737D01*
X43649000Y-107474801D01*
X43649000Y-105725199D01*
X43645233Y-105706262D01*
X43635186Y-105691227D01*
X43635055Y-105689232D01*
X43636718Y-105688120D01*
X43637447Y-105688207D01*
X43697788Y-105707102D01*
X43762690Y-105688045D01*
X43764633Y-105688517D01*
G37*
G36*
X53014633Y-105688517D02*
G01*
X53015197Y-105690436D01*
X53014916Y-105691075D01*
X53004767Y-105706263D01*
X53001000Y-105725199D01*
X53001000Y-107474801D01*
X53004767Y-107493738D01*
X53014814Y-107508773D01*
X53014945Y-107510768D01*
X53013282Y-107511880D01*
X53012553Y-107511793D01*
X52952212Y-107492898D01*
X52887310Y-107511955D01*
X52885367Y-107511483D01*
X52884803Y-107509564D01*
X52885084Y-107508925D01*
X52895233Y-107493737D01*
X52899000Y-107474801D01*
X52899000Y-105725199D01*
X52895233Y-105706262D01*
X52885186Y-105691227D01*
X52885055Y-105689232D01*
X52886718Y-105688120D01*
X52887447Y-105688207D01*
X52947788Y-105707102D01*
X53012690Y-105688045D01*
X53014633Y-105688517D01*
G37*
G36*
X42464633Y-105688517D02*
G01*
X42465197Y-105690436D01*
X42464916Y-105691075D01*
X42454767Y-105706263D01*
X42451000Y-105725199D01*
X42451000Y-107474801D01*
X42454767Y-107493738D01*
X42464814Y-107508773D01*
X42464945Y-107510768D01*
X42463282Y-107511880D01*
X42462553Y-107511793D01*
X42402212Y-107492898D01*
X42337310Y-107511955D01*
X42335367Y-107511483D01*
X42334803Y-107509564D01*
X42335084Y-107508925D01*
X42345233Y-107493737D01*
X42349000Y-107474801D01*
X42349000Y-105725199D01*
X42345233Y-105706262D01*
X42335186Y-105691227D01*
X42335055Y-105689232D01*
X42336718Y-105688120D01*
X42337447Y-105688207D01*
X42397788Y-105707102D01*
X42462690Y-105688045D01*
X42464633Y-105688517D01*
G37*
G36*
X58214633Y-105688517D02*
G01*
X58215197Y-105690436D01*
X58214916Y-105691075D01*
X58204767Y-105706263D01*
X58201000Y-105725199D01*
X58201000Y-107474801D01*
X58204767Y-107493738D01*
X58214814Y-107508773D01*
X58214945Y-107510768D01*
X58213282Y-107511880D01*
X58212553Y-107511793D01*
X58152212Y-107492898D01*
X58087310Y-107511955D01*
X58085367Y-107511483D01*
X58084803Y-107509564D01*
X58085084Y-107508925D01*
X58095233Y-107493737D01*
X58099000Y-107474801D01*
X58099000Y-105725199D01*
X58095233Y-105706262D01*
X58085186Y-105691227D01*
X58085055Y-105689232D01*
X58086718Y-105688120D01*
X58087447Y-105688207D01*
X58147788Y-105707102D01*
X58212690Y-105688045D01*
X58214633Y-105688517D01*
G37*
G36*
X51714633Y-105688517D02*
G01*
X51715197Y-105690436D01*
X51714916Y-105691075D01*
X51704767Y-105706263D01*
X51701000Y-105725199D01*
X51701000Y-107474801D01*
X51704767Y-107493738D01*
X51714814Y-107508773D01*
X51714945Y-107510768D01*
X51713282Y-107511880D01*
X51712553Y-107511793D01*
X51652212Y-107492898D01*
X51587310Y-107511955D01*
X51585367Y-107511483D01*
X51584803Y-107509564D01*
X51585084Y-107508925D01*
X51595233Y-107493737D01*
X51599000Y-107474801D01*
X51599000Y-105725199D01*
X51595233Y-105706262D01*
X51585186Y-105691227D01*
X51585055Y-105689232D01*
X51586718Y-105688120D01*
X51587447Y-105688207D01*
X51647788Y-105707102D01*
X51712690Y-105688045D01*
X51714633Y-105688517D01*
G37*
G36*
X48314633Y-105688517D02*
G01*
X48315197Y-105690436D01*
X48314916Y-105691075D01*
X48304767Y-105706263D01*
X48301000Y-105725199D01*
X48301000Y-107474801D01*
X48304767Y-107493738D01*
X48314814Y-107508773D01*
X48314945Y-107510768D01*
X48313282Y-107511880D01*
X48312553Y-107511793D01*
X48252212Y-107492898D01*
X48187310Y-107511955D01*
X48185367Y-107511483D01*
X48184803Y-107509564D01*
X48185084Y-107508925D01*
X48195233Y-107493737D01*
X48199000Y-107474801D01*
X48199000Y-105725199D01*
X48195233Y-105706262D01*
X48185186Y-105691227D01*
X48185055Y-105689232D01*
X48186718Y-105688120D01*
X48187447Y-105688207D01*
X48247788Y-105707102D01*
X48312690Y-105688045D01*
X48314633Y-105688517D01*
G37*
G36*
X45064633Y-105688517D02*
G01*
X45065197Y-105690436D01*
X45064916Y-105691075D01*
X45054767Y-105706263D01*
X45051000Y-105725199D01*
X45051000Y-107474801D01*
X45054767Y-107493738D01*
X45064814Y-107508773D01*
X45064945Y-107510768D01*
X45063282Y-107511880D01*
X45062553Y-107511793D01*
X45002212Y-107492898D01*
X44937310Y-107511955D01*
X44935367Y-107511483D01*
X44934803Y-107509564D01*
X44935084Y-107508925D01*
X44945233Y-107493737D01*
X44949000Y-107474801D01*
X44949000Y-105725199D01*
X44945233Y-105706262D01*
X44935186Y-105691227D01*
X44935055Y-105689232D01*
X44936718Y-105688120D01*
X44937447Y-105688207D01*
X44997788Y-105707102D01*
X45062690Y-105688045D01*
X45064633Y-105688517D01*
G37*
G36*
X47014633Y-105688517D02*
G01*
X47015197Y-105690436D01*
X47014916Y-105691075D01*
X47004767Y-105706263D01*
X47001000Y-105725199D01*
X47001000Y-107474801D01*
X47004767Y-107493738D01*
X47014814Y-107508773D01*
X47014945Y-107510768D01*
X47013282Y-107511880D01*
X47012553Y-107511793D01*
X46952212Y-107492898D01*
X46887310Y-107511955D01*
X46885367Y-107511483D01*
X46884803Y-107509564D01*
X46885084Y-107508925D01*
X46895233Y-107493737D01*
X46899000Y-107474801D01*
X46899000Y-105725199D01*
X46895233Y-105706262D01*
X46885186Y-105691227D01*
X46885055Y-105689232D01*
X46886718Y-105688120D01*
X46887447Y-105688207D01*
X46947788Y-105707102D01*
X47012690Y-105688045D01*
X47014633Y-105688517D01*
G37*
G36*
X46364633Y-105688517D02*
G01*
X46365197Y-105690436D01*
X46364916Y-105691075D01*
X46354767Y-105706263D01*
X46351000Y-105725199D01*
X46351000Y-107474801D01*
X46354767Y-107493738D01*
X46364814Y-107508773D01*
X46364945Y-107510768D01*
X46363282Y-107511880D01*
X46362553Y-107511793D01*
X46302212Y-107492898D01*
X46237310Y-107511955D01*
X46235367Y-107511483D01*
X46234803Y-107509564D01*
X46235084Y-107508925D01*
X46245233Y-107493737D01*
X46249000Y-107474801D01*
X46249000Y-105725199D01*
X46245233Y-105706262D01*
X46235186Y-105691227D01*
X46235055Y-105689232D01*
X46236718Y-105688120D01*
X46237447Y-105688207D01*
X46297788Y-105707102D01*
X46362690Y-105688045D01*
X46364633Y-105688517D01*
G37*
G36*
X55614633Y-105688517D02*
G01*
X55615197Y-105690436D01*
X55614916Y-105691075D01*
X55604767Y-105706263D01*
X55601000Y-105725199D01*
X55601000Y-107474801D01*
X55604767Y-107493738D01*
X55614814Y-107508773D01*
X55614945Y-107510768D01*
X55613282Y-107511880D01*
X55612553Y-107511793D01*
X55552212Y-107492898D01*
X55487310Y-107511955D01*
X55485367Y-107511483D01*
X55484803Y-107509564D01*
X55485084Y-107508925D01*
X55495233Y-107493737D01*
X55499000Y-107474801D01*
X55499000Y-105725199D01*
X55495233Y-105706262D01*
X55485186Y-105691227D01*
X55485055Y-105689232D01*
X55486718Y-105688120D01*
X55487447Y-105688207D01*
X55547788Y-105707102D01*
X55612690Y-105688045D01*
X55614633Y-105688517D01*
G37*
G36*
X43114633Y-105688517D02*
G01*
X43115197Y-105690436D01*
X43114916Y-105691075D01*
X43104767Y-105706263D01*
X43101000Y-105725199D01*
X43101000Y-107474801D01*
X43104767Y-107493738D01*
X43114814Y-107508773D01*
X43114945Y-107510768D01*
X43113282Y-107511880D01*
X43112553Y-107511793D01*
X43052212Y-107492898D01*
X42987310Y-107511955D01*
X42985367Y-107511483D01*
X42984803Y-107509564D01*
X42985084Y-107508925D01*
X42995233Y-107493737D01*
X42999000Y-107474801D01*
X42999000Y-105725199D01*
X42995233Y-105706262D01*
X42985186Y-105691227D01*
X42985055Y-105689232D01*
X42986718Y-105688120D01*
X42987447Y-105688207D01*
X43047788Y-105707102D01*
X43112690Y-105688045D01*
X43114633Y-105688517D01*
G37*
G36*
X56264633Y-105688517D02*
G01*
X56265197Y-105690436D01*
X56264916Y-105691075D01*
X56254767Y-105706263D01*
X56251000Y-105725199D01*
X56251000Y-107474801D01*
X56254767Y-107493738D01*
X56264814Y-107508773D01*
X56264945Y-107510768D01*
X56263282Y-107511880D01*
X56262553Y-107511793D01*
X56202212Y-107492898D01*
X56137310Y-107511955D01*
X56135367Y-107511483D01*
X56134803Y-107509564D01*
X56135084Y-107508925D01*
X56145233Y-107493737D01*
X56149000Y-107474801D01*
X56149000Y-105725199D01*
X56145233Y-105706262D01*
X56135186Y-105691227D01*
X56135055Y-105689232D01*
X56136718Y-105688120D01*
X56137447Y-105688207D01*
X56197788Y-105707102D01*
X56262690Y-105688045D01*
X56264633Y-105688517D01*
G37*
G36*
X54314633Y-105688517D02*
G01*
X54315197Y-105690436D01*
X54314916Y-105691075D01*
X54304767Y-105706263D01*
X54301000Y-105725199D01*
X54301000Y-107474801D01*
X54304767Y-107493738D01*
X54314814Y-107508773D01*
X54314945Y-107510768D01*
X54313282Y-107511880D01*
X54312553Y-107511793D01*
X54252212Y-107492898D01*
X54187310Y-107511955D01*
X54185367Y-107511483D01*
X54184803Y-107509564D01*
X54185084Y-107508925D01*
X54195233Y-107493737D01*
X54199000Y-107474801D01*
X54199000Y-105725199D01*
X54195233Y-105706262D01*
X54185186Y-105691227D01*
X54185055Y-105689232D01*
X54186718Y-105688120D01*
X54187447Y-105688207D01*
X54247788Y-105707102D01*
X54312690Y-105688045D01*
X54314633Y-105688517D01*
G37*
G36*
X57564633Y-105688517D02*
G01*
X57565197Y-105690436D01*
X57564916Y-105691075D01*
X57554767Y-105706263D01*
X57551000Y-105725199D01*
X57551000Y-107474801D01*
X57554767Y-107493738D01*
X57564814Y-107508773D01*
X57564945Y-107510768D01*
X57563282Y-107511880D01*
X57562553Y-107511793D01*
X57502212Y-107492898D01*
X57437310Y-107511955D01*
X57435367Y-107511483D01*
X57434803Y-107509564D01*
X57435084Y-107508925D01*
X57445233Y-107493737D01*
X57449000Y-107474801D01*
X57449000Y-105725199D01*
X57445233Y-105706262D01*
X57435186Y-105691227D01*
X57435055Y-105689232D01*
X57436718Y-105688120D01*
X57437447Y-105688207D01*
X57497788Y-105707102D01*
X57562690Y-105688045D01*
X57564633Y-105688517D01*
G37*
G36*
X44414633Y-105688517D02*
G01*
X44415197Y-105690436D01*
X44414916Y-105691075D01*
X44404767Y-105706263D01*
X44401000Y-105725199D01*
X44401000Y-107474801D01*
X44404767Y-107493738D01*
X44414814Y-107508773D01*
X44414945Y-107510768D01*
X44413282Y-107511880D01*
X44412553Y-107511793D01*
X44352212Y-107492898D01*
X44287310Y-107511955D01*
X44285367Y-107511483D01*
X44284803Y-107509564D01*
X44285084Y-107508925D01*
X44295233Y-107493737D01*
X44299000Y-107474801D01*
X44299000Y-105725199D01*
X44295233Y-105706262D01*
X44285186Y-105691227D01*
X44285055Y-105689232D01*
X44286718Y-105688120D01*
X44287447Y-105688207D01*
X44347788Y-105707102D01*
X44412690Y-105688045D01*
X44414633Y-105688517D01*
G37*
G36*
X50363114Y-98957281D02*
G01*
X50363678Y-98959200D01*
X50362845Y-98960391D01*
X50355380Y-98965380D01*
X50344767Y-98981262D01*
X50341000Y-99000199D01*
X50341000Y-99779801D01*
X50344767Y-99798738D01*
X50355380Y-99814620D01*
X50371262Y-99825233D01*
X50390199Y-99829000D01*
X50609801Y-99829000D01*
X50628738Y-99825233D01*
X50644620Y-99814620D01*
X50655233Y-99798738D01*
X50659000Y-99779801D01*
X50659000Y-99714002D01*
X50660000Y-99712270D01*
X50662000Y-99712270D01*
X50662919Y-99713439D01*
X50682596Y-99780454D01*
X50734999Y-99825860D01*
X50786419Y-99837046D01*
X50787899Y-99838391D01*
X50787474Y-99840345D01*
X50785994Y-99841000D01*
X50720199Y-99841000D01*
X50701262Y-99844767D01*
X50685380Y-99855380D01*
X50674767Y-99871262D01*
X50671000Y-99890199D01*
X50671000Y-100109801D01*
X50674767Y-100128738D01*
X50685380Y-100144620D01*
X50701262Y-100155233D01*
X50720199Y-100159000D01*
X51499801Y-100159000D01*
X51518738Y-100155233D01*
X51534620Y-100144620D01*
X51539326Y-100137578D01*
X51541120Y-100136693D01*
X51542783Y-100137805D01*
X51542898Y-100139287D01*
X51524580Y-100197789D01*
X51543191Y-100261171D01*
X51542719Y-100263114D01*
X51540800Y-100263678D01*
X51539609Y-100262845D01*
X51534620Y-100255380D01*
X51518738Y-100244767D01*
X51499801Y-100241000D01*
X50720199Y-100241000D01*
X50701262Y-100244767D01*
X50685380Y-100255380D01*
X50674767Y-100271262D01*
X50671000Y-100290199D01*
X50671000Y-100509801D01*
X50674767Y-100528738D01*
X50685380Y-100544620D01*
X50701262Y-100555233D01*
X50720199Y-100559000D01*
X51499801Y-100559000D01*
X51518738Y-100555233D01*
X51534620Y-100544620D01*
X51539326Y-100537578D01*
X51541120Y-100536693D01*
X51542783Y-100537805D01*
X51542898Y-100539287D01*
X51524580Y-100597789D01*
X51543191Y-100661171D01*
X51542719Y-100663114D01*
X51540800Y-100663678D01*
X51539609Y-100662845D01*
X51534620Y-100655380D01*
X51518738Y-100644767D01*
X51499801Y-100641000D01*
X50720199Y-100641000D01*
X50701262Y-100644767D01*
X50685380Y-100655380D01*
X50674767Y-100671262D01*
X50671000Y-100690199D01*
X50671000Y-100909801D01*
X50674767Y-100928738D01*
X50685380Y-100944620D01*
X50701262Y-100955233D01*
X50720199Y-100959000D01*
X51499801Y-100959000D01*
X51518738Y-100955233D01*
X51534620Y-100944620D01*
X51539326Y-100937578D01*
X51541120Y-100936693D01*
X51542783Y-100937805D01*
X51542898Y-100939287D01*
X51524580Y-100997789D01*
X51543191Y-101061171D01*
X51542719Y-101063114D01*
X51540800Y-101063678D01*
X51539609Y-101062845D01*
X51534620Y-101055380D01*
X51518738Y-101044767D01*
X51499801Y-101041000D01*
X50720199Y-101041000D01*
X50701262Y-101044767D01*
X50685380Y-101055380D01*
X50674767Y-101071262D01*
X50671000Y-101090199D01*
X50671000Y-101309801D01*
X50674767Y-101328738D01*
X50685380Y-101344620D01*
X50701262Y-101355233D01*
X50720199Y-101359000D01*
X50785998Y-101359000D01*
X50787730Y-101360000D01*
X50787730Y-101362000D01*
X50786561Y-101362919D01*
X50719546Y-101382596D01*
X50674140Y-101434999D01*
X50662954Y-101486419D01*
X50661609Y-101487899D01*
X50659655Y-101487474D01*
X50659000Y-101485994D01*
X50659000Y-101420199D01*
X50655233Y-101401262D01*
X50644620Y-101385380D01*
X50628738Y-101374767D01*
X50609801Y-101371000D01*
X50390199Y-101371000D01*
X50371262Y-101374767D01*
X50355380Y-101385380D01*
X50344767Y-101401262D01*
X50341000Y-101420199D01*
X50341000Y-102199801D01*
X50344767Y-102218738D01*
X50355380Y-102234620D01*
X50362422Y-102239326D01*
X50363307Y-102241120D01*
X50362195Y-102242783D01*
X50360713Y-102242898D01*
X50302211Y-102224580D01*
X50238829Y-102243191D01*
X50236886Y-102242719D01*
X50236322Y-102240800D01*
X50237155Y-102239609D01*
X50244620Y-102234620D01*
X50255233Y-102218738D01*
X50259000Y-102199801D01*
X50259000Y-101420199D01*
X50255233Y-101401262D01*
X50244620Y-101385380D01*
X50228738Y-101374767D01*
X50209801Y-101371000D01*
X49990199Y-101371000D01*
X49971262Y-101374767D01*
X49955380Y-101385380D01*
X49944767Y-101401262D01*
X49941000Y-101420199D01*
X49941000Y-102199801D01*
X49944767Y-102218738D01*
X49955380Y-102234620D01*
X49962422Y-102239326D01*
X49963307Y-102241120D01*
X49962195Y-102242783D01*
X49960713Y-102242898D01*
X49902211Y-102224580D01*
X49838829Y-102243191D01*
X49836886Y-102242719D01*
X49836322Y-102240800D01*
X49837155Y-102239609D01*
X49844620Y-102234620D01*
X49855233Y-102218738D01*
X49859000Y-102199801D01*
X49859000Y-101420199D01*
X49855233Y-101401262D01*
X49844620Y-101385380D01*
X49828738Y-101374767D01*
X49809801Y-101371000D01*
X49590199Y-101371000D01*
X49571262Y-101374767D01*
X49555380Y-101385380D01*
X49544767Y-101401262D01*
X49541000Y-101420199D01*
X49541000Y-102199801D01*
X49544767Y-102218738D01*
X49555380Y-102234620D01*
X49562422Y-102239326D01*
X49563307Y-102241120D01*
X49562195Y-102242783D01*
X49560713Y-102242898D01*
X49502211Y-102224580D01*
X49438829Y-102243191D01*
X49436886Y-102242719D01*
X49436322Y-102240800D01*
X49437155Y-102239609D01*
X49444620Y-102234620D01*
X49455233Y-102218738D01*
X49459000Y-102199801D01*
X49459000Y-101420199D01*
X49455233Y-101401262D01*
X49444620Y-101385380D01*
X49428738Y-101374767D01*
X49409801Y-101371000D01*
X49190199Y-101371000D01*
X49171262Y-101374767D01*
X49155380Y-101385380D01*
X49144767Y-101401262D01*
X49141000Y-101420199D01*
X49141000Y-101485998D01*
X49140000Y-101487730D01*
X49138000Y-101487730D01*
X49137081Y-101486561D01*
X49117404Y-101419546D01*
X49065001Y-101374140D01*
X49013581Y-101362954D01*
X49012101Y-101361609D01*
X49012526Y-101359655D01*
X49014006Y-101359000D01*
X49079801Y-101359000D01*
X49098738Y-101355233D01*
X49114620Y-101344620D01*
X49125233Y-101328738D01*
X49129000Y-101309801D01*
X49129000Y-101199801D01*
X49251000Y-101199801D01*
X49254767Y-101218738D01*
X49265380Y-101234620D01*
X49281262Y-101245233D01*
X49300199Y-101249000D01*
X50499801Y-101249000D01*
X50518738Y-101245233D01*
X50534620Y-101234620D01*
X50545233Y-101218738D01*
X50549000Y-101199801D01*
X50549000Y-100000199D01*
X50545233Y-99981262D01*
X50534620Y-99965380D01*
X50518738Y-99954767D01*
X50499801Y-99951000D01*
X49300199Y-99951000D01*
X49281262Y-99954767D01*
X49265380Y-99965380D01*
X49254767Y-99981262D01*
X49251000Y-100000199D01*
X49251000Y-101199801D01*
X49129000Y-101199801D01*
X49129000Y-101090199D01*
X49125233Y-101071262D01*
X49114620Y-101055380D01*
X49098738Y-101044767D01*
X49079801Y-101041000D01*
X48300199Y-101041000D01*
X48281262Y-101044767D01*
X48265380Y-101055380D01*
X48260674Y-101062422D01*
X48258880Y-101063307D01*
X48257217Y-101062195D01*
X48257102Y-101060713D01*
X48275420Y-101002211D01*
X48256809Y-100938829D01*
X48257281Y-100936886D01*
X48259200Y-100936322D01*
X48260391Y-100937155D01*
X48265380Y-100944620D01*
X48281262Y-100955233D01*
X48300199Y-100959000D01*
X49079801Y-100959000D01*
X49098738Y-100955233D01*
X49114620Y-100944620D01*
X49125233Y-100928738D01*
X49129000Y-100909801D01*
X49129000Y-100690199D01*
X49125233Y-100671262D01*
X49114620Y-100655380D01*
X49098738Y-100644767D01*
X49079801Y-100641000D01*
X48300199Y-100641000D01*
X48281262Y-100644767D01*
X48265380Y-100655380D01*
X48260674Y-100662422D01*
X48258880Y-100663307D01*
X48257217Y-100662195D01*
X48257102Y-100660713D01*
X48275420Y-100602211D01*
X48256809Y-100538829D01*
X48257281Y-100536886D01*
X48259200Y-100536322D01*
X48260391Y-100537155D01*
X48265380Y-100544620D01*
X48281262Y-100555233D01*
X48300199Y-100559000D01*
X49079801Y-100559000D01*
X49098738Y-100555233D01*
X49114620Y-100544620D01*
X49125233Y-100528738D01*
X49129000Y-100509801D01*
X49129000Y-100290199D01*
X49125233Y-100271262D01*
X49114620Y-100255380D01*
X49098738Y-100244767D01*
X49079801Y-100241000D01*
X48300199Y-100241000D01*
X48281262Y-100244767D01*
X48265380Y-100255380D01*
X48260674Y-100262422D01*
X48258880Y-100263307D01*
X48257217Y-100262195D01*
X48257102Y-100260713D01*
X48275420Y-100202211D01*
X48256809Y-100138829D01*
X48257281Y-100136886D01*
X48259200Y-100136322D01*
X48260391Y-100137155D01*
X48265380Y-100144620D01*
X48281262Y-100155233D01*
X48300199Y-100159000D01*
X49079801Y-100159000D01*
X49098738Y-100155233D01*
X49114620Y-100144620D01*
X49125233Y-100128738D01*
X49129000Y-100109801D01*
X49129000Y-99890199D01*
X49125233Y-99871262D01*
X49114620Y-99855380D01*
X49098738Y-99844767D01*
X49079801Y-99841000D01*
X49014002Y-99841000D01*
X49012270Y-99840000D01*
X49012270Y-99838000D01*
X49013439Y-99837081D01*
X49080454Y-99817404D01*
X49125860Y-99765001D01*
X49137046Y-99713581D01*
X49138391Y-99712101D01*
X49140345Y-99712526D01*
X49141000Y-99714006D01*
X49141000Y-99779801D01*
X49144767Y-99798738D01*
X49155380Y-99814620D01*
X49171262Y-99825233D01*
X49190199Y-99829000D01*
X49409801Y-99829000D01*
X49428738Y-99825233D01*
X49444620Y-99814620D01*
X49455233Y-99798738D01*
X49459000Y-99779801D01*
X49459000Y-99000199D01*
X49455233Y-98981262D01*
X49444620Y-98965380D01*
X49437578Y-98960674D01*
X49436693Y-98958880D01*
X49437805Y-98957217D01*
X49439287Y-98957102D01*
X49497789Y-98975420D01*
X49561171Y-98956809D01*
X49563114Y-98957281D01*
X49563678Y-98959200D01*
X49562845Y-98960391D01*
X49555380Y-98965380D01*
X49544767Y-98981262D01*
X49541000Y-99000199D01*
X49541000Y-99779801D01*
X49544767Y-99798738D01*
X49555380Y-99814620D01*
X49571262Y-99825233D01*
X49590199Y-99829000D01*
X49809801Y-99829000D01*
X49828738Y-99825233D01*
X49844620Y-99814620D01*
X49855233Y-99798738D01*
X49859000Y-99779801D01*
X49859000Y-99000199D01*
X49855233Y-98981262D01*
X49844620Y-98965380D01*
X49837578Y-98960674D01*
X49836693Y-98958880D01*
X49837805Y-98957217D01*
X49839287Y-98957102D01*
X49897789Y-98975420D01*
X49961171Y-98956809D01*
X49963114Y-98957281D01*
X49963678Y-98959200D01*
X49962845Y-98960391D01*
X49955380Y-98965380D01*
X49944767Y-98981262D01*
X49941000Y-99000199D01*
X49941000Y-99779801D01*
X49944767Y-99798738D01*
X49955380Y-99814620D01*
X49971262Y-99825233D01*
X49990199Y-99829000D01*
X50209801Y-99829000D01*
X50228738Y-99825233D01*
X50244620Y-99814620D01*
X50255233Y-99798738D01*
X50259000Y-99779801D01*
X50259000Y-99000199D01*
X50255233Y-98981262D01*
X50244620Y-98965380D01*
X50237578Y-98960674D01*
X50236693Y-98958880D01*
X50237805Y-98957217D01*
X50239287Y-98957102D01*
X50297789Y-98975420D01*
X50361171Y-98956809D01*
X50363114Y-98957281D01*
G37*
G36*
X40051386Y-94924818D02*
G01*
X40051710Y-94926355D01*
X40041000Y-94980199D01*
X40041000Y-95259801D01*
X40055424Y-95332314D01*
X40062744Y-95343269D01*
X40062875Y-95345265D01*
X40061212Y-95346376D01*
X40059580Y-95345702D01*
X40019412Y-95300082D01*
X39952808Y-95281098D01*
X39886513Y-95301137D01*
X39841481Y-95353948D01*
X39832928Y-95385062D01*
X39831505Y-95386467D01*
X39829577Y-95385937D01*
X39829000Y-95384532D01*
X39829000Y-95015199D01*
X39816863Y-94954179D01*
X39817506Y-94952285D01*
X39819468Y-94951895D01*
X39820350Y-94952495D01*
X39858731Y-94997731D01*
X39924977Y-95017933D01*
X39991628Y-94999112D01*
X40037851Y-94946746D01*
X40047935Y-94925120D01*
X40049574Y-94923973D01*
X40051386Y-94924818D01*
G37*
G36*
X40643182Y-94595423D02*
G01*
X40643572Y-94597385D01*
X40643000Y-94598243D01*
X40601969Y-94634371D01*
X40582985Y-94700975D01*
X40603026Y-94767278D01*
X40642750Y-94801698D01*
X40643404Y-94803588D01*
X40642094Y-94805100D01*
X40641050Y-94805172D01*
X40569801Y-94791000D01*
X40230199Y-94791000D01*
X40158712Y-94805220D01*
X40156818Y-94804577D01*
X40156428Y-94802615D01*
X40157000Y-94801757D01*
X40198031Y-94765629D01*
X40217015Y-94699025D01*
X40196974Y-94632722D01*
X40157250Y-94598302D01*
X40156596Y-94596412D01*
X40157906Y-94594900D01*
X40158950Y-94594828D01*
X40230199Y-94609000D01*
X40569801Y-94609000D01*
X40641288Y-94594780D01*
X40643182Y-94595423D01*
G37*
G36*
X39832406Y-94012034D02*
G01*
X39858826Y-94074084D01*
X39916101Y-94113023D01*
X39985335Y-94114814D01*
X40044670Y-94078816D01*
X40051247Y-94068952D01*
X40053040Y-94068066D01*
X40054704Y-94069176D01*
X40054873Y-94070452D01*
X40041000Y-94140199D01*
X40041000Y-94419801D01*
X40051710Y-94473646D01*
X40051067Y-94475540D01*
X40049105Y-94475930D01*
X40047935Y-94474881D01*
X40037847Y-94453246D01*
X39991880Y-94401040D01*
X39925276Y-94382056D01*
X39858982Y-94402094D01*
X39820327Y-94447620D01*
X39818443Y-94448294D01*
X39816919Y-94446999D01*
X39816840Y-94445936D01*
X39829000Y-94384801D01*
X39829000Y-94015199D01*
X39828604Y-94013207D01*
X39829247Y-94011313D01*
X39831209Y-94010923D01*
X39832406Y-94012034D01*
G37*
G36*
X28071929Y-32919763D02*
G01*
X28071798Y-32921151D01*
X28044201Y-32978273D01*
X28052570Y-33047021D01*
X28096782Y-33100335D01*
X28162931Y-33121325D01*
X28182157Y-33118843D01*
X28184003Y-33119614D01*
X28184259Y-33121597D01*
X28183321Y-33122609D01*
X28094876Y-33167674D01*
X28032807Y-33229743D01*
X28030875Y-33230261D01*
X28029461Y-33228847D01*
X28029582Y-33227481D01*
X28056371Y-33170258D01*
X28047163Y-33101615D01*
X28002305Y-33048848D01*
X27935888Y-33028663D01*
X27918277Y-33030936D01*
X27916431Y-33030165D01*
X27916175Y-33028182D01*
X27917113Y-33027170D01*
X28005124Y-32982326D01*
X28068583Y-32918867D01*
X28070515Y-32918349D01*
X28071929Y-32919763D01*
G37*
G36*
X27538117Y-32925567D02*
G01*
X27594876Y-32982326D01*
X27688500Y-33030030D01*
X27689589Y-33031707D01*
X27688681Y-33033489D01*
X27687558Y-33033812D01*
X27632071Y-33032857D01*
X27573173Y-33069292D01*
X27543322Y-33131788D01*
X27552015Y-33200644D01*
X27566125Y-33223090D01*
X27566200Y-33225088D01*
X27564507Y-33226153D01*
X27563018Y-33225568D01*
X27505124Y-33167674D01*
X27412218Y-33120336D01*
X27411129Y-33118659D01*
X27412037Y-33116877D01*
X27413136Y-33116554D01*
X27469598Y-33116836D01*
X27528049Y-33079684D01*
X27557134Y-33016830D01*
X27547599Y-32948071D01*
X27535010Y-32928045D01*
X27534935Y-32926047D01*
X27536628Y-32924982D01*
X27538117Y-32925567D01*
G37*
G36*
X27571929Y-32169763D02*
G01*
X27571798Y-32171151D01*
X27544201Y-32228273D01*
X27552570Y-32297021D01*
X27596782Y-32350335D01*
X27662931Y-32371325D01*
X27682157Y-32368843D01*
X27684003Y-32369614D01*
X27684259Y-32371597D01*
X27683321Y-32372609D01*
X27594876Y-32417674D01*
X27532807Y-32479743D01*
X27530875Y-32480261D01*
X27529461Y-32478847D01*
X27529582Y-32477481D01*
X27556371Y-32420258D01*
X27547163Y-32351615D01*
X27502305Y-32298848D01*
X27435888Y-32278663D01*
X27418277Y-32280936D01*
X27416431Y-32280165D01*
X27416175Y-32278182D01*
X27417113Y-32277170D01*
X27505124Y-32232326D01*
X27568583Y-32168867D01*
X27570515Y-32168349D01*
X27571929Y-32169763D01*
G37*
G36*
X28038117Y-32175567D02*
G01*
X28094876Y-32232326D01*
X28188500Y-32280030D01*
X28189589Y-32281707D01*
X28188681Y-32283489D01*
X28187558Y-32283812D01*
X28132071Y-32282857D01*
X28073173Y-32319292D01*
X28043322Y-32381788D01*
X28052015Y-32450644D01*
X28066125Y-32473090D01*
X28066200Y-32475088D01*
X28064507Y-32476153D01*
X28063018Y-32475568D01*
X28005124Y-32417674D01*
X27912218Y-32370336D01*
X27911129Y-32368659D01*
X27912037Y-32366877D01*
X27913136Y-32366554D01*
X27969598Y-32366836D01*
X28028049Y-32329684D01*
X28057134Y-32266830D01*
X28047599Y-32198071D01*
X28035010Y-32178045D01*
X28034935Y-32176047D01*
X28036628Y-32174982D01*
X28038117Y-32175567D01*
G37*
G36*
X75563114Y-27957281D02*
G01*
X75563678Y-27959200D01*
X75562845Y-27960391D01*
X75555380Y-27965380D01*
X75544767Y-27981262D01*
X75541000Y-28000199D01*
X75541000Y-28779801D01*
X75544767Y-28798738D01*
X75555380Y-28814620D01*
X75571262Y-28825233D01*
X75590199Y-28829000D01*
X75809801Y-28829000D01*
X75828738Y-28825233D01*
X75844620Y-28814620D01*
X75855233Y-28798738D01*
X75859000Y-28779801D01*
X75859000Y-28714002D01*
X75860000Y-28712270D01*
X75862000Y-28712270D01*
X75862919Y-28713439D01*
X75882596Y-28780454D01*
X75934999Y-28825860D01*
X75986419Y-28837046D01*
X75987899Y-28838391D01*
X75987474Y-28840345D01*
X75985994Y-28841000D01*
X75920199Y-28841000D01*
X75901262Y-28844767D01*
X75885380Y-28855380D01*
X75874767Y-28871262D01*
X75871000Y-28890199D01*
X75871000Y-29109801D01*
X75874767Y-29128738D01*
X75885380Y-29144620D01*
X75901262Y-29155233D01*
X75920199Y-29159000D01*
X76699801Y-29159000D01*
X76718738Y-29155233D01*
X76734620Y-29144620D01*
X76739326Y-29137578D01*
X76741120Y-29136693D01*
X76742783Y-29137805D01*
X76742898Y-29139287D01*
X76724580Y-29197789D01*
X76743191Y-29261171D01*
X76742719Y-29263114D01*
X76740800Y-29263678D01*
X76739609Y-29262845D01*
X76734620Y-29255380D01*
X76718738Y-29244767D01*
X76699801Y-29241000D01*
X75920199Y-29241000D01*
X75901262Y-29244767D01*
X75885380Y-29255380D01*
X75874767Y-29271262D01*
X75871000Y-29290199D01*
X75871000Y-29509801D01*
X75874767Y-29528738D01*
X75885380Y-29544620D01*
X75901262Y-29555233D01*
X75920199Y-29559000D01*
X76699801Y-29559000D01*
X76718738Y-29555233D01*
X76734620Y-29544620D01*
X76739326Y-29537578D01*
X76741120Y-29536693D01*
X76742783Y-29537805D01*
X76742898Y-29539287D01*
X76724580Y-29597789D01*
X76743191Y-29661171D01*
X76742719Y-29663114D01*
X76740800Y-29663678D01*
X76739609Y-29662845D01*
X76734620Y-29655380D01*
X76718738Y-29644767D01*
X76699801Y-29641000D01*
X75920199Y-29641000D01*
X75901262Y-29644767D01*
X75885380Y-29655380D01*
X75874767Y-29671262D01*
X75871000Y-29690199D01*
X75871000Y-29909801D01*
X75874767Y-29928738D01*
X75885380Y-29944620D01*
X75901262Y-29955233D01*
X75920199Y-29959000D01*
X76699801Y-29959000D01*
X76718738Y-29955233D01*
X76734620Y-29944620D01*
X76739326Y-29937578D01*
X76741120Y-29936693D01*
X76742783Y-29937805D01*
X76742898Y-29939287D01*
X76724580Y-29997789D01*
X76743191Y-30061171D01*
X76742719Y-30063114D01*
X76740800Y-30063678D01*
X76739609Y-30062845D01*
X76734620Y-30055380D01*
X76718738Y-30044767D01*
X76699801Y-30041000D01*
X75920199Y-30041000D01*
X75901262Y-30044767D01*
X75885380Y-30055380D01*
X75874767Y-30071262D01*
X75871000Y-30090199D01*
X75871000Y-30309801D01*
X75874767Y-30328738D01*
X75885380Y-30344620D01*
X75901262Y-30355233D01*
X75920199Y-30359000D01*
X75985998Y-30359000D01*
X75987730Y-30360000D01*
X75987730Y-30362000D01*
X75986561Y-30362919D01*
X75919546Y-30382596D01*
X75874140Y-30434999D01*
X75862954Y-30486419D01*
X75861609Y-30487899D01*
X75859655Y-30487474D01*
X75859000Y-30485994D01*
X75859000Y-30420199D01*
X75855233Y-30401262D01*
X75844620Y-30385380D01*
X75828738Y-30374767D01*
X75809801Y-30371000D01*
X75590199Y-30371000D01*
X75571262Y-30374767D01*
X75555380Y-30385380D01*
X75544767Y-30401262D01*
X75541000Y-30420199D01*
X75541000Y-31199801D01*
X75544767Y-31218738D01*
X75555380Y-31234620D01*
X75562422Y-31239326D01*
X75563307Y-31241120D01*
X75562195Y-31242783D01*
X75560713Y-31242898D01*
X75502211Y-31224580D01*
X75438829Y-31243191D01*
X75436886Y-31242719D01*
X75436322Y-31240800D01*
X75437155Y-31239609D01*
X75444620Y-31234620D01*
X75455233Y-31218738D01*
X75459000Y-31199801D01*
X75459000Y-30420199D01*
X75455233Y-30401262D01*
X75444620Y-30385380D01*
X75428738Y-30374767D01*
X75409801Y-30371000D01*
X75190199Y-30371000D01*
X75171262Y-30374767D01*
X75155380Y-30385380D01*
X75144767Y-30401262D01*
X75141000Y-30420199D01*
X75141000Y-31199801D01*
X75144767Y-31218738D01*
X75155380Y-31234620D01*
X75162422Y-31239326D01*
X75163307Y-31241120D01*
X75162195Y-31242783D01*
X75160713Y-31242898D01*
X75102211Y-31224580D01*
X75038829Y-31243191D01*
X75036886Y-31242719D01*
X75036322Y-31240800D01*
X75037155Y-31239609D01*
X75044620Y-31234620D01*
X75055233Y-31218738D01*
X75059000Y-31199801D01*
X75059000Y-30420199D01*
X75055233Y-30401262D01*
X75044620Y-30385380D01*
X75028738Y-30374767D01*
X75009801Y-30371000D01*
X74790199Y-30371000D01*
X74771262Y-30374767D01*
X74755380Y-30385380D01*
X74744767Y-30401262D01*
X74741000Y-30420199D01*
X74741000Y-31199801D01*
X74744767Y-31218738D01*
X74755380Y-31234620D01*
X74762422Y-31239326D01*
X74763307Y-31241120D01*
X74762195Y-31242783D01*
X74760713Y-31242898D01*
X74702211Y-31224580D01*
X74638829Y-31243191D01*
X74636886Y-31242719D01*
X74636322Y-31240800D01*
X74637155Y-31239609D01*
X74644620Y-31234620D01*
X74655233Y-31218738D01*
X74659000Y-31199801D01*
X74659000Y-30420199D01*
X74655233Y-30401262D01*
X74644620Y-30385380D01*
X74628738Y-30374767D01*
X74609801Y-30371000D01*
X74390199Y-30371000D01*
X74371262Y-30374767D01*
X74355380Y-30385380D01*
X74344767Y-30401262D01*
X74341000Y-30420199D01*
X74341000Y-30485998D01*
X74340000Y-30487730D01*
X74338000Y-30487730D01*
X74337081Y-30486561D01*
X74317404Y-30419546D01*
X74265001Y-30374140D01*
X74213581Y-30362954D01*
X74212101Y-30361609D01*
X74212526Y-30359655D01*
X74214006Y-30359000D01*
X74279801Y-30359000D01*
X74298738Y-30355233D01*
X74314620Y-30344620D01*
X74325233Y-30328738D01*
X74329000Y-30309801D01*
X74329000Y-30199801D01*
X74451000Y-30199801D01*
X74454767Y-30218738D01*
X74465380Y-30234620D01*
X74481262Y-30245233D01*
X74500199Y-30249000D01*
X75699801Y-30249000D01*
X75718738Y-30245233D01*
X75734620Y-30234620D01*
X75745233Y-30218738D01*
X75749000Y-30199801D01*
X75749000Y-29000199D01*
X75745233Y-28981262D01*
X75734620Y-28965380D01*
X75718738Y-28954767D01*
X75699801Y-28951000D01*
X74500199Y-28951000D01*
X74481262Y-28954767D01*
X74465380Y-28965380D01*
X74454767Y-28981262D01*
X74451000Y-29000199D01*
X74451000Y-30199801D01*
X74329000Y-30199801D01*
X74329000Y-30090199D01*
X74325233Y-30071262D01*
X74314620Y-30055380D01*
X74298738Y-30044767D01*
X74279801Y-30041000D01*
X73500199Y-30041000D01*
X73481262Y-30044767D01*
X73465380Y-30055380D01*
X73460674Y-30062422D01*
X73458880Y-30063307D01*
X73457217Y-30062195D01*
X73457102Y-30060713D01*
X73475420Y-30002211D01*
X73456809Y-29938829D01*
X73457281Y-29936886D01*
X73459200Y-29936322D01*
X73460391Y-29937155D01*
X73465380Y-29944620D01*
X73481262Y-29955233D01*
X73500199Y-29959000D01*
X74279801Y-29959000D01*
X74298738Y-29955233D01*
X74314620Y-29944620D01*
X74325233Y-29928738D01*
X74329000Y-29909801D01*
X74329000Y-29690199D01*
X74325233Y-29671262D01*
X74314620Y-29655380D01*
X74298738Y-29644767D01*
X74279801Y-29641000D01*
X73500199Y-29641000D01*
X73481262Y-29644767D01*
X73465380Y-29655380D01*
X73460674Y-29662422D01*
X73458880Y-29663307D01*
X73457217Y-29662195D01*
X73457102Y-29660713D01*
X73475420Y-29602211D01*
X73456809Y-29538829D01*
X73457281Y-29536886D01*
X73459200Y-29536322D01*
X73460391Y-29537155D01*
X73465380Y-29544620D01*
X73481262Y-29555233D01*
X73500199Y-29559000D01*
X74279801Y-29559000D01*
X74298738Y-29555233D01*
X74314620Y-29544620D01*
X74325233Y-29528738D01*
X74329000Y-29509801D01*
X74329000Y-29290199D01*
X74325233Y-29271262D01*
X74314620Y-29255380D01*
X74298738Y-29244767D01*
X74279801Y-29241000D01*
X73500199Y-29241000D01*
X73481262Y-29244767D01*
X73465380Y-29255380D01*
X73460674Y-29262422D01*
X73458880Y-29263307D01*
X73457217Y-29262195D01*
X73457102Y-29260713D01*
X73475420Y-29202211D01*
X73456809Y-29138829D01*
X73457281Y-29136886D01*
X73459200Y-29136322D01*
X73460391Y-29137155D01*
X73465380Y-29144620D01*
X73481262Y-29155233D01*
X73500199Y-29159000D01*
X74279801Y-29159000D01*
X74298738Y-29155233D01*
X74314620Y-29144620D01*
X74325233Y-29128738D01*
X74329000Y-29109801D01*
X74329000Y-28890199D01*
X74325233Y-28871262D01*
X74314620Y-28855380D01*
X74298738Y-28844767D01*
X74279801Y-28841000D01*
X74214002Y-28841000D01*
X74212270Y-28840000D01*
X74212270Y-28838000D01*
X74213439Y-28837081D01*
X74280454Y-28817404D01*
X74325860Y-28765001D01*
X74337046Y-28713581D01*
X74338391Y-28712101D01*
X74340345Y-28712526D01*
X74341000Y-28714006D01*
X74341000Y-28779801D01*
X74344767Y-28798738D01*
X74355380Y-28814620D01*
X74371262Y-28825233D01*
X74390199Y-28829000D01*
X74609801Y-28829000D01*
X74628738Y-28825233D01*
X74644620Y-28814620D01*
X74655233Y-28798738D01*
X74659000Y-28779801D01*
X74659000Y-28000199D01*
X74655233Y-27981262D01*
X74644620Y-27965380D01*
X74637578Y-27960674D01*
X74636693Y-27958880D01*
X74637805Y-27957217D01*
X74639287Y-27957102D01*
X74697789Y-27975420D01*
X74761171Y-27956809D01*
X74763114Y-27957281D01*
X74763678Y-27959200D01*
X74762845Y-27960391D01*
X74755380Y-27965380D01*
X74744767Y-27981262D01*
X74741000Y-28000199D01*
X74741000Y-28779801D01*
X74744767Y-28798738D01*
X74755380Y-28814620D01*
X74771262Y-28825233D01*
X74790199Y-28829000D01*
X75009801Y-28829000D01*
X75028738Y-28825233D01*
X75044620Y-28814620D01*
X75055233Y-28798738D01*
X75059000Y-28779801D01*
X75059000Y-28000199D01*
X75055233Y-27981262D01*
X75044620Y-27965380D01*
X75037578Y-27960674D01*
X75036693Y-27958880D01*
X75037805Y-27957217D01*
X75039287Y-27957102D01*
X75097789Y-27975420D01*
X75161171Y-27956809D01*
X75163114Y-27957281D01*
X75163678Y-27959200D01*
X75162845Y-27960391D01*
X75155380Y-27965380D01*
X75144767Y-27981262D01*
X75141000Y-28000199D01*
X75141000Y-28779801D01*
X75144767Y-28798738D01*
X75155380Y-28814620D01*
X75171262Y-28825233D01*
X75190199Y-28829000D01*
X75409801Y-28829000D01*
X75428738Y-28825233D01*
X75444620Y-28814620D01*
X75455233Y-28798738D01*
X75459000Y-28779801D01*
X75459000Y-28000199D01*
X75455233Y-27981262D01*
X75444620Y-27965380D01*
X75437578Y-27960674D01*
X75436693Y-27958880D01*
X75437805Y-27957217D01*
X75439287Y-27957102D01*
X75497789Y-27975420D01*
X75561171Y-27956809D01*
X75563114Y-27957281D01*
G37*
M02*
