G04 #@! TF.GenerationSoftware,KiCad,Pcbnew,(5.1.4)-1*
G04 #@! TF.CreationDate,2020-08-09T13:17:19-04:00*
G04 #@! TF.ProjectId,uBMS-2,75424d53-2d32-42e6-9b69-6361645f7063,rev?*
G04 #@! TF.SameCoordinates,Original*
G04 #@! TF.FileFunction,Legend,Top*
G04 #@! TF.FilePolarity,Positive*
%FSLAX46Y46*%
G04 Gerber Fmt 4.6, Leading zero omitted, Abs format (unit mm)*
G04 Created by KiCad (PCBNEW (5.1.4)-1) date 2020-08-09 13:17:19*
%MOMM*%
%LPD*%
G04 APERTURE LIST*
%ADD10C,0.150000*%
%ADD11C,0.120000*%
%ADD12C,0.010000*%
%ADD13C,0.152400*%
G04 APERTURE END LIST*
D10*
X52583333Y-57154761D02*
X52726190Y-57202380D01*
X52964285Y-57202380D01*
X53059523Y-57154761D01*
X53107142Y-57107142D01*
X53154761Y-57011904D01*
X53154761Y-56916666D01*
X53107142Y-56821428D01*
X53059523Y-56773809D01*
X52964285Y-56726190D01*
X52773809Y-56678571D01*
X52678571Y-56630952D01*
X52630952Y-56583333D01*
X52583333Y-56488095D01*
X52583333Y-56392857D01*
X52630952Y-56297619D01*
X52678571Y-56250000D01*
X52773809Y-56202380D01*
X53011904Y-56202380D01*
X53154761Y-56250000D01*
X53440476Y-56535714D02*
X53821428Y-56535714D01*
X53583333Y-56202380D02*
X53583333Y-57059523D01*
X53630952Y-57154761D01*
X53726190Y-57202380D01*
X53821428Y-57202380D01*
X54583333Y-57202380D02*
X54583333Y-56678571D01*
X54535714Y-56583333D01*
X54440476Y-56535714D01*
X54250000Y-56535714D01*
X54154761Y-56583333D01*
X54583333Y-57154761D02*
X54488095Y-57202380D01*
X54250000Y-57202380D01*
X54154761Y-57154761D01*
X54107142Y-57059523D01*
X54107142Y-56964285D01*
X54154761Y-56869047D01*
X54250000Y-56821428D01*
X54488095Y-56821428D01*
X54583333Y-56773809D01*
X54916666Y-56535714D02*
X55297619Y-56535714D01*
X55059523Y-56202380D02*
X55059523Y-57059523D01*
X55107142Y-57154761D01*
X55202380Y-57202380D01*
X55297619Y-57202380D01*
X56059523Y-56535714D02*
X56059523Y-57202380D01*
X55630952Y-56535714D02*
X55630952Y-57059523D01*
X55678571Y-57154761D01*
X55773809Y-57202380D01*
X55916666Y-57202380D01*
X56011904Y-57154761D01*
X56059523Y-57107142D01*
X56488095Y-57154761D02*
X56583333Y-57202380D01*
X56773809Y-57202380D01*
X56869047Y-57154761D01*
X56916666Y-57059523D01*
X56916666Y-57011904D01*
X56869047Y-56916666D01*
X56773809Y-56869047D01*
X56630952Y-56869047D01*
X56535714Y-56821428D01*
X56488095Y-56726190D01*
X56488095Y-56678571D01*
X56535714Y-56583333D01*
X56630952Y-56535714D01*
X56773809Y-56535714D01*
X56869047Y-56583333D01*
X30178571Y-75904761D02*
X30226190Y-75761904D01*
X30273809Y-75714285D01*
X30369047Y-75666666D01*
X30511904Y-75666666D01*
X30607142Y-75714285D01*
X30654761Y-75761904D01*
X30702380Y-75857142D01*
X30702380Y-76238095D01*
X29702380Y-76238095D01*
X29702380Y-75904761D01*
X29750000Y-75809523D01*
X29797619Y-75761904D01*
X29892857Y-75714285D01*
X29988095Y-75714285D01*
X30083333Y-75761904D01*
X30130952Y-75809523D01*
X30178571Y-75904761D01*
X30178571Y-76238095D01*
X30702380Y-74809523D02*
X30178571Y-74809523D01*
X30083333Y-74857142D01*
X30035714Y-74952380D01*
X30035714Y-75142857D01*
X30083333Y-75238095D01*
X30654761Y-74809523D02*
X30702380Y-74904761D01*
X30702380Y-75142857D01*
X30654761Y-75238095D01*
X30559523Y-75285714D01*
X30464285Y-75285714D01*
X30369047Y-75238095D01*
X30321428Y-75142857D01*
X30321428Y-74904761D01*
X30273809Y-74809523D01*
X30702380Y-74190476D02*
X30654761Y-74285714D01*
X30559523Y-74333333D01*
X29702380Y-74333333D01*
X30702380Y-73380952D02*
X30178571Y-73380952D01*
X30083333Y-73428571D01*
X30035714Y-73523809D01*
X30035714Y-73714285D01*
X30083333Y-73809523D01*
X30654761Y-73380952D02*
X30702380Y-73476190D01*
X30702380Y-73714285D01*
X30654761Y-73809523D01*
X30559523Y-73857142D01*
X30464285Y-73857142D01*
X30369047Y-73809523D01*
X30321428Y-73714285D01*
X30321428Y-73476190D01*
X30273809Y-73380952D01*
X30035714Y-72904761D02*
X30702380Y-72904761D01*
X30130952Y-72904761D02*
X30083333Y-72857142D01*
X30035714Y-72761904D01*
X30035714Y-72619047D01*
X30083333Y-72523809D01*
X30178571Y-72476190D01*
X30702380Y-72476190D01*
X30654761Y-71571428D02*
X30702380Y-71666666D01*
X30702380Y-71857142D01*
X30654761Y-71952380D01*
X30607142Y-72000000D01*
X30511904Y-72047619D01*
X30226190Y-72047619D01*
X30130952Y-72000000D01*
X30083333Y-71952380D01*
X30035714Y-71857142D01*
X30035714Y-71666666D01*
X30083333Y-71571428D01*
X30654761Y-70761904D02*
X30702380Y-70857142D01*
X30702380Y-71047619D01*
X30654761Y-71142857D01*
X30559523Y-71190476D01*
X30178571Y-71190476D01*
X30083333Y-71142857D01*
X30035714Y-71047619D01*
X30035714Y-70857142D01*
X30083333Y-70761904D01*
X30178571Y-70714285D01*
X30273809Y-70714285D01*
X30369047Y-71190476D01*
X29988095Y-91500000D02*
X29892857Y-91452380D01*
X29750000Y-91452380D01*
X29607142Y-91500000D01*
X29511904Y-91595238D01*
X29464285Y-91690476D01*
X29416666Y-91880952D01*
X29416666Y-92023809D01*
X29464285Y-92214285D01*
X29511904Y-92309523D01*
X29607142Y-92404761D01*
X29750000Y-92452380D01*
X29845238Y-92452380D01*
X29988095Y-92404761D01*
X30035714Y-92357142D01*
X30035714Y-92023809D01*
X29845238Y-92023809D01*
X30464285Y-92452380D02*
X30464285Y-91452380D01*
X31035714Y-92452380D01*
X31035714Y-91452380D01*
X31511904Y-92452380D02*
X31511904Y-91452380D01*
X31750000Y-91452380D01*
X31892857Y-91500000D01*
X31988095Y-91595238D01*
X32035714Y-91690476D01*
X32083333Y-91880952D01*
X32083333Y-92023809D01*
X32035714Y-92214285D01*
X31988095Y-92309523D01*
X31892857Y-92404761D01*
X31750000Y-92452380D01*
X31511904Y-92452380D01*
X20452380Y-91452380D02*
X21071428Y-91452380D01*
X20738095Y-91833333D01*
X20880952Y-91833333D01*
X20976190Y-91880952D01*
X21023809Y-91928571D01*
X21071428Y-92023809D01*
X21071428Y-92261904D01*
X21023809Y-92357142D01*
X20976190Y-92404761D01*
X20880952Y-92452380D01*
X20595238Y-92452380D01*
X20500000Y-92404761D01*
X20452380Y-92357142D01*
X21500000Y-92357142D02*
X21547619Y-92404761D01*
X21500000Y-92452380D01*
X21452380Y-92404761D01*
X21500000Y-92357142D01*
X21500000Y-92452380D01*
X21880952Y-91452380D02*
X22500000Y-91452380D01*
X22166666Y-91833333D01*
X22309523Y-91833333D01*
X22404761Y-91880952D01*
X22452380Y-91928571D01*
X22500000Y-92023809D01*
X22500000Y-92261904D01*
X22452380Y-92357142D01*
X22404761Y-92404761D01*
X22309523Y-92452380D01*
X22023809Y-92452380D01*
X21928571Y-92404761D01*
X21880952Y-92357142D01*
X30488095Y-108500000D02*
X30392857Y-108452380D01*
X30250000Y-108452380D01*
X30107142Y-108500000D01*
X30011904Y-108595238D01*
X29964285Y-108690476D01*
X29916666Y-108880952D01*
X29916666Y-109023809D01*
X29964285Y-109214285D01*
X30011904Y-109309523D01*
X30107142Y-109404761D01*
X30250000Y-109452380D01*
X30345238Y-109452380D01*
X30488095Y-109404761D01*
X30535714Y-109357142D01*
X30535714Y-109023809D01*
X30345238Y-109023809D01*
X30964285Y-109452380D02*
X30964285Y-108452380D01*
X31535714Y-109452380D01*
X31535714Y-108452380D01*
X32011904Y-109452380D02*
X32011904Y-108452380D01*
X32250000Y-108452380D01*
X32392857Y-108500000D01*
X32488095Y-108595238D01*
X32535714Y-108690476D01*
X32583333Y-108880952D01*
X32583333Y-109023809D01*
X32535714Y-109214285D01*
X32488095Y-109309523D01*
X32392857Y-109404761D01*
X32250000Y-109452380D01*
X32011904Y-109452380D01*
X73369047Y-101071428D02*
X74130952Y-101071428D01*
X73750000Y-101452380D02*
X73750000Y-100690476D01*
X62095238Y-99452380D02*
X62666666Y-99452380D01*
X62380952Y-100452380D02*
X62380952Y-99452380D01*
X63380952Y-100404761D02*
X63285714Y-100452380D01*
X63095238Y-100452380D01*
X63000000Y-100404761D01*
X62952380Y-100309523D01*
X62952380Y-99928571D01*
X63000000Y-99833333D01*
X63095238Y-99785714D01*
X63285714Y-99785714D01*
X63380952Y-99833333D01*
X63428571Y-99928571D01*
X63428571Y-100023809D01*
X62952380Y-100119047D01*
X63857142Y-100452380D02*
X63857142Y-99785714D01*
X63857142Y-99880952D02*
X63904761Y-99833333D01*
X64000000Y-99785714D01*
X64142857Y-99785714D01*
X64238095Y-99833333D01*
X64285714Y-99928571D01*
X64285714Y-100452380D01*
X64285714Y-99928571D02*
X64333333Y-99833333D01*
X64428571Y-99785714D01*
X64571428Y-99785714D01*
X64666666Y-99833333D01*
X64714285Y-99928571D01*
X64714285Y-100452380D01*
X65190476Y-99785714D02*
X65190476Y-100785714D01*
X65190476Y-99833333D02*
X65285714Y-99785714D01*
X65476190Y-99785714D01*
X65571428Y-99833333D01*
X65619047Y-99880952D01*
X65666666Y-99976190D01*
X65666666Y-100261904D01*
X65619047Y-100357142D01*
X65571428Y-100404761D01*
X65476190Y-100452380D01*
X65285714Y-100452380D01*
X65190476Y-100404761D01*
X66809523Y-100404761D02*
X66952380Y-100452380D01*
X67190476Y-100452380D01*
X67285714Y-100404761D01*
X67333333Y-100357142D01*
X67380952Y-100261904D01*
X67380952Y-100166666D01*
X67333333Y-100071428D01*
X67285714Y-100023809D01*
X67190476Y-99976190D01*
X67000000Y-99928571D01*
X66904761Y-99880952D01*
X66857142Y-99833333D01*
X66809523Y-99738095D01*
X66809523Y-99642857D01*
X66857142Y-99547619D01*
X66904761Y-99500000D01*
X67000000Y-99452380D01*
X67238095Y-99452380D01*
X67380952Y-99500000D01*
X68190476Y-100404761D02*
X68095238Y-100452380D01*
X67904761Y-100452380D01*
X67809523Y-100404761D01*
X67761904Y-100309523D01*
X67761904Y-99928571D01*
X67809523Y-99833333D01*
X67904761Y-99785714D01*
X68095238Y-99785714D01*
X68190476Y-99833333D01*
X68238095Y-99928571D01*
X68238095Y-100023809D01*
X67761904Y-100119047D01*
X68666666Y-99785714D02*
X68666666Y-100452380D01*
X68666666Y-99880952D02*
X68714285Y-99833333D01*
X68809523Y-99785714D01*
X68952380Y-99785714D01*
X69047619Y-99833333D01*
X69095238Y-99928571D01*
X69095238Y-100452380D01*
X69523809Y-100404761D02*
X69619047Y-100452380D01*
X69809523Y-100452380D01*
X69904761Y-100404761D01*
X69952380Y-100309523D01*
X69952380Y-100261904D01*
X69904761Y-100166666D01*
X69809523Y-100119047D01*
X69666666Y-100119047D01*
X69571428Y-100071428D01*
X69523809Y-99976190D01*
X69523809Y-99928571D01*
X69571428Y-99833333D01*
X69666666Y-99785714D01*
X69809523Y-99785714D01*
X69904761Y-99833333D01*
X70761904Y-100404761D02*
X70666666Y-100452380D01*
X70476190Y-100452380D01*
X70380952Y-100404761D01*
X70333333Y-100309523D01*
X70333333Y-99928571D01*
X70380952Y-99833333D01*
X70476190Y-99785714D01*
X70666666Y-99785714D01*
X70761904Y-99833333D01*
X70809523Y-99928571D01*
X70809523Y-100023809D01*
X70333333Y-100119047D01*
X36511904Y-99452380D02*
X36845238Y-100452380D01*
X37178571Y-99452380D01*
X37654761Y-100452380D02*
X37559523Y-100404761D01*
X37511904Y-100357142D01*
X37464285Y-100261904D01*
X37464285Y-99976190D01*
X37511904Y-99880952D01*
X37559523Y-99833333D01*
X37654761Y-99785714D01*
X37797619Y-99785714D01*
X37892857Y-99833333D01*
X37940476Y-99880952D01*
X37988095Y-99976190D01*
X37988095Y-100261904D01*
X37940476Y-100357142D01*
X37892857Y-100404761D01*
X37797619Y-100452380D01*
X37654761Y-100452380D01*
X38559523Y-100452380D02*
X38464285Y-100404761D01*
X38416666Y-100309523D01*
X38416666Y-99452380D01*
X38797619Y-99785714D02*
X39178571Y-99785714D01*
X38940476Y-99452380D02*
X38940476Y-100309523D01*
X38988095Y-100404761D01*
X39083333Y-100452380D01*
X39178571Y-100452380D01*
X39940476Y-100452380D02*
X39940476Y-99928571D01*
X39892857Y-99833333D01*
X39797619Y-99785714D01*
X39607142Y-99785714D01*
X39511904Y-99833333D01*
X39940476Y-100404761D02*
X39845238Y-100452380D01*
X39607142Y-100452380D01*
X39511904Y-100404761D01*
X39464285Y-100309523D01*
X39464285Y-100214285D01*
X39511904Y-100119047D01*
X39607142Y-100071428D01*
X39845238Y-100071428D01*
X39940476Y-100023809D01*
X40845238Y-99785714D02*
X40845238Y-100595238D01*
X40797619Y-100690476D01*
X40750000Y-100738095D01*
X40654761Y-100785714D01*
X40511904Y-100785714D01*
X40416666Y-100738095D01*
X40845238Y-100404761D02*
X40750000Y-100452380D01*
X40559523Y-100452380D01*
X40464285Y-100404761D01*
X40416666Y-100357142D01*
X40369047Y-100261904D01*
X40369047Y-99976190D01*
X40416666Y-99880952D01*
X40464285Y-99833333D01*
X40559523Y-99785714D01*
X40750000Y-99785714D01*
X40845238Y-99833333D01*
X41702380Y-100404761D02*
X41607142Y-100452380D01*
X41416666Y-100452380D01*
X41321428Y-100404761D01*
X41273809Y-100309523D01*
X41273809Y-99928571D01*
X41321428Y-99833333D01*
X41416666Y-99785714D01*
X41607142Y-99785714D01*
X41702380Y-99833333D01*
X41750000Y-99928571D01*
X41750000Y-100023809D01*
X41273809Y-100119047D01*
X42892857Y-100404761D02*
X43035714Y-100452380D01*
X43273809Y-100452380D01*
X43369047Y-100404761D01*
X43416666Y-100357142D01*
X43464285Y-100261904D01*
X43464285Y-100166666D01*
X43416666Y-100071428D01*
X43369047Y-100023809D01*
X43273809Y-99976190D01*
X43083333Y-99928571D01*
X42988095Y-99880952D01*
X42940476Y-99833333D01*
X42892857Y-99738095D01*
X42892857Y-99642857D01*
X42940476Y-99547619D01*
X42988095Y-99500000D01*
X43083333Y-99452380D01*
X43321428Y-99452380D01*
X43464285Y-99500000D01*
X44273809Y-100404761D02*
X44178571Y-100452380D01*
X43988095Y-100452380D01*
X43892857Y-100404761D01*
X43845238Y-100309523D01*
X43845238Y-99928571D01*
X43892857Y-99833333D01*
X43988095Y-99785714D01*
X44178571Y-99785714D01*
X44273809Y-99833333D01*
X44321428Y-99928571D01*
X44321428Y-100023809D01*
X43845238Y-100119047D01*
X44750000Y-99785714D02*
X44750000Y-100452380D01*
X44750000Y-99880952D02*
X44797619Y-99833333D01*
X44892857Y-99785714D01*
X45035714Y-99785714D01*
X45130952Y-99833333D01*
X45178571Y-99928571D01*
X45178571Y-100452380D01*
X45607142Y-100404761D02*
X45702380Y-100452380D01*
X45892857Y-100452380D01*
X45988095Y-100404761D01*
X46035714Y-100309523D01*
X46035714Y-100261904D01*
X45988095Y-100166666D01*
X45892857Y-100119047D01*
X45750000Y-100119047D01*
X45654761Y-100071428D01*
X45607142Y-99976190D01*
X45607142Y-99928571D01*
X45654761Y-99833333D01*
X45750000Y-99785714D01*
X45892857Y-99785714D01*
X45988095Y-99833333D01*
X46845238Y-100404761D02*
X46750000Y-100452380D01*
X46559523Y-100452380D01*
X46464285Y-100404761D01*
X46416666Y-100309523D01*
X46416666Y-99928571D01*
X46464285Y-99833333D01*
X46559523Y-99785714D01*
X46750000Y-99785714D01*
X46845238Y-99833333D01*
X46892857Y-99928571D01*
X46892857Y-100023809D01*
X46416666Y-100119047D01*
X68059523Y-96702380D02*
X67488095Y-96702380D01*
X67773809Y-96702380D02*
X67773809Y-95702380D01*
X67678571Y-95845238D01*
X67583333Y-95940476D01*
X67488095Y-95988095D01*
X68440476Y-95797619D02*
X68488095Y-95750000D01*
X68583333Y-95702380D01*
X68821428Y-95702380D01*
X68916666Y-95750000D01*
X68964285Y-95797619D01*
X69011904Y-95892857D01*
X69011904Y-95988095D01*
X68964285Y-96130952D01*
X68392857Y-96702380D01*
X69011904Y-96702380D01*
X52059523Y-96952380D02*
X51488095Y-96952380D01*
X51773809Y-96952380D02*
X51773809Y-95952380D01*
X51678571Y-96095238D01*
X51583333Y-96190476D01*
X51488095Y-96238095D01*
X53011904Y-96952380D02*
X52440476Y-96952380D01*
X52726190Y-96952380D02*
X52726190Y-95952380D01*
X52630952Y-96095238D01*
X52535714Y-96190476D01*
X52440476Y-96238095D01*
X36059523Y-96952380D02*
X35488095Y-96952380D01*
X35773809Y-96952380D02*
X35773809Y-95952380D01*
X35678571Y-96095238D01*
X35583333Y-96190476D01*
X35488095Y-96238095D01*
X36678571Y-95952380D02*
X36773809Y-95952380D01*
X36869047Y-96000000D01*
X36916666Y-96047619D01*
X36964285Y-96142857D01*
X37011904Y-96333333D01*
X37011904Y-96571428D01*
X36964285Y-96761904D01*
X36916666Y-96857142D01*
X36869047Y-96904761D01*
X36773809Y-96952380D01*
X36678571Y-96952380D01*
X36583333Y-96904761D01*
X36535714Y-96857142D01*
X36488095Y-96761904D01*
X36440476Y-96571428D01*
X36440476Y-96333333D01*
X36488095Y-96142857D01*
X36535714Y-96047619D01*
X36583333Y-96000000D01*
X36678571Y-95952380D01*
X67059523Y-86952380D02*
X67250000Y-86952380D01*
X67345238Y-86904761D01*
X67392857Y-86857142D01*
X67488095Y-86714285D01*
X67535714Y-86523809D01*
X67535714Y-86142857D01*
X67488095Y-86047619D01*
X67440476Y-86000000D01*
X67345238Y-85952380D01*
X67154761Y-85952380D01*
X67059523Y-86000000D01*
X67011904Y-86047619D01*
X66964285Y-86142857D01*
X66964285Y-86380952D01*
X67011904Y-86476190D01*
X67059523Y-86523809D01*
X67154761Y-86571428D01*
X67345238Y-86571428D01*
X67440476Y-86523809D01*
X67488095Y-86476190D01*
X67535714Y-86380952D01*
X49654761Y-86630952D02*
X49559523Y-86583333D01*
X49511904Y-86535714D01*
X49464285Y-86440476D01*
X49464285Y-86392857D01*
X49511904Y-86297619D01*
X49559523Y-86250000D01*
X49654761Y-86202380D01*
X49845238Y-86202380D01*
X49940476Y-86250000D01*
X49988095Y-86297619D01*
X50035714Y-86392857D01*
X50035714Y-86440476D01*
X49988095Y-86535714D01*
X49940476Y-86583333D01*
X49845238Y-86630952D01*
X49654761Y-86630952D01*
X49559523Y-86678571D01*
X49511904Y-86726190D01*
X49464285Y-86821428D01*
X49464285Y-87011904D01*
X49511904Y-87107142D01*
X49559523Y-87154761D01*
X49654761Y-87202380D01*
X49845238Y-87202380D01*
X49940476Y-87154761D01*
X49988095Y-87107142D01*
X50035714Y-87011904D01*
X50035714Y-86821428D01*
X49988095Y-86726190D01*
X49940476Y-86678571D01*
X49845238Y-86630952D01*
X35916666Y-85952380D02*
X36583333Y-85952380D01*
X36154761Y-86952380D01*
X67440476Y-75952380D02*
X67250000Y-75952380D01*
X67154761Y-76000000D01*
X67107142Y-76047619D01*
X67011904Y-76190476D01*
X66964285Y-76380952D01*
X66964285Y-76761904D01*
X67011904Y-76857142D01*
X67059523Y-76904761D01*
X67154761Y-76952380D01*
X67345238Y-76952380D01*
X67440476Y-76904761D01*
X67488095Y-76857142D01*
X67535714Y-76761904D01*
X67535714Y-76523809D01*
X67488095Y-76428571D01*
X67440476Y-76380952D01*
X67345238Y-76333333D01*
X67154761Y-76333333D01*
X67059523Y-76380952D01*
X67011904Y-76428571D01*
X66964285Y-76523809D01*
X50988095Y-75952380D02*
X50511904Y-75952380D01*
X50464285Y-76428571D01*
X50511904Y-76380952D01*
X50607142Y-76333333D01*
X50845238Y-76333333D01*
X50940476Y-76380952D01*
X50988095Y-76428571D01*
X51035714Y-76523809D01*
X51035714Y-76761904D01*
X50988095Y-76857142D01*
X50940476Y-76904761D01*
X50845238Y-76952380D01*
X50607142Y-76952380D01*
X50511904Y-76904761D01*
X50464285Y-76857142D01*
X36440476Y-76285714D02*
X36440476Y-76952380D01*
X36202380Y-75904761D02*
X35964285Y-76619047D01*
X36583333Y-76619047D01*
X66916666Y-65952380D02*
X67535714Y-65952380D01*
X67202380Y-66333333D01*
X67345238Y-66333333D01*
X67440476Y-66380952D01*
X67488095Y-66428571D01*
X67535714Y-66523809D01*
X67535714Y-66761904D01*
X67488095Y-66857142D01*
X67440476Y-66904761D01*
X67345238Y-66952380D01*
X67059523Y-66952380D01*
X66964285Y-66904761D01*
X66916666Y-66857142D01*
X51964285Y-66047619D02*
X52011904Y-66000000D01*
X52107142Y-65952380D01*
X52345238Y-65952380D01*
X52440476Y-66000000D01*
X52488095Y-66047619D01*
X52535714Y-66142857D01*
X52535714Y-66238095D01*
X52488095Y-66380952D01*
X51916666Y-66952380D01*
X52535714Y-66952380D01*
X36535714Y-66952380D02*
X35964285Y-66952380D01*
X36250000Y-66952380D02*
X36250000Y-65952380D01*
X36154761Y-66095238D01*
X36059523Y-66190476D01*
X35964285Y-66238095D01*
X70261904Y-55928571D02*
X70404761Y-55976190D01*
X70452380Y-56023809D01*
X70500000Y-56119047D01*
X70500000Y-56261904D01*
X70452380Y-56357142D01*
X70404761Y-56404761D01*
X70309523Y-56452380D01*
X69928571Y-56452380D01*
X69928571Y-55452380D01*
X70261904Y-55452380D01*
X70357142Y-55500000D01*
X70404761Y-55547619D01*
X70452380Y-55642857D01*
X70452380Y-55738095D01*
X70404761Y-55833333D01*
X70357142Y-55880952D01*
X70261904Y-55928571D01*
X69928571Y-55928571D01*
X70880952Y-56166666D02*
X71357142Y-56166666D01*
X70785714Y-56452380D02*
X71119047Y-55452380D01*
X71452380Y-56452380D01*
X71642857Y-55452380D02*
X72214285Y-55452380D01*
X71928571Y-56452380D02*
X71928571Y-55452380D01*
D11*
X78250000Y-55250000D02*
X78250000Y-54500000D01*
X64250000Y-55250000D02*
X78250000Y-55250000D01*
X64250000Y-54500000D02*
X64250000Y-55250000D01*
D10*
X25261904Y-105678571D02*
X25595238Y-105678571D01*
X25738095Y-106202380D02*
X25261904Y-106202380D01*
X25261904Y-105202380D01*
X25738095Y-105202380D01*
X26166666Y-106202380D02*
X26166666Y-105202380D01*
X26738095Y-106202380D01*
X26738095Y-105202380D01*
X24416666Y-86952380D02*
X24416666Y-85952380D01*
X24797619Y-85952380D01*
X24892857Y-86000000D01*
X24940476Y-86047619D01*
X24988095Y-86142857D01*
X24988095Y-86285714D01*
X24940476Y-86380952D01*
X24892857Y-86428571D01*
X24797619Y-86476190D01*
X24416666Y-86476190D01*
X25940476Y-86000000D02*
X25845238Y-85952380D01*
X25702380Y-85952380D01*
X25559523Y-86000000D01*
X25464285Y-86095238D01*
X25416666Y-86190476D01*
X25369047Y-86380952D01*
X25369047Y-86523809D01*
X25416666Y-86714285D01*
X25464285Y-86809523D01*
X25559523Y-86904761D01*
X25702380Y-86952380D01*
X25797619Y-86952380D01*
X25940476Y-86904761D01*
X25988095Y-86857142D01*
X25988095Y-86523809D01*
X25797619Y-86523809D01*
X26988095Y-86952380D02*
X26654761Y-86476190D01*
X26416666Y-86952380D02*
X26416666Y-85952380D01*
X26797619Y-85952380D01*
X26892857Y-86000000D01*
X26940476Y-86047619D01*
X26988095Y-86142857D01*
X26988095Y-86285714D01*
X26940476Y-86380952D01*
X26892857Y-86428571D01*
X26797619Y-86476190D01*
X26416666Y-86476190D01*
X27416666Y-86952380D02*
X27416666Y-85952380D01*
X27750000Y-86666666D01*
X28083333Y-85952380D01*
X28083333Y-86952380D01*
X44238095Y-21392857D02*
X45761904Y-21392857D01*
X36238095Y-21392857D02*
X37761904Y-21392857D01*
X37000000Y-22154761D02*
X37000000Y-20630952D01*
D12*
G36*
X56460527Y-33831769D02*
G01*
X56477175Y-33833360D01*
X56623340Y-33854705D01*
X56759344Y-33888121D01*
X56885128Y-33933579D01*
X57000635Y-33991050D01*
X57105805Y-34060505D01*
X57200582Y-34141916D01*
X57282908Y-34232753D01*
X57349334Y-34324268D01*
X57402190Y-34417173D01*
X57443542Y-34515603D01*
X57472751Y-34612808D01*
X57482636Y-34658451D01*
X57491374Y-34711152D01*
X57498580Y-34767029D01*
X57503869Y-34822197D01*
X57506857Y-34872773D01*
X57507159Y-34914875D01*
X57505164Y-34940141D01*
X57493598Y-34977849D01*
X57473045Y-35005150D01*
X57445653Y-35020487D01*
X57413568Y-35022307D01*
X57397563Y-35018082D01*
X57383187Y-35009733D01*
X57367797Y-34997481D01*
X57358330Y-34986731D01*
X57352907Y-34973064D01*
X57350465Y-34952038D01*
X57349938Y-34922772D01*
X57343066Y-34794294D01*
X57322668Y-34673471D01*
X57289069Y-34560771D01*
X57242595Y-34456661D01*
X57183568Y-34361608D01*
X57112316Y-34276079D01*
X57029163Y-34200541D01*
X56934435Y-34135461D01*
X56828455Y-34081306D01*
X56741069Y-34047903D01*
X56681767Y-34029813D01*
X56621724Y-34015119D01*
X56556411Y-34002894D01*
X56481302Y-33992209D01*
X56452563Y-33988742D01*
X56410902Y-33983647D01*
X56381944Y-33979182D01*
X56362590Y-33974485D01*
X56349738Y-33968693D01*
X56340287Y-33960944D01*
X56336101Y-33956336D01*
X56321423Y-33928613D01*
X56319148Y-33897846D01*
X56328128Y-33868476D01*
X56347210Y-33844940D01*
X56367896Y-33833643D01*
X56388631Y-33829694D01*
X56418607Y-33829071D01*
X56460527Y-33831769D01*
X56460527Y-33831769D01*
G37*
X56460527Y-33831769D02*
X56477175Y-33833360D01*
X56623340Y-33854705D01*
X56759344Y-33888121D01*
X56885128Y-33933579D01*
X57000635Y-33991050D01*
X57105805Y-34060505D01*
X57200582Y-34141916D01*
X57282908Y-34232753D01*
X57349334Y-34324268D01*
X57402190Y-34417173D01*
X57443542Y-34515603D01*
X57472751Y-34612808D01*
X57482636Y-34658451D01*
X57491374Y-34711152D01*
X57498580Y-34767029D01*
X57503869Y-34822197D01*
X57506857Y-34872773D01*
X57507159Y-34914875D01*
X57505164Y-34940141D01*
X57493598Y-34977849D01*
X57473045Y-35005150D01*
X57445653Y-35020487D01*
X57413568Y-35022307D01*
X57397563Y-35018082D01*
X57383187Y-35009733D01*
X57367797Y-34997481D01*
X57358330Y-34986731D01*
X57352907Y-34973064D01*
X57350465Y-34952038D01*
X57349938Y-34922772D01*
X57343066Y-34794294D01*
X57322668Y-34673471D01*
X57289069Y-34560771D01*
X57242595Y-34456661D01*
X57183568Y-34361608D01*
X57112316Y-34276079D01*
X57029163Y-34200541D01*
X56934435Y-34135461D01*
X56828455Y-34081306D01*
X56741069Y-34047903D01*
X56681767Y-34029813D01*
X56621724Y-34015119D01*
X56556411Y-34002894D01*
X56481302Y-33992209D01*
X56452563Y-33988742D01*
X56410902Y-33983647D01*
X56381944Y-33979182D01*
X56362590Y-33974485D01*
X56349738Y-33968693D01*
X56340287Y-33960944D01*
X56336101Y-33956336D01*
X56321423Y-33928613D01*
X56319148Y-33897846D01*
X56328128Y-33868476D01*
X56347210Y-33844940D01*
X56367896Y-33833643D01*
X56388631Y-33829694D01*
X56418607Y-33829071D01*
X56460527Y-33831769D01*
G36*
X50020902Y-34986102D02*
G01*
X50056870Y-34996221D01*
X50081585Y-35016514D01*
X50093881Y-35045815D01*
X50095063Y-35060243D01*
X50088957Y-35098631D01*
X50072277Y-35127358D01*
X50047482Y-35145034D01*
X50017028Y-35150270D01*
X49983374Y-35141676D01*
X49967252Y-35132532D01*
X49939019Y-35108094D01*
X49925841Y-35081814D01*
X49926899Y-35051474D01*
X49931733Y-35036089D01*
X49947907Y-35006545D01*
X49970315Y-34989979D01*
X50001644Y-34984885D01*
X50020902Y-34986102D01*
X50020902Y-34986102D01*
G37*
X50020902Y-34986102D02*
X50056870Y-34996221D01*
X50081585Y-35016514D01*
X50093881Y-35045815D01*
X50095063Y-35060243D01*
X50088957Y-35098631D01*
X50072277Y-35127358D01*
X50047482Y-35145034D01*
X50017028Y-35150270D01*
X49983374Y-35141676D01*
X49967252Y-35132532D01*
X49939019Y-35108094D01*
X49925841Y-35081814D01*
X49926899Y-35051474D01*
X49931733Y-35036089D01*
X49947907Y-35006545D01*
X49970315Y-34989979D01*
X50001644Y-34984885D01*
X50020902Y-34986102D01*
G36*
X52071195Y-34092184D02*
G01*
X52084605Y-34104392D01*
X52088089Y-34108454D01*
X52094930Y-34118845D01*
X52108906Y-34142007D01*
X52129398Y-34176860D01*
X52155787Y-34222324D01*
X52187452Y-34277318D01*
X52223776Y-34340761D01*
X52264137Y-34411574D01*
X52307917Y-34488676D01*
X52354497Y-34570985D01*
X52403256Y-34657423D01*
X52426870Y-34699381D01*
X52489881Y-34811622D01*
X52545226Y-34910643D01*
X52593190Y-34996970D01*
X52634053Y-35071127D01*
X52668098Y-35133636D01*
X52695608Y-35185022D01*
X52716865Y-35225809D01*
X52732151Y-35256521D01*
X52741749Y-35277681D01*
X52745941Y-35289814D01*
X52746188Y-35291833D01*
X52739028Y-35322424D01*
X52718912Y-35345841D01*
X52687884Y-35360104D01*
X52672883Y-35362802D01*
X52648563Y-35364246D01*
X52632496Y-35360096D01*
X52617408Y-35348068D01*
X52613520Y-35344161D01*
X52606271Y-35333791D01*
X52591977Y-35310605D01*
X52571257Y-35275688D01*
X52544731Y-35230125D01*
X52513020Y-35175002D01*
X52476744Y-35111404D01*
X52436524Y-35040416D01*
X52392979Y-34963123D01*
X52346730Y-34880610D01*
X52298398Y-34793963D01*
X52275797Y-34753307D01*
X52213443Y-34640814D01*
X52158684Y-34541583D01*
X52111242Y-34455088D01*
X52070836Y-34380807D01*
X52037189Y-34318215D01*
X52010022Y-34266789D01*
X51989057Y-34226004D01*
X51974014Y-34195337D01*
X51964615Y-34174264D01*
X51960581Y-34162261D01*
X51960375Y-34160421D01*
X51967552Y-34129774D01*
X51987612Y-34106227D01*
X52018350Y-34091951D01*
X52032621Y-34089380D01*
X52056193Y-34087980D01*
X52071195Y-34092184D01*
X52071195Y-34092184D01*
G37*
X52071195Y-34092184D02*
X52084605Y-34104392D01*
X52088089Y-34108454D01*
X52094930Y-34118845D01*
X52108906Y-34142007D01*
X52129398Y-34176860D01*
X52155787Y-34222324D01*
X52187452Y-34277318D01*
X52223776Y-34340761D01*
X52264137Y-34411574D01*
X52307917Y-34488676D01*
X52354497Y-34570985D01*
X52403256Y-34657423D01*
X52426870Y-34699381D01*
X52489881Y-34811622D01*
X52545226Y-34910643D01*
X52593190Y-34996970D01*
X52634053Y-35071127D01*
X52668098Y-35133636D01*
X52695608Y-35185022D01*
X52716865Y-35225809D01*
X52732151Y-35256521D01*
X52741749Y-35277681D01*
X52745941Y-35289814D01*
X52746188Y-35291833D01*
X52739028Y-35322424D01*
X52718912Y-35345841D01*
X52687884Y-35360104D01*
X52672883Y-35362802D01*
X52648563Y-35364246D01*
X52632496Y-35360096D01*
X52617408Y-35348068D01*
X52613520Y-35344161D01*
X52606271Y-35333791D01*
X52591977Y-35310605D01*
X52571257Y-35275688D01*
X52544731Y-35230125D01*
X52513020Y-35175002D01*
X52476744Y-35111404D01*
X52436524Y-35040416D01*
X52392979Y-34963123D01*
X52346730Y-34880610D01*
X52298398Y-34793963D01*
X52275797Y-34753307D01*
X52213443Y-34640814D01*
X52158684Y-34541583D01*
X52111242Y-34455088D01*
X52070836Y-34380807D01*
X52037189Y-34318215D01*
X52010022Y-34266789D01*
X51989057Y-34226004D01*
X51974014Y-34195337D01*
X51964615Y-34174264D01*
X51960581Y-34162261D01*
X51960375Y-34160421D01*
X51967552Y-34129774D01*
X51987612Y-34106227D01*
X52018350Y-34091951D01*
X52032621Y-34089380D01*
X52056193Y-34087980D01*
X52071195Y-34092184D01*
G36*
X55773266Y-35977530D02*
G01*
X55779164Y-35978063D01*
X55818057Y-35987844D01*
X55845149Y-36007826D01*
X55859599Y-36036797D01*
X55860564Y-36073546D01*
X55857030Y-36089993D01*
X55842861Y-36118591D01*
X55820374Y-36139879D01*
X55793930Y-36150085D01*
X55787164Y-36150462D01*
X55766475Y-36146495D01*
X55742128Y-36137168D01*
X55737764Y-36134973D01*
X55711082Y-36112876D01*
X55696037Y-36083348D01*
X55693121Y-36050259D01*
X55702824Y-36017482D01*
X55719899Y-35994191D01*
X55734457Y-35982104D01*
X55750036Y-35977152D01*
X55773266Y-35977530D01*
X55773266Y-35977530D01*
G37*
X55773266Y-35977530D02*
X55779164Y-35978063D01*
X55818057Y-35987844D01*
X55845149Y-36007826D01*
X55859599Y-36036797D01*
X55860564Y-36073546D01*
X55857030Y-36089993D01*
X55842861Y-36118591D01*
X55820374Y-36139879D01*
X55793930Y-36150085D01*
X55787164Y-36150462D01*
X55766475Y-36146495D01*
X55742128Y-36137168D01*
X55737764Y-36134973D01*
X55711082Y-36112876D01*
X55696037Y-36083348D01*
X55693121Y-36050259D01*
X55702824Y-36017482D01*
X55719899Y-35994191D01*
X55734457Y-35982104D01*
X55750036Y-35977152D01*
X55773266Y-35977530D01*
G36*
X56305636Y-34196859D02*
G01*
X56398308Y-34206146D01*
X56483165Y-34219809D01*
X56529858Y-34230309D01*
X56568610Y-34242519D01*
X56616292Y-34260994D01*
X56668334Y-34283642D01*
X56720170Y-34308372D01*
X56767231Y-34333090D01*
X56804949Y-34355705D01*
X56807779Y-34357599D01*
X56887287Y-34420154D01*
X56953385Y-34491103D01*
X57006148Y-34570580D01*
X57045653Y-34658722D01*
X57071974Y-34755663D01*
X57084429Y-34850201D01*
X57086137Y-34901106D01*
X57082315Y-34938977D01*
X57072336Y-34965880D01*
X57055572Y-34983879D01*
X57041484Y-34991478D01*
X57008969Y-34997847D01*
X56976403Y-34992474D01*
X56949869Y-34976494D01*
X56947415Y-34973957D01*
X56939687Y-34962805D01*
X56934252Y-34947133D01*
X56930412Y-34923561D01*
X56927464Y-34888703D01*
X56926495Y-34872875D01*
X56923287Y-34832636D01*
X56918627Y-34793298D01*
X56913274Y-34760730D01*
X56910309Y-34747824D01*
X56895640Y-34707076D01*
X56873315Y-34660471D01*
X56846448Y-34613808D01*
X56818158Y-34572889D01*
X56812455Y-34565723D01*
X56770577Y-34524394D01*
X56715348Y-34485018D01*
X56649270Y-34448690D01*
X56574844Y-34416500D01*
X56494571Y-34389541D01*
X56410953Y-34368904D01*
X56333078Y-34356425D01*
X56277400Y-34351969D01*
X56212015Y-34350018D01*
X56141174Y-34350419D01*
X56069128Y-34353019D01*
X56000128Y-34357664D01*
X55938425Y-34364202D01*
X55888300Y-34372472D01*
X55793790Y-34397924D01*
X55711728Y-34431923D01*
X55640766Y-34475162D01*
X55579559Y-34528330D01*
X55574538Y-34533567D01*
X55530471Y-34587047D01*
X55499241Y-34641974D01*
X55479563Y-34701747D01*
X55470152Y-34769763D01*
X55468888Y-34813027D01*
X55474061Y-34897348D01*
X55489907Y-34973616D01*
X55517438Y-35046374D01*
X55523692Y-35059406D01*
X55560523Y-35123976D01*
X55605155Y-35183332D01*
X55659337Y-35239172D01*
X55724821Y-35293197D01*
X55803357Y-35347107D01*
X55848477Y-35374794D01*
X55881487Y-35394320D01*
X55910704Y-35411301D01*
X55937985Y-35426641D01*
X55965183Y-35441246D01*
X55994156Y-35456017D01*
X56026756Y-35471860D01*
X56064840Y-35489678D01*
X56110263Y-35510376D01*
X56164879Y-35534856D01*
X56230544Y-35564023D01*
X56298855Y-35594248D01*
X56362987Y-35622891D01*
X56426492Y-35651793D01*
X56486885Y-35679784D01*
X56541676Y-35705691D01*
X56588379Y-35728344D01*
X56624504Y-35746571D01*
X56640168Y-35754950D01*
X56697665Y-35788421D01*
X56755039Y-35824627D01*
X56809602Y-35861661D01*
X56858669Y-35897616D01*
X56899554Y-35930583D01*
X56929572Y-35958655D01*
X56934410Y-35963939D01*
X56966616Y-36006888D01*
X56995403Y-36057096D01*
X57017958Y-36108904D01*
X57031470Y-36156653D01*
X57032175Y-36160734D01*
X57035198Y-36199323D01*
X57033332Y-36240744D01*
X57027201Y-36278955D01*
X57017429Y-36307917D01*
X57016857Y-36309013D01*
X56997326Y-36330245D01*
X56969747Y-36340240D01*
X56937842Y-36338415D01*
X56908288Y-36326051D01*
X56890856Y-36314330D01*
X56879941Y-36302374D01*
X56874176Y-36286306D01*
X56872190Y-36262252D01*
X56872614Y-36226334D01*
X56872646Y-36225164D01*
X56872871Y-36189597D01*
X56870540Y-36164042D01*
X56864656Y-36142710D01*
X56854664Y-36120681D01*
X56837268Y-36092349D01*
X56813294Y-36063986D01*
X56781633Y-36034839D01*
X56741177Y-36004156D01*
X56690817Y-35971186D01*
X56629446Y-35935175D01*
X56555954Y-35895371D01*
X56469234Y-35851022D01*
X56425219Y-35829195D01*
X56368954Y-35801882D01*
X56309095Y-35773458D01*
X56249889Y-35745894D01*
X56195582Y-35721165D01*
X56150422Y-35701245D01*
X56143438Y-35698256D01*
X56076000Y-35668558D01*
X56004781Y-35635377D01*
X55932752Y-35600235D01*
X55862887Y-35564653D01*
X55798157Y-35530151D01*
X55741536Y-35498251D01*
X55695996Y-35470475D01*
X55687781Y-35465083D01*
X55639685Y-35429689D01*
X55588347Y-35386255D01*
X55536966Y-35337967D01*
X55488741Y-35288009D01*
X55446870Y-35239570D01*
X55414553Y-35195834D01*
X55409526Y-35187945D01*
X55363188Y-35098491D01*
X55331618Y-35004044D01*
X55314666Y-34903994D01*
X55312184Y-34797727D01*
X55312574Y-34789531D01*
X55323441Y-34693920D01*
X55345756Y-34608538D01*
X55379998Y-34532141D01*
X55426643Y-34463484D01*
X55446572Y-34440413D01*
X55508199Y-34380239D01*
X55574840Y-34329462D01*
X55647964Y-34287539D01*
X55729040Y-34253927D01*
X55819539Y-34228082D01*
X55920930Y-34209463D01*
X56034683Y-34197524D01*
X56115656Y-34193100D01*
X56209850Y-34192370D01*
X56305636Y-34196859D01*
X56305636Y-34196859D01*
G37*
X56305636Y-34196859D02*
X56398308Y-34206146D01*
X56483165Y-34219809D01*
X56529858Y-34230309D01*
X56568610Y-34242519D01*
X56616292Y-34260994D01*
X56668334Y-34283642D01*
X56720170Y-34308372D01*
X56767231Y-34333090D01*
X56804949Y-34355705D01*
X56807779Y-34357599D01*
X56887287Y-34420154D01*
X56953385Y-34491103D01*
X57006148Y-34570580D01*
X57045653Y-34658722D01*
X57071974Y-34755663D01*
X57084429Y-34850201D01*
X57086137Y-34901106D01*
X57082315Y-34938977D01*
X57072336Y-34965880D01*
X57055572Y-34983879D01*
X57041484Y-34991478D01*
X57008969Y-34997847D01*
X56976403Y-34992474D01*
X56949869Y-34976494D01*
X56947415Y-34973957D01*
X56939687Y-34962805D01*
X56934252Y-34947133D01*
X56930412Y-34923561D01*
X56927464Y-34888703D01*
X56926495Y-34872875D01*
X56923287Y-34832636D01*
X56918627Y-34793298D01*
X56913274Y-34760730D01*
X56910309Y-34747824D01*
X56895640Y-34707076D01*
X56873315Y-34660471D01*
X56846448Y-34613808D01*
X56818158Y-34572889D01*
X56812455Y-34565723D01*
X56770577Y-34524394D01*
X56715348Y-34485018D01*
X56649270Y-34448690D01*
X56574844Y-34416500D01*
X56494571Y-34389541D01*
X56410953Y-34368904D01*
X56333078Y-34356425D01*
X56277400Y-34351969D01*
X56212015Y-34350018D01*
X56141174Y-34350419D01*
X56069128Y-34353019D01*
X56000128Y-34357664D01*
X55938425Y-34364202D01*
X55888300Y-34372472D01*
X55793790Y-34397924D01*
X55711728Y-34431923D01*
X55640766Y-34475162D01*
X55579559Y-34528330D01*
X55574538Y-34533567D01*
X55530471Y-34587047D01*
X55499241Y-34641974D01*
X55479563Y-34701747D01*
X55470152Y-34769763D01*
X55468888Y-34813027D01*
X55474061Y-34897348D01*
X55489907Y-34973616D01*
X55517438Y-35046374D01*
X55523692Y-35059406D01*
X55560523Y-35123976D01*
X55605155Y-35183332D01*
X55659337Y-35239172D01*
X55724821Y-35293197D01*
X55803357Y-35347107D01*
X55848477Y-35374794D01*
X55881487Y-35394320D01*
X55910704Y-35411301D01*
X55937985Y-35426641D01*
X55965183Y-35441246D01*
X55994156Y-35456017D01*
X56026756Y-35471860D01*
X56064840Y-35489678D01*
X56110263Y-35510376D01*
X56164879Y-35534856D01*
X56230544Y-35564023D01*
X56298855Y-35594248D01*
X56362987Y-35622891D01*
X56426492Y-35651793D01*
X56486885Y-35679784D01*
X56541676Y-35705691D01*
X56588379Y-35728344D01*
X56624504Y-35746571D01*
X56640168Y-35754950D01*
X56697665Y-35788421D01*
X56755039Y-35824627D01*
X56809602Y-35861661D01*
X56858669Y-35897616D01*
X56899554Y-35930583D01*
X56929572Y-35958655D01*
X56934410Y-35963939D01*
X56966616Y-36006888D01*
X56995403Y-36057096D01*
X57017958Y-36108904D01*
X57031470Y-36156653D01*
X57032175Y-36160734D01*
X57035198Y-36199323D01*
X57033332Y-36240744D01*
X57027201Y-36278955D01*
X57017429Y-36307917D01*
X57016857Y-36309013D01*
X56997326Y-36330245D01*
X56969747Y-36340240D01*
X56937842Y-36338415D01*
X56908288Y-36326051D01*
X56890856Y-36314330D01*
X56879941Y-36302374D01*
X56874176Y-36286306D01*
X56872190Y-36262252D01*
X56872614Y-36226334D01*
X56872646Y-36225164D01*
X56872871Y-36189597D01*
X56870540Y-36164042D01*
X56864656Y-36142710D01*
X56854664Y-36120681D01*
X56837268Y-36092349D01*
X56813294Y-36063986D01*
X56781633Y-36034839D01*
X56741177Y-36004156D01*
X56690817Y-35971186D01*
X56629446Y-35935175D01*
X56555954Y-35895371D01*
X56469234Y-35851022D01*
X56425219Y-35829195D01*
X56368954Y-35801882D01*
X56309095Y-35773458D01*
X56249889Y-35745894D01*
X56195582Y-35721165D01*
X56150422Y-35701245D01*
X56143438Y-35698256D01*
X56076000Y-35668558D01*
X56004781Y-35635377D01*
X55932752Y-35600235D01*
X55862887Y-35564653D01*
X55798157Y-35530151D01*
X55741536Y-35498251D01*
X55695996Y-35470475D01*
X55687781Y-35465083D01*
X55639685Y-35429689D01*
X55588347Y-35386255D01*
X55536966Y-35337967D01*
X55488741Y-35288009D01*
X55446870Y-35239570D01*
X55414553Y-35195834D01*
X55409526Y-35187945D01*
X55363188Y-35098491D01*
X55331618Y-35004044D01*
X55314666Y-34903994D01*
X55312184Y-34797727D01*
X55312574Y-34789531D01*
X55323441Y-34693920D01*
X55345756Y-34608538D01*
X55379998Y-34532141D01*
X55426643Y-34463484D01*
X55446572Y-34440413D01*
X55508199Y-34380239D01*
X55574840Y-34329462D01*
X55647964Y-34287539D01*
X55729040Y-34253927D01*
X55819539Y-34228082D01*
X55920930Y-34209463D01*
X56034683Y-34197524D01*
X56115656Y-34193100D01*
X56209850Y-34192370D01*
X56305636Y-34196859D01*
G36*
X48921936Y-34229994D02*
G01*
X49014220Y-34230212D01*
X49092484Y-34230934D01*
X49158579Y-34232316D01*
X49214358Y-34234513D01*
X49261671Y-34237680D01*
X49302371Y-34241975D01*
X49338308Y-34247551D01*
X49371334Y-34254565D01*
X49403301Y-34263174D01*
X49434851Y-34273128D01*
X49514438Y-34307031D01*
X49582502Y-34351789D01*
X49638914Y-34407204D01*
X49683545Y-34473075D01*
X49716267Y-34549206D01*
X49736949Y-34635397D01*
X49745464Y-34731449D01*
X49745695Y-34752526D01*
X49742190Y-34822326D01*
X49732297Y-34883904D01*
X49716616Y-34935933D01*
X49695743Y-34977087D01*
X49670279Y-35006036D01*
X49640821Y-35021455D01*
X49623477Y-35023688D01*
X49591349Y-35016828D01*
X49567563Y-34996576D01*
X49555139Y-34971569D01*
X49550716Y-34953764D01*
X49551129Y-34936655D01*
X49557057Y-34914582D01*
X49564454Y-34894203D01*
X49574820Y-34855400D01*
X49581518Y-34806423D01*
X49584494Y-34752127D01*
X49583697Y-34697364D01*
X49579072Y-34646989D01*
X49570570Y-34605853D01*
X49567667Y-34597134D01*
X49539076Y-34539147D01*
X49499678Y-34491102D01*
X49448785Y-34452518D01*
X49385707Y-34422914D01*
X49309756Y-34401808D01*
X49280634Y-34396442D01*
X49260955Y-34394519D01*
X49227810Y-34392770D01*
X49183610Y-34391258D01*
X49130764Y-34390045D01*
X49071680Y-34389195D01*
X49008768Y-34388770D01*
X48985797Y-34388733D01*
X48737750Y-34388688D01*
X48737750Y-36563563D01*
X49053266Y-36563317D01*
X49152120Y-36563019D01*
X49236594Y-36562170D01*
X49308177Y-36560591D01*
X49368361Y-36558106D01*
X49418636Y-36554535D01*
X49460491Y-36549699D01*
X49495417Y-36543421D01*
X49524904Y-36535522D01*
X49550443Y-36525824D01*
X49573524Y-36514148D01*
X49595637Y-36500317D01*
X49599042Y-36497990D01*
X49639494Y-36464325D01*
X49670778Y-36424533D01*
X49693717Y-36376658D01*
X49709135Y-36318741D01*
X49717852Y-36248824D01*
X49719901Y-36210344D01*
X49718968Y-36119215D01*
X49708973Y-36040528D01*
X49689341Y-35973305D01*
X49659492Y-35916569D01*
X49618849Y-35869343D01*
X49566834Y-35830648D01*
X49502869Y-35799508D01*
X49469936Y-35787669D01*
X49449654Y-35781320D01*
X49430783Y-35776402D01*
X49410816Y-35772687D01*
X49387248Y-35769945D01*
X49357573Y-35767946D01*
X49319284Y-35766460D01*
X49269876Y-35765259D01*
X49214000Y-35764235D01*
X49146804Y-35762867D01*
X49093614Y-35761132D01*
X49052558Y-35758754D01*
X49021767Y-35755458D01*
X48999372Y-35750966D01*
X48983502Y-35745003D01*
X48972288Y-35737293D01*
X48963860Y-35727560D01*
X48963653Y-35727265D01*
X48953033Y-35699994D01*
X48952426Y-35667874D01*
X48961263Y-35637707D01*
X48972489Y-35621665D01*
X48992915Y-35601239D01*
X49192754Y-35605532D01*
X49275879Y-35607965D01*
X49345794Y-35611723D01*
X49405147Y-35617331D01*
X49456583Y-35625315D01*
X49502748Y-35636202D01*
X49546288Y-35650517D01*
X49589850Y-35668786D01*
X49636079Y-35691537D01*
X49642673Y-35694982D01*
X49703642Y-35735664D01*
X49758025Y-35789338D01*
X49804303Y-35853948D01*
X49840956Y-35927442D01*
X49862541Y-35992063D01*
X49869198Y-36028112D01*
X49873841Y-36075828D01*
X49876470Y-36131133D01*
X49877086Y-36189947D01*
X49875690Y-36248191D01*
X49872282Y-36301785D01*
X49866862Y-36346651D01*
X49862492Y-36368296D01*
X49836632Y-36447012D01*
X49801173Y-36514773D01*
X49755468Y-36572067D01*
X49698866Y-36619380D01*
X49630717Y-36657199D01*
X49550374Y-36686011D01*
X49457186Y-36706303D01*
X49401615Y-36713853D01*
X49375805Y-36715842D01*
X49337922Y-36717541D01*
X49289883Y-36718953D01*
X49233605Y-36720081D01*
X49171004Y-36720925D01*
X49103997Y-36721488D01*
X49034499Y-36721772D01*
X48964428Y-36721779D01*
X48895699Y-36721511D01*
X48830231Y-36720970D01*
X48769938Y-36720158D01*
X48716737Y-36719077D01*
X48672545Y-36717729D01*
X48639279Y-36716116D01*
X48618854Y-36714240D01*
X48613640Y-36713029D01*
X48597227Y-36699485D01*
X48587843Y-36685411D01*
X48586543Y-36677419D01*
X48585358Y-36659121D01*
X48584285Y-36630093D01*
X48583321Y-36589908D01*
X48582463Y-36538140D01*
X48581708Y-36474362D01*
X48581053Y-36398150D01*
X48580494Y-36309076D01*
X48580029Y-36206715D01*
X48579655Y-36090640D01*
X48579368Y-35960425D01*
X48579165Y-35815645D01*
X48579044Y-35655873D01*
X48579000Y-35480683D01*
X48579000Y-34268903D01*
X48617966Y-34229937D01*
X48921936Y-34229994D01*
X48921936Y-34229994D01*
G37*
X48921936Y-34229994D02*
X49014220Y-34230212D01*
X49092484Y-34230934D01*
X49158579Y-34232316D01*
X49214358Y-34234513D01*
X49261671Y-34237680D01*
X49302371Y-34241975D01*
X49338308Y-34247551D01*
X49371334Y-34254565D01*
X49403301Y-34263174D01*
X49434851Y-34273128D01*
X49514438Y-34307031D01*
X49582502Y-34351789D01*
X49638914Y-34407204D01*
X49683545Y-34473075D01*
X49716267Y-34549206D01*
X49736949Y-34635397D01*
X49745464Y-34731449D01*
X49745695Y-34752526D01*
X49742190Y-34822326D01*
X49732297Y-34883904D01*
X49716616Y-34935933D01*
X49695743Y-34977087D01*
X49670279Y-35006036D01*
X49640821Y-35021455D01*
X49623477Y-35023688D01*
X49591349Y-35016828D01*
X49567563Y-34996576D01*
X49555139Y-34971569D01*
X49550716Y-34953764D01*
X49551129Y-34936655D01*
X49557057Y-34914582D01*
X49564454Y-34894203D01*
X49574820Y-34855400D01*
X49581518Y-34806423D01*
X49584494Y-34752127D01*
X49583697Y-34697364D01*
X49579072Y-34646989D01*
X49570570Y-34605853D01*
X49567667Y-34597134D01*
X49539076Y-34539147D01*
X49499678Y-34491102D01*
X49448785Y-34452518D01*
X49385707Y-34422914D01*
X49309756Y-34401808D01*
X49280634Y-34396442D01*
X49260955Y-34394519D01*
X49227810Y-34392770D01*
X49183610Y-34391258D01*
X49130764Y-34390045D01*
X49071680Y-34389195D01*
X49008768Y-34388770D01*
X48985797Y-34388733D01*
X48737750Y-34388688D01*
X48737750Y-36563563D01*
X49053266Y-36563317D01*
X49152120Y-36563019D01*
X49236594Y-36562170D01*
X49308177Y-36560591D01*
X49368361Y-36558106D01*
X49418636Y-36554535D01*
X49460491Y-36549699D01*
X49495417Y-36543421D01*
X49524904Y-36535522D01*
X49550443Y-36525824D01*
X49573524Y-36514148D01*
X49595637Y-36500317D01*
X49599042Y-36497990D01*
X49639494Y-36464325D01*
X49670778Y-36424533D01*
X49693717Y-36376658D01*
X49709135Y-36318741D01*
X49717852Y-36248824D01*
X49719901Y-36210344D01*
X49718968Y-36119215D01*
X49708973Y-36040528D01*
X49689341Y-35973305D01*
X49659492Y-35916569D01*
X49618849Y-35869343D01*
X49566834Y-35830648D01*
X49502869Y-35799508D01*
X49469936Y-35787669D01*
X49449654Y-35781320D01*
X49430783Y-35776402D01*
X49410816Y-35772687D01*
X49387248Y-35769945D01*
X49357573Y-35767946D01*
X49319284Y-35766460D01*
X49269876Y-35765259D01*
X49214000Y-35764235D01*
X49146804Y-35762867D01*
X49093614Y-35761132D01*
X49052558Y-35758754D01*
X49021767Y-35755458D01*
X48999372Y-35750966D01*
X48983502Y-35745003D01*
X48972288Y-35737293D01*
X48963860Y-35727560D01*
X48963653Y-35727265D01*
X48953033Y-35699994D01*
X48952426Y-35667874D01*
X48961263Y-35637707D01*
X48972489Y-35621665D01*
X48992915Y-35601239D01*
X49192754Y-35605532D01*
X49275879Y-35607965D01*
X49345794Y-35611723D01*
X49405147Y-35617331D01*
X49456583Y-35625315D01*
X49502748Y-35636202D01*
X49546288Y-35650517D01*
X49589850Y-35668786D01*
X49636079Y-35691537D01*
X49642673Y-35694982D01*
X49703642Y-35735664D01*
X49758025Y-35789338D01*
X49804303Y-35853948D01*
X49840956Y-35927442D01*
X49862541Y-35992063D01*
X49869198Y-36028112D01*
X49873841Y-36075828D01*
X49876470Y-36131133D01*
X49877086Y-36189947D01*
X49875690Y-36248191D01*
X49872282Y-36301785D01*
X49866862Y-36346651D01*
X49862492Y-36368296D01*
X49836632Y-36447012D01*
X49801173Y-36514773D01*
X49755468Y-36572067D01*
X49698866Y-36619380D01*
X49630717Y-36657199D01*
X49550374Y-36686011D01*
X49457186Y-36706303D01*
X49401615Y-36713853D01*
X49375805Y-36715842D01*
X49337922Y-36717541D01*
X49289883Y-36718953D01*
X49233605Y-36720081D01*
X49171004Y-36720925D01*
X49103997Y-36721488D01*
X49034499Y-36721772D01*
X48964428Y-36721779D01*
X48895699Y-36721511D01*
X48830231Y-36720970D01*
X48769938Y-36720158D01*
X48716737Y-36719077D01*
X48672545Y-36717729D01*
X48639279Y-36716116D01*
X48618854Y-36714240D01*
X48613640Y-36713029D01*
X48597227Y-36699485D01*
X48587843Y-36685411D01*
X48586543Y-36677419D01*
X48585358Y-36659121D01*
X48584285Y-36630093D01*
X48583321Y-36589908D01*
X48582463Y-36538140D01*
X48581708Y-36474362D01*
X48581053Y-36398150D01*
X48580494Y-36309076D01*
X48580029Y-36206715D01*
X48579655Y-36090640D01*
X48579368Y-35960425D01*
X48579165Y-35815645D01*
X48579044Y-35655873D01*
X48579000Y-35480683D01*
X48579000Y-34268903D01*
X48617966Y-34229937D01*
X48921936Y-34229994D01*
G36*
X55852076Y-34664042D02*
G01*
X55868955Y-34675844D01*
X55869243Y-34676091D01*
X55880243Y-34686604D01*
X55886965Y-34697667D01*
X55890532Y-34713437D01*
X55892066Y-34738068D01*
X55892525Y-34762289D01*
X55896556Y-34814862D01*
X55908481Y-34858743D01*
X55930356Y-34898738D01*
X55964238Y-34939651D01*
X55971861Y-34947576D01*
X56009797Y-34983594D01*
X56053274Y-35019471D01*
X56103404Y-35055851D01*
X56161301Y-35093375D01*
X56228081Y-35132688D01*
X56304855Y-35174431D01*
X56392739Y-35219249D01*
X56492847Y-35267783D01*
X56606292Y-35320678D01*
X56663344Y-35346687D01*
X56782774Y-35401732D01*
X56888421Y-35452508D01*
X56981560Y-35499773D01*
X57063467Y-35544279D01*
X57135418Y-35586783D01*
X57198688Y-35628038D01*
X57254553Y-35668801D01*
X57304290Y-35709825D01*
X57349173Y-35751865D01*
X57350601Y-35753293D01*
X57407715Y-35816629D01*
X57450821Y-35879272D01*
X57480854Y-35943898D01*
X57498750Y-36013181D01*
X57505445Y-36089798D01*
X57501874Y-36176424D01*
X57501175Y-36183843D01*
X57484648Y-36281106D01*
X57454626Y-36370467D01*
X57410740Y-36452598D01*
X57352620Y-36528171D01*
X57279896Y-36597859D01*
X57267921Y-36607672D01*
X57213072Y-36647074D01*
X57150400Y-36684366D01*
X57084992Y-36716934D01*
X57021935Y-36742162D01*
X56984361Y-36753450D01*
X56929531Y-36765075D01*
X56864529Y-36775399D01*
X56792973Y-36784145D01*
X56718483Y-36791034D01*
X56644677Y-36795786D01*
X56575176Y-36798123D01*
X56513598Y-36797766D01*
X56463563Y-36794436D01*
X56459231Y-36793916D01*
X56380663Y-36781545D01*
X56300646Y-36764511D01*
X56223201Y-36743917D01*
X56152347Y-36720865D01*
X56092104Y-36696460D01*
X56076250Y-36688810D01*
X55998140Y-36643292D01*
X55925161Y-36589167D01*
X55860630Y-36529258D01*
X55807863Y-36466391D01*
X55797468Y-36451402D01*
X55768659Y-36404380D01*
X55750941Y-36366024D01*
X55743634Y-36334350D01*
X55746059Y-36307372D01*
X55747054Y-36304104D01*
X55759868Y-36275889D01*
X55777658Y-36260313D01*
X55804632Y-36254365D01*
X55817070Y-36254000D01*
X55843729Y-36256303D01*
X55864311Y-36264907D01*
X55881881Y-36282357D01*
X55899508Y-36311194D01*
X55909148Y-36330364D01*
X55931196Y-36366117D01*
X55963428Y-36405849D01*
X56002165Y-36445808D01*
X56043726Y-36482240D01*
X56084433Y-36511390D01*
X56089743Y-36514610D01*
X56177595Y-36558743D01*
X56275880Y-36594207D01*
X56381275Y-36620250D01*
X56490455Y-36636124D01*
X56600096Y-36641079D01*
X56644622Y-36639769D01*
X56767289Y-36629323D01*
X56876788Y-36611385D01*
X56974094Y-36585675D01*
X57060182Y-36551910D01*
X57136027Y-36509811D01*
X57164918Y-36489683D01*
X57219333Y-36442120D01*
X57265245Y-36385780D01*
X57305073Y-36317587D01*
X57312688Y-36301902D01*
X57333434Y-36250896D01*
X57345524Y-36201893D01*
X57349578Y-36150037D01*
X57346216Y-36090469D01*
X57343036Y-36064157D01*
X57332888Y-36014661D01*
X57315603Y-35967458D01*
X57290391Y-35921915D01*
X57256462Y-35877398D01*
X57213025Y-35833273D01*
X57159289Y-35788907D01*
X57094465Y-35743666D01*
X57017761Y-35696916D01*
X56928388Y-35648024D01*
X56825553Y-35596356D01*
X56708469Y-35541278D01*
X56667560Y-35522693D01*
X56561280Y-35474169D01*
X56460001Y-35426745D01*
X56365117Y-35381120D01*
X56278017Y-35337996D01*
X56200094Y-35298070D01*
X56132740Y-35262045D01*
X56077347Y-35230620D01*
X56036281Y-35205143D01*
X55979001Y-35163926D01*
X55921549Y-35116892D01*
X55876878Y-35075553D01*
X55842520Y-35040233D01*
X55816935Y-35010592D01*
X55796728Y-34982114D01*
X55778502Y-34950281D01*
X55769722Y-34933012D01*
X55753920Y-34900500D01*
X55743762Y-34876267D01*
X55738001Y-34854888D01*
X55735391Y-34830939D01*
X55734685Y-34798996D01*
X55734656Y-34780447D01*
X55735810Y-34735387D01*
X55740286Y-34703606D01*
X55749610Y-34682610D01*
X55765305Y-34669907D01*
X55788897Y-34663002D01*
X55807946Y-34660560D01*
X55834137Y-34659555D01*
X55852076Y-34664042D01*
X55852076Y-34664042D01*
G37*
X55852076Y-34664042D02*
X55868955Y-34675844D01*
X55869243Y-34676091D01*
X55880243Y-34686604D01*
X55886965Y-34697667D01*
X55890532Y-34713437D01*
X55892066Y-34738068D01*
X55892525Y-34762289D01*
X55896556Y-34814862D01*
X55908481Y-34858743D01*
X55930356Y-34898738D01*
X55964238Y-34939651D01*
X55971861Y-34947576D01*
X56009797Y-34983594D01*
X56053274Y-35019471D01*
X56103404Y-35055851D01*
X56161301Y-35093375D01*
X56228081Y-35132688D01*
X56304855Y-35174431D01*
X56392739Y-35219249D01*
X56492847Y-35267783D01*
X56606292Y-35320678D01*
X56663344Y-35346687D01*
X56782774Y-35401732D01*
X56888421Y-35452508D01*
X56981560Y-35499773D01*
X57063467Y-35544279D01*
X57135418Y-35586783D01*
X57198688Y-35628038D01*
X57254553Y-35668801D01*
X57304290Y-35709825D01*
X57349173Y-35751865D01*
X57350601Y-35753293D01*
X57407715Y-35816629D01*
X57450821Y-35879272D01*
X57480854Y-35943898D01*
X57498750Y-36013181D01*
X57505445Y-36089798D01*
X57501874Y-36176424D01*
X57501175Y-36183843D01*
X57484648Y-36281106D01*
X57454626Y-36370467D01*
X57410740Y-36452598D01*
X57352620Y-36528171D01*
X57279896Y-36597859D01*
X57267921Y-36607672D01*
X57213072Y-36647074D01*
X57150400Y-36684366D01*
X57084992Y-36716934D01*
X57021935Y-36742162D01*
X56984361Y-36753450D01*
X56929531Y-36765075D01*
X56864529Y-36775399D01*
X56792973Y-36784145D01*
X56718483Y-36791034D01*
X56644677Y-36795786D01*
X56575176Y-36798123D01*
X56513598Y-36797766D01*
X56463563Y-36794436D01*
X56459231Y-36793916D01*
X56380663Y-36781545D01*
X56300646Y-36764511D01*
X56223201Y-36743917D01*
X56152347Y-36720865D01*
X56092104Y-36696460D01*
X56076250Y-36688810D01*
X55998140Y-36643292D01*
X55925161Y-36589167D01*
X55860630Y-36529258D01*
X55807863Y-36466391D01*
X55797468Y-36451402D01*
X55768659Y-36404380D01*
X55750941Y-36366024D01*
X55743634Y-36334350D01*
X55746059Y-36307372D01*
X55747054Y-36304104D01*
X55759868Y-36275889D01*
X55777658Y-36260313D01*
X55804632Y-36254365D01*
X55817070Y-36254000D01*
X55843729Y-36256303D01*
X55864311Y-36264907D01*
X55881881Y-36282357D01*
X55899508Y-36311194D01*
X55909148Y-36330364D01*
X55931196Y-36366117D01*
X55963428Y-36405849D01*
X56002165Y-36445808D01*
X56043726Y-36482240D01*
X56084433Y-36511390D01*
X56089743Y-36514610D01*
X56177595Y-36558743D01*
X56275880Y-36594207D01*
X56381275Y-36620250D01*
X56490455Y-36636124D01*
X56600096Y-36641079D01*
X56644622Y-36639769D01*
X56767289Y-36629323D01*
X56876788Y-36611385D01*
X56974094Y-36585675D01*
X57060182Y-36551910D01*
X57136027Y-36509811D01*
X57164918Y-36489683D01*
X57219333Y-36442120D01*
X57265245Y-36385780D01*
X57305073Y-36317587D01*
X57312688Y-36301902D01*
X57333434Y-36250896D01*
X57345524Y-36201893D01*
X57349578Y-36150037D01*
X57346216Y-36090469D01*
X57343036Y-36064157D01*
X57332888Y-36014661D01*
X57315603Y-35967458D01*
X57290391Y-35921915D01*
X57256462Y-35877398D01*
X57213025Y-35833273D01*
X57159289Y-35788907D01*
X57094465Y-35743666D01*
X57017761Y-35696916D01*
X56928388Y-35648024D01*
X56825553Y-35596356D01*
X56708469Y-35541278D01*
X56667560Y-35522693D01*
X56561280Y-35474169D01*
X56460001Y-35426745D01*
X56365117Y-35381120D01*
X56278017Y-35337996D01*
X56200094Y-35298070D01*
X56132740Y-35262045D01*
X56077347Y-35230620D01*
X56036281Y-35205143D01*
X55979001Y-35163926D01*
X55921549Y-35116892D01*
X55876878Y-35075553D01*
X55842520Y-35040233D01*
X55816935Y-35010592D01*
X55796728Y-34982114D01*
X55778502Y-34950281D01*
X55769722Y-34933012D01*
X55753920Y-34900500D01*
X55743762Y-34876267D01*
X55738001Y-34854888D01*
X55735391Y-34830939D01*
X55734685Y-34798996D01*
X55734656Y-34780447D01*
X55735810Y-34735387D01*
X55740286Y-34703606D01*
X55749610Y-34682610D01*
X55765305Y-34669907D01*
X55788897Y-34663002D01*
X55807946Y-34660560D01*
X55834137Y-34659555D01*
X55852076Y-34664042D01*
G36*
X53975119Y-35521415D02*
G01*
X53997886Y-35534969D01*
X54020156Y-35554125D01*
X54020156Y-36848952D01*
X53999539Y-36869569D01*
X53973036Y-36886722D01*
X53940990Y-36894307D01*
X53909821Y-36891287D01*
X53897531Y-36886042D01*
X53880889Y-36872529D01*
X53872292Y-36860095D01*
X53871387Y-36850030D01*
X53870511Y-36825306D01*
X53869678Y-36787136D01*
X53868897Y-36736736D01*
X53868182Y-36675319D01*
X53867543Y-36604102D01*
X53866992Y-36524299D01*
X53866541Y-36437124D01*
X53866202Y-36343792D01*
X53865986Y-36245519D01*
X53865933Y-36200061D01*
X53865375Y-35554778D01*
X53884858Y-35535295D01*
X53910923Y-35519542D01*
X53942841Y-35514910D01*
X53975119Y-35521415D01*
X53975119Y-35521415D01*
G37*
X53975119Y-35521415D02*
X53997886Y-35534969D01*
X54020156Y-35554125D01*
X54020156Y-36848952D01*
X53999539Y-36869569D01*
X53973036Y-36886722D01*
X53940990Y-36894307D01*
X53909821Y-36891287D01*
X53897531Y-36886042D01*
X53880889Y-36872529D01*
X53872292Y-36860095D01*
X53871387Y-36850030D01*
X53870511Y-36825306D01*
X53869678Y-36787136D01*
X53868897Y-36736736D01*
X53868182Y-36675319D01*
X53867543Y-36604102D01*
X53866992Y-36524299D01*
X53866541Y-36437124D01*
X53866202Y-36343792D01*
X53865986Y-36245519D01*
X53865933Y-36200061D01*
X53865375Y-35554778D01*
X53884858Y-35535295D01*
X53910923Y-35519542D01*
X53942841Y-35514910D01*
X53975119Y-35521415D01*
G36*
X49252809Y-35192881D02*
G01*
X49343927Y-35194879D01*
X49421514Y-35197752D01*
X49487904Y-35201843D01*
X49545433Y-35207497D01*
X49596435Y-35215055D01*
X49643245Y-35224861D01*
X49688197Y-35237259D01*
X49733628Y-35252592D01*
X49779723Y-35270337D01*
X49867343Y-35312546D01*
X49951157Y-35366276D01*
X50027786Y-35428916D01*
X50093851Y-35497858D01*
X50122929Y-35535361D01*
X50178121Y-35625034D01*
X50222226Y-35724081D01*
X50255432Y-35833146D01*
X50277928Y-35952875D01*
X50289902Y-36083915D01*
X50291037Y-36111125D01*
X50289571Y-36249487D01*
X50275627Y-36380189D01*
X50249394Y-36502636D01*
X50211060Y-36616234D01*
X50160813Y-36720389D01*
X50098843Y-36814506D01*
X50049494Y-36873123D01*
X49979456Y-36940990D01*
X49904781Y-36997980D01*
X49823154Y-37045349D01*
X49732261Y-37084349D01*
X49629789Y-37116235D01*
X49577357Y-37129034D01*
X49560514Y-37132660D01*
X49543707Y-37135739D01*
X49525476Y-37138328D01*
X49504360Y-37140483D01*
X49478901Y-37142261D01*
X49447638Y-37143719D01*
X49409111Y-37144914D01*
X49361861Y-37145901D01*
X49304427Y-37146737D01*
X49235351Y-37147480D01*
X49153171Y-37148186D01*
X49066919Y-37148835D01*
X48972654Y-37149510D01*
X48892967Y-37150031D01*
X48826561Y-37150358D01*
X48772140Y-37150453D01*
X48728407Y-37150276D01*
X48694066Y-37149788D01*
X48667819Y-37148951D01*
X48648372Y-37147724D01*
X48634426Y-37146070D01*
X48624685Y-37143948D01*
X48617853Y-37141320D01*
X48612633Y-37138147D01*
X48608529Y-37135019D01*
X48594647Y-37121167D01*
X48588332Y-37104363D01*
X48586938Y-37080690D01*
X48591741Y-37043620D01*
X48606826Y-37017667D01*
X48632262Y-37001428D01*
X48645763Y-36999104D01*
X48674102Y-36997017D01*
X48717444Y-36995164D01*
X48775952Y-36993540D01*
X48849792Y-36992142D01*
X48939126Y-36990963D01*
X49044121Y-36990002D01*
X49079063Y-36989752D01*
X49177677Y-36989055D01*
X49261944Y-36988302D01*
X49333391Y-36987356D01*
X49393545Y-36986083D01*
X49443933Y-36984345D01*
X49486084Y-36982008D01*
X49521523Y-36978936D01*
X49551780Y-36974991D01*
X49578380Y-36970039D01*
X49602851Y-36963944D01*
X49626721Y-36956569D01*
X49651517Y-36947779D01*
X49678765Y-36937438D01*
X49682313Y-36936071D01*
X49775929Y-36891779D01*
X49860166Y-36835082D01*
X49934093Y-36766878D01*
X49996777Y-36688066D01*
X50047288Y-36599544D01*
X50059420Y-36572435D01*
X50090987Y-36485455D01*
X50113587Y-36394318D01*
X50127756Y-36296008D01*
X50134031Y-36187507D01*
X50134458Y-36150813D01*
X50129091Y-36023125D01*
X50112468Y-35906613D01*
X50084543Y-35801213D01*
X50045272Y-35706864D01*
X49994612Y-35623502D01*
X49932517Y-35551065D01*
X49858943Y-35489490D01*
X49773846Y-35438714D01*
X49677181Y-35398675D01*
X49583094Y-35372403D01*
X49559054Y-35367306D01*
X49535439Y-35363177D01*
X49510052Y-35359867D01*
X49480696Y-35357229D01*
X49445176Y-35355116D01*
X49401295Y-35353380D01*
X49346855Y-35351873D01*
X49279661Y-35350448D01*
X49247069Y-35349838D01*
X48990419Y-35345156D01*
X48966410Y-35318270D01*
X48951160Y-35298567D01*
X48945672Y-35281593D01*
X48946956Y-35262707D01*
X48959511Y-35231309D01*
X48976705Y-35211327D01*
X49001898Y-35188623D01*
X49252809Y-35192881D01*
X49252809Y-35192881D01*
G37*
X49252809Y-35192881D02*
X49343927Y-35194879D01*
X49421514Y-35197752D01*
X49487904Y-35201843D01*
X49545433Y-35207497D01*
X49596435Y-35215055D01*
X49643245Y-35224861D01*
X49688197Y-35237259D01*
X49733628Y-35252592D01*
X49779723Y-35270337D01*
X49867343Y-35312546D01*
X49951157Y-35366276D01*
X50027786Y-35428916D01*
X50093851Y-35497858D01*
X50122929Y-35535361D01*
X50178121Y-35625034D01*
X50222226Y-35724081D01*
X50255432Y-35833146D01*
X50277928Y-35952875D01*
X50289902Y-36083915D01*
X50291037Y-36111125D01*
X50289571Y-36249487D01*
X50275627Y-36380189D01*
X50249394Y-36502636D01*
X50211060Y-36616234D01*
X50160813Y-36720389D01*
X50098843Y-36814506D01*
X50049494Y-36873123D01*
X49979456Y-36940990D01*
X49904781Y-36997980D01*
X49823154Y-37045349D01*
X49732261Y-37084349D01*
X49629789Y-37116235D01*
X49577357Y-37129034D01*
X49560514Y-37132660D01*
X49543707Y-37135739D01*
X49525476Y-37138328D01*
X49504360Y-37140483D01*
X49478901Y-37142261D01*
X49447638Y-37143719D01*
X49409111Y-37144914D01*
X49361861Y-37145901D01*
X49304427Y-37146737D01*
X49235351Y-37147480D01*
X49153171Y-37148186D01*
X49066919Y-37148835D01*
X48972654Y-37149510D01*
X48892967Y-37150031D01*
X48826561Y-37150358D01*
X48772140Y-37150453D01*
X48728407Y-37150276D01*
X48694066Y-37149788D01*
X48667819Y-37148951D01*
X48648372Y-37147724D01*
X48634426Y-37146070D01*
X48624685Y-37143948D01*
X48617853Y-37141320D01*
X48612633Y-37138147D01*
X48608529Y-37135019D01*
X48594647Y-37121167D01*
X48588332Y-37104363D01*
X48586938Y-37080690D01*
X48591741Y-37043620D01*
X48606826Y-37017667D01*
X48632262Y-37001428D01*
X48645763Y-36999104D01*
X48674102Y-36997017D01*
X48717444Y-36995164D01*
X48775952Y-36993540D01*
X48849792Y-36992142D01*
X48939126Y-36990963D01*
X49044121Y-36990002D01*
X49079063Y-36989752D01*
X49177677Y-36989055D01*
X49261944Y-36988302D01*
X49333391Y-36987356D01*
X49393545Y-36986083D01*
X49443933Y-36984345D01*
X49486084Y-36982008D01*
X49521523Y-36978936D01*
X49551780Y-36974991D01*
X49578380Y-36970039D01*
X49602851Y-36963944D01*
X49626721Y-36956569D01*
X49651517Y-36947779D01*
X49678765Y-36937438D01*
X49682313Y-36936071D01*
X49775929Y-36891779D01*
X49860166Y-36835082D01*
X49934093Y-36766878D01*
X49996777Y-36688066D01*
X50047288Y-36599544D01*
X50059420Y-36572435D01*
X50090987Y-36485455D01*
X50113587Y-36394318D01*
X50127756Y-36296008D01*
X50134031Y-36187507D01*
X50134458Y-36150813D01*
X50129091Y-36023125D01*
X50112468Y-35906613D01*
X50084543Y-35801213D01*
X50045272Y-35706864D01*
X49994612Y-35623502D01*
X49932517Y-35551065D01*
X49858943Y-35489490D01*
X49773846Y-35438714D01*
X49677181Y-35398675D01*
X49583094Y-35372403D01*
X49559054Y-35367306D01*
X49535439Y-35363177D01*
X49510052Y-35359867D01*
X49480696Y-35357229D01*
X49445176Y-35355116D01*
X49401295Y-35353380D01*
X49346855Y-35351873D01*
X49279661Y-35350448D01*
X49247069Y-35349838D01*
X48990419Y-35345156D01*
X48966410Y-35318270D01*
X48951160Y-35298567D01*
X48945672Y-35281593D01*
X48946956Y-35262707D01*
X48959511Y-35231309D01*
X48976705Y-35211327D01*
X49001898Y-35188623D01*
X49252809Y-35192881D01*
G36*
X48827597Y-33829134D02*
G01*
X48920562Y-33829275D01*
X49000374Y-33829547D01*
X49068393Y-33829982D01*
X49125980Y-33830609D01*
X49174496Y-33831460D01*
X49215301Y-33832564D01*
X49249757Y-33833953D01*
X49279224Y-33835657D01*
X49305063Y-33837707D01*
X49328634Y-33840134D01*
X49351298Y-33842968D01*
X49354247Y-33843367D01*
X49492951Y-33867469D01*
X49618428Y-33900153D01*
X49730884Y-33941542D01*
X49830526Y-33991759D01*
X49917561Y-34050926D01*
X49992196Y-34119168D01*
X50054637Y-34196606D01*
X50105090Y-34283365D01*
X50109903Y-34293453D01*
X50143565Y-34380356D01*
X50168423Y-34476049D01*
X50183702Y-34575630D01*
X50188627Y-34674192D01*
X50183476Y-34758712D01*
X50176591Y-34805885D01*
X50168508Y-34839791D01*
X50157923Y-34863038D01*
X50143535Y-34878235D01*
X50124041Y-34887990D01*
X50117935Y-34889969D01*
X50085476Y-34894253D01*
X50058182Y-34884866D01*
X50033302Y-34860773D01*
X50030462Y-34857000D01*
X50022964Y-34844818D01*
X50019776Y-34831701D01*
X50020552Y-34812826D01*
X50024944Y-34783368D01*
X50025108Y-34782390D01*
X50029217Y-34749077D01*
X50030310Y-34712924D01*
X50028389Y-34669219D01*
X50025221Y-34631262D01*
X50008750Y-34520147D01*
X49981213Y-34420326D01*
X49942391Y-34331557D01*
X49892064Y-34253599D01*
X49830013Y-34186211D01*
X49756018Y-34129151D01*
X49669859Y-34082179D01*
X49571317Y-34045053D01*
X49468000Y-34019076D01*
X49430662Y-34011904D01*
X49394422Y-34005757D01*
X49357732Y-34000559D01*
X49319043Y-33996235D01*
X49276808Y-33992707D01*
X49229477Y-33989898D01*
X49175504Y-33987733D01*
X49113340Y-33986135D01*
X49041436Y-33985026D01*
X48958245Y-33984331D01*
X48862219Y-33983973D01*
X48756215Y-33983875D01*
X48309125Y-33983875D01*
X48309125Y-35539252D01*
X48309096Y-35740719D01*
X48309009Y-35926689D01*
X48308860Y-36097536D01*
X48308648Y-36253638D01*
X48308372Y-36395370D01*
X48308028Y-36523109D01*
X48307614Y-36637231D01*
X48307129Y-36738113D01*
X48306570Y-36826132D01*
X48305936Y-36901662D01*
X48305224Y-36965082D01*
X48304432Y-37016766D01*
X48303558Y-37057093D01*
X48302600Y-37086437D01*
X48301555Y-37105175D01*
X48300422Y-37113685D01*
X48300312Y-37113970D01*
X48282252Y-37136544D01*
X48256047Y-37148514D01*
X48225770Y-37149411D01*
X48195495Y-37138768D01*
X48180266Y-37127776D01*
X48154344Y-37104615D01*
X48154344Y-33865253D01*
X48172431Y-33847174D01*
X48190518Y-33829094D01*
X48720118Y-33829094D01*
X48827597Y-33829134D01*
X48827597Y-33829134D01*
G37*
X48827597Y-33829134D02*
X48920562Y-33829275D01*
X49000374Y-33829547D01*
X49068393Y-33829982D01*
X49125980Y-33830609D01*
X49174496Y-33831460D01*
X49215301Y-33832564D01*
X49249757Y-33833953D01*
X49279224Y-33835657D01*
X49305063Y-33837707D01*
X49328634Y-33840134D01*
X49351298Y-33842968D01*
X49354247Y-33843367D01*
X49492951Y-33867469D01*
X49618428Y-33900153D01*
X49730884Y-33941542D01*
X49830526Y-33991759D01*
X49917561Y-34050926D01*
X49992196Y-34119168D01*
X50054637Y-34196606D01*
X50105090Y-34283365D01*
X50109903Y-34293453D01*
X50143565Y-34380356D01*
X50168423Y-34476049D01*
X50183702Y-34575630D01*
X50188627Y-34674192D01*
X50183476Y-34758712D01*
X50176591Y-34805885D01*
X50168508Y-34839791D01*
X50157923Y-34863038D01*
X50143535Y-34878235D01*
X50124041Y-34887990D01*
X50117935Y-34889969D01*
X50085476Y-34894253D01*
X50058182Y-34884866D01*
X50033302Y-34860773D01*
X50030462Y-34857000D01*
X50022964Y-34844818D01*
X50019776Y-34831701D01*
X50020552Y-34812826D01*
X50024944Y-34783368D01*
X50025108Y-34782390D01*
X50029217Y-34749077D01*
X50030310Y-34712924D01*
X50028389Y-34669219D01*
X50025221Y-34631262D01*
X50008750Y-34520147D01*
X49981213Y-34420326D01*
X49942391Y-34331557D01*
X49892064Y-34253599D01*
X49830013Y-34186211D01*
X49756018Y-34129151D01*
X49669859Y-34082179D01*
X49571317Y-34045053D01*
X49468000Y-34019076D01*
X49430662Y-34011904D01*
X49394422Y-34005757D01*
X49357732Y-34000559D01*
X49319043Y-33996235D01*
X49276808Y-33992707D01*
X49229477Y-33989898D01*
X49175504Y-33987733D01*
X49113340Y-33986135D01*
X49041436Y-33985026D01*
X48958245Y-33984331D01*
X48862219Y-33983973D01*
X48756215Y-33983875D01*
X48309125Y-33983875D01*
X48309125Y-35539252D01*
X48309096Y-35740719D01*
X48309009Y-35926689D01*
X48308860Y-36097536D01*
X48308648Y-36253638D01*
X48308372Y-36395370D01*
X48308028Y-36523109D01*
X48307614Y-36637231D01*
X48307129Y-36738113D01*
X48306570Y-36826132D01*
X48305936Y-36901662D01*
X48305224Y-36965082D01*
X48304432Y-37016766D01*
X48303558Y-37057093D01*
X48302600Y-37086437D01*
X48301555Y-37105175D01*
X48300422Y-37113685D01*
X48300312Y-37113970D01*
X48282252Y-37136544D01*
X48256047Y-37148514D01*
X48225770Y-37149411D01*
X48195495Y-37138768D01*
X48180266Y-37127776D01*
X48154344Y-37104615D01*
X48154344Y-33865253D01*
X48172431Y-33847174D01*
X48190518Y-33829094D01*
X48720118Y-33829094D01*
X48827597Y-33829134D01*
G36*
X55375071Y-35970629D02*
G01*
X55395616Y-35974209D01*
X55410671Y-35980152D01*
X55421227Y-35990767D01*
X55428271Y-36008365D01*
X55432792Y-36035253D01*
X55435779Y-36073742D01*
X55437849Y-36117299D01*
X55443420Y-36200213D01*
X55453257Y-36272056D01*
X55468461Y-36337310D01*
X55490133Y-36400459D01*
X55519374Y-36465989D01*
X55527410Y-36482113D01*
X55585439Y-36579331D01*
X55656485Y-36668786D01*
X55739253Y-36749582D01*
X55832446Y-36820820D01*
X55934767Y-36881602D01*
X56044919Y-36931029D01*
X56161606Y-36968203D01*
X56258295Y-36988436D01*
X56295016Y-36993776D01*
X56330123Y-36997832D01*
X56357603Y-36999939D01*
X56363958Y-37000093D01*
X56407543Y-37004961D01*
X56439320Y-37018996D01*
X56458564Y-37041484D01*
X56464551Y-37071711D01*
X56460844Y-37095723D01*
X56451412Y-37120833D01*
X56437335Y-37139032D01*
X56416739Y-37150777D01*
X56387751Y-37156523D01*
X56348500Y-37156725D01*
X56297112Y-37151839D01*
X56254563Y-37145884D01*
X56117611Y-37118186D01*
X55988274Y-37078042D01*
X55867339Y-37025972D01*
X55755595Y-36962496D01*
X55653832Y-36888133D01*
X55562839Y-36803403D01*
X55483403Y-36708826D01*
X55416315Y-36604921D01*
X55406731Y-36587375D01*
X55352356Y-36468694D01*
X55312828Y-36344941D01*
X55288500Y-36217397D01*
X55280893Y-36130746D01*
X55279507Y-36073822D01*
X55282035Y-36030924D01*
X55289397Y-36000492D01*
X55302512Y-35980962D01*
X55322299Y-35970774D01*
X55349676Y-35968363D01*
X55375071Y-35970629D01*
X55375071Y-35970629D01*
G37*
X55375071Y-35970629D02*
X55395616Y-35974209D01*
X55410671Y-35980152D01*
X55421227Y-35990767D01*
X55428271Y-36008365D01*
X55432792Y-36035253D01*
X55435779Y-36073742D01*
X55437849Y-36117299D01*
X55443420Y-36200213D01*
X55453257Y-36272056D01*
X55468461Y-36337310D01*
X55490133Y-36400459D01*
X55519374Y-36465989D01*
X55527410Y-36482113D01*
X55585439Y-36579331D01*
X55656485Y-36668786D01*
X55739253Y-36749582D01*
X55832446Y-36820820D01*
X55934767Y-36881602D01*
X56044919Y-36931029D01*
X56161606Y-36968203D01*
X56258295Y-36988436D01*
X56295016Y-36993776D01*
X56330123Y-36997832D01*
X56357603Y-36999939D01*
X56363958Y-37000093D01*
X56407543Y-37004961D01*
X56439320Y-37018996D01*
X56458564Y-37041484D01*
X56464551Y-37071711D01*
X56460844Y-37095723D01*
X56451412Y-37120833D01*
X56437335Y-37139032D01*
X56416739Y-37150777D01*
X56387751Y-37156523D01*
X56348500Y-37156725D01*
X56297112Y-37151839D01*
X56254563Y-37145884D01*
X56117611Y-37118186D01*
X55988274Y-37078042D01*
X55867339Y-37025972D01*
X55755595Y-36962496D01*
X55653832Y-36888133D01*
X55562839Y-36803403D01*
X55483403Y-36708826D01*
X55416315Y-36604921D01*
X55406731Y-36587375D01*
X55352356Y-36468694D01*
X55312828Y-36344941D01*
X55288500Y-36217397D01*
X55280893Y-36130746D01*
X55279507Y-36073822D01*
X55282035Y-36030924D01*
X55289397Y-36000492D01*
X55302512Y-35980962D01*
X55322299Y-35970774D01*
X55349676Y-35968363D01*
X55375071Y-35970629D01*
G36*
X54386995Y-33836120D02*
G01*
X54403964Y-33840519D01*
X54423555Y-33853721D01*
X54435845Y-33869691D01*
X54436944Y-33879950D01*
X54437976Y-33905148D01*
X54438942Y-33944367D01*
X54439841Y-33996693D01*
X54440674Y-34061208D01*
X54441441Y-34136998D01*
X54442141Y-34223145D01*
X54442775Y-34318734D01*
X54443343Y-34422849D01*
X54443845Y-34534574D01*
X54444281Y-34652992D01*
X54444652Y-34777188D01*
X54444956Y-34906246D01*
X54445195Y-35039249D01*
X54445368Y-35175281D01*
X54445476Y-35313427D01*
X54445518Y-35452771D01*
X54445494Y-35592396D01*
X54445406Y-35731386D01*
X54445252Y-35868825D01*
X54445033Y-36003798D01*
X54444748Y-36135387D01*
X54444399Y-36262678D01*
X54443985Y-36384754D01*
X54443506Y-36500699D01*
X54442962Y-36609597D01*
X54442353Y-36710531D01*
X54441680Y-36802587D01*
X54440942Y-36884847D01*
X54440140Y-36956396D01*
X54439273Y-37016318D01*
X54438342Y-37063697D01*
X54437346Y-37097616D01*
X54436287Y-37117160D01*
X54435578Y-37121694D01*
X54417782Y-37144856D01*
X54393385Y-37156206D01*
X54369406Y-37158370D01*
X54345954Y-37156046D01*
X54328154Y-37150299D01*
X54325750Y-37148701D01*
X54321364Y-37145459D01*
X54317353Y-37142712D01*
X54313698Y-37139773D01*
X54310379Y-37135954D01*
X54307380Y-37130568D01*
X54304682Y-37122928D01*
X54302265Y-37112346D01*
X54300112Y-37098135D01*
X54298204Y-37079607D01*
X54296523Y-37056076D01*
X54295050Y-37026853D01*
X54293767Y-36991251D01*
X54292655Y-36948583D01*
X54291697Y-36898162D01*
X54290872Y-36839300D01*
X54290164Y-36771310D01*
X54289553Y-36693504D01*
X54289022Y-36605195D01*
X54288551Y-36505696D01*
X54288122Y-36394319D01*
X54287717Y-36270377D01*
X54287318Y-36133182D01*
X54286905Y-35982047D01*
X54286461Y-35816285D01*
X54286063Y-35669900D01*
X54282094Y-34230989D01*
X53825951Y-35065885D01*
X53726230Y-35248421D01*
X53633844Y-35417542D01*
X53548508Y-35573762D01*
X53469936Y-35717591D01*
X53397841Y-35849541D01*
X53331939Y-35970125D01*
X53271942Y-36079853D01*
X53217565Y-36179238D01*
X53168522Y-36268792D01*
X53124526Y-36349025D01*
X53085292Y-36420450D01*
X53050534Y-36483579D01*
X53019965Y-36538923D01*
X52993299Y-36586994D01*
X52970252Y-36628304D01*
X52950535Y-36663364D01*
X52933864Y-36692687D01*
X52919953Y-36716783D01*
X52908515Y-36736166D01*
X52899264Y-36751345D01*
X52891914Y-36762834D01*
X52886180Y-36771144D01*
X52881775Y-36776787D01*
X52878413Y-36780274D01*
X52875809Y-36782117D01*
X52873675Y-36782827D01*
X52871727Y-36782918D01*
X52869678Y-36782900D01*
X52867242Y-36783285D01*
X52865731Y-36783813D01*
X52847027Y-36790297D01*
X52831853Y-36790164D01*
X52812637Y-36782860D01*
X52805345Y-36779378D01*
X52776446Y-36758955D01*
X52759512Y-36733052D01*
X52756093Y-36704633D01*
X52759471Y-36691565D01*
X52764273Y-36681995D01*
X52776228Y-36659391D01*
X52794897Y-36624555D01*
X52819841Y-36578289D01*
X52850622Y-36521394D01*
X52886801Y-36454674D01*
X52927939Y-36378930D01*
X52973598Y-36294965D01*
X53023340Y-36203580D01*
X53076725Y-36105578D01*
X53133315Y-36001761D01*
X53192672Y-35892931D01*
X53254356Y-35779891D01*
X53317930Y-35663442D01*
X53382955Y-35544387D01*
X53448991Y-35423527D01*
X53515601Y-35301665D01*
X53582346Y-35179604D01*
X53648787Y-35058144D01*
X53714486Y-34938089D01*
X53779004Y-34820241D01*
X53841903Y-34705401D01*
X53902743Y-34594372D01*
X53961086Y-34487957D01*
X54016495Y-34386956D01*
X54068529Y-34292173D01*
X54116751Y-34204409D01*
X54160722Y-34124467D01*
X54200003Y-34053148D01*
X54234156Y-33991256D01*
X54262741Y-33939592D01*
X54285322Y-33898958D01*
X54301458Y-33870156D01*
X54310711Y-33853989D01*
X54312807Y-33850656D01*
X54331556Y-33840511D01*
X54358613Y-33835407D01*
X54386995Y-33836120D01*
X54386995Y-33836120D01*
G37*
X54386995Y-33836120D02*
X54403964Y-33840519D01*
X54423555Y-33853721D01*
X54435845Y-33869691D01*
X54436944Y-33879950D01*
X54437976Y-33905148D01*
X54438942Y-33944367D01*
X54439841Y-33996693D01*
X54440674Y-34061208D01*
X54441441Y-34136998D01*
X54442141Y-34223145D01*
X54442775Y-34318734D01*
X54443343Y-34422849D01*
X54443845Y-34534574D01*
X54444281Y-34652992D01*
X54444652Y-34777188D01*
X54444956Y-34906246D01*
X54445195Y-35039249D01*
X54445368Y-35175281D01*
X54445476Y-35313427D01*
X54445518Y-35452771D01*
X54445494Y-35592396D01*
X54445406Y-35731386D01*
X54445252Y-35868825D01*
X54445033Y-36003798D01*
X54444748Y-36135387D01*
X54444399Y-36262678D01*
X54443985Y-36384754D01*
X54443506Y-36500699D01*
X54442962Y-36609597D01*
X54442353Y-36710531D01*
X54441680Y-36802587D01*
X54440942Y-36884847D01*
X54440140Y-36956396D01*
X54439273Y-37016318D01*
X54438342Y-37063697D01*
X54437346Y-37097616D01*
X54436287Y-37117160D01*
X54435578Y-37121694D01*
X54417782Y-37144856D01*
X54393385Y-37156206D01*
X54369406Y-37158370D01*
X54345954Y-37156046D01*
X54328154Y-37150299D01*
X54325750Y-37148701D01*
X54321364Y-37145459D01*
X54317353Y-37142712D01*
X54313698Y-37139773D01*
X54310379Y-37135954D01*
X54307380Y-37130568D01*
X54304682Y-37122928D01*
X54302265Y-37112346D01*
X54300112Y-37098135D01*
X54298204Y-37079607D01*
X54296523Y-37056076D01*
X54295050Y-37026853D01*
X54293767Y-36991251D01*
X54292655Y-36948583D01*
X54291697Y-36898162D01*
X54290872Y-36839300D01*
X54290164Y-36771310D01*
X54289553Y-36693504D01*
X54289022Y-36605195D01*
X54288551Y-36505696D01*
X54288122Y-36394319D01*
X54287717Y-36270377D01*
X54287318Y-36133182D01*
X54286905Y-35982047D01*
X54286461Y-35816285D01*
X54286063Y-35669900D01*
X54282094Y-34230989D01*
X53825951Y-35065885D01*
X53726230Y-35248421D01*
X53633844Y-35417542D01*
X53548508Y-35573762D01*
X53469936Y-35717591D01*
X53397841Y-35849541D01*
X53331939Y-35970125D01*
X53271942Y-36079853D01*
X53217565Y-36179238D01*
X53168522Y-36268792D01*
X53124526Y-36349025D01*
X53085292Y-36420450D01*
X53050534Y-36483579D01*
X53019965Y-36538923D01*
X52993299Y-36586994D01*
X52970252Y-36628304D01*
X52950535Y-36663364D01*
X52933864Y-36692687D01*
X52919953Y-36716783D01*
X52908515Y-36736166D01*
X52899264Y-36751345D01*
X52891914Y-36762834D01*
X52886180Y-36771144D01*
X52881775Y-36776787D01*
X52878413Y-36780274D01*
X52875809Y-36782117D01*
X52873675Y-36782827D01*
X52871727Y-36782918D01*
X52869678Y-36782900D01*
X52867242Y-36783285D01*
X52865731Y-36783813D01*
X52847027Y-36790297D01*
X52831853Y-36790164D01*
X52812637Y-36782860D01*
X52805345Y-36779378D01*
X52776446Y-36758955D01*
X52759512Y-36733052D01*
X52756093Y-36704633D01*
X52759471Y-36691565D01*
X52764273Y-36681995D01*
X52776228Y-36659391D01*
X52794897Y-36624555D01*
X52819841Y-36578289D01*
X52850622Y-36521394D01*
X52886801Y-36454674D01*
X52927939Y-36378930D01*
X52973598Y-36294965D01*
X53023340Y-36203580D01*
X53076725Y-36105578D01*
X53133315Y-36001761D01*
X53192672Y-35892931D01*
X53254356Y-35779891D01*
X53317930Y-35663442D01*
X53382955Y-35544387D01*
X53448991Y-35423527D01*
X53515601Y-35301665D01*
X53582346Y-35179604D01*
X53648787Y-35058144D01*
X53714486Y-34938089D01*
X53779004Y-34820241D01*
X53841903Y-34705401D01*
X53902743Y-34594372D01*
X53961086Y-34487957D01*
X54016495Y-34386956D01*
X54068529Y-34292173D01*
X54116751Y-34204409D01*
X54160722Y-34124467D01*
X54200003Y-34053148D01*
X54234156Y-33991256D01*
X54262741Y-33939592D01*
X54285322Y-33898958D01*
X54301458Y-33870156D01*
X54310711Y-33853989D01*
X54312807Y-33850656D01*
X54331556Y-33840511D01*
X54358613Y-33835407D01*
X54386995Y-33836120D01*
G36*
X53958772Y-37002808D02*
G01*
X53991307Y-37015067D01*
X54013559Y-37038591D01*
X54023698Y-37071208D01*
X54024125Y-37080337D01*
X54020159Y-37111562D01*
X54009732Y-37139037D01*
X53995048Y-37157778D01*
X53988051Y-37161882D01*
X53960078Y-37166442D01*
X53927836Y-37163133D01*
X53903178Y-37154387D01*
X53880799Y-37135111D01*
X53864089Y-37107847D01*
X53857438Y-37079784D01*
X53857438Y-37079500D01*
X53864558Y-37047686D01*
X53883895Y-37022570D01*
X53912413Y-37006450D01*
X53947076Y-37001624D01*
X53958772Y-37002808D01*
X53958772Y-37002808D01*
G37*
X53958772Y-37002808D02*
X53991307Y-37015067D01*
X54013559Y-37038591D01*
X54023698Y-37071208D01*
X54024125Y-37080337D01*
X54020159Y-37111562D01*
X54009732Y-37139037D01*
X53995048Y-37157778D01*
X53988051Y-37161882D01*
X53960078Y-37166442D01*
X53927836Y-37163133D01*
X53903178Y-37154387D01*
X53880799Y-37135111D01*
X53864089Y-37107847D01*
X53857438Y-37079784D01*
X53857438Y-37079500D01*
X53864558Y-37047686D01*
X53883895Y-37022570D01*
X53912413Y-37006450D01*
X53947076Y-37001624D01*
X53958772Y-37002808D01*
G36*
X51871968Y-35523628D02*
G01*
X51899304Y-35535152D01*
X51917830Y-35554474D01*
X51918366Y-35555500D01*
X51920107Y-35562105D01*
X51921651Y-35575155D01*
X51923007Y-35595449D01*
X51924185Y-35623785D01*
X51925197Y-35660963D01*
X51926052Y-35707782D01*
X51926760Y-35765041D01*
X51927333Y-35833539D01*
X51927779Y-35914076D01*
X51928110Y-36007450D01*
X51928335Y-36114461D01*
X51928465Y-36235908D01*
X51928508Y-36344091D01*
X51928625Y-37112838D01*
X51901638Y-37139825D01*
X51873117Y-37161130D01*
X51845196Y-37166694D01*
X51816763Y-37156558D01*
X51799766Y-37143651D01*
X51773844Y-37120490D01*
X51773844Y-36338828D01*
X51773855Y-36209902D01*
X51773899Y-36095911D01*
X51773994Y-35995917D01*
X51774156Y-35908979D01*
X51774401Y-35834158D01*
X51774748Y-35770514D01*
X51775212Y-35717109D01*
X51775810Y-35673002D01*
X51776560Y-35637255D01*
X51777477Y-35608927D01*
X51778580Y-35587079D01*
X51779885Y-35570772D01*
X51781408Y-35559067D01*
X51783166Y-35551023D01*
X51785177Y-35545701D01*
X51787457Y-35542162D01*
X51788140Y-35541369D01*
X51811283Y-35526182D01*
X51840927Y-35520453D01*
X51871968Y-35523628D01*
X51871968Y-35523628D01*
G37*
X51871968Y-35523628D02*
X51899304Y-35535152D01*
X51917830Y-35554474D01*
X51918366Y-35555500D01*
X51920107Y-35562105D01*
X51921651Y-35575155D01*
X51923007Y-35595449D01*
X51924185Y-35623785D01*
X51925197Y-35660963D01*
X51926052Y-35707782D01*
X51926760Y-35765041D01*
X51927333Y-35833539D01*
X51927779Y-35914076D01*
X51928110Y-36007450D01*
X51928335Y-36114461D01*
X51928465Y-36235908D01*
X51928508Y-36344091D01*
X51928625Y-37112838D01*
X51901638Y-37139825D01*
X51873117Y-37161130D01*
X51845196Y-37166694D01*
X51816763Y-37156558D01*
X51799766Y-37143651D01*
X51773844Y-37120490D01*
X51773844Y-36338828D01*
X51773855Y-36209902D01*
X51773899Y-36095911D01*
X51773994Y-35995917D01*
X51774156Y-35908979D01*
X51774401Y-35834158D01*
X51774748Y-35770514D01*
X51775212Y-35717109D01*
X51775810Y-35673002D01*
X51776560Y-35637255D01*
X51777477Y-35608927D01*
X51778580Y-35587079D01*
X51779885Y-35570772D01*
X51781408Y-35559067D01*
X51783166Y-35551023D01*
X51785177Y-35545701D01*
X51787457Y-35542162D01*
X51788140Y-35541369D01*
X51811283Y-35526182D01*
X51840927Y-35520453D01*
X51871968Y-35523628D01*
G36*
X51463461Y-33842070D02*
G01*
X51465787Y-33843305D01*
X51468369Y-33845271D01*
X51471487Y-33848497D01*
X51475419Y-33853510D01*
X51480446Y-33860837D01*
X51486847Y-33871006D01*
X51494902Y-33884544D01*
X51504889Y-33901978D01*
X51517089Y-33923836D01*
X51531781Y-33950646D01*
X51549244Y-33982934D01*
X51569759Y-34021227D01*
X51593604Y-34066055D01*
X51621059Y-34117943D01*
X51652404Y-34177419D01*
X51687918Y-34245010D01*
X51727881Y-34321245D01*
X51772572Y-34406650D01*
X51822270Y-34501752D01*
X51877256Y-34607080D01*
X51937808Y-34723160D01*
X52004206Y-34850520D01*
X52076731Y-34989687D01*
X52155660Y-35141188D01*
X52241274Y-35305552D01*
X52333853Y-35483305D01*
X52364152Y-35541482D01*
X52406422Y-35622447D01*
X52446634Y-35699091D01*
X52484181Y-35770278D01*
X52518454Y-35834871D01*
X52548844Y-35891738D01*
X52574745Y-35939741D01*
X52595546Y-35977746D01*
X52610641Y-36004618D01*
X52619420Y-36019221D01*
X52621417Y-36021619D01*
X52625969Y-36014589D01*
X52637823Y-35994498D01*
X52656531Y-35962140D01*
X52681643Y-35918307D01*
X52712711Y-35863792D01*
X52749286Y-35799388D01*
X52790918Y-35725888D01*
X52837160Y-35644086D01*
X52887562Y-35554775D01*
X52941675Y-35458746D01*
X52999050Y-35356795D01*
X53059238Y-35249712D01*
X53121791Y-35138293D01*
X53161632Y-35067262D01*
X53236986Y-34932894D01*
X53304996Y-34811696D01*
X53366062Y-34702980D01*
X53420585Y-34606059D01*
X53468965Y-34520245D01*
X53511603Y-34444849D01*
X53548899Y-34379186D01*
X53581254Y-34322566D01*
X53609069Y-34274302D01*
X53632743Y-34233708D01*
X53652679Y-34200094D01*
X53669276Y-34172773D01*
X53682935Y-34151058D01*
X53694056Y-34134260D01*
X53703041Y-34121694D01*
X53710289Y-34112669D01*
X53716201Y-34106500D01*
X53721178Y-34102498D01*
X53724902Y-34100322D01*
X53758112Y-34091211D01*
X53788648Y-34095904D01*
X53813421Y-34112526D01*
X53829340Y-34139201D01*
X53833625Y-34166315D01*
X53832266Y-34172690D01*
X53827978Y-34183928D01*
X53820439Y-34200615D01*
X53809330Y-34223335D01*
X53794332Y-34252676D01*
X53775125Y-34289223D01*
X53751389Y-34333562D01*
X53722805Y-34386280D01*
X53689052Y-34447961D01*
X53649812Y-34519193D01*
X53604764Y-34600561D01*
X53553589Y-34692650D01*
X53495967Y-34796048D01*
X53431578Y-34911340D01*
X53360103Y-35039111D01*
X53281221Y-35179948D01*
X53257531Y-35222220D01*
X53191140Y-35340609D01*
X53126761Y-35455299D01*
X53064830Y-35565517D01*
X53005783Y-35670489D01*
X52950058Y-35769443D01*
X52898093Y-35861605D01*
X52850322Y-35946203D01*
X52807185Y-36022462D01*
X52769118Y-36089611D01*
X52736557Y-36146875D01*
X52709941Y-36193482D01*
X52689705Y-36228658D01*
X52676287Y-36251630D01*
X52670124Y-36261625D01*
X52669872Y-36261938D01*
X52651810Y-36271076D01*
X52625468Y-36274360D01*
X52597228Y-36272030D01*
X52573467Y-36264327D01*
X52564697Y-36257969D01*
X52559292Y-36249159D01*
X52547007Y-36227065D01*
X52528269Y-36192498D01*
X52503505Y-36146266D01*
X52473140Y-36089180D01*
X52437603Y-36022049D01*
X52397319Y-35945683D01*
X52352715Y-35860893D01*
X52304218Y-35768487D01*
X52252254Y-35669276D01*
X52197251Y-35564070D01*
X52139635Y-35453678D01*
X52079832Y-35338910D01*
X52030679Y-35244445D01*
X51511906Y-34246796D01*
X51507938Y-35687648D01*
X51503969Y-37128501D01*
X51481698Y-37147657D01*
X51464043Y-37160380D01*
X51446695Y-37164921D01*
X51422799Y-37162687D01*
X51415282Y-37161291D01*
X51392312Y-37150150D01*
X51370937Y-37129014D01*
X51356143Y-37103398D01*
X51353068Y-37092501D01*
X51352640Y-37082194D01*
X51352244Y-37056776D01*
X51351883Y-37017013D01*
X51351557Y-36963668D01*
X51351268Y-36897507D01*
X51351017Y-36819294D01*
X51350804Y-36729792D01*
X51350631Y-36629768D01*
X51350498Y-36519986D01*
X51350407Y-36401210D01*
X51350358Y-36274204D01*
X51350354Y-36139734D01*
X51350394Y-35998564D01*
X51350480Y-35851457D01*
X51350612Y-35699180D01*
X51350792Y-35542497D01*
X51350891Y-35469484D01*
X51353156Y-33871375D01*
X51375427Y-33852219D01*
X51405488Y-33836126D01*
X51439605Y-33834647D01*
X51463461Y-33842070D01*
X51463461Y-33842070D01*
G37*
X51463461Y-33842070D02*
X51465787Y-33843305D01*
X51468369Y-33845271D01*
X51471487Y-33848497D01*
X51475419Y-33853510D01*
X51480446Y-33860837D01*
X51486847Y-33871006D01*
X51494902Y-33884544D01*
X51504889Y-33901978D01*
X51517089Y-33923836D01*
X51531781Y-33950646D01*
X51549244Y-33982934D01*
X51569759Y-34021227D01*
X51593604Y-34066055D01*
X51621059Y-34117943D01*
X51652404Y-34177419D01*
X51687918Y-34245010D01*
X51727881Y-34321245D01*
X51772572Y-34406650D01*
X51822270Y-34501752D01*
X51877256Y-34607080D01*
X51937808Y-34723160D01*
X52004206Y-34850520D01*
X52076731Y-34989687D01*
X52155660Y-35141188D01*
X52241274Y-35305552D01*
X52333853Y-35483305D01*
X52364152Y-35541482D01*
X52406422Y-35622447D01*
X52446634Y-35699091D01*
X52484181Y-35770278D01*
X52518454Y-35834871D01*
X52548844Y-35891738D01*
X52574745Y-35939741D01*
X52595546Y-35977746D01*
X52610641Y-36004618D01*
X52619420Y-36019221D01*
X52621417Y-36021619D01*
X52625969Y-36014589D01*
X52637823Y-35994498D01*
X52656531Y-35962140D01*
X52681643Y-35918307D01*
X52712711Y-35863792D01*
X52749286Y-35799388D01*
X52790918Y-35725888D01*
X52837160Y-35644086D01*
X52887562Y-35554775D01*
X52941675Y-35458746D01*
X52999050Y-35356795D01*
X53059238Y-35249712D01*
X53121791Y-35138293D01*
X53161632Y-35067262D01*
X53236986Y-34932894D01*
X53304996Y-34811696D01*
X53366062Y-34702980D01*
X53420585Y-34606059D01*
X53468965Y-34520245D01*
X53511603Y-34444849D01*
X53548899Y-34379186D01*
X53581254Y-34322566D01*
X53609069Y-34274302D01*
X53632743Y-34233708D01*
X53652679Y-34200094D01*
X53669276Y-34172773D01*
X53682935Y-34151058D01*
X53694056Y-34134260D01*
X53703041Y-34121694D01*
X53710289Y-34112669D01*
X53716201Y-34106500D01*
X53721178Y-34102498D01*
X53724902Y-34100322D01*
X53758112Y-34091211D01*
X53788648Y-34095904D01*
X53813421Y-34112526D01*
X53829340Y-34139201D01*
X53833625Y-34166315D01*
X53832266Y-34172690D01*
X53827978Y-34183928D01*
X53820439Y-34200615D01*
X53809330Y-34223335D01*
X53794332Y-34252676D01*
X53775125Y-34289223D01*
X53751389Y-34333562D01*
X53722805Y-34386280D01*
X53689052Y-34447961D01*
X53649812Y-34519193D01*
X53604764Y-34600561D01*
X53553589Y-34692650D01*
X53495967Y-34796048D01*
X53431578Y-34911340D01*
X53360103Y-35039111D01*
X53281221Y-35179948D01*
X53257531Y-35222220D01*
X53191140Y-35340609D01*
X53126761Y-35455299D01*
X53064830Y-35565517D01*
X53005783Y-35670489D01*
X52950058Y-35769443D01*
X52898093Y-35861605D01*
X52850322Y-35946203D01*
X52807185Y-36022462D01*
X52769118Y-36089611D01*
X52736557Y-36146875D01*
X52709941Y-36193482D01*
X52689705Y-36228658D01*
X52676287Y-36251630D01*
X52670124Y-36261625D01*
X52669872Y-36261938D01*
X52651810Y-36271076D01*
X52625468Y-36274360D01*
X52597228Y-36272030D01*
X52573467Y-36264327D01*
X52564697Y-36257969D01*
X52559292Y-36249159D01*
X52547007Y-36227065D01*
X52528269Y-36192498D01*
X52503505Y-36146266D01*
X52473140Y-36089180D01*
X52437603Y-36022049D01*
X52397319Y-35945683D01*
X52352715Y-35860893D01*
X52304218Y-35768487D01*
X52252254Y-35669276D01*
X52197251Y-35564070D01*
X52139635Y-35453678D01*
X52079832Y-35338910D01*
X52030679Y-35244445D01*
X51511906Y-34246796D01*
X51507938Y-35687648D01*
X51503969Y-37128501D01*
X51481698Y-37147657D01*
X51464043Y-37160380D01*
X51446695Y-37164921D01*
X51422799Y-37162687D01*
X51415282Y-37161291D01*
X51392312Y-37150150D01*
X51370937Y-37129014D01*
X51356143Y-37103398D01*
X51353068Y-37092501D01*
X51352640Y-37082194D01*
X51352244Y-37056776D01*
X51351883Y-37017013D01*
X51351557Y-36963668D01*
X51351268Y-36897507D01*
X51351017Y-36819294D01*
X51350804Y-36729792D01*
X51350631Y-36629768D01*
X51350498Y-36519986D01*
X51350407Y-36401210D01*
X51350358Y-36274204D01*
X51350354Y-36139734D01*
X51350394Y-35998564D01*
X51350480Y-35851457D01*
X51350612Y-35699180D01*
X51350792Y-35542497D01*
X51350891Y-35469484D01*
X51353156Y-33871375D01*
X51375427Y-33852219D01*
X51405488Y-33836126D01*
X51439605Y-33834647D01*
X51463461Y-33842070D01*
G36*
X45991457Y-35720203D02*
G01*
X45991563Y-35845385D01*
X45991847Y-35963650D01*
X45992298Y-36074030D01*
X45992907Y-36175559D01*
X45993665Y-36267271D01*
X45994561Y-36348200D01*
X45995587Y-36417379D01*
X45996732Y-36473841D01*
X45997987Y-36516621D01*
X45999343Y-36544752D01*
X45999722Y-36549684D01*
X46010776Y-36640060D01*
X46027243Y-36717109D01*
X46049787Y-36782653D01*
X46079069Y-36838510D01*
X46115751Y-36886503D01*
X46126239Y-36897571D01*
X46182908Y-36944033D01*
X46247628Y-36977798D01*
X46318844Y-36998805D01*
X46395002Y-37006995D01*
X46474547Y-37002309D01*
X46555924Y-36984686D01*
X46637579Y-36954069D01*
X46703033Y-36919596D01*
X46748746Y-36887621D01*
X46798681Y-36844711D01*
X46849621Y-36793954D01*
X46898352Y-36738440D01*
X46919614Y-36711535D01*
X46975625Y-36637988D01*
X46975625Y-34984000D01*
X47323991Y-34984000D01*
X47326987Y-35863078D01*
X47327478Y-36001626D01*
X47327962Y-36125212D01*
X47328455Y-36234751D01*
X47328974Y-36331156D01*
X47329535Y-36415341D01*
X47330152Y-36488219D01*
X47330842Y-36550704D01*
X47331621Y-36603710D01*
X47332505Y-36648151D01*
X47333509Y-36684940D01*
X47334649Y-36714990D01*
X47335941Y-36739217D01*
X47337402Y-36758532D01*
X47339046Y-36773850D01*
X47340890Y-36786085D01*
X47342949Y-36796150D01*
X47343186Y-36797149D01*
X47360248Y-36850999D01*
X47383069Y-36890884D01*
X47413235Y-36918153D01*
X47452333Y-36934160D01*
X47501950Y-36940254D01*
X47511406Y-36940402D01*
X47545041Y-36939323D01*
X47570684Y-36934565D01*
X47596119Y-36924205D01*
X47613005Y-36915334D01*
X47659042Y-36890098D01*
X47656661Y-36931017D01*
X47654281Y-36971935D01*
X47455844Y-37081211D01*
X47403089Y-37109876D01*
X47354315Y-37135644D01*
X47311448Y-37157552D01*
X47276413Y-37174640D01*
X47251136Y-37185945D01*
X47237543Y-37190507D01*
X47236846Y-37190556D01*
X47219357Y-37187100D01*
X47193676Y-37177994D01*
X47166808Y-37165901D01*
X47129083Y-37142693D01*
X47097924Y-37113132D01*
X47072287Y-37075314D01*
X47051127Y-37027337D01*
X47033399Y-36967296D01*
X47018479Y-36895643D01*
X47012196Y-36862374D01*
X47006355Y-36834636D01*
X47001829Y-36816439D01*
X47000275Y-36812059D01*
X46992726Y-36813485D01*
X46974989Y-36825551D01*
X46947974Y-36847547D01*
X46912594Y-36878761D01*
X46900155Y-36890121D01*
X46812496Y-36968692D01*
X46732975Y-37035317D01*
X46660174Y-37090728D01*
X46592674Y-37135656D01*
X46529058Y-37170831D01*
X46467907Y-37196986D01*
X46407803Y-37214850D01*
X46347328Y-37225156D01*
X46285064Y-37228634D01*
X46245375Y-37227704D01*
X46150895Y-37216930D01*
X46066631Y-37194296D01*
X45991972Y-37159367D01*
X45926309Y-37111708D01*
X45869030Y-37050882D01*
X45819525Y-36976455D01*
X45780521Y-36896073D01*
X45752634Y-36829469D01*
X45755696Y-37023938D01*
X45756686Y-37080341D01*
X45757899Y-37127591D01*
X45759627Y-37168809D01*
X45762163Y-37207118D01*
X45765799Y-37245638D01*
X45770827Y-37287491D01*
X45777541Y-37335800D01*
X45786233Y-37393686D01*
X45796605Y-37460500D01*
X45811200Y-37556712D01*
X45822518Y-37638892D01*
X45830514Y-37708550D01*
X45835141Y-37767198D01*
X45836353Y-37816345D01*
X45834105Y-37857503D01*
X45828350Y-37892183D01*
X45819042Y-37921894D01*
X45806135Y-37948149D01*
X45789583Y-37972457D01*
X45780631Y-37983520D01*
X45745150Y-38013814D01*
X45701594Y-38032709D01*
X45653852Y-38039237D01*
X45605813Y-38032431D01*
X45596396Y-38029342D01*
X45552781Y-38005222D01*
X45516164Y-37967594D01*
X45493983Y-37931006D01*
X45483708Y-37908722D01*
X45477199Y-37889319D01*
X45473671Y-37868102D01*
X45472340Y-37840377D01*
X45472420Y-37801813D01*
X45474870Y-37752384D01*
X45481128Y-37689347D01*
X45490992Y-37614456D01*
X45501891Y-37543844D01*
X45512889Y-37475618D01*
X45522451Y-37414023D01*
X45530993Y-37355907D01*
X45538929Y-37298116D01*
X45546677Y-37237496D01*
X45554653Y-37170894D01*
X45563271Y-37095158D01*
X45572949Y-37007133D01*
X45574140Y-36996156D01*
X45584205Y-36901767D01*
X45593118Y-36814243D01*
X45600960Y-36731911D01*
X45607809Y-36653095D01*
X45613744Y-36576119D01*
X45618844Y-36499309D01*
X45623188Y-36420988D01*
X45626855Y-36339482D01*
X45629925Y-36253115D01*
X45632475Y-36160212D01*
X45634585Y-36059097D01*
X45636334Y-35948096D01*
X45637802Y-35825533D01*
X45639066Y-35689732D01*
X45639731Y-35605109D01*
X45644359Y-34984000D01*
X45991375Y-34984000D01*
X45991457Y-35720203D01*
X45991457Y-35720203D01*
G37*
X45991457Y-35720203D02*
X45991563Y-35845385D01*
X45991847Y-35963650D01*
X45992298Y-36074030D01*
X45992907Y-36175559D01*
X45993665Y-36267271D01*
X45994561Y-36348200D01*
X45995587Y-36417379D01*
X45996732Y-36473841D01*
X45997987Y-36516621D01*
X45999343Y-36544752D01*
X45999722Y-36549684D01*
X46010776Y-36640060D01*
X46027243Y-36717109D01*
X46049787Y-36782653D01*
X46079069Y-36838510D01*
X46115751Y-36886503D01*
X46126239Y-36897571D01*
X46182908Y-36944033D01*
X46247628Y-36977798D01*
X46318844Y-36998805D01*
X46395002Y-37006995D01*
X46474547Y-37002309D01*
X46555924Y-36984686D01*
X46637579Y-36954069D01*
X46703033Y-36919596D01*
X46748746Y-36887621D01*
X46798681Y-36844711D01*
X46849621Y-36793954D01*
X46898352Y-36738440D01*
X46919614Y-36711535D01*
X46975625Y-36637988D01*
X46975625Y-34984000D01*
X47323991Y-34984000D01*
X47326987Y-35863078D01*
X47327478Y-36001626D01*
X47327962Y-36125212D01*
X47328455Y-36234751D01*
X47328974Y-36331156D01*
X47329535Y-36415341D01*
X47330152Y-36488219D01*
X47330842Y-36550704D01*
X47331621Y-36603710D01*
X47332505Y-36648151D01*
X47333509Y-36684940D01*
X47334649Y-36714990D01*
X47335941Y-36739217D01*
X47337402Y-36758532D01*
X47339046Y-36773850D01*
X47340890Y-36786085D01*
X47342949Y-36796150D01*
X47343186Y-36797149D01*
X47360248Y-36850999D01*
X47383069Y-36890884D01*
X47413235Y-36918153D01*
X47452333Y-36934160D01*
X47501950Y-36940254D01*
X47511406Y-36940402D01*
X47545041Y-36939323D01*
X47570684Y-36934565D01*
X47596119Y-36924205D01*
X47613005Y-36915334D01*
X47659042Y-36890098D01*
X47656661Y-36931017D01*
X47654281Y-36971935D01*
X47455844Y-37081211D01*
X47403089Y-37109876D01*
X47354315Y-37135644D01*
X47311448Y-37157552D01*
X47276413Y-37174640D01*
X47251136Y-37185945D01*
X47237543Y-37190507D01*
X47236846Y-37190556D01*
X47219357Y-37187100D01*
X47193676Y-37177994D01*
X47166808Y-37165901D01*
X47129083Y-37142693D01*
X47097924Y-37113132D01*
X47072287Y-37075314D01*
X47051127Y-37027337D01*
X47033399Y-36967296D01*
X47018479Y-36895643D01*
X47012196Y-36862374D01*
X47006355Y-36834636D01*
X47001829Y-36816439D01*
X47000275Y-36812059D01*
X46992726Y-36813485D01*
X46974989Y-36825551D01*
X46947974Y-36847547D01*
X46912594Y-36878761D01*
X46900155Y-36890121D01*
X46812496Y-36968692D01*
X46732975Y-37035317D01*
X46660174Y-37090728D01*
X46592674Y-37135656D01*
X46529058Y-37170831D01*
X46467907Y-37196986D01*
X46407803Y-37214850D01*
X46347328Y-37225156D01*
X46285064Y-37228634D01*
X46245375Y-37227704D01*
X46150895Y-37216930D01*
X46066631Y-37194296D01*
X45991972Y-37159367D01*
X45926309Y-37111708D01*
X45869030Y-37050882D01*
X45819525Y-36976455D01*
X45780521Y-36896073D01*
X45752634Y-36829469D01*
X45755696Y-37023938D01*
X45756686Y-37080341D01*
X45757899Y-37127591D01*
X45759627Y-37168809D01*
X45762163Y-37207118D01*
X45765799Y-37245638D01*
X45770827Y-37287491D01*
X45777541Y-37335800D01*
X45786233Y-37393686D01*
X45796605Y-37460500D01*
X45811200Y-37556712D01*
X45822518Y-37638892D01*
X45830514Y-37708550D01*
X45835141Y-37767198D01*
X45836353Y-37816345D01*
X45834105Y-37857503D01*
X45828350Y-37892183D01*
X45819042Y-37921894D01*
X45806135Y-37948149D01*
X45789583Y-37972457D01*
X45780631Y-37983520D01*
X45745150Y-38013814D01*
X45701594Y-38032709D01*
X45653852Y-38039237D01*
X45605813Y-38032431D01*
X45596396Y-38029342D01*
X45552781Y-38005222D01*
X45516164Y-37967594D01*
X45493983Y-37931006D01*
X45483708Y-37908722D01*
X45477199Y-37889319D01*
X45473671Y-37868102D01*
X45472340Y-37840377D01*
X45472420Y-37801813D01*
X45474870Y-37752384D01*
X45481128Y-37689347D01*
X45490992Y-37614456D01*
X45501891Y-37543844D01*
X45512889Y-37475618D01*
X45522451Y-37414023D01*
X45530993Y-37355907D01*
X45538929Y-37298116D01*
X45546677Y-37237496D01*
X45554653Y-37170894D01*
X45563271Y-37095158D01*
X45572949Y-37007133D01*
X45574140Y-36996156D01*
X45584205Y-36901767D01*
X45593118Y-36814243D01*
X45600960Y-36731911D01*
X45607809Y-36653095D01*
X45613744Y-36576119D01*
X45618844Y-36499309D01*
X45623188Y-36420988D01*
X45626855Y-36339482D01*
X45629925Y-36253115D01*
X45632475Y-36160212D01*
X45634585Y-36059097D01*
X45636334Y-35948096D01*
X45637802Y-35825533D01*
X45639066Y-35689732D01*
X45639731Y-35605109D01*
X45644359Y-34984000D01*
X45991375Y-34984000D01*
X45991457Y-35720203D01*
D11*
X59350000Y-109150000D02*
G75*
G03X59350000Y-109150000I-250000J0D01*
G01*
X75100000Y-108710000D02*
X73600000Y-108710000D01*
X75100000Y-107410000D02*
X75100000Y-108710000D01*
X73600000Y-102110000D02*
X75100000Y-102110000D01*
X58100000Y-102110000D02*
X58100000Y-103410000D01*
X75100000Y-102110000D02*
X75100000Y-103410000D01*
X58100000Y-108710000D02*
X59600000Y-108710000D01*
X58100000Y-107410000D02*
X58100000Y-108710000D01*
X59600000Y-102110000D02*
X58100000Y-102110000D01*
X22240000Y-65300000D02*
G75*
G03X22240000Y-65300000I-250000J0D01*
G01*
X22430000Y-81300000D02*
X22430000Y-79800000D01*
X23730000Y-81300000D02*
X22430000Y-81300000D01*
X29030000Y-79800000D02*
X29030000Y-81300000D01*
X29030000Y-64300000D02*
X27730000Y-64300000D01*
X29030000Y-81300000D02*
X27730000Y-81300000D01*
X22430000Y-64300000D02*
X22430000Y-65800000D01*
X23730000Y-64300000D02*
X22430000Y-64300000D01*
X29030000Y-65800000D02*
X29030000Y-64300000D01*
X34150000Y-109150000D02*
G75*
G03X34150000Y-109150000I-250000J0D01*
G01*
X49900000Y-108710000D02*
X48400000Y-108710000D01*
X49900000Y-107410000D02*
X49900000Y-108710000D01*
X48400000Y-102110000D02*
X49900000Y-102110000D01*
X32900000Y-102110000D02*
X32900000Y-103410000D01*
X49900000Y-102110000D02*
X49900000Y-103410000D01*
X32900000Y-108710000D02*
X34400000Y-108710000D01*
X32900000Y-107410000D02*
X32900000Y-108710000D01*
X34400000Y-102110000D02*
X32900000Y-102110000D01*
D10*
X57425000Y-54300000D02*
X57125000Y-54300000D01*
X57425000Y-40900000D02*
X57425000Y-54300000D01*
X57125000Y-40900000D02*
X57425000Y-40900000D01*
X47225000Y-54300000D02*
X47525000Y-54300000D01*
X47225000Y-40900000D02*
X47225000Y-54300000D01*
X47525000Y-40900000D02*
X47225000Y-40900000D01*
D11*
X23000000Y-47300000D02*
X23000000Y-46200000D01*
X22050000Y-47300000D02*
X23000000Y-47300000D01*
X22050000Y-48800000D02*
X22050000Y-47300000D01*
X31500000Y-47300000D02*
X31500000Y-42175000D01*
X32450000Y-47300000D02*
X31500000Y-47300000D01*
X32450000Y-48800000D02*
X32450000Y-47300000D01*
X78410000Y-91021267D02*
X78410000Y-90678733D01*
X77390000Y-91021267D02*
X77390000Y-90678733D01*
X63360000Y-91221267D02*
X63360000Y-90878733D01*
X62340000Y-91221267D02*
X62340000Y-90878733D01*
X47310000Y-91221267D02*
X47310000Y-90878733D01*
X46290000Y-91221267D02*
X46290000Y-90878733D01*
X78410000Y-81221267D02*
X78410000Y-80878733D01*
X77390000Y-81221267D02*
X77390000Y-80878733D01*
X63360000Y-81221267D02*
X63360000Y-80878733D01*
X62340000Y-81221267D02*
X62340000Y-80878733D01*
X47310000Y-81171267D02*
X47310000Y-80828733D01*
X46290000Y-81171267D02*
X46290000Y-80828733D01*
X78410000Y-71221267D02*
X78410000Y-70878733D01*
X77390000Y-71221267D02*
X77390000Y-70878733D01*
X63360000Y-71221267D02*
X63360000Y-70878733D01*
X62340000Y-71221267D02*
X62340000Y-70878733D01*
X47310000Y-71171267D02*
X47310000Y-70828733D01*
X46290000Y-71171267D02*
X46290000Y-70828733D01*
X78410000Y-61221267D02*
X78410000Y-60878733D01*
X77390000Y-61221267D02*
X77390000Y-60878733D01*
X63360000Y-61221267D02*
X63360000Y-60878733D01*
X62340000Y-61221267D02*
X62340000Y-60878733D01*
X47560000Y-61121267D02*
X47560000Y-60778733D01*
X46540000Y-61121267D02*
X46540000Y-60778733D01*
X66421267Y-48240000D02*
X66078733Y-48240000D01*
X66421267Y-49260000D02*
X66078733Y-49260000D01*
X69921267Y-48240000D02*
X69578733Y-48240000D01*
X69921267Y-49260000D02*
X69578733Y-49260000D01*
X73671267Y-48240000D02*
X73328733Y-48240000D01*
X73671267Y-49260000D02*
X73328733Y-49260000D01*
X77546267Y-48240000D02*
X77203733Y-48240000D01*
X77546267Y-49260000D02*
X77203733Y-49260000D01*
X61828733Y-55510000D02*
X62171267Y-55510000D01*
X61828733Y-54490000D02*
X62171267Y-54490000D01*
X59510000Y-56171267D02*
X59510000Y-55828733D01*
X58490000Y-56171267D02*
X58490000Y-55828733D01*
X61453733Y-49510000D02*
X61796267Y-49510000D01*
X61453733Y-48490000D02*
X61796267Y-48490000D01*
X72120000Y-89070000D02*
X73220000Y-89070000D01*
X72120000Y-88800000D02*
X72120000Y-89070000D01*
X70620000Y-88800000D02*
X72120000Y-88800000D01*
X72120000Y-95430000D02*
X74950000Y-95430000D01*
X72120000Y-95700000D02*
X72120000Y-95430000D01*
X70620000Y-95700000D02*
X72120000Y-95700000D01*
X57070000Y-89270000D02*
X58170000Y-89270000D01*
X57070000Y-89000000D02*
X57070000Y-89270000D01*
X55570000Y-89000000D02*
X57070000Y-89000000D01*
X57070000Y-95630000D02*
X59900000Y-95630000D01*
X57070000Y-95900000D02*
X57070000Y-95630000D01*
X55570000Y-95900000D02*
X57070000Y-95900000D01*
X41020000Y-89270000D02*
X42120000Y-89270000D01*
X41020000Y-89000000D02*
X41020000Y-89270000D01*
X39520000Y-89000000D02*
X41020000Y-89000000D01*
X41020000Y-95630000D02*
X43850000Y-95630000D01*
X41020000Y-95900000D02*
X41020000Y-95630000D01*
X39520000Y-95900000D02*
X41020000Y-95900000D01*
X72120000Y-79270000D02*
X73220000Y-79270000D01*
X72120000Y-79000000D02*
X72120000Y-79270000D01*
X70620000Y-79000000D02*
X72120000Y-79000000D01*
X72120000Y-85630000D02*
X74950000Y-85630000D01*
X72120000Y-85900000D02*
X72120000Y-85630000D01*
X70620000Y-85900000D02*
X72120000Y-85900000D01*
X57070000Y-79270000D02*
X58170000Y-79270000D01*
X57070000Y-79000000D02*
X57070000Y-79270000D01*
X55570000Y-79000000D02*
X57070000Y-79000000D01*
X57070000Y-85630000D02*
X59900000Y-85630000D01*
X57070000Y-85900000D02*
X57070000Y-85630000D01*
X55570000Y-85900000D02*
X57070000Y-85900000D01*
X41020000Y-79270000D02*
X42120000Y-79270000D01*
X41020000Y-79000000D02*
X41020000Y-79270000D01*
X39520000Y-79000000D02*
X41020000Y-79000000D01*
X41020000Y-85630000D02*
X43850000Y-85630000D01*
X41020000Y-85900000D02*
X41020000Y-85630000D01*
X39520000Y-85900000D02*
X41020000Y-85900000D01*
X72120000Y-69270000D02*
X73220000Y-69270000D01*
X72120000Y-69000000D02*
X72120000Y-69270000D01*
X70620000Y-69000000D02*
X72120000Y-69000000D01*
X72120000Y-75630000D02*
X74950000Y-75630000D01*
X72120000Y-75900000D02*
X72120000Y-75630000D01*
X70620000Y-75900000D02*
X72120000Y-75900000D01*
X57070000Y-69270000D02*
X58170000Y-69270000D01*
X57070000Y-69000000D02*
X57070000Y-69270000D01*
X55570000Y-69000000D02*
X57070000Y-69000000D01*
X57070000Y-75630000D02*
X59900000Y-75630000D01*
X57070000Y-75900000D02*
X57070000Y-75630000D01*
X55570000Y-75900000D02*
X57070000Y-75900000D01*
X41020000Y-69270000D02*
X42120000Y-69270000D01*
X41020000Y-69000000D02*
X41020000Y-69270000D01*
X39520000Y-69000000D02*
X41020000Y-69000000D01*
X41020000Y-75630000D02*
X43850000Y-75630000D01*
X41020000Y-75900000D02*
X41020000Y-75630000D01*
X39520000Y-75900000D02*
X41020000Y-75900000D01*
X72120000Y-59270000D02*
X73220000Y-59270000D01*
X72120000Y-59000000D02*
X72120000Y-59270000D01*
X70620000Y-59000000D02*
X72120000Y-59000000D01*
X72120000Y-65630000D02*
X74950000Y-65630000D01*
X72120000Y-65900000D02*
X72120000Y-65630000D01*
X70620000Y-65900000D02*
X72120000Y-65900000D01*
X57070000Y-59270000D02*
X58170000Y-59270000D01*
X57070000Y-59000000D02*
X57070000Y-59270000D01*
X55570000Y-59000000D02*
X57070000Y-59000000D01*
X57070000Y-65630000D02*
X59900000Y-65630000D01*
X57070000Y-65900000D02*
X57070000Y-65630000D01*
X55570000Y-65900000D02*
X57070000Y-65900000D01*
X41020000Y-59270000D02*
X42120000Y-59270000D01*
X41020000Y-59000000D02*
X41020000Y-59270000D01*
X39520000Y-59000000D02*
X41020000Y-59000000D01*
X41020000Y-65630000D02*
X43850000Y-65630000D01*
X41020000Y-65900000D02*
X41020000Y-65630000D01*
X39520000Y-65900000D02*
X41020000Y-65900000D01*
X52070000Y-24530000D02*
X52070000Y-23430000D01*
X51800000Y-24530000D02*
X52070000Y-24530000D01*
X51800000Y-26030000D02*
X51800000Y-24530000D01*
X58430000Y-24530000D02*
X58430000Y-21700000D01*
X58700000Y-24530000D02*
X58430000Y-24530000D01*
X58700000Y-26030000D02*
X58700000Y-24530000D01*
X46300000Y-55050000D02*
X43300000Y-55050000D01*
X46300000Y-42450000D02*
X46300000Y-55050000D01*
X43300000Y-42450000D02*
X46300000Y-42450000D01*
X33700000Y-42450000D02*
X36700000Y-42450000D01*
X33700000Y-55050000D02*
X33700000Y-42450000D01*
X36700000Y-55050000D02*
X33700000Y-55050000D01*
X74250000Y-22525000D02*
G75*
G03X74250000Y-22525000I-950000J0D01*
G01*
X28296248Y-27420000D02*
X32703752Y-27420000D01*
X28296248Y-22080000D02*
X32703752Y-22080000D01*
X76885000Y-92510000D02*
X76885000Y-90050000D01*
X75415000Y-92510000D02*
X76885000Y-92510000D01*
X75415000Y-90050000D02*
X75415000Y-92510000D01*
X61835000Y-92710000D02*
X61835000Y-90250000D01*
X60365000Y-92710000D02*
X61835000Y-92710000D01*
X60365000Y-90250000D02*
X60365000Y-92710000D01*
X45785000Y-92710000D02*
X45785000Y-90250000D01*
X44315000Y-92710000D02*
X45785000Y-92710000D01*
X44315000Y-90250000D02*
X44315000Y-92710000D01*
X76885000Y-82710000D02*
X76885000Y-80250000D01*
X75415000Y-82710000D02*
X76885000Y-82710000D01*
X75415000Y-80250000D02*
X75415000Y-82710000D01*
X61835000Y-82710000D02*
X61835000Y-80250000D01*
X60365000Y-82710000D02*
X61835000Y-82710000D01*
X60365000Y-80250000D02*
X60365000Y-82710000D01*
X45785000Y-82660000D02*
X45785000Y-80200000D01*
X44315000Y-82660000D02*
X45785000Y-82660000D01*
X44315000Y-80200000D02*
X44315000Y-82660000D01*
X76885000Y-72710000D02*
X76885000Y-70250000D01*
X75415000Y-72710000D02*
X76885000Y-72710000D01*
X75415000Y-70250000D02*
X75415000Y-72710000D01*
X61835000Y-72710000D02*
X61835000Y-70250000D01*
X60365000Y-72710000D02*
X61835000Y-72710000D01*
X60365000Y-70250000D02*
X60365000Y-72710000D01*
X45785000Y-72660000D02*
X45785000Y-70200000D01*
X44315000Y-72660000D02*
X45785000Y-72660000D01*
X44315000Y-70200000D02*
X44315000Y-72660000D01*
X76885000Y-62710000D02*
X76885000Y-60250000D01*
X75415000Y-62710000D02*
X76885000Y-62710000D01*
X75415000Y-60250000D02*
X75415000Y-62710000D01*
X61835000Y-62710000D02*
X61835000Y-60250000D01*
X60365000Y-62710000D02*
X61835000Y-62710000D01*
X60365000Y-60250000D02*
X60365000Y-62710000D01*
X45785000Y-62610000D02*
X45785000Y-60150000D01*
X44315000Y-62610000D02*
X45785000Y-62610000D01*
X44315000Y-60150000D02*
X44315000Y-62610000D01*
X66885000Y-54710000D02*
X66885000Y-50650000D01*
X64615000Y-54710000D02*
X66885000Y-54710000D01*
X64615000Y-50650000D02*
X64615000Y-54710000D01*
X70385000Y-54710000D02*
X70385000Y-50650000D01*
X68115000Y-54710000D02*
X70385000Y-54710000D01*
X68115000Y-50650000D02*
X68115000Y-54710000D01*
X74135000Y-54697500D02*
X74135000Y-50637500D01*
X71865000Y-54697500D02*
X74135000Y-54697500D01*
X71865000Y-50637500D02*
X71865000Y-54697500D01*
X77885000Y-54697500D02*
X77885000Y-50637500D01*
X75615000Y-54697500D02*
X77885000Y-54697500D01*
X75615000Y-50637500D02*
X75615000Y-54697500D01*
X63350000Y-50200000D02*
X58450000Y-50200000D01*
X58450000Y-53800000D02*
X63350000Y-53800000D01*
X58450000Y-50200000D02*
X58450000Y-51100000D01*
X45235000Y-41660000D02*
X45235000Y-39200000D01*
X43765000Y-41660000D02*
X45235000Y-41660000D01*
X43765000Y-39200000D02*
X43765000Y-41660000D01*
X34615000Y-41625000D02*
X35865000Y-41625000D01*
X35240000Y-42250000D02*
X35240000Y-41000000D01*
X42195563Y-40760000D02*
X43260000Y-39695563D01*
X33804437Y-40760000D02*
X32740000Y-39695563D01*
X33804437Y-40760000D02*
X36490000Y-40760000D01*
X42195563Y-40760000D02*
X39510000Y-40760000D01*
X43260000Y-39695563D02*
X43260000Y-30240000D01*
X32740000Y-39695563D02*
X32740000Y-30240000D01*
X32740000Y-30240000D02*
X36490000Y-30240000D01*
X43260000Y-30240000D02*
X39510000Y-30240000D01*
X30385000Y-29125000D02*
X29135000Y-29125000D01*
X29760000Y-28500000D02*
X29760000Y-29750000D01*
X22804437Y-29990000D02*
X21740000Y-31054437D01*
X31195563Y-29990000D02*
X32260000Y-31054437D01*
X31195563Y-29990000D02*
X28510000Y-29990000D01*
X22804437Y-29990000D02*
X25490000Y-29990000D01*
X21740000Y-31054437D02*
X21740000Y-40510000D01*
X32260000Y-31054437D02*
X32260000Y-40510000D01*
X32260000Y-40510000D02*
X28510000Y-40510000D01*
X21740000Y-40510000D02*
X25490000Y-40510000D01*
X76290000Y-94397936D02*
X76290000Y-95602064D01*
X78110000Y-94397936D02*
X78110000Y-95602064D01*
X61090000Y-94597936D02*
X61090000Y-95802064D01*
X62910000Y-94597936D02*
X62910000Y-95802064D01*
X45090000Y-94597936D02*
X45090000Y-95802064D01*
X46910000Y-94597936D02*
X46910000Y-95802064D01*
X76290000Y-84597936D02*
X76290000Y-85802064D01*
X78110000Y-84597936D02*
X78110000Y-85802064D01*
X61090000Y-84597936D02*
X61090000Y-85802064D01*
X62910000Y-84597936D02*
X62910000Y-85802064D01*
X45090000Y-84597936D02*
X45090000Y-85802064D01*
X46910000Y-84597936D02*
X46910000Y-85802064D01*
X76290000Y-74597936D02*
X76290000Y-75802064D01*
X78110000Y-74597936D02*
X78110000Y-75802064D01*
X61090000Y-74597936D02*
X61090000Y-75802064D01*
X62910000Y-74597936D02*
X62910000Y-75802064D01*
X45090000Y-74597936D02*
X45090000Y-75802064D01*
X46910000Y-74597936D02*
X46910000Y-75802064D01*
X76090000Y-64597936D02*
X76090000Y-65802064D01*
X77910000Y-64597936D02*
X77910000Y-65802064D01*
X61090000Y-64597936D02*
X61090000Y-65802064D01*
X62910000Y-64597936D02*
X62910000Y-65802064D01*
X45090000Y-64597936D02*
X45090000Y-65802064D01*
X46910000Y-64597936D02*
X46910000Y-65802064D01*
D10*
X66750000Y-22250000D02*
X65250000Y-22250000D01*
X66750000Y-23750000D02*
X66750000Y-22250000D01*
X63750000Y-23750000D02*
X66750000Y-23750000D01*
X63750000Y-22250000D02*
X63750000Y-23750000D01*
X65250000Y-22250000D02*
X63750000Y-22250000D01*
X68200000Y-21250000D02*
X65250000Y-21250000D01*
X68250000Y-24750000D02*
X68200000Y-21250000D01*
X62250000Y-24750000D02*
X68250000Y-24750000D01*
X62250000Y-21250000D02*
X62250000Y-24750000D01*
X65250000Y-21250000D02*
X62250000Y-21250000D01*
X53250000Y-101500000D02*
X53250000Y-103000000D01*
X54750000Y-101500000D02*
X53250000Y-101500000D01*
X54750000Y-104500000D02*
X54750000Y-101500000D01*
X53250000Y-104500000D02*
X54750000Y-104500000D01*
X53250000Y-103000000D02*
X53250000Y-104500000D01*
X52250000Y-100050000D02*
X52250000Y-103000000D01*
X55750000Y-100000000D02*
X52250000Y-100050000D01*
X55750000Y-106000000D02*
X55750000Y-100000000D01*
X52250000Y-106000000D02*
X55750000Y-106000000D01*
X52250000Y-103000000D02*
X52250000Y-106000000D01*
X27700000Y-88500000D02*
X26200000Y-88500000D01*
X27700000Y-90000000D02*
X27700000Y-88500000D01*
X24700000Y-90000000D02*
X27700000Y-90000000D01*
X24700000Y-88500000D02*
X24700000Y-90000000D01*
X26200000Y-88500000D02*
X24700000Y-88500000D01*
X29150000Y-87500000D02*
X26200000Y-87500000D01*
X29200000Y-91000000D02*
X29150000Y-87500000D01*
X23200000Y-91000000D02*
X29200000Y-91000000D01*
X23200000Y-87500000D02*
X23200000Y-91000000D01*
X26200000Y-87500000D02*
X23200000Y-87500000D01*
X27700000Y-102050000D02*
X26200000Y-102050000D01*
X27700000Y-103550000D02*
X27700000Y-102050000D01*
X24700000Y-103550000D02*
X27700000Y-103550000D01*
X24700000Y-102050000D02*
X24700000Y-103550000D01*
X26200000Y-102050000D02*
X24700000Y-102050000D01*
X29150000Y-101050000D02*
X26200000Y-101050000D01*
X29200000Y-104550000D02*
X29150000Y-101050000D01*
X23200000Y-104550000D02*
X29200000Y-104550000D01*
X23200000Y-101050000D02*
X23200000Y-104550000D01*
X26200000Y-101050000D02*
X23200000Y-101050000D01*
D13*
X62381000Y-24786900D02*
G75*
G03X62381000Y-24786900I-381000J0D01*
G01*
X59714000Y-40885658D02*
X59714000Y-47088100D01*
X59714000Y-33395660D02*
X59714000Y-39114340D01*
X79602200Y-25421900D02*
X59714000Y-25421900D01*
X79602200Y-47088100D02*
X79602200Y-25421900D01*
X59714000Y-47088100D02*
X79602200Y-47088100D01*
X59714000Y-25421900D02*
X59714000Y-31624342D01*
D11*
X23650000Y-92130000D02*
X28850000Y-92130000D01*
X23650000Y-99870000D02*
X28850000Y-99870000D01*
X22210000Y-92700000D02*
X23650000Y-92700000D01*
X23650000Y-92130000D02*
X23650000Y-92700000D01*
X28850000Y-92130000D02*
X28850000Y-92700000D01*
X23650000Y-99300000D02*
X23650000Y-99870000D01*
X28850000Y-99300000D02*
X28850000Y-99870000D01*
X23650000Y-94220000D02*
X23650000Y-95240000D01*
X28850000Y-94220000D02*
X28850000Y-95240000D01*
X23650000Y-96760000D02*
X23650000Y-97780000D01*
X28850000Y-96760000D02*
X28850000Y-97780000D01*
D10*
X61452380Y-40000000D02*
X61690476Y-40000000D01*
X61595238Y-40238095D02*
X61690476Y-40000000D01*
X61595238Y-39761904D01*
X61880952Y-40142857D02*
X61690476Y-40000000D01*
X61880952Y-39857142D01*
M02*
