G04 #@! TF.GenerationSoftware,KiCad,Pcbnew,(6.0.9-0)*
G04 #@! TF.CreationDate,2022-11-28T01:23:38-05:00*
G04 #@! TF.ProjectId,uBMS-2,75424d53-2d32-42e6-9b69-6361645f7063,rev?*
G04 #@! TF.SameCoordinates,Original*
G04 #@! TF.FileFunction,Paste,Bot*
G04 #@! TF.FilePolarity,Positive*
%FSLAX46Y46*%
G04 Gerber Fmt 4.6, Leading zero omitted, Abs format (unit mm)*
G04 Created by KiCad (PCBNEW (6.0.9-0)) date 2022-11-28 01:23:38*
%MOMM*%
%LPD*%
G01*
G04 APERTURE LIST*
G04 Aperture macros list*
%AMRoundRect*
0 Rectangle with rounded corners*
0 $1 Rounding radius*
0 $2 $3 $4 $5 $6 $7 $8 $9 X,Y pos of 4 corners*
0 Add a 4 corners polygon primitive as box body*
4,1,4,$2,$3,$4,$5,$6,$7,$8,$9,$2,$3,0*
0 Add four circle primitives for the rounded corners*
1,1,$1+$1,$2,$3*
1,1,$1+$1,$4,$5*
1,1,$1+$1,$6,$7*
1,1,$1+$1,$8,$9*
0 Add four rect primitives between the rounded corners*
20,1,$1+$1,$2,$3,$4,$5,0*
20,1,$1+$1,$4,$5,$6,$7,0*
20,1,$1+$1,$6,$7,$8,$9,0*
20,1,$1+$1,$8,$9,$2,$3,0*%
G04 Aperture macros list end*
%ADD10C,0.010000*%
%ADD11RoundRect,0.250000X-0.250000X-0.475000X0.250000X-0.475000X0.250000X0.475000X-0.250000X0.475000X0*%
%ADD12RoundRect,0.140000X0.140000X0.170000X-0.140000X0.170000X-0.140000X-0.170000X0.140000X-0.170000X0*%
%ADD13RoundRect,0.135000X0.185000X-0.135000X0.185000X0.135000X-0.185000X0.135000X-0.185000X-0.135000X0*%
%ADD14RoundRect,0.135000X-0.185000X0.135000X-0.185000X-0.135000X0.185000X-0.135000X0.185000X0.135000X0*%
%ADD15RoundRect,0.150000X0.725000X0.150000X-0.725000X0.150000X-0.725000X-0.150000X0.725000X-0.150000X0*%
%ADD16R,0.780000X0.220000*%
%ADD17R,0.220000X0.780000*%
%ADD18R,0.450000X1.750000*%
%ADD19RoundRect,0.150000X-0.150000X0.587500X-0.150000X-0.587500X0.150000X-0.587500X0.150000X0.587500X0*%
%ADD20RoundRect,0.140000X0.170000X-0.140000X0.170000X0.140000X-0.170000X0.140000X-0.170000X-0.140000X0*%
%ADD21RoundRect,0.140000X-0.140000X-0.170000X0.140000X-0.170000X0.140000X0.170000X-0.140000X0.170000X0*%
%ADD22RoundRect,0.140000X-0.170000X0.140000X-0.170000X-0.140000X0.170000X-0.140000X0.170000X0.140000X0*%
%ADD23RoundRect,0.135000X-0.135000X-0.185000X0.135000X-0.185000X0.135000X0.185000X-0.135000X0.185000X0*%
%ADD24R,0.406400X0.812800*%
%ADD25R,0.812800X0.406400*%
%ADD26R,1.193800X1.193800*%
%ADD27R,0.812800X0.812800*%
G04 APERTURE END LIST*
G36*
X75620000Y-30120000D02*
G01*
X75180161Y-30120000D01*
X75180161Y-29680161D01*
X75620000Y-29680161D01*
X75620000Y-30120000D01*
G37*
D10*
X75620000Y-30120000D02*
X75180161Y-30120000D01*
X75180161Y-29680161D01*
X75620000Y-29680161D01*
X75620000Y-30120000D01*
G36*
X75620000Y-29520000D02*
G01*
X75180145Y-29520000D01*
X75180145Y-29079070D01*
X75620000Y-29079070D01*
X75620000Y-29520000D01*
G37*
X75620000Y-29520000D02*
X75180145Y-29520000D01*
X75180145Y-29079070D01*
X75620000Y-29079070D01*
X75620000Y-29520000D01*
G36*
X75020000Y-29520000D02*
G01*
X74578953Y-29520000D01*
X74578953Y-29078953D01*
X75020000Y-29078953D01*
X75020000Y-29520000D01*
G37*
X75020000Y-29520000D02*
X74578953Y-29520000D01*
X74578953Y-29078953D01*
X75020000Y-29078953D01*
X75020000Y-29520000D01*
G36*
X75020000Y-30120000D02*
G01*
X74578730Y-30120000D01*
X74578730Y-29680196D01*
X75020000Y-29680196D01*
X75020000Y-30120000D01*
G37*
X75020000Y-30120000D02*
X74578730Y-30120000D01*
X74578730Y-29680196D01*
X75020000Y-29680196D01*
X75020000Y-30120000D01*
G36*
X49820000Y-100519855D02*
G01*
X49379070Y-100519855D01*
X49379070Y-100080000D01*
X49820000Y-100080000D01*
X49820000Y-100519855D01*
G37*
X49820000Y-100519855D02*
X49379070Y-100519855D01*
X49379070Y-100080000D01*
X49820000Y-100080000D01*
X49820000Y-100519855D01*
G36*
X50420000Y-101121270D02*
G01*
X49980196Y-101121270D01*
X49980196Y-100680000D01*
X50420000Y-100680000D01*
X50420000Y-101121270D01*
G37*
X50420000Y-101121270D02*
X49980196Y-101121270D01*
X49980196Y-100680000D01*
X50420000Y-100680000D01*
X50420000Y-101121270D01*
G36*
X50420000Y-100519839D02*
G01*
X49980161Y-100519839D01*
X49980161Y-100080000D01*
X50420000Y-100080000D01*
X50420000Y-100519839D01*
G37*
X50420000Y-100519839D02*
X49980161Y-100519839D01*
X49980161Y-100080000D01*
X50420000Y-100080000D01*
X50420000Y-100519839D01*
G36*
X49820000Y-101121047D02*
G01*
X49378953Y-101121047D01*
X49378953Y-100680000D01*
X49820000Y-100680000D01*
X49820000Y-101121047D01*
G37*
X49820000Y-101121047D02*
X49378953Y-101121047D01*
X49378953Y-100680000D01*
X49820000Y-100680000D01*
X49820000Y-101121047D01*
D11*
X25950000Y-83200000D03*
X27850000Y-83200000D03*
D12*
X25880000Y-84700000D03*
X24920000Y-84700000D03*
D13*
X58200000Y-48410000D03*
X58200000Y-47390000D03*
X52900000Y-104710000D03*
X52900000Y-103690000D03*
D14*
X53000000Y-115690000D03*
X53000000Y-116710000D03*
D13*
X51900000Y-104710000D03*
X51900000Y-103690000D03*
D14*
X52000000Y-115690000D03*
X52000000Y-116710000D03*
D15*
X58375000Y-41995000D03*
X58375000Y-43265000D03*
X58375000Y-44535000D03*
X58375000Y-45805000D03*
X53225000Y-45805000D03*
X53225000Y-44535000D03*
X53225000Y-43265000D03*
X53225000Y-41995000D03*
D16*
X73890000Y-30200000D03*
X73890000Y-29800000D03*
X73890000Y-29400000D03*
X73890000Y-29000000D03*
D17*
X74500000Y-28390000D03*
X74900000Y-28390000D03*
X75300000Y-28390000D03*
X75700000Y-28390000D03*
D16*
X76310000Y-29000000D03*
X76310000Y-29400000D03*
X76310000Y-29800000D03*
X76310000Y-30200000D03*
D17*
X75700000Y-30810000D03*
X75300000Y-30810000D03*
X74900000Y-30810000D03*
X74500000Y-30810000D03*
D18*
X51325000Y-106600000D03*
X51975000Y-106600000D03*
X52625000Y-106600000D03*
X53275000Y-106600000D03*
X53925000Y-106600000D03*
X54575000Y-106600000D03*
X55225000Y-106600000D03*
X55875000Y-106600000D03*
X56525000Y-106600000D03*
X57175000Y-106600000D03*
X57825000Y-106600000D03*
X58475000Y-106600000D03*
X58475000Y-113800000D03*
X57825000Y-113800000D03*
X57175000Y-113800000D03*
X56525000Y-113800000D03*
X55875000Y-113800000D03*
X55225000Y-113800000D03*
X54575000Y-113800000D03*
X53925000Y-113800000D03*
X53275000Y-113800000D03*
X52625000Y-113800000D03*
X51975000Y-113800000D03*
X51325000Y-113800000D03*
D19*
X54950000Y-47462500D03*
X56850000Y-47462500D03*
X55900000Y-49337500D03*
D20*
X51600000Y-44480000D03*
X51600000Y-43520000D03*
D12*
X74380000Y-32000000D03*
X73420000Y-32000000D03*
D21*
X41420000Y-115500000D03*
X42380000Y-115500000D03*
D22*
X51000000Y-115620000D03*
X51000000Y-116580000D03*
D21*
X52220000Y-101500000D03*
X53180000Y-101500000D03*
D17*
X50500000Y-101810000D03*
X50100000Y-101810000D03*
X49700000Y-101810000D03*
X49300000Y-101810000D03*
D16*
X48690000Y-101200000D03*
X48690000Y-100800000D03*
X48690000Y-100400000D03*
X48690000Y-100000000D03*
D17*
X49300000Y-99390000D03*
X49700000Y-99390000D03*
X50100000Y-99390000D03*
X50500000Y-99390000D03*
D16*
X51110000Y-100000000D03*
X51110000Y-100400000D03*
X51110000Y-100800000D03*
X51110000Y-101200000D03*
D18*
X41425000Y-106600000D03*
X42075000Y-106600000D03*
X42725000Y-106600000D03*
X43375000Y-106600000D03*
X44025000Y-106600000D03*
X44675000Y-106600000D03*
X45325000Y-106600000D03*
X45975000Y-106600000D03*
X46625000Y-106600000D03*
X47275000Y-106600000D03*
X47925000Y-106600000D03*
X48575000Y-106600000D03*
X48575000Y-113800000D03*
X47925000Y-113800000D03*
X47275000Y-113800000D03*
X46625000Y-113800000D03*
X45975000Y-113800000D03*
X45325000Y-113800000D03*
X44675000Y-113800000D03*
X44025000Y-113800000D03*
X43375000Y-113800000D03*
X42725000Y-113800000D03*
X42075000Y-113800000D03*
X41425000Y-113800000D03*
D23*
X38490000Y-95200000D03*
X39510000Y-95200000D03*
D20*
X40400000Y-94280000D03*
X40400000Y-93320000D03*
D24*
X24155100Y-87233501D03*
X25005101Y-87233501D03*
X25855102Y-87233501D03*
X26705100Y-87233501D03*
X27555101Y-87233501D03*
X28405102Y-87233501D03*
X29255100Y-87233501D03*
X30105101Y-87233501D03*
X30955102Y-87233501D03*
X31805100Y-87233501D03*
X32655101Y-87233501D03*
X33505102Y-87233501D03*
X34355100Y-87233501D03*
X35205101Y-87233501D03*
X36055102Y-87233501D03*
D25*
X37105099Y-88283499D03*
X37105099Y-89133500D03*
X37105099Y-89983501D03*
X37105099Y-90833499D03*
X37105099Y-91683500D03*
X37105099Y-92533501D03*
X37105099Y-93383499D03*
X37105099Y-94233500D03*
X37105099Y-95083501D03*
X37105099Y-95933499D03*
X37105099Y-96783500D03*
X37105099Y-97633501D03*
X37105099Y-98483499D03*
X37105099Y-99333500D03*
X37105099Y-100183501D03*
D24*
X36055102Y-101233499D03*
X35205101Y-101233499D03*
X34355100Y-101233499D03*
X33505102Y-101233499D03*
X32655101Y-101233499D03*
X31805100Y-101233499D03*
X30955102Y-101233499D03*
X30105101Y-101233499D03*
X29255100Y-101233499D03*
X28405102Y-101233499D03*
X27555101Y-101233499D03*
X26705100Y-101233499D03*
X25855102Y-101233499D03*
X25005101Y-101233499D03*
X24155100Y-101233499D03*
D25*
X23105102Y-100183501D03*
X23105102Y-99333500D03*
X23105102Y-98483499D03*
X23105102Y-97633501D03*
X23105102Y-96783500D03*
X23105102Y-95933499D03*
X23105102Y-95083501D03*
X23105102Y-94233500D03*
X23105102Y-93383499D03*
X23105102Y-92533501D03*
X23105102Y-91683500D03*
X23105102Y-90833499D03*
X23105102Y-89983501D03*
X23105102Y-89133500D03*
X23105102Y-88283499D03*
D26*
X30105101Y-94233500D03*
D27*
X23105102Y-87233501D03*
X37105102Y-87233501D03*
X37105102Y-101233499D03*
X23105102Y-101233499D03*
D26*
X28455101Y-92583500D03*
X28455101Y-94233500D03*
X28455101Y-95883500D03*
X30105101Y-92583500D03*
X30105101Y-95883500D03*
X31755101Y-92583500D03*
X31755101Y-94233500D03*
X31755101Y-95883500D03*
D22*
X40400000Y-95120000D03*
X40400000Y-96080000D03*
D14*
X45600000Y-115490000D03*
X45600000Y-116510000D03*
D23*
X38490000Y-94200000D03*
X39510000Y-94200000D03*
D12*
X25880000Y-85700000D03*
X24920000Y-85700000D03*
M02*
