G04 #@! TF.GenerationSoftware,KiCad,Pcbnew,(6.0.9-0)*
G04 #@! TF.CreationDate,2022-11-28T16:59:58-05:00*
G04 #@! TF.ProjectId,uBMS-2,75424d53-2d32-42e6-9b69-6361645f7063,rev?*
G04 #@! TF.SameCoordinates,Original*
G04 #@! TF.FileFunction,Legend,Top*
G04 #@! TF.FilePolarity,Positive*
%FSLAX46Y46*%
G04 Gerber Fmt 4.6, Leading zero omitted, Abs format (unit mm)*
G04 Created by KiCad (PCBNEW (6.0.9-0)) date 2022-11-28 16:59:58*
%MOMM*%
%LPD*%
G01*
G04 APERTURE LIST*
%ADD10C,0.150000*%
%ADD11C,0.120000*%
%ADD12C,0.127000*%
%ADD13C,0.200000*%
%ADD14C,0.100000*%
%ADD15C,0.152400*%
%ADD16C,0.010000*%
G04 APERTURE END LIST*
D10*
X38261904Y-40652380D02*
X38880952Y-40652380D01*
X38547619Y-41033333D01*
X38690476Y-41033333D01*
X38785714Y-41080952D01*
X38833333Y-41128571D01*
X38880952Y-41223809D01*
X38880952Y-41461904D01*
X38833333Y-41557142D01*
X38785714Y-41604761D01*
X38690476Y-41652380D01*
X38404761Y-41652380D01*
X38309523Y-41604761D01*
X38261904Y-41557142D01*
X39166666Y-40652380D02*
X39500000Y-41652380D01*
X39833333Y-40652380D01*
X40071428Y-40652380D02*
X40690476Y-40652380D01*
X40357142Y-41033333D01*
X40500000Y-41033333D01*
X40595238Y-41080952D01*
X40642857Y-41128571D01*
X40690476Y-41223809D01*
X40690476Y-41461904D01*
X40642857Y-41557142D01*
X40595238Y-41604761D01*
X40500000Y-41652380D01*
X40214285Y-41652380D01*
X40119047Y-41604761D01*
X40071428Y-41557142D01*
X26238095Y-54552380D02*
X26238095Y-55361904D01*
X26285714Y-55457142D01*
X26333333Y-55504761D01*
X26428571Y-55552380D01*
X26619047Y-55552380D01*
X26714285Y-55504761D01*
X26761904Y-55457142D01*
X26809523Y-55361904D01*
X26809523Y-54552380D01*
X27238095Y-55504761D02*
X27380952Y-55552380D01*
X27619047Y-55552380D01*
X27714285Y-55504761D01*
X27761904Y-55457142D01*
X27809523Y-55361904D01*
X27809523Y-55266666D01*
X27761904Y-55171428D01*
X27714285Y-55123809D01*
X27619047Y-55076190D01*
X27428571Y-55028571D01*
X27333333Y-54980952D01*
X27285714Y-54933333D01*
X27238095Y-54838095D01*
X27238095Y-54742857D01*
X27285714Y-54647619D01*
X27333333Y-54600000D01*
X27428571Y-54552380D01*
X27666666Y-54552380D01*
X27809523Y-54600000D01*
X28571428Y-55028571D02*
X28714285Y-55076190D01*
X28761904Y-55123809D01*
X28809523Y-55219047D01*
X28809523Y-55361904D01*
X28761904Y-55457142D01*
X28714285Y-55504761D01*
X28619047Y-55552380D01*
X28238095Y-55552380D01*
X28238095Y-54552380D01*
X28571428Y-54552380D01*
X28666666Y-54600000D01*
X28714285Y-54647619D01*
X28761904Y-54742857D01*
X28761904Y-54838095D01*
X28714285Y-54933333D01*
X28666666Y-54980952D01*
X28571428Y-55028571D01*
X28238095Y-55028571D01*
X19309523Y-32852380D02*
X18833333Y-32852380D01*
X18785714Y-33328571D01*
X18833333Y-33280952D01*
X18928571Y-33233333D01*
X19166666Y-33233333D01*
X19261904Y-33280952D01*
X19309523Y-33328571D01*
X19357142Y-33423809D01*
X19357142Y-33661904D01*
X19309523Y-33757142D01*
X19261904Y-33804761D01*
X19166666Y-33852380D01*
X18928571Y-33852380D01*
X18833333Y-33804761D01*
X18785714Y-33757142D01*
X19642857Y-32852380D02*
X19976190Y-33852380D01*
X20309523Y-32852380D01*
D11*
X21750000Y-92500000D02*
G75*
G03*
X21750000Y-95000000I721700J-1250000D01*
G01*
X21049038Y-91500000D02*
G75*
G03*
X21049038Y-96000000I1299042J-2250000D01*
G01*
X20500000Y-90000000D02*
G75*
G03*
X20500000Y-97500000I2165060J-3750000D01*
G01*
D10*
X34285714Y-65452380D02*
X33714285Y-65452380D01*
X34000000Y-65452380D02*
X34000000Y-64452380D01*
X33904761Y-64595238D01*
X33809523Y-64690476D01*
X33714285Y-64738095D01*
X39685714Y-104478571D02*
X40185714Y-105978571D01*
X40685714Y-104478571D01*
X41114285Y-105907142D02*
X41328571Y-105978571D01*
X41685714Y-105978571D01*
X41828571Y-105907142D01*
X41900000Y-105835714D01*
X41971428Y-105692857D01*
X41971428Y-105550000D01*
X41900000Y-105407142D01*
X41828571Y-105335714D01*
X41685714Y-105264285D01*
X41400000Y-105192857D01*
X41257142Y-105121428D01*
X41185714Y-105050000D01*
X41114285Y-104907142D01*
X41114285Y-104764285D01*
X41185714Y-104621428D01*
X41257142Y-104550000D01*
X41400000Y-104478571D01*
X41757142Y-104478571D01*
X41971428Y-104550000D01*
X28692857Y-81107142D02*
X28764285Y-80892857D01*
X28835714Y-80821428D01*
X28978571Y-80750000D01*
X29192857Y-80750000D01*
X29335714Y-80821428D01*
X29407142Y-80892857D01*
X29478571Y-81035714D01*
X29478571Y-81607142D01*
X27978571Y-81607142D01*
X27978571Y-81107142D01*
X28050000Y-80964285D01*
X28121428Y-80892857D01*
X28264285Y-80821428D01*
X28407142Y-80821428D01*
X28550000Y-80892857D01*
X28621428Y-80964285D01*
X28692857Y-81107142D01*
X28692857Y-81607142D01*
X29478571Y-79464285D02*
X28692857Y-79464285D01*
X28550000Y-79535714D01*
X28478571Y-79678571D01*
X28478571Y-79964285D01*
X28550000Y-80107142D01*
X29407142Y-79464285D02*
X29478571Y-79607142D01*
X29478571Y-79964285D01*
X29407142Y-80107142D01*
X29264285Y-80178571D01*
X29121428Y-80178571D01*
X28978571Y-80107142D01*
X28907142Y-79964285D01*
X28907142Y-79607142D01*
X28835714Y-79464285D01*
X29478571Y-78535714D02*
X29407142Y-78678571D01*
X29264285Y-78750000D01*
X27978571Y-78750000D01*
X29478571Y-77321428D02*
X28692857Y-77321428D01*
X28550000Y-77392857D01*
X28478571Y-77535714D01*
X28478571Y-77821428D01*
X28550000Y-77964285D01*
X29407142Y-77321428D02*
X29478571Y-77464285D01*
X29478571Y-77821428D01*
X29407142Y-77964285D01*
X29264285Y-78035714D01*
X29121428Y-78035714D01*
X28978571Y-77964285D01*
X28907142Y-77821428D01*
X28907142Y-77464285D01*
X28835714Y-77321428D01*
X28478571Y-76607142D02*
X29478571Y-76607142D01*
X28621428Y-76607142D02*
X28550000Y-76535714D01*
X28478571Y-76392857D01*
X28478571Y-76178571D01*
X28550000Y-76035714D01*
X28692857Y-75964285D01*
X29478571Y-75964285D01*
X29407142Y-74607142D02*
X29478571Y-74750000D01*
X29478571Y-75035714D01*
X29407142Y-75178571D01*
X29335714Y-75250000D01*
X29192857Y-75321428D01*
X28764285Y-75321428D01*
X28621428Y-75250000D01*
X28550000Y-75178571D01*
X28478571Y-75035714D01*
X28478571Y-74750000D01*
X28550000Y-74607142D01*
X29407142Y-73392857D02*
X29478571Y-73535714D01*
X29478571Y-73821428D01*
X29407142Y-73964285D01*
X29264285Y-74035714D01*
X28692857Y-74035714D01*
X28550000Y-73964285D01*
X28478571Y-73821428D01*
X28478571Y-73535714D01*
X28550000Y-73392857D01*
X28692857Y-73321428D01*
X28835714Y-73321428D01*
X28978571Y-74035714D01*
X47833898Y-113952380D02*
X47560089Y-113476190D01*
X47262470Y-113952380D02*
X47387470Y-112952380D01*
X47768422Y-112952380D01*
X47857708Y-113000000D01*
X47899375Y-113047619D01*
X47935089Y-113142857D01*
X47917232Y-113285714D01*
X47857708Y-113380952D01*
X47804136Y-113428571D01*
X47702946Y-113476190D01*
X47321994Y-113476190D01*
X48649375Y-113904761D02*
X48548184Y-113952380D01*
X48357708Y-113952380D01*
X48268422Y-113904761D01*
X48232708Y-113809523D01*
X48280327Y-113428571D01*
X48339851Y-113333333D01*
X48441041Y-113285714D01*
X48631517Y-113285714D01*
X48720803Y-113333333D01*
X48756517Y-113428571D01*
X48744613Y-113523809D01*
X48256517Y-113619047D01*
X49107708Y-113285714D02*
X49262470Y-113952380D01*
X49583898Y-113285714D01*
X50708898Y-113047619D02*
X50762470Y-113000000D01*
X50863660Y-112952380D01*
X51101755Y-112952380D01*
X51191041Y-113000000D01*
X51232708Y-113047619D01*
X51268422Y-113142857D01*
X51256517Y-113238095D01*
X51191041Y-113380952D01*
X50548184Y-113952380D01*
X51167232Y-113952380D01*
X51607708Y-113857142D02*
X51649375Y-113904761D01*
X51595803Y-113952380D01*
X51554136Y-113904761D01*
X51607708Y-113857142D01*
X51595803Y-113952380D01*
X52673184Y-112952380D02*
X52196994Y-112952380D01*
X52089851Y-113428571D01*
X52143422Y-113380952D01*
X52244613Y-113333333D01*
X52482708Y-113333333D01*
X52571994Y-113380952D01*
X52613660Y-113428571D01*
X52649375Y-113523809D01*
X52619613Y-113761904D01*
X52560089Y-113857142D01*
X52506517Y-113904761D01*
X52405327Y-113952380D01*
X52167232Y-113952380D01*
X52077946Y-113904761D01*
X52036279Y-113857142D01*
X67809523Y-98952380D02*
X67238095Y-98952380D01*
X67523809Y-98952380D02*
X67523809Y-97952380D01*
X67428571Y-98095238D01*
X67333333Y-98190476D01*
X67238095Y-98238095D01*
X68190476Y-98047619D02*
X68238095Y-98000000D01*
X68333333Y-97952380D01*
X68571428Y-97952380D01*
X68666666Y-98000000D01*
X68714285Y-98047619D01*
X68761904Y-98142857D01*
X68761904Y-98238095D01*
X68714285Y-98380952D01*
X68142857Y-98952380D01*
X68761904Y-98952380D01*
X50714285Y-64547619D02*
X50761904Y-64500000D01*
X50857142Y-64452380D01*
X51095238Y-64452380D01*
X51190476Y-64500000D01*
X51238095Y-64547619D01*
X51285714Y-64642857D01*
X51285714Y-64738095D01*
X51238095Y-64880952D01*
X50666666Y-65452380D01*
X51285714Y-65452380D01*
X24080952Y-58828571D02*
X24223809Y-58876190D01*
X24271428Y-58923809D01*
X24319047Y-59019047D01*
X24319047Y-59161904D01*
X24271428Y-59257142D01*
X24223809Y-59304761D01*
X24128571Y-59352380D01*
X23747619Y-59352380D01*
X23747619Y-58352380D01*
X24080952Y-58352380D01*
X24176190Y-58400000D01*
X24223809Y-58447619D01*
X24271428Y-58542857D01*
X24271428Y-58638095D01*
X24223809Y-58733333D01*
X24176190Y-58780952D01*
X24080952Y-58828571D01*
X23747619Y-58828571D01*
X24890476Y-59352380D02*
X24795238Y-59304761D01*
X24747619Y-59257142D01*
X24700000Y-59161904D01*
X24700000Y-58876190D01*
X24747619Y-58780952D01*
X24795238Y-58733333D01*
X24890476Y-58685714D01*
X25033333Y-58685714D01*
X25128571Y-58733333D01*
X25176190Y-58780952D01*
X25223809Y-58876190D01*
X25223809Y-59161904D01*
X25176190Y-59257142D01*
X25128571Y-59304761D01*
X25033333Y-59352380D01*
X24890476Y-59352380D01*
X25795238Y-59352380D02*
X25700000Y-59304761D01*
X25652380Y-59257142D01*
X25604761Y-59161904D01*
X25604761Y-58876190D01*
X25652380Y-58780952D01*
X25700000Y-58733333D01*
X25795238Y-58685714D01*
X25938095Y-58685714D01*
X26033333Y-58733333D01*
X26080952Y-58780952D01*
X26128571Y-58876190D01*
X26128571Y-59161904D01*
X26080952Y-59257142D01*
X26033333Y-59304761D01*
X25938095Y-59352380D01*
X25795238Y-59352380D01*
X26414285Y-58685714D02*
X26795238Y-58685714D01*
X26557142Y-58352380D02*
X26557142Y-59209523D01*
X26604761Y-59304761D01*
X26700000Y-59352380D01*
X26795238Y-59352380D01*
X68190476Y-75702380D02*
X68000000Y-75702380D01*
X67904761Y-75750000D01*
X67857142Y-75797619D01*
X67761904Y-75940476D01*
X67714285Y-76130952D01*
X67714285Y-76511904D01*
X67761904Y-76607142D01*
X67809523Y-76654761D01*
X67904761Y-76702380D01*
X68095238Y-76702380D01*
X68190476Y-76654761D01*
X68238095Y-76607142D01*
X68285714Y-76511904D01*
X68285714Y-76273809D01*
X68238095Y-76178571D01*
X68190476Y-76130952D01*
X68095238Y-76083333D01*
X67904761Y-76083333D01*
X67809523Y-76130952D01*
X67761904Y-76178571D01*
X67714285Y-76273809D01*
X33809523Y-99202380D02*
X33238095Y-99202380D01*
X33523809Y-99202380D02*
X33523809Y-98202380D01*
X33428571Y-98345238D01*
X33333333Y-98440476D01*
X33238095Y-98488095D01*
X34428571Y-98202380D02*
X34523809Y-98202380D01*
X34619047Y-98250000D01*
X34666666Y-98297619D01*
X34714285Y-98392857D01*
X34761904Y-98583333D01*
X34761904Y-98821428D01*
X34714285Y-99011904D01*
X34666666Y-99107142D01*
X34619047Y-99154761D01*
X34523809Y-99202380D01*
X34428571Y-99202380D01*
X34333333Y-99154761D01*
X34285714Y-99107142D01*
X34238095Y-99011904D01*
X34190476Y-98821428D01*
X34190476Y-98583333D01*
X34238095Y-98392857D01*
X34285714Y-98297619D01*
X34333333Y-98250000D01*
X34428571Y-98202380D01*
X67666666Y-64452380D02*
X68285714Y-64452380D01*
X67952380Y-64833333D01*
X68095238Y-64833333D01*
X68190476Y-64880952D01*
X68238095Y-64928571D01*
X68285714Y-65023809D01*
X68285714Y-65261904D01*
X68238095Y-65357142D01*
X68190476Y-65404761D01*
X68095238Y-65452380D01*
X67809523Y-65452380D01*
X67714285Y-65404761D01*
X67666666Y-65357142D01*
X34190476Y-76035714D02*
X34190476Y-76702380D01*
X33952380Y-75654761D02*
X33714285Y-76369047D01*
X34333333Y-76369047D01*
X50809523Y-99202380D02*
X50238095Y-99202380D01*
X50523809Y-99202380D02*
X50523809Y-98202380D01*
X50428571Y-98345238D01*
X50333333Y-98440476D01*
X50238095Y-98488095D01*
X51761904Y-99202380D02*
X51190476Y-99202380D01*
X51476190Y-99202380D02*
X51476190Y-98202380D01*
X51380952Y-98345238D01*
X51285714Y-98440476D01*
X51190476Y-98488095D01*
X67809523Y-87952380D02*
X68000000Y-87952380D01*
X68095238Y-87904761D01*
X68142857Y-87857142D01*
X68238095Y-87714285D01*
X68285714Y-87523809D01*
X68285714Y-87142857D01*
X68238095Y-87047619D01*
X68190476Y-87000000D01*
X68095238Y-86952380D01*
X67904761Y-86952380D01*
X67809523Y-87000000D01*
X67761904Y-87047619D01*
X67714285Y-87142857D01*
X67714285Y-87380952D01*
X67761904Y-87476190D01*
X67809523Y-87523809D01*
X67904761Y-87571428D01*
X68095238Y-87571428D01*
X68190476Y-87523809D01*
X68238095Y-87476190D01*
X68285714Y-87380952D01*
X72657142Y-104478571D02*
X73514285Y-104478571D01*
X73085714Y-105978571D02*
X73085714Y-104478571D01*
X73942857Y-105907142D02*
X74157142Y-105978571D01*
X74514285Y-105978571D01*
X74657142Y-105907142D01*
X74728571Y-105835714D01*
X74800000Y-105692857D01*
X74800000Y-105550000D01*
X74728571Y-105407142D01*
X74657142Y-105335714D01*
X74514285Y-105264285D01*
X74228571Y-105192857D01*
X74085714Y-105121428D01*
X74014285Y-105050000D01*
X73942857Y-104907142D01*
X73942857Y-104764285D01*
X74014285Y-104621428D01*
X74085714Y-104550000D01*
X74228571Y-104478571D01*
X74585714Y-104478571D01*
X74800000Y-104550000D01*
X19061904Y-58828571D02*
X19395238Y-58828571D01*
X19538095Y-59352380D02*
X19061904Y-59352380D01*
X19061904Y-58352380D01*
X19538095Y-58352380D01*
X19966666Y-59352380D02*
X19966666Y-58352380D01*
X20538095Y-59352380D01*
X20538095Y-58352380D01*
X50904761Y-87380952D02*
X50809523Y-87333333D01*
X50761904Y-87285714D01*
X50714285Y-87190476D01*
X50714285Y-87142857D01*
X50761904Y-87047619D01*
X50809523Y-87000000D01*
X50904761Y-86952380D01*
X51095238Y-86952380D01*
X51190476Y-87000000D01*
X51238095Y-87047619D01*
X51285714Y-87142857D01*
X51285714Y-87190476D01*
X51238095Y-87285714D01*
X51190476Y-87333333D01*
X51095238Y-87380952D01*
X50904761Y-87380952D01*
X50809523Y-87428571D01*
X50761904Y-87476190D01*
X50714285Y-87571428D01*
X50714285Y-87761904D01*
X50761904Y-87857142D01*
X50809523Y-87904761D01*
X50904761Y-87952380D01*
X51095238Y-87952380D01*
X51190476Y-87904761D01*
X51238095Y-87857142D01*
X51285714Y-87761904D01*
X51285714Y-87571428D01*
X51238095Y-87476190D01*
X51190476Y-87428571D01*
X51095238Y-87380952D01*
X48228571Y-40628571D02*
X48371428Y-40676190D01*
X48419047Y-40723809D01*
X48466666Y-40819047D01*
X48466666Y-40961904D01*
X48419047Y-41057142D01*
X48371428Y-41104761D01*
X48276190Y-41152380D01*
X47895238Y-41152380D01*
X47895238Y-40152380D01*
X48228571Y-40152380D01*
X48323809Y-40200000D01*
X48371428Y-40247619D01*
X48419047Y-40342857D01*
X48419047Y-40438095D01*
X48371428Y-40533333D01*
X48323809Y-40580952D01*
X48228571Y-40628571D01*
X47895238Y-40628571D01*
X49323809Y-41152380D02*
X49323809Y-40628571D01*
X49276190Y-40533333D01*
X49180952Y-40485714D01*
X48990476Y-40485714D01*
X48895238Y-40533333D01*
X49323809Y-41104761D02*
X49228571Y-41152380D01*
X48990476Y-41152380D01*
X48895238Y-41104761D01*
X48847619Y-41009523D01*
X48847619Y-40914285D01*
X48895238Y-40819047D01*
X48990476Y-40771428D01*
X49228571Y-40771428D01*
X49323809Y-40723809D01*
X49657142Y-40485714D02*
X50038095Y-40485714D01*
X49800000Y-40152380D02*
X49800000Y-41009523D01*
X49847619Y-41104761D01*
X49942857Y-41152380D01*
X50038095Y-41152380D01*
X50228571Y-40485714D02*
X50609523Y-40485714D01*
X50371428Y-40152380D02*
X50371428Y-41009523D01*
X50419047Y-41104761D01*
X50514285Y-41152380D01*
X50609523Y-41152380D01*
X51323809Y-41104761D02*
X51228571Y-41152380D01*
X51038095Y-41152380D01*
X50942857Y-41104761D01*
X50895238Y-41009523D01*
X50895238Y-40628571D01*
X50942857Y-40533333D01*
X51038095Y-40485714D01*
X51228571Y-40485714D01*
X51323809Y-40533333D01*
X51371428Y-40628571D01*
X51371428Y-40723809D01*
X50895238Y-40819047D01*
X51800000Y-41152380D02*
X51800000Y-40485714D01*
X51800000Y-40676190D02*
X51847619Y-40580952D01*
X51895238Y-40533333D01*
X51990476Y-40485714D01*
X52085714Y-40485714D01*
X52323809Y-40485714D02*
X52561904Y-41152380D01*
X52800000Y-40485714D02*
X52561904Y-41152380D01*
X52466666Y-41390476D01*
X52419047Y-41438095D01*
X52323809Y-41485714D01*
X33666666Y-86952380D02*
X34333333Y-86952380D01*
X33904761Y-87952380D01*
X73847619Y-26804761D02*
X73990476Y-26852380D01*
X74228571Y-26852380D01*
X74323809Y-26804761D01*
X74371428Y-26757142D01*
X74419047Y-26661904D01*
X74419047Y-26566666D01*
X74371428Y-26471428D01*
X74323809Y-26423809D01*
X74228571Y-26376190D01*
X74038095Y-26328571D01*
X73942857Y-26280952D01*
X73895238Y-26233333D01*
X73847619Y-26138095D01*
X73847619Y-26042857D01*
X73895238Y-25947619D01*
X73942857Y-25900000D01*
X74038095Y-25852380D01*
X74276190Y-25852380D01*
X74419047Y-25900000D01*
X74752380Y-26185714D02*
X74990476Y-26852380D01*
X75228571Y-26185714D02*
X74990476Y-26852380D01*
X74895238Y-27090476D01*
X74847619Y-27138095D01*
X74752380Y-27185714D01*
X75561904Y-26804761D02*
X75657142Y-26852380D01*
X75847619Y-26852380D01*
X75942857Y-26804761D01*
X75990476Y-26709523D01*
X75990476Y-26661904D01*
X75942857Y-26566666D01*
X75847619Y-26519047D01*
X75704761Y-26519047D01*
X75609523Y-26471428D01*
X75561904Y-26376190D01*
X75561904Y-26328571D01*
X75609523Y-26233333D01*
X75704761Y-26185714D01*
X75847619Y-26185714D01*
X75942857Y-26233333D01*
X76276190Y-26185714D02*
X76657142Y-26185714D01*
X76419047Y-25852380D02*
X76419047Y-26709523D01*
X76466666Y-26804761D01*
X76561904Y-26852380D01*
X76657142Y-26852380D01*
X77371428Y-26804761D02*
X77276190Y-26852380D01*
X77085714Y-26852380D01*
X76990476Y-26804761D01*
X76942857Y-26709523D01*
X76942857Y-26328571D01*
X76990476Y-26233333D01*
X77085714Y-26185714D01*
X77276190Y-26185714D01*
X77371428Y-26233333D01*
X77419047Y-26328571D01*
X77419047Y-26423809D01*
X76942857Y-26519047D01*
X77847619Y-26852380D02*
X77847619Y-26185714D01*
X77847619Y-26280952D02*
X77895238Y-26233333D01*
X77990476Y-26185714D01*
X78133333Y-26185714D01*
X78228571Y-26233333D01*
X78276190Y-26328571D01*
X78276190Y-26852380D01*
X78276190Y-26328571D02*
X78323809Y-26233333D01*
X78419047Y-26185714D01*
X78561904Y-26185714D01*
X78657142Y-26233333D01*
X78704761Y-26328571D01*
X78704761Y-26852380D01*
X51238095Y-75702380D02*
X50761904Y-75702380D01*
X50714285Y-76178571D01*
X50761904Y-76130952D01*
X50857142Y-76083333D01*
X51095238Y-76083333D01*
X51190476Y-76130952D01*
X51238095Y-76178571D01*
X51285714Y-76273809D01*
X51285714Y-76511904D01*
X51238095Y-76607142D01*
X51190476Y-76654761D01*
X51095238Y-76702380D01*
X50857142Y-76702380D01*
X50761904Y-76654761D01*
X50714285Y-76607142D01*
X44257142Y-43128571D02*
X43923809Y-43128571D01*
X43923809Y-43652380D02*
X43923809Y-42652380D01*
X44400000Y-42652380D01*
X45209523Y-42985714D02*
X45209523Y-43652380D01*
X44780952Y-42985714D02*
X44780952Y-43509523D01*
X44828571Y-43604761D01*
X44923809Y-43652380D01*
X45066666Y-43652380D01*
X45161904Y-43604761D01*
X45209523Y-43557142D01*
X45638095Y-43604761D02*
X45733333Y-43652380D01*
X45923809Y-43652380D01*
X46019047Y-43604761D01*
X46066666Y-43509523D01*
X46066666Y-43461904D01*
X46019047Y-43366666D01*
X45923809Y-43319047D01*
X45780952Y-43319047D01*
X45685714Y-43271428D01*
X45638095Y-43176190D01*
X45638095Y-43128571D01*
X45685714Y-43033333D01*
X45780952Y-42985714D01*
X45923809Y-42985714D01*
X46019047Y-43033333D01*
X46876190Y-43604761D02*
X46780952Y-43652380D01*
X46590476Y-43652380D01*
X46495238Y-43604761D01*
X46447619Y-43509523D01*
X46447619Y-43128571D01*
X46495238Y-43033333D01*
X46590476Y-42985714D01*
X46780952Y-42985714D01*
X46876190Y-43033333D01*
X46923809Y-43128571D01*
X46923809Y-43223809D01*
X46447619Y-43319047D01*
D11*
X42592164Y-63860000D02*
X42807836Y-63860000D01*
X42592164Y-63140000D02*
X42807836Y-63140000D01*
X62465000Y-20515000D02*
X62465000Y-22800000D01*
X63935000Y-20515000D02*
X62465000Y-20515000D01*
X63935000Y-22800000D02*
X63935000Y-20515000D01*
X65865000Y-20515000D02*
X65865000Y-22800000D01*
X67335000Y-20515000D02*
X65865000Y-20515000D01*
X67335000Y-22800000D02*
X67335000Y-20515000D01*
X67565000Y-20515000D02*
X67565000Y-22800000D01*
X69035000Y-20515000D02*
X67565000Y-20515000D01*
X69035000Y-22800000D02*
X69035000Y-20515000D01*
X58765000Y-62935000D02*
X61035000Y-62935000D01*
X61035000Y-62935000D02*
X61035000Y-59050000D01*
X58765000Y-59050000D02*
X58765000Y-62935000D01*
X75565000Y-62935000D02*
X77835000Y-62935000D01*
X77835000Y-62935000D02*
X77835000Y-59050000D01*
X75565000Y-59050000D02*
X75565000Y-62935000D01*
X60825000Y-27605000D02*
X60825000Y-26105000D01*
X60555000Y-26105000D02*
X60555000Y-23275000D01*
X54195000Y-26105000D02*
X54195000Y-25005000D01*
X53925000Y-27605000D02*
X53925000Y-26105000D01*
X60825000Y-26105000D02*
X60555000Y-26105000D01*
X53925000Y-26105000D02*
X54195000Y-26105000D01*
X37120000Y-64100000D02*
X38620000Y-64100000D01*
X38620000Y-63830000D02*
X41450000Y-63830000D01*
X38620000Y-57470000D02*
X39720000Y-57470000D01*
X37120000Y-57200000D02*
X38620000Y-57200000D01*
X38620000Y-64100000D02*
X38620000Y-63830000D01*
X38620000Y-57200000D02*
X38620000Y-57470000D01*
X54070000Y-64100000D02*
X55570000Y-64100000D01*
X55570000Y-63830000D02*
X58400000Y-63830000D01*
X55570000Y-57470000D02*
X56670000Y-57470000D01*
X54070000Y-57200000D02*
X55570000Y-57200000D01*
X55570000Y-64100000D02*
X55570000Y-63830000D01*
X55570000Y-57200000D02*
X55570000Y-57470000D01*
X70970000Y-64100000D02*
X72470000Y-64100000D01*
X72470000Y-63830000D02*
X75300000Y-63830000D01*
X72470000Y-57470000D02*
X73570000Y-57470000D01*
X70970000Y-57200000D02*
X72470000Y-57200000D01*
X72470000Y-64100000D02*
X72470000Y-63830000D01*
X72470000Y-57200000D02*
X72470000Y-57470000D01*
X60021359Y-21695000D02*
X60328641Y-21695000D01*
X60021359Y-22455000D02*
X60328641Y-22455000D01*
X19346359Y-105320000D02*
X19653641Y-105320000D01*
X19346359Y-106080000D02*
X19653641Y-106080000D01*
X35880000Y-114556359D02*
X35880000Y-114863641D01*
X35120000Y-114556359D02*
X35120000Y-114863641D01*
X35120000Y-105443641D02*
X35120000Y-105136359D01*
X35880000Y-105443641D02*
X35880000Y-105136359D01*
X37880000Y-114566359D02*
X37880000Y-114873641D01*
X37120000Y-114566359D02*
X37120000Y-114873641D01*
X37120000Y-105443641D02*
X37120000Y-105136359D01*
X37880000Y-105443641D02*
X37880000Y-105136359D01*
X39880000Y-114556359D02*
X39880000Y-114863641D01*
X39120000Y-114556359D02*
X39120000Y-114863641D01*
X37120000Y-103543641D02*
X37120000Y-103236359D01*
X37880000Y-103543641D02*
X37880000Y-103236359D01*
X35880000Y-116466359D02*
X35880000Y-116773641D01*
X35120000Y-116466359D02*
X35120000Y-116773641D01*
X35120000Y-103533641D02*
X35120000Y-103226359D01*
X35880000Y-103533641D02*
X35880000Y-103226359D01*
X37880000Y-116456359D02*
X37880000Y-116763641D01*
X37120000Y-116456359D02*
X37120000Y-116763641D01*
X39880000Y-116456359D02*
X39880000Y-116763641D01*
X39120000Y-116456359D02*
X39120000Y-116763641D01*
X35153641Y-118380000D02*
X34846359Y-118380000D01*
X35153641Y-117620000D02*
X34846359Y-117620000D01*
X35346359Y-101620000D02*
X35653641Y-101620000D01*
X35346359Y-102380000D02*
X35653641Y-102380000D01*
X37346359Y-117620000D02*
X37653641Y-117620000D01*
X37346359Y-118380000D02*
X37653641Y-118380000D01*
X39846359Y-117620000D02*
X40153641Y-117620000D01*
X39846359Y-118380000D02*
X40153641Y-118380000D01*
X37846359Y-101620000D02*
X38153641Y-101620000D01*
X37846359Y-102380000D02*
X38153641Y-102380000D01*
X66120000Y-105253641D02*
X66120000Y-104946359D01*
X66880000Y-105253641D02*
X66880000Y-104946359D01*
X68120000Y-105253641D02*
X68120000Y-104946359D01*
X68880000Y-105253641D02*
X68880000Y-104946359D01*
X70120000Y-105253641D02*
X70120000Y-104946359D01*
X70880000Y-105253641D02*
X70880000Y-104946359D01*
X63110000Y-61377064D02*
X63110000Y-59922936D01*
X61290000Y-61377064D02*
X61290000Y-59922936D01*
X79910000Y-61377064D02*
X79910000Y-59922936D01*
X78090000Y-61377064D02*
X78090000Y-59922936D01*
X57126359Y-34920000D02*
X57433641Y-34920000D01*
X57126359Y-35680000D02*
X57433641Y-35680000D01*
D10*
X47775000Y-46375000D02*
X48050000Y-46375000D01*
X47775000Y-49625000D02*
X47950000Y-49625000D01*
X51025000Y-49625000D02*
X51025000Y-46375000D01*
X47950000Y-49625000D02*
X47950000Y-50700000D01*
X51025000Y-49625000D02*
X50750000Y-49625000D01*
X47775000Y-49625000D02*
X47775000Y-46375000D01*
X51025000Y-46375000D02*
X50750000Y-46375000D01*
D12*
X55380000Y-50580000D02*
X55380000Y-50200000D01*
X55380000Y-48020000D02*
X55380000Y-48400000D01*
X52820000Y-50580000D02*
X52820000Y-50200000D01*
X52820000Y-48020000D02*
X52820000Y-48400000D01*
X55380000Y-50580000D02*
X55000000Y-50580000D01*
X55380000Y-48020000D02*
X55000000Y-48020000D01*
X52820000Y-50580000D02*
X53200000Y-50580000D01*
X52820000Y-48020000D02*
X53200000Y-48020000D01*
D13*
X56140000Y-50120000D02*
G75*
G03*
X56140000Y-50120000I-50000J0D01*
G01*
D11*
X41765000Y-62935000D02*
X44035000Y-62935000D01*
X44035000Y-62935000D02*
X44035000Y-59050000D01*
X41765000Y-59050000D02*
X41765000Y-62935000D01*
X46110000Y-61377064D02*
X46110000Y-59922936D01*
X44290000Y-61377064D02*
X44290000Y-59922936D01*
X62900000Y-43200000D02*
X62900000Y-35400000D01*
X80900000Y-43400000D02*
X80100000Y-43400000D01*
X82100000Y-27600000D02*
X82100000Y-43200000D01*
X80100000Y-43400000D02*
X62900000Y-43400000D01*
X82100000Y-43400000D02*
X81900000Y-43400000D01*
X81900000Y-43400000D02*
X80900000Y-43400000D01*
X62900000Y-43200000D02*
X62900000Y-43400000D01*
X63250000Y-42400000D02*
X64250000Y-42400000D01*
X62900000Y-27400000D02*
X62900000Y-27600000D01*
X82100000Y-27400000D02*
X82100000Y-27600000D01*
X62900000Y-27400000D02*
X80100000Y-27400000D01*
X63250000Y-28400000D02*
X64250000Y-28400000D01*
X82100000Y-43200000D02*
X82100000Y-43400000D01*
X63750000Y-41900000D02*
X63750000Y-42900000D01*
X80900000Y-27400000D02*
X80100000Y-27400000D01*
X82100000Y-27400000D02*
X81900000Y-27400000D01*
X62900000Y-35400000D02*
X62900000Y-27600000D01*
X81900000Y-27400000D02*
X80900000Y-27400000D01*
X26790000Y-70700000D02*
X26790000Y-69200000D01*
X21490000Y-69200000D02*
X20190000Y-69200000D01*
X20190000Y-69200000D02*
X20190000Y-70700000D01*
X26790000Y-86200000D02*
X25490000Y-86200000D01*
X26790000Y-69200000D02*
X25490000Y-69200000D01*
X26790000Y-84700000D02*
X26790000Y-86200000D01*
X21490000Y-86200000D02*
X20190000Y-86200000D01*
X20190000Y-86200000D02*
X20190000Y-84700000D01*
X20000000Y-70200000D02*
G75*
G03*
X20000000Y-70200000I-250000J0D01*
G01*
X49746359Y-111820000D02*
X50053641Y-111820000D01*
X49746359Y-112580000D02*
X50053641Y-112580000D01*
X22746359Y-105320000D02*
X23053641Y-105320000D01*
X22746359Y-106080000D02*
X23053641Y-106080000D01*
X29120000Y-105443641D02*
X29120000Y-105136359D01*
X29880000Y-105443641D02*
X29880000Y-105136359D01*
X29120000Y-103543641D02*
X29120000Y-103236359D01*
X29880000Y-103543641D02*
X29880000Y-103236359D01*
X33453641Y-102380000D02*
X33146359Y-102380000D01*
X33453641Y-101620000D02*
X33146359Y-101620000D01*
X33120000Y-103543641D02*
X33120000Y-103236359D01*
X33880000Y-103543641D02*
X33880000Y-103236359D01*
X31880000Y-114556359D02*
X31880000Y-114863641D01*
X31120000Y-114556359D02*
X31120000Y-114863641D01*
X29880000Y-114556359D02*
X29880000Y-114863641D01*
X29120000Y-114556359D02*
X29120000Y-114863641D01*
X33880000Y-114556359D02*
X33880000Y-114863641D01*
X33120000Y-114556359D02*
X33120000Y-114863641D01*
X33880000Y-116456359D02*
X33880000Y-116763641D01*
X33120000Y-116456359D02*
X33120000Y-116763641D01*
X33120000Y-105443641D02*
X33120000Y-105136359D01*
X33880000Y-105443641D02*
X33880000Y-105136359D01*
X64120000Y-105253641D02*
X64120000Y-104946359D01*
X64880000Y-105253641D02*
X64880000Y-104946359D01*
X62120000Y-105253641D02*
X62120000Y-104946359D01*
X62880000Y-105253641D02*
X62880000Y-104946359D01*
X60120000Y-105253641D02*
X60120000Y-104946359D01*
X60880000Y-105253641D02*
X60880000Y-104946359D01*
X55192164Y-52060000D02*
X55407836Y-52060000D01*
X55192164Y-51340000D02*
X55407836Y-51340000D01*
X23007836Y-110540000D02*
X22792164Y-110540000D01*
X23007836Y-111260000D02*
X22792164Y-111260000D01*
X49772164Y-44960000D02*
X49987836Y-44960000D01*
X49772164Y-44240000D02*
X49987836Y-44240000D01*
X38192164Y-56860000D02*
X38407836Y-56860000D01*
X38192164Y-56140000D02*
X38407836Y-56140000D01*
X59472164Y-75160000D02*
X59687836Y-75160000D01*
X59472164Y-74440000D02*
X59687836Y-74440000D01*
X76392164Y-86360000D02*
X76607836Y-86360000D01*
X76392164Y-85640000D02*
X76607836Y-85640000D01*
X76392164Y-75160000D02*
X76607836Y-75160000D01*
X76392164Y-74440000D02*
X76607836Y-74440000D01*
X42492164Y-97660000D02*
X42707836Y-97660000D01*
X42492164Y-96940000D02*
X42707836Y-96940000D01*
X55092164Y-56910000D02*
X55307836Y-56910000D01*
X55092164Y-56190000D02*
X55307836Y-56190000D01*
X76392164Y-63860000D02*
X76607836Y-63860000D01*
X76392164Y-63140000D02*
X76607836Y-63140000D01*
X42492164Y-86360000D02*
X42707836Y-86360000D01*
X42492164Y-85640000D02*
X42707836Y-85640000D01*
X59492164Y-97660000D02*
X59707836Y-97660000D01*
X59492164Y-96940000D02*
X59707836Y-96940000D01*
X71992164Y-56960000D02*
X72207836Y-56960000D01*
X71992164Y-56240000D02*
X72207836Y-56240000D01*
X42492164Y-75160000D02*
X42707836Y-75160000D01*
X42492164Y-74440000D02*
X42707836Y-74440000D01*
X59492164Y-86360000D02*
X59707836Y-86360000D01*
X59492164Y-85640000D02*
X59707836Y-85640000D01*
X76392164Y-97660000D02*
X76607836Y-97660000D01*
X76392164Y-96940000D02*
X76607836Y-96940000D01*
X23740000Y-66592164D02*
X23740000Y-66807836D01*
X24460000Y-66592164D02*
X24460000Y-66807836D01*
X18340000Y-66692164D02*
X18340000Y-66907836D01*
X19060000Y-66692164D02*
X19060000Y-66907836D01*
X26600000Y-44100000D02*
X29650000Y-44100000D01*
X29650000Y-44100000D02*
X29650000Y-45700000D01*
X29650000Y-45700000D02*
X26600000Y-45700000D01*
D14*
X27350000Y-51340000D02*
G75*
G03*
X27350000Y-51340000I-50000J0D01*
G01*
X27350000Y-51160000D02*
G75*
G03*
X27350000Y-51160000I-50000J0D01*
G01*
X26010000Y-46350000D02*
G75*
G03*
X26010000Y-46350000I-50000J0D01*
G01*
D11*
X69265000Y-20515000D02*
X69265000Y-22800000D01*
X70735000Y-20515000D02*
X69265000Y-20515000D01*
X70735000Y-22800000D02*
X70735000Y-20515000D01*
D12*
X18970000Y-55220000D02*
X18550000Y-55220000D01*
X22795000Y-55220000D02*
X22030000Y-55220000D01*
X18550000Y-46280000D02*
X18970000Y-46280000D01*
X22795000Y-46280000D02*
X22030000Y-46280000D01*
X18550000Y-55220000D02*
X18550000Y-46280000D01*
D13*
X26200000Y-47650000D02*
G75*
G03*
X26200000Y-47650000I-100000J0D01*
G01*
D11*
X25920000Y-52703641D02*
X25920000Y-52396359D01*
X26680000Y-52703641D02*
X26680000Y-52396359D01*
X30120000Y-48753641D02*
X30120000Y-48446359D01*
X30880000Y-48753641D02*
X30880000Y-48446359D01*
D15*
X23524100Y-108737459D02*
X23524100Y-107862541D01*
X23524100Y-106471200D02*
X18875900Y-106471200D01*
X18875900Y-110128800D02*
X23524100Y-110128800D01*
X18875900Y-107862541D02*
X18875900Y-108737459D01*
X22304900Y-108300000D02*
G75*
G03*
X22304900Y-108300000I-1104900J0D01*
G01*
X25637459Y-60375900D02*
X24762541Y-60375900D01*
X23371200Y-60375900D02*
X23371200Y-65024100D01*
X27028800Y-65024100D02*
X27028800Y-60375900D01*
X24762541Y-65024100D02*
X25637459Y-65024100D01*
X26304900Y-62700000D02*
G75*
G03*
X26304900Y-62700000I-1104900J0D01*
G01*
X20237459Y-60375900D02*
X19362541Y-60375900D01*
X17971200Y-60375900D02*
X17971200Y-65024100D01*
X21628800Y-65024100D02*
X21628800Y-60375900D01*
X19362541Y-65024100D02*
X20237459Y-65024100D01*
X20904900Y-62700000D02*
G75*
G03*
X20904900Y-62700000I-1104900J0D01*
G01*
D11*
X29056359Y-35520000D02*
X29363641Y-35520000D01*
X29056359Y-36280000D02*
X29363641Y-36280000D01*
X64165000Y-20515000D02*
X64165000Y-22800000D01*
X65635000Y-20515000D02*
X64165000Y-20515000D01*
X65635000Y-22800000D02*
X65635000Y-20515000D01*
X70965000Y-20515000D02*
X70965000Y-22800000D01*
X72435000Y-20515000D02*
X70965000Y-20515000D01*
X72435000Y-22800000D02*
X72435000Y-20515000D01*
X72665000Y-20515000D02*
X72665000Y-22800000D01*
X74135000Y-20515000D02*
X72665000Y-20515000D01*
X74135000Y-22800000D02*
X74135000Y-20515000D01*
X75565000Y-85485000D02*
X77835000Y-85485000D01*
X77835000Y-85485000D02*
X77835000Y-81600000D01*
X75565000Y-81600000D02*
X75565000Y-85485000D01*
X41765000Y-96785000D02*
X44035000Y-96785000D01*
X44035000Y-96785000D02*
X44035000Y-92900000D01*
X41765000Y-92900000D02*
X41765000Y-96785000D01*
X41765000Y-74285000D02*
X44035000Y-74285000D01*
X44035000Y-74285000D02*
X44035000Y-70400000D01*
X41765000Y-70400000D02*
X41765000Y-74285000D01*
X75565000Y-74285000D02*
X77835000Y-74285000D01*
X77835000Y-74285000D02*
X77835000Y-70400000D01*
X75565000Y-70400000D02*
X75565000Y-74285000D01*
X58665000Y-74285000D02*
X60935000Y-74285000D01*
X60935000Y-74285000D02*
X60935000Y-70400000D01*
X58665000Y-70400000D02*
X58665000Y-74285000D01*
X41665000Y-85485000D02*
X43935000Y-85485000D01*
X43935000Y-85485000D02*
X43935000Y-81600000D01*
X41665000Y-81600000D02*
X41665000Y-85485000D01*
X58765000Y-85485000D02*
X61035000Y-85485000D01*
X61035000Y-85485000D02*
X61035000Y-81600000D01*
X58765000Y-81600000D02*
X58765000Y-85485000D01*
X75565000Y-96785000D02*
X77835000Y-96785000D01*
X77835000Y-96785000D02*
X77835000Y-92900000D01*
X75565000Y-92900000D02*
X75565000Y-96785000D01*
X58665000Y-96785000D02*
X60935000Y-96785000D01*
X60935000Y-96785000D02*
X60935000Y-92900000D01*
X58665000Y-92900000D02*
X58665000Y-96785000D01*
X63010000Y-72727064D02*
X63010000Y-71272936D01*
X61190000Y-72727064D02*
X61190000Y-71272936D01*
X46010000Y-83927064D02*
X46010000Y-82472936D01*
X44190000Y-83927064D02*
X44190000Y-82472936D01*
X79910000Y-83927064D02*
X79910000Y-82472936D01*
X78090000Y-83927064D02*
X78090000Y-82472936D01*
X46110000Y-95227064D02*
X46110000Y-93772936D01*
X44290000Y-95227064D02*
X44290000Y-93772936D01*
X79910000Y-95227064D02*
X79910000Y-93772936D01*
X78090000Y-95227064D02*
X78090000Y-93772936D01*
X79910000Y-72727064D02*
X79910000Y-71272936D01*
X78090000Y-72727064D02*
X78090000Y-71272936D01*
X63010000Y-95227064D02*
X63010000Y-93772936D01*
X61190000Y-95227064D02*
X61190000Y-93772936D01*
X63110000Y-83927064D02*
X63110000Y-82472936D01*
X61290000Y-83927064D02*
X61290000Y-82472936D01*
X46110000Y-72727064D02*
X46110000Y-71272936D01*
X44290000Y-72727064D02*
X44290000Y-71272936D01*
X37120000Y-75400000D02*
X38620000Y-75400000D01*
X38620000Y-75130000D02*
X41450000Y-75130000D01*
X38620000Y-68770000D02*
X39720000Y-68770000D01*
X37120000Y-68500000D02*
X38620000Y-68500000D01*
X38620000Y-75400000D02*
X38620000Y-75130000D01*
X38620000Y-68500000D02*
X38620000Y-68770000D01*
X54070000Y-75400000D02*
X55570000Y-75400000D01*
X55570000Y-75130000D02*
X58400000Y-75130000D01*
X55570000Y-68770000D02*
X56670000Y-68770000D01*
X54070000Y-68500000D02*
X55570000Y-68500000D01*
X55570000Y-75400000D02*
X55570000Y-75130000D01*
X55570000Y-68500000D02*
X55570000Y-68770000D01*
X70970000Y-75400000D02*
X72470000Y-75400000D01*
X72470000Y-75130000D02*
X75300000Y-75130000D01*
X72470000Y-68770000D02*
X73570000Y-68770000D01*
X70970000Y-68500000D02*
X72470000Y-68500000D01*
X72470000Y-75400000D02*
X72470000Y-75130000D01*
X72470000Y-68500000D02*
X72470000Y-68770000D01*
X37120000Y-86700000D02*
X38620000Y-86700000D01*
X38620000Y-86430000D02*
X41450000Y-86430000D01*
X38620000Y-80070000D02*
X39720000Y-80070000D01*
X37120000Y-79800000D02*
X38620000Y-79800000D01*
X38620000Y-86700000D02*
X38620000Y-86430000D01*
X38620000Y-79800000D02*
X38620000Y-80070000D01*
X70970000Y-86700000D02*
X72470000Y-86700000D01*
X72470000Y-86430000D02*
X75300000Y-86430000D01*
X72470000Y-80070000D02*
X73570000Y-80070000D01*
X70970000Y-79800000D02*
X72470000Y-79800000D01*
X72470000Y-86700000D02*
X72470000Y-86430000D01*
X72470000Y-79800000D02*
X72470000Y-80070000D01*
X54070000Y-98000000D02*
X55570000Y-98000000D01*
X55570000Y-97730000D02*
X58400000Y-97730000D01*
X55570000Y-91370000D02*
X56670000Y-91370000D01*
X54070000Y-91100000D02*
X55570000Y-91100000D01*
X55570000Y-98000000D02*
X55570000Y-97730000D01*
X55570000Y-91100000D02*
X55570000Y-91370000D01*
X54070000Y-86700000D02*
X55570000Y-86700000D01*
X55570000Y-86430000D02*
X58400000Y-86430000D01*
X55570000Y-80070000D02*
X56670000Y-80070000D01*
X54070000Y-79800000D02*
X55570000Y-79800000D01*
X55570000Y-86700000D02*
X55570000Y-86430000D01*
X55570000Y-79800000D02*
X55570000Y-80070000D01*
X37120000Y-98000000D02*
X38620000Y-98000000D01*
X38620000Y-97730000D02*
X41450000Y-97730000D01*
X38620000Y-91370000D02*
X39720000Y-91370000D01*
X37120000Y-91100000D02*
X38620000Y-91100000D01*
X38620000Y-98000000D02*
X38620000Y-97730000D01*
X38620000Y-91100000D02*
X38620000Y-91370000D01*
X70970000Y-97800000D02*
X72470000Y-97800000D01*
X72470000Y-97530000D02*
X75300000Y-97530000D01*
X72470000Y-91170000D02*
X73570000Y-91170000D01*
X70970000Y-90900000D02*
X72470000Y-90900000D01*
X72470000Y-97800000D02*
X72470000Y-97530000D01*
X72470000Y-90900000D02*
X72470000Y-91170000D01*
X50746359Y-77220000D02*
X51053641Y-77220000D01*
X50746359Y-77980000D02*
X51053641Y-77980000D01*
X26500000Y-106710000D02*
X25000000Y-106710000D01*
X25000000Y-112010000D02*
X25000000Y-113310000D01*
X25000000Y-113310000D02*
X26500000Y-113310000D01*
X42000000Y-106710000D02*
X42000000Y-108010000D01*
X25000000Y-106710000D02*
X25000000Y-108010000D01*
X40500000Y-106710000D02*
X42000000Y-106710000D01*
X42000000Y-112010000D02*
X42000000Y-113310000D01*
X42000000Y-113310000D02*
X40500000Y-113310000D01*
X26250000Y-113750000D02*
G75*
G03*
X26250000Y-113750000I-250000J0D01*
G01*
X59500000Y-106710000D02*
X58000000Y-106710000D01*
X58000000Y-112010000D02*
X58000000Y-113310000D01*
X58000000Y-113310000D02*
X59500000Y-113310000D01*
X75000000Y-106710000D02*
X75000000Y-108010000D01*
X58000000Y-106710000D02*
X58000000Y-108010000D01*
X73500000Y-106710000D02*
X75000000Y-106710000D01*
X75000000Y-112010000D02*
X75000000Y-113310000D01*
X75000000Y-113310000D02*
X73500000Y-113310000D01*
X59250000Y-113750000D02*
G75*
G03*
X59250000Y-113750000I-250000J0D01*
G01*
X55092164Y-68260000D02*
X55307836Y-68260000D01*
X55092164Y-67540000D02*
X55307836Y-67540000D01*
X71892164Y-79560000D02*
X72107836Y-79560000D01*
X71892164Y-78840000D02*
X72107836Y-78840000D01*
X55092164Y-90860000D02*
X55307836Y-90860000D01*
X55092164Y-90140000D02*
X55307836Y-90140000D01*
X55092164Y-79560000D02*
X55307836Y-79560000D01*
X55092164Y-78840000D02*
X55307836Y-78840000D01*
X71992164Y-68260000D02*
X72207836Y-68260000D01*
X71992164Y-67540000D02*
X72207836Y-67540000D01*
X38192164Y-68260000D02*
X38407836Y-68260000D01*
X38192164Y-67540000D02*
X38407836Y-67540000D01*
X38192164Y-79560000D02*
X38407836Y-79560000D01*
X38192164Y-78840000D02*
X38407836Y-78840000D01*
X71992164Y-90860000D02*
X72207836Y-90860000D01*
X71992164Y-90140000D02*
X72207836Y-90140000D01*
X38192164Y-90860000D02*
X38407836Y-90860000D01*
X38192164Y-90140000D02*
X38407836Y-90140000D01*
X51000000Y-39500000D02*
X43200000Y-39500000D01*
X51200000Y-21500000D02*
X51200000Y-22300000D01*
X35400000Y-20300000D02*
X51000000Y-20300000D01*
X51200000Y-22300000D02*
X51200000Y-39500000D01*
X51200000Y-20300000D02*
X51200000Y-20500000D01*
X51200000Y-20500000D02*
X51200000Y-21500000D01*
X51000000Y-39500000D02*
X51200000Y-39500000D01*
X50200000Y-39150000D02*
X50200000Y-38150000D01*
X35200000Y-39500000D02*
X35400000Y-39500000D01*
X35200000Y-20300000D02*
X35400000Y-20300000D01*
X35200000Y-39500000D02*
X35200000Y-22300000D01*
X36200000Y-39150000D02*
X36200000Y-38150000D01*
X51000000Y-20300000D02*
X51200000Y-20300000D01*
X49700000Y-38650000D02*
X50700000Y-38650000D01*
X35200000Y-21500000D02*
X35200000Y-22300000D01*
X35200000Y-20300000D02*
X35200000Y-20500000D01*
X43200000Y-39500000D02*
X35400000Y-39500000D01*
X35200000Y-20500000D02*
X35200000Y-21500000D01*
X59492164Y-63860000D02*
X59707836Y-63860000D01*
X59492164Y-63140000D02*
X59707836Y-63140000D01*
X31153641Y-102380000D02*
X30846359Y-102380000D01*
X31153641Y-101620000D02*
X30846359Y-101620000D01*
X31120000Y-103543641D02*
X31120000Y-103236359D01*
X31880000Y-103543641D02*
X31880000Y-103236359D01*
X31880000Y-116456359D02*
X31880000Y-116763641D01*
X31120000Y-116456359D02*
X31120000Y-116763641D01*
X29880000Y-116456359D02*
X29880000Y-116763641D01*
X29120000Y-116456359D02*
X29120000Y-116763641D01*
X70880000Y-114746359D02*
X70880000Y-115053641D01*
X70120000Y-114746359D02*
X70120000Y-115053641D01*
X66880000Y-114746359D02*
X66880000Y-115053641D01*
X66120000Y-114746359D02*
X66120000Y-115053641D01*
X62880000Y-114746359D02*
X62880000Y-115053641D01*
X62120000Y-114746359D02*
X62120000Y-115053641D01*
X60880000Y-114746359D02*
X60880000Y-115053641D01*
X60120000Y-114746359D02*
X60120000Y-115053641D01*
X64880000Y-114736359D02*
X64880000Y-115043641D01*
X64120000Y-114736359D02*
X64120000Y-115043641D01*
X68880000Y-114746359D02*
X68880000Y-115053641D01*
X68120000Y-114746359D02*
X68120000Y-115053641D01*
X31120000Y-105443641D02*
X31120000Y-105136359D01*
X31880000Y-105443641D02*
X31880000Y-105136359D01*
X25040000Y-41292164D02*
X25040000Y-41507836D01*
X25760000Y-41292164D02*
X25760000Y-41507836D01*
X59153641Y-45780000D02*
X58846359Y-45780000D01*
X59153641Y-45020000D02*
X58846359Y-45020000D01*
X31053641Y-34780000D02*
X30746359Y-34780000D01*
X31053641Y-34020000D02*
X30746359Y-34020000D01*
X41500000Y-45115000D02*
X43700000Y-45115000D01*
X41500000Y-45115000D02*
X37900000Y-45115000D01*
X41500000Y-51885000D02*
X43700000Y-51885000D01*
X41500000Y-51885000D02*
X39300000Y-51885000D01*
X36853641Y-47380000D02*
X36546359Y-47380000D01*
X36853641Y-46620000D02*
X36546359Y-46620000D01*
X38153641Y-44880000D02*
X37846359Y-44880000D01*
X38153641Y-44120000D02*
X37846359Y-44120000D01*
X35000000Y-45800000D02*
G75*
G03*
X35000000Y-45800000I-700000J0D01*
G01*
X44746359Y-44120000D02*
X45053641Y-44120000D01*
X44746359Y-44880000D02*
X45053641Y-44880000D01*
X77036359Y-45120000D02*
X77343641Y-45120000D01*
X77036359Y-45880000D02*
X77343641Y-45880000D01*
X24038752Y-31910000D02*
X22616248Y-31910000D01*
X24038752Y-30090000D02*
X22616248Y-30090000D01*
X77056359Y-47020000D02*
X77363641Y-47020000D01*
X77056359Y-47780000D02*
X77363641Y-47780000D01*
X35880000Y-40836359D02*
X35880000Y-41143641D01*
X35120000Y-40836359D02*
X35120000Y-41143641D01*
X59153641Y-53380000D02*
X58846359Y-53380000D01*
X59153641Y-52620000D02*
X58846359Y-52620000D01*
X36807836Y-45640000D02*
X36592164Y-45640000D01*
X36807836Y-46360000D02*
X36592164Y-46360000D01*
X24707836Y-33340000D02*
X24492164Y-33340000D01*
X24707836Y-34060000D02*
X24492164Y-34060000D01*
X69620000Y-24653641D02*
X69620000Y-24346359D01*
X70380000Y-24653641D02*
X70380000Y-24346359D01*
X77046359Y-52620000D02*
X77353641Y-52620000D01*
X77046359Y-53380000D02*
X77353641Y-53380000D01*
X38936359Y-52220000D02*
X39243641Y-52220000D01*
X38936359Y-52980000D02*
X39243641Y-52980000D01*
X32861252Y-35165000D02*
X32338748Y-35165000D01*
X32861252Y-36635000D02*
X32338748Y-36635000D01*
X26175000Y-31075000D02*
X27150000Y-31075000D01*
X26175000Y-34325000D02*
X26175000Y-34100000D01*
X26175000Y-34325000D02*
X27150000Y-34325000D01*
X29425000Y-31300000D02*
X29425000Y-31075000D01*
X28450000Y-34325000D02*
X29425000Y-34325000D01*
X29425000Y-34100000D02*
X29425000Y-34325000D01*
X28450000Y-31075000D02*
X29425000Y-31075000D01*
X20520000Y-66953641D02*
X20520000Y-66646359D01*
X21280000Y-66953641D02*
X21280000Y-66646359D01*
X34500000Y-43910000D02*
X28490000Y-43910000D01*
X32250000Y-37090000D02*
X28490000Y-37090000D01*
X28490000Y-37090000D02*
X28490000Y-38350000D01*
X28490000Y-43910000D02*
X28490000Y-42650000D01*
X23400000Y-68300000D02*
G75*
G03*
X23400000Y-68300000I-700000J0D01*
G01*
X31888748Y-30190000D02*
X33311252Y-30190000D01*
X31888748Y-32010000D02*
X33311252Y-32010000D01*
X34560000Y-22707836D02*
X34560000Y-22492164D01*
X33840000Y-22707836D02*
X33840000Y-22492164D01*
X24635000Y-39661252D02*
X24635000Y-39138748D01*
X23165000Y-39661252D02*
X23165000Y-39138748D01*
X71320000Y-24653641D02*
X71320000Y-24346359D01*
X72080000Y-24653641D02*
X72080000Y-24346359D01*
X25700000Y-103400000D02*
G75*
G03*
X25700000Y-103400000I-700000J0D01*
G01*
X24592164Y-44160000D02*
X24807836Y-44160000D01*
X24592164Y-43440000D02*
X24807836Y-43440000D01*
G36*
X44491457Y-109820203D02*
G01*
X44491563Y-109945385D01*
X44491847Y-110063650D01*
X44492298Y-110174030D01*
X44492907Y-110275559D01*
X44493665Y-110367271D01*
X44494561Y-110448200D01*
X44495587Y-110517379D01*
X44496732Y-110573841D01*
X44497987Y-110616621D01*
X44499343Y-110644752D01*
X44499722Y-110649684D01*
X44510776Y-110740060D01*
X44527243Y-110817109D01*
X44549787Y-110882653D01*
X44579069Y-110938510D01*
X44615751Y-110986503D01*
X44626239Y-110997571D01*
X44682908Y-111044033D01*
X44747628Y-111077798D01*
X44818844Y-111098805D01*
X44895002Y-111106995D01*
X44974547Y-111102309D01*
X45055924Y-111084686D01*
X45137579Y-111054069D01*
X45203033Y-111019596D01*
X45248746Y-110987621D01*
X45298681Y-110944711D01*
X45349621Y-110893954D01*
X45398352Y-110838440D01*
X45419614Y-110811535D01*
X45475625Y-110737988D01*
X45475625Y-109084000D01*
X45823991Y-109084000D01*
X45826987Y-109963078D01*
X45827478Y-110101626D01*
X45827962Y-110225212D01*
X45828455Y-110334751D01*
X45828974Y-110431156D01*
X45829535Y-110515341D01*
X45830152Y-110588219D01*
X45830842Y-110650704D01*
X45831621Y-110703710D01*
X45832505Y-110748151D01*
X45833509Y-110784940D01*
X45834649Y-110814990D01*
X45835941Y-110839217D01*
X45837402Y-110858532D01*
X45839046Y-110873850D01*
X45840890Y-110886085D01*
X45842949Y-110896150D01*
X45843186Y-110897149D01*
X45860248Y-110950999D01*
X45883069Y-110990884D01*
X45913235Y-111018153D01*
X45952333Y-111034160D01*
X46001950Y-111040254D01*
X46011406Y-111040402D01*
X46045041Y-111039323D01*
X46070684Y-111034565D01*
X46096119Y-111024205D01*
X46113005Y-111015334D01*
X46159042Y-110990098D01*
X46156661Y-111031017D01*
X46154281Y-111071935D01*
X45955844Y-111181211D01*
X45903089Y-111209876D01*
X45854315Y-111235644D01*
X45811448Y-111257552D01*
X45776413Y-111274640D01*
X45751136Y-111285945D01*
X45737543Y-111290507D01*
X45736846Y-111290556D01*
X45719357Y-111287100D01*
X45693676Y-111277994D01*
X45666808Y-111265901D01*
X45629083Y-111242693D01*
X45597924Y-111213132D01*
X45572287Y-111175314D01*
X45551127Y-111127337D01*
X45533399Y-111067296D01*
X45518479Y-110995643D01*
X45512196Y-110962374D01*
X45506355Y-110934636D01*
X45501829Y-110916439D01*
X45500275Y-110912059D01*
X45492726Y-110913485D01*
X45474989Y-110925551D01*
X45447974Y-110947547D01*
X45412594Y-110978761D01*
X45400155Y-110990121D01*
X45312496Y-111068692D01*
X45232975Y-111135317D01*
X45160174Y-111190728D01*
X45092674Y-111235656D01*
X45029058Y-111270831D01*
X44967907Y-111296986D01*
X44907803Y-111314850D01*
X44847328Y-111325156D01*
X44785064Y-111328634D01*
X44745375Y-111327704D01*
X44650895Y-111316930D01*
X44566631Y-111294296D01*
X44491972Y-111259367D01*
X44426309Y-111211708D01*
X44369030Y-111150882D01*
X44319525Y-111076455D01*
X44280521Y-110996073D01*
X44252634Y-110929469D01*
X44255696Y-111123938D01*
X44256686Y-111180341D01*
X44257899Y-111227591D01*
X44259627Y-111268809D01*
X44262163Y-111307118D01*
X44265799Y-111345638D01*
X44270827Y-111387491D01*
X44277541Y-111435800D01*
X44286233Y-111493686D01*
X44296605Y-111560500D01*
X44311200Y-111656712D01*
X44322518Y-111738892D01*
X44330514Y-111808550D01*
X44335141Y-111867198D01*
X44336353Y-111916345D01*
X44334105Y-111957503D01*
X44328350Y-111992183D01*
X44319042Y-112021894D01*
X44306135Y-112048149D01*
X44289583Y-112072457D01*
X44280631Y-112083520D01*
X44245150Y-112113814D01*
X44201594Y-112132709D01*
X44153852Y-112139237D01*
X44105813Y-112132431D01*
X44096396Y-112129342D01*
X44052781Y-112105222D01*
X44016164Y-112067594D01*
X43993983Y-112031006D01*
X43983708Y-112008722D01*
X43977199Y-111989319D01*
X43973671Y-111968102D01*
X43972340Y-111940377D01*
X43972420Y-111901813D01*
X43974870Y-111852384D01*
X43981128Y-111789347D01*
X43990992Y-111714456D01*
X44001891Y-111643844D01*
X44012889Y-111575618D01*
X44022451Y-111514023D01*
X44030993Y-111455907D01*
X44038929Y-111398116D01*
X44046677Y-111337496D01*
X44054653Y-111270894D01*
X44063271Y-111195158D01*
X44072949Y-111107133D01*
X44074140Y-111096156D01*
X44084205Y-111001767D01*
X44093118Y-110914243D01*
X44100960Y-110831911D01*
X44107809Y-110753095D01*
X44113744Y-110676119D01*
X44118844Y-110599309D01*
X44123188Y-110520988D01*
X44126855Y-110439482D01*
X44129925Y-110353115D01*
X44132475Y-110260212D01*
X44134585Y-110159097D01*
X44136334Y-110048096D01*
X44137802Y-109925533D01*
X44139066Y-109789732D01*
X44139731Y-109705109D01*
X44144359Y-109084000D01*
X44491375Y-109084000D01*
X44491457Y-109820203D01*
G37*
D16*
X44491457Y-109820203D02*
X44491563Y-109945385D01*
X44491847Y-110063650D01*
X44492298Y-110174030D01*
X44492907Y-110275559D01*
X44493665Y-110367271D01*
X44494561Y-110448200D01*
X44495587Y-110517379D01*
X44496732Y-110573841D01*
X44497987Y-110616621D01*
X44499343Y-110644752D01*
X44499722Y-110649684D01*
X44510776Y-110740060D01*
X44527243Y-110817109D01*
X44549787Y-110882653D01*
X44579069Y-110938510D01*
X44615751Y-110986503D01*
X44626239Y-110997571D01*
X44682908Y-111044033D01*
X44747628Y-111077798D01*
X44818844Y-111098805D01*
X44895002Y-111106995D01*
X44974547Y-111102309D01*
X45055924Y-111084686D01*
X45137579Y-111054069D01*
X45203033Y-111019596D01*
X45248746Y-110987621D01*
X45298681Y-110944711D01*
X45349621Y-110893954D01*
X45398352Y-110838440D01*
X45419614Y-110811535D01*
X45475625Y-110737988D01*
X45475625Y-109084000D01*
X45823991Y-109084000D01*
X45826987Y-109963078D01*
X45827478Y-110101626D01*
X45827962Y-110225212D01*
X45828455Y-110334751D01*
X45828974Y-110431156D01*
X45829535Y-110515341D01*
X45830152Y-110588219D01*
X45830842Y-110650704D01*
X45831621Y-110703710D01*
X45832505Y-110748151D01*
X45833509Y-110784940D01*
X45834649Y-110814990D01*
X45835941Y-110839217D01*
X45837402Y-110858532D01*
X45839046Y-110873850D01*
X45840890Y-110886085D01*
X45842949Y-110896150D01*
X45843186Y-110897149D01*
X45860248Y-110950999D01*
X45883069Y-110990884D01*
X45913235Y-111018153D01*
X45952333Y-111034160D01*
X46001950Y-111040254D01*
X46011406Y-111040402D01*
X46045041Y-111039323D01*
X46070684Y-111034565D01*
X46096119Y-111024205D01*
X46113005Y-111015334D01*
X46159042Y-110990098D01*
X46156661Y-111031017D01*
X46154281Y-111071935D01*
X45955844Y-111181211D01*
X45903089Y-111209876D01*
X45854315Y-111235644D01*
X45811448Y-111257552D01*
X45776413Y-111274640D01*
X45751136Y-111285945D01*
X45737543Y-111290507D01*
X45736846Y-111290556D01*
X45719357Y-111287100D01*
X45693676Y-111277994D01*
X45666808Y-111265901D01*
X45629083Y-111242693D01*
X45597924Y-111213132D01*
X45572287Y-111175314D01*
X45551127Y-111127337D01*
X45533399Y-111067296D01*
X45518479Y-110995643D01*
X45512196Y-110962374D01*
X45506355Y-110934636D01*
X45501829Y-110916439D01*
X45500275Y-110912059D01*
X45492726Y-110913485D01*
X45474989Y-110925551D01*
X45447974Y-110947547D01*
X45412594Y-110978761D01*
X45400155Y-110990121D01*
X45312496Y-111068692D01*
X45232975Y-111135317D01*
X45160174Y-111190728D01*
X45092674Y-111235656D01*
X45029058Y-111270831D01*
X44967907Y-111296986D01*
X44907803Y-111314850D01*
X44847328Y-111325156D01*
X44785064Y-111328634D01*
X44745375Y-111327704D01*
X44650895Y-111316930D01*
X44566631Y-111294296D01*
X44491972Y-111259367D01*
X44426309Y-111211708D01*
X44369030Y-111150882D01*
X44319525Y-111076455D01*
X44280521Y-110996073D01*
X44252634Y-110929469D01*
X44255696Y-111123938D01*
X44256686Y-111180341D01*
X44257899Y-111227591D01*
X44259627Y-111268809D01*
X44262163Y-111307118D01*
X44265799Y-111345638D01*
X44270827Y-111387491D01*
X44277541Y-111435800D01*
X44286233Y-111493686D01*
X44296605Y-111560500D01*
X44311200Y-111656712D01*
X44322518Y-111738892D01*
X44330514Y-111808550D01*
X44335141Y-111867198D01*
X44336353Y-111916345D01*
X44334105Y-111957503D01*
X44328350Y-111992183D01*
X44319042Y-112021894D01*
X44306135Y-112048149D01*
X44289583Y-112072457D01*
X44280631Y-112083520D01*
X44245150Y-112113814D01*
X44201594Y-112132709D01*
X44153852Y-112139237D01*
X44105813Y-112132431D01*
X44096396Y-112129342D01*
X44052781Y-112105222D01*
X44016164Y-112067594D01*
X43993983Y-112031006D01*
X43983708Y-112008722D01*
X43977199Y-111989319D01*
X43973671Y-111968102D01*
X43972340Y-111940377D01*
X43972420Y-111901813D01*
X43974870Y-111852384D01*
X43981128Y-111789347D01*
X43990992Y-111714456D01*
X44001891Y-111643844D01*
X44012889Y-111575618D01*
X44022451Y-111514023D01*
X44030993Y-111455907D01*
X44038929Y-111398116D01*
X44046677Y-111337496D01*
X44054653Y-111270894D01*
X44063271Y-111195158D01*
X44072949Y-111107133D01*
X44074140Y-111096156D01*
X44084205Y-111001767D01*
X44093118Y-110914243D01*
X44100960Y-110831911D01*
X44107809Y-110753095D01*
X44113744Y-110676119D01*
X44118844Y-110599309D01*
X44123188Y-110520988D01*
X44126855Y-110439482D01*
X44129925Y-110353115D01*
X44132475Y-110260212D01*
X44134585Y-110159097D01*
X44136334Y-110048096D01*
X44137802Y-109925533D01*
X44139066Y-109789732D01*
X44139731Y-109705109D01*
X44144359Y-109084000D01*
X44491375Y-109084000D01*
X44491457Y-109820203D01*
G36*
X49963461Y-107942070D02*
G01*
X49965787Y-107943305D01*
X49968369Y-107945271D01*
X49971487Y-107948497D01*
X49975419Y-107953510D01*
X49980446Y-107960837D01*
X49986847Y-107971006D01*
X49994902Y-107984544D01*
X50004889Y-108001978D01*
X50017089Y-108023836D01*
X50031781Y-108050646D01*
X50049244Y-108082934D01*
X50069759Y-108121227D01*
X50093604Y-108166055D01*
X50121059Y-108217943D01*
X50152404Y-108277419D01*
X50187918Y-108345010D01*
X50227881Y-108421245D01*
X50272572Y-108506650D01*
X50322270Y-108601752D01*
X50377256Y-108707080D01*
X50437808Y-108823160D01*
X50504206Y-108950520D01*
X50576731Y-109089687D01*
X50655660Y-109241188D01*
X50741274Y-109405552D01*
X50833853Y-109583305D01*
X50864152Y-109641482D01*
X50906422Y-109722447D01*
X50946634Y-109799091D01*
X50984181Y-109870278D01*
X51018454Y-109934871D01*
X51048844Y-109991738D01*
X51074745Y-110039741D01*
X51095546Y-110077746D01*
X51110641Y-110104618D01*
X51119420Y-110119221D01*
X51121417Y-110121619D01*
X51125969Y-110114589D01*
X51137823Y-110094498D01*
X51156531Y-110062140D01*
X51181643Y-110018307D01*
X51212711Y-109963792D01*
X51249286Y-109899388D01*
X51290918Y-109825888D01*
X51337160Y-109744086D01*
X51387562Y-109654775D01*
X51441675Y-109558746D01*
X51499050Y-109456795D01*
X51559238Y-109349712D01*
X51621791Y-109238293D01*
X51661632Y-109167262D01*
X51736986Y-109032894D01*
X51804996Y-108911696D01*
X51866062Y-108802980D01*
X51920585Y-108706059D01*
X51968965Y-108620245D01*
X52011603Y-108544849D01*
X52048899Y-108479186D01*
X52081254Y-108422566D01*
X52109069Y-108374302D01*
X52132743Y-108333708D01*
X52152679Y-108300094D01*
X52169276Y-108272773D01*
X52182935Y-108251058D01*
X52194056Y-108234260D01*
X52203041Y-108221694D01*
X52210289Y-108212669D01*
X52216201Y-108206500D01*
X52221178Y-108202498D01*
X52224902Y-108200322D01*
X52258112Y-108191211D01*
X52288648Y-108195904D01*
X52313421Y-108212526D01*
X52329340Y-108239201D01*
X52333625Y-108266315D01*
X52332266Y-108272690D01*
X52327978Y-108283928D01*
X52320439Y-108300615D01*
X52309330Y-108323335D01*
X52294332Y-108352676D01*
X52275125Y-108389223D01*
X52251389Y-108433562D01*
X52222805Y-108486280D01*
X52189052Y-108547961D01*
X52149812Y-108619193D01*
X52104764Y-108700561D01*
X52053589Y-108792650D01*
X51995967Y-108896048D01*
X51931578Y-109011340D01*
X51860103Y-109139111D01*
X51781221Y-109279948D01*
X51757531Y-109322220D01*
X51691140Y-109440609D01*
X51626761Y-109555299D01*
X51564830Y-109665517D01*
X51505783Y-109770489D01*
X51450058Y-109869443D01*
X51398093Y-109961605D01*
X51350322Y-110046203D01*
X51307185Y-110122462D01*
X51269118Y-110189611D01*
X51236557Y-110246875D01*
X51209941Y-110293482D01*
X51189705Y-110328658D01*
X51176287Y-110351630D01*
X51170124Y-110361625D01*
X51169872Y-110361938D01*
X51151810Y-110371076D01*
X51125468Y-110374360D01*
X51097228Y-110372030D01*
X51073467Y-110364327D01*
X51064697Y-110357969D01*
X51059292Y-110349159D01*
X51047007Y-110327065D01*
X51028269Y-110292498D01*
X51003505Y-110246266D01*
X50973140Y-110189180D01*
X50937603Y-110122049D01*
X50897319Y-110045683D01*
X50852715Y-109960893D01*
X50804218Y-109868487D01*
X50752254Y-109769276D01*
X50697251Y-109664070D01*
X50639635Y-109553678D01*
X50579832Y-109438910D01*
X50530679Y-109344445D01*
X50011906Y-108346796D01*
X50007938Y-109787648D01*
X50003969Y-111228501D01*
X49981698Y-111247657D01*
X49964043Y-111260380D01*
X49946695Y-111264921D01*
X49922799Y-111262687D01*
X49915282Y-111261291D01*
X49892312Y-111250150D01*
X49870937Y-111229014D01*
X49856143Y-111203398D01*
X49853068Y-111192501D01*
X49852640Y-111182194D01*
X49852244Y-111156776D01*
X49851883Y-111117013D01*
X49851557Y-111063668D01*
X49851268Y-110997507D01*
X49851017Y-110919294D01*
X49850804Y-110829792D01*
X49850631Y-110729768D01*
X49850498Y-110619986D01*
X49850407Y-110501210D01*
X49850358Y-110374204D01*
X49850354Y-110239734D01*
X49850394Y-110098564D01*
X49850480Y-109951457D01*
X49850612Y-109799180D01*
X49850792Y-109642497D01*
X49850891Y-109569484D01*
X49853156Y-107971375D01*
X49875427Y-107952219D01*
X49905488Y-107936126D01*
X49939605Y-107934647D01*
X49963461Y-107942070D01*
G37*
X49963461Y-107942070D02*
X49965787Y-107943305D01*
X49968369Y-107945271D01*
X49971487Y-107948497D01*
X49975419Y-107953510D01*
X49980446Y-107960837D01*
X49986847Y-107971006D01*
X49994902Y-107984544D01*
X50004889Y-108001978D01*
X50017089Y-108023836D01*
X50031781Y-108050646D01*
X50049244Y-108082934D01*
X50069759Y-108121227D01*
X50093604Y-108166055D01*
X50121059Y-108217943D01*
X50152404Y-108277419D01*
X50187918Y-108345010D01*
X50227881Y-108421245D01*
X50272572Y-108506650D01*
X50322270Y-108601752D01*
X50377256Y-108707080D01*
X50437808Y-108823160D01*
X50504206Y-108950520D01*
X50576731Y-109089687D01*
X50655660Y-109241188D01*
X50741274Y-109405552D01*
X50833853Y-109583305D01*
X50864152Y-109641482D01*
X50906422Y-109722447D01*
X50946634Y-109799091D01*
X50984181Y-109870278D01*
X51018454Y-109934871D01*
X51048844Y-109991738D01*
X51074745Y-110039741D01*
X51095546Y-110077746D01*
X51110641Y-110104618D01*
X51119420Y-110119221D01*
X51121417Y-110121619D01*
X51125969Y-110114589D01*
X51137823Y-110094498D01*
X51156531Y-110062140D01*
X51181643Y-110018307D01*
X51212711Y-109963792D01*
X51249286Y-109899388D01*
X51290918Y-109825888D01*
X51337160Y-109744086D01*
X51387562Y-109654775D01*
X51441675Y-109558746D01*
X51499050Y-109456795D01*
X51559238Y-109349712D01*
X51621791Y-109238293D01*
X51661632Y-109167262D01*
X51736986Y-109032894D01*
X51804996Y-108911696D01*
X51866062Y-108802980D01*
X51920585Y-108706059D01*
X51968965Y-108620245D01*
X52011603Y-108544849D01*
X52048899Y-108479186D01*
X52081254Y-108422566D01*
X52109069Y-108374302D01*
X52132743Y-108333708D01*
X52152679Y-108300094D01*
X52169276Y-108272773D01*
X52182935Y-108251058D01*
X52194056Y-108234260D01*
X52203041Y-108221694D01*
X52210289Y-108212669D01*
X52216201Y-108206500D01*
X52221178Y-108202498D01*
X52224902Y-108200322D01*
X52258112Y-108191211D01*
X52288648Y-108195904D01*
X52313421Y-108212526D01*
X52329340Y-108239201D01*
X52333625Y-108266315D01*
X52332266Y-108272690D01*
X52327978Y-108283928D01*
X52320439Y-108300615D01*
X52309330Y-108323335D01*
X52294332Y-108352676D01*
X52275125Y-108389223D01*
X52251389Y-108433562D01*
X52222805Y-108486280D01*
X52189052Y-108547961D01*
X52149812Y-108619193D01*
X52104764Y-108700561D01*
X52053589Y-108792650D01*
X51995967Y-108896048D01*
X51931578Y-109011340D01*
X51860103Y-109139111D01*
X51781221Y-109279948D01*
X51757531Y-109322220D01*
X51691140Y-109440609D01*
X51626761Y-109555299D01*
X51564830Y-109665517D01*
X51505783Y-109770489D01*
X51450058Y-109869443D01*
X51398093Y-109961605D01*
X51350322Y-110046203D01*
X51307185Y-110122462D01*
X51269118Y-110189611D01*
X51236557Y-110246875D01*
X51209941Y-110293482D01*
X51189705Y-110328658D01*
X51176287Y-110351630D01*
X51170124Y-110361625D01*
X51169872Y-110361938D01*
X51151810Y-110371076D01*
X51125468Y-110374360D01*
X51097228Y-110372030D01*
X51073467Y-110364327D01*
X51064697Y-110357969D01*
X51059292Y-110349159D01*
X51047007Y-110327065D01*
X51028269Y-110292498D01*
X51003505Y-110246266D01*
X50973140Y-110189180D01*
X50937603Y-110122049D01*
X50897319Y-110045683D01*
X50852715Y-109960893D01*
X50804218Y-109868487D01*
X50752254Y-109769276D01*
X50697251Y-109664070D01*
X50639635Y-109553678D01*
X50579832Y-109438910D01*
X50530679Y-109344445D01*
X50011906Y-108346796D01*
X50007938Y-109787648D01*
X50003969Y-111228501D01*
X49981698Y-111247657D01*
X49964043Y-111260380D01*
X49946695Y-111264921D01*
X49922799Y-111262687D01*
X49915282Y-111261291D01*
X49892312Y-111250150D01*
X49870937Y-111229014D01*
X49856143Y-111203398D01*
X49853068Y-111192501D01*
X49852640Y-111182194D01*
X49852244Y-111156776D01*
X49851883Y-111117013D01*
X49851557Y-111063668D01*
X49851268Y-110997507D01*
X49851017Y-110919294D01*
X49850804Y-110829792D01*
X49850631Y-110729768D01*
X49850498Y-110619986D01*
X49850407Y-110501210D01*
X49850358Y-110374204D01*
X49850354Y-110239734D01*
X49850394Y-110098564D01*
X49850480Y-109951457D01*
X49850612Y-109799180D01*
X49850792Y-109642497D01*
X49850891Y-109569484D01*
X49853156Y-107971375D01*
X49875427Y-107952219D01*
X49905488Y-107936126D01*
X49939605Y-107934647D01*
X49963461Y-107942070D01*
G36*
X50371968Y-109623628D02*
G01*
X50399304Y-109635152D01*
X50417830Y-109654474D01*
X50418366Y-109655500D01*
X50420107Y-109662105D01*
X50421651Y-109675155D01*
X50423007Y-109695449D01*
X50424185Y-109723785D01*
X50425197Y-109760963D01*
X50426052Y-109807782D01*
X50426760Y-109865041D01*
X50427333Y-109933539D01*
X50427779Y-110014076D01*
X50428110Y-110107450D01*
X50428335Y-110214461D01*
X50428465Y-110335908D01*
X50428508Y-110444091D01*
X50428625Y-111212838D01*
X50401638Y-111239825D01*
X50373117Y-111261130D01*
X50345196Y-111266694D01*
X50316763Y-111256558D01*
X50299766Y-111243651D01*
X50273844Y-111220490D01*
X50273844Y-110438828D01*
X50273855Y-110309902D01*
X50273899Y-110195911D01*
X50273994Y-110095917D01*
X50274156Y-110008979D01*
X50274401Y-109934158D01*
X50274748Y-109870514D01*
X50275212Y-109817109D01*
X50275810Y-109773002D01*
X50276560Y-109737255D01*
X50277477Y-109708927D01*
X50278580Y-109687079D01*
X50279885Y-109670772D01*
X50281408Y-109659067D01*
X50283166Y-109651023D01*
X50285177Y-109645701D01*
X50287457Y-109642162D01*
X50288140Y-109641369D01*
X50311283Y-109626182D01*
X50340927Y-109620453D01*
X50371968Y-109623628D01*
G37*
X50371968Y-109623628D02*
X50399304Y-109635152D01*
X50417830Y-109654474D01*
X50418366Y-109655500D01*
X50420107Y-109662105D01*
X50421651Y-109675155D01*
X50423007Y-109695449D01*
X50424185Y-109723785D01*
X50425197Y-109760963D01*
X50426052Y-109807782D01*
X50426760Y-109865041D01*
X50427333Y-109933539D01*
X50427779Y-110014076D01*
X50428110Y-110107450D01*
X50428335Y-110214461D01*
X50428465Y-110335908D01*
X50428508Y-110444091D01*
X50428625Y-111212838D01*
X50401638Y-111239825D01*
X50373117Y-111261130D01*
X50345196Y-111266694D01*
X50316763Y-111256558D01*
X50299766Y-111243651D01*
X50273844Y-111220490D01*
X50273844Y-110438828D01*
X50273855Y-110309902D01*
X50273899Y-110195911D01*
X50273994Y-110095917D01*
X50274156Y-110008979D01*
X50274401Y-109934158D01*
X50274748Y-109870514D01*
X50275212Y-109817109D01*
X50275810Y-109773002D01*
X50276560Y-109737255D01*
X50277477Y-109708927D01*
X50278580Y-109687079D01*
X50279885Y-109670772D01*
X50281408Y-109659067D01*
X50283166Y-109651023D01*
X50285177Y-109645701D01*
X50287457Y-109642162D01*
X50288140Y-109641369D01*
X50311283Y-109626182D01*
X50340927Y-109620453D01*
X50371968Y-109623628D01*
G36*
X52458772Y-111102808D02*
G01*
X52491307Y-111115067D01*
X52513559Y-111138591D01*
X52523698Y-111171208D01*
X52524125Y-111180337D01*
X52520159Y-111211562D01*
X52509732Y-111239037D01*
X52495048Y-111257778D01*
X52488051Y-111261882D01*
X52460078Y-111266442D01*
X52427836Y-111263133D01*
X52403178Y-111254387D01*
X52380799Y-111235111D01*
X52364089Y-111207847D01*
X52357438Y-111179784D01*
X52357438Y-111179500D01*
X52364558Y-111147686D01*
X52383895Y-111122570D01*
X52412413Y-111106450D01*
X52447076Y-111101624D01*
X52458772Y-111102808D01*
G37*
X52458772Y-111102808D02*
X52491307Y-111115067D01*
X52513559Y-111138591D01*
X52523698Y-111171208D01*
X52524125Y-111180337D01*
X52520159Y-111211562D01*
X52509732Y-111239037D01*
X52495048Y-111257778D01*
X52488051Y-111261882D01*
X52460078Y-111266442D01*
X52427836Y-111263133D01*
X52403178Y-111254387D01*
X52380799Y-111235111D01*
X52364089Y-111207847D01*
X52357438Y-111179784D01*
X52357438Y-111179500D01*
X52364558Y-111147686D01*
X52383895Y-111122570D01*
X52412413Y-111106450D01*
X52447076Y-111101624D01*
X52458772Y-111102808D01*
G36*
X52886995Y-107936120D02*
G01*
X52903964Y-107940519D01*
X52923555Y-107953721D01*
X52935845Y-107969691D01*
X52936944Y-107979950D01*
X52937976Y-108005148D01*
X52938942Y-108044367D01*
X52939841Y-108096693D01*
X52940674Y-108161208D01*
X52941441Y-108236998D01*
X52942141Y-108323145D01*
X52942775Y-108418734D01*
X52943343Y-108522849D01*
X52943845Y-108634574D01*
X52944281Y-108752992D01*
X52944652Y-108877188D01*
X52944956Y-109006246D01*
X52945195Y-109139249D01*
X52945368Y-109275281D01*
X52945476Y-109413427D01*
X52945518Y-109552771D01*
X52945494Y-109692396D01*
X52945406Y-109831386D01*
X52945252Y-109968825D01*
X52945033Y-110103798D01*
X52944748Y-110235387D01*
X52944399Y-110362678D01*
X52943985Y-110484754D01*
X52943506Y-110600699D01*
X52942962Y-110709597D01*
X52942353Y-110810531D01*
X52941680Y-110902587D01*
X52940942Y-110984847D01*
X52940140Y-111056396D01*
X52939273Y-111116318D01*
X52938342Y-111163697D01*
X52937346Y-111197616D01*
X52936287Y-111217160D01*
X52935578Y-111221694D01*
X52917782Y-111244856D01*
X52893385Y-111256206D01*
X52869406Y-111258370D01*
X52845954Y-111256046D01*
X52828154Y-111250299D01*
X52825750Y-111248701D01*
X52821364Y-111245459D01*
X52817353Y-111242712D01*
X52813698Y-111239773D01*
X52810379Y-111235954D01*
X52807380Y-111230568D01*
X52804682Y-111222928D01*
X52802265Y-111212346D01*
X52800112Y-111198135D01*
X52798204Y-111179607D01*
X52796523Y-111156076D01*
X52795050Y-111126853D01*
X52793767Y-111091251D01*
X52792655Y-111048583D01*
X52791697Y-110998162D01*
X52790872Y-110939300D01*
X52790164Y-110871310D01*
X52789553Y-110793504D01*
X52789022Y-110705195D01*
X52788551Y-110605696D01*
X52788122Y-110494319D01*
X52787717Y-110370377D01*
X52787318Y-110233182D01*
X52786905Y-110082047D01*
X52786461Y-109916285D01*
X52786063Y-109769900D01*
X52782094Y-108330989D01*
X52325951Y-109165885D01*
X52226230Y-109348421D01*
X52133844Y-109517542D01*
X52048508Y-109673762D01*
X51969936Y-109817591D01*
X51897841Y-109949541D01*
X51831939Y-110070125D01*
X51771942Y-110179853D01*
X51717565Y-110279238D01*
X51668522Y-110368792D01*
X51624526Y-110449025D01*
X51585292Y-110520450D01*
X51550534Y-110583579D01*
X51519965Y-110638923D01*
X51493299Y-110686994D01*
X51470252Y-110728304D01*
X51450535Y-110763364D01*
X51433864Y-110792687D01*
X51419953Y-110816783D01*
X51408515Y-110836166D01*
X51399264Y-110851345D01*
X51391914Y-110862834D01*
X51386180Y-110871144D01*
X51381775Y-110876787D01*
X51378413Y-110880274D01*
X51375809Y-110882117D01*
X51373675Y-110882827D01*
X51371727Y-110882918D01*
X51369678Y-110882900D01*
X51367242Y-110883285D01*
X51365731Y-110883813D01*
X51347027Y-110890297D01*
X51331853Y-110890164D01*
X51312637Y-110882860D01*
X51305345Y-110879378D01*
X51276446Y-110858955D01*
X51259512Y-110833052D01*
X51256093Y-110804633D01*
X51259471Y-110791565D01*
X51264273Y-110781995D01*
X51276228Y-110759391D01*
X51294897Y-110724555D01*
X51319841Y-110678289D01*
X51350622Y-110621394D01*
X51386801Y-110554674D01*
X51427939Y-110478930D01*
X51473598Y-110394965D01*
X51523340Y-110303580D01*
X51576725Y-110205578D01*
X51633315Y-110101761D01*
X51692672Y-109992931D01*
X51754356Y-109879891D01*
X51817930Y-109763442D01*
X51882955Y-109644387D01*
X51948991Y-109523527D01*
X52015601Y-109401665D01*
X52082346Y-109279604D01*
X52148787Y-109158144D01*
X52214486Y-109038089D01*
X52279004Y-108920241D01*
X52341903Y-108805401D01*
X52402743Y-108694372D01*
X52461086Y-108587957D01*
X52516495Y-108486956D01*
X52568529Y-108392173D01*
X52616751Y-108304409D01*
X52660722Y-108224467D01*
X52700003Y-108153148D01*
X52734156Y-108091256D01*
X52762741Y-108039592D01*
X52785322Y-107998958D01*
X52801458Y-107970156D01*
X52810711Y-107953989D01*
X52812807Y-107950656D01*
X52831556Y-107940511D01*
X52858613Y-107935407D01*
X52886995Y-107936120D01*
G37*
X52886995Y-107936120D02*
X52903964Y-107940519D01*
X52923555Y-107953721D01*
X52935845Y-107969691D01*
X52936944Y-107979950D01*
X52937976Y-108005148D01*
X52938942Y-108044367D01*
X52939841Y-108096693D01*
X52940674Y-108161208D01*
X52941441Y-108236998D01*
X52942141Y-108323145D01*
X52942775Y-108418734D01*
X52943343Y-108522849D01*
X52943845Y-108634574D01*
X52944281Y-108752992D01*
X52944652Y-108877188D01*
X52944956Y-109006246D01*
X52945195Y-109139249D01*
X52945368Y-109275281D01*
X52945476Y-109413427D01*
X52945518Y-109552771D01*
X52945494Y-109692396D01*
X52945406Y-109831386D01*
X52945252Y-109968825D01*
X52945033Y-110103798D01*
X52944748Y-110235387D01*
X52944399Y-110362678D01*
X52943985Y-110484754D01*
X52943506Y-110600699D01*
X52942962Y-110709597D01*
X52942353Y-110810531D01*
X52941680Y-110902587D01*
X52940942Y-110984847D01*
X52940140Y-111056396D01*
X52939273Y-111116318D01*
X52938342Y-111163697D01*
X52937346Y-111197616D01*
X52936287Y-111217160D01*
X52935578Y-111221694D01*
X52917782Y-111244856D01*
X52893385Y-111256206D01*
X52869406Y-111258370D01*
X52845954Y-111256046D01*
X52828154Y-111250299D01*
X52825750Y-111248701D01*
X52821364Y-111245459D01*
X52817353Y-111242712D01*
X52813698Y-111239773D01*
X52810379Y-111235954D01*
X52807380Y-111230568D01*
X52804682Y-111222928D01*
X52802265Y-111212346D01*
X52800112Y-111198135D01*
X52798204Y-111179607D01*
X52796523Y-111156076D01*
X52795050Y-111126853D01*
X52793767Y-111091251D01*
X52792655Y-111048583D01*
X52791697Y-110998162D01*
X52790872Y-110939300D01*
X52790164Y-110871310D01*
X52789553Y-110793504D01*
X52789022Y-110705195D01*
X52788551Y-110605696D01*
X52788122Y-110494319D01*
X52787717Y-110370377D01*
X52787318Y-110233182D01*
X52786905Y-110082047D01*
X52786461Y-109916285D01*
X52786063Y-109769900D01*
X52782094Y-108330989D01*
X52325951Y-109165885D01*
X52226230Y-109348421D01*
X52133844Y-109517542D01*
X52048508Y-109673762D01*
X51969936Y-109817591D01*
X51897841Y-109949541D01*
X51831939Y-110070125D01*
X51771942Y-110179853D01*
X51717565Y-110279238D01*
X51668522Y-110368792D01*
X51624526Y-110449025D01*
X51585292Y-110520450D01*
X51550534Y-110583579D01*
X51519965Y-110638923D01*
X51493299Y-110686994D01*
X51470252Y-110728304D01*
X51450535Y-110763364D01*
X51433864Y-110792687D01*
X51419953Y-110816783D01*
X51408515Y-110836166D01*
X51399264Y-110851345D01*
X51391914Y-110862834D01*
X51386180Y-110871144D01*
X51381775Y-110876787D01*
X51378413Y-110880274D01*
X51375809Y-110882117D01*
X51373675Y-110882827D01*
X51371727Y-110882918D01*
X51369678Y-110882900D01*
X51367242Y-110883285D01*
X51365731Y-110883813D01*
X51347027Y-110890297D01*
X51331853Y-110890164D01*
X51312637Y-110882860D01*
X51305345Y-110879378D01*
X51276446Y-110858955D01*
X51259512Y-110833052D01*
X51256093Y-110804633D01*
X51259471Y-110791565D01*
X51264273Y-110781995D01*
X51276228Y-110759391D01*
X51294897Y-110724555D01*
X51319841Y-110678289D01*
X51350622Y-110621394D01*
X51386801Y-110554674D01*
X51427939Y-110478930D01*
X51473598Y-110394965D01*
X51523340Y-110303580D01*
X51576725Y-110205578D01*
X51633315Y-110101761D01*
X51692672Y-109992931D01*
X51754356Y-109879891D01*
X51817930Y-109763442D01*
X51882955Y-109644387D01*
X51948991Y-109523527D01*
X52015601Y-109401665D01*
X52082346Y-109279604D01*
X52148787Y-109158144D01*
X52214486Y-109038089D01*
X52279004Y-108920241D01*
X52341903Y-108805401D01*
X52402743Y-108694372D01*
X52461086Y-108587957D01*
X52516495Y-108486956D01*
X52568529Y-108392173D01*
X52616751Y-108304409D01*
X52660722Y-108224467D01*
X52700003Y-108153148D01*
X52734156Y-108091256D01*
X52762741Y-108039592D01*
X52785322Y-107998958D01*
X52801458Y-107970156D01*
X52810711Y-107953989D01*
X52812807Y-107950656D01*
X52831556Y-107940511D01*
X52858613Y-107935407D01*
X52886995Y-107936120D01*
G36*
X53875071Y-110070629D02*
G01*
X53895616Y-110074209D01*
X53910671Y-110080152D01*
X53921227Y-110090767D01*
X53928271Y-110108365D01*
X53932792Y-110135253D01*
X53935779Y-110173742D01*
X53937849Y-110217299D01*
X53943420Y-110300213D01*
X53953257Y-110372056D01*
X53968461Y-110437310D01*
X53990133Y-110500459D01*
X54019374Y-110565989D01*
X54027410Y-110582113D01*
X54085439Y-110679331D01*
X54156485Y-110768786D01*
X54239253Y-110849582D01*
X54332446Y-110920820D01*
X54434767Y-110981602D01*
X54544919Y-111031029D01*
X54661606Y-111068203D01*
X54758295Y-111088436D01*
X54795016Y-111093776D01*
X54830123Y-111097832D01*
X54857603Y-111099939D01*
X54863958Y-111100093D01*
X54907543Y-111104961D01*
X54939320Y-111118996D01*
X54958564Y-111141484D01*
X54964551Y-111171711D01*
X54960844Y-111195723D01*
X54951412Y-111220833D01*
X54937335Y-111239032D01*
X54916739Y-111250777D01*
X54887751Y-111256523D01*
X54848500Y-111256725D01*
X54797112Y-111251839D01*
X54754563Y-111245884D01*
X54617611Y-111218186D01*
X54488274Y-111178042D01*
X54367339Y-111125972D01*
X54255595Y-111062496D01*
X54153832Y-110988133D01*
X54062839Y-110903403D01*
X53983403Y-110808826D01*
X53916315Y-110704921D01*
X53906731Y-110687375D01*
X53852356Y-110568694D01*
X53812828Y-110444941D01*
X53788500Y-110317397D01*
X53780893Y-110230746D01*
X53779507Y-110173822D01*
X53782035Y-110130924D01*
X53789397Y-110100492D01*
X53802512Y-110080962D01*
X53822299Y-110070774D01*
X53849676Y-110068363D01*
X53875071Y-110070629D01*
G37*
X53875071Y-110070629D02*
X53895616Y-110074209D01*
X53910671Y-110080152D01*
X53921227Y-110090767D01*
X53928271Y-110108365D01*
X53932792Y-110135253D01*
X53935779Y-110173742D01*
X53937849Y-110217299D01*
X53943420Y-110300213D01*
X53953257Y-110372056D01*
X53968461Y-110437310D01*
X53990133Y-110500459D01*
X54019374Y-110565989D01*
X54027410Y-110582113D01*
X54085439Y-110679331D01*
X54156485Y-110768786D01*
X54239253Y-110849582D01*
X54332446Y-110920820D01*
X54434767Y-110981602D01*
X54544919Y-111031029D01*
X54661606Y-111068203D01*
X54758295Y-111088436D01*
X54795016Y-111093776D01*
X54830123Y-111097832D01*
X54857603Y-111099939D01*
X54863958Y-111100093D01*
X54907543Y-111104961D01*
X54939320Y-111118996D01*
X54958564Y-111141484D01*
X54964551Y-111171711D01*
X54960844Y-111195723D01*
X54951412Y-111220833D01*
X54937335Y-111239032D01*
X54916739Y-111250777D01*
X54887751Y-111256523D01*
X54848500Y-111256725D01*
X54797112Y-111251839D01*
X54754563Y-111245884D01*
X54617611Y-111218186D01*
X54488274Y-111178042D01*
X54367339Y-111125972D01*
X54255595Y-111062496D01*
X54153832Y-110988133D01*
X54062839Y-110903403D01*
X53983403Y-110808826D01*
X53916315Y-110704921D01*
X53906731Y-110687375D01*
X53852356Y-110568694D01*
X53812828Y-110444941D01*
X53788500Y-110317397D01*
X53780893Y-110230746D01*
X53779507Y-110173822D01*
X53782035Y-110130924D01*
X53789397Y-110100492D01*
X53802512Y-110080962D01*
X53822299Y-110070774D01*
X53849676Y-110068363D01*
X53875071Y-110070629D01*
G36*
X47327597Y-107929134D02*
G01*
X47420562Y-107929275D01*
X47500374Y-107929547D01*
X47568393Y-107929982D01*
X47625980Y-107930609D01*
X47674496Y-107931460D01*
X47715301Y-107932564D01*
X47749757Y-107933953D01*
X47779224Y-107935657D01*
X47805063Y-107937707D01*
X47828634Y-107940134D01*
X47851298Y-107942968D01*
X47854247Y-107943367D01*
X47992951Y-107967469D01*
X48118428Y-108000153D01*
X48230884Y-108041542D01*
X48330526Y-108091759D01*
X48417561Y-108150926D01*
X48492196Y-108219168D01*
X48554637Y-108296606D01*
X48605090Y-108383365D01*
X48609903Y-108393453D01*
X48643565Y-108480356D01*
X48668423Y-108576049D01*
X48683702Y-108675630D01*
X48688627Y-108774192D01*
X48683476Y-108858712D01*
X48676591Y-108905885D01*
X48668508Y-108939791D01*
X48657923Y-108963038D01*
X48643535Y-108978235D01*
X48624041Y-108987990D01*
X48617935Y-108989969D01*
X48585476Y-108994253D01*
X48558182Y-108984866D01*
X48533302Y-108960773D01*
X48530462Y-108957000D01*
X48522964Y-108944818D01*
X48519776Y-108931701D01*
X48520552Y-108912826D01*
X48524944Y-108883368D01*
X48525108Y-108882390D01*
X48529217Y-108849077D01*
X48530310Y-108812924D01*
X48528389Y-108769219D01*
X48525221Y-108731262D01*
X48508750Y-108620147D01*
X48481213Y-108520326D01*
X48442391Y-108431557D01*
X48392064Y-108353599D01*
X48330013Y-108286211D01*
X48256018Y-108229151D01*
X48169859Y-108182179D01*
X48071317Y-108145053D01*
X47968000Y-108119076D01*
X47930662Y-108111904D01*
X47894422Y-108105757D01*
X47857732Y-108100559D01*
X47819043Y-108096235D01*
X47776808Y-108092707D01*
X47729477Y-108089898D01*
X47675504Y-108087733D01*
X47613340Y-108086135D01*
X47541436Y-108085026D01*
X47458245Y-108084331D01*
X47362219Y-108083973D01*
X47256215Y-108083875D01*
X46809125Y-108083875D01*
X46809125Y-109639252D01*
X46809096Y-109840719D01*
X46809009Y-110026689D01*
X46808860Y-110197536D01*
X46808648Y-110353638D01*
X46808372Y-110495370D01*
X46808028Y-110623109D01*
X46807614Y-110737231D01*
X46807129Y-110838113D01*
X46806570Y-110926132D01*
X46805936Y-111001662D01*
X46805224Y-111065082D01*
X46804432Y-111116766D01*
X46803558Y-111157093D01*
X46802600Y-111186437D01*
X46801555Y-111205175D01*
X46800422Y-111213685D01*
X46800312Y-111213970D01*
X46782252Y-111236544D01*
X46756047Y-111248514D01*
X46725770Y-111249411D01*
X46695495Y-111238768D01*
X46680266Y-111227776D01*
X46654344Y-111204615D01*
X46654344Y-107965253D01*
X46672431Y-107947174D01*
X46690518Y-107929094D01*
X47220118Y-107929094D01*
X47327597Y-107929134D01*
G37*
X47327597Y-107929134D02*
X47420562Y-107929275D01*
X47500374Y-107929547D01*
X47568393Y-107929982D01*
X47625980Y-107930609D01*
X47674496Y-107931460D01*
X47715301Y-107932564D01*
X47749757Y-107933953D01*
X47779224Y-107935657D01*
X47805063Y-107937707D01*
X47828634Y-107940134D01*
X47851298Y-107942968D01*
X47854247Y-107943367D01*
X47992951Y-107967469D01*
X48118428Y-108000153D01*
X48230884Y-108041542D01*
X48330526Y-108091759D01*
X48417561Y-108150926D01*
X48492196Y-108219168D01*
X48554637Y-108296606D01*
X48605090Y-108383365D01*
X48609903Y-108393453D01*
X48643565Y-108480356D01*
X48668423Y-108576049D01*
X48683702Y-108675630D01*
X48688627Y-108774192D01*
X48683476Y-108858712D01*
X48676591Y-108905885D01*
X48668508Y-108939791D01*
X48657923Y-108963038D01*
X48643535Y-108978235D01*
X48624041Y-108987990D01*
X48617935Y-108989969D01*
X48585476Y-108994253D01*
X48558182Y-108984866D01*
X48533302Y-108960773D01*
X48530462Y-108957000D01*
X48522964Y-108944818D01*
X48519776Y-108931701D01*
X48520552Y-108912826D01*
X48524944Y-108883368D01*
X48525108Y-108882390D01*
X48529217Y-108849077D01*
X48530310Y-108812924D01*
X48528389Y-108769219D01*
X48525221Y-108731262D01*
X48508750Y-108620147D01*
X48481213Y-108520326D01*
X48442391Y-108431557D01*
X48392064Y-108353599D01*
X48330013Y-108286211D01*
X48256018Y-108229151D01*
X48169859Y-108182179D01*
X48071317Y-108145053D01*
X47968000Y-108119076D01*
X47930662Y-108111904D01*
X47894422Y-108105757D01*
X47857732Y-108100559D01*
X47819043Y-108096235D01*
X47776808Y-108092707D01*
X47729477Y-108089898D01*
X47675504Y-108087733D01*
X47613340Y-108086135D01*
X47541436Y-108085026D01*
X47458245Y-108084331D01*
X47362219Y-108083973D01*
X47256215Y-108083875D01*
X46809125Y-108083875D01*
X46809125Y-109639252D01*
X46809096Y-109840719D01*
X46809009Y-110026689D01*
X46808860Y-110197536D01*
X46808648Y-110353638D01*
X46808372Y-110495370D01*
X46808028Y-110623109D01*
X46807614Y-110737231D01*
X46807129Y-110838113D01*
X46806570Y-110926132D01*
X46805936Y-111001662D01*
X46805224Y-111065082D01*
X46804432Y-111116766D01*
X46803558Y-111157093D01*
X46802600Y-111186437D01*
X46801555Y-111205175D01*
X46800422Y-111213685D01*
X46800312Y-111213970D01*
X46782252Y-111236544D01*
X46756047Y-111248514D01*
X46725770Y-111249411D01*
X46695495Y-111238768D01*
X46680266Y-111227776D01*
X46654344Y-111204615D01*
X46654344Y-107965253D01*
X46672431Y-107947174D01*
X46690518Y-107929094D01*
X47220118Y-107929094D01*
X47327597Y-107929134D01*
G36*
X47752809Y-109292881D02*
G01*
X47843927Y-109294879D01*
X47921514Y-109297752D01*
X47987904Y-109301843D01*
X48045433Y-109307497D01*
X48096435Y-109315055D01*
X48143245Y-109324861D01*
X48188197Y-109337259D01*
X48233628Y-109352592D01*
X48279723Y-109370337D01*
X48367343Y-109412546D01*
X48451157Y-109466276D01*
X48527786Y-109528916D01*
X48593851Y-109597858D01*
X48622929Y-109635361D01*
X48678121Y-109725034D01*
X48722226Y-109824081D01*
X48755432Y-109933146D01*
X48777928Y-110052875D01*
X48789902Y-110183915D01*
X48791037Y-110211125D01*
X48789571Y-110349487D01*
X48775627Y-110480189D01*
X48749394Y-110602636D01*
X48711060Y-110716234D01*
X48660813Y-110820389D01*
X48598843Y-110914506D01*
X48549494Y-110973123D01*
X48479456Y-111040990D01*
X48404781Y-111097980D01*
X48323154Y-111145349D01*
X48232261Y-111184349D01*
X48129789Y-111216235D01*
X48077357Y-111229034D01*
X48060514Y-111232660D01*
X48043707Y-111235739D01*
X48025476Y-111238328D01*
X48004360Y-111240483D01*
X47978901Y-111242261D01*
X47947638Y-111243719D01*
X47909111Y-111244914D01*
X47861861Y-111245901D01*
X47804427Y-111246737D01*
X47735351Y-111247480D01*
X47653171Y-111248186D01*
X47566919Y-111248835D01*
X47472654Y-111249510D01*
X47392967Y-111250031D01*
X47326561Y-111250358D01*
X47272140Y-111250453D01*
X47228407Y-111250276D01*
X47194066Y-111249788D01*
X47167819Y-111248951D01*
X47148372Y-111247724D01*
X47134426Y-111246070D01*
X47124685Y-111243948D01*
X47117853Y-111241320D01*
X47112633Y-111238147D01*
X47108529Y-111235019D01*
X47094647Y-111221167D01*
X47088332Y-111204363D01*
X47086938Y-111180690D01*
X47091741Y-111143620D01*
X47106826Y-111117667D01*
X47132262Y-111101428D01*
X47145763Y-111099104D01*
X47174102Y-111097017D01*
X47217444Y-111095164D01*
X47275952Y-111093540D01*
X47349792Y-111092142D01*
X47439126Y-111090963D01*
X47544121Y-111090002D01*
X47579063Y-111089752D01*
X47677677Y-111089055D01*
X47761944Y-111088302D01*
X47833391Y-111087356D01*
X47893545Y-111086083D01*
X47943933Y-111084345D01*
X47986084Y-111082008D01*
X48021523Y-111078936D01*
X48051780Y-111074991D01*
X48078380Y-111070039D01*
X48102851Y-111063944D01*
X48126721Y-111056569D01*
X48151517Y-111047779D01*
X48178765Y-111037438D01*
X48182313Y-111036071D01*
X48275929Y-110991779D01*
X48360166Y-110935082D01*
X48434093Y-110866878D01*
X48496777Y-110788066D01*
X48547288Y-110699544D01*
X48559420Y-110672435D01*
X48590987Y-110585455D01*
X48613587Y-110494318D01*
X48627756Y-110396008D01*
X48634031Y-110287507D01*
X48634458Y-110250813D01*
X48629091Y-110123125D01*
X48612468Y-110006613D01*
X48584543Y-109901213D01*
X48545272Y-109806864D01*
X48494612Y-109723502D01*
X48432517Y-109651065D01*
X48358943Y-109589490D01*
X48273846Y-109538714D01*
X48177181Y-109498675D01*
X48083094Y-109472403D01*
X48059054Y-109467306D01*
X48035439Y-109463177D01*
X48010052Y-109459867D01*
X47980696Y-109457229D01*
X47945176Y-109455116D01*
X47901295Y-109453380D01*
X47846855Y-109451873D01*
X47779661Y-109450448D01*
X47747069Y-109449838D01*
X47490419Y-109445156D01*
X47466410Y-109418270D01*
X47451160Y-109398567D01*
X47445672Y-109381593D01*
X47446956Y-109362707D01*
X47459511Y-109331309D01*
X47476705Y-109311327D01*
X47501898Y-109288623D01*
X47752809Y-109292881D01*
G37*
X47752809Y-109292881D02*
X47843927Y-109294879D01*
X47921514Y-109297752D01*
X47987904Y-109301843D01*
X48045433Y-109307497D01*
X48096435Y-109315055D01*
X48143245Y-109324861D01*
X48188197Y-109337259D01*
X48233628Y-109352592D01*
X48279723Y-109370337D01*
X48367343Y-109412546D01*
X48451157Y-109466276D01*
X48527786Y-109528916D01*
X48593851Y-109597858D01*
X48622929Y-109635361D01*
X48678121Y-109725034D01*
X48722226Y-109824081D01*
X48755432Y-109933146D01*
X48777928Y-110052875D01*
X48789902Y-110183915D01*
X48791037Y-110211125D01*
X48789571Y-110349487D01*
X48775627Y-110480189D01*
X48749394Y-110602636D01*
X48711060Y-110716234D01*
X48660813Y-110820389D01*
X48598843Y-110914506D01*
X48549494Y-110973123D01*
X48479456Y-111040990D01*
X48404781Y-111097980D01*
X48323154Y-111145349D01*
X48232261Y-111184349D01*
X48129789Y-111216235D01*
X48077357Y-111229034D01*
X48060514Y-111232660D01*
X48043707Y-111235739D01*
X48025476Y-111238328D01*
X48004360Y-111240483D01*
X47978901Y-111242261D01*
X47947638Y-111243719D01*
X47909111Y-111244914D01*
X47861861Y-111245901D01*
X47804427Y-111246737D01*
X47735351Y-111247480D01*
X47653171Y-111248186D01*
X47566919Y-111248835D01*
X47472654Y-111249510D01*
X47392967Y-111250031D01*
X47326561Y-111250358D01*
X47272140Y-111250453D01*
X47228407Y-111250276D01*
X47194066Y-111249788D01*
X47167819Y-111248951D01*
X47148372Y-111247724D01*
X47134426Y-111246070D01*
X47124685Y-111243948D01*
X47117853Y-111241320D01*
X47112633Y-111238147D01*
X47108529Y-111235019D01*
X47094647Y-111221167D01*
X47088332Y-111204363D01*
X47086938Y-111180690D01*
X47091741Y-111143620D01*
X47106826Y-111117667D01*
X47132262Y-111101428D01*
X47145763Y-111099104D01*
X47174102Y-111097017D01*
X47217444Y-111095164D01*
X47275952Y-111093540D01*
X47349792Y-111092142D01*
X47439126Y-111090963D01*
X47544121Y-111090002D01*
X47579063Y-111089752D01*
X47677677Y-111089055D01*
X47761944Y-111088302D01*
X47833391Y-111087356D01*
X47893545Y-111086083D01*
X47943933Y-111084345D01*
X47986084Y-111082008D01*
X48021523Y-111078936D01*
X48051780Y-111074991D01*
X48078380Y-111070039D01*
X48102851Y-111063944D01*
X48126721Y-111056569D01*
X48151517Y-111047779D01*
X48178765Y-111037438D01*
X48182313Y-111036071D01*
X48275929Y-110991779D01*
X48360166Y-110935082D01*
X48434093Y-110866878D01*
X48496777Y-110788066D01*
X48547288Y-110699544D01*
X48559420Y-110672435D01*
X48590987Y-110585455D01*
X48613587Y-110494318D01*
X48627756Y-110396008D01*
X48634031Y-110287507D01*
X48634458Y-110250813D01*
X48629091Y-110123125D01*
X48612468Y-110006613D01*
X48584543Y-109901213D01*
X48545272Y-109806864D01*
X48494612Y-109723502D01*
X48432517Y-109651065D01*
X48358943Y-109589490D01*
X48273846Y-109538714D01*
X48177181Y-109498675D01*
X48083094Y-109472403D01*
X48059054Y-109467306D01*
X48035439Y-109463177D01*
X48010052Y-109459867D01*
X47980696Y-109457229D01*
X47945176Y-109455116D01*
X47901295Y-109453380D01*
X47846855Y-109451873D01*
X47779661Y-109450448D01*
X47747069Y-109449838D01*
X47490419Y-109445156D01*
X47466410Y-109418270D01*
X47451160Y-109398567D01*
X47445672Y-109381593D01*
X47446956Y-109362707D01*
X47459511Y-109331309D01*
X47476705Y-109311327D01*
X47501898Y-109288623D01*
X47752809Y-109292881D01*
G36*
X52475119Y-109621415D02*
G01*
X52497886Y-109634969D01*
X52520156Y-109654125D01*
X52520156Y-110948952D01*
X52499539Y-110969569D01*
X52473036Y-110986722D01*
X52440990Y-110994307D01*
X52409821Y-110991287D01*
X52397531Y-110986042D01*
X52380889Y-110972529D01*
X52372292Y-110960095D01*
X52371387Y-110950030D01*
X52370511Y-110925306D01*
X52369678Y-110887136D01*
X52368897Y-110836736D01*
X52368182Y-110775319D01*
X52367543Y-110704102D01*
X52366992Y-110624299D01*
X52366541Y-110537124D01*
X52366202Y-110443792D01*
X52365986Y-110345519D01*
X52365933Y-110300061D01*
X52365375Y-109654778D01*
X52384858Y-109635295D01*
X52410923Y-109619542D01*
X52442841Y-109614910D01*
X52475119Y-109621415D01*
G37*
X52475119Y-109621415D02*
X52497886Y-109634969D01*
X52520156Y-109654125D01*
X52520156Y-110948952D01*
X52499539Y-110969569D01*
X52473036Y-110986722D01*
X52440990Y-110994307D01*
X52409821Y-110991287D01*
X52397531Y-110986042D01*
X52380889Y-110972529D01*
X52372292Y-110960095D01*
X52371387Y-110950030D01*
X52370511Y-110925306D01*
X52369678Y-110887136D01*
X52368897Y-110836736D01*
X52368182Y-110775319D01*
X52367543Y-110704102D01*
X52366992Y-110624299D01*
X52366541Y-110537124D01*
X52366202Y-110443792D01*
X52365986Y-110345519D01*
X52365933Y-110300061D01*
X52365375Y-109654778D01*
X52384858Y-109635295D01*
X52410923Y-109619542D01*
X52442841Y-109614910D01*
X52475119Y-109621415D01*
G36*
X54352076Y-108764042D02*
G01*
X54368955Y-108775844D01*
X54369243Y-108776091D01*
X54380243Y-108786604D01*
X54386965Y-108797667D01*
X54390532Y-108813437D01*
X54392066Y-108838068D01*
X54392525Y-108862289D01*
X54396556Y-108914862D01*
X54408481Y-108958743D01*
X54430356Y-108998738D01*
X54464238Y-109039651D01*
X54471861Y-109047576D01*
X54509797Y-109083594D01*
X54553274Y-109119471D01*
X54603404Y-109155851D01*
X54661301Y-109193375D01*
X54728081Y-109232688D01*
X54804855Y-109274431D01*
X54892739Y-109319249D01*
X54992847Y-109367783D01*
X55106292Y-109420678D01*
X55163344Y-109446687D01*
X55282774Y-109501732D01*
X55388421Y-109552508D01*
X55481560Y-109599773D01*
X55563467Y-109644279D01*
X55635418Y-109686783D01*
X55698688Y-109728038D01*
X55754553Y-109768801D01*
X55804290Y-109809825D01*
X55849173Y-109851865D01*
X55850601Y-109853293D01*
X55907715Y-109916629D01*
X55950821Y-109979272D01*
X55980854Y-110043898D01*
X55998750Y-110113181D01*
X56005445Y-110189798D01*
X56001874Y-110276424D01*
X56001175Y-110283843D01*
X55984648Y-110381106D01*
X55954626Y-110470467D01*
X55910740Y-110552598D01*
X55852620Y-110628171D01*
X55779896Y-110697859D01*
X55767921Y-110707672D01*
X55713072Y-110747074D01*
X55650400Y-110784366D01*
X55584992Y-110816934D01*
X55521935Y-110842162D01*
X55484361Y-110853450D01*
X55429531Y-110865075D01*
X55364529Y-110875399D01*
X55292973Y-110884145D01*
X55218483Y-110891034D01*
X55144677Y-110895786D01*
X55075176Y-110898123D01*
X55013598Y-110897766D01*
X54963563Y-110894436D01*
X54959231Y-110893916D01*
X54880663Y-110881545D01*
X54800646Y-110864511D01*
X54723201Y-110843917D01*
X54652347Y-110820865D01*
X54592104Y-110796460D01*
X54576250Y-110788810D01*
X54498140Y-110743292D01*
X54425161Y-110689167D01*
X54360630Y-110629258D01*
X54307863Y-110566391D01*
X54297468Y-110551402D01*
X54268659Y-110504380D01*
X54250941Y-110466024D01*
X54243634Y-110434350D01*
X54246059Y-110407372D01*
X54247054Y-110404104D01*
X54259868Y-110375889D01*
X54277658Y-110360313D01*
X54304632Y-110354365D01*
X54317070Y-110354000D01*
X54343729Y-110356303D01*
X54364311Y-110364907D01*
X54381881Y-110382357D01*
X54399508Y-110411194D01*
X54409148Y-110430364D01*
X54431196Y-110466117D01*
X54463428Y-110505849D01*
X54502165Y-110545808D01*
X54543726Y-110582240D01*
X54584433Y-110611390D01*
X54589743Y-110614610D01*
X54677595Y-110658743D01*
X54775880Y-110694207D01*
X54881275Y-110720250D01*
X54990455Y-110736124D01*
X55100096Y-110741079D01*
X55144622Y-110739769D01*
X55267289Y-110729323D01*
X55376788Y-110711385D01*
X55474094Y-110685675D01*
X55560182Y-110651910D01*
X55636027Y-110609811D01*
X55664918Y-110589683D01*
X55719333Y-110542120D01*
X55765245Y-110485780D01*
X55805073Y-110417587D01*
X55812688Y-110401902D01*
X55833434Y-110350896D01*
X55845524Y-110301893D01*
X55849578Y-110250037D01*
X55846216Y-110190469D01*
X55843036Y-110164157D01*
X55832888Y-110114661D01*
X55815603Y-110067458D01*
X55790391Y-110021915D01*
X55756462Y-109977398D01*
X55713025Y-109933273D01*
X55659289Y-109888907D01*
X55594465Y-109843666D01*
X55517761Y-109796916D01*
X55428388Y-109748024D01*
X55325553Y-109696356D01*
X55208469Y-109641278D01*
X55167560Y-109622693D01*
X55061280Y-109574169D01*
X54960001Y-109526745D01*
X54865117Y-109481120D01*
X54778017Y-109437996D01*
X54700094Y-109398070D01*
X54632740Y-109362045D01*
X54577347Y-109330620D01*
X54536281Y-109305143D01*
X54479001Y-109263926D01*
X54421549Y-109216892D01*
X54376878Y-109175553D01*
X54342520Y-109140233D01*
X54316935Y-109110592D01*
X54296728Y-109082114D01*
X54278502Y-109050281D01*
X54269722Y-109033012D01*
X54253920Y-109000500D01*
X54243762Y-108976267D01*
X54238001Y-108954888D01*
X54235391Y-108930939D01*
X54234685Y-108898996D01*
X54234656Y-108880447D01*
X54235810Y-108835387D01*
X54240286Y-108803606D01*
X54249610Y-108782610D01*
X54265305Y-108769907D01*
X54288897Y-108763002D01*
X54307946Y-108760560D01*
X54334137Y-108759555D01*
X54352076Y-108764042D01*
G37*
X54352076Y-108764042D02*
X54368955Y-108775844D01*
X54369243Y-108776091D01*
X54380243Y-108786604D01*
X54386965Y-108797667D01*
X54390532Y-108813437D01*
X54392066Y-108838068D01*
X54392525Y-108862289D01*
X54396556Y-108914862D01*
X54408481Y-108958743D01*
X54430356Y-108998738D01*
X54464238Y-109039651D01*
X54471861Y-109047576D01*
X54509797Y-109083594D01*
X54553274Y-109119471D01*
X54603404Y-109155851D01*
X54661301Y-109193375D01*
X54728081Y-109232688D01*
X54804855Y-109274431D01*
X54892739Y-109319249D01*
X54992847Y-109367783D01*
X55106292Y-109420678D01*
X55163344Y-109446687D01*
X55282774Y-109501732D01*
X55388421Y-109552508D01*
X55481560Y-109599773D01*
X55563467Y-109644279D01*
X55635418Y-109686783D01*
X55698688Y-109728038D01*
X55754553Y-109768801D01*
X55804290Y-109809825D01*
X55849173Y-109851865D01*
X55850601Y-109853293D01*
X55907715Y-109916629D01*
X55950821Y-109979272D01*
X55980854Y-110043898D01*
X55998750Y-110113181D01*
X56005445Y-110189798D01*
X56001874Y-110276424D01*
X56001175Y-110283843D01*
X55984648Y-110381106D01*
X55954626Y-110470467D01*
X55910740Y-110552598D01*
X55852620Y-110628171D01*
X55779896Y-110697859D01*
X55767921Y-110707672D01*
X55713072Y-110747074D01*
X55650400Y-110784366D01*
X55584992Y-110816934D01*
X55521935Y-110842162D01*
X55484361Y-110853450D01*
X55429531Y-110865075D01*
X55364529Y-110875399D01*
X55292973Y-110884145D01*
X55218483Y-110891034D01*
X55144677Y-110895786D01*
X55075176Y-110898123D01*
X55013598Y-110897766D01*
X54963563Y-110894436D01*
X54959231Y-110893916D01*
X54880663Y-110881545D01*
X54800646Y-110864511D01*
X54723201Y-110843917D01*
X54652347Y-110820865D01*
X54592104Y-110796460D01*
X54576250Y-110788810D01*
X54498140Y-110743292D01*
X54425161Y-110689167D01*
X54360630Y-110629258D01*
X54307863Y-110566391D01*
X54297468Y-110551402D01*
X54268659Y-110504380D01*
X54250941Y-110466024D01*
X54243634Y-110434350D01*
X54246059Y-110407372D01*
X54247054Y-110404104D01*
X54259868Y-110375889D01*
X54277658Y-110360313D01*
X54304632Y-110354365D01*
X54317070Y-110354000D01*
X54343729Y-110356303D01*
X54364311Y-110364907D01*
X54381881Y-110382357D01*
X54399508Y-110411194D01*
X54409148Y-110430364D01*
X54431196Y-110466117D01*
X54463428Y-110505849D01*
X54502165Y-110545808D01*
X54543726Y-110582240D01*
X54584433Y-110611390D01*
X54589743Y-110614610D01*
X54677595Y-110658743D01*
X54775880Y-110694207D01*
X54881275Y-110720250D01*
X54990455Y-110736124D01*
X55100096Y-110741079D01*
X55144622Y-110739769D01*
X55267289Y-110729323D01*
X55376788Y-110711385D01*
X55474094Y-110685675D01*
X55560182Y-110651910D01*
X55636027Y-110609811D01*
X55664918Y-110589683D01*
X55719333Y-110542120D01*
X55765245Y-110485780D01*
X55805073Y-110417587D01*
X55812688Y-110401902D01*
X55833434Y-110350896D01*
X55845524Y-110301893D01*
X55849578Y-110250037D01*
X55846216Y-110190469D01*
X55843036Y-110164157D01*
X55832888Y-110114661D01*
X55815603Y-110067458D01*
X55790391Y-110021915D01*
X55756462Y-109977398D01*
X55713025Y-109933273D01*
X55659289Y-109888907D01*
X55594465Y-109843666D01*
X55517761Y-109796916D01*
X55428388Y-109748024D01*
X55325553Y-109696356D01*
X55208469Y-109641278D01*
X55167560Y-109622693D01*
X55061280Y-109574169D01*
X54960001Y-109526745D01*
X54865117Y-109481120D01*
X54778017Y-109437996D01*
X54700094Y-109398070D01*
X54632740Y-109362045D01*
X54577347Y-109330620D01*
X54536281Y-109305143D01*
X54479001Y-109263926D01*
X54421549Y-109216892D01*
X54376878Y-109175553D01*
X54342520Y-109140233D01*
X54316935Y-109110592D01*
X54296728Y-109082114D01*
X54278502Y-109050281D01*
X54269722Y-109033012D01*
X54253920Y-109000500D01*
X54243762Y-108976267D01*
X54238001Y-108954888D01*
X54235391Y-108930939D01*
X54234685Y-108898996D01*
X54234656Y-108880447D01*
X54235810Y-108835387D01*
X54240286Y-108803606D01*
X54249610Y-108782610D01*
X54265305Y-108769907D01*
X54288897Y-108763002D01*
X54307946Y-108760560D01*
X54334137Y-108759555D01*
X54352076Y-108764042D01*
G36*
X47421936Y-108329994D02*
G01*
X47514220Y-108330212D01*
X47592484Y-108330934D01*
X47658579Y-108332316D01*
X47714358Y-108334513D01*
X47761671Y-108337680D01*
X47802371Y-108341975D01*
X47838308Y-108347551D01*
X47871334Y-108354565D01*
X47903301Y-108363174D01*
X47934851Y-108373128D01*
X48014438Y-108407031D01*
X48082502Y-108451789D01*
X48138914Y-108507204D01*
X48183545Y-108573075D01*
X48216267Y-108649206D01*
X48236949Y-108735397D01*
X48245464Y-108831449D01*
X48245695Y-108852526D01*
X48242190Y-108922326D01*
X48232297Y-108983904D01*
X48216616Y-109035933D01*
X48195743Y-109077087D01*
X48170279Y-109106036D01*
X48140821Y-109121455D01*
X48123477Y-109123688D01*
X48091349Y-109116828D01*
X48067563Y-109096576D01*
X48055139Y-109071569D01*
X48050716Y-109053764D01*
X48051129Y-109036655D01*
X48057057Y-109014582D01*
X48064454Y-108994203D01*
X48074820Y-108955400D01*
X48081518Y-108906423D01*
X48084494Y-108852127D01*
X48083697Y-108797364D01*
X48079072Y-108746989D01*
X48070570Y-108705853D01*
X48067667Y-108697134D01*
X48039076Y-108639147D01*
X47999678Y-108591102D01*
X47948785Y-108552518D01*
X47885707Y-108522914D01*
X47809756Y-108501808D01*
X47780634Y-108496442D01*
X47760955Y-108494519D01*
X47727810Y-108492770D01*
X47683610Y-108491258D01*
X47630764Y-108490045D01*
X47571680Y-108489195D01*
X47508768Y-108488770D01*
X47485797Y-108488733D01*
X47237750Y-108488688D01*
X47237750Y-110663563D01*
X47553266Y-110663317D01*
X47652120Y-110663019D01*
X47736594Y-110662170D01*
X47808177Y-110660591D01*
X47868361Y-110658106D01*
X47918636Y-110654535D01*
X47960491Y-110649699D01*
X47995417Y-110643421D01*
X48024904Y-110635522D01*
X48050443Y-110625824D01*
X48073524Y-110614148D01*
X48095637Y-110600317D01*
X48099042Y-110597990D01*
X48139494Y-110564325D01*
X48170778Y-110524533D01*
X48193717Y-110476658D01*
X48209135Y-110418741D01*
X48217852Y-110348824D01*
X48219901Y-110310344D01*
X48218968Y-110219215D01*
X48208973Y-110140528D01*
X48189341Y-110073305D01*
X48159492Y-110016569D01*
X48118849Y-109969343D01*
X48066834Y-109930648D01*
X48002869Y-109899508D01*
X47969936Y-109887669D01*
X47949654Y-109881320D01*
X47930783Y-109876402D01*
X47910816Y-109872687D01*
X47887248Y-109869945D01*
X47857573Y-109867946D01*
X47819284Y-109866460D01*
X47769876Y-109865259D01*
X47714000Y-109864235D01*
X47646804Y-109862867D01*
X47593614Y-109861132D01*
X47552558Y-109858754D01*
X47521767Y-109855458D01*
X47499372Y-109850966D01*
X47483502Y-109845003D01*
X47472288Y-109837293D01*
X47463860Y-109827560D01*
X47463653Y-109827265D01*
X47453033Y-109799994D01*
X47452426Y-109767874D01*
X47461263Y-109737707D01*
X47472489Y-109721665D01*
X47492915Y-109701239D01*
X47692754Y-109705532D01*
X47775879Y-109707965D01*
X47845794Y-109711723D01*
X47905147Y-109717331D01*
X47956583Y-109725315D01*
X48002748Y-109736202D01*
X48046288Y-109750517D01*
X48089850Y-109768786D01*
X48136079Y-109791537D01*
X48142673Y-109794982D01*
X48203642Y-109835664D01*
X48258025Y-109889338D01*
X48304303Y-109953948D01*
X48340956Y-110027442D01*
X48362541Y-110092063D01*
X48369198Y-110128112D01*
X48373841Y-110175828D01*
X48376470Y-110231133D01*
X48377086Y-110289947D01*
X48375690Y-110348191D01*
X48372282Y-110401785D01*
X48366862Y-110446651D01*
X48362492Y-110468296D01*
X48336632Y-110547012D01*
X48301173Y-110614773D01*
X48255468Y-110672067D01*
X48198866Y-110719380D01*
X48130717Y-110757199D01*
X48050374Y-110786011D01*
X47957186Y-110806303D01*
X47901615Y-110813853D01*
X47875805Y-110815842D01*
X47837922Y-110817541D01*
X47789883Y-110818953D01*
X47733605Y-110820081D01*
X47671004Y-110820925D01*
X47603997Y-110821488D01*
X47534499Y-110821772D01*
X47464428Y-110821779D01*
X47395699Y-110821511D01*
X47330231Y-110820970D01*
X47269938Y-110820158D01*
X47216737Y-110819077D01*
X47172545Y-110817729D01*
X47139279Y-110816116D01*
X47118854Y-110814240D01*
X47113640Y-110813029D01*
X47097227Y-110799485D01*
X47087843Y-110785411D01*
X47086543Y-110777419D01*
X47085358Y-110759121D01*
X47084285Y-110730093D01*
X47083321Y-110689908D01*
X47082463Y-110638140D01*
X47081708Y-110574362D01*
X47081053Y-110498150D01*
X47080494Y-110409076D01*
X47080029Y-110306715D01*
X47079655Y-110190640D01*
X47079368Y-110060425D01*
X47079165Y-109915645D01*
X47079044Y-109755873D01*
X47079000Y-109580683D01*
X47079000Y-108368903D01*
X47117966Y-108329937D01*
X47421936Y-108329994D01*
G37*
X47421936Y-108329994D02*
X47514220Y-108330212D01*
X47592484Y-108330934D01*
X47658579Y-108332316D01*
X47714358Y-108334513D01*
X47761671Y-108337680D01*
X47802371Y-108341975D01*
X47838308Y-108347551D01*
X47871334Y-108354565D01*
X47903301Y-108363174D01*
X47934851Y-108373128D01*
X48014438Y-108407031D01*
X48082502Y-108451789D01*
X48138914Y-108507204D01*
X48183545Y-108573075D01*
X48216267Y-108649206D01*
X48236949Y-108735397D01*
X48245464Y-108831449D01*
X48245695Y-108852526D01*
X48242190Y-108922326D01*
X48232297Y-108983904D01*
X48216616Y-109035933D01*
X48195743Y-109077087D01*
X48170279Y-109106036D01*
X48140821Y-109121455D01*
X48123477Y-109123688D01*
X48091349Y-109116828D01*
X48067563Y-109096576D01*
X48055139Y-109071569D01*
X48050716Y-109053764D01*
X48051129Y-109036655D01*
X48057057Y-109014582D01*
X48064454Y-108994203D01*
X48074820Y-108955400D01*
X48081518Y-108906423D01*
X48084494Y-108852127D01*
X48083697Y-108797364D01*
X48079072Y-108746989D01*
X48070570Y-108705853D01*
X48067667Y-108697134D01*
X48039076Y-108639147D01*
X47999678Y-108591102D01*
X47948785Y-108552518D01*
X47885707Y-108522914D01*
X47809756Y-108501808D01*
X47780634Y-108496442D01*
X47760955Y-108494519D01*
X47727810Y-108492770D01*
X47683610Y-108491258D01*
X47630764Y-108490045D01*
X47571680Y-108489195D01*
X47508768Y-108488770D01*
X47485797Y-108488733D01*
X47237750Y-108488688D01*
X47237750Y-110663563D01*
X47553266Y-110663317D01*
X47652120Y-110663019D01*
X47736594Y-110662170D01*
X47808177Y-110660591D01*
X47868361Y-110658106D01*
X47918636Y-110654535D01*
X47960491Y-110649699D01*
X47995417Y-110643421D01*
X48024904Y-110635522D01*
X48050443Y-110625824D01*
X48073524Y-110614148D01*
X48095637Y-110600317D01*
X48099042Y-110597990D01*
X48139494Y-110564325D01*
X48170778Y-110524533D01*
X48193717Y-110476658D01*
X48209135Y-110418741D01*
X48217852Y-110348824D01*
X48219901Y-110310344D01*
X48218968Y-110219215D01*
X48208973Y-110140528D01*
X48189341Y-110073305D01*
X48159492Y-110016569D01*
X48118849Y-109969343D01*
X48066834Y-109930648D01*
X48002869Y-109899508D01*
X47969936Y-109887669D01*
X47949654Y-109881320D01*
X47930783Y-109876402D01*
X47910816Y-109872687D01*
X47887248Y-109869945D01*
X47857573Y-109867946D01*
X47819284Y-109866460D01*
X47769876Y-109865259D01*
X47714000Y-109864235D01*
X47646804Y-109862867D01*
X47593614Y-109861132D01*
X47552558Y-109858754D01*
X47521767Y-109855458D01*
X47499372Y-109850966D01*
X47483502Y-109845003D01*
X47472288Y-109837293D01*
X47463860Y-109827560D01*
X47463653Y-109827265D01*
X47453033Y-109799994D01*
X47452426Y-109767874D01*
X47461263Y-109737707D01*
X47472489Y-109721665D01*
X47492915Y-109701239D01*
X47692754Y-109705532D01*
X47775879Y-109707965D01*
X47845794Y-109711723D01*
X47905147Y-109717331D01*
X47956583Y-109725315D01*
X48002748Y-109736202D01*
X48046288Y-109750517D01*
X48089850Y-109768786D01*
X48136079Y-109791537D01*
X48142673Y-109794982D01*
X48203642Y-109835664D01*
X48258025Y-109889338D01*
X48304303Y-109953948D01*
X48340956Y-110027442D01*
X48362541Y-110092063D01*
X48369198Y-110128112D01*
X48373841Y-110175828D01*
X48376470Y-110231133D01*
X48377086Y-110289947D01*
X48375690Y-110348191D01*
X48372282Y-110401785D01*
X48366862Y-110446651D01*
X48362492Y-110468296D01*
X48336632Y-110547012D01*
X48301173Y-110614773D01*
X48255468Y-110672067D01*
X48198866Y-110719380D01*
X48130717Y-110757199D01*
X48050374Y-110786011D01*
X47957186Y-110806303D01*
X47901615Y-110813853D01*
X47875805Y-110815842D01*
X47837922Y-110817541D01*
X47789883Y-110818953D01*
X47733605Y-110820081D01*
X47671004Y-110820925D01*
X47603997Y-110821488D01*
X47534499Y-110821772D01*
X47464428Y-110821779D01*
X47395699Y-110821511D01*
X47330231Y-110820970D01*
X47269938Y-110820158D01*
X47216737Y-110819077D01*
X47172545Y-110817729D01*
X47139279Y-110816116D01*
X47118854Y-110814240D01*
X47113640Y-110813029D01*
X47097227Y-110799485D01*
X47087843Y-110785411D01*
X47086543Y-110777419D01*
X47085358Y-110759121D01*
X47084285Y-110730093D01*
X47083321Y-110689908D01*
X47082463Y-110638140D01*
X47081708Y-110574362D01*
X47081053Y-110498150D01*
X47080494Y-110409076D01*
X47080029Y-110306715D01*
X47079655Y-110190640D01*
X47079368Y-110060425D01*
X47079165Y-109915645D01*
X47079044Y-109755873D01*
X47079000Y-109580683D01*
X47079000Y-108368903D01*
X47117966Y-108329937D01*
X47421936Y-108329994D01*
G36*
X54805636Y-108296859D02*
G01*
X54898308Y-108306146D01*
X54983165Y-108319809D01*
X55029858Y-108330309D01*
X55068610Y-108342519D01*
X55116292Y-108360994D01*
X55168334Y-108383642D01*
X55220170Y-108408372D01*
X55267231Y-108433090D01*
X55304949Y-108455705D01*
X55307779Y-108457599D01*
X55387287Y-108520154D01*
X55453385Y-108591103D01*
X55506148Y-108670580D01*
X55545653Y-108758722D01*
X55571974Y-108855663D01*
X55584429Y-108950201D01*
X55586137Y-109001106D01*
X55582315Y-109038977D01*
X55572336Y-109065880D01*
X55555572Y-109083879D01*
X55541484Y-109091478D01*
X55508969Y-109097847D01*
X55476403Y-109092474D01*
X55449869Y-109076494D01*
X55447415Y-109073957D01*
X55439687Y-109062805D01*
X55434252Y-109047133D01*
X55430412Y-109023561D01*
X55427464Y-108988703D01*
X55426495Y-108972875D01*
X55423287Y-108932636D01*
X55418627Y-108893298D01*
X55413274Y-108860730D01*
X55410309Y-108847824D01*
X55395640Y-108807076D01*
X55373315Y-108760471D01*
X55346448Y-108713808D01*
X55318158Y-108672889D01*
X55312455Y-108665723D01*
X55270577Y-108624394D01*
X55215348Y-108585018D01*
X55149270Y-108548690D01*
X55074844Y-108516500D01*
X54994571Y-108489541D01*
X54910953Y-108468904D01*
X54833078Y-108456425D01*
X54777400Y-108451969D01*
X54712015Y-108450018D01*
X54641174Y-108450419D01*
X54569128Y-108453019D01*
X54500128Y-108457664D01*
X54438425Y-108464202D01*
X54388300Y-108472472D01*
X54293790Y-108497924D01*
X54211728Y-108531923D01*
X54140766Y-108575162D01*
X54079559Y-108628330D01*
X54074538Y-108633567D01*
X54030471Y-108687047D01*
X53999241Y-108741974D01*
X53979563Y-108801747D01*
X53970152Y-108869763D01*
X53968888Y-108913027D01*
X53974061Y-108997348D01*
X53989907Y-109073616D01*
X54017438Y-109146374D01*
X54023692Y-109159406D01*
X54060523Y-109223976D01*
X54105155Y-109283332D01*
X54159337Y-109339172D01*
X54224821Y-109393197D01*
X54303357Y-109447107D01*
X54348477Y-109474794D01*
X54381487Y-109494320D01*
X54410704Y-109511301D01*
X54437985Y-109526641D01*
X54465183Y-109541246D01*
X54494156Y-109556017D01*
X54526756Y-109571860D01*
X54564840Y-109589678D01*
X54610263Y-109610376D01*
X54664879Y-109634856D01*
X54730544Y-109664023D01*
X54798855Y-109694248D01*
X54862987Y-109722891D01*
X54926492Y-109751793D01*
X54986885Y-109779784D01*
X55041676Y-109805691D01*
X55088379Y-109828344D01*
X55124504Y-109846571D01*
X55140168Y-109854950D01*
X55197665Y-109888421D01*
X55255039Y-109924627D01*
X55309602Y-109961661D01*
X55358669Y-109997616D01*
X55399554Y-110030583D01*
X55429572Y-110058655D01*
X55434410Y-110063939D01*
X55466616Y-110106888D01*
X55495403Y-110157096D01*
X55517958Y-110208904D01*
X55531470Y-110256653D01*
X55532175Y-110260734D01*
X55535198Y-110299323D01*
X55533332Y-110340744D01*
X55527201Y-110378955D01*
X55517429Y-110407917D01*
X55516857Y-110409013D01*
X55497326Y-110430245D01*
X55469747Y-110440240D01*
X55437842Y-110438415D01*
X55408288Y-110426051D01*
X55390856Y-110414330D01*
X55379941Y-110402374D01*
X55374176Y-110386306D01*
X55372190Y-110362252D01*
X55372614Y-110326334D01*
X55372646Y-110325164D01*
X55372871Y-110289597D01*
X55370540Y-110264042D01*
X55364656Y-110242710D01*
X55354664Y-110220681D01*
X55337268Y-110192349D01*
X55313294Y-110163986D01*
X55281633Y-110134839D01*
X55241177Y-110104156D01*
X55190817Y-110071186D01*
X55129446Y-110035175D01*
X55055954Y-109995371D01*
X54969234Y-109951022D01*
X54925219Y-109929195D01*
X54868954Y-109901882D01*
X54809095Y-109873458D01*
X54749889Y-109845894D01*
X54695582Y-109821165D01*
X54650422Y-109801245D01*
X54643438Y-109798256D01*
X54576000Y-109768558D01*
X54504781Y-109735377D01*
X54432752Y-109700235D01*
X54362887Y-109664653D01*
X54298157Y-109630151D01*
X54241536Y-109598251D01*
X54195996Y-109570475D01*
X54187781Y-109565083D01*
X54139685Y-109529689D01*
X54088347Y-109486255D01*
X54036966Y-109437967D01*
X53988741Y-109388009D01*
X53946870Y-109339570D01*
X53914553Y-109295834D01*
X53909526Y-109287945D01*
X53863188Y-109198491D01*
X53831618Y-109104044D01*
X53814666Y-109003994D01*
X53812184Y-108897727D01*
X53812574Y-108889531D01*
X53823441Y-108793920D01*
X53845756Y-108708538D01*
X53879998Y-108632141D01*
X53926643Y-108563484D01*
X53946572Y-108540413D01*
X54008199Y-108480239D01*
X54074840Y-108429462D01*
X54147964Y-108387539D01*
X54229040Y-108353927D01*
X54319539Y-108328082D01*
X54420930Y-108309463D01*
X54534683Y-108297524D01*
X54615656Y-108293100D01*
X54709850Y-108292370D01*
X54805636Y-108296859D01*
G37*
X54805636Y-108296859D02*
X54898308Y-108306146D01*
X54983165Y-108319809D01*
X55029858Y-108330309D01*
X55068610Y-108342519D01*
X55116292Y-108360994D01*
X55168334Y-108383642D01*
X55220170Y-108408372D01*
X55267231Y-108433090D01*
X55304949Y-108455705D01*
X55307779Y-108457599D01*
X55387287Y-108520154D01*
X55453385Y-108591103D01*
X55506148Y-108670580D01*
X55545653Y-108758722D01*
X55571974Y-108855663D01*
X55584429Y-108950201D01*
X55586137Y-109001106D01*
X55582315Y-109038977D01*
X55572336Y-109065880D01*
X55555572Y-109083879D01*
X55541484Y-109091478D01*
X55508969Y-109097847D01*
X55476403Y-109092474D01*
X55449869Y-109076494D01*
X55447415Y-109073957D01*
X55439687Y-109062805D01*
X55434252Y-109047133D01*
X55430412Y-109023561D01*
X55427464Y-108988703D01*
X55426495Y-108972875D01*
X55423287Y-108932636D01*
X55418627Y-108893298D01*
X55413274Y-108860730D01*
X55410309Y-108847824D01*
X55395640Y-108807076D01*
X55373315Y-108760471D01*
X55346448Y-108713808D01*
X55318158Y-108672889D01*
X55312455Y-108665723D01*
X55270577Y-108624394D01*
X55215348Y-108585018D01*
X55149270Y-108548690D01*
X55074844Y-108516500D01*
X54994571Y-108489541D01*
X54910953Y-108468904D01*
X54833078Y-108456425D01*
X54777400Y-108451969D01*
X54712015Y-108450018D01*
X54641174Y-108450419D01*
X54569128Y-108453019D01*
X54500128Y-108457664D01*
X54438425Y-108464202D01*
X54388300Y-108472472D01*
X54293790Y-108497924D01*
X54211728Y-108531923D01*
X54140766Y-108575162D01*
X54079559Y-108628330D01*
X54074538Y-108633567D01*
X54030471Y-108687047D01*
X53999241Y-108741974D01*
X53979563Y-108801747D01*
X53970152Y-108869763D01*
X53968888Y-108913027D01*
X53974061Y-108997348D01*
X53989907Y-109073616D01*
X54017438Y-109146374D01*
X54023692Y-109159406D01*
X54060523Y-109223976D01*
X54105155Y-109283332D01*
X54159337Y-109339172D01*
X54224821Y-109393197D01*
X54303357Y-109447107D01*
X54348477Y-109474794D01*
X54381487Y-109494320D01*
X54410704Y-109511301D01*
X54437985Y-109526641D01*
X54465183Y-109541246D01*
X54494156Y-109556017D01*
X54526756Y-109571860D01*
X54564840Y-109589678D01*
X54610263Y-109610376D01*
X54664879Y-109634856D01*
X54730544Y-109664023D01*
X54798855Y-109694248D01*
X54862987Y-109722891D01*
X54926492Y-109751793D01*
X54986885Y-109779784D01*
X55041676Y-109805691D01*
X55088379Y-109828344D01*
X55124504Y-109846571D01*
X55140168Y-109854950D01*
X55197665Y-109888421D01*
X55255039Y-109924627D01*
X55309602Y-109961661D01*
X55358669Y-109997616D01*
X55399554Y-110030583D01*
X55429572Y-110058655D01*
X55434410Y-110063939D01*
X55466616Y-110106888D01*
X55495403Y-110157096D01*
X55517958Y-110208904D01*
X55531470Y-110256653D01*
X55532175Y-110260734D01*
X55535198Y-110299323D01*
X55533332Y-110340744D01*
X55527201Y-110378955D01*
X55517429Y-110407917D01*
X55516857Y-110409013D01*
X55497326Y-110430245D01*
X55469747Y-110440240D01*
X55437842Y-110438415D01*
X55408288Y-110426051D01*
X55390856Y-110414330D01*
X55379941Y-110402374D01*
X55374176Y-110386306D01*
X55372190Y-110362252D01*
X55372614Y-110326334D01*
X55372646Y-110325164D01*
X55372871Y-110289597D01*
X55370540Y-110264042D01*
X55364656Y-110242710D01*
X55354664Y-110220681D01*
X55337268Y-110192349D01*
X55313294Y-110163986D01*
X55281633Y-110134839D01*
X55241177Y-110104156D01*
X55190817Y-110071186D01*
X55129446Y-110035175D01*
X55055954Y-109995371D01*
X54969234Y-109951022D01*
X54925219Y-109929195D01*
X54868954Y-109901882D01*
X54809095Y-109873458D01*
X54749889Y-109845894D01*
X54695582Y-109821165D01*
X54650422Y-109801245D01*
X54643438Y-109798256D01*
X54576000Y-109768558D01*
X54504781Y-109735377D01*
X54432752Y-109700235D01*
X54362887Y-109664653D01*
X54298157Y-109630151D01*
X54241536Y-109598251D01*
X54195996Y-109570475D01*
X54187781Y-109565083D01*
X54139685Y-109529689D01*
X54088347Y-109486255D01*
X54036966Y-109437967D01*
X53988741Y-109388009D01*
X53946870Y-109339570D01*
X53914553Y-109295834D01*
X53909526Y-109287945D01*
X53863188Y-109198491D01*
X53831618Y-109104044D01*
X53814666Y-109003994D01*
X53812184Y-108897727D01*
X53812574Y-108889531D01*
X53823441Y-108793920D01*
X53845756Y-108708538D01*
X53879998Y-108632141D01*
X53926643Y-108563484D01*
X53946572Y-108540413D01*
X54008199Y-108480239D01*
X54074840Y-108429462D01*
X54147964Y-108387539D01*
X54229040Y-108353927D01*
X54319539Y-108328082D01*
X54420930Y-108309463D01*
X54534683Y-108297524D01*
X54615656Y-108293100D01*
X54709850Y-108292370D01*
X54805636Y-108296859D01*
G36*
X54273266Y-110077530D02*
G01*
X54279164Y-110078063D01*
X54318057Y-110087844D01*
X54345149Y-110107826D01*
X54359599Y-110136797D01*
X54360564Y-110173546D01*
X54357030Y-110189993D01*
X54342861Y-110218591D01*
X54320374Y-110239879D01*
X54293930Y-110250085D01*
X54287164Y-110250462D01*
X54266475Y-110246495D01*
X54242128Y-110237168D01*
X54237764Y-110234973D01*
X54211082Y-110212876D01*
X54196037Y-110183348D01*
X54193121Y-110150259D01*
X54202824Y-110117482D01*
X54219899Y-110094191D01*
X54234457Y-110082104D01*
X54250036Y-110077152D01*
X54273266Y-110077530D01*
G37*
X54273266Y-110077530D02*
X54279164Y-110078063D01*
X54318057Y-110087844D01*
X54345149Y-110107826D01*
X54359599Y-110136797D01*
X54360564Y-110173546D01*
X54357030Y-110189993D01*
X54342861Y-110218591D01*
X54320374Y-110239879D01*
X54293930Y-110250085D01*
X54287164Y-110250462D01*
X54266475Y-110246495D01*
X54242128Y-110237168D01*
X54237764Y-110234973D01*
X54211082Y-110212876D01*
X54196037Y-110183348D01*
X54193121Y-110150259D01*
X54202824Y-110117482D01*
X54219899Y-110094191D01*
X54234457Y-110082104D01*
X54250036Y-110077152D01*
X54273266Y-110077530D01*
G36*
X50571195Y-108192184D02*
G01*
X50584605Y-108204392D01*
X50588089Y-108208454D01*
X50594930Y-108218845D01*
X50608906Y-108242007D01*
X50629398Y-108276860D01*
X50655787Y-108322324D01*
X50687452Y-108377318D01*
X50723776Y-108440761D01*
X50764137Y-108511574D01*
X50807917Y-108588676D01*
X50854497Y-108670985D01*
X50903256Y-108757423D01*
X50926870Y-108799381D01*
X50989881Y-108911622D01*
X51045226Y-109010643D01*
X51093190Y-109096970D01*
X51134053Y-109171127D01*
X51168098Y-109233636D01*
X51195608Y-109285022D01*
X51216865Y-109325809D01*
X51232151Y-109356521D01*
X51241749Y-109377681D01*
X51245941Y-109389814D01*
X51246188Y-109391833D01*
X51239028Y-109422424D01*
X51218912Y-109445841D01*
X51187884Y-109460104D01*
X51172883Y-109462802D01*
X51148563Y-109464246D01*
X51132496Y-109460096D01*
X51117408Y-109448068D01*
X51113520Y-109444161D01*
X51106271Y-109433791D01*
X51091977Y-109410605D01*
X51071257Y-109375688D01*
X51044731Y-109330125D01*
X51013020Y-109275002D01*
X50976744Y-109211404D01*
X50936524Y-109140416D01*
X50892979Y-109063123D01*
X50846730Y-108980610D01*
X50798398Y-108893963D01*
X50775797Y-108853307D01*
X50713443Y-108740814D01*
X50658684Y-108641583D01*
X50611242Y-108555088D01*
X50570836Y-108480807D01*
X50537189Y-108418215D01*
X50510022Y-108366789D01*
X50489057Y-108326004D01*
X50474014Y-108295337D01*
X50464615Y-108274264D01*
X50460581Y-108262261D01*
X50460375Y-108260421D01*
X50467552Y-108229774D01*
X50487612Y-108206227D01*
X50518350Y-108191951D01*
X50532621Y-108189380D01*
X50556193Y-108187980D01*
X50571195Y-108192184D01*
G37*
X50571195Y-108192184D02*
X50584605Y-108204392D01*
X50588089Y-108208454D01*
X50594930Y-108218845D01*
X50608906Y-108242007D01*
X50629398Y-108276860D01*
X50655787Y-108322324D01*
X50687452Y-108377318D01*
X50723776Y-108440761D01*
X50764137Y-108511574D01*
X50807917Y-108588676D01*
X50854497Y-108670985D01*
X50903256Y-108757423D01*
X50926870Y-108799381D01*
X50989881Y-108911622D01*
X51045226Y-109010643D01*
X51093190Y-109096970D01*
X51134053Y-109171127D01*
X51168098Y-109233636D01*
X51195608Y-109285022D01*
X51216865Y-109325809D01*
X51232151Y-109356521D01*
X51241749Y-109377681D01*
X51245941Y-109389814D01*
X51246188Y-109391833D01*
X51239028Y-109422424D01*
X51218912Y-109445841D01*
X51187884Y-109460104D01*
X51172883Y-109462802D01*
X51148563Y-109464246D01*
X51132496Y-109460096D01*
X51117408Y-109448068D01*
X51113520Y-109444161D01*
X51106271Y-109433791D01*
X51091977Y-109410605D01*
X51071257Y-109375688D01*
X51044731Y-109330125D01*
X51013020Y-109275002D01*
X50976744Y-109211404D01*
X50936524Y-109140416D01*
X50892979Y-109063123D01*
X50846730Y-108980610D01*
X50798398Y-108893963D01*
X50775797Y-108853307D01*
X50713443Y-108740814D01*
X50658684Y-108641583D01*
X50611242Y-108555088D01*
X50570836Y-108480807D01*
X50537189Y-108418215D01*
X50510022Y-108366789D01*
X50489057Y-108326004D01*
X50474014Y-108295337D01*
X50464615Y-108274264D01*
X50460581Y-108262261D01*
X50460375Y-108260421D01*
X50467552Y-108229774D01*
X50487612Y-108206227D01*
X50518350Y-108191951D01*
X50532621Y-108189380D01*
X50556193Y-108187980D01*
X50571195Y-108192184D01*
G36*
X48520902Y-109086102D02*
G01*
X48556870Y-109096221D01*
X48581585Y-109116514D01*
X48593881Y-109145815D01*
X48595063Y-109160243D01*
X48588957Y-109198631D01*
X48572277Y-109227358D01*
X48547482Y-109245034D01*
X48517028Y-109250270D01*
X48483374Y-109241676D01*
X48467252Y-109232532D01*
X48439019Y-109208094D01*
X48425841Y-109181814D01*
X48426899Y-109151474D01*
X48431733Y-109136089D01*
X48447907Y-109106545D01*
X48470315Y-109089979D01*
X48501644Y-109084885D01*
X48520902Y-109086102D01*
G37*
X48520902Y-109086102D02*
X48556870Y-109096221D01*
X48581585Y-109116514D01*
X48593881Y-109145815D01*
X48595063Y-109160243D01*
X48588957Y-109198631D01*
X48572277Y-109227358D01*
X48547482Y-109245034D01*
X48517028Y-109250270D01*
X48483374Y-109241676D01*
X48467252Y-109232532D01*
X48439019Y-109208094D01*
X48425841Y-109181814D01*
X48426899Y-109151474D01*
X48431733Y-109136089D01*
X48447907Y-109106545D01*
X48470315Y-109089979D01*
X48501644Y-109084885D01*
X48520902Y-109086102D01*
G36*
X54960527Y-107931769D02*
G01*
X54977175Y-107933360D01*
X55123340Y-107954705D01*
X55259344Y-107988121D01*
X55385128Y-108033579D01*
X55500635Y-108091050D01*
X55605805Y-108160505D01*
X55700582Y-108241916D01*
X55782908Y-108332753D01*
X55849334Y-108424268D01*
X55902190Y-108517173D01*
X55943542Y-108615603D01*
X55972751Y-108712808D01*
X55982636Y-108758451D01*
X55991374Y-108811152D01*
X55998580Y-108867029D01*
X56003869Y-108922197D01*
X56006857Y-108972773D01*
X56007159Y-109014875D01*
X56005164Y-109040141D01*
X55993598Y-109077849D01*
X55973045Y-109105150D01*
X55945653Y-109120487D01*
X55913568Y-109122307D01*
X55897563Y-109118082D01*
X55883187Y-109109733D01*
X55867797Y-109097481D01*
X55858330Y-109086731D01*
X55852907Y-109073064D01*
X55850465Y-109052038D01*
X55849938Y-109022772D01*
X55843066Y-108894294D01*
X55822668Y-108773471D01*
X55789069Y-108660771D01*
X55742595Y-108556661D01*
X55683568Y-108461608D01*
X55612316Y-108376079D01*
X55529163Y-108300541D01*
X55434435Y-108235461D01*
X55328455Y-108181306D01*
X55241069Y-108147903D01*
X55181767Y-108129813D01*
X55121724Y-108115119D01*
X55056411Y-108102894D01*
X54981302Y-108092209D01*
X54952563Y-108088742D01*
X54910902Y-108083647D01*
X54881944Y-108079182D01*
X54862590Y-108074485D01*
X54849738Y-108068693D01*
X54840287Y-108060944D01*
X54836101Y-108056336D01*
X54821423Y-108028613D01*
X54819148Y-107997846D01*
X54828128Y-107968476D01*
X54847210Y-107944940D01*
X54867896Y-107933643D01*
X54888631Y-107929694D01*
X54918607Y-107929071D01*
X54960527Y-107931769D01*
G37*
X54960527Y-107931769D02*
X54977175Y-107933360D01*
X55123340Y-107954705D01*
X55259344Y-107988121D01*
X55385128Y-108033579D01*
X55500635Y-108091050D01*
X55605805Y-108160505D01*
X55700582Y-108241916D01*
X55782908Y-108332753D01*
X55849334Y-108424268D01*
X55902190Y-108517173D01*
X55943542Y-108615603D01*
X55972751Y-108712808D01*
X55982636Y-108758451D01*
X55991374Y-108811152D01*
X55998580Y-108867029D01*
X56003869Y-108922197D01*
X56006857Y-108972773D01*
X56007159Y-109014875D01*
X56005164Y-109040141D01*
X55993598Y-109077849D01*
X55973045Y-109105150D01*
X55945653Y-109120487D01*
X55913568Y-109122307D01*
X55897563Y-109118082D01*
X55883187Y-109109733D01*
X55867797Y-109097481D01*
X55858330Y-109086731D01*
X55852907Y-109073064D01*
X55850465Y-109052038D01*
X55849938Y-109022772D01*
X55843066Y-108894294D01*
X55822668Y-108773471D01*
X55789069Y-108660771D01*
X55742595Y-108556661D01*
X55683568Y-108461608D01*
X55612316Y-108376079D01*
X55529163Y-108300541D01*
X55434435Y-108235461D01*
X55328455Y-108181306D01*
X55241069Y-108147903D01*
X55181767Y-108129813D01*
X55121724Y-108115119D01*
X55056411Y-108102894D01*
X54981302Y-108092209D01*
X54952563Y-108088742D01*
X54910902Y-108083647D01*
X54881944Y-108079182D01*
X54862590Y-108074485D01*
X54849738Y-108068693D01*
X54840287Y-108060944D01*
X54836101Y-108056336D01*
X54821423Y-108028613D01*
X54819148Y-107997846D01*
X54828128Y-107968476D01*
X54847210Y-107944940D01*
X54867896Y-107933643D01*
X54888631Y-107929694D01*
X54918607Y-107929071D01*
X54960527Y-107931769D01*
D11*
X33840000Y-28092164D02*
X33840000Y-28307836D01*
X34560000Y-28092164D02*
X34560000Y-28307836D01*
X73020000Y-24653641D02*
X73020000Y-24346359D01*
X73780000Y-24653641D02*
X73780000Y-24346359D01*
X20153641Y-29080000D02*
X19846359Y-29080000D01*
X20153641Y-28320000D02*
X19846359Y-28320000D01*
X46192164Y-46360000D02*
X46407836Y-46360000D01*
X46192164Y-45640000D02*
X46407836Y-45640000D01*
X19700000Y-68900000D02*
G75*
G03*
X19700000Y-68900000I-700000J0D01*
G01*
X59153641Y-47680000D02*
X58846359Y-47680000D01*
X59153641Y-46920000D02*
X58846359Y-46920000D01*
X20235000Y-32285000D02*
X20235000Y-30000000D01*
X18765000Y-32285000D02*
X20235000Y-32285000D01*
X18765000Y-30000000D02*
X18765000Y-32285000D01*
X24853641Y-45180000D02*
X24546359Y-45180000D01*
X24853641Y-44420000D02*
X24546359Y-44420000D01*
D12*
X33250000Y-28400000D02*
X33250000Y-29550000D01*
X24950000Y-29550000D02*
X24950000Y-28400000D01*
X33250000Y-29550000D02*
X24950000Y-29550000D01*
X24950000Y-21250000D02*
X33250000Y-21250000D01*
X33250000Y-21250000D02*
X33250000Y-22400000D01*
X24950000Y-22400000D02*
X24950000Y-21250000D01*
D13*
X23930000Y-25400000D02*
G75*
G03*
X23930000Y-25400000I-100000J0D01*
G01*
D11*
X77036359Y-50720000D02*
X77343641Y-50720000D01*
X77036359Y-51480000D02*
X77343641Y-51480000D01*
X28300000Y-99800000D02*
G75*
G03*
X28300000Y-99800000I-700000J0D01*
G01*
X37635000Y-43785000D02*
X37635000Y-41500000D01*
X36165000Y-43785000D02*
X37635000Y-43785000D01*
X36165000Y-41500000D02*
X36165000Y-43785000D01*
X41900000Y-44000000D02*
G75*
G03*
X41900000Y-44000000I-700000J0D01*
G01*
X27788748Y-48635000D02*
X28311252Y-48635000D01*
X27788748Y-47165000D02*
X28311252Y-47165000D01*
X24446359Y-32320000D02*
X24753641Y-32320000D01*
X24446359Y-33080000D02*
X24753641Y-33080000D01*
X67920000Y-24643641D02*
X67920000Y-24336359D01*
X68680000Y-24643641D02*
X68680000Y-24336359D01*
X25760000Y-39607836D02*
X25760000Y-39392164D01*
X25040000Y-39607836D02*
X25040000Y-39392164D01*
X20100000Y-36300000D02*
G75*
G03*
X20100000Y-36300000I-700000J0D01*
G01*
X64520000Y-24653641D02*
X64520000Y-24346359D01*
X65280000Y-24653641D02*
X65280000Y-24346359D01*
X20200000Y-103400000D02*
G75*
G03*
X20200000Y-103400000I-700000J0D01*
G01*
X24753641Y-35080000D02*
X24446359Y-35080000D01*
X24753641Y-34320000D02*
X24446359Y-34320000D01*
X46146359Y-46620000D02*
X46453641Y-46620000D01*
X46146359Y-47380000D02*
X46453641Y-47380000D01*
X22953641Y-45180000D02*
X22646359Y-45180000D01*
X22953641Y-44420000D02*
X22646359Y-44420000D01*
D12*
X43620000Y-42340000D02*
X46880000Y-42340000D01*
X43620000Y-40160000D02*
X46880000Y-40160000D01*
D11*
X62820000Y-24653641D02*
X62820000Y-24346359D01*
X63580000Y-24653641D02*
X63580000Y-24346359D01*
X25785000Y-56165000D02*
X23500000Y-56165000D01*
X25785000Y-57635000D02*
X25785000Y-56165000D01*
X23500000Y-57635000D02*
X25785000Y-57635000D01*
X22600000Y-36300000D02*
G75*
G03*
X22600000Y-36300000I-700000J0D01*
G01*
X22680000Y-56746359D02*
X22680000Y-57053641D01*
X21920000Y-56746359D02*
X21920000Y-57053641D01*
X66220000Y-24653641D02*
X66220000Y-24346359D01*
X66980000Y-24653641D02*
X66980000Y-24346359D01*
X58000000Y-21600000D02*
G75*
G03*
X58000000Y-21600000I-700000J0D01*
G01*
X23000000Y-103400000D02*
G75*
G03*
X23000000Y-103400000I-700000J0D01*
G01*
X59153641Y-51480000D02*
X58846359Y-51480000D01*
X59153641Y-50720000D02*
X58846359Y-50720000D01*
X24536100Y-84632300D02*
G75*
G03*
X24536100Y-84632300I-381000J0D01*
G01*
D10*
X58300000Y-36500000D02*
X56300000Y-36500000D01*
X58300000Y-40100000D02*
X56300000Y-40100000D01*
X74800000Y-54000000D02*
X74800000Y-54300000D01*
X74800000Y-44100000D02*
X61400000Y-44100000D01*
X61400000Y-44100000D02*
X61400000Y-44400000D01*
X61400000Y-54300000D02*
X61400000Y-54000000D01*
X74800000Y-54300000D02*
X61400000Y-54300000D01*
X74800000Y-44400000D02*
X74800000Y-44100000D01*
M02*
